G04*
G04 #@! TF.GenerationSoftware,Altium Limited,Altium Designer,22.0.2 (36)*
G04*
G04 Layer_Color=16711935*
%FSTAX25Y25*%
%MOIN*%
G70*
G04*
G04 #@! TF.SameCoordinates,371D3646-10FE-40E0-BBDF-05722AEB6D60*
G04*
G04*
G04 #@! TF.FilePolarity,Negative*
G04*
G01*
G75*
%ADD10C,0.01000*%
%ADD24C,0.00197*%
%ADD25C,0.00004*%
%ADD31R,0.05524X0.04147*%
%ADD32R,0.05800X0.05918*%
%ADD33R,0.05918X0.05800*%
%ADD36R,0.07099X0.07099*%
%ADD37C,0.07099*%
%ADD38C,0.05524*%
G36*
X0338441Y0349017D02*
X0338383D01*
Y0349076D01*
X0338441D01*
Y0349017D01*
D02*
G37*
G36*
X0338383Y0348958D02*
X0338324D01*
Y0349017D01*
X0338383D01*
Y0348958D01*
D02*
G37*
G36*
X0336042Y0347905D02*
X0335984D01*
Y0347847D01*
X0335925D01*
Y0347788D01*
X0335867D01*
Y034773D01*
X0335808D01*
Y0347613D01*
X033575D01*
Y0347554D01*
X0335457D01*
Y0347847D01*
X0335516D01*
Y0347964D01*
X0335691D01*
Y0347905D01*
X0335925D01*
Y0347964D01*
X0336042D01*
Y0347905D01*
D02*
G37*
G36*
X0338324Y0348841D02*
X0338266D01*
Y0348783D01*
X0338207D01*
Y0348724D01*
X0338149D01*
Y0348607D01*
X033809D01*
Y0348549D01*
X0338032D01*
Y034849D01*
X0337973D01*
Y0348432D01*
X0337915D01*
Y0348373D01*
X0337856D01*
Y0348315D01*
X0337798D01*
Y0348256D01*
X0337739D01*
Y0348198D01*
X0337681D01*
Y0348139D01*
X0337622D01*
Y0348081D01*
X0337564D01*
Y0348022D01*
X0337505D01*
Y0347964D01*
X0337447D01*
Y0347905D01*
X0337388D01*
Y0347788D01*
X033733D01*
Y0347437D01*
X0337388D01*
Y0347378D01*
X0337505D01*
Y034732D01*
X0337739D01*
Y0347378D01*
X0337798D01*
Y0347437D01*
X0337915D01*
Y0347496D01*
X0337973D01*
Y0347554D01*
X0338032D01*
Y0347671D01*
X0337973D01*
Y0347788D01*
X0338032D01*
Y0347847D01*
X0338149D01*
Y0347905D01*
X0338207D01*
Y0347964D01*
X0338266D01*
Y0347905D01*
X0338324D01*
Y0347847D01*
X0338266D01*
Y034773D01*
X0338207D01*
Y0347671D01*
Y0347613D01*
X0338149D01*
Y0347554D01*
X033809D01*
Y0347437D01*
X0338032D01*
Y0347378D01*
X0337973D01*
Y034732D01*
X0337915D01*
Y0347262D01*
X0337856D01*
Y0347203D01*
X0337739D01*
Y0347145D01*
X0337564D01*
Y0347086D01*
X0337447D01*
Y0347145D01*
X0337154D01*
Y0347203D01*
X0337096D01*
Y0347262D01*
X0337037D01*
Y0347671D01*
X0337096D01*
Y034773D01*
X0336979D01*
Y0347671D01*
X033692D01*
Y0347613D01*
X0336803D01*
Y0347554D01*
X0336686D01*
Y0347671D01*
X0336744D01*
Y034773D01*
X0336803D01*
Y0347788D01*
X033692D01*
Y0347847D01*
X0336979D01*
Y0347905D01*
X0337037D01*
Y0347964D01*
X0337096D01*
Y0348081D01*
X0337154D01*
Y0348139D01*
X033733D01*
Y0348198D01*
X0337388D01*
Y0348256D01*
X0337505D01*
Y0348315D01*
X0337564D01*
Y0348373D01*
X0337681D01*
Y0348432D01*
X0337739D01*
Y034849D01*
X0337798D01*
Y0348549D01*
X0337915D01*
Y0348607D01*
X0337973D01*
Y0348666D01*
X0338032D01*
Y0348724D01*
X033809D01*
Y0348783D01*
X0338149D01*
Y0348841D01*
X0338207D01*
Y03489D01*
X0338266D01*
Y0348958D01*
X0338324D01*
Y0348841D01*
D02*
G37*
G36*
X0336862Y0348666D02*
X0336803D01*
Y034849D01*
X0336744D01*
Y0348256D01*
X0336686D01*
Y0348022D01*
X0336628D01*
Y0347613D01*
X0336569D01*
Y034732D01*
X0336628D01*
Y0347145D01*
X0336569D01*
Y034691D01*
X033651D01*
Y0346676D01*
X0336393D01*
Y0346735D01*
X0336335D01*
Y0346793D01*
X0336276D01*
Y0347203D01*
X0336335D01*
Y0347437D01*
Y0347496D01*
Y0347554D01*
X0336393D01*
Y0348022D01*
X0336452D01*
Y0348373D01*
X033651D01*
Y0348607D01*
X0336569D01*
Y03489D01*
X0336628D01*
Y0348958D01*
X0336686D01*
Y0349017D01*
X0336862D01*
Y0348666D01*
D02*
G37*
G36*
X033692Y0345623D02*
X0336979D01*
Y0345565D01*
X0337037D01*
Y0345506D01*
X0337096D01*
Y0345389D01*
X0337037D01*
Y0345331D01*
X033692D01*
Y0345272D01*
X0336862D01*
Y0345331D01*
X0336803D01*
Y0345389D01*
X0336744D01*
Y0345682D01*
X033692D01*
Y0345623D01*
D02*
G37*
G36*
X0338032Y0345565D02*
X033809D01*
Y0345506D01*
X0338149D01*
Y0345447D01*
X0338207D01*
Y0345331D01*
X0338266D01*
Y0345272D01*
X0338207D01*
Y0345214D01*
X0337973D01*
Y0345272D01*
X0337798D01*
Y0345155D01*
X0337739D01*
Y0344862D01*
X0338032D01*
Y0344804D01*
X033809D01*
Y0344745D01*
X0338149D01*
Y0344628D01*
X0338207D01*
Y0344453D01*
X0338266D01*
Y0344219D01*
X0338207D01*
Y0343868D01*
X0338149D01*
Y0343751D01*
X0338266D01*
Y0343634D01*
X0338207D01*
Y0343516D01*
X033809D01*
Y0343458D01*
X0337973D01*
Y03434D01*
X0337915D01*
Y0343341D01*
X0337505D01*
Y0343283D01*
X0337447D01*
Y0343107D01*
X0337388D01*
Y034299D01*
X0337271D01*
Y0343048D01*
X0337213D01*
Y0343341D01*
X0337154D01*
Y03434D01*
X0336979D01*
Y0343458D01*
X0336744D01*
Y0343516D01*
X0336686D01*
Y0343751D01*
X0336744D01*
Y0343985D01*
X0336803D01*
Y034416D01*
X0336862D01*
Y0344277D01*
X033692D01*
Y0344336D01*
X0336979D01*
Y0344394D01*
X0336862D01*
Y0344336D01*
X0336803D01*
Y0344277D01*
X0336744D01*
Y0344219D01*
X0336686D01*
Y034416D01*
X0336628D01*
Y0344102D01*
X0336569D01*
Y0344043D01*
X033651D01*
Y0343926D01*
X0336452D01*
Y0343868D01*
X0336393D01*
Y0343809D01*
X0336335D01*
Y0343751D01*
X0336276D01*
Y0343575D01*
X0336218D01*
Y0343458D01*
X0335984D01*
Y0343516D01*
X0336042D01*
Y0343809D01*
X0336101D01*
Y0344102D01*
X0336159D01*
Y0344277D01*
X0336218D01*
Y0344394D01*
X0336335D01*
Y0344219D01*
X0336276D01*
Y0343985D01*
X0336218D01*
Y0343809D01*
X0336276D01*
Y0343868D01*
X0336335D01*
Y0343926D01*
X0336393D01*
Y0344043D01*
X0336452D01*
Y0344102D01*
X033651D01*
Y034416D01*
X0336569D01*
Y0344277D01*
X0336686D01*
Y0344336D01*
X0336744D01*
Y0344394D01*
X0336803D01*
Y0344453D01*
X033692D01*
Y0344511D01*
X0336979D01*
Y034457D01*
X0337037D01*
Y0344628D01*
X0337154D01*
Y0344687D01*
X0337213D01*
Y0344745D01*
X033733D01*
Y0344804D01*
X0337447D01*
Y0344921D01*
X0337505D01*
Y0345155D01*
X0337564D01*
Y0345272D01*
X0337447D01*
Y0345214D01*
X033733D01*
Y0345155D01*
X0337154D01*
Y0345096D01*
X0337037D01*
Y0345155D01*
X0337096D01*
Y0345214D01*
X0337213D01*
Y0345272D01*
X033733D01*
Y0345331D01*
X0337447D01*
Y0345389D01*
X0337564D01*
Y0345447D01*
X0337622D01*
Y0345506D01*
X0337739D01*
Y0345623D01*
X0338032D01*
Y0345565D01*
D02*
G37*
G36*
X0337037Y0345038D02*
X0336979D01*
Y0345096D01*
X0337037D01*
Y0345038D01*
D02*
G37*
G36*
X0336979Y0344979D02*
X0336862D01*
Y0345038D01*
X0336979D01*
Y0344979D01*
D02*
G37*
G36*
X0336335Y0345389D02*
X0336393D01*
Y0345331D01*
X0336452D01*
Y0345214D01*
X033651D01*
Y0345155D01*
X0336452D01*
Y0345038D01*
X0336276D01*
Y0344979D01*
X0336218D01*
Y0345038D01*
X0336159D01*
Y0345096D01*
X0336101D01*
Y0345214D01*
X0336042D01*
Y0345272D01*
Y0345331D01*
X0336101D01*
Y0345389D01*
X0336276D01*
Y0345447D01*
X0336335D01*
Y0345389D01*
D02*
G37*
G36*
X0336862Y0344921D02*
X0336803D01*
Y0344979D01*
X0336862D01*
Y0344921D01*
D02*
G37*
G36*
X0336628Y0344979D02*
X0336569D01*
Y0344921D01*
X033651D01*
Y0344862D01*
X0336452D01*
Y0344804D01*
X0336393D01*
Y0344745D01*
X0336335D01*
Y0344687D01*
X0336276D01*
Y0344628D01*
X0336218D01*
Y034457D01*
X0336159D01*
Y0344511D01*
X0336101D01*
Y0344453D01*
X0336042D01*
Y0344394D01*
X0335984D01*
Y0344336D01*
X0335925D01*
Y0344219D01*
X0335867D01*
Y034416D01*
X0335808D01*
Y0343926D01*
X0335633D01*
Y0343985D01*
X0335574D01*
Y0344043D01*
X0335633D01*
Y034416D01*
X0335691D01*
Y0344219D01*
X033575D01*
Y0344277D01*
X0335808D01*
Y0344336D01*
X0335867D01*
Y0344394D01*
X0335925D01*
Y0344453D01*
X0335984D01*
Y0344511D01*
X0336042D01*
Y034457D01*
X0336101D01*
Y0344628D01*
X0336159D01*
Y0344687D01*
X0336218D01*
Y0344745D01*
X0336276D01*
Y0344804D01*
X0336335D01*
Y0344862D01*
X0336393D01*
Y0344921D01*
X0336452D01*
Y0344979D01*
X033651D01*
Y0345038D01*
X0336628D01*
Y0344979D01*
D02*
G37*
G36*
X0325276Y0342405D02*
X0325159D01*
Y0342463D01*
X0325276D01*
Y0342405D01*
D02*
G37*
G36*
X0325159Y0342346D02*
X0325042D01*
Y0342405D01*
X0325159D01*
Y0342346D01*
D02*
G37*
G36*
X0338149Y0342054D02*
X033809D01*
Y0342112D01*
X0338149D01*
Y0342054D01*
D02*
G37*
G36*
X033809Y0341937D02*
X0338032D01*
Y0341878D01*
X0337973D01*
Y0341761D01*
X0337915D01*
Y0341644D01*
X0337856D01*
Y0341586D01*
X0337798D01*
Y0341469D01*
X0337739D01*
Y034141D01*
X0337681D01*
Y0341352D01*
X0337622D01*
Y0341293D01*
X0337564D01*
Y0341234D01*
X0337505D01*
Y0341176D01*
X0337447D01*
Y0341117D01*
X0337388D01*
Y0341059D01*
X033733D01*
Y0341D01*
X0337213D01*
Y0340942D01*
X0337096D01*
Y0340825D01*
X0337037D01*
Y0340649D01*
X0337096D01*
Y0340708D01*
X0337213D01*
Y0340649D01*
X033733D01*
Y0340591D01*
X0337388D01*
Y0340532D01*
X0337505D01*
Y0340825D01*
X0337564D01*
Y0340883D01*
X0337622D01*
Y0340942D01*
X0337681D01*
Y0341D01*
X0337622D01*
Y0341059D01*
X0337564D01*
Y0341176D01*
X0337622D01*
Y0341234D01*
X0337739D01*
Y0341293D01*
X0338149D01*
Y0341234D01*
X0338266D01*
Y0341176D01*
X0338324D01*
Y0341117D01*
X0338383D01*
Y0341059D01*
X0338441D01*
Y0341D01*
X03385D01*
Y0340766D01*
X0338441D01*
Y0340649D01*
X0338559D01*
Y0340474D01*
X03385D01*
Y0340415D01*
X0338383D01*
Y0340357D01*
X0338266D01*
Y0340298D01*
X0338032D01*
Y034024D01*
X0337622D01*
Y0340181D01*
X0337681D01*
Y0340123D01*
X0337739D01*
Y0340006D01*
X0337798D01*
Y033983D01*
X0337856D01*
Y0339713D01*
X0337798D01*
Y0339538D01*
X0337681D01*
Y0339596D01*
X0337622D01*
Y0339655D01*
X0337564D01*
Y0339772D01*
X0337505D01*
Y0339889D01*
X0337447D01*
Y0340006D01*
X0337388D01*
Y0340181D01*
X033733D01*
Y034024D01*
X0337271D01*
Y0340357D01*
X0337213D01*
Y0340415D01*
X0337154D01*
Y0340474D01*
X0337096D01*
Y0340591D01*
X0337037D01*
Y0340298D01*
X0336979D01*
Y0339947D01*
X033692D01*
Y0339889D01*
X0336803D01*
Y0339947D01*
X0336744D01*
Y0340766D01*
X0336686D01*
Y0340649D01*
X0336628D01*
Y0340474D01*
X0336569D01*
Y0340415D01*
X033651D01*
Y0340298D01*
X0336276D01*
Y0340474D01*
X0336218D01*
Y0340415D01*
X0336159D01*
Y0340298D01*
X0336101D01*
Y0340181D01*
X0336042D01*
Y0340123D01*
X0335925D01*
Y0340532D01*
X0335516D01*
Y0340766D01*
X0335867D01*
Y0340825D01*
X0335925D01*
Y0341117D01*
X0335984D01*
Y0341293D01*
X0336042D01*
Y034141D01*
X0336101D01*
Y0341469D01*
X0336159D01*
Y0341527D01*
X0336276D01*
Y034141D01*
X0336335D01*
Y0341293D01*
X0336276D01*
Y0341234D01*
X0336218D01*
Y0341176D01*
X0336159D01*
Y0340883D01*
X0336335D01*
Y0341059D01*
X0336393D01*
Y0341176D01*
X0336452D01*
Y0341293D01*
X033651D01*
Y034141D01*
X0336628D01*
Y0341D01*
X0336686D01*
Y0341059D01*
X0336744D01*
Y0341117D01*
X0336803D01*
Y0341234D01*
X0336862D01*
Y034141D01*
X033692D01*
Y0341527D01*
X0336979D01*
Y0341644D01*
X0337037D01*
Y0341761D01*
X0337096D01*
Y034182D01*
X0337154D01*
Y0341878D01*
X0337213D01*
Y0341469D01*
X0337154D01*
Y0341293D01*
X0337271D01*
Y0341352D01*
X0337388D01*
Y034141D01*
X0337447D01*
Y0341469D01*
X0337505D01*
Y0341527D01*
X0337564D01*
Y0341586D01*
X0337622D01*
Y0341644D01*
X0337681D01*
Y0341703D01*
X0337739D01*
Y0341761D01*
X0337798D01*
Y034182D01*
X0337856D01*
Y0341878D01*
X0337915D01*
Y0341937D01*
X0337973D01*
Y0341995D01*
X0338032D01*
Y0342054D01*
X033809D01*
Y0341937D01*
D02*
G37*
G36*
X0344293Y0341059D02*
X0344234D01*
Y0341D01*
X0344176D01*
Y0340942D01*
X0344117D01*
Y0340883D01*
X0344059D01*
Y0341117D01*
X0344117D01*
Y0342112D01*
X0344059D01*
Y0342054D01*
X0344D01*
Y0341937D01*
X0343942D01*
Y034182D01*
X0343883D01*
Y0341703D01*
X0343825D01*
Y0341644D01*
X0343766D01*
Y0341527D01*
X0343708D01*
Y0341469D01*
X0343649D01*
Y034141D01*
X0343591D01*
Y0341352D01*
X0343532D01*
Y0341234D01*
X0343415D01*
Y0341176D01*
X0343357D01*
Y0341117D01*
X0343298D01*
Y0341059D01*
X0343181D01*
Y0341D01*
X0342713D01*
Y0341059D01*
X0342596D01*
Y0341117D01*
X0342537D01*
Y0341176D01*
X0342479D01*
Y0341293D01*
X0342421D01*
Y0341527D01*
X0342362D01*
Y034182D01*
X0342421D01*
Y0341995D01*
X0342479D01*
Y0342112D01*
X0342537D01*
Y0342229D01*
X0342596D01*
Y0342405D01*
X0342947D01*
Y0342346D01*
X0342889D01*
Y0342288D01*
X034283D01*
Y0342229D01*
X0342772D01*
Y0342171D01*
X0342713D01*
Y0342054D01*
X0342655D01*
Y0341995D01*
X0342596D01*
Y0341937D01*
Y0341878D01*
Y034182D01*
X0342537D01*
Y0341469D01*
X0342596D01*
Y0341352D01*
X0342655D01*
Y0341293D01*
X0342713D01*
Y0341234D01*
X034283D01*
Y0341176D01*
X0343064D01*
Y0341234D01*
X0343181D01*
Y0341293D01*
X0343298D01*
Y0341352D01*
X0343357D01*
Y034141D01*
X0343415D01*
Y0341469D01*
X0343474D01*
Y0341527D01*
X0343532D01*
Y0341586D01*
X0343591D01*
Y0341644D01*
X0343649D01*
Y0341761D01*
X0343708D01*
Y034182D01*
X0343766D01*
Y0341937D01*
X0343825D01*
Y0341995D01*
X0343883D01*
Y0342112D01*
X0343942D01*
Y0342229D01*
X0344D01*
Y0342346D01*
X0344059D01*
Y0342405D01*
X0344117D01*
Y0342463D01*
X0344293D01*
Y0341059D01*
D02*
G37*
G36*
X0331069Y034182D02*
X0331244D01*
Y0341761D01*
X0331303D01*
Y0341703D01*
X033142D01*
Y0341644D01*
X0331478D01*
Y0341586D01*
X0331537D01*
Y0341527D01*
X0331595D01*
Y0341469D01*
X0331712D01*
Y034141D01*
X0331771D01*
Y0341176D01*
X0332005D01*
Y0341117D01*
X0332122D01*
Y0341059D01*
X033218D01*
Y0340942D01*
X0332239D01*
Y0340766D01*
X0332297D01*
Y0340298D01*
X0332239D01*
Y0340123D01*
X033218D01*
Y0340064D01*
X0332122D01*
Y0339947D01*
X0332063D01*
Y0339889D01*
X0331946D01*
Y033983D01*
X0331888D01*
Y0339772D01*
X0331829D01*
Y033983D01*
X0331712D01*
Y0339889D01*
X0331537D01*
Y0340064D01*
X0331595D01*
Y0340123D01*
X0331654D01*
Y0340181D01*
X0331712D01*
Y0340006D01*
X0331946D01*
Y0340064D01*
X0332005D01*
Y0340123D01*
X0332063D01*
Y034024D01*
X0332122D01*
Y0340474D01*
X033218D01*
Y0340591D01*
X0332122D01*
Y0340825D01*
X0332063D01*
Y0340883D01*
X0331946D01*
Y0340942D01*
X0331829D01*
Y0340883D01*
X0331712D01*
Y0340649D01*
X0331654D01*
Y0340474D01*
X0331595D01*
Y0340357D01*
X0331537D01*
Y0340298D01*
X033142D01*
Y034024D01*
X0331361D01*
Y0340181D01*
X0331303D01*
Y0340123D01*
X0331244D01*
Y0340064D01*
X0331186D01*
Y0340006D01*
X0331069D01*
Y0339947D01*
X0330951D01*
Y0339889D01*
X0330425D01*
Y0339947D01*
X0330308D01*
Y0340064D01*
X0330249D01*
Y0340298D01*
X0330308D01*
Y0340766D01*
X0330015D01*
Y0340708D01*
X0329898D01*
Y0340649D01*
X0329723D01*
Y0340708D01*
X0329664D01*
Y0340942D01*
X032984D01*
Y0341D01*
X0330366D01*
Y0341117D01*
X0330425D01*
Y0341234D01*
X0330483D01*
Y0341293D01*
X0330601D01*
Y0341352D01*
X0330776D01*
Y0341176D01*
X0330717D01*
Y0341117D01*
X0330776D01*
Y0341059D01*
X0330893D01*
Y0341117D01*
X0330951D01*
Y0341176D01*
X033101D01*
Y0341293D01*
X0331186D01*
Y0341176D01*
X0331244D01*
Y0341117D01*
X0331303D01*
Y0341176D01*
X033142D01*
Y0341234D01*
X0331478D01*
Y034141D01*
X033142D01*
Y0341469D01*
X0331186D01*
Y0341527D01*
X0331244D01*
Y0341586D01*
X0331186D01*
Y0341644D01*
X0330835D01*
Y0341586D01*
X0330717D01*
Y0341527D01*
X0330659D01*
Y034141D01*
X0330425D01*
Y0341469D01*
X0330366D01*
Y0341586D01*
X0330425D01*
Y0341644D01*
X0330483D01*
Y0341703D01*
X0330542D01*
Y0341761D01*
X0330659D01*
Y034182D01*
X0330776D01*
Y0341878D01*
X0331069D01*
Y034182D01*
D02*
G37*
G36*
X0325451Y0342054D02*
X0325568D01*
Y0341995D01*
X0325685D01*
Y0341937D01*
X0325744D01*
Y0341878D01*
X0325919D01*
Y0341761D01*
X0325861D01*
Y0341703D01*
X0325802D01*
Y0341586D01*
X0325861D01*
Y0341644D01*
X0325919D01*
Y0341469D01*
X0325861D01*
Y0341352D01*
X0325744D01*
Y0341293D01*
X0325685D01*
Y0341234D01*
X0325568D01*
Y0341176D01*
X0325334D01*
Y0341117D01*
X0324983D01*
Y0341176D01*
X032469D01*
Y0341234D01*
X0324573D01*
Y034141D01*
X0324632D01*
Y0341527D01*
X032469D01*
Y0341586D01*
X0324749D01*
Y0341644D01*
X0324808D01*
Y0341703D01*
X0324983D01*
Y0341761D01*
X0325159D01*
Y034182D01*
X0325276D01*
Y0341937D01*
X0325217D01*
Y0341878D01*
X0325042D01*
Y034182D01*
X0324808D01*
Y0341937D01*
X0324866D01*
Y0342054D01*
X0324983D01*
Y0342112D01*
X0325451D01*
Y0342054D01*
D02*
G37*
G36*
X0325042Y0342288D02*
X0324983D01*
Y0342229D01*
X0324866D01*
Y0342171D01*
X0324808D01*
Y0342112D01*
X0324749D01*
Y0342054D01*
X032469D01*
Y0341995D01*
X0324632D01*
Y0341937D01*
X0324573D01*
Y0341878D01*
X0324515D01*
Y034182D01*
X0324456D01*
Y0341703D01*
X0324398D01*
Y0341644D01*
X0324339D01*
Y0341527D01*
X0324281D01*
Y0341469D01*
X0324222D01*
Y0341234D01*
X0324164D01*
Y0341176D01*
X0324105D01*
Y0341117D01*
X0323988D01*
Y0341059D01*
X0323871D01*
Y0341117D01*
X0323813D01*
Y0341352D01*
X0323871D01*
Y0341469D01*
X032393D01*
Y0341527D01*
X0323988D01*
Y0341586D01*
X0324047D01*
Y0341644D01*
X0324105D01*
Y0341703D01*
X0324164D01*
Y0341761D01*
X0324222D01*
Y034182D01*
X0324281D01*
Y0341878D01*
X0324339D01*
Y0341937D01*
X0324398D01*
Y0341995D01*
X0324515D01*
Y0342054D01*
X0324573D01*
Y0342112D01*
X0324632D01*
Y0342171D01*
X0324749D01*
Y0342229D01*
X0324808D01*
Y0342288D01*
X0324924D01*
Y0342346D01*
X0325042D01*
Y0342288D01*
D02*
G37*
G36*
X032627Y0341059D02*
X0326212D01*
Y0340942D01*
X0326153D01*
Y0340883D01*
X0326095D01*
Y0340825D01*
X0326036D01*
Y0340766D01*
X0325978D01*
Y0340708D01*
X0325919D01*
Y0340649D01*
X0325978D01*
Y0340591D01*
X0326036D01*
Y0340532D01*
X0326095D01*
Y0340415D01*
X0326153D01*
Y0339889D01*
X0326095D01*
Y0339772D01*
X0326036D01*
Y0339655D01*
X0325978D01*
Y0339596D01*
X0325919D01*
Y0339538D01*
X0325685D01*
Y0339479D01*
X0325568D01*
Y0339538D01*
X032551D01*
Y0339596D01*
X0325451D01*
Y0339655D01*
X0325393D01*
Y0339772D01*
X0325802D01*
Y0339713D01*
X0325861D01*
Y033983D01*
X0325919D01*
Y0339947D01*
X0325978D01*
Y034024D01*
X0325919D01*
Y0340357D01*
X0325744D01*
Y0340415D01*
X0325627D01*
Y0340357D01*
X0325568D01*
Y0340298D01*
X032551D01*
Y0340181D01*
X0325451D01*
Y0340123D01*
X0325393D01*
Y0340064D01*
X0325334D01*
Y0340006D01*
X0325276D01*
Y0339947D01*
X0325217D01*
Y0339889D01*
X0325042D01*
Y0340006D01*
X0324983D01*
Y0340064D01*
X0325042D01*
Y0340181D01*
X03251D01*
Y0340298D01*
X0325159D01*
Y0340415D01*
X0325217D01*
Y0340591D01*
X0325159D01*
Y0340532D01*
X03251D01*
Y0340357D01*
X0325042D01*
Y0340298D01*
X0324983D01*
Y034024D01*
X0324924D01*
Y0340181D01*
X0324749D01*
Y0340298D01*
X032469D01*
Y0340415D01*
X0324749D01*
Y0340532D01*
X0324808D01*
Y0340649D01*
X0324866D01*
Y0340591D01*
X0324924D01*
Y0340532D01*
X0325042D01*
Y0340591D01*
X03251D01*
Y0340649D01*
X0325159D01*
Y0340708D01*
X0325217D01*
Y0340766D01*
X0325276D01*
Y0340825D01*
X0325334D01*
Y0340883D01*
X0325451D01*
Y0340942D01*
X032551D01*
Y0340883D01*
X0325568D01*
Y0340708D01*
X032551D01*
Y0340591D01*
X0325568D01*
Y0340649D01*
X0325627D01*
Y0340708D01*
X0325685D01*
Y0340766D01*
X0325744D01*
Y0340825D01*
X0325802D01*
Y0340883D01*
X0325861D01*
Y0340942D01*
X0325919D01*
Y0341D01*
X0325978D01*
Y0341059D01*
X0326036D01*
Y0341176D01*
X0326095D01*
Y0341234D01*
X032627D01*
Y0341059D01*
D02*
G37*
G36*
X032393Y0340357D02*
X0323871D01*
Y0340181D01*
X0323813D01*
Y0340123D01*
X032352D01*
Y0340357D01*
X0323579D01*
Y0340415D01*
X0323871D01*
Y0340474D01*
X032393D01*
Y0340357D01*
D02*
G37*
G36*
X0324749Y0340883D02*
X0324632D01*
Y0340825D01*
X0324573D01*
Y0340766D01*
X0324515D01*
Y0340649D01*
X0324456D01*
Y0340474D01*
X0324398D01*
Y034024D01*
X0324339D01*
Y0339947D01*
X0324281D01*
Y033983D01*
X0324398D01*
Y0339889D01*
X0324456D01*
Y0339947D01*
X0324515D01*
Y0340064D01*
X0324573D01*
Y033983D01*
X0324632D01*
Y0339772D01*
X0324573D01*
Y0339713D01*
X0324515D01*
Y0339655D01*
X0324456D01*
Y0339596D01*
X0324222D01*
Y0339655D01*
X0324164D01*
Y0339713D01*
X0324105D01*
Y0340123D01*
X0324164D01*
Y0340415D01*
X0324222D01*
Y0340591D01*
X0324281D01*
Y0340708D01*
X0324339D01*
Y0340766D01*
X0324222D01*
Y0340708D01*
X0324164D01*
Y0340883D01*
X0324222D01*
Y0340942D01*
X0324339D01*
Y0341D01*
X0324456D01*
Y0341059D01*
X0324749D01*
Y0340883D01*
D02*
G37*
G36*
X0343825Y0340532D02*
X0343942D01*
Y0340474D01*
X0344059D01*
Y0340415D01*
X0344117D01*
Y0340357D01*
X0344176D01*
Y034024D01*
X0344234D01*
Y0340064D01*
X0344293D01*
Y0339655D01*
X0344234D01*
Y0339479D01*
X0344176D01*
Y0339421D01*
X0344117D01*
Y0339303D01*
X0344D01*
Y0339245D01*
X0343883D01*
Y0339186D01*
X0343708D01*
Y0339128D01*
X0343123D01*
Y0339186D01*
X0342889D01*
Y0339245D01*
X0342772D01*
Y0339303D01*
X0342655D01*
Y0339362D01*
X0342596D01*
Y0339421D01*
X0342537D01*
Y0339538D01*
X0342479D01*
Y0339655D01*
X0342421D01*
Y033983D01*
X0342362D01*
Y0339947D01*
X0342421D01*
Y0340064D01*
X0342479D01*
Y0340181D01*
X0342537D01*
Y0340298D01*
X0342596D01*
Y0340357D01*
X0342655D01*
Y0340415D01*
X0342713D01*
Y0340474D01*
X034283D01*
Y0340532D01*
X0342947D01*
Y0340591D01*
X0343825D01*
Y0340532D01*
D02*
G37*
G36*
X0331069Y033866D02*
X0331127D01*
Y0338367D01*
X0331712D01*
Y0338309D01*
X033218D01*
Y033825D01*
X0332297D01*
Y0338075D01*
X0332122D01*
Y0338133D01*
X0331654D01*
Y0338192D01*
X0331595D01*
Y0338133D01*
X0331069D01*
Y0338075D01*
X0330951D01*
Y0337899D01*
X0330893D01*
Y0337782D01*
X0330835D01*
Y0337724D01*
X0330776D01*
Y0337665D01*
X0330717D01*
Y0337607D01*
X0330659D01*
Y0337665D01*
X0330483D01*
Y0337724D01*
X0330425D01*
Y0337841D01*
X0330483D01*
Y0337958D01*
X0330308D01*
Y0337899D01*
X0330132D01*
Y0337841D01*
X0330074D01*
Y0337782D01*
X0330015D01*
Y0337724D01*
X032984D01*
Y0337782D01*
X0329781D01*
Y0337958D01*
X032984D01*
Y0338016D01*
X0329957D01*
Y0338075D01*
X0330074D01*
Y0338133D01*
X0330308D01*
Y0338192D01*
X0330542D01*
Y033825D01*
X0330659D01*
Y0338426D01*
X0330717D01*
Y0338484D01*
X0330776D01*
Y0338543D01*
X0330835D01*
Y0338601D01*
X0330893D01*
Y033866D01*
X033101D01*
Y0338718D01*
X0331069D01*
Y033866D01*
D02*
G37*
G36*
X0325568Y033825D02*
X0325744D01*
Y0338192D01*
X0325802D01*
Y0338133D01*
X0325861D01*
Y0338075D01*
X0325919D01*
Y0338016D01*
X0325978D01*
Y0337958D01*
X0325919D01*
Y0337899D01*
X0325802D01*
Y0337958D01*
X0325393D01*
Y0337899D01*
X0325334D01*
Y0337782D01*
X0325393D01*
Y0337724D01*
X0325568D01*
Y0337665D01*
X0325685D01*
Y0337548D01*
X0325744D01*
Y0337665D01*
X0325802D01*
Y0337724D01*
X0325861D01*
Y0337782D01*
X0325919D01*
Y0337841D01*
X0326036D01*
Y0337782D01*
X0326095D01*
Y0337724D01*
X0326153D01*
Y0337197D01*
X0326095D01*
Y0336904D01*
X0326036D01*
Y0336846D01*
X0325978D01*
Y0336787D01*
X0325919D01*
Y0336729D01*
X0325861D01*
Y0336612D01*
X0325802D01*
Y0336553D01*
X0325685D01*
Y0336495D01*
X0325627D01*
Y0336436D01*
X0325451D01*
Y0336378D01*
X0325334D01*
Y0336319D01*
X0324983D01*
Y0336378D01*
X0324924D01*
Y0336436D01*
X0324866D01*
Y0336787D01*
X0324456D01*
Y0336846D01*
X0324398D01*
Y0336963D01*
X0324456D01*
Y0337021D01*
X0324515D01*
Y033708D01*
X0324573D01*
Y0336963D01*
X0324866D01*
Y0337021D01*
X0324924D01*
Y0337314D01*
X0324808D01*
Y0337255D01*
X0324749D01*
Y0337197D01*
X032469D01*
Y0337138D01*
X0324632D01*
Y0337255D01*
X032469D01*
Y0337314D01*
X0324749D01*
Y0337372D01*
X0324866D01*
Y0337431D01*
X0324983D01*
Y0337665D01*
X0324808D01*
Y0337607D01*
X032469D01*
Y0337548D01*
X0324632D01*
Y033749D01*
X032469D01*
Y0337431D01*
X0324573D01*
Y033749D01*
X0324515D01*
Y0337607D01*
X0324573D01*
Y0337665D01*
X032469D01*
Y0337724D01*
X0324866D01*
Y0337782D01*
X0325042D01*
Y0337841D01*
X03251D01*
Y0337958D01*
X0325159D01*
Y0338016D01*
X0325042D01*
Y0338192D01*
X0325159D01*
Y033825D01*
X0325217D01*
Y0338309D01*
X0325568D01*
Y033825D01*
D02*
G37*
G36*
X0344293Y0337431D02*
X0344234D01*
Y0337372D01*
X0344176D01*
Y0337314D01*
X0344117D01*
Y0337255D01*
X0344059D01*
Y033749D01*
X0344117D01*
Y0338484D01*
X0344059D01*
Y0338426D01*
X0344D01*
Y0338309D01*
X0343942D01*
Y0338192D01*
X0343883D01*
Y0338075D01*
X0343825D01*
Y0338016D01*
X0343766D01*
Y0337899D01*
X0343708D01*
Y0337841D01*
X0343649D01*
Y0337782D01*
X0343591D01*
Y0337724D01*
X0343532D01*
Y0337607D01*
X0343415D01*
Y0337548D01*
X0343357D01*
Y033749D01*
X0343298D01*
Y0337431D01*
X0343181D01*
Y0337372D01*
X0342713D01*
Y0337431D01*
X0342596D01*
Y033749D01*
X0342537D01*
Y0337548D01*
X0342479D01*
Y0337665D01*
X0342421D01*
Y0337899D01*
X0342362D01*
Y0338192D01*
X0342421D01*
Y0338367D01*
X0342479D01*
Y0338484D01*
X0342537D01*
Y0338601D01*
X0342596D01*
Y0338777D01*
X0342947D01*
Y0338718D01*
X0342889D01*
Y033866D01*
X034283D01*
Y0338601D01*
X0342772D01*
Y0338543D01*
X0342713D01*
Y0338426D01*
X0342655D01*
Y0338367D01*
X0342596D01*
Y0338192D01*
X0342537D01*
Y0337841D01*
X0342596D01*
Y0337724D01*
X0342655D01*
Y0337665D01*
X0342713D01*
Y0337607D01*
X034283D01*
Y0337548D01*
X0343064D01*
Y0337607D01*
X0343181D01*
Y0337665D01*
X0343298D01*
Y0337724D01*
X0343357D01*
Y0337782D01*
X0343415D01*
Y0337841D01*
X0343474D01*
Y0337899D01*
X0343532D01*
Y0337958D01*
X0343591D01*
Y0338016D01*
X0343649D01*
Y0338133D01*
X0343708D01*
Y0338192D01*
X0343766D01*
Y0338309D01*
X0343825D01*
Y0338367D01*
X0343883D01*
Y0338484D01*
X0343942D01*
Y0338601D01*
X0344D01*
Y0338718D01*
X0344059D01*
Y0338777D01*
X0344117D01*
Y0338835D01*
X0344293D01*
Y0337431D01*
D02*
G37*
G36*
X0332414Y0337899D02*
X0332356D01*
Y0337841D01*
X0332297D01*
Y0337782D01*
X0332239D01*
Y0337724D01*
X033218D01*
Y0337607D01*
X0332122D01*
Y0337548D01*
X0332063D01*
Y033749D01*
X0332005D01*
Y0337431D01*
X0331946D01*
Y0337372D01*
X0331888D01*
Y0337314D01*
X0331829D01*
Y0337255D01*
X0331771D01*
Y0337197D01*
X0331712D01*
Y0337138D01*
X0331595D01*
Y033708D01*
X0331537D01*
Y0337021D01*
X033142D01*
Y0336963D01*
X0331303D01*
Y0336904D01*
X0331186D01*
Y0336846D01*
X033101D01*
Y0336787D01*
X0330893D01*
Y0336729D01*
X0330835D01*
Y033667D01*
Y0336612D01*
X0330776D01*
Y0336553D01*
X0330835D01*
Y0336436D01*
X0330951D01*
Y0336378D01*
X0331303D01*
Y0336436D01*
X033142D01*
Y0336495D01*
X0331537D01*
Y0336553D01*
X0331595D01*
Y0336612D01*
X0331654D01*
Y0336846D01*
X0331712D01*
Y0336963D01*
X0331946D01*
Y0337021D01*
X0332063D01*
Y0336904D01*
X0332005D01*
Y0336729D01*
X0331946D01*
Y033667D01*
X0331888D01*
Y0336612D01*
X0331829D01*
Y0336553D01*
X0331771D01*
Y0336495D01*
X0331712D01*
Y0336436D01*
X0331595D01*
Y0336378D01*
X0331537D01*
Y0336319D01*
X033142D01*
Y0336261D01*
X0331361D01*
Y0335968D01*
X0331303D01*
Y033591D01*
X0331127D01*
Y0335968D01*
X0331069D01*
Y0336202D01*
X0330893D01*
Y0336261D01*
X0330659D01*
Y0336319D01*
X0330542D01*
Y0336378D01*
X0330483D01*
Y0336553D01*
X0330308D01*
Y0336495D01*
X0330132D01*
Y0336436D01*
X0329898D01*
Y0336495D01*
X032984D01*
Y0336612D01*
X0329898D01*
Y033667D01*
X0330074D01*
Y0336729D01*
X0330191D01*
Y033667D01*
X0330249D01*
Y0336729D01*
X0330366D01*
Y0336787D01*
X0330483D01*
Y0336846D01*
X0330542D01*
Y0336904D01*
X0330601D01*
Y0337197D01*
X0330659D01*
Y0337314D01*
X0330717D01*
Y0337372D01*
X0330776D01*
Y0337431D01*
X0330893D01*
Y0337197D01*
X0330835D01*
Y0336963D01*
X0330951D01*
Y0337021D01*
X0331069D01*
Y033708D01*
X0331186D01*
Y0337138D01*
X0331303D01*
Y0337197D01*
X0331361D01*
Y0337255D01*
X0331478D01*
Y0337314D01*
X0331595D01*
Y0337372D01*
X0331654D01*
Y0337431D01*
X0331537D01*
Y0337372D01*
X0331478D01*
Y0337607D01*
X0331361D01*
Y0337548D01*
X0331303D01*
Y0337782D01*
X0331361D01*
Y0337841D01*
X033142D01*
Y0337899D01*
X0331654D01*
Y0337841D01*
X0331712D01*
Y0337724D01*
X0331771D01*
Y0337607D01*
X0331712D01*
Y033749D01*
X0331829D01*
Y0337548D01*
X0331888D01*
Y0337607D01*
X0331946D01*
Y0337665D01*
X0332063D01*
Y0337724D01*
X0332122D01*
Y0337782D01*
X033218D01*
Y0337841D01*
X0332239D01*
Y0337899D01*
X0332297D01*
Y0337958D01*
X0332356D01*
Y0338016D01*
X0332414D01*
Y0337899D01*
D02*
G37*
G36*
X0324632Y033708D02*
X0324573D01*
Y0337138D01*
X0324632D01*
Y033708D01*
D02*
G37*
G36*
X033809Y0336495D02*
X0338207D01*
Y0336436D01*
X0338266D01*
Y0336378D01*
X0338324D01*
Y0336319D01*
X033809D01*
Y0336378D01*
X0337856D01*
Y0336436D01*
X0337622D01*
Y0336378D01*
X0337505D01*
Y0336319D01*
X0337271D01*
Y0336261D01*
X0337213D01*
Y0336202D01*
X0337096D01*
Y0336261D01*
X0337154D01*
Y0336319D01*
X0337213D01*
Y0336378D01*
X0337271D01*
Y0336436D01*
X0337388D01*
Y0336495D01*
X0337622D01*
Y0336553D01*
X033809D01*
Y0336495D01*
D02*
G37*
G36*
X0324398Y0338543D02*
X0324456D01*
Y0338309D01*
X0324398D01*
Y0338192D01*
X0324339D01*
Y0337958D01*
X0324281D01*
Y0337724D01*
X0324222D01*
Y0337372D01*
X0324164D01*
Y0336904D01*
X0324222D01*
Y0336963D01*
X0324281D01*
Y0337021D01*
X0324339D01*
Y0336846D01*
X0324281D01*
Y0336729D01*
X0324222D01*
Y0336612D01*
X0324164D01*
Y0336261D01*
X0324105D01*
Y0336202D01*
X0323988D01*
Y0336495D01*
X032393D01*
Y0336846D01*
X0323988D01*
Y0337431D01*
X0324047D01*
Y0337841D01*
X0324105D01*
Y0338133D01*
X0324164D01*
Y0338367D01*
X0324222D01*
Y0338484D01*
X0324281D01*
Y0338543D01*
X0324339D01*
Y0338601D01*
X0324398D01*
Y0338543D01*
D02*
G37*
G36*
X0337096Y0336144D02*
X0337037D01*
Y0336202D01*
X0337096D01*
Y0336144D01*
D02*
G37*
G36*
X0337037Y0336085D02*
X0336979D01*
Y0336144D01*
X0337037D01*
Y0336085D01*
D02*
G37*
G36*
X0337856Y0336319D02*
X0337798D01*
Y0336261D01*
X0338032D01*
Y0336085D01*
X0337973D01*
Y0336027D01*
X0337798D01*
Y0336085D01*
X0337564D01*
Y0336144D01*
X0337447D01*
Y0336085D01*
X0337388D01*
Y033591D01*
X0337505D01*
Y0335851D01*
X0337681D01*
Y0335793D01*
X0338032D01*
Y0335851D01*
X0338149D01*
Y033591D01*
X0338207D01*
Y0336027D01*
X0338383D01*
Y0335968D01*
X0338441D01*
Y033591D01*
X0338383D01*
Y0335851D01*
X0338266D01*
Y0335793D01*
X0338207D01*
Y0335734D01*
X0337447D01*
Y0335793D01*
X0337271D01*
Y0335851D01*
X0337213D01*
Y033591D01*
X0337154D01*
Y0336085D01*
X0337213D01*
Y0336144D01*
X033733D01*
Y0336202D01*
X0337505D01*
Y0336261D01*
X0337622D01*
Y0336319D01*
X0337739D01*
Y0336378D01*
X0337856D01*
Y0336319D01*
D02*
G37*
G36*
X0336979Y0336027D02*
X033692D01*
Y0336085D01*
X0336979D01*
Y0336027D01*
D02*
G37*
G36*
X033692Y033591D02*
X0336862D01*
Y0335968D01*
X033692D01*
Y033591D01*
D02*
G37*
G36*
X0343942Y0336904D02*
X0344059D01*
Y0336846D01*
X0344117D01*
Y0336787D01*
X0344176D01*
Y033667D01*
X0344234D01*
Y0336495D01*
X0344293D01*
Y0335968D01*
X0344234D01*
Y0335734D01*
X0344176D01*
Y0335676D01*
X0344117D01*
Y0335617D01*
X0344059D01*
Y0335559D01*
X0344D01*
Y03355D01*
X0343883D01*
Y0335441D01*
X0343649D01*
Y03355D01*
X0343474D01*
Y0335559D01*
X0343415D01*
Y0335617D01*
X0343357D01*
Y0335676D01*
X0343298D01*
Y0335793D01*
X034324D01*
Y0335734D01*
X0343181D01*
Y0335617D01*
X0343064D01*
Y0335559D01*
X0342889D01*
Y03355D01*
X0342772D01*
Y0335559D01*
X0342655D01*
Y0335617D01*
X0342537D01*
Y0335734D01*
X0342479D01*
Y0335851D01*
X0342421D01*
Y0336495D01*
X0342479D01*
Y0336612D01*
X0342537D01*
Y0336846D01*
X034283D01*
Y0336729D01*
X0342772D01*
Y033667D01*
X0342713D01*
Y0336553D01*
X0342655D01*
Y0336436D01*
X0342596D01*
Y0336319D01*
X0342537D01*
Y0335968D01*
X0342596D01*
Y0335851D01*
X0342655D01*
Y0335793D01*
X0342713D01*
Y0335734D01*
X0342772D01*
Y0335676D01*
X0342889D01*
Y0335734D01*
X0343006D01*
Y0335793D01*
X0343064D01*
Y0335851D01*
X0343123D01*
Y0335968D01*
X0343181D01*
Y0336027D01*
Y0336085D01*
Y0336378D01*
X034324D01*
Y0336436D01*
X0343298D01*
Y0336495D01*
X0343357D01*
Y033591D01*
X0343415D01*
Y0335851D01*
X0343474D01*
Y0335734D01*
X0343591D01*
Y0335676D01*
X0343766D01*
Y0335617D01*
X0343825D01*
Y0335676D01*
X0343942D01*
Y0335734D01*
X0344D01*
Y0335793D01*
X0344059D01*
Y033591D01*
X0344117D01*
Y0336144D01*
X0344176D01*
Y0336202D01*
X0344117D01*
Y0336495D01*
X0344059D01*
Y0336612D01*
X0344D01*
Y033667D01*
X0343942D01*
Y0336729D01*
X0343883D01*
Y0336787D01*
X0343766D01*
Y0336904D01*
X0343883D01*
Y0336963D01*
X0343942D01*
Y0336904D01*
D02*
G37*
G36*
X0337271Y0336846D02*
X0337213D01*
Y0336787D01*
X0337154D01*
Y0336729D01*
X0337096D01*
Y033667D01*
X0337037D01*
Y0336612D01*
X033692D01*
Y0336553D01*
X0336862D01*
Y0336495D01*
X0336803D01*
Y0336436D01*
X0336744D01*
Y0336378D01*
X0336628D01*
Y0336319D01*
X0336569D01*
Y0336261D01*
X033651D01*
Y0336202D01*
X0336452D01*
Y0336144D01*
X0336335D01*
Y0336085D01*
X0336276D01*
Y0336027D01*
X0336218D01*
Y0335968D01*
X0336159D01*
Y033591D01*
X0336101D01*
Y0335851D01*
X0336042D01*
Y0335793D01*
X0335984D01*
Y0335734D01*
X0335925D01*
Y0335617D01*
X0335867D01*
Y0335559D01*
X0335925D01*
Y0335441D01*
X033575D01*
Y03355D01*
X0335691D01*
Y0335734D01*
X033575D01*
Y0335793D01*
X0335808D01*
Y0335851D01*
X0335867D01*
Y033591D01*
X0335925D01*
Y0335968D01*
X0336042D01*
Y0336027D01*
X0336101D01*
Y0336085D01*
X0336159D01*
Y0336144D01*
X0336218D01*
Y0336202D01*
X0336335D01*
Y0336261D01*
X0336393D01*
Y0336319D01*
X0336452D01*
Y0336378D01*
X0336569D01*
Y0336436D01*
X0336628D01*
Y0336495D01*
X0336686D01*
Y0336553D01*
X0336744D01*
Y0336612D01*
X0336803D01*
Y033667D01*
X0336862D01*
Y0336729D01*
X033692D01*
Y0336787D01*
X0336979D01*
Y0336846D01*
X0337037D01*
Y0336904D01*
X0337096D01*
Y0336963D01*
X0337271D01*
Y0336846D01*
D02*
G37*
G36*
X0337798Y0335441D02*
X0337856D01*
Y0335324D01*
X0337681D01*
Y0335266D01*
X0337564D01*
Y0335383D01*
X0337271D01*
Y0335441D01*
X033733D01*
Y03355D01*
X0337798D01*
Y0335441D01*
D02*
G37*
G36*
X0336744Y0336202D02*
X0336803D01*
Y0336027D01*
Y0335968D01*
Y033591D01*
X0336862D01*
Y0335793D01*
X0336803D01*
Y0335676D01*
X0336744D01*
Y0335441D01*
X0336686D01*
Y033509D01*
X0336569D01*
Y0335032D01*
X0336628D01*
Y0334856D01*
X0336686D01*
Y0334739D01*
X0336744D01*
Y0334564D01*
X0336803D01*
Y0334447D01*
X0336862D01*
Y033433D01*
X0336803D01*
Y0334154D01*
X0336686D01*
Y0334271D01*
X0336628D01*
Y033433D01*
X0336569D01*
Y0334447D01*
X033651D01*
Y0334681D01*
X0336452D01*
Y0334856D01*
X0336393D01*
Y0334973D01*
X0336335D01*
Y033509D01*
X0336276D01*
Y0335149D01*
X0336218D01*
Y0335266D01*
X0336159D01*
Y0335324D01*
X0336101D01*
Y0335441D01*
X0336042D01*
Y0335559D01*
X0336101D01*
Y0335676D01*
X0336276D01*
Y0335441D01*
X0336335D01*
Y0335324D01*
X0336393D01*
Y0335266D01*
X0336452D01*
Y03355D01*
X033651D01*
Y0335851D01*
X0336569D01*
Y0336085D01*
X0336628D01*
Y0336202D01*
X0336686D01*
Y0336261D01*
X0336744D01*
Y0336202D01*
D02*
G37*
G36*
X0337564Y0335207D02*
X0337505D01*
Y0335266D01*
X0337564D01*
Y0335207D01*
D02*
G37*
G36*
X03385Y033509D02*
X0338441D01*
Y0335032D01*
X0338383D01*
Y0334973D01*
X0338266D01*
Y0334915D01*
X0338207D01*
Y0334856D01*
X033809D01*
Y0334798D01*
X0337154D01*
Y0334856D01*
X0336862D01*
Y0334973D01*
X033692D01*
Y0335032D01*
X0337096D01*
Y0334973D01*
X0337154D01*
Y0334915D01*
X0337564D01*
Y0334856D01*
X0337856D01*
Y0334915D01*
X033809D01*
Y0334973D01*
X0338207D01*
Y0335032D01*
X0338266D01*
Y0335207D01*
X03385D01*
Y033509D01*
D02*
G37*
G36*
X0344234Y0334856D02*
X0344293D01*
Y0334739D01*
X0344234D01*
Y0334622D01*
X0344176D01*
Y0334564D01*
X0344D01*
Y0334622D01*
X0343883D01*
Y0334915D01*
X0343942D01*
Y0334973D01*
X0344234D01*
Y0334856D01*
D02*
G37*
G36*
X0324047Y033433D02*
X0323988D01*
Y0334213D01*
X0323871D01*
Y0334037D01*
X032393D01*
Y0333745D01*
X0323871D01*
Y0333686D01*
X0323754D01*
Y0333803D01*
X0323696D01*
Y0334037D01*
X0323579D01*
Y0334213D01*
X0323637D01*
Y0334271D01*
X0323696D01*
Y033433D01*
X0323813D01*
Y0334388D01*
X0323988D01*
Y0334447D01*
X0324047D01*
Y033433D01*
D02*
G37*
G36*
Y033351D02*
X0323988D01*
Y0333569D01*
X0324047D01*
Y033351D01*
D02*
G37*
G36*
X0325744Y0334213D02*
X0325802D01*
Y0333569D01*
X0325744D01*
Y0333452D01*
X0325919D01*
Y033351D01*
X0325978D01*
Y0333569D01*
X0326036D01*
Y0333628D01*
X0326095D01*
Y0333686D01*
X0326153D01*
Y0334096D01*
X0326212D01*
Y0334037D01*
X0326446D01*
Y033392D01*
X0326387D01*
Y0333803D01*
X0326329D01*
Y0333686D01*
X032627D01*
Y0333628D01*
X0326212D01*
Y0333569D01*
X0326153D01*
Y033351D01*
X0326095D01*
Y0333452D01*
X0326036D01*
Y0333393D01*
X0325978D01*
Y0333335D01*
X0325861D01*
Y0333276D01*
X0325744D01*
Y0333218D01*
X0325685D01*
Y0333101D01*
X0325627D01*
Y0332984D01*
X0325451D01*
Y0332925D01*
X0325393D01*
Y0332984D01*
X0325334D01*
Y0333335D01*
X0325276D01*
Y0333393D01*
X0325217D01*
Y0333335D01*
X0325159D01*
Y0333276D01*
X0325042D01*
Y0333218D01*
X0324983D01*
Y0333159D01*
X0324866D01*
Y0333101D01*
X0324808D01*
Y0333159D01*
X0324749D01*
Y0333218D01*
X032469D01*
Y0333335D01*
X0324632D01*
Y0333393D01*
Y0333452D01*
X032469D01*
Y0333803D01*
X0324749D01*
Y0333979D01*
X0324808D01*
Y0334096D01*
X0324866D01*
Y0334154D01*
X0324924D01*
Y0334271D01*
X0325217D01*
Y0334154D01*
X0325276D01*
Y0334096D01*
X03251D01*
Y0334037D01*
X0325042D01*
Y0333979D01*
X0324983D01*
Y0333686D01*
X0324924D01*
Y033351D01*
X0324866D01*
Y0333393D01*
X0324983D01*
Y0333452D01*
X0325042D01*
Y033351D01*
X03251D01*
Y0333628D01*
X0325159D01*
Y0333686D01*
X0325393D01*
Y0333862D01*
X0325451D01*
Y0334037D01*
X032551D01*
Y0334154D01*
X0325568D01*
Y0334271D01*
X0325627D01*
Y033433D01*
X0325744D01*
Y0334213D01*
D02*
G37*
G36*
X0323988Y0333393D02*
X032393D01*
Y0333335D01*
X0323871D01*
Y0333218D01*
X0323813D01*
Y0333042D01*
X0323754D01*
Y0332984D01*
X0323696D01*
Y0332925D01*
X032352D01*
Y0333218D01*
X0323579D01*
Y0333276D01*
X0323696D01*
Y0333335D01*
X0323813D01*
Y0333393D01*
X0323871D01*
Y0333452D01*
X032393D01*
Y033351D01*
X0323988D01*
Y0333393D01*
D02*
G37*
G36*
X0337564Y033275D02*
X0337505D01*
Y0332516D01*
X0337447D01*
Y0332165D01*
X0337388D01*
Y0331872D01*
X033733D01*
Y0331814D01*
X0337447D01*
Y0331755D01*
X0337681D01*
Y0331814D01*
X0337915D01*
Y0331872D01*
X0338032D01*
Y0331931D01*
X033809D01*
Y0331989D01*
X0338149D01*
Y0332223D01*
X033809D01*
Y0332282D01*
X0338032D01*
Y033234D01*
X033809D01*
Y0332282D01*
X0338207D01*
Y033234D01*
X0338149D01*
Y0332399D01*
X0338207D01*
Y0332457D01*
X0338266D01*
Y0332399D01*
X0338383D01*
Y0332106D01*
X0338324D01*
Y0331989D01*
X0338266D01*
Y0331872D01*
X0338207D01*
Y0331814D01*
X033809D01*
Y0331755D01*
X0338032D01*
Y0331697D01*
X0337915D01*
Y0331638D01*
X0337622D01*
Y0331579D01*
X0337271D01*
Y0331345D01*
X0337213D01*
Y0330994D01*
X0337154D01*
Y0330936D01*
X0337037D01*
Y0330877D01*
X033692D01*
Y0331053D01*
X0336862D01*
Y0331287D01*
X033692D01*
Y0331579D01*
X0336979D01*
Y0331638D01*
X033692D01*
Y0331697D01*
X0336452D01*
Y0331931D01*
X0336569D01*
Y0331989D01*
X033692D01*
Y0331931D01*
X0337037D01*
Y0332282D01*
X0337096D01*
Y0332574D01*
X0336569D01*
Y0332633D01*
X033651D01*
Y0332574D01*
X0336452D01*
Y0332516D01*
X0336393D01*
Y0332457D01*
X0336335D01*
Y0332399D01*
X0336276D01*
Y0332282D01*
X0336218D01*
Y0332165D01*
X0336159D01*
Y0331931D01*
X0336101D01*
Y0331638D01*
X0336159D01*
Y0331404D01*
X0336101D01*
Y0331345D01*
X0335808D01*
Y0331697D01*
X0335867D01*
Y0331814D01*
X0335984D01*
Y0331931D01*
X0336042D01*
Y0332048D01*
X0336101D01*
Y0332223D01*
X0336159D01*
Y033234D01*
X0336218D01*
Y0332457D01*
X0336276D01*
Y0332574D01*
X0336335D01*
Y033275D01*
X0336393D01*
Y0332808D01*
X0336452D01*
Y0332867D01*
X0336569D01*
Y0332925D01*
X0336744D01*
Y0332867D01*
X0336862D01*
Y0332808D01*
X0337096D01*
Y0332867D01*
X0337213D01*
Y0332925D01*
X033733D01*
Y0332984D01*
X0337564D01*
Y033275D01*
D02*
G37*
G36*
X0331186Y0334973D02*
X0331244D01*
Y0334798D01*
X0331186D01*
Y0334622D01*
Y0334564D01*
Y033433D01*
X0331127D01*
Y0333452D01*
X0331069D01*
Y033275D01*
X0330835D01*
Y0332808D01*
X0330776D01*
Y0332867D01*
X0330717D01*
Y0333979D01*
X0330776D01*
Y0334681D01*
X0330835D01*
Y0334856D01*
X0330893D01*
Y0334973D01*
X0330951D01*
Y0335032D01*
X0331186D01*
Y0334973D01*
D02*
G37*
G36*
X0343649Y0334154D02*
X0343883D01*
Y0334096D01*
X0344D01*
Y0334037D01*
X0344059D01*
Y0333979D01*
X0344117D01*
Y033392D01*
X0344176D01*
Y0333862D01*
X0344234D01*
Y0333686D01*
X0344293D01*
Y0333218D01*
X0344234D01*
Y0333101D01*
X0344176D01*
Y0332984D01*
X0344117D01*
Y0332925D01*
X0344059D01*
Y0332867D01*
X0343942D01*
Y0332808D01*
X0343825D01*
Y033275D01*
X0343532D01*
Y0332691D01*
X0343357D01*
Y033275D01*
X0342947D01*
Y0332808D01*
X034283D01*
Y0332867D01*
X0342713D01*
Y0332925D01*
X0342655D01*
Y0332984D01*
X0342596D01*
Y0333042D01*
X0342537D01*
Y0333101D01*
X0342479D01*
Y0333218D01*
X0342421D01*
Y0333393D01*
X0342362D01*
Y033351D01*
X0342421D01*
Y0333628D01*
X0342479D01*
Y0333745D01*
X0342537D01*
Y0333862D01*
X0342596D01*
Y033392D01*
X0342655D01*
Y0333979D01*
X0342713D01*
Y0334037D01*
X0342772D01*
Y0334096D01*
X0342889D01*
Y0334154D01*
X0343123D01*
Y0334213D01*
X0343649D01*
Y0334154D01*
D02*
G37*
G36*
X0338266Y0333159D02*
X0338324D01*
Y0333042D01*
X0338266D01*
Y0332925D01*
X0338207D01*
Y0332867D01*
X0338149D01*
Y0332808D01*
X033809D01*
Y033275D01*
X0338032D01*
Y0332691D01*
X0337973D01*
Y0333101D01*
X0338032D01*
Y0333159D01*
X033809D01*
Y0333218D01*
X0338266D01*
Y0333159D01*
D02*
G37*
G36*
X0324983Y0334798D02*
X0325042D01*
Y0334622D01*
X0324924D01*
Y0334564D01*
X0324749D01*
Y0334505D01*
X032469D01*
Y0334447D01*
X0324632D01*
Y0334213D01*
X0324573D01*
Y0333803D01*
X0324515D01*
Y0333452D01*
X0324456D01*
Y0333218D01*
X0324398D01*
Y0333159D01*
Y0333101D01*
Y0332984D01*
X0324456D01*
Y0333042D01*
X0324573D01*
Y0333101D01*
X0324632D01*
Y0332867D01*
X0324573D01*
Y0332808D01*
X0324515D01*
Y033275D01*
X0324398D01*
Y0332691D01*
X0324281D01*
Y033275D01*
X0324164D01*
Y0333218D01*
X0324222D01*
Y0333686D01*
X0324281D01*
Y0333979D01*
X0324339D01*
Y0334213D01*
X0324398D01*
Y0334388D01*
X0324339D01*
Y0334447D01*
X0324281D01*
Y0334505D01*
X0324339D01*
Y0334622D01*
X0324456D01*
Y0334681D01*
X0324515D01*
Y0334739D01*
X0324632D01*
Y0334798D01*
X0324749D01*
Y0334856D01*
X0324983D01*
Y0334798D01*
D02*
G37*
G36*
X0331771Y0331462D02*
X0332063D01*
Y0331404D01*
X033218D01*
Y0331345D01*
X0332239D01*
Y0331228D01*
X0332005D01*
Y0331287D01*
X0331946D01*
Y0331345D01*
X0331712D01*
Y0331404D01*
X0331361D01*
Y0331345D01*
X0330835D01*
Y0331287D01*
X0330717D01*
Y0331228D01*
X0330659D01*
Y0331111D01*
X0330483D01*
Y0331345D01*
X0330601D01*
Y0331404D01*
X0330776D01*
Y0331462D01*
X0330951D01*
Y0331521D01*
X0331771D01*
Y0331462D01*
D02*
G37*
G36*
X0343883Y0331989D02*
X0343825D01*
Y0331462D01*
X0344293D01*
Y0331345D01*
X0343883D01*
Y0331111D01*
X0343825D01*
Y0331053D01*
X0343766D01*
Y0330994D01*
X0343649D01*
Y033117D01*
X0343708D01*
Y0331287D01*
X0343649D01*
Y0331345D01*
X0343415D01*
Y0331287D01*
X0343064D01*
Y0331228D01*
X0343006D01*
Y0331287D01*
X0342889D01*
Y0331462D01*
X0343708D01*
Y0332282D01*
X0343591D01*
Y0332223D01*
X0343532D01*
Y0332165D01*
X0343474D01*
Y0332106D01*
X0343357D01*
Y0332048D01*
X0343298D01*
Y0331989D01*
X0343181D01*
Y0331931D01*
X0343123D01*
Y0331872D01*
X0343006D01*
Y0331814D01*
X0342947D01*
Y0331755D01*
X034283D01*
Y0331697D01*
X0342772D01*
Y0331638D01*
X0342713D01*
Y0331579D01*
X0342479D01*
Y0331638D01*
X0342421D01*
Y0331755D01*
X0342362D01*
Y0331814D01*
X0342655D01*
Y0331872D01*
X0342772D01*
Y0331931D01*
X0342889D01*
Y0331989D01*
X0343006D01*
Y0332048D01*
X0343123D01*
Y0332106D01*
X0343181D01*
Y0332165D01*
X0343298D01*
Y0332223D01*
X0343357D01*
Y0332282D01*
X0343474D01*
Y033234D01*
X0343532D01*
Y0332399D01*
X0343591D01*
Y0332457D01*
X0343708D01*
Y0332516D01*
X0343766D01*
Y0332574D01*
X0343883D01*
Y0331989D01*
D02*
G37*
G36*
X0337798Y0331228D02*
X0337915D01*
Y033117D01*
X0337973D01*
Y0331111D01*
Y0330936D01*
X0337856D01*
Y0330877D01*
X0337739D01*
Y0330936D01*
X0337622D01*
Y0330994D01*
X0337681D01*
Y033117D01*
X0337739D01*
Y0331287D01*
X0337798D01*
Y0331228D01*
D02*
G37*
G36*
X0325451Y0331521D02*
X0325744D01*
Y0331462D01*
X0325978D01*
Y0331404D01*
X0326095D01*
Y0331345D01*
X0326153D01*
Y0331287D01*
X0326212D01*
Y0331228D01*
X0326036D01*
Y0331287D01*
X0325919D01*
Y0331345D01*
X0325744D01*
Y0331404D01*
X0325042D01*
Y0331345D01*
X0324808D01*
Y0331287D01*
X032469D01*
Y0331228D01*
X0324573D01*
Y033117D01*
X0324515D01*
Y0331111D01*
X0324573D01*
Y0331053D01*
X032469D01*
Y0330936D01*
X0324749D01*
Y0330877D01*
X0324866D01*
Y0330819D01*
X0324924D01*
Y0330877D01*
X0325042D01*
Y0330994D01*
X03251D01*
Y0331053D01*
X0325159D01*
Y033117D01*
X0325393D01*
Y0331053D01*
X0325334D01*
Y0330994D01*
X0325276D01*
Y0330936D01*
X0325217D01*
Y0330877D01*
X0325159D01*
Y0330819D01*
X03251D01*
Y033076D01*
X0324983D01*
Y0330702D01*
X0324573D01*
Y033076D01*
X0324456D01*
Y0330819D01*
X0324339D01*
Y033076D01*
X0324281D01*
Y0330702D01*
X0324222D01*
Y0330643D01*
X0324164D01*
Y0330585D01*
X0324047D01*
Y0330526D01*
X032393D01*
Y0330585D01*
X0323871D01*
Y0330643D01*
X0323813D01*
Y0330702D01*
X0323754D01*
Y0331053D01*
X0323813D01*
Y0331228D01*
X0323871D01*
Y0331345D01*
X032393D01*
Y0331404D01*
X0324047D01*
Y0331462D01*
X0324164D01*
Y0331111D01*
X0324105D01*
Y0330819D01*
X0324222D01*
Y0330877D01*
X0324281D01*
Y0330936D01*
X0324339D01*
Y0331228D01*
X0324398D01*
Y0331287D01*
X0324456D01*
Y0331345D01*
X0324515D01*
Y0331404D01*
X0324632D01*
Y0331462D01*
X0324808D01*
Y0331521D01*
X0325276D01*
Y0331579D01*
X0325451D01*
Y0331521D01*
D02*
G37*
G36*
X0330191Y0331053D02*
X0330132D01*
Y0330702D01*
X0330249D01*
Y033076D01*
X0330366D01*
Y0330819D01*
X0330425D01*
Y0330877D01*
X0330483D01*
Y0330936D01*
X0330601D01*
Y0330994D01*
X0330835D01*
Y0330877D01*
X0330893D01*
Y0330819D01*
X0331186D01*
Y0330877D01*
X0331244D01*
Y0330936D01*
X0331303D01*
Y0331111D01*
X0331537D01*
Y0331053D01*
X0331478D01*
Y0330936D01*
X033142D01*
Y0330877D01*
X0331361D01*
Y033076D01*
X0331303D01*
Y0330702D01*
X0331186D01*
Y0330643D01*
X0330659D01*
Y0330702D01*
X0330425D01*
Y0330643D01*
X0330366D01*
Y0330585D01*
X0330249D01*
Y0330526D01*
X0330074D01*
Y0330468D01*
X0329957D01*
Y0330526D01*
X032984D01*
Y0330819D01*
X0329898D01*
Y0331228D01*
X0329957D01*
Y0331345D01*
X0330015D01*
Y0331404D01*
X0330191D01*
Y0331053D01*
D02*
G37*
G36*
X0344176Y0330585D02*
X0344234D01*
Y0330526D01*
Y0330468D01*
X0344293D01*
Y0330351D01*
X0344234D01*
Y0330234D01*
X0344117D01*
Y0330175D01*
X0344D01*
Y0330234D01*
X0343942D01*
Y0330292D01*
X0343883D01*
Y0330585D01*
X0344D01*
Y0330643D01*
X0344176D01*
Y0330585D01*
D02*
G37*
G36*
X0325568Y0330468D02*
X032551D01*
Y0330409D01*
X0325451D01*
Y0330292D01*
X0325393D01*
Y0330175D01*
X0325334D01*
Y033D01*
X0325276D01*
Y0329883D01*
X0325334D01*
Y0329941D01*
X0325393D01*
Y033D01*
X0325451D01*
Y0330058D01*
X032551D01*
Y0330117D01*
X0325568D01*
Y0330175D01*
X0325685D01*
Y0330234D01*
X0325744D01*
Y0330351D01*
X0325802D01*
Y0330409D01*
X0325919D01*
Y0330468D01*
X0325978D01*
Y0330526D01*
X0326036D01*
Y0330292D01*
X0325978D01*
Y0330234D01*
X0325919D01*
Y0330117D01*
X0325861D01*
Y0329941D01*
X0325978D01*
Y0329883D01*
X0326036D01*
Y0329766D01*
X0326095D01*
Y0329414D01*
X0326036D01*
Y0329239D01*
X0325978D01*
Y0329122D01*
X0325919D01*
Y0329063D01*
X0325861D01*
Y0329005D01*
X0325802D01*
Y0328946D01*
X0325744D01*
Y0328888D01*
X0325568D01*
Y0329063D01*
X032551D01*
Y0329122D01*
X0325451D01*
Y032918D01*
X0325685D01*
Y0329122D01*
X0325744D01*
Y032918D01*
X0325802D01*
Y0329239D01*
X0325861D01*
Y0329356D01*
X0325919D01*
Y032959D01*
X0325861D01*
Y0329648D01*
X0325802D01*
Y0329707D01*
X0325744D01*
Y0329766D01*
X0325685D01*
Y0329824D01*
X0325627D01*
Y0329883D01*
X0325451D01*
Y0329824D01*
X0325393D01*
Y0329766D01*
X0325334D01*
Y0329707D01*
X0325276D01*
Y0329648D01*
X0325217D01*
Y032959D01*
X0325159D01*
Y0329531D01*
X03251D01*
Y0329473D01*
X0324983D01*
Y0329766D01*
X0325042D01*
Y0329941D01*
X03251D01*
Y0330117D01*
X0325042D01*
Y0330175D01*
X03251D01*
Y0330117D01*
X0325159D01*
Y0330175D01*
X03251D01*
Y0330234D01*
X0325159D01*
Y0330292D01*
X0325217D01*
Y0330351D01*
X0325276D01*
Y0330409D01*
X0325334D01*
Y0330526D01*
X0325451D01*
Y0330585D01*
X0325568D01*
Y0330468D01*
D02*
G37*
G36*
X0325042Y0330058D02*
X0324983D01*
Y033D01*
X0324924D01*
Y0329941D01*
X0324866D01*
Y0329707D01*
X0324808D01*
Y0329648D01*
X0324632D01*
Y0329707D01*
X0324573D01*
Y0329824D01*
Y0329883D01*
Y0329941D01*
X0324632D01*
Y033D01*
X0324866D01*
Y0330058D01*
X0324924D01*
Y0330117D01*
X0325042D01*
Y0330058D01*
D02*
G37*
G36*
X0323871Y0329824D02*
X0323813D01*
Y032959D01*
X0323754D01*
Y0329531D01*
X032352D01*
Y032959D01*
X0323462D01*
Y0329707D01*
X032352D01*
Y0329824D01*
X0323579D01*
Y0329883D01*
X0323871D01*
Y0329824D01*
D02*
G37*
G36*
X032469Y0330351D02*
X0324573D01*
Y0330292D01*
X0324515D01*
Y0330234D01*
X0324456D01*
Y0330117D01*
X0324398D01*
Y0329941D01*
X0324339D01*
Y0329707D01*
X0324281D01*
Y0329356D01*
X0324339D01*
Y0329414D01*
X0324515D01*
Y0329297D01*
X0324456D01*
Y032918D01*
X0324105D01*
Y0329239D01*
X0324047D01*
Y0329707D01*
X0324105D01*
Y0329883D01*
X0324164D01*
Y0330117D01*
X0324105D01*
Y0330175D01*
Y0330234D01*
X0324164D01*
Y0330292D01*
X0324222D01*
Y0330351D01*
X0324281D01*
Y0330409D01*
X0324339D01*
Y0330468D01*
X0324456D01*
Y0330526D01*
X032469D01*
Y0330351D01*
D02*
G37*
G36*
X0331771Y0330702D02*
X0331712D01*
Y0330643D01*
X0331654D01*
Y0330585D01*
X0331595D01*
Y0330526D01*
X0331537D01*
Y0330468D01*
X0331478D01*
Y0330409D01*
X033142D01*
Y0330351D01*
X0331361D01*
Y0330175D01*
X033142D01*
Y0330117D01*
X0331478D01*
Y033D01*
X0331537D01*
Y0329941D01*
X0331595D01*
Y0329766D01*
X0331654D01*
Y032959D01*
X0331712D01*
Y0329414D01*
X0331771D01*
Y032918D01*
X0331829D01*
Y0328946D01*
X0331771D01*
Y0328829D01*
X0331712D01*
Y0328712D01*
X0331595D01*
Y0328771D01*
X0331537D01*
Y0328888D01*
X0331478D01*
Y0329122D01*
X033142D01*
Y0329356D01*
X0331361D01*
Y0329531D01*
X0331303D01*
Y0329707D01*
X0331244D01*
Y0329824D01*
X0331186D01*
Y0329941D01*
X0331127D01*
Y033D01*
X0331069D01*
Y0330058D01*
X033101D01*
Y033D01*
X0330893D01*
Y0329941D01*
X0330717D01*
Y0329883D01*
X0330601D01*
Y0329824D01*
X0330542D01*
Y0329766D01*
X0330483D01*
Y0329707D01*
X0330366D01*
Y0329648D01*
X0330191D01*
Y032959D01*
X0330132D01*
Y0329648D01*
X0330074D01*
Y0329824D01*
X0330132D01*
Y0329883D01*
X0330191D01*
Y0329941D01*
X0330308D01*
Y033D01*
X0330366D01*
Y0330058D01*
X0330542D01*
Y0330117D01*
X0330717D01*
Y0330175D01*
X0330835D01*
Y0330234D01*
X0330893D01*
Y0330292D01*
X033101D01*
Y0330351D01*
X0331069D01*
Y0330409D01*
X0331127D01*
Y0330468D01*
X0331186D01*
Y0330526D01*
X0331303D01*
Y0330585D01*
X0331361D01*
Y0330643D01*
X033142D01*
Y0330819D01*
X0331478D01*
Y0330877D01*
X0331771D01*
Y0330702D01*
D02*
G37*
G36*
X0344293Y0328361D02*
X0344234D01*
Y0328303D01*
X0344176D01*
Y0328244D01*
X0344117D01*
Y0328186D01*
X0344059D01*
Y032842D01*
X0344117D01*
Y0329414D01*
X0344059D01*
Y0329356D01*
X0344D01*
Y0329239D01*
X0343942D01*
Y0329122D01*
X0343883D01*
Y0329005D01*
X0343825D01*
Y0328946D01*
X0343766D01*
Y0328829D01*
X0343708D01*
Y0328771D01*
X0343649D01*
Y0328712D01*
X0343591D01*
Y0328654D01*
X0343532D01*
Y0328537D01*
X0343415D01*
Y0328478D01*
X0343357D01*
Y032842D01*
X0343298D01*
Y0328361D01*
X0343181D01*
Y0328303D01*
X0342713D01*
Y0328361D01*
X0342596D01*
Y032842D01*
X0342537D01*
Y0328478D01*
X0342479D01*
Y0328595D01*
X0342421D01*
Y0328829D01*
X0342362D01*
Y0329005D01*
Y0329063D01*
Y0329122D01*
X0342421D01*
Y0329297D01*
X0342479D01*
Y0329414D01*
X0342537D01*
Y0329531D01*
X0342596D01*
Y0329707D01*
X0342947D01*
Y0329648D01*
X0342889D01*
Y032959D01*
X034283D01*
Y0329531D01*
X0342772D01*
Y0329473D01*
X0342713D01*
Y0329356D01*
X0342655D01*
Y0329297D01*
X0342596D01*
Y0329122D01*
X0342537D01*
Y0328771D01*
X0342596D01*
Y0328654D01*
X0342655D01*
Y0328595D01*
X0342713D01*
Y0328537D01*
X034283D01*
Y0328478D01*
X0343064D01*
Y0328537D01*
X0343181D01*
Y0328595D01*
X0343298D01*
Y0328654D01*
X0343357D01*
Y0328712D01*
X0343415D01*
Y0328771D01*
X0343474D01*
Y0328829D01*
X0343532D01*
Y0328888D01*
X0343591D01*
Y0328946D01*
X0343649D01*
Y0329063D01*
X0343708D01*
Y0329122D01*
X0343766D01*
Y0329239D01*
X0343825D01*
Y0329297D01*
X0343883D01*
Y0329414D01*
X0343942D01*
Y0329531D01*
X0344D01*
Y0329648D01*
X0344059D01*
Y0329707D01*
X0344117D01*
Y0329766D01*
X0344293D01*
Y0328361D01*
D02*
G37*
G36*
X0337856Y032801D02*
X0337798D01*
Y0327776D01*
X0337739D01*
Y0327542D01*
X0338149D01*
Y0327483D01*
X0338207D01*
Y0327425D01*
X0338149D01*
Y0327366D01*
X0337622D01*
Y0327074D01*
X0337564D01*
Y0327015D01*
X0337505D01*
Y0326957D01*
X0337388D01*
Y0327191D01*
X0337447D01*
Y0327308D01*
X033733D01*
Y0327249D01*
X0337213D01*
Y0327191D01*
X0337154D01*
Y0327132D01*
X0337096D01*
Y0327074D01*
X0337037D01*
Y0327015D01*
X0336979D01*
Y0326957D01*
X0336744D01*
Y0326898D01*
X0336628D01*
Y0326957D01*
X033651D01*
Y0327015D01*
X0336452D01*
Y0327132D01*
X033651D01*
Y0327308D01*
X0336335D01*
Y0327249D01*
X0336276D01*
Y0327015D01*
X0336218D01*
Y0326957D01*
X0336159D01*
Y0326898D01*
X0336101D01*
Y0327249D01*
X0335984D01*
Y0327191D01*
X0335691D01*
Y0327308D01*
X0335925D01*
Y0327366D01*
X0336101D01*
Y0327425D01*
X0336159D01*
Y0327601D01*
X0336218D01*
Y0327717D01*
X0336276D01*
Y0327776D01*
X0336393D01*
Y0327659D01*
Y0327601D01*
Y0327542D01*
X0336628D01*
Y0327601D01*
X0336686D01*
Y0327717D01*
X0336744D01*
Y0327776D01*
X0336686D01*
Y0327893D01*
X0336744D01*
Y0327952D01*
X0336862D01*
Y032801D01*
X0337037D01*
Y0327952D01*
X0337213D01*
Y0327893D01*
X0337271D01*
Y0327776D01*
X0337096D01*
Y0327835D01*
X033692D01*
Y0327776D01*
X0336862D01*
Y0327601D01*
X033692D01*
Y0327659D01*
X0336979D01*
Y0327601D01*
X0337037D01*
Y0327483D01*
X0337096D01*
Y0327542D01*
X0337154D01*
Y0327425D01*
X0337213D01*
Y0327601D01*
X0337271D01*
Y0327717D01*
X0337505D01*
Y0327659D01*
X0337447D01*
Y0327542D01*
X0337388D01*
Y0327483D01*
X0337505D01*
Y0327542D01*
X0337564D01*
Y0327717D01*
X0337505D01*
Y0327835D01*
X0337564D01*
Y0327893D01*
X0337622D01*
Y0328069D01*
X0337681D01*
Y0328127D01*
X0337856D01*
Y032801D01*
D02*
G37*
G36*
X0342889Y0327601D02*
X034283D01*
Y0327483D01*
X0342772D01*
Y0327425D01*
X0342713D01*
Y0327366D01*
X0344D01*
Y0327425D01*
X0344176D01*
Y0327366D01*
X0344293D01*
Y0327191D01*
X0342596D01*
Y0327132D01*
X0342421D01*
Y0327249D01*
X0342362D01*
Y0327366D01*
X0342537D01*
Y0327425D01*
X0342596D01*
Y0327483D01*
X0342655D01*
Y0327601D01*
X0342713D01*
Y0327776D01*
X0342772D01*
Y0327893D01*
X0342889D01*
Y0327601D01*
D02*
G37*
G36*
X0337447Y0326781D02*
X0337388D01*
Y0326547D01*
X033733D01*
Y0326372D01*
X0338559D01*
Y0326313D01*
X0338617D01*
Y0326255D01*
X0338441D01*
Y0326196D01*
X0337739D01*
Y0326021D01*
X0337681D01*
Y0325962D01*
X0337622D01*
Y0325904D01*
X0337564D01*
Y0325845D01*
X0337505D01*
Y0325786D01*
X0337447D01*
Y0325728D01*
X0337388D01*
Y032567D01*
X033733D01*
Y0325611D01*
X0337037D01*
Y032567D01*
X033692D01*
Y0325962D01*
X0336979D01*
Y0326196D01*
X0336803D01*
Y0326138D01*
X0336744D01*
Y0326079D01*
X0336686D01*
Y0325845D01*
X033651D01*
Y0326196D01*
X0336393D01*
Y0326138D01*
X0336335D01*
Y0326079D01*
X0336276D01*
Y0326021D01*
X0336218D01*
Y0325845D01*
X0336042D01*
Y0326138D01*
X0335633D01*
Y0326313D01*
X033575D01*
Y0326372D01*
X0335808D01*
Y032643D01*
X0335925D01*
Y0326313D01*
X0336042D01*
Y0326372D01*
X0336101D01*
Y0326547D01*
X0336159D01*
Y0326606D01*
X0336218D01*
Y0326664D01*
X0336276D01*
Y0326723D01*
X0336335D01*
Y0326372D01*
X0336393D01*
Y0326313D01*
X0336452D01*
Y0326372D01*
X033651D01*
Y032643D01*
X0336569D01*
Y0326489D01*
X0336628D01*
Y0326606D01*
X0336686D01*
Y0326664D01*
X0336803D01*
Y0326372D01*
X033692D01*
Y0326489D01*
X0336979D01*
Y0326547D01*
X0337037D01*
Y0326606D01*
X0337096D01*
Y0326664D01*
X0337154D01*
Y0326781D01*
X0337213D01*
Y032684D01*
X0337447D01*
Y0326781D01*
D02*
G37*
G36*
X0338441Y0324382D02*
X0338324D01*
Y0324324D01*
X0338266D01*
Y0324265D01*
X0338149D01*
Y0324207D01*
X0338032D01*
Y0324148D01*
X0337915D01*
Y032409D01*
X0337798D01*
Y0324031D01*
X0337681D01*
Y0323973D01*
X0337564D01*
Y0323914D01*
X0337388D01*
Y0323855D01*
X0337154D01*
Y0323797D01*
X0336979D01*
Y0323739D01*
X0336862D01*
Y032368D01*
X0336686D01*
Y0323621D01*
X0336569D01*
Y0323563D01*
X033651D01*
Y0323387D01*
X0336452D01*
Y0323036D01*
X0336393D01*
Y0322802D01*
Y0322744D01*
Y0322393D01*
X0336159D01*
Y0322451D01*
X0336101D01*
Y0322978D01*
X0336159D01*
Y0323212D01*
X0336218D01*
Y0323446D01*
X0336276D01*
Y032368D01*
X0336335D01*
Y0323855D01*
X0336393D01*
Y0323973D01*
X0336452D01*
Y0324031D01*
X033651D01*
Y032409D01*
X0336569D01*
Y0324031D01*
X0336628D01*
Y0323914D01*
X0336803D01*
Y0323973D01*
X0337037D01*
Y0324031D01*
X0337213D01*
Y032409D01*
X0337388D01*
Y0324148D01*
X0337564D01*
Y0324207D01*
X0337739D01*
Y0324265D01*
X0337856D01*
Y0324324D01*
X0338032D01*
Y0324382D01*
X0338207D01*
Y0324441D01*
X0338441D01*
Y0324382D01*
D02*
G37*
G36*
X0335925Y0323212D02*
X0335984D01*
Y0323036D01*
X0335925D01*
Y0322978D01*
X0335633D01*
Y0323095D01*
X0335574D01*
Y032327D01*
X0335633D01*
Y0323329D01*
X0335925D01*
Y0323212D01*
D02*
G37*
G36*
X0337505Y0323739D02*
X0337564D01*
Y0323563D01*
X0337447D01*
Y0323504D01*
X0337388D01*
Y0323446D01*
X033733D01*
Y0323387D01*
X0337271D01*
Y0323153D01*
X0337388D01*
Y0323095D01*
X0337447D01*
Y0323036D01*
X0337505D01*
Y0322919D01*
X0337447D01*
Y0322861D01*
X0337154D01*
Y0322978D01*
X0337096D01*
Y0323329D01*
X0337154D01*
Y0323387D01*
X0337213D01*
Y0323446D01*
X0337154D01*
Y0323504D01*
X0337037D01*
Y0323563D01*
Y0323621D01*
Y032368D01*
X0337096D01*
Y0323739D01*
X0337213D01*
Y0323797D01*
X0337505D01*
Y0323739D01*
D02*
G37*
G36*
X0338207Y0323563D02*
X0338324D01*
Y0323446D01*
X0338383D01*
Y032327D01*
X0338324D01*
Y0322978D01*
X0338266D01*
Y0322744D01*
X0338207D01*
Y0322334D01*
X0338149D01*
Y0322276D01*
X0338032D01*
Y0322217D01*
X0337915D01*
Y0322334D01*
X0337856D01*
Y0322685D01*
X0337915D01*
Y0322861D01*
X0337856D01*
Y0322802D01*
X0337798D01*
Y0322744D01*
X0337739D01*
Y0322685D01*
X0337681D01*
Y0322568D01*
X0337622D01*
Y032251D01*
X0337505D01*
Y0322451D01*
X0337447D01*
Y0322393D01*
X033733D01*
Y0322334D01*
X0337213D01*
Y0322276D01*
X0336862D01*
Y032251D01*
X033692D01*
Y0322568D01*
X0336979D01*
Y0322627D01*
X0337037D01*
Y0322685D01*
X0337096D01*
Y0322744D01*
X0337213D01*
Y0322685D01*
X0337154D01*
Y0322627D01*
X0337096D01*
Y032251D01*
X0337154D01*
Y0322451D01*
X033733D01*
Y032251D01*
X0337447D01*
Y0322568D01*
X0337505D01*
Y0322627D01*
X0337564D01*
Y0322685D01*
X0337622D01*
Y0322744D01*
X0337681D01*
Y0322861D01*
X0337739D01*
Y0322919D01*
X0337798D01*
Y0323036D01*
X0337856D01*
Y0323095D01*
X0337915D01*
Y032327D01*
X0337973D01*
Y0323446D01*
X0338032D01*
Y0323563D01*
X0338149D01*
Y0323621D01*
X0338207D01*
Y0323563D01*
D02*
G37*
G36*
X0337739Y0321164D02*
X0337798D01*
Y0320637D01*
X0337739D01*
Y0320345D01*
X0337681D01*
Y0319935D01*
X0337622D01*
Y0319408D01*
X0337564D01*
Y0318823D01*
X0337505D01*
Y0318648D01*
X0337564D01*
Y0318472D01*
X0337505D01*
Y0318414D01*
X0337447D01*
Y0318355D01*
X033733D01*
Y0318414D01*
X0337271D01*
Y0318589D01*
X0337213D01*
Y0318882D01*
X0337271D01*
Y0319233D01*
X0337213D01*
Y0319174D01*
X0337096D01*
Y0319116D01*
X0336744D01*
Y0319057D01*
X0336686D01*
Y031894D01*
X0336628D01*
Y0318882D01*
X033651D01*
Y031894D01*
X0336393D01*
Y0319408D01*
X0336452D01*
Y0319642D01*
X033651D01*
Y0319818D01*
X0336569D01*
Y0319993D01*
X0336628D01*
Y0320111D01*
X0336686D01*
Y0320169D01*
X033651D01*
Y0320111D01*
X0336335D01*
Y0320052D01*
X0336276D01*
Y0319818D01*
X0336218D01*
Y0319584D01*
X0336159D01*
Y0319233D01*
X0336101D01*
Y0318882D01*
X0335984D01*
Y031894D01*
X0335867D01*
Y0319467D01*
X0335925D01*
Y0319759D01*
X0335984D01*
Y0320111D01*
X0336042D01*
Y0320345D01*
X0336101D01*
Y0320462D01*
X0336159D01*
Y032052D01*
X0336218D01*
Y0320579D01*
X0336393D01*
Y0320286D01*
X0336452D01*
Y0320345D01*
X0336569D01*
Y0320403D01*
X0336803D01*
Y0320462D01*
X0337213D01*
Y0320403D01*
X0337388D01*
Y0320462D01*
X0337447D01*
Y0320754D01*
X0337505D01*
Y0321105D01*
X0337564D01*
Y0321164D01*
X0337622D01*
Y0321222D01*
X0337739D01*
Y0321164D01*
D02*
G37*
G36*
X0338324Y0320754D02*
X0338383D01*
Y0320696D01*
X0338441D01*
Y0320345D01*
X033809D01*
Y0320286D01*
X0338032D01*
Y032052D01*
X0337973D01*
Y0320754D01*
X0338032D01*
Y0320813D01*
X0338324D01*
Y0320754D01*
D02*
G37*
G36*
X0338266Y0319233D02*
X0338324D01*
Y0319174D01*
X0338383D01*
Y0318999D01*
X0338324D01*
Y031894D01*
Y0318882D01*
X0338266D01*
Y0318823D01*
X0338149D01*
Y0318765D01*
X0338032D01*
Y0318823D01*
X0337915D01*
Y0318999D01*
X0337973D01*
Y0319057D01*
X033809D01*
Y0319116D01*
X0338149D01*
Y0319233D01*
X0338207D01*
Y0319291D01*
X0338266D01*
Y0319233D01*
D02*
G37*
%LPC*%
G36*
X0337388Y034457D02*
X0337213D01*
Y0344511D01*
X0337037D01*
Y0344453D01*
X0336979D01*
Y0344394D01*
X0337037D01*
Y0344102D01*
X0336979D01*
Y0343926D01*
X033692D01*
Y0343634D01*
X0336979D01*
Y0343575D01*
X0337213D01*
Y0343692D01*
X0337271D01*
Y0343868D01*
X0337213D01*
Y0343926D01*
X0337096D01*
Y034416D01*
X0337213D01*
Y0344219D01*
X0337271D01*
Y034416D01*
X033733D01*
Y0344277D01*
X0337388D01*
Y034457D01*
D02*
G37*
G36*
X0337798Y0344687D02*
X0337681D01*
Y034457D01*
X0337622D01*
Y0344336D01*
X0337564D01*
Y0344277D01*
X0337856D01*
Y034416D01*
X0337798D01*
Y0344102D01*
X0337739D01*
Y0344043D01*
X0337622D01*
Y0343985D01*
X0337564D01*
Y0343926D01*
X0337505D01*
Y0343458D01*
X0337681D01*
Y0343516D01*
X0337739D01*
Y0343575D01*
X0337798D01*
Y0343692D01*
X0337856D01*
Y0343868D01*
X0337915D01*
Y0344043D01*
X0337973D01*
Y0344511D01*
X0337915D01*
Y034457D01*
X0337856D01*
Y0344628D01*
X0337798D01*
Y0344687D01*
D02*
G37*
G36*
X0337856Y0341117D02*
X0337798D01*
Y0341059D01*
X0337856D01*
Y0341117D01*
D02*
G37*
G36*
X0337798Y0341059D02*
X0337739D01*
Y0341D01*
X0337798D01*
Y0341059D01*
D02*
G37*
G36*
X0338207D02*
X033809D01*
Y0341D01*
X0338149D01*
Y0340942D01*
X0338207D01*
Y0341059D01*
D02*
G37*
G36*
X0337915Y0341D02*
X0337856D01*
Y0340942D01*
X0337915D01*
Y0341D01*
D02*
G37*
G36*
X0336159Y0340591D02*
X0336101D01*
Y0340532D01*
X0336159D01*
Y0340591D01*
D02*
G37*
G36*
X0337856Y0340942D02*
X0337798D01*
Y0340883D01*
X0337739D01*
Y0340649D01*
X0337681D01*
Y0340474D01*
X0337915D01*
Y0340415D01*
X0338032D01*
Y0340474D01*
X0338266D01*
Y0340532D01*
X0338324D01*
Y0340591D01*
X0338207D01*
Y0340883D01*
X0338149D01*
Y0340825D01*
X033809D01*
Y0340766D01*
X0337856D01*
Y0340942D01*
D02*
G37*
G36*
X033142Y0340883D02*
X0331303D01*
Y0340825D01*
X0331244D01*
Y0340766D01*
X0331186D01*
Y0340649D01*
X0331127D01*
Y0340591D01*
X0331069D01*
Y0340532D01*
X0330951D01*
Y0340591D01*
X0330893D01*
Y0340766D01*
X0330835D01*
Y0340825D01*
X0330659D01*
Y0340708D01*
X0330601D01*
Y0340415D01*
X0330542D01*
Y0340181D01*
X0330601D01*
Y0340123D01*
X0330717D01*
Y0340064D01*
X0330835D01*
Y0340123D01*
X033101D01*
Y0340181D01*
X0331127D01*
Y034024D01*
X0331186D01*
Y0340298D01*
X0331303D01*
Y0340415D01*
X0331361D01*
Y0340649D01*
X033142D01*
Y0340883D01*
D02*
G37*
G36*
X0325568Y034182D02*
X0325451D01*
Y0341703D01*
X0325568D01*
Y034182D01*
D02*
G37*
G36*
X0325159Y0341703D02*
X0325042D01*
Y0341644D01*
X0324924D01*
Y0341527D01*
X0324866D01*
Y0341352D01*
X0325042D01*
Y0341293D01*
X0325393D01*
Y0341352D01*
X0325568D01*
Y034141D01*
X0325627D01*
Y0341644D01*
X0325568D01*
Y0341586D01*
X0325451D01*
Y0341527D01*
X0325334D01*
Y0341469D01*
X0325217D01*
Y0341527D01*
X0325159D01*
Y0341586D01*
X0325217D01*
Y0341644D01*
X0325159D01*
Y0341703D01*
D02*
G37*
G36*
X0325276Y0340649D02*
X0325217D01*
Y0340591D01*
X0325276D01*
Y0340649D01*
D02*
G37*
G36*
X0324281Y0340064D02*
X0324222D01*
Y0340006D01*
X0324281D01*
Y0340064D01*
D02*
G37*
G36*
X0343708Y0340415D02*
X0343064D01*
Y0340357D01*
X0342889D01*
Y0340298D01*
X034283D01*
Y034024D01*
X0342772D01*
Y0340181D01*
X0342713D01*
Y0340123D01*
X0342655D01*
Y0339947D01*
X0342596D01*
Y0339772D01*
X0342655D01*
Y0339596D01*
X0342713D01*
Y0339538D01*
X0342772D01*
Y0339479D01*
X034283D01*
Y0339421D01*
X0342947D01*
Y0339362D01*
X0343181D01*
Y0339303D01*
X0343708D01*
Y0339362D01*
X0343825D01*
Y0339421D01*
X0343942D01*
Y0339479D01*
X0344D01*
Y0339538D01*
X0344059D01*
Y0339655D01*
X0344117D01*
Y0340064D01*
X0344059D01*
Y0340181D01*
X0344D01*
Y034024D01*
X0343942D01*
Y0340298D01*
X0343883D01*
Y0340357D01*
X0343708D01*
Y0340415D01*
D02*
G37*
G36*
X0325393Y0338075D02*
X0325159D01*
Y0338016D01*
X0325393D01*
Y0338075D01*
D02*
G37*
G36*
X0325685Y0337548D02*
X0325627D01*
Y033749D01*
X0325685D01*
Y0337548D01*
D02*
G37*
G36*
X032551D02*
X0325276D01*
Y033749D01*
X0325217D01*
Y0337138D01*
X0325334D01*
Y0337197D01*
X0325451D01*
Y0337255D01*
X032551D01*
Y0337314D01*
X0325568D01*
Y0337372D01*
X0325627D01*
Y033749D01*
X032551D01*
Y0337548D01*
D02*
G37*
G36*
X0325802Y0337372D02*
X0325744D01*
Y0337314D01*
X0325685D01*
Y0337255D01*
X0325627D01*
Y0337138D01*
X0325568D01*
Y033708D01*
X032551D01*
Y0337021D01*
X0325393D01*
Y0336963D01*
X0325334D01*
Y0336904D01*
X0325217D01*
Y0336846D01*
X0325159D01*
Y0336553D01*
X0325217D01*
Y0336495D01*
X0325334D01*
Y0336553D01*
X0325568D01*
Y0336612D01*
X0325685D01*
Y033667D01*
X0325744D01*
Y0336729D01*
X0325802D01*
Y0336846D01*
X0325744D01*
Y0337021D01*
X0325802D01*
Y0337372D01*
D02*
G37*
G36*
X0331712Y033749D02*
X0331654D01*
Y0337431D01*
X0331712D01*
Y033749D01*
D02*
G37*
G36*
X0343649Y0334037D02*
X0343181D01*
Y0333979D01*
X0343006D01*
Y033392D01*
X0342889D01*
Y0333862D01*
X0342772D01*
Y0333803D01*
X0342713D01*
Y0333686D01*
X0342655D01*
Y033351D01*
X0342596D01*
Y0333393D01*
X0342655D01*
Y0333218D01*
X0342713D01*
Y0333159D01*
X0342772D01*
Y0333101D01*
X034283D01*
Y0333042D01*
X0342889D01*
Y0332984D01*
X0343064D01*
Y0332925D01*
X0343298D01*
Y0332867D01*
X0343532D01*
Y0332925D01*
X0343766D01*
Y0332984D01*
X0343883D01*
Y0333042D01*
X0343942D01*
Y0333101D01*
X0344D01*
Y0333159D01*
X0344059D01*
Y0333218D01*
X0344117D01*
Y0333686D01*
X0344059D01*
Y0333803D01*
X0344D01*
Y0333862D01*
X0343942D01*
Y033392D01*
X0343825D01*
Y0333979D01*
X0343649D01*
Y0334037D01*
D02*
G37*
G36*
X0325276Y0329883D02*
X0325217D01*
Y0329824D01*
X0325276D01*
Y0329883D01*
D02*
G37*
G36*
X0336862Y0327601D02*
X0336803D01*
Y0327542D01*
X0336744D01*
Y0327425D01*
X0336686D01*
Y0327074D01*
X033692D01*
Y0327132D01*
X0337037D01*
Y0327191D01*
X0337096D01*
Y0327308D01*
X0337154D01*
Y0327425D01*
X0337096D01*
Y0327366D01*
X0336979D01*
Y0327308D01*
X0336862D01*
Y0327366D01*
X0336803D01*
Y0327425D01*
X0336862D01*
Y0327601D01*
D02*
G37*
G36*
X0337505Y0326196D02*
X0337271D01*
Y0326138D01*
X0337213D01*
Y0326021D01*
X0337154D01*
Y0325845D01*
X0337213D01*
Y0325786D01*
X033733D01*
Y0325845D01*
X0337447D01*
Y0325904D01*
X0337505D01*
Y0326196D01*
D02*
G37*
G36*
X0337154Y0320228D02*
X0337037D01*
Y0320169D01*
X0336979D01*
Y0320111D01*
X033692D01*
Y0319935D01*
X0336862D01*
Y0319642D01*
X0336803D01*
Y031935D01*
X033692D01*
Y0319291D01*
X0336979D01*
Y031935D01*
X0337096D01*
Y0319408D01*
X0337154D01*
Y0319467D01*
X0337213D01*
Y0319525D01*
X0337271D01*
Y0319642D01*
X033733D01*
Y0319993D01*
X0337388D01*
Y0320169D01*
X0337154D01*
Y0320228D01*
D02*
G37*
%LPD*%
D10*
X0314906Y037424D02*
X031388Y037415D01*
X0312886Y0373884D01*
X0311953Y0373449D01*
X0311109Y0372859D01*
X0310382Y0372131D01*
X0309791Y0371287D01*
X0309356Y0370354D01*
X030909Y036936D01*
X0309Y0368335D01*
X0309Y0301406D02*
X030909Y030038D01*
X0309356Y0299386D01*
X0309791Y0298453D01*
X0310382Y0297609D01*
X0311109Y0296882D01*
X0311953Y0296291D01*
X0312886Y0295856D01*
X031388Y029559D01*
X0314906Y02955D01*
X04285Y0370425D02*
X0428416Y0371377D01*
X0428089Y0372275D01*
X042754Y0373057D01*
X0426807Y0373671D01*
X0425941Y0374074D01*
X0425Y037424D01*
X04255Y02955D02*
X0426492Y0295736D01*
X0427363Y0296268D01*
X0428026Y0297042D01*
X0428418Y0297984D01*
X04285Y0299D01*
X0309Y0301406D02*
Y0368335D01*
X0314901Y0374169D02*
X0425Y037424D01*
X0314906Y02955D02*
X04255Y02955D01*
X04285Y0299D02*
Y0370425D01*
D24*
X0375378Y03D02*
X0375056Y0300886D01*
X0374239Y0301357D01*
X0373311Y0301193D01*
X0372705Y0300471D01*
Y0299529D01*
X0373311Y0298807D01*
X0374239Y0298643D01*
X0375056Y0299114D01*
X0375378Y03D01*
X0375878Y03695D02*
X0375556Y0370386D01*
X0374739Y0370857D01*
X0373811Y0370693D01*
X0373205Y0369971D01*
Y0369029D01*
X0373811Y0368307D01*
X0374739Y0368143D01*
X0375556Y0368614D01*
X0375878Y03695D01*
X0402378Y03D02*
X0402056Y0300886D01*
X0401239Y0301357D01*
X0400311Y0301193D01*
X0399705Y0300471D01*
Y0299529D01*
X0400311Y0298807D01*
X0401239Y0298643D01*
X0402056Y0299114D01*
X0402378Y03D01*
X0401878Y03695D02*
X0401556Y0370386D01*
X0400739Y0370857D01*
X0399811Y0370693D01*
X0399205Y0369971D01*
Y0369029D01*
X0399811Y0368307D01*
X0400739Y0368143D01*
X0401556Y0368614D01*
X0401878Y03695D01*
X0375878Y03695D02*
X0375556Y0370386D01*
X0374739Y0370857D01*
X0373811Y0370693D01*
X0373205Y0369971D01*
Y0369029D01*
X0373811Y0368307D01*
X0374739Y0368143D01*
X0375556Y0368614D01*
X0375878Y03695D01*
X0375378Y03D02*
X0375056Y0300886D01*
X0374239Y0301357D01*
X0373311Y0301193D01*
X0372705Y0300471D01*
Y0299529D01*
X0373311Y0298807D01*
X0374239Y0298643D01*
X0375056Y0299114D01*
X0375378Y03D01*
X0402358D02*
X0402036Y0300886D01*
X040122Y0301357D01*
X0400291Y0301193D01*
X0399686Y0300471D01*
Y0299529D01*
X0400291Y0298807D01*
X040122Y0298643D01*
X0402036Y0299114D01*
X0402358Y03D01*
X0401878Y03695D02*
X0401556Y0370386D01*
X0400739Y0370857D01*
X0399811Y0370693D01*
X0399205Y0369971D01*
Y0369029D01*
X0399811Y0368307D01*
X0400739Y0368143D01*
X0401556Y0368614D01*
X0401878Y03695D01*
X0372032Y03D02*
X0375969D01*
X0374Y0298031D02*
Y0301968D01*
X036337Y0296457D02*
Y0303543D01*
Y0296457D02*
X038463D01*
Y0303543D01*
X036337D02*
X038463D01*
X0372532Y03695D02*
X0376469D01*
X03745Y0367532D02*
Y0371469D01*
X036387Y0365957D02*
Y0373043D01*
Y0365957D02*
X038513D01*
Y0373043D01*
X036387D02*
X038513D01*
X0399032Y03D02*
X0402969D01*
X0401Y0298031D02*
Y0301968D01*
X039037Y0296457D02*
Y0303543D01*
Y0296457D02*
X041163D01*
Y0303543D01*
X039037D02*
X041163D01*
X0398532Y03695D02*
X0402469D01*
X04005Y0367532D02*
Y0371469D01*
X041113Y0365957D02*
Y0373043D01*
X038987D02*
X041113D01*
X038987Y0365957D02*
Y0373043D01*
Y0365957D02*
X041113D01*
X0372532Y03695D02*
X0376469D01*
X03745Y0367532D02*
Y0371469D01*
X038513Y0365957D02*
Y0373043D01*
X036387Y0365957D02*
X038513D01*
X036387D02*
Y0373043D01*
X038513D01*
X0372032Y03D02*
X0375969D01*
X0374Y0298032D02*
Y0301969D01*
X038463Y0296457D02*
Y0303543D01*
X036337Y0296457D02*
X038463D01*
X036337D02*
Y0303543D01*
X038463D01*
X0399012Y03D02*
X0402949D01*
X040098Y0298032D02*
Y0301969D01*
X041161Y0296457D02*
Y0303543D01*
X039035Y0296457D02*
X041161D01*
X039035D02*
Y0303543D01*
X041161D01*
X0398532Y03695D02*
X0402469D01*
X04005Y0367532D02*
Y0371469D01*
X038987Y0365957D02*
Y0373043D01*
X041113D01*
Y0365957D02*
Y0373043D01*
X038987Y0365957D02*
X041113D01*
D25*
X036839Y0296457D02*
Y0303543D01*
Y0296457D02*
X037961D01*
Y0303543D01*
X036839D02*
X037961D01*
X036889Y0365957D02*
Y0373043D01*
Y0365957D02*
X038011D01*
Y0373043D01*
X036889D02*
X038011D01*
X039539Y0296457D02*
Y0303543D01*
Y0296457D02*
X040661D01*
Y0303543D01*
X039539D02*
X040661D01*
X040611Y0365957D02*
Y0373043D01*
X039489D02*
X040611D01*
X039489Y0365957D02*
Y0373043D01*
Y0365957D02*
X040611D01*
X038011Y0365957D02*
Y0373043D01*
X036889Y0365957D02*
X038011D01*
X036889D02*
Y0373043D01*
X038011D01*
X037961Y0296457D02*
Y0303543D01*
X036839Y0296457D02*
X037961D01*
X036839D02*
Y0303543D01*
X037961D01*
X0406591Y0296457D02*
Y0303543D01*
X039537Y0296457D02*
X0406591D01*
X039537D02*
Y0303543D01*
X0406591D01*
X039489Y0365957D02*
Y0373043D01*
X040611D01*
Y0365957D02*
Y0373043D01*
X039489Y0365957D02*
X040611D01*
D31*
X036652Y03D02*
D03*
X038148D02*
D03*
X036702Y03695D02*
D03*
X038198D02*
D03*
X039352Y03D02*
D03*
X040848D02*
D03*
X040798Y03695D02*
D03*
X039302D02*
D03*
D32*
X03755Y0316D02*
D03*
Y0307D02*
D03*
X0366079Y0316441D02*
D03*
Y0307441D02*
D03*
X0376504Y0362017D02*
D03*
Y0353017D02*
D03*
X0365921Y0353059D02*
D03*
Y0362059D02*
D03*
X039767Y0316132D02*
D03*
Y0307132D02*
D03*
X04084Y0307191D02*
D03*
Y0316191D02*
D03*
X0393316Y0331373D02*
D03*
X0393316Y0322373D02*
D03*
X0397775Y0343993D02*
D03*
Y0352993D02*
D03*
X04084Y0353208D02*
D03*
Y0362208D02*
D03*
X0387Y0362303D02*
D03*
Y0353303D02*
D03*
D33*
X03735Y0324D02*
D03*
X03645D02*
D03*
X0377Y03375D02*
D03*
X0386D02*
D03*
D36*
X0418Y0309D02*
D03*
X0318D02*
D03*
D37*
X0418Y0319D02*
D03*
Y0329D02*
D03*
Y0339D02*
D03*
Y0349D02*
D03*
Y0359D02*
D03*
X0318D02*
D03*
Y0349D02*
D03*
Y0339D02*
D03*
Y0329D02*
D03*
Y0319D02*
D03*
D38*
X03515Y03245D02*
D03*
X03415D02*
D03*
X03315D02*
D03*
X03515Y0345D02*
D03*
X03415D02*
D03*
X03315D02*
D03*
Y03045D02*
D03*
X03415D02*
D03*
X03515D02*
D03*
X03315Y03655D02*
D03*
X03415D02*
D03*
X03515D02*
D03*
M02*
