G04*
G04 #@! TF.GenerationSoftware,Altium Limited,Altium Designer,22.0.2 (36)*
G04*
G04 Layer_Color=2752767*
%FSTAX25Y25*%
%MOIN*%
G70*
G04*
G04 #@! TF.SameCoordinates,371D3646-10FE-40E0-BBDF-05722AEB6D60*
G04*
G04*
G04 #@! TF.FilePolarity,Positive*
G04*
G01*
G75*
%ADD10C,0.01000*%
%ADD24C,0.00197*%
%ADD25C,0.00004*%
%ADD45C,0.00200*%
%ADD46C,0.00267*%
D10*
X0314906Y037424D02*
X031388Y037415D01*
X0312886Y0373884D01*
X0311953Y0373449D01*
X0311109Y0372859D01*
X0310382Y0372131D01*
X0309791Y0371287D01*
X0309356Y0370354D01*
X030909Y036936D01*
X0309Y0368335D01*
X0309Y0301406D02*
X030909Y030038D01*
X0309356Y0299386D01*
X0309791Y0298453D01*
X0310382Y0297609D01*
X0311109Y0296882D01*
X0311953Y0296291D01*
X0312886Y0295856D01*
X031388Y029559D01*
X0314906Y02955D01*
X04285Y0370425D02*
X0428416Y0371377D01*
X0428089Y0372275D01*
X042754Y0373057D01*
X0426807Y0373671D01*
X0425941Y0374074D01*
X0425Y037424D01*
X04255Y02955D02*
X0426492Y0295736D01*
X0427363Y0296268D01*
X0428026Y0297042D01*
X0428418Y0297984D01*
X04285Y0299D01*
X0309Y0301406D02*
Y0368335D01*
X0314901Y0374169D02*
X0425Y037424D01*
X0314906Y02955D02*
X04255Y02955D01*
X04285Y0299D02*
Y0370425D01*
D24*
X0375378Y03D02*
X0375056Y0300886D01*
X0374239Y0301357D01*
X0373311Y0301193D01*
X0372705Y0300471D01*
Y0299529D01*
X0373311Y0298807D01*
X0374239Y0298643D01*
X0375056Y0299114D01*
X0375378Y03D01*
X0375878Y03695D02*
X0375556Y0370386D01*
X0374739Y0370857D01*
X0373811Y0370693D01*
X0373205Y0369971D01*
Y0369029D01*
X0373811Y0368307D01*
X0374739Y0368143D01*
X0375556Y0368614D01*
X0375878Y03695D01*
X0402378Y03D02*
X0402056Y0300886D01*
X0401239Y0301357D01*
X0400311Y0301193D01*
X0399705Y0300471D01*
Y0299529D01*
X0400311Y0298807D01*
X0401239Y0298643D01*
X0402056Y0299114D01*
X0402378Y03D01*
X0401878Y03695D02*
X0401556Y0370386D01*
X0400739Y0370857D01*
X0399811Y0370693D01*
X0399205Y0369971D01*
Y0369029D01*
X0399811Y0368307D01*
X0400739Y0368143D01*
X0401556Y0368614D01*
X0401878Y03695D01*
X0375878Y03695D02*
X0375556Y0370386D01*
X0374739Y0370857D01*
X0373811Y0370693D01*
X0373205Y0369971D01*
Y0369029D01*
X0373811Y0368307D01*
X0374739Y0368143D01*
X0375556Y0368614D01*
X0375878Y03695D01*
X0375378Y03D02*
X0375056Y0300886D01*
X0374239Y0301357D01*
X0373311Y0301193D01*
X0372705Y0300471D01*
Y0299529D01*
X0373311Y0298807D01*
X0374239Y0298643D01*
X0375056Y0299114D01*
X0375378Y03D01*
X0402358D02*
X0402036Y0300886D01*
X040122Y0301357D01*
X0400291Y0301193D01*
X0399686Y0300471D01*
Y0299529D01*
X0400291Y0298807D01*
X040122Y0298643D01*
X0402036Y0299114D01*
X0402358Y03D01*
X0401878Y03695D02*
X0401556Y0370386D01*
X0400739Y0370857D01*
X0399811Y0370693D01*
X0399205Y0369971D01*
Y0369029D01*
X0399811Y0368307D01*
X0400739Y0368143D01*
X0401556Y0368614D01*
X0401878Y03695D01*
X0372032Y03D02*
X0375969D01*
X0374Y0298031D02*
Y0301968D01*
X036337Y0296457D02*
Y0303543D01*
Y0296457D02*
X038463D01*
Y0303543D01*
X036337D02*
X038463D01*
X0372532Y03695D02*
X0376469D01*
X03745Y0367532D02*
Y0371469D01*
X036387Y0365957D02*
Y0373043D01*
Y0365957D02*
X038513D01*
Y0373043D01*
X036387D02*
X038513D01*
X0399032Y03D02*
X0402969D01*
X0401Y0298031D02*
Y0301968D01*
X039037Y0296457D02*
Y0303543D01*
Y0296457D02*
X041163D01*
Y0303543D01*
X039037D02*
X041163D01*
X0398532Y03695D02*
X0402469D01*
X04005Y0367532D02*
Y0371469D01*
X041113Y0365957D02*
Y0373043D01*
X038987D02*
X041113D01*
X038987Y0365957D02*
Y0373043D01*
Y0365957D02*
X041113D01*
X0372532Y03695D02*
X0376469D01*
X03745Y0367532D02*
Y0371469D01*
X038513Y0365957D02*
Y0373043D01*
X036387Y0365957D02*
X038513D01*
X036387D02*
Y0373043D01*
X038513D01*
X0372032Y03D02*
X0375969D01*
X0374Y0298032D02*
Y0301969D01*
X038463Y0296457D02*
Y0303543D01*
X036337Y0296457D02*
X038463D01*
X036337D02*
Y0303543D01*
X038463D01*
X0399012Y03D02*
X0402949D01*
X040098Y0298032D02*
Y0301969D01*
X041161Y0296457D02*
Y0303543D01*
X039035Y0296457D02*
X041161D01*
X039035D02*
Y0303543D01*
X041161D01*
X0398532Y03695D02*
X0402469D01*
X04005Y0367532D02*
Y0371469D01*
X038987Y0365957D02*
Y0373043D01*
X041113D01*
Y0365957D02*
Y0373043D01*
X038987Y0365957D02*
X041113D01*
D25*
X036839Y0296457D02*
Y0303543D01*
Y0296457D02*
X037961D01*
Y0303543D01*
X036839D02*
X037961D01*
X036889Y0365957D02*
Y0373043D01*
Y0365957D02*
X038011D01*
Y0373043D01*
X036889D02*
X038011D01*
X039539Y0296457D02*
Y0303543D01*
Y0296457D02*
X040661D01*
Y0303543D01*
X039539D02*
X040661D01*
X040611Y0365957D02*
Y0373043D01*
X039489D02*
X040611D01*
X039489Y0365957D02*
Y0373043D01*
Y0365957D02*
X040611D01*
X038011Y0365957D02*
Y0373043D01*
X036889Y0365957D02*
X038011D01*
X036889D02*
Y0373043D01*
X038011D01*
X037961Y0296457D02*
Y0303543D01*
X036839Y0296457D02*
X037961D01*
X036839D02*
Y0303543D01*
X037961D01*
X0406591Y0296457D02*
Y0303543D01*
X039537Y0296457D02*
X0406591D01*
X039537D02*
Y0303543D01*
X0406591D01*
X039489Y0365957D02*
Y0373043D01*
X040611D01*
Y0365957D02*
Y0373043D01*
X039489Y0365957D02*
X040611D01*
D45*
X04172Y03082D02*
Y03098D01*
X04188D01*
Y03082D01*
X04172D01*
Y03182D02*
Y03198D01*
X04188D01*
Y03182D01*
X04172D01*
Y03282D02*
Y03298D01*
X04188D01*
Y03282D01*
X04172D01*
Y03382D02*
Y03398D01*
X04188D01*
Y03382D01*
X04172D01*
Y03482D02*
Y03498D01*
X04188D01*
Y03482D01*
X04172D01*
Y03582D02*
Y03598D01*
X04188D01*
Y03582D01*
X04172D01*
X03172D02*
Y03598D01*
X03188D01*
Y03582D01*
X03172D01*
Y03482D02*
Y03498D01*
X03188D01*
Y03482D01*
X03172D01*
Y03382D02*
Y03398D01*
X03188D01*
Y03382D01*
X03172D01*
Y03282D02*
Y03298D01*
X03188D01*
Y03282D01*
X03172D01*
Y03182D02*
Y03198D01*
X03188D01*
Y03182D01*
X03172D01*
Y03082D02*
Y03098D01*
X03188D01*
Y03082D01*
X03172D01*
X036652Y02992D02*
X036572Y03008D01*
X036732D01*
X036652Y02992D01*
X03935D02*
X03927Y03008D01*
X03943D01*
X03935Y02992D01*
X03755Y03062D02*
X03747Y03078D01*
X03763D01*
X03755Y03062D01*
X0392D02*
X03912Y03078D01*
X03928D01*
X0392Y03062D01*
X04084Y0306391D02*
X04076Y0307991D01*
X04092D01*
X04084Y0306391D01*
X03575Y03107D02*
X03567Y03123D01*
X03583D01*
X03575Y03107D01*
X0397691Y0315141D02*
X0396891Y0316741D01*
X0398491D01*
X0397691Y0315141D01*
X03755Y03152D02*
X03747Y03168D01*
X03763D01*
X03755Y03152D01*
X0379042Y03227D02*
X0378242Y03243D01*
X0379842D01*
X0379042Y03227D01*
X0390666Y0325996D02*
X0391066Y0326396D01*
X0391466D01*
X0391066Y0326796D01*
X0391466Y0327196D01*
X0391066D01*
X0390666Y0327596D01*
X0390266Y0327196D01*
X0389866D01*
X0390266Y0326796D01*
X0389866Y0326396D01*
X0390266D01*
X0390666Y0325996D01*
X0378Y03292D02*
X03772Y03308D01*
X03788D01*
X0378Y03292D01*
X0393316Y0330573D02*
X0392516Y0332173D01*
X0394116D01*
X0393316Y0330573D01*
X0386Y03367D02*
X03852Y03383D01*
X03868D01*
X0386Y03367D01*
X0352Y03517D02*
X03512Y03533D01*
X03528D01*
X0352Y03517D01*
X0365921Y0352062D02*
X0365121Y0353662D01*
X0366721D01*
X0365921Y0352062D01*
X0397775Y0352193D02*
X0396975Y0353793D01*
X0398575D01*
X0397775Y0352193D01*
X0376504Y0352217D02*
X0375704Y0353817D01*
X0377304D01*
X0376504Y0352217D01*
X0393197Y0352503D02*
X0392397Y0354103D01*
X0393997D01*
X0393197Y0352503D01*
X0376504Y0361217D02*
X0375704Y0362817D01*
X0377304D01*
X0376504Y0361217D01*
X04084Y0361408D02*
X04076Y0363008D01*
X04092D01*
X04084Y0361408D01*
X036702Y03687D02*
X036622Y03703D01*
X036782D01*
X036702Y03687D01*
X039302D02*
X039222Y03703D01*
X039382D01*
X039302Y03687D01*
D46*
X03523Y03245D02*
X0351747Y0325261D01*
X0350853Y032497D01*
Y032403D01*
X0351747Y0323739D01*
X03523Y03245D01*
X03423D02*
X0341747Y0325261D01*
X0340853Y032497D01*
Y032403D01*
X0341747Y0323739D01*
X03423Y03245D01*
X03323D02*
X0331747Y0325261D01*
X0330853Y032497D01*
Y032403D01*
X0331747Y0323739D01*
X03323Y03245D01*
X03523Y0345D02*
X0351747Y0345761D01*
X0350853Y034547D01*
Y034453D01*
X0351747Y0344239D01*
X03523Y0345D01*
X03423D02*
X0341747Y0345761D01*
X0340853Y034547D01*
Y034453D01*
X0341747Y0344239D01*
X03423Y0345D01*
X03323D02*
X0331747Y0345761D01*
X0330853Y034547D01*
Y034453D01*
X0331747Y0344239D01*
X03323Y0345D01*
Y03045D02*
X0331747Y0305261D01*
X0330853Y030497D01*
Y030403D01*
X0331747Y0303739D01*
X03323Y03045D01*
X03423D02*
X0341747Y0305261D01*
X0340853Y030497D01*
Y030403D01*
X0341747Y0303739D01*
X03423Y03045D01*
X03523D02*
X0351747Y0305261D01*
X0350853Y030497D01*
Y030403D01*
X0351747Y0303739D01*
X03523Y03045D01*
X03323Y03655D02*
X0331747Y0366261D01*
X0330853Y036597D01*
Y036503D01*
X0331747Y0364739D01*
X03323Y03655D01*
X03423D02*
X0341747Y0366261D01*
X0340853Y036597D01*
Y036503D01*
X0341747Y0364739D01*
X03423Y03655D01*
X03523D02*
X0351747Y0366261D01*
X0350853Y036597D01*
Y036503D01*
X0351747Y0364739D01*
X03523Y03655D01*
M02*
