G04*
G04 #@! TF.GenerationSoftware,Altium Limited,Altium Designer,22.0.2 (36)*
G04*
G04 Layer_Physical_Order=2*
G04 Layer_Color=16711680*
%FSTAX25Y25*%
%MOIN*%
G70*
G04*
G04 #@! TF.SameCoordinates,371D3646-10FE-40E0-BBDF-05722AEB6D60*
G04*
G04*
G04 #@! TF.FilePolarity,Positive*
G04*
G01*
G75*
%ADD10C,0.01000*%
%ADD24C,0.00197*%
%ADD25C,0.00004*%
%ADD26R,0.04724X0.03347*%
%ADD27R,0.05000X0.05118*%
%ADD28R,0.05118X0.05000*%
%ADD39R,0.06299X0.06299*%
%ADD40C,0.06299*%
%ADD41C,0.04724*%
%ADD42C,0.02000*%
%ADD43C,0.01700*%
G36*
X0315094Y0374594D02*
X0315094Y0374594D01*
X0423861Y03745D01*
X0424254Y0374574D01*
X0425053Y0374565D01*
X0425835Y03744D01*
X0426569Y0374086D01*
X0427229Y0373635D01*
X0427787Y0373063D01*
X0428224Y0372394D01*
X0428495Y0371719D01*
X0428594Y037126D01*
X0428594Y037126D01*
X0428594Y037126D01*
X0428594Y029876D01*
X0428545Y0298366D01*
X0428295Y0297612D01*
X0427903Y0296922D01*
X0427383Y0296322D01*
X0426756Y0295834D01*
X0426046Y0295478D01*
X0425281Y0295268D01*
X0424577Y0295217D01*
X0424094Y029526D01*
X0424094Y029526D01*
X0315094D01*
X0314454Y029526D01*
X0313198Y029551D01*
X0312016Y0296D01*
X0310951Y0296711D01*
X0310046Y0297616D01*
X0309334Y0298681D01*
X0308844Y0299864D01*
X0308594Y030112D01*
X0308594Y030176D01*
X0308594Y0368595D01*
X0308619Y036921D01*
X0308908Y0370408D01*
X0309424Y0371527D01*
X0310149Y0372523D01*
X0311055Y0373359D01*
X0312106Y0374002D01*
X0313262Y0374427D01*
X0314479Y0374619D01*
X0315094Y0374594D01*
D02*
G37*
%LPC*%
G36*
X0396182Y0371973D02*
X0389857D01*
Y0367027D01*
X0396182D01*
Y0371973D01*
D02*
G37*
G36*
X03415Y0368689D02*
X0340674Y0368581D01*
X0339905Y0368262D01*
X0339245Y0367755D01*
X0338738Y0367095D01*
X0338419Y0366325D01*
X0338311Y03655D01*
X0338419Y0364674D01*
X0338738Y0363905D01*
X0339245Y0363245D01*
X0339905Y0362738D01*
X0340674Y0362419D01*
X03415Y0362311D01*
X0342325Y0362419D01*
X0343095Y0362738D01*
X0343755Y0363245D01*
X0344262Y0363905D01*
X0344581Y0364674D01*
X0344689Y03655D01*
X0344581Y0366325D01*
X0344262Y0367095D01*
X0343755Y0367755D01*
X0343095Y0368262D01*
X0342325Y0368581D01*
X03415Y0368689D01*
D02*
G37*
G36*
X03315D02*
X0330675Y0368581D01*
X0329905Y0368262D01*
X0329245Y0367755D01*
X0328738Y0367095D01*
X0328419Y0366325D01*
X032831Y03655D01*
X0328419Y0364674D01*
X0328738Y0363905D01*
X0329245Y0363245D01*
X0329905Y0362738D01*
X0330675Y0362419D01*
X03315Y0362311D01*
X0332326Y0362419D01*
X0333095Y0362738D01*
X0333755Y0363245D01*
X0334262Y0363905D01*
X0334581Y0364674D01*
X0334689Y03655D01*
X0334581Y0366325D01*
X0334262Y0367095D01*
X0333755Y0367755D01*
X0333095Y0368262D01*
X0332326Y0368581D01*
X03315Y0368689D01*
D02*
G37*
G36*
X0411143Y0371973D02*
X0404818D01*
Y0367027D01*
X0407074D01*
Y0365567D01*
X04051D01*
Y0358849D01*
X040461Y0358825D01*
X038157D01*
X0380104Y0360292D01*
X0379951Y0360456D01*
X0379845Y0360588D01*
X0379804Y0360647D01*
Y0365376D01*
X0373204D01*
Y0358658D01*
X0377938D01*
X037797Y0358636D01*
X0378242Y0358404D01*
X0380084Y0356563D01*
X0380514Y0356275D01*
X0381021Y0356174D01*
X03837D01*
Y0351933D01*
X0383665Y0351883D01*
X0383439Y0351617D01*
X0378593Y034677D01*
X0354985D01*
X0354907Y0346783D01*
X035478Y0346816D01*
X0354629Y0346868D01*
X0354455Y034694D01*
X0354276Y0347025D01*
X0353561Y0347443D01*
X0353301Y0347618D01*
X035326Y0347635D01*
X0353095Y0347762D01*
X0352326Y0348081D01*
X03515Y0348189D01*
X0350675Y0348081D01*
X0349905Y0347762D01*
X0349245Y0347255D01*
X0348738Y0346595D01*
X0348419Y0345826D01*
X034831Y0345D01*
X0348419Y0344175D01*
X0348738Y0343405D01*
X0349183Y0342826D01*
X0349047Y0342325D01*
X0345549D01*
X0344785Y034309D01*
X0344741Y0343155D01*
X0344694Y0343246D01*
X0344654Y0343355D01*
X0344621Y0343486D01*
X0344597Y034364D01*
X0344585Y0343818D01*
X0344587Y034402D01*
X0344604Y0344245D01*
X034464Y0344514D01*
X0344636Y034459D01*
X0344689Y0345D01*
X0344581Y0345826D01*
X0344262Y0346595D01*
X0343755Y0347255D01*
X0343095Y0347762D01*
X0342325Y0348081D01*
X03415Y0348189D01*
X0340674Y0348081D01*
X0339905Y0347762D01*
X0339245Y0347255D01*
X0338738Y0346595D01*
X0338419Y0345826D01*
X0338311Y0345D01*
X0338419Y0344175D01*
X0338738Y0343405D01*
X0339245Y0342745D01*
X0339905Y0342238D01*
X0340674Y0341919D01*
X0340978Y0341879D01*
X0341044Y0341855D01*
X034136Y0341806D01*
X034163Y0341754D01*
X0342126Y034163D01*
X0342315Y0341567D01*
X0342485Y03415D01*
X0342626Y0341433D01*
X0342737Y0341369D01*
X0342803Y0341323D01*
X03438Y0340325D01*
X0343593Y0339826D01*
X0330049D01*
X0325826Y0344049D01*
Y0352914D01*
X0325725Y0353421D01*
X0325437Y0353852D01*
X032257Y0356719D01*
X0322498Y035683D01*
X0322417Y0356989D01*
X0322335Y0357195D01*
X0322255Y0357446D01*
X0322183Y0357724D01*
X0321994Y0358887D01*
X0321984Y0358999D01*
X0321984Y0359D01*
X0321983Y0359004D01*
X0321951Y035934D01*
X032193Y0359409D01*
X0321848Y0360031D01*
X032145Y0360992D01*
X0320817Y0361817D01*
X0319992Y036245D01*
X0319031Y0362848D01*
X0318Y0362984D01*
X0316969Y0362848D01*
X0316008Y036245D01*
X0315183Y0361817D01*
X031455Y0360992D01*
X0314152Y0360031D01*
X0314016Y0359D01*
X0314152Y0357969D01*
X031455Y0357008D01*
X0315183Y0356183D01*
X0316008Y035555D01*
X0316969Y0355152D01*
X0318Y0355016D01*
X0318327Y0355059D01*
X0318374Y0355053D01*
X0319197Y0355104D01*
X0319525Y03551D01*
X0319824Y0355078D01*
X0320086Y035504D01*
X0320309Y0354988D01*
X0320492Y0354927D01*
X0320638Y0354859D01*
X032075Y0354789D01*
X032076Y0354779D01*
X0323175Y0352365D01*
Y03435D01*
X0323275Y0342993D01*
X0323563Y0342563D01*
X0328563Y0337563D01*
X0328993Y0337275D01*
X03295Y0337175D01*
X0373641D01*
Y0334326D01*
X03625D01*
X0361993Y0334225D01*
X0361563Y0333937D01*
X0354295Y032667D01*
X0353796Y0326702D01*
X0353755Y0326755D01*
X0353095Y0327262D01*
X0352326Y0327581D01*
X03515Y032769D01*
X0350675Y0327581D01*
X0349905Y0327262D01*
X0349245Y0326755D01*
X0348738Y0326095D01*
X0348419Y0325325D01*
X034831Y03245D01*
X0348419Y0323675D01*
X0348738Y0322905D01*
X0349245Y0322245D01*
X0349905Y0321738D01*
X0350675Y0321419D01*
X03515Y032131D01*
X0352326Y0321419D01*
X0353095Y0321738D01*
X0353755Y0322245D01*
X0354262Y0322905D01*
X0354581Y0323675D01*
X0354581Y0323675D01*
X0354988Y0323756D01*
X0355418Y0324044D01*
X0363049Y0331675D01*
X0376435D01*
X037662Y0331174D01*
X0376304Y0330702D01*
X0376165Y033D01*
X0376304Y0329298D01*
X0376702Y0328702D01*
X0377298Y0328304D01*
X0378Y0328165D01*
X0378702Y0328304D01*
X0379248Y0328669D01*
X0379264Y0328672D01*
X0379298Y0328675D01*
X038668D01*
X0389089Y0326266D01*
X0389112Y0326152D01*
X0389477Y0325606D01*
X0390022Y0325241D01*
X0390666Y0325113D01*
X039131Y0325241D01*
X0391856Y0325606D01*
X039222Y0326152D01*
X0392349Y0326796D01*
X039222Y0327439D01*
X0392171Y0327514D01*
X0392438Y0328014D01*
X0396616D01*
Y0334732D01*
X0390842D01*
X0390823Y0334735D01*
X0390805Y0334732D01*
X0390016D01*
Y0334326D01*
X0389359D01*
Y03408D01*
X0382641D01*
Y0334326D01*
X0380359D01*
Y03408D01*
X0373641D01*
Y0339826D01*
X0360407D01*
X03602Y0340325D01*
X0362049Y0342175D01*
X0394475D01*
Y0340634D01*
X0401075D01*
Y0347352D01*
X0394475D01*
Y0344826D01*
X038105D01*
X0380859Y0345287D01*
X038522Y0349649D01*
X038539Y0349807D01*
X0385525Y0349916D01*
X0385565Y0349944D01*
X03903D01*
Y0351978D01*
X0391912D01*
X0391923Y0351976D01*
X0391949Y0351972D01*
X0392495Y0351607D01*
X0393197Y0351468D01*
X0393899Y0351607D01*
X0394034Y0351698D01*
X0394475Y0351462D01*
Y0349634D01*
X0401075D01*
Y0356174D01*
X04115D01*
X0412007Y0356275D01*
X0412437Y0356563D01*
X0413453Y0357579D01*
X0413616Y0357505D01*
X0413824Y0357389D01*
X0414051Y0357238D01*
X0414287Y0357058D01*
X0414834Y0356567D01*
X0415088Y0356308D01*
X0415183Y0356183D01*
X0416008Y035555D01*
X0416969Y0355152D01*
X0418Y0355016D01*
X0419031Y0355152D01*
X0419992Y035555D01*
X0420817Y0356183D01*
X042145Y0357008D01*
X0421848Y0357969D01*
X0421984Y0359D01*
X0421848Y0360031D01*
X042145Y0360992D01*
X0420817Y0361817D01*
X0419992Y036245D01*
X0419031Y0362848D01*
X0418Y0362984D01*
X0416969Y0362848D01*
X0416008Y036245D01*
X0415183Y0361817D01*
X0415093Y0361699D01*
X0414547Y0361163D01*
X0414295Y0360948D01*
X0414051Y0360762D01*
X0413824Y0360611D01*
X0413616Y0360494D01*
X0413428Y036041D01*
X0413264Y0360356D01*
X0413122Y0360326D01*
X0413109Y0360326D01*
X0413D01*
X0412493Y0360225D01*
X04122Y0360029D01*
X04117Y0360226D01*
Y0365567D01*
X0409726D01*
Y0367027D01*
X0411143D01*
Y0371973D01*
D02*
G37*
G36*
X0370182D02*
X0363857D01*
Y0367027D01*
X0365694D01*
Y0365418D01*
X0362621D01*
Y03587D01*
X0369221D01*
Y0365418D01*
X0368345D01*
Y0367027D01*
X0370182D01*
Y0371973D01*
D02*
G37*
G36*
X03515Y0368689D02*
X0350675Y0368581D01*
X0349905Y0368262D01*
X0349245Y0367755D01*
X0348738Y0367095D01*
X0348419Y0366325D01*
X034831Y03655D01*
X0348419Y0364674D01*
X0348738Y0363905D01*
X0349245Y0363245D01*
X0349303Y03632D01*
X0349645Y0362834D01*
X0349784Y0362662D01*
X0349904Y0362493D01*
X0350001Y0362337D01*
X0350074Y0362194D01*
X0350126Y0362067D01*
X035016Y0361955D01*
X0350174Y0361874D01*
Y0353271D01*
X0350224Y035302D01*
X0350232Y0352839D01*
X0350165Y03525D01*
X0350304Y0351798D01*
X0350702Y0351202D01*
X0351298Y0350804D01*
X0352Y0350665D01*
X0352702Y0350804D01*
X0353298Y0351202D01*
X0353696Y0351798D01*
X0353835Y03525D01*
X0353696Y0353202D01*
X0353298Y0353798D01*
X0352825Y0354113D01*
Y0361874D01*
X035284Y0361955D01*
X0352874Y0362067D01*
X0352926Y0362194D01*
X0352999Y0362337D01*
X0353096Y0362493D01*
X0353209Y0362653D01*
X0353537Y0363039D01*
X0353688Y0363193D01*
X0353755Y0363245D01*
X0354262Y0363905D01*
X0354581Y0364674D01*
X035469Y03655D01*
X0354581Y0366325D01*
X0354262Y0367095D01*
X0353755Y0367755D01*
X0353095Y0368262D01*
X0352326Y0368581D01*
X03515Y0368689D01*
D02*
G37*
G36*
X0369221Y0356418D02*
X0362621D01*
Y03497D01*
X0369221D01*
Y0356418D01*
D02*
G37*
G36*
X0418Y0352984D02*
X0416969Y0352848D01*
X0416008Y035245D01*
X0415183Y0351817D01*
X041455Y0350992D01*
X0414152Y0350031D01*
X0414016Y0349D01*
X0414152Y0347969D01*
X041455Y0347008D01*
X0415183Y0346183D01*
X0416008Y034555D01*
X0416969Y0345152D01*
X0418Y0345016D01*
X0419031Y0345152D01*
X0419992Y034555D01*
X0420817Y0346183D01*
X042145Y0347008D01*
X0421848Y0347969D01*
X0421984Y0349D01*
X0421848Y0350031D01*
X042145Y0350992D01*
X0420817Y0351817D01*
X0419992Y035245D01*
X0419031Y0352848D01*
X0418Y0352984D01*
D02*
G37*
G36*
X03315Y0348189D02*
X0330675Y0348081D01*
X0329905Y0347762D01*
X0329245Y0347255D01*
X0328738Y0346595D01*
X0328419Y0345826D01*
X032831Y0345D01*
X0328419Y0344175D01*
X0328738Y0343405D01*
X0329245Y0342745D01*
X0329905Y0342238D01*
X0330675Y0341919D01*
X03315Y034181D01*
X0332326Y0341919D01*
X0333095Y0342238D01*
X0333755Y0342745D01*
X0334262Y0343405D01*
X0334581Y0344175D01*
X0334689Y0345D01*
X0334581Y0345826D01*
X0334262Y0346595D01*
X0333755Y0347255D01*
X0333095Y0347762D01*
X0332326Y0348081D01*
X03315Y0348189D01*
D02*
G37*
G36*
X0418Y0342984D02*
X0416969Y0342848D01*
X0416008Y034245D01*
X0415183Y0341817D01*
X041455Y0340992D01*
X0414152Y0340031D01*
X0414016Y0339D01*
X0414034Y0338864D01*
X0414032Y0338537D01*
X0413982Y0337765D01*
X0413939Y0337455D01*
X0413883Y0337175D01*
X0413818Y0336937D01*
X0413747Y0336741D01*
X0413672Y0336588D01*
X04136Y0336475D01*
X0413596Y033647D01*
X0412063Y0334937D01*
X0411775Y0334507D01*
X0411674Y0334D01*
Y031234D01*
X041018Y0310845D01*
X041001Y0310687D01*
X0409875Y0310578D01*
X0409835Y031055D01*
X04051D01*
Y0303832D01*
X04117D01*
Y0308561D01*
X0411735Y0308611D01*
X0411961Y0308877D01*
X041355Y0310467D01*
X041405Y0310259D01*
Y030505D01*
X042195D01*
Y031295D01*
X0414326D01*
Y0316479D01*
X0414825Y0316649D01*
X0415183Y0316183D01*
X0416008Y031555D01*
X0416969Y0315152D01*
X0418Y0315016D01*
X0419031Y0315152D01*
X0419992Y031555D01*
X0420817Y0316183D01*
X042145Y0317008D01*
X0421848Y0317969D01*
X0421984Y0319D01*
X0421848Y0320031D01*
X042145Y0320992D01*
X0420817Y0321817D01*
X0419992Y032245D01*
X0419031Y0322848D01*
X0418Y0322984D01*
X0416969Y0322848D01*
X0416008Y032245D01*
X0415183Y0321817D01*
X0414825Y0321351D01*
X0414326Y032152D01*
Y0333451D01*
X041547Y0334596D01*
X0415475Y03346D01*
X0415588Y0334672D01*
X0415741Y0334747D01*
X0415937Y0334818D01*
X0416175Y0334883D01*
X0416455Y0334939D01*
X0416765Y0334982D01*
X0417537Y0335032D01*
X0417864Y0335034D01*
X0418Y0335016D01*
X0419031Y0335152D01*
X0419992Y033555D01*
X0420817Y0336183D01*
X042145Y0337008D01*
X0421848Y0337969D01*
X0421984Y0339D01*
X0421848Y0340031D01*
X042145Y0340992D01*
X0420817Y0341817D01*
X0419992Y034245D01*
X0419031Y0342848D01*
X0418Y0342984D01*
D02*
G37*
G36*
X0318D02*
X0316969Y0342848D01*
X0316008Y034245D01*
X0315183Y0341817D01*
X031455Y0340992D01*
X0314152Y0340031D01*
X0314016Y0339D01*
X0314152Y0337969D01*
X031455Y0337008D01*
X0315183Y0336183D01*
X0316008Y033555D01*
X0316969Y0335152D01*
X0318Y0335016D01*
X0319031Y0335152D01*
X0319992Y033555D01*
X0320817Y0336183D01*
X032145Y0337008D01*
X0321848Y0337969D01*
X0321984Y0339D01*
X0321848Y0340031D01*
X032145Y0340992D01*
X0320817Y0341817D01*
X0319992Y034245D01*
X0319031Y0342848D01*
X0318Y0342984D01*
D02*
G37*
G36*
Y0332984D02*
X0316969Y0332848D01*
X0316008Y033245D01*
X0315183Y0331817D01*
X031455Y0330992D01*
X0314152Y0330031D01*
X0314016Y0329D01*
X0314152Y0327969D01*
X031455Y0327008D01*
X0315183Y0326183D01*
X0316008Y032555D01*
X0316969Y0325152D01*
X0318Y0325016D01*
X0319031Y0325152D01*
X0319992Y032555D01*
X0320817Y0326183D01*
X032145Y0327008D01*
X0321848Y0327969D01*
X0321984Y0329D01*
X0321848Y0330031D01*
X032145Y0330992D01*
X0320817Y0331817D01*
X0319992Y033245D01*
X0319031Y0332848D01*
X0318Y0332984D01*
D02*
G37*
G36*
X03415Y032769D02*
X0340674Y0327581D01*
X0339905Y0327262D01*
X0339245Y0326755D01*
X0338738Y0326095D01*
X0338419Y0325325D01*
X0338311Y03245D01*
X0338419Y0323675D01*
X0338738Y0322905D01*
X0339245Y0322245D01*
X0339905Y0321738D01*
X0340674Y0321419D01*
X03415Y032131D01*
X0342325Y0321419D01*
X0343095Y0321738D01*
X0343755Y0322245D01*
X0344262Y0322905D01*
X0344581Y0323675D01*
X0344689Y03245D01*
X0344581Y0325325D01*
X0344262Y0326095D01*
X0343755Y0326755D01*
X0343095Y0327262D01*
X0342325Y0327581D01*
X03415Y032769D01*
D02*
G37*
G36*
X03315D02*
X0330675Y0327581D01*
X0329905Y0327262D01*
X0329245Y0326755D01*
X0328738Y0326095D01*
X0328419Y0325325D01*
X032831Y03245D01*
X0328419Y0323675D01*
X0328738Y0322905D01*
X0329245Y0322245D01*
X0329905Y0321738D01*
X0330675Y0321419D01*
X03315Y032131D01*
X0332326Y0321419D01*
X0333095Y0321738D01*
X0333755Y0322245D01*
X0334262Y0322905D01*
X0334581Y0323675D01*
X0334689Y03245D01*
X0334581Y0325325D01*
X0334262Y0326095D01*
X0333755Y0326755D01*
X0333095Y0327262D01*
X0332326Y0327581D01*
X03315Y032769D01*
D02*
G37*
G36*
X0376859Y03273D02*
X0370141D01*
Y0322849D01*
X0370139Y0322842D01*
X0370141Y0322827D01*
Y0322486D01*
X0370123Y032246D01*
X0369888Y0322184D01*
X0368327Y0320623D01*
X0368288Y0320642D01*
X0368288Y0320642D01*
X0367859Y0320862D01*
X0367859Y0321133D01*
Y03273D01*
X0361141D01*
Y0322128D01*
X0361116Y0322D01*
Y032149D01*
X0345451Y0305825D01*
X0345126D01*
X0345045Y030584D01*
X0344933Y0305874D01*
X0344806Y0305926D01*
X0344663Y0305999D01*
X0344507Y0306096D01*
X0344347Y0306209D01*
X0343961Y0306537D01*
X0343807Y0306688D01*
X0343755Y0306755D01*
X0343095Y0307262D01*
X0342325Y0307581D01*
X03415Y0307689D01*
X0340674Y0307581D01*
X0339905Y0307262D01*
X0339245Y0306755D01*
X0338738Y0306095D01*
X0338419Y0305326D01*
X0338311Y03045D01*
X0338419Y0303675D01*
X0338738Y0302905D01*
X0339245Y0302245D01*
X0339905Y0301738D01*
X0340674Y0301419D01*
X03415Y030131D01*
X0342325Y0301419D01*
X0343095Y0301738D01*
X0343755Y0302245D01*
X03438Y0302303D01*
X0344166Y0302645D01*
X0344338Y0302784D01*
X0344507Y0302905D01*
X0344663Y0303001D01*
X0344806Y0303074D01*
X0344933Y0303126D01*
X0345045Y030316D01*
X0345126Y0303174D01*
X0346D01*
X0346507Y0303275D01*
X0346937Y0303563D01*
X0347817Y0304442D01*
X0348342Y030426D01*
X0348419Y0303675D01*
X0348738Y0302905D01*
X0349245Y0302245D01*
X0349905Y0301738D01*
X0350675Y0301419D01*
X03515Y030131D01*
X0352326Y0301419D01*
X0353095Y0301738D01*
X0353755Y0302245D01*
X0354262Y0302905D01*
X0354581Y0303675D01*
X035469Y03045D01*
X0354581Y0305326D01*
X0354262Y0306095D01*
X0353755Y0306755D01*
X0353095Y0307262D01*
X0352326Y0307581D01*
X035174Y0307658D01*
X0351558Y0308183D01*
X0355225Y031185D01*
X0355685Y0311604D01*
X0355665Y03115D01*
X0355804Y0310798D01*
X0356202Y0310202D01*
X0356798Y0309804D01*
X03575Y0309665D01*
X0358202Y0309804D01*
X0358748Y0310169D01*
X0358764Y0310172D01*
X0358798Y0310174D01*
X0362779D01*
Y0304082D01*
X0365194D01*
Y0302473D01*
X0363357D01*
Y0297527D01*
X0369682D01*
Y0302473D01*
X0367845D01*
Y0304082D01*
X0369379D01*
Y0310174D01*
X03722D01*
Y0303641D01*
X03788D01*
Y0305675D01*
X0390715D01*
X0390726Y0305673D01*
X0390752Y0305669D01*
X0391298Y0305304D01*
X0392Y0305165D01*
X0392702Y0305304D01*
X0393298Y0305702D01*
X0393696Y0306298D01*
X0393835Y0307D01*
X0393696Y0307702D01*
X0393298Y0308298D01*
X0392702Y0308696D01*
X0392Y0308835D01*
X0391298Y0308696D01*
X0390752Y0308331D01*
X0390736Y0308328D01*
X0390702Y0308326D01*
X03788D01*
Y0310174D01*
X0392752D01*
X0394069Y0308857D01*
X0394222Y0308693D01*
X0394328Y0308561D01*
X039437Y0308502D01*
Y0303773D01*
X040097D01*
Y0310491D01*
X0396235D01*
X0396204Y0310513D01*
X0395931Y0310745D01*
X0394403Y0312273D01*
X039461Y0312772D01*
X0394796Y0312773D01*
X040097D01*
Y0319491D01*
X039437D01*
Y0313185D01*
X039437Y0312951D01*
X039392Y031265D01*
X0393808Y0312725D01*
X0393301Y0312825D01*
X0369773D01*
X0369379Y0313082D01*
X0369379Y0313326D01*
Y0317873D01*
X0369407Y0317913D01*
X0369636Y0318183D01*
X0371619Y0320165D01*
X0371993Y0320495D01*
X0372154Y0320617D01*
X037228Y03207D01*
X0376859D01*
Y0322175D01*
X0377757D01*
X0377768Y0322173D01*
X0377794Y0322169D01*
X037834Y0321804D01*
X0379042Y0321665D01*
X0379745Y0321804D01*
X038034Y0322202D01*
X0380738Y0322798D01*
X0380877Y03235D01*
X0380738Y0324202D01*
X038034Y0324798D01*
X0379745Y0325196D01*
X0379042Y0325335D01*
X037834Y0325196D01*
X0377794Y0324831D01*
X0377778Y0324828D01*
X0377745Y0324826D01*
X0376859D01*
Y03273D01*
D02*
G37*
G36*
X032195Y031295D02*
X031405D01*
Y030505D01*
X032195D01*
Y031295D01*
D02*
G37*
G36*
X03315Y0307689D02*
X0330675Y0307581D01*
X0329905Y0307262D01*
X0329245Y0306755D01*
X0328738Y0306095D01*
X0328419Y0305326D01*
X032831Y03045D01*
X0328419Y0303675D01*
X0328738Y0302905D01*
X0329245Y0302245D01*
X0329905Y0301738D01*
X0330675Y0301419D01*
X03315Y030131D01*
X0332326Y0301419D01*
X0333095Y0301738D01*
X0333755Y0302245D01*
X0334262Y0302905D01*
X0334581Y0303675D01*
X0334689Y03045D01*
X0334581Y0305326D01*
X0334262Y0306095D01*
X0333755Y0306755D01*
X0333095Y0307262D01*
X0332326Y0307581D01*
X03315Y0307689D01*
D02*
G37*
G36*
X0396682Y0302473D02*
X0390357D01*
Y0297527D01*
X0396682D01*
Y0302473D01*
D02*
G37*
%LPD*%
G36*
X0409305Y0367841D02*
X040922Y036781D01*
X0409145Y036776D01*
X040908Y0367689D01*
X0409025Y0367598D01*
X040898Y0367487D01*
X0408945Y0367355D01*
X040892Y0367203D01*
X0408905Y0367031D01*
X04089Y0366839D01*
X04079D01*
X0407895Y0367031D01*
X040788Y0367203D01*
X0407855Y0367355D01*
X040782Y0367487D01*
X0407775Y0367598D01*
X040772Y0367689D01*
X0407655Y036776D01*
X040758Y036781D01*
X0407495Y0367841D01*
X04074Y0367851D01*
X04094D01*
X0409305Y0367841D01*
D02*
G37*
G36*
X0408905Y0365563D02*
X040892Y036539D01*
X0408945Y0365239D01*
X040898Y0365107D01*
X0409025Y0364996D01*
X040908Y0364905D01*
X0409145Y0364834D01*
X040922Y0364783D01*
X0409305Y0364753D01*
X04094Y0364743D01*
X04074D01*
X0407495Y0364753D01*
X040758Y0364783D01*
X0407655Y0364834D01*
X040772Y0364905D01*
X0407775Y0364996D01*
X040782Y0365107D01*
X0407855Y0365239D01*
X040788Y036539D01*
X0407895Y0365563D01*
X04079Y0365755D01*
X04089D01*
X0408905Y0365563D01*
D02*
G37*
G36*
X0408902Y0363566D02*
X0408918Y0363373D01*
X0408932Y0363287D01*
X040895Y0363208D01*
X0408972Y0363136D01*
X0408998Y0363072D01*
X0409028Y0363015D01*
X0409062Y0362965D01*
X04091Y0362922D01*
X04077D01*
X0407738Y0362965D01*
X0407772Y0363015D01*
X0407802Y0363072D01*
X0407828Y0363136D01*
X040785Y0363208D01*
X0407868Y0363287D01*
X0407882Y0363373D01*
X0407892Y0363466D01*
X04079Y0363674D01*
X04089D01*
X0408902Y0363566D01*
D02*
G37*
G36*
X0377507Y036195D02*
X0377519Y0361891D01*
X0377538Y0361829D01*
X0377565Y0361765D01*
X03776Y0361699D01*
X0377643Y0361631D01*
X0377694Y036156D01*
X0377753Y0361487D01*
X0377894Y0361334D01*
X0377187Y0360627D01*
X0377109Y0360702D01*
X0376961Y0360827D01*
X037689Y0360878D01*
X0376822Y0360921D01*
X0376756Y0360956D01*
X0376692Y0360983D01*
X037663Y0361003D01*
X0376571Y0361014D01*
X0376514Y0361017D01*
X0377504Y0362007D01*
X0377507Y036195D01*
D02*
G37*
G36*
X0378927Y0360864D02*
X0378902Y0360771D01*
X0378905Y0360664D01*
X0378935Y0360543D01*
X0378993Y0360409D01*
X0379079Y0360261D01*
X0379192Y0360099D01*
X0379333Y0359923D01*
X0379699Y0359529D01*
X0379051Y0358763D01*
X0378842Y0358965D01*
X0378469Y0359282D01*
X0378306Y0359397D01*
X0378157Y0359484D01*
X0378023Y0359541D01*
X0377904Y035957D01*
X03778Y035957D01*
X0377711Y035954D01*
X0377637Y0359482D01*
X037898Y0360944D01*
X0378927Y0360864D01*
D02*
G37*
G36*
X0415707Y0356841D02*
X0415399Y0357156D01*
X0414807Y0357687D01*
X0414524Y0357903D01*
X0414249Y0358085D01*
X0413983Y0358235D01*
X0413725Y0358351D01*
X0413475Y0358434D01*
X0413234Y0358483D01*
X0413001Y03585D01*
Y03595D01*
X0413234Y0359517D01*
X0413475Y0359566D01*
X0413725Y0359649D01*
X0413983Y0359765D01*
X0414249Y0359915D01*
X0414524Y0360097D01*
X0414807Y0360313D01*
X0415099Y0360562D01*
X0415707Y0361159D01*
Y0356841D01*
D02*
G37*
G36*
X0321185Y0358782D02*
X0321384Y0357557D01*
X0321471Y035722D01*
X0321567Y0356919D01*
X0321673Y0356653D01*
X032179Y0356423D01*
X0321916Y0356228D01*
X0322052Y0356069D01*
X0321412Y0355295D01*
X0321236Y0355446D01*
X032103Y0355576D01*
X0320795Y0355686D01*
X032053Y0355774D01*
X0320236Y0355842D01*
X0319913Y0355889D01*
X031956Y0355915D01*
X0319177Y035592D01*
X0318324Y0355867D01*
X0321139Y0359261D01*
X0321185Y0358782D01*
D02*
G37*
G36*
X0392483Y0352603D02*
X039244Y0352641D01*
X039239Y0352675D01*
X0392333Y0352705D01*
X0392268Y0352731D01*
X0392197Y0352753D01*
X0392118Y0352771D01*
X0392032Y0352785D01*
X0391939Y0352795D01*
X0391731Y0352803D01*
Y0353803D01*
X0391839Y0353805D01*
X0392032Y0353821D01*
X0392118Y0353835D01*
X0392197Y0353853D01*
X0392268Y0353875D01*
X0392333Y0353901D01*
X039239Y0353931D01*
X039244Y0353965D01*
X0392483Y0354003D01*
Y0352603D01*
D02*
G37*
G36*
X0389498Y0354208D02*
X0389528Y0354123D01*
X0389578Y0354048D01*
X0389648Y0353983D01*
X0389738Y0353928D01*
X0389848Y0353883D01*
X0389978Y0353848D01*
X0390128Y0353823D01*
X0390298Y0353808D01*
X0390488Y0353803D01*
Y0352803D01*
X0390298Y0352798D01*
X0390128Y0352783D01*
X0389978Y0352758D01*
X0389848Y0352723D01*
X0389738Y0352678D01*
X0389648Y0352623D01*
X0389578Y0352558D01*
X0389528Y0352483D01*
X0389498Y0352398D01*
X0389488Y0352303D01*
Y0354303D01*
X0389498Y0354208D01*
D02*
G37*
G36*
X0385867Y0350768D02*
X0385793Y0350826D01*
X0385704Y0350855D01*
X03856Y0350855D01*
X0385481Y0350827D01*
X0385347Y0350769D01*
X0385198Y0350683D01*
X0385034Y0350568D01*
X0384856Y0350424D01*
X0384453Y0350049D01*
X0383805Y0350815D01*
X0384001Y0351019D01*
X0384312Y0351384D01*
X0384425Y0351546D01*
X0384511Y0351695D01*
X0384569Y0351829D01*
X0384599Y035195D01*
X0384602Y0352057D01*
X0384577Y035215D01*
X0384524Y0352229D01*
X0385867Y0350768D01*
D02*
G37*
G36*
X0353127Y0346752D02*
X0353894Y0346304D01*
X0354124Y0346194D01*
X0354341Y0346104D01*
X0354546Y0346035D01*
X0354737Y0345985D01*
X0354916Y0345955D01*
X0355082Y0345945D01*
X0355279Y0344945D01*
X0355084Y0344932D01*
X0354893Y0344895D01*
X0354704Y0344832D01*
X0354519Y0344745D01*
X0354336Y0344632D01*
X0354156Y0344495D01*
X035398Y0344332D01*
X0353806Y0344144D01*
X0353636Y0343932D01*
X0353468Y0343694D01*
X0352845Y0346942D01*
X0353127Y0346752D01*
D02*
G37*
G36*
X0395287Y03425D02*
X0395277Y0342595D01*
X0395247Y034268D01*
X0395197Y0342755D01*
X0395127Y034282D01*
X0395037Y0342875D01*
X0394927Y034292D01*
X0394797Y0342955D01*
X0394647Y034298D01*
X0394477Y0342995D01*
X0394287Y0343D01*
Y0344D01*
X0394477Y0344005D01*
X0394647Y034402D01*
X0394797Y0344045D01*
X0394927Y034408D01*
X0395037Y0344125D01*
X0395127Y034418D01*
X0395197Y0344245D01*
X0395247Y034432D01*
X0395277Y0344405D01*
X0395287Y03445D01*
Y03425D01*
D02*
G37*
G36*
X0343793Y034433D02*
X0343772Y0344054D01*
X034377Y0343794D01*
X0343786Y0343551D01*
X0343821Y0343323D01*
X0343874Y0343113D01*
X0343946Y0342919D01*
X0344036Y0342741D01*
X0344145Y0342579D01*
X0344273Y0342434D01*
X0343456Y0341837D01*
X0343328Y034195D01*
X0343178Y0342057D01*
X0343005Y0342156D01*
X034281Y0342249D01*
X0342593Y0342335D01*
X0342353Y0342414D01*
X0341806Y0342551D01*
X0341499Y034261D01*
X034117Y0342661D01*
X0343832Y0344623D01*
X0343793Y034433D01*
D02*
G37*
G36*
X0374465Y03375D02*
X0374455Y0337595D01*
X0374425Y033768D01*
X0374374Y0337755D01*
X0374303Y033782D01*
X0374212Y0337875D01*
X0374101Y033792D01*
X0373969Y0337955D01*
X0373817Y033798D01*
X0373645Y0337995D01*
X0373453Y0338D01*
Y0339D01*
X0373645Y0339005D01*
X0373817Y033902D01*
X0373969Y0339045D01*
X0374101Y033908D01*
X0374212Y0339125D01*
X0374303Y033918D01*
X0374374Y0339245D01*
X0374425Y033932D01*
X0374455Y0339405D01*
X0374465Y03395D01*
Y03375D01*
D02*
G37*
G36*
X039084Y0332D02*
X0390829Y0332095D01*
X0390798Y033218D01*
X0390747Y0332255D01*
X0390676Y033232D01*
X0390585Y0332375D01*
X0390474Y033242D01*
X0390342Y0332455D01*
X0390191Y033248D01*
X0390019Y0332495D01*
X0389828Y03325D01*
Y03335D01*
X0390018Y0333504D01*
X0390338Y0333538D01*
X0390468Y0333567D01*
X0390578Y0333605D01*
X0390668Y0333651D01*
X0390738Y0333706D01*
X0390788Y0333769D01*
X0390818Y033384D01*
X0390828Y033392D01*
X039084Y0332D01*
D02*
G37*
G36*
X039271Y0332688D02*
X0392858Y0332563D01*
X0392929Y0332512D01*
X0392997Y0332469D01*
X0393064Y0332434D01*
X0393127Y0332407D01*
X0393189Y0332387D01*
X0393249Y0332376D01*
X0393306Y0332373D01*
X0392316Y0331383D01*
X0392312Y033144D01*
X0392301Y0331499D01*
X0392282Y0331561D01*
X0392255Y0331625D01*
X039222Y0331691D01*
X0392177Y0331759D01*
X0392126Y033183D01*
X0392067Y0331903D01*
X0391926Y0332056D01*
X0392633Y0332763D01*
X039271Y0332688D01*
D02*
G37*
G36*
X0378757Y0330662D02*
X0378807Y0330628D01*
X0378864Y0330598D01*
X0378928Y0330572D01*
X0379Y033055D01*
X0379079Y0330532D01*
X0379165Y0330518D01*
X0379258Y0330508D01*
X0379466Y03305D01*
Y03295D01*
X0379358Y0329498D01*
X0379165Y0329482D01*
X0379079Y0329468D01*
X0379Y032945D01*
X0378928Y0329428D01*
X0378864Y0329402D01*
X0378807Y0329372D01*
X0378757Y0329338D01*
X0378714Y03293D01*
Y03307D01*
X0378757Y0330662D01*
D02*
G37*
G36*
X0390059Y032788D02*
X0390239Y0327727D01*
X0390291Y0327692D01*
X039034Y0327663D01*
X0390384Y0327643D01*
X0390424Y032763D01*
X0390461Y0327625D01*
X0390493Y0327628D01*
X0389831Y032664D01*
X0389825Y0326655D01*
X0389812Y0326677D01*
X0389792Y0326704D01*
X0389732Y0326777D01*
X038959Y032693D01*
X0389461Y0327061D01*
X0389991Y0327946D01*
X0390059Y032788D01*
D02*
G37*
G36*
X0353559Y0325672D02*
X0353608Y0325632D01*
X035367Y0325597D01*
X0353746Y0325566D01*
X0353835Y032554D01*
X0353937Y0325519D01*
X0354053Y0325502D01*
X0354325Y0325483D01*
X0354481Y0325481D01*
Y0324481D01*
X0354366Y0324478D01*
X0354263Y0324469D01*
X0354171Y0324455D01*
X035409Y0324434D01*
X0354021Y0324408D01*
X0353962Y0324377D01*
X0353916Y0324339D01*
X035388Y0324295D01*
X0353855Y0324246D01*
X0353842Y0324191D01*
X0353524Y0325717D01*
X0353559Y0325672D01*
D02*
G37*
G36*
X0367682Y0368743D02*
X0367648Y0368693D01*
X0367618Y0368636D01*
X0367592Y0368571D01*
X036757Y03685D01*
X0367552Y0368421D01*
X0367538Y0368335D01*
X0367528Y0368242D01*
X036752Y0368034D01*
X036652D01*
X0366518Y0368142D01*
X0366502Y0368335D01*
X0366488Y0368421D01*
X036647Y03685D01*
X0366448Y0368571D01*
X0366422Y0368636D01*
X0366392Y0368693D01*
X0366358Y0368743D01*
X036632Y0368786D01*
X036772D01*
X0367682Y0368743D01*
D02*
G37*
G36*
X0367925Y0367829D02*
X036784Y0367799D01*
X0367765Y0367749D01*
X03677Y0367679D01*
X0367645Y0367589D01*
X03676Y0367479D01*
X0367565Y0367349D01*
X036754Y0367199D01*
X0367525Y0367029D01*
X036752Y0366839D01*
X036652D01*
X0366515Y0367029D01*
X03665Y0367199D01*
X0366475Y0367349D01*
X036644Y0367479D01*
X0366395Y0367589D01*
X036634Y0367679D01*
X0366275Y0367749D01*
X03662Y0367799D01*
X0366115Y0367829D01*
X036602Y0367839D01*
X036802D01*
X0367925Y0367829D01*
D02*
G37*
G36*
X0367525Y0365414D02*
X036754Y0365242D01*
X0367565Y036509D01*
X03676Y0364958D01*
X0367645Y0364847D01*
X03677Y0364756D01*
X0367765Y0364685D01*
X036784Y0364634D01*
X0367925Y0364604D01*
X036802Y0364594D01*
X036602D01*
X0366115Y0364604D01*
X03662Y0364634D01*
X0366275Y0364685D01*
X036634Y0364756D01*
X0366395Y0364847D01*
X036644Y0364958D01*
X0366475Y036509D01*
X03665Y0365242D01*
X0366515Y0365414D01*
X036652Y0365606D01*
X036752D01*
X0367525Y0365414D01*
D02*
G37*
G36*
X0352934Y0363589D02*
X0352565Y0363155D01*
X0352415Y0362944D01*
X0352288Y0362738D01*
X0352185Y0362536D01*
X0352104Y0362339D01*
X0352046Y0362146D01*
X0352011Y0361958D01*
X0352Y0361774D01*
X0351D01*
X0350989Y0361958D01*
X0350954Y0362146D01*
X0350896Y0362339D01*
X0350815Y0362536D01*
X0350712Y0362738D01*
X0350585Y0362944D01*
X0350435Y0363155D01*
X0350262Y036337D01*
X0349847Y0363813D01*
X0353153D01*
X0352934Y0363589D01*
D02*
G37*
G36*
X0352003Y0353992D02*
X035201Y0353893D01*
X0352022Y0353805D01*
X035204Y0353727D01*
X0352062Y0353658D01*
X035209Y03536D01*
X0352122Y0353552D01*
X035216Y0353514D01*
X0352202Y0353486D01*
X0352249Y0353468D01*
X035105Y0352812D01*
X0351Y0353966D01*
X0352Y03541D01*
X0352003Y0353992D01*
D02*
G37*
G36*
X0417969Y0335851D02*
X0417507Y0335847D01*
X0416682Y0335794D01*
X0416319Y0335744D01*
X0415987Y0335678D01*
X0415689Y0335596D01*
X0415422Y0335498D01*
X0415189Y0335385D01*
X0414987Y0335256D01*
X0414818Y0335111D01*
X0414111Y0335818D01*
X0414256Y0335987D01*
X0414385Y0336189D01*
X0414498Y0336422D01*
X0414596Y0336689D01*
X0414678Y0336987D01*
X0414744Y0337319D01*
X0414794Y0337683D01*
X0414848Y0338507D01*
X0414851Y0338968D01*
X0417969Y0335851D01*
D02*
G37*
G36*
X0411595Y0309679D02*
X0411399Y0309475D01*
X0411089Y0309109D01*
X0410975Y0308947D01*
X0410889Y0308799D01*
X0410831Y0308664D01*
X0410801Y0308544D01*
X0410798Y0308437D01*
X0410823Y0308344D01*
X0410876Y0308264D01*
X0409533Y0309726D01*
X0409607Y0309668D01*
X0409696Y0309639D01*
X04098Y0309638D01*
X0409919Y0309667D01*
X0410053Y0309724D01*
X0410202Y0309811D01*
X0410366Y0309926D01*
X0410544Y031007D01*
X0410947Y0310445D01*
X0411595Y0309679D01*
D02*
G37*
G36*
X040979Y0307874D02*
X0409716Y0307796D01*
X040959Y0307648D01*
X0409539Y0307577D01*
X0409496Y0307509D01*
X0409461Y0307443D01*
X0409434Y0307379D01*
X0409415Y0307317D01*
X0409403Y0307258D01*
X04094Y0307201D01*
X040841Y030819D01*
X0408467Y0308194D01*
X0408527Y0308205D01*
X0408588Y0308225D01*
X0408652Y0308252D01*
X0408718Y0308287D01*
X0408787Y030833D01*
X0408857Y0308381D01*
X040893Y0308439D01*
X0409083Y0308581D01*
X040979Y0307874D01*
D02*
G37*
G36*
X0378328Y03228D02*
X0378285Y0322838D01*
X0378235Y0322872D01*
X0378178Y0322902D01*
X0378114Y0322928D01*
X0378042Y032295D01*
X0377963Y0322968D01*
X0377877Y0322982D01*
X0377784Y0322992D01*
X0377576Y0323D01*
Y0324D01*
X0377684Y0324002D01*
X0377877Y0324018D01*
X0377963Y0324032D01*
X0378042Y032405D01*
X0378114Y0324072D01*
X0378178Y0324098D01*
X0378235Y0324128D01*
X0378285Y0324162D01*
X0378328Y03242D01*
Y03228D01*
D02*
G37*
G36*
X0376045Y0324405D02*
X0376076Y032432D01*
X0376126Y0324245D01*
X0376197Y032418D01*
X0376288Y0324125D01*
X0376399Y032408D01*
X0376531Y0324045D01*
X0376683Y032402D01*
X0376855Y0324005D01*
X0377047Y0324D01*
Y0323D01*
X0376855Y0322995D01*
X0376683Y032298D01*
X0376531Y0322955D01*
X0376399Y032292D01*
X0376288Y0322875D01*
X0376197Y032282D01*
X0376126Y0322755D01*
X0376076Y032268D01*
X0376045Y0322595D01*
X0376035Y03225D01*
Y03245D01*
X0376045Y0324405D01*
D02*
G37*
G36*
X0372505Y0321512D02*
X0372417Y0321559D01*
X037231Y0321572D01*
X0372183Y0321551D01*
X0372036Y0321495D01*
X0371869Y0321406D01*
X0371682Y0321283D01*
X0371476Y0321126D01*
X0371003Y032071D01*
X0370737Y0320451D01*
X0370246Y0321374D01*
X037045Y0321585D01*
X0370769Y0321961D01*
X0370885Y0322126D01*
X037097Y0322275D01*
X0371026Y0322409D01*
X0371052Y0322527D01*
X0371049Y032263D01*
X0371016Y0322717D01*
X0370953Y0322788D01*
X0372505Y0321512D01*
D02*
G37*
G36*
X0362999Y0321506D02*
X0362986Y0321489D01*
X0362976Y0321461D01*
X0362966Y0321421D01*
X0362959Y0321369D01*
X0362947Y0321232D01*
X0362941Y0320941D01*
X0361941D01*
X0361953Y0321512D01*
X0363012D01*
X0362999Y0321506D01*
D02*
G37*
G36*
X0369274Y0318988D02*
X0369075Y0318782D01*
X0368761Y0318413D01*
X0368647Y031825D01*
X0368561Y0318101D01*
X0368503Y0317967D01*
X0368474Y0317847D01*
X0368472Y0317742D01*
X0368499Y0317651D01*
X0368555Y0317574D01*
X0367153Y0318976D01*
X0367229Y0318921D01*
X036732Y0318894D01*
X0367426Y0318895D01*
X0367546Y0318924D01*
X036768Y0318982D01*
X0367829Y0319068D01*
X0367992Y0319182D01*
X0368169Y0319325D01*
X0368567Y0319695D01*
X0369274Y0318988D01*
D02*
G37*
G36*
X0358257Y0312162D02*
X0358307Y0312128D01*
X0358364Y0312098D01*
X0358429Y0312072D01*
X03585Y031205D01*
X0358579Y0312032D01*
X0358665Y0312018D01*
X0358758Y0312008D01*
X0358966Y0312D01*
Y0311D01*
X0358858Y0310998D01*
X0358665Y0310982D01*
X0358579Y0310968D01*
X03585Y031095D01*
X0358429Y0310928D01*
X0358364Y0310902D01*
X0358307Y0310872D01*
X0358257Y0310838D01*
X0358214Y03108D01*
Y03122D01*
X0358257Y0312162D01*
D02*
G37*
G36*
X0395331Y0310184D02*
X0395704Y0309867D01*
X0395868Y0309752D01*
X0396017Y0309665D01*
X0396151Y0309608D01*
X039627Y0309579D01*
X0396374Y0309579D01*
X0396463Y0309609D01*
X0396537Y0309667D01*
X0395194Y0308205D01*
X0395246Y0308285D01*
X0395271Y0308378D01*
X0395269Y0308485D01*
X0395238Y0308606D01*
X039518Y030874D01*
X0395094Y0308888D01*
X0394981Y030905D01*
X039484Y0309226D01*
X0394475Y030962D01*
X0395123Y0310386D01*
X0395331Y0310184D01*
D02*
G37*
G36*
X0391286Y03063D02*
X0391243Y0306338D01*
X0391193Y0306372D01*
X0391136Y0306402D01*
X0391072Y0306428D01*
X0391Y030645D01*
X0390921Y0306468D01*
X0390835Y0306482D01*
X0390742Y0306492D01*
X0390534Y03065D01*
Y03075D01*
X0390642Y0307502D01*
X0390835Y0307518D01*
X0390921Y0307532D01*
X0391Y030755D01*
X0391072Y0307572D01*
X0391136Y0307598D01*
X0391193Y0307628D01*
X0391243Y0307662D01*
X0391286Y03077D01*
Y03063D01*
D02*
G37*
G36*
X0376257Y0307662D02*
X0376307Y0307628D01*
X0376364Y0307598D01*
X0376429Y0307572D01*
X03765Y030755D01*
X0376579Y0307532D01*
X0376665Y0307518D01*
X0376758Y0307508D01*
X0376966Y03075D01*
Y03065D01*
X0376858Y0306498D01*
X0376665Y0306482D01*
X0376579Y0306468D01*
X03765Y030645D01*
X0376429Y0306428D01*
X0376364Y0306402D01*
X0376307Y0306372D01*
X0376257Y0306338D01*
X0376214Y03063D01*
Y03077D01*
X0376257Y0307662D01*
D02*
G37*
G36*
X0377986Y0307905D02*
X0378016Y030782D01*
X0378067Y0307745D01*
X0378138Y030768D01*
X0378229Y0307625D01*
X037834Y030758D01*
X0378472Y0307545D01*
X0378624Y030752D01*
X0378796Y0307505D01*
X0378988Y03075D01*
Y03065D01*
X0378796Y0306495D01*
X0378624Y030648D01*
X0378472Y0306455D01*
X037834Y030642D01*
X0378229Y0306375D01*
X0378138Y030632D01*
X0378067Y0306255D01*
X0378016Y030618D01*
X0377986Y0306095D01*
X0377976Y0306D01*
Y0308D01*
X0377986Y0307905D01*
D02*
G37*
G36*
X0367425Y0304896D02*
X036734Y0304865D01*
X0367265Y0304815D01*
X03672Y0304744D01*
X0367145Y0304653D01*
X03671Y0304542D01*
X0367065Y030441D01*
X036704Y0304258D01*
X0367025Y0304086D01*
X036702Y0303894D01*
X036602D01*
X0366015Y0304086D01*
X0366Y0304258D01*
X0365975Y030441D01*
X036594Y0304542D01*
X0365895Y0304653D01*
X036584Y0304744D01*
X0365775Y0304815D01*
X03657Y0304865D01*
X0365615Y0304896D01*
X036552Y0304906D01*
X036752D01*
X0367425Y0304896D01*
D02*
G37*
G36*
X0343411Y0305934D02*
X0343845Y0305565D01*
X0344056Y0305415D01*
X0344262Y0305288D01*
X0344464Y0305185D01*
X0344661Y0305104D01*
X0344854Y0305046D01*
X0345042Y0305012D01*
X0345226Y0305D01*
Y0304D01*
X0345042Y0303989D01*
X0344854Y0303954D01*
X0344661Y0303896D01*
X0344464Y0303815D01*
X0344262Y0303712D01*
X0344056Y0303585D01*
X0343845Y0303435D01*
X034363Y0303262D01*
X0343187Y0302847D01*
Y0306153D01*
X0343411Y0305934D01*
D02*
G37*
G36*
X0367025Y0302469D02*
X036704Y0302297D01*
X0367065Y0302145D01*
X03671Y0302013D01*
X0367145Y0301902D01*
X03672Y0301811D01*
X0367265Y030174D01*
X036734Y030169D01*
X0367425Y0301659D01*
X036752Y0301649D01*
X036552D01*
X0365615Y0301659D01*
X03657Y030169D01*
X0365775Y030174D01*
X036584Y0301811D01*
X0365895Y0301902D01*
X036594Y0302013D01*
X0365975Y0302145D01*
X0366Y0302297D01*
X0366015Y0302469D01*
X036602Y0302661D01*
X036702D01*
X0367025Y0302469D01*
D02*
G37*
G36*
X0367022Y0301358D02*
X0367038Y0301165D01*
X0367052Y0301079D01*
X036707Y0301D01*
X0367092Y0300928D01*
X0367118Y0300864D01*
X0367148Y0300807D01*
X0367182Y0300757D01*
X036722Y0300714D01*
X036582D01*
X0365858Y0300757D01*
X0365892Y0300807D01*
X0365922Y0300864D01*
X0365948Y0300928D01*
X036597Y0301D01*
X0365988Y0301079D01*
X0366002Y0301165D01*
X0366012Y0301258D01*
X036602Y0301466D01*
X036702D01*
X0367022Y0301358D01*
D02*
G37*
D10*
X03515Y03245D02*
X0351981Y0324981D01*
X0346Y03045D02*
X0362441Y0320941D01*
X03415Y03045D02*
X0346D01*
X0351981Y0324981D02*
X0354481D01*
X03625Y0333D01*
X036652Y03D02*
Y0307D01*
X0366079Y0307441D02*
X036652Y0307D01*
X03575Y03115D02*
X0393301D01*
X0366079Y0316441D02*
Y03165D01*
X0371441Y0321862D01*
X0362441Y0320941D02*
Y0322D01*
X0371441Y0321862D02*
Y0322D01*
X0362441D02*
X0364441Y0324D01*
X0371441Y0322D02*
X0373441Y0324D01*
X03735D02*
X0374Y03235D01*
X0364441Y0324D02*
X03645D01*
X0373441D02*
X03735D01*
X0318Y0359D02*
X0318414D01*
X03245Y0352914D01*
Y03435D02*
Y0352914D01*
Y03435D02*
X03295Y03385D01*
X034156Y034444D02*
Y0344635D01*
Y034444D02*
X0345Y0341D01*
X03515Y0353271D02*
X0352Y0352771D01*
X0376Y03385D02*
X0377Y03375D01*
X03295Y03385D02*
X0376D01*
X0345Y0341D02*
X0359D01*
X03615Y03435D01*
X035156Y0344635D02*
X035237Y0345445D01*
X0379142D01*
X0352Y03525D02*
Y0352771D01*
X03515Y0353271D02*
Y03655D01*
X0365921Y0362059D02*
X036702Y0363157D01*
Y03695D01*
X0374Y03235D02*
X0379042D01*
X0378Y033D02*
X0387229D01*
X03755Y0307D02*
X0392D01*
X0387229Y033D02*
X0390434Y0326796D01*
X0390666D01*
X039767Y0307132D02*
Y0307191D01*
X039567Y0309191D02*
X039767Y0307191D01*
X039561Y0309191D02*
X039567D01*
X04084Y0307191D02*
X0413Y0311791D01*
X0393301Y03115D02*
X039561Y0309191D01*
X0413Y0311791D02*
Y0334D01*
X0391688Y0333D02*
X0393316Y0331373D01*
X03625Y0333D02*
X0391688D01*
X03615Y03435D02*
X0397282D01*
X0397775Y0343993D01*
X0379142Y0345445D02*
X0384941Y0351244D01*
X0385D01*
X0387Y0353244D01*
Y0353303D01*
X0393197D01*
X0381021Y03575D02*
X04115D01*
X0376504Y0362017D02*
X0381021Y03575D01*
X0413Y0334D02*
X0418Y0339D01*
X04115Y03575D02*
X0413Y0359D01*
X0418D01*
X04084Y0362208D02*
Y036908D01*
X040798Y03695D02*
X04084Y036908D01*
X0314906Y037424D02*
X031388Y037415D01*
X0312886Y0373884D01*
X0311953Y0373449D01*
X0311109Y0372859D01*
X0310382Y0372131D01*
X0309791Y0371287D01*
X0309356Y0370354D01*
X030909Y036936D01*
X0309Y0368335D01*
X0309Y0301406D02*
X030909Y030038D01*
X0309356Y0299386D01*
X0309791Y0298453D01*
X0310382Y0297609D01*
X0311109Y0296882D01*
X0311953Y0296291D01*
X0312886Y0295856D01*
X031388Y029559D01*
X0314906Y02955D01*
X04285Y0370425D02*
X0428416Y0371377D01*
X0428089Y0372275D01*
X042754Y0373057D01*
X0426807Y0373671D01*
X0425941Y0374074D01*
X0425Y037424D01*
X04255Y02955D02*
X0426492Y0295736D01*
X0427363Y0296268D01*
X0428026Y0297042D01*
X0428418Y0297984D01*
X04285Y0299D01*
X0309Y0301406D02*
Y0368335D01*
X0314901Y0374169D02*
X0425Y037424D01*
X0314906Y02955D02*
X04255Y02955D01*
X04285Y0299D02*
Y0370425D01*
D24*
X0375378Y03D02*
X0375056Y0300886D01*
X0374239Y0301357D01*
X0373311Y0301193D01*
X0372705Y0300471D01*
Y0299529D01*
X0373311Y0298807D01*
X0374239Y0298643D01*
X0375056Y0299114D01*
X0375378Y03D01*
X0375878Y03695D02*
X0375556Y0370386D01*
X0374739Y0370857D01*
X0373811Y0370693D01*
X0373205Y0369971D01*
Y0369029D01*
X0373811Y0368307D01*
X0374739Y0368143D01*
X0375556Y0368614D01*
X0375878Y03695D01*
X0402378Y03D02*
X0402056Y0300886D01*
X0401239Y0301357D01*
X0400311Y0301193D01*
X0399705Y0300471D01*
Y0299529D01*
X0400311Y0298807D01*
X0401239Y0298643D01*
X0402056Y0299114D01*
X0402378Y03D01*
X0401878Y03695D02*
X0401556Y0370386D01*
X0400739Y0370857D01*
X0399811Y0370693D01*
X0399205Y0369971D01*
Y0369029D01*
X0399811Y0368307D01*
X0400739Y0368143D01*
X0401556Y0368614D01*
X0401878Y03695D01*
X0375878Y03695D02*
X0375556Y0370386D01*
X0374739Y0370857D01*
X0373811Y0370693D01*
X0373205Y0369971D01*
Y0369029D01*
X0373811Y0368307D01*
X0374739Y0368143D01*
X0375556Y0368614D01*
X0375878Y03695D01*
X0375378Y03D02*
X0375056Y0300886D01*
X0374239Y0301357D01*
X0373311Y0301193D01*
X0372705Y0300471D01*
Y0299529D01*
X0373311Y0298807D01*
X0374239Y0298643D01*
X0375056Y0299114D01*
X0375378Y03D01*
X0402358D02*
X0402036Y0300886D01*
X040122Y0301357D01*
X0400291Y0301193D01*
X0399686Y0300471D01*
Y0299529D01*
X0400291Y0298807D01*
X040122Y0298643D01*
X0402036Y0299114D01*
X0402358Y03D01*
X0401878Y03695D02*
X0401556Y0370386D01*
X0400739Y0370857D01*
X0399811Y0370693D01*
X0399205Y0369971D01*
Y0369029D01*
X0399811Y0368307D01*
X0400739Y0368143D01*
X0401556Y0368614D01*
X0401878Y03695D01*
X0372032Y03D02*
X0375969D01*
X0374Y0298031D02*
Y0301968D01*
X036337Y0296457D02*
Y0303543D01*
Y0296457D02*
X038463D01*
Y0303543D01*
X036337D02*
X038463D01*
X0372532Y03695D02*
X0376469D01*
X03745Y0367532D02*
Y0371469D01*
X036387Y0365957D02*
Y0373043D01*
Y0365957D02*
X038513D01*
Y0373043D01*
X036387D02*
X038513D01*
X0399032Y03D02*
X0402969D01*
X0401Y0298031D02*
Y0301968D01*
X039037Y0296457D02*
Y0303543D01*
Y0296457D02*
X041163D01*
Y0303543D01*
X039037D02*
X041163D01*
X0398532Y03695D02*
X0402469D01*
X04005Y0367532D02*
Y0371469D01*
X041113Y0365957D02*
Y0373043D01*
X038987D02*
X041113D01*
X038987Y0365957D02*
Y0373043D01*
Y0365957D02*
X041113D01*
X0372532Y03695D02*
X0376469D01*
X03745Y0367532D02*
Y0371469D01*
X038513Y0365957D02*
Y0373043D01*
X036387Y0365957D02*
X038513D01*
X036387D02*
Y0373043D01*
X038513D01*
X0372032Y03D02*
X0375969D01*
X0374Y0298032D02*
Y0301969D01*
X038463Y0296457D02*
Y0303543D01*
X036337Y0296457D02*
X038463D01*
X036337D02*
Y0303543D01*
X038463D01*
X0399012Y03D02*
X0402949D01*
X040098Y0298032D02*
Y0301969D01*
X041161Y0296457D02*
Y0303543D01*
X039035Y0296457D02*
X041161D01*
X039035D02*
Y0303543D01*
X041161D01*
X0398532Y03695D02*
X0402469D01*
X04005Y0367532D02*
Y0371469D01*
X038987Y0365957D02*
Y0373043D01*
X041113D01*
Y0365957D02*
Y0373043D01*
X038987Y0365957D02*
X041113D01*
D25*
X036839Y0296457D02*
Y0303543D01*
Y0296457D02*
X037961D01*
Y0303543D01*
X036839D02*
X037961D01*
X036889Y0365957D02*
Y0373043D01*
Y0365957D02*
X038011D01*
Y0373043D01*
X036889D02*
X038011D01*
X039539Y0296457D02*
Y0303543D01*
Y0296457D02*
X040661D01*
Y0303543D01*
X039539D02*
X040661D01*
X040611Y0365957D02*
Y0373043D01*
X039489D02*
X040611D01*
X039489Y0365957D02*
Y0373043D01*
Y0365957D02*
X040611D01*
X038011Y0365957D02*
Y0373043D01*
X036889Y0365957D02*
X038011D01*
X036889D02*
Y0373043D01*
X038011D01*
X037961Y0296457D02*
Y0303543D01*
X036839Y0296457D02*
X037961D01*
X036839D02*
Y0303543D01*
X037961D01*
X0406591Y0296457D02*
Y0303543D01*
X039537Y0296457D02*
X0406591D01*
X039537D02*
Y0303543D01*
X0406591D01*
X039489Y0365957D02*
Y0373043D01*
X040611D01*
Y0365957D02*
Y0373043D01*
X039489Y0365957D02*
X040611D01*
D26*
X036652Y03D02*
D03*
X038148D02*
D03*
X036702Y03695D02*
D03*
X038198D02*
D03*
X039352Y03D02*
D03*
X040848D02*
D03*
X040798Y03695D02*
D03*
X039302D02*
D03*
D27*
X03755Y0316D02*
D03*
Y0307D02*
D03*
X0366079Y0316441D02*
D03*
Y0307441D02*
D03*
X0376504Y0362017D02*
D03*
Y0353017D02*
D03*
X0365921Y0353059D02*
D03*
Y0362059D02*
D03*
X039767Y0316132D02*
D03*
Y0307132D02*
D03*
X04084Y0307191D02*
D03*
Y0316191D02*
D03*
X0393316Y0331373D02*
D03*
X0393316Y0322373D02*
D03*
X0397775Y0343993D02*
D03*
Y0352993D02*
D03*
X04084Y0353208D02*
D03*
Y0362208D02*
D03*
X0387Y0362303D02*
D03*
Y0353303D02*
D03*
D28*
X03735Y0324D02*
D03*
X03645D02*
D03*
X0377Y03375D02*
D03*
X0386D02*
D03*
D39*
X0418Y0309D02*
D03*
X0318D02*
D03*
D40*
X0418Y0319D02*
D03*
Y0329D02*
D03*
Y0339D02*
D03*
Y0349D02*
D03*
Y0359D02*
D03*
X0318D02*
D03*
Y0349D02*
D03*
Y0339D02*
D03*
Y0329D02*
D03*
Y0319D02*
D03*
D41*
X03515Y03245D02*
D03*
X03415D02*
D03*
X03315D02*
D03*
X03515Y0345D02*
D03*
X03415D02*
D03*
X03315D02*
D03*
Y03045D02*
D03*
X03415D02*
D03*
X03515D02*
D03*
X03315Y03655D02*
D03*
X03415D02*
D03*
X03515D02*
D03*
D42*
X036652Y03D02*
D03*
X03935D02*
D03*
X03755Y0307D02*
D03*
X0392D02*
D03*
X04084Y0307191D02*
D03*
X03575Y03115D02*
D03*
X0397691Y0315941D02*
D03*
X03755Y0316D02*
D03*
X0379042Y03235D02*
D03*
X0378Y033D02*
D03*
X0393316Y0331373D02*
D03*
X0386Y03375D02*
D03*
X0352Y03525D02*
D03*
X0365921Y0352862D02*
D03*
X0397775Y0352993D02*
D03*
X0376504Y0353017D02*
D03*
X0393197Y0353303D02*
D03*
X0376504Y0362017D02*
D03*
X04084Y0362208D02*
D03*
X036702Y03695D02*
D03*
X039302D02*
D03*
D43*
X0390666Y0326796D02*
D03*
M02*
