M48
;Layer_Color=9474304
;FILE_FORMAT=2:5
INCH,LZ
;TYPE=PLATED
T1F00S00C0.01000
T2F00S00C0.01200
T3F00S00C0.02362
T4F00S00C0.03228
%
T01
X0390666Y0326796
T02
X036652Y03
X03755Y0307
X0392
X03935Y03
X04084Y0307191
X03575Y03115
X03755Y0316
X0379042Y03235
X0378Y033
X0386Y03375
X0393316Y0331373
X0397691Y0315941
X0397775Y0352993
X0393197Y0353303
X039302Y03695
X04084Y0362208
X0376504Y0362017
Y0353017
X0365921Y0352862
X0352Y03525
X036702Y03695
T03
X03315Y03045
X03415
X03515
Y03245
X03415
X03315
Y0345
X03415
X03515
Y03655
X03415
X03315
T04
X0318Y0309
X0418
Y0319
Y0329
Y0339
Y0349
Y0359
X0318
Y0349
Y0339
Y0329
Y0319
M30
