G04*
G04 #@! TF.GenerationSoftware,Altium Limited,Altium Designer,22.0.2 (36)*
G04*
G04 Layer_Color=8421504*
%FSTAX25Y25*%
%MOIN*%
G70*
G04*
G04 #@! TF.SameCoordinates,371D3646-10FE-40E0-BBDF-05722AEB6D60*
G04*
G04*
G04 #@! TF.FilePolarity,Positive*
G04*
G01*
G75*
%ADD10C,0.01000*%
%ADD24C,0.00197*%
%ADD25C,0.00004*%
%ADD26R,0.04724X0.03347*%
%ADD27R,0.05000X0.05118*%
%ADD28R,0.05118X0.05000*%
%ADD29O,0.01772X0.06496*%
%ADD30R,0.05000X0.07736*%
D10*
X0314906Y037424D02*
X031388Y037415D01*
X0312886Y0373884D01*
X0311953Y0373449D01*
X0311109Y0372859D01*
X0310382Y0372131D01*
X0309791Y0371287D01*
X0309356Y0370354D01*
X030909Y036936D01*
X0309Y0368335D01*
X0309Y0301406D02*
X030909Y030038D01*
X0309356Y0299386D01*
X0309791Y0298453D01*
X0310382Y0297609D01*
X0311109Y0296882D01*
X0311953Y0296291D01*
X0312886Y0295856D01*
X031388Y029559D01*
X0314906Y02955D01*
X04285Y0370425D02*
X0428416Y0371377D01*
X0428089Y0372275D01*
X042754Y0373057D01*
X0426807Y0373671D01*
X0425941Y0374074D01*
X0425Y037424D01*
X04255Y02955D02*
X0426492Y0295736D01*
X0427363Y0296268D01*
X0428026Y0297042D01*
X0428418Y0297984D01*
X04285Y0299D01*
X0309Y0301406D02*
Y0368335D01*
X0314901Y0374169D02*
X0425Y037424D01*
X0314906Y02955D02*
X04255Y02955D01*
X04285Y0299D02*
Y0370425D01*
D24*
X0375378Y03D02*
X0375056Y0300886D01*
X0374239Y0301357D01*
X0373311Y0301193D01*
X0372705Y0300471D01*
Y0299529D01*
X0373311Y0298807D01*
X0374239Y0298643D01*
X0375056Y0299114D01*
X0375378Y03D01*
X0375878Y03695D02*
X0375556Y0370386D01*
X0374739Y0370857D01*
X0373811Y0370693D01*
X0373205Y0369971D01*
Y0369029D01*
X0373811Y0368307D01*
X0374739Y0368143D01*
X0375556Y0368614D01*
X0375878Y03695D01*
X0402378Y03D02*
X0402056Y0300886D01*
X0401239Y0301357D01*
X0400311Y0301193D01*
X0399705Y0300471D01*
Y0299529D01*
X0400311Y0298807D01*
X0401239Y0298643D01*
X0402056Y0299114D01*
X0402378Y03D01*
X0401878Y03695D02*
X0401556Y0370386D01*
X0400739Y0370857D01*
X0399811Y0370693D01*
X0399205Y0369971D01*
Y0369029D01*
X0399811Y0368307D01*
X0400739Y0368143D01*
X0401556Y0368614D01*
X0401878Y03695D01*
X0375878Y03695D02*
X0375556Y0370386D01*
X0374739Y0370857D01*
X0373811Y0370693D01*
X0373205Y0369971D01*
Y0369029D01*
X0373811Y0368307D01*
X0374739Y0368143D01*
X0375556Y0368614D01*
X0375878Y03695D01*
X0375378Y03D02*
X0375056Y0300886D01*
X0374239Y0301357D01*
X0373311Y0301193D01*
X0372705Y0300471D01*
Y0299529D01*
X0373311Y0298807D01*
X0374239Y0298643D01*
X0375056Y0299114D01*
X0375378Y03D01*
X0402358D02*
X0402036Y0300886D01*
X040122Y0301357D01*
X0400291Y0301193D01*
X0399686Y0300471D01*
Y0299529D01*
X0400291Y0298807D01*
X040122Y0298643D01*
X0402036Y0299114D01*
X0402358Y03D01*
X0401878Y03695D02*
X0401556Y0370386D01*
X0400739Y0370857D01*
X0399811Y0370693D01*
X0399205Y0369971D01*
Y0369029D01*
X0399811Y0368307D01*
X0400739Y0368143D01*
X0401556Y0368614D01*
X0401878Y03695D01*
X0372032Y03D02*
X0375969D01*
X0374Y0298031D02*
Y0301968D01*
X036337Y0296457D02*
Y0303543D01*
Y0296457D02*
X038463D01*
Y0303543D01*
X036337D02*
X038463D01*
X0372532Y03695D02*
X0376469D01*
X03745Y0367532D02*
Y0371469D01*
X036387Y0365957D02*
Y0373043D01*
Y0365957D02*
X038513D01*
Y0373043D01*
X036387D02*
X038513D01*
X0399032Y03D02*
X0402969D01*
X0401Y0298031D02*
Y0301968D01*
X039037Y0296457D02*
Y0303543D01*
Y0296457D02*
X041163D01*
Y0303543D01*
X039037D02*
X041163D01*
X0398532Y03695D02*
X0402469D01*
X04005Y0367532D02*
Y0371469D01*
X041113Y0365957D02*
Y0373043D01*
X038987D02*
X041113D01*
X038987Y0365957D02*
Y0373043D01*
Y0365957D02*
X041113D01*
X0372532Y03695D02*
X0376469D01*
X03745Y0367532D02*
Y0371469D01*
X038513Y0365957D02*
Y0373043D01*
X036387Y0365957D02*
X038513D01*
X036387D02*
Y0373043D01*
X038513D01*
X0372032Y03D02*
X0375969D01*
X0374Y0298032D02*
Y0301969D01*
X038463Y0296457D02*
Y0303543D01*
X036337Y0296457D02*
X038463D01*
X036337D02*
Y0303543D01*
X038463D01*
X0399012Y03D02*
X0402949D01*
X040098Y0298032D02*
Y0301969D01*
X041161Y0296457D02*
Y0303543D01*
X039035Y0296457D02*
X041161D01*
X039035D02*
Y0303543D01*
X041161D01*
X0398532Y03695D02*
X0402469D01*
X04005Y0367532D02*
Y0371469D01*
X038987Y0365957D02*
Y0373043D01*
X041113D01*
Y0365957D02*
Y0373043D01*
X038987Y0365957D02*
X041113D01*
D25*
X036839Y0296457D02*
Y0303543D01*
Y0296457D02*
X037961D01*
Y0303543D01*
X036839D02*
X037961D01*
X036889Y0365957D02*
Y0373043D01*
Y0365957D02*
X038011D01*
Y0373043D01*
X036889D02*
X038011D01*
X039539Y0296457D02*
Y0303543D01*
Y0296457D02*
X040661D01*
Y0303543D01*
X039539D02*
X040661D01*
X040611Y0365957D02*
Y0373043D01*
X039489D02*
X040611D01*
X039489Y0365957D02*
Y0373043D01*
Y0365957D02*
X040611D01*
X038011Y0365957D02*
Y0373043D01*
X036889Y0365957D02*
X038011D01*
X036889D02*
Y0373043D01*
X038011D01*
X037961Y0296457D02*
Y0303543D01*
X036839Y0296457D02*
X037961D01*
X036839D02*
Y0303543D01*
X037961D01*
X0406591Y0296457D02*
Y0303543D01*
X039537Y0296457D02*
X0406591D01*
X039537D02*
Y0303543D01*
X0406591D01*
X039489Y0365957D02*
Y0373043D01*
X040611D01*
Y0365957D02*
Y0373043D01*
X039489Y0365957D02*
X040611D01*
D26*
X038198Y03695D02*
D03*
X036702D02*
D03*
X038148Y03D02*
D03*
X036652D02*
D03*
X0408461D02*
D03*
X03935D02*
D03*
X039302Y03695D02*
D03*
X040798D02*
D03*
D27*
X038715Y0362208D02*
D03*
Y0353208D02*
D03*
X0375521Y0306851D02*
D03*
Y0315851D02*
D03*
X0387Y0316D02*
D03*
Y0307D02*
D03*
X0365921Y0361862D02*
D03*
Y0352862D02*
D03*
X0376525Y0353208D02*
D03*
Y0362208D02*
D03*
X0397691Y0315941D02*
D03*
Y0306941D02*
D03*
X0408379Y0307042D02*
D03*
Y0316042D02*
D03*
X0397754Y0353059D02*
D03*
Y0362059D02*
D03*
X0408379Y0353059D02*
D03*
Y0362059D02*
D03*
D28*
X03735Y0324D02*
D03*
X03645D02*
D03*
X03645Y03395D02*
D03*
X03735D02*
D03*
X03735Y033175D02*
D03*
X03645Y033175D02*
D03*
D29*
X0395795Y0345D02*
D03*
X0393236D02*
D03*
X0390677D02*
D03*
X0388118D02*
D03*
X0385559D02*
D03*
X0383D02*
D03*
X0380441D02*
D03*
X0395795Y0322953D02*
D03*
X0393236D02*
D03*
X0390677D02*
D03*
X0388118D02*
D03*
X0385559D02*
D03*
X0383D02*
D03*
X0380441D02*
D03*
D30*
X0407Y03411D02*
D03*
Y03279D02*
D03*
M02*
