G04*
G04 #@! TF.GenerationSoftware,Altium Limited,Altium Designer,22.0.2 (36)*
G04*
G04 Layer_Color=16711935*
%FSTAX25Y25*%
%MOIN*%
G70*
G04*
G04 #@! TF.SameCoordinates,F14A6DB2-6BAA-43E7-8DF3-1F8C7E56E43F*
G04*
G04*
G04 #@! TF.FilePolarity,Positive*
G04*
G01*
G75*
%ADD10C,0.01000*%
%ADD48C,0.00098*%
%ADD49C,0.00100*%
%ADD127C,0.00394*%
%ADD129R,0.07087X0.01800*%
%ADD130R,0.07087X0.01800*%
D10*
X063Y17195D02*
Y1719691D01*
D48*
X0863411Y1991625D02*
X0863353Y1992598D01*
X0863207Y1993563D01*
X0862972Y1994509D01*
X086265Y199543D01*
X0862245Y1996317D01*
X086176Y1997163D01*
X0861199Y199796D01*
X0860567Y1998703D01*
X0859869Y1999384D01*
X0859111Y1999997D01*
X08583Y2000538D01*
X0857442Y2001002D01*
X0856545Y2001385D01*
X0855616Y2001683D01*
X0854664Y2001895D01*
X0853697Y2002018D01*
X0852722Y200205D01*
X0755765Y2002011D02*
X0754791Y2001954D01*
X0753827Y2001807D01*
X075288Y2001572D01*
X075196Y200125D01*
X0751072Y2000845D01*
X0750226Y200036D01*
X0749429Y1999799D01*
X0748686Y1999167D01*
X0748005Y1998468D01*
X0747391Y199771D01*
X074685Y1996899D01*
X0746386Y1996041D01*
X0746003Y1995144D01*
X0745705Y1994215D01*
X0745494Y1993263D01*
X0745371Y1992296D01*
X0745338Y1991321D01*
X086342Y189589D02*
X0863459Y1894908D01*
X0863574Y1893933D01*
X0863766Y1892969D01*
X0864032Y1892024D01*
X0864373Y1891102D01*
X0864784Y189021D01*
X0865264Y1889353D01*
X086581Y1888536D01*
X0866418Y1887765D01*
X0867085Y1887043D01*
X0867806Y1886376D01*
X0868577Y1885768D01*
X0869394Y1885222D01*
X0870251Y1884742D01*
X0871143Y1884331D01*
X0872065Y1883991D01*
X087301Y1883725D01*
X0873974Y1883533D01*
X0874949Y1883417D01*
X0875931Y1883379D01*
X0733121D02*
X073414Y1883434D01*
X0735152Y1883574D01*
X0736148Y1883796D01*
X0737122Y18841D01*
X0738068Y1884484D01*
X073898Y1884944D01*
X073985Y1885478D01*
X0740673Y1886082D01*
X0741443Y1886752D01*
X0742155Y1887483D01*
X0742805Y188827D01*
X0743387Y1889109D01*
X0743898Y1889992D01*
X0744335Y1890915D01*
X0744693Y1891871D01*
X0744972Y1892853D01*
X0745168Y1893855D01*
X0745281Y1894869D01*
X074531Y189589D01*
X0745338Y1895918D02*
Y1991321D01*
X0863411Y1895899D02*
Y1991625D01*
X0863411Y1991625D02*
X0863411Y1991625D01*
X0847523Y2002011D02*
X0852722Y200205D01*
X0755765Y2002011D02*
X0847523D01*
X0875931Y1883379D02*
X1105251D01*
X0503479D02*
X0733121D01*
D49*
X0477862Y1583292D02*
X0477882Y1582287D01*
X0477941Y1581285D01*
X047804Y1580285D01*
X0478177Y157929D01*
X0478354Y1578301D01*
X0478569Y157732D01*
X0478823Y1576348D01*
X0479114Y1575387D01*
X0479443Y1574438D01*
X0479809Y1573503D01*
X0480212Y1572583D01*
X048065Y1571679D01*
X0481123Y1570793D01*
X0481631Y1569927D01*
X0482173Y1569081D01*
X0482747Y1568257D01*
X0483353Y1567456D01*
X0483991Y156668D01*
X0484658Y1565929D01*
X0485354Y1565205D01*
X0486078Y1564509D01*
X0486829Y1563842D01*
X0487605Y1563204D01*
X0488406Y1562598D01*
X048923Y1562024D01*
X0490076Y1561482D01*
X0490942Y1560975D01*
X0491828Y1560501D01*
X0492732Y1560063D01*
X0493652Y155966D01*
X0494587Y1559294D01*
X0495536Y1558965D01*
X0496497Y1558673D01*
X0497469Y155842D01*
X049845Y1558205D01*
X0499439Y1558028D01*
X0500434Y1557891D01*
X0501434Y1557792D01*
X0502436Y1557733D01*
X0503441Y1557713D01*
X1130829Y1857801D02*
X1130809Y1858805D01*
X113075Y1859807D01*
X1130652Y1860807D01*
X1130514Y1861802D01*
X1130338Y1862791D01*
X1130122Y1863772D01*
X1129869Y1864744D01*
X1129577Y1865705D01*
X1129248Y1866654D01*
X1128882Y1867589D01*
X112848Y1868509D01*
X1128041Y1869413D01*
X1127568Y1870299D01*
X112706Y1871165D01*
X1126519Y1872011D01*
X1125944Y1872835D01*
X1125338Y1873636D01*
X1124701Y1874412D01*
X1124034Y1875163D01*
X1123337Y1875887D01*
X1122614Y1876583D01*
X1121863Y187725D01*
X1121086Y1877888D01*
X1120285Y1878494D01*
X1119461Y1879068D01*
X1118616Y187961D01*
X1117749Y1880117D01*
X1116863Y1880591D01*
X1115959Y1881029D01*
X1115039Y1881432D01*
X1114104Y1881798D01*
X1113155Y1882127D01*
X1112194Y1882418D01*
X1111222Y1882672D01*
X1110241Y1882887D01*
X1109252Y1883064D01*
X1108257Y1883202D01*
X1107258Y18833D01*
X1106255Y1883359D01*
X1105251Y1883379D01*
X1105917Y1557713D02*
X1106914Y155782D01*
X1107908Y1557964D01*
X1108895Y1558143D01*
X1109875Y1558359D01*
X1110846Y1558611D01*
X1111808Y1558898D01*
X1112758Y155922D01*
X1113696Y1559577D01*
X111462Y1559968D01*
X1115529Y1560393D01*
X1116422Y156085D01*
X1117298Y156134D01*
X1118155Y1561862D01*
X1118992Y1562415D01*
X1119809Y1562999D01*
X1120603Y1563611D01*
X1121375Y1564253D01*
X1122123Y1564923D01*
X1122845Y1565619D01*
X1123542Y1566341D01*
X1124211Y1567089D01*
X1124852Y156786D01*
X1125465Y1568655D01*
X1126049Y1569471D01*
X1126602Y1570309D01*
X1127124Y1571166D01*
X1127614Y1572042D01*
X1128071Y1572935D01*
X1128496Y1573844D01*
X1128887Y1574768D01*
X1129244Y1575706D01*
X1129566Y1576656D01*
X1129853Y1577618D01*
X1130105Y1578589D01*
X1130321Y1579569D01*
X1130501Y1580556D01*
X1130644Y1581549D01*
X1130751Y1582547D01*
X0503441Y188334D02*
X0502436Y188332D01*
X0501434Y1883261D01*
X0500434Y1883163D01*
X0499439Y1883025D01*
X049845Y1882848D01*
X0497469Y1882633D01*
X0496497Y188238D01*
X0495536Y1882088D01*
X0494587Y1881759D01*
X0493652Y1881393D01*
X0492732Y188099D01*
X0491828Y1880552D01*
X0490942Y1880079D01*
X0490076Y1879571D01*
X048923Y1879029D01*
X0488406Y1878455D01*
X0487605Y1877849D01*
X0486829Y1877212D01*
X0486078Y1876544D01*
X0485354Y1875848D01*
X0484658Y1875124D01*
X0483991Y1874373D01*
X0483353Y1873597D01*
X0482747Y1872796D01*
X0482173Y1871972D01*
X0481631Y1871126D01*
X0481123Y187026D01*
X048065Y1869374D01*
X0480212Y186847D01*
X0479809Y186755D01*
X0479443Y1866615D01*
X0479114Y1865666D01*
X0478823Y1864705D01*
X0478569Y1863733D01*
X0478354Y1862752D01*
X0478177Y1861763D01*
X047804Y1860768D01*
X0477941Y1859768D01*
X0477882Y1858766D01*
X0477862Y1857762D01*
X1130751Y1582548D02*
X1130829Y1582626D01*
Y1857801D01*
X0477862Y1583292D02*
Y1857762D01*
X050344Y1557713D02*
X1105917D01*
D127*
X0543055Y1658594D02*
X0549945D01*
X0543055Y1645406D02*
X0549945D01*
Y1658594D01*
X0543055Y1645406D02*
Y1658594D01*
X0581906Y1572445D02*
X0595094D01*
X0581906Y1565555D02*
X0595094D01*
X0581906D02*
Y1572445D01*
X0595094Y1565555D02*
Y1572445D01*
X0591346Y158013D02*
Y158387D01*
X0584654Y158013D02*
Y158387D01*
Y158013D02*
X0591346D01*
X0584654Y158387D02*
X0591346D01*
X0584654Y159113D02*
Y159487D01*
X0591346Y159113D02*
Y159487D01*
X0584654D02*
X0591346D01*
X0584654Y159113D02*
X0591346D01*
X0604555Y1658606D02*
X0611445D01*
X0604555Y1645417D02*
X0611445D01*
Y1658606D01*
X0604555Y1645417D02*
Y1658606D01*
X061713Y1646654D02*
X062087D01*
X061713Y1653346D02*
X062087D01*
X061713Y1646654D02*
Y1653346D01*
X062087Y1646654D02*
Y1653346D01*
X053163Y1710654D02*
X053537D01*
X053163Y1717346D02*
X053537D01*
X053163Y1710654D02*
Y1717346D01*
X053537Y1710654D02*
Y1717346D01*
X0641457Y1684681D02*
X0648543D01*
X0641457Y1671295D02*
X0648543D01*
Y1684681D01*
X0641457Y1671295D02*
Y1684681D01*
Y1697307D02*
Y1710693D01*
X0648543Y1697307D02*
Y1710693D01*
X0641457Y1697307D02*
X0648543D01*
X0641457Y1710693D02*
X0648543D01*
X0653555Y1671405D02*
Y1684594D01*
X0660445Y1671405D02*
Y1684594D01*
X0653555Y1671405D02*
X0660445D01*
X0653555Y1684594D02*
X0660445D01*
X0683457Y1671319D02*
X0690543D01*
X0683457Y1684705D02*
X0690543D01*
X0683457Y1671319D02*
Y1684705D01*
X0690543Y1671319D02*
Y1684705D01*
X0695555Y1671405D02*
Y1684594D01*
X0702445Y1671405D02*
Y1684594D01*
X0695555Y1671405D02*
X0702445D01*
X0695555Y1684594D02*
X0702445D01*
X07005Y156163D02*
Y156537D01*
X0707193Y156163D02*
Y156537D01*
X07005D02*
X0707193D01*
X07005Y156163D02*
X0707193D01*
X0700654Y158063D02*
X0707347D01*
X0700654Y158437D02*
X0707347D01*
Y158063D02*
Y158437D01*
X0700654Y158063D02*
Y158437D01*
X0707346Y157113D02*
Y157487D01*
X0700653Y157113D02*
Y157487D01*
Y157113D02*
X0707346D01*
X0700653Y157487D02*
X0707346D01*
X0700654Y159387D02*
X0707347D01*
X0700654Y159013D02*
X0707347D01*
X0700654D02*
Y159387D01*
X0707347Y159013D02*
Y159387D01*
X0641457Y1737193D02*
X0648543D01*
X0641457Y1723807D02*
X0648543D01*
Y1737193D01*
X0641457Y1723807D02*
Y1737193D01*
X0653555Y1710594D02*
X0660445D01*
X0653555Y1697405D02*
X0660445D01*
Y1710594D01*
X0653555Y1697405D02*
Y1710594D01*
X0653055Y1737094D02*
X0659945D01*
X0653055Y1723906D02*
X0659945D01*
Y1737094D01*
X0653055Y1723906D02*
Y1737094D01*
X0683457Y1697209D02*
Y1710595D01*
X0690543Y1697209D02*
Y1710595D01*
X0683457Y1697209D02*
X0690543D01*
X0683457Y1710595D02*
X0690543D01*
X0683555Y1737094D02*
X0690445D01*
X0683555Y1723906D02*
X0690445D01*
Y1737094D01*
X0683555Y1723906D02*
Y1737094D01*
X0695555Y1697504D02*
X0702445D01*
X0695555Y1710693D02*
X0702445D01*
X0695555Y1697504D02*
Y1710693D01*
X0702445Y1697504D02*
Y1710693D01*
X0695555Y1737094D02*
X0702445D01*
X0695555Y1723906D02*
X0702445D01*
Y1737094D01*
X0695555Y1723906D02*
Y1737094D01*
X053163Y17535D02*
Y1760193D01*
X053537Y17535D02*
Y1760193D01*
X053163Y17535D02*
X053537D01*
X053163Y1760193D02*
X053537D01*
X0540945Y1767405D02*
Y1780594D01*
X0534055Y1767405D02*
Y1780594D01*
X0540945D01*
X0534055Y1767405D02*
X0540945D01*
X0545555D02*
X0552445D01*
X0545555Y1780594D02*
X0552445D01*
X0545555Y1767405D02*
Y1780594D01*
X0552445Y1767405D02*
Y1780594D01*
X0553654Y173487D02*
X0560347D01*
X0553654Y173113D02*
X0560347D01*
X0553654D02*
Y173487D01*
X0560347Y173113D02*
Y173487D01*
X0561405Y1765555D02*
Y1772445D01*
X0574594Y1765555D02*
Y1772445D01*
X0561405D02*
X0574594D01*
X0561405Y1765555D02*
X0574594D01*
X0567894Y1729555D02*
Y1736445D01*
X0581083Y1729555D02*
Y1736445D01*
X0567894D02*
X0581083D01*
X0567894Y1729555D02*
X0581083D01*
X0589Y173113D02*
X0595693D01*
X0589Y173487D02*
X0595693D01*
Y173113D02*
Y173487D01*
X0589Y173113D02*
Y173487D01*
X055087Y1814154D02*
Y1820846D01*
X054713Y1814154D02*
Y1820846D01*
X055087D01*
X054713Y1814154D02*
X055087D01*
X0562154Y178337D02*
X0568846D01*
X0562154Y177963D02*
X0568846D01*
X0562154D02*
Y178337D01*
X0568846Y177963D02*
Y178337D01*
X0578405Y1821555D02*
Y1828445D01*
X0591594Y1821555D02*
Y1828445D01*
X0578405D02*
X0591594D01*
X0578405Y1821555D02*
X0591594D01*
X0600154Y182687D02*
X0606847D01*
X0600154Y182313D02*
X0606847D01*
X0600154D02*
Y182687D01*
X0606847Y182313D02*
Y182687D01*
X06445D02*
X0651193D01*
X06445Y182313D02*
X0651193D01*
X06445D02*
Y182687D01*
X0651193Y182313D02*
Y182687D01*
X0728654Y176863D02*
X0735346D01*
X0728654Y177237D02*
X0735346D01*
Y176863D02*
Y177237D01*
X0728654Y176863D02*
Y177237D01*
X0684654Y185863D02*
Y186237D01*
X0691346Y185863D02*
Y186237D01*
X0684654D02*
X0691346D01*
X0684654Y185863D02*
X0691346D01*
X0684653Y185063D02*
Y185437D01*
X0691346Y185063D02*
Y185437D01*
X0684653D02*
X0691346D01*
X0684653Y185063D02*
X0691346D01*
X0691347Y186663D02*
Y187037D01*
X0684654Y186663D02*
Y187037D01*
Y186663D02*
X0691347D01*
X0684654Y187037D02*
X0691347D01*
X0691346Y184263D02*
Y184637D01*
X0684654Y184263D02*
Y184637D01*
Y184263D02*
X0691346D01*
X0684654Y184637D02*
X0691346D01*
X0770653Y156163D02*
X0777346D01*
X0770653Y156537D02*
X0777346D01*
Y156163D02*
Y156537D01*
X0770653Y156163D02*
Y156537D01*
X089337Y1572154D02*
Y1578846D01*
X088963Y1572154D02*
Y1578846D01*
X089337D01*
X088963Y1572154D02*
X089337D01*
X0770654Y157487D02*
X0777347D01*
X0770654Y157113D02*
X0777347D01*
X0770654D02*
Y157487D01*
X0777347Y157113D02*
Y157487D01*
X0741347Y164463D02*
Y164837D01*
X0734654Y164463D02*
Y164837D01*
Y164463D02*
X0741347D01*
X0734654Y164837D02*
X0741347D01*
X0770654Y158963D02*
X0777347D01*
X0770654Y159337D02*
X0777347D01*
Y158963D02*
Y159337D01*
X0770654Y158963D02*
Y159337D01*
Y158013D02*
X0777346D01*
X0770654Y158387D02*
X0777346D01*
Y158013D02*
Y158387D01*
X0770654Y158013D02*
Y158387D01*
X1120346Y164513D02*
Y164887D01*
X1113654Y164513D02*
Y164887D01*
Y164513D02*
X1120346D01*
X1113654Y164887D02*
X1120346D01*
X1103847Y164513D02*
Y164887D01*
X1097154Y164513D02*
Y164887D01*
Y164513D02*
X1103847D01*
X1097154Y164887D02*
X1103847D01*
X0952654Y171463D02*
Y171837D01*
X0959347Y171463D02*
Y171837D01*
X0952654D02*
X0959347D01*
X0952654Y171463D02*
X0959347D01*
X1103846Y171513D02*
Y171887D01*
X1097154Y171513D02*
Y171887D01*
Y171513D02*
X1103846D01*
X1097154Y171887D02*
X1103846D01*
X1103847Y168063D02*
Y168437D01*
X1097154Y168063D02*
Y168437D01*
Y168063D02*
X1103847D01*
X1097154Y168437D02*
X1103847D01*
X1120193Y168063D02*
Y168437D01*
X11135Y168063D02*
Y168437D01*
Y168063D02*
X1120193D01*
X11135Y168437D02*
X1120193D01*
X1120346Y171513D02*
Y171887D01*
X1113654Y171513D02*
Y171887D01*
Y171513D02*
X1120346D01*
X1113654Y171887D02*
X1120346D01*
X0952807Y172687D02*
X09595D01*
X0952807Y172313D02*
X09595D01*
X0952807D02*
Y172687D01*
X09595Y172313D02*
Y172687D01*
X0952654Y173487D02*
X0959347D01*
X0952654Y173113D02*
X0959347D01*
X0952654D02*
Y173487D01*
X0959347Y173113D02*
Y173487D01*
X096176Y1742272D02*
Y1747528D01*
X095076Y1742272D02*
Y1747528D01*
X096176D01*
X095076Y1742272D02*
X096176D01*
X0754307Y187137D02*
X0761D01*
X0754307Y186763D02*
X0761D01*
X0754307D02*
Y187137D01*
X0761Y186763D02*
Y187137D01*
X0754307Y184263D02*
X0761D01*
X0754307Y184637D02*
X0761D01*
Y184263D02*
Y184637D01*
X0754307Y184263D02*
Y184637D01*
Y185963D02*
X0761D01*
X0754307Y186337D02*
X0761D01*
Y185963D02*
Y186337D01*
X0754307Y185963D02*
Y186337D01*
X0754315Y185487D02*
X0761008D01*
X0754315Y185113D02*
X0761008D01*
X0754315D02*
Y185487D01*
X0761008Y185113D02*
Y185487D01*
X1098846Y174663D02*
Y175037D01*
X1092154Y174663D02*
Y175037D01*
Y174663D02*
X1098846D01*
X1092154Y175037D02*
X1098846D01*
X1092154Y175887D02*
X1098846D01*
X1092154Y175513D02*
X1098846D01*
X1092154D02*
Y175887D01*
X1098846Y175513D02*
Y175887D01*
X1092154Y176737D02*
X1098846D01*
X1092154Y176363D02*
X1098846D01*
X1092154D02*
Y176737D01*
X1098846Y176363D02*
Y176737D01*
X11135Y175513D02*
Y175887D01*
X1120193Y175513D02*
Y175887D01*
X11135D02*
X1120193D01*
X11135Y175513D02*
X1120193D01*
X1120346Y174663D02*
Y175037D01*
X1113654Y174663D02*
Y175037D01*
Y174663D02*
X1120346D01*
X1113654Y175037D02*
X1120346D01*
Y176363D02*
Y176737D01*
X1113654Y176363D02*
Y176737D01*
Y176363D02*
X1120346D01*
X1113654Y176737D02*
X1120346D01*
D129*
X0645Y1683781D02*
D03*
Y1709793D02*
D03*
X0687Y1672219D02*
D03*
X0645Y1736293D02*
D03*
D130*
X0687Y1709694D02*
D03*
M02*
