G04*
G04 #@! TF.GenerationSoftware,Altium Limited,Altium Designer,22.0.2 (36)*
G04*
G04 Layer_Color=128*
%FSTAX25Y25*%
%MOIN*%
G70*
G04*
G04 #@! TF.SameCoordinates,F14A6DB2-6BAA-43E7-8DF3-1F8C7E56E43F*
G04*
G04*
G04 #@! TF.FilePolarity,Positive*
G04*
G01*
G75*
%ADD10C,0.01000*%
%ADD48C,0.00098*%
%ADD49C,0.00100*%
%ADD131C,0.00200*%
D10*
X063Y17195D02*
Y1719691D01*
D48*
X0863411Y1991625D02*
X0863353Y1992598D01*
X0863207Y1993563D01*
X0862972Y1994509D01*
X086265Y199543D01*
X0862245Y1996317D01*
X086176Y1997163D01*
X0861199Y199796D01*
X0860567Y1998703D01*
X0859869Y1999384D01*
X0859111Y1999997D01*
X08583Y2000538D01*
X0857442Y2001002D01*
X0856545Y2001385D01*
X0855616Y2001683D01*
X0854664Y2001895D01*
X0853697Y2002018D01*
X0852722Y200205D01*
X0755765Y2002011D02*
X0754791Y2001954D01*
X0753827Y2001807D01*
X075288Y2001572D01*
X075196Y200125D01*
X0751072Y2000845D01*
X0750226Y200036D01*
X0749429Y1999799D01*
X0748686Y1999167D01*
X0748005Y1998468D01*
X0747391Y199771D01*
X074685Y1996899D01*
X0746386Y1996041D01*
X0746003Y1995144D01*
X0745705Y1994215D01*
X0745494Y1993263D01*
X0745371Y1992296D01*
X0745338Y1991321D01*
X086342Y189589D02*
X0863459Y1894908D01*
X0863574Y1893933D01*
X0863766Y1892969D01*
X0864032Y1892024D01*
X0864373Y1891102D01*
X0864784Y189021D01*
X0865264Y1889353D01*
X086581Y1888536D01*
X0866418Y1887765D01*
X0867085Y1887043D01*
X0867806Y1886376D01*
X0868577Y1885768D01*
X0869394Y1885222D01*
X0870251Y1884742D01*
X0871143Y1884331D01*
X0872065Y1883991D01*
X087301Y1883725D01*
X0873974Y1883533D01*
X0874949Y1883417D01*
X0875931Y1883379D01*
X0733121D02*
X073414Y1883434D01*
X0735152Y1883574D01*
X0736148Y1883796D01*
X0737122Y18841D01*
X0738068Y1884484D01*
X073898Y1884944D01*
X073985Y1885478D01*
X0740673Y1886082D01*
X0741443Y1886752D01*
X0742155Y1887483D01*
X0742805Y188827D01*
X0743387Y1889109D01*
X0743898Y1889992D01*
X0744335Y1890915D01*
X0744693Y1891871D01*
X0744972Y1892853D01*
X0745168Y1893855D01*
X0745281Y1894869D01*
X074531Y189589D01*
X0745338Y1895918D02*
Y1991321D01*
X0863411Y1895899D02*
Y1991625D01*
X0863411Y1991625D02*
X0863411Y1991625D01*
X0847523Y2002011D02*
X0852722Y200205D01*
X0755765Y2002011D02*
X0847523D01*
X0875931Y1883379D02*
X1105251D01*
X0503479D02*
X0733121D01*
D49*
X0477862Y1583292D02*
X0477882Y1582287D01*
X0477941Y1581285D01*
X047804Y1580285D01*
X0478177Y157929D01*
X0478354Y1578301D01*
X0478569Y157732D01*
X0478823Y1576348D01*
X0479114Y1575387D01*
X0479443Y1574438D01*
X0479809Y1573503D01*
X0480212Y1572583D01*
X048065Y1571679D01*
X0481123Y1570793D01*
X0481631Y1569927D01*
X0482173Y1569081D01*
X0482747Y1568257D01*
X0483353Y1567456D01*
X0483991Y156668D01*
X0484658Y1565929D01*
X0485354Y1565205D01*
X0486078Y1564509D01*
X0486829Y1563842D01*
X0487605Y1563204D01*
X0488406Y1562598D01*
X048923Y1562024D01*
X0490076Y1561482D01*
X0490942Y1560975D01*
X0491828Y1560501D01*
X0492732Y1560063D01*
X0493652Y155966D01*
X0494587Y1559294D01*
X0495536Y1558965D01*
X0496497Y1558673D01*
X0497469Y155842D01*
X049845Y1558205D01*
X0499439Y1558028D01*
X0500434Y1557891D01*
X0501434Y1557792D01*
X0502436Y1557733D01*
X0503441Y1557713D01*
X1130829Y1857801D02*
X1130809Y1858805D01*
X113075Y1859807D01*
X1130652Y1860807D01*
X1130514Y1861802D01*
X1130338Y1862791D01*
X1130122Y1863772D01*
X1129869Y1864744D01*
X1129577Y1865705D01*
X1129248Y1866654D01*
X1128882Y1867589D01*
X112848Y1868509D01*
X1128041Y1869413D01*
X1127568Y1870299D01*
X112706Y1871165D01*
X1126519Y1872011D01*
X1125944Y1872835D01*
X1125338Y1873636D01*
X1124701Y1874412D01*
X1124034Y1875163D01*
X1123337Y1875887D01*
X1122614Y1876583D01*
X1121863Y187725D01*
X1121086Y1877888D01*
X1120285Y1878494D01*
X1119461Y1879068D01*
X1118616Y187961D01*
X1117749Y1880117D01*
X1116863Y1880591D01*
X1115959Y1881029D01*
X1115039Y1881432D01*
X1114104Y1881798D01*
X1113155Y1882127D01*
X1112194Y1882418D01*
X1111222Y1882672D01*
X1110241Y1882887D01*
X1109252Y1883064D01*
X1108257Y1883202D01*
X1107258Y18833D01*
X1106255Y1883359D01*
X1105251Y1883379D01*
X1105917Y1557713D02*
X1106914Y155782D01*
X1107908Y1557964D01*
X1108895Y1558143D01*
X1109875Y1558359D01*
X1110846Y1558611D01*
X1111808Y1558898D01*
X1112758Y155922D01*
X1113696Y1559577D01*
X111462Y1559968D01*
X1115529Y1560393D01*
X1116422Y156085D01*
X1117298Y156134D01*
X1118155Y1561862D01*
X1118992Y1562415D01*
X1119809Y1562999D01*
X1120603Y1563611D01*
X1121375Y1564253D01*
X1122123Y1564923D01*
X1122845Y1565619D01*
X1123542Y1566341D01*
X1124211Y1567089D01*
X1124852Y156786D01*
X1125465Y1568655D01*
X1126049Y1569471D01*
X1126602Y1570309D01*
X1127124Y1571166D01*
X1127614Y1572042D01*
X1128071Y1572935D01*
X1128496Y1573844D01*
X1128887Y1574768D01*
X1129244Y1575706D01*
X1129566Y1576656D01*
X1129853Y1577618D01*
X1130105Y1578589D01*
X1130321Y1579569D01*
X1130501Y1580556D01*
X1130644Y1581549D01*
X1130751Y1582547D01*
X0503441Y188334D02*
X0502436Y188332D01*
X0501434Y1883261D01*
X0500434Y1883163D01*
X0499439Y1883025D01*
X049845Y1882848D01*
X0497469Y1882633D01*
X0496497Y188238D01*
X0495536Y1882088D01*
X0494587Y1881759D01*
X0493652Y1881393D01*
X0492732Y188099D01*
X0491828Y1880552D01*
X0490942Y1880079D01*
X0490076Y1879571D01*
X048923Y1879029D01*
X0488406Y1878455D01*
X0487605Y1877849D01*
X0486829Y1877212D01*
X0486078Y1876544D01*
X0485354Y1875848D01*
X0484658Y1875124D01*
X0483991Y1874373D01*
X0483353Y1873597D01*
X0482747Y1872796D01*
X0482173Y1871972D01*
X0481631Y1871126D01*
X0481123Y187026D01*
X048065Y1869374D01*
X0480212Y186847D01*
X0479809Y186755D01*
X0479443Y1866615D01*
X0479114Y1865666D01*
X0478823Y1864705D01*
X0478569Y1863733D01*
X0478354Y1862752D01*
X0478177Y1861763D01*
X047804Y1860768D01*
X0477941Y1859768D01*
X0477882Y1858766D01*
X0477862Y1857762D01*
X1130751Y1582548D02*
X1130829Y1582626D01*
Y1857801D01*
X0477862Y1583292D02*
Y1857762D01*
X050344Y1557713D02*
X1105917D01*
D131*
X0971594Y1620527D02*
X0984094D01*
X0977844Y1614277D02*
Y1626777D01*
X097175Y18235D02*
X098425D01*
X0978Y181725D02*
Y182975D01*
X062775Y16205D02*
X064025D01*
X0634Y161425D02*
Y162675D01*
X062375Y1820523D02*
X063625D01*
X063Y1814273D02*
Y1826773D01*
X0645228Y1754D02*
X0648772D01*
X0647Y1752228D02*
Y1755772D01*
X0655228Y1754D02*
X0658772D01*
X0657Y1752228D02*
Y1755772D01*
X0665228Y1754D02*
X0668772D01*
X0667Y1752228D02*
Y1755772D01*
X0675228Y1754D02*
X0678772D01*
X0677Y1752228D02*
Y1755772D01*
X0685228Y1754D02*
X0688772D01*
X0687Y1752228D02*
Y1755772D01*
X0695228Y1754D02*
X0698772D01*
X0697Y1752228D02*
Y1755772D01*
X0695228Y1654D02*
X0698772D01*
X0697Y1652228D02*
Y1655772D01*
X0685228Y1654D02*
X0688772D01*
X0687Y1652228D02*
Y1655772D01*
X0675228Y1654D02*
X0678772D01*
X0677Y1652228D02*
Y1655772D01*
X0665228Y1654D02*
X0668772D01*
X0667Y1652228D02*
Y1655772D01*
X0655228Y1654D02*
X0658772D01*
X0657Y1652228D02*
Y1655772D01*
X0645228Y1654D02*
X0648772D01*
X0647Y1652228D02*
Y1655772D01*
X079809Y1900696D02*
X081059D01*
X080434Y1894446D02*
Y1906946D01*
X0755901Y1942384D02*
X0768401D01*
X0762151Y1936134D02*
Y1948634D01*
X079809Y1983323D02*
X081059D01*
X080434Y1977073D02*
Y1989573D01*
X083862Y1942384D02*
X085112D01*
X084487Y1936134D02*
Y1948634D01*
X0507882Y1660366D02*
X0518118D01*
X0513Y1655248D02*
Y1665484D01*
X0507882Y16395D02*
X0518118D01*
X0513Y1634382D02*
Y1644618D01*
X0510638Y17535D02*
X0515362D01*
X0513Y1751138D02*
Y1755862D01*
X0510638Y1734602D02*
X0515362D01*
X0513Y173224D02*
Y1736965D01*
X0510638Y1715705D02*
X0515362D01*
X0513Y1713343D02*
Y1718067D01*
X053048Y1579D02*
X0535205D01*
X0532843Y1576638D02*
Y1581362D01*
X0510795Y1579D02*
X051552D01*
X0513157Y1576638D02*
Y1581362D01*
X0761228Y1654D02*
X0764772D01*
X0763Y1652228D02*
Y1655772D01*
X0771228Y1654D02*
X0774772D01*
X0773Y1652228D02*
Y1655772D01*
X0781228Y1654D02*
X0784772D01*
X0783Y1652228D02*
Y1655772D01*
X0791228Y1654D02*
X0794772D01*
X0793Y1652228D02*
Y1655772D01*
X0801228Y1654D02*
X0804772D01*
X0803Y1652228D02*
Y1655772D01*
X0811228Y1654D02*
X0814772D01*
X0813Y1652228D02*
Y1655772D01*
X0811228Y1754D02*
X0814772D01*
X0813Y1752228D02*
Y1755772D01*
X0801228Y1754D02*
X0804772D01*
X0803Y1752228D02*
Y1755772D01*
X0791228Y1754D02*
X0794772D01*
X0793Y1752228D02*
Y1755772D01*
X0781228Y1754D02*
X0784772D01*
X0783Y1752228D02*
Y1755772D01*
X0771228Y1754D02*
X0774772D01*
X0773Y1752228D02*
Y1755772D01*
X0761228Y1754D02*
X0764772D01*
X0763Y1752228D02*
Y1755772D01*
X052998Y18635D02*
X0534705D01*
X0532343Y1861138D02*
Y1865862D01*
X0510295Y18635D02*
X051502D01*
X0512657Y1861138D02*
Y1865862D01*
X0557425Y17975D02*
X0560575D01*
X0559Y1795925D02*
Y1799075D01*
X0547425Y17975D02*
X0550575D01*
X0549Y1795925D02*
Y1799075D01*
X0537425Y17975D02*
X0540575D01*
X0539Y1795925D02*
Y1799075D01*
X0599728Y18655D02*
X0603272D01*
X06015Y1863728D02*
Y1867272D01*
X0609728Y18655D02*
X0613272D01*
X06115Y1863728D02*
Y1867272D01*
X0619728Y18655D02*
X0623272D01*
X06215Y1863728D02*
Y1867272D01*
X0695228Y18045D02*
X0698772D01*
X0697Y1802728D02*
Y1806272D01*
X0685228Y18045D02*
X0688772D01*
X0687Y1802728D02*
Y1806272D01*
X0675228Y18045D02*
X0678772D01*
X0677Y1802728D02*
Y1806272D01*
X0665228Y18045D02*
X0668772D01*
X0667Y1802728D02*
Y1806272D01*
X0655228Y18045D02*
X0658772D01*
X0657Y1802728D02*
Y1806272D01*
X0645228Y18045D02*
X0648772D01*
X0647Y1802728D02*
Y1806272D01*
X0761228Y1805D02*
X0764772D01*
X0763Y1803228D02*
Y1806772D01*
X0771228Y1805D02*
X0774772D01*
X0773Y1803228D02*
Y1806772D01*
X0781228Y1805D02*
X0784772D01*
X0783Y1803228D02*
Y1806772D01*
X0791228Y1805D02*
X0794772D01*
X0793Y1803228D02*
Y1806772D01*
X0801228Y1805D02*
X0804772D01*
X0803Y1803228D02*
Y1806772D01*
X0811228Y1805D02*
X0814772D01*
X0813Y1803228D02*
Y1806772D01*
X0960228Y1655D02*
X0963772D01*
X0962Y1653228D02*
Y1656772D01*
X0970228Y1645D02*
X0973772D01*
X0972Y1643228D02*
Y1646772D01*
X0980228Y1655D02*
X0983772D01*
X0982Y1653228D02*
Y1656772D01*
X1000228Y1645D02*
X1003772D01*
X1002Y1643228D02*
Y1646772D01*
X1020228Y1645D02*
X1023772D01*
X1022Y1643228D02*
Y1646772D01*
X1040228Y1665D02*
X1043772D01*
X1042Y1663228D02*
Y1666772D01*
X1050228Y1675D02*
X1053772D01*
X1052Y1673228D02*
Y1676772D01*
X1050228Y1685D02*
X1053772D01*
X1052Y1683228D02*
Y1686772D01*
X1050228Y1695D02*
X1053772D01*
X1052Y1693228D02*
Y1696772D01*
X1040228Y1695D02*
X1043772D01*
X1042Y1693228D02*
Y1696772D01*
X1040228Y1755D02*
X1043772D01*
X1042Y1753228D02*
Y1756772D01*
X1050228Y1755D02*
X1053772D01*
X1052Y1753228D02*
Y1756772D01*
X1040228Y1765D02*
X1043772D01*
X1042Y1763228D02*
Y1766772D01*
X1050228Y1765D02*
X1053772D01*
X1052Y1763228D02*
Y1766772D01*
X1040228Y1775D02*
X1043772D01*
X1042Y1773228D02*
Y1776772D01*
X1020228Y1805D02*
X1023772D01*
X1022Y1803228D02*
Y1806772D01*
X1010228Y1795D02*
X1013772D01*
X1012Y1793228D02*
Y1796772D01*
X1010228Y1805D02*
X1013772D01*
X1012Y1803228D02*
Y1806772D01*
X0990228Y1795D02*
X0993772D01*
X0992Y1793228D02*
Y1796772D01*
X0990228Y1805D02*
X0993772D01*
X0992Y1803228D02*
Y1806772D01*
X0980228Y1795D02*
X0983772D01*
X0982Y1793228D02*
Y1796772D01*
X0980228Y1805D02*
X0983772D01*
X0982Y1803228D02*
Y1806772D01*
X0970228Y1795D02*
X0973772D01*
X0972Y1793228D02*
Y1796772D01*
X0950228Y1805D02*
X0953772D01*
X0952Y1803228D02*
Y1806772D01*
X0940228Y1795D02*
X0943772D01*
X0942Y1793228D02*
Y1796772D01*
X0940228Y1805D02*
X0943772D01*
X0942Y1803228D02*
Y1806772D01*
X0860228Y1665D02*
X0863772D01*
X0862Y1663228D02*
Y1666772D01*
X0870228Y1665D02*
X0873772D01*
X0872Y1663228D02*
Y1666772D01*
X0860228Y1675D02*
X0863772D01*
X0862Y1673228D02*
Y1676772D01*
X0870228Y1675D02*
X0873772D01*
X0872Y1673228D02*
Y1676772D01*
X0860228Y1685D02*
X0863772D01*
X0862Y1683228D02*
Y1686772D01*
X0870228Y1685D02*
X0873772D01*
X0872Y1683228D02*
Y1686772D01*
X0860228Y1695D02*
X0863772D01*
X0862Y1693228D02*
Y1696772D01*
X0870228Y1695D02*
X0873772D01*
X0872Y1693228D02*
Y1696772D01*
X0860228Y1705D02*
X0863772D01*
X0862Y1703228D02*
Y1706772D01*
X0870228Y1705D02*
X0873772D01*
X0872Y1703228D02*
Y1706772D01*
X0860228Y1715D02*
X0863772D01*
X0862Y1713228D02*
Y1716772D01*
X0870228Y1715D02*
X0873772D01*
X0872Y1713228D02*
Y1716772D01*
X0860228Y1725D02*
X0863772D01*
X0862Y1723228D02*
Y1726772D01*
X0870228Y1725D02*
X0873772D01*
X0872Y1723228D02*
Y1726772D01*
X0870228Y1735D02*
X0873772D01*
X0872Y1733228D02*
Y1736772D01*
X0860228Y1735D02*
X0863772D01*
X0862Y1733228D02*
Y1736772D01*
X0860228Y1745D02*
X0863772D01*
X0862Y1743228D02*
Y1746772D01*
X0870228Y1745D02*
X0873772D01*
X0872Y1743228D02*
Y1746772D01*
X0860228Y1755D02*
X0863772D01*
X0862Y1753228D02*
Y1756772D01*
X0870228Y1755D02*
X0873772D01*
X0872Y1753228D02*
Y1756772D01*
X0860228Y1765D02*
X0863772D01*
X0862Y1763228D02*
Y1766772D01*
X0870228Y1765D02*
X0873772D01*
X0872Y1763228D02*
Y1766772D01*
X0860228Y1775D02*
X0863772D01*
X0862Y1773228D02*
Y1776772D01*
X0870228Y1775D02*
X0873772D01*
X0872Y1773228D02*
Y1776772D01*
X0860228Y1785D02*
X0863772D01*
X0862Y1783228D02*
Y1786772D01*
X0870228Y1785D02*
X0873772D01*
X0872Y1783228D02*
Y1786772D01*
X0860228Y1805D02*
X0863772D01*
X0862Y1803228D02*
Y1806772D01*
X0860228Y1795D02*
X0863772D01*
X0862Y1793228D02*
Y1796772D01*
X0870228Y1805D02*
X0873772D01*
X0872Y1803228D02*
Y1806772D01*
X0870228Y1795D02*
X0873772D01*
X0872Y1793228D02*
Y1796772D01*
X0880228Y1805D02*
X0883772D01*
X0882Y1803228D02*
Y1806772D01*
X0880228Y1795D02*
X0883772D01*
X0882Y1793228D02*
Y1796772D01*
X0890228Y1805D02*
X0893772D01*
X0892Y1803228D02*
Y1806772D01*
X0890228Y1795D02*
X0893772D01*
X0892Y1793228D02*
Y1796772D01*
X0900228Y1805D02*
X0903772D01*
X0902Y1803228D02*
Y1806772D01*
X0900228Y1795D02*
X0903772D01*
X0902Y1793228D02*
Y1796772D01*
X0910228Y1805D02*
X0913772D01*
X0912Y1803228D02*
Y1806772D01*
X0910228Y1795D02*
X0913772D01*
X0912Y1793228D02*
Y1796772D01*
X0920228Y1805D02*
X0923772D01*
X0922Y1803228D02*
Y1806772D01*
X0920228Y1795D02*
X0923772D01*
X0922Y1793228D02*
Y1796772D01*
X0930228Y1805D02*
X0933772D01*
X0932Y1803228D02*
Y1806772D01*
X0930228Y1795D02*
X0933772D01*
X0932Y1793228D02*
Y1796772D01*
X0950228Y1795D02*
X0953772D01*
X0952Y1793228D02*
Y1796772D01*
X0960228Y1805D02*
X0963772D01*
X0962Y1803228D02*
Y1806772D01*
X0960228Y1795D02*
X0963772D01*
X0962Y1793228D02*
Y1796772D01*
X0970228Y1805D02*
X0973772D01*
X0972Y1803228D02*
Y1806772D01*
X1000228Y1805D02*
X1003772D01*
X1002Y1803228D02*
Y1806772D01*
X1000228Y1795D02*
X1003772D01*
X1002Y1793228D02*
Y1796772D01*
X1020228Y1795D02*
X1023772D01*
X1022Y1793228D02*
Y1796772D01*
X1030228Y1805D02*
X1033772D01*
X1032Y1803228D02*
Y1806772D01*
X1030228Y1795D02*
X1033772D01*
X1032Y1793228D02*
Y1796772D01*
X1040228Y1805D02*
X1043772D01*
X1042Y1803228D02*
Y1806772D01*
X1040228Y1795D02*
X1043772D01*
X1042Y1793228D02*
Y1796772D01*
X1050228Y1805D02*
X1053772D01*
X1052Y1803228D02*
Y1806772D01*
X1050228Y1795D02*
X1053772D01*
X1052Y1793228D02*
Y1796772D01*
X1050228Y1785D02*
X1053772D01*
X1052Y1783228D02*
Y1786772D01*
X1040228Y1785D02*
X1043772D01*
X1042Y1783228D02*
Y1786772D01*
X1050228Y1775D02*
X1053772D01*
X1052Y1773228D02*
Y1776772D01*
X1040228Y1685D02*
X1043772D01*
X1042Y1683228D02*
Y1686772D01*
X1040228Y1675D02*
X1043772D01*
X1042Y1673228D02*
Y1676772D01*
X1050228Y1665D02*
X1053772D01*
X1052Y1663228D02*
Y1666772D01*
X1050228Y1655D02*
X1053772D01*
X1052Y1653228D02*
Y1656772D01*
X1050228Y1645D02*
X1053772D01*
X1052Y1643228D02*
Y1646772D01*
X1040228Y1655D02*
X1043772D01*
X1042Y1653228D02*
Y1656772D01*
X1040228Y1645D02*
X1043772D01*
X1042Y1643228D02*
Y1646772D01*
X1030228Y1655D02*
X1033772D01*
X1032Y1653228D02*
Y1656772D01*
X1030228Y1645D02*
X1033772D01*
X1032Y1643228D02*
Y1646772D01*
X1020228Y1655D02*
X1023772D01*
X1022Y1653228D02*
Y1656772D01*
X1010228Y1655D02*
X1013772D01*
X1012Y1653228D02*
Y1656772D01*
X1010228Y1645D02*
X1013772D01*
X1012Y1643228D02*
Y1646772D01*
X1000228Y1655D02*
X1003772D01*
X1002Y1653228D02*
Y1656772D01*
X0990228Y1655D02*
X0993772D01*
X0992Y1653228D02*
Y1656772D01*
X0990228Y1645D02*
X0993772D01*
X0992Y1643228D02*
Y1646772D01*
X0980228Y1645D02*
X0983772D01*
X0982Y1643228D02*
Y1646772D01*
X0970228Y1655D02*
X0973772D01*
X0972Y1653228D02*
Y1656772D01*
X0960228Y1645D02*
X0963772D01*
X0962Y1643228D02*
Y1646772D01*
X0950228Y1655D02*
X0953772D01*
X0952Y1653228D02*
Y1656772D01*
X0950228Y1645D02*
X0953772D01*
X0952Y1643228D02*
Y1646772D01*
X0940228Y1655D02*
X0943772D01*
X0942Y1653228D02*
Y1656772D01*
X0940228Y1645D02*
X0943772D01*
X0942Y1643228D02*
Y1646772D01*
X0930228Y1655D02*
X0933772D01*
X0932Y1653228D02*
Y1656772D01*
X0930228Y1645D02*
X0933772D01*
X0932Y1643228D02*
Y1646772D01*
X0920228Y1655D02*
X0923772D01*
X0922Y1653228D02*
Y1656772D01*
X0920228Y1645D02*
X0923772D01*
X0922Y1643228D02*
Y1646772D01*
X0910228Y1655D02*
X0913772D01*
X0912Y1653228D02*
Y1656772D01*
X0910228Y1645D02*
X0913772D01*
X0912Y1643228D02*
Y1646772D01*
X0900228Y1655D02*
X0903772D01*
X0902Y1653228D02*
Y1656772D01*
X0900228Y1645D02*
X0903772D01*
X0902Y1643228D02*
Y1646772D01*
X0890228Y1655D02*
X0893772D01*
X0892Y1653228D02*
Y1656772D01*
X0890228Y1645D02*
X0893772D01*
X0892Y1643228D02*
Y1646772D01*
X0880228Y1655D02*
X0883772D01*
X0882Y1653228D02*
Y1656772D01*
X0880228Y1645D02*
X0883772D01*
X0882Y1643228D02*
Y1646772D01*
X0870228Y1655D02*
X0873772D01*
X0872Y1653228D02*
Y1656772D01*
X0870228Y1645D02*
X0873772D01*
X0872Y1643228D02*
Y1646772D01*
X0860228Y1655D02*
X0863772D01*
X0862Y1653228D02*
Y1656772D01*
X0860228Y1645D02*
X0863772D01*
X0862Y1643228D02*
Y1646772D01*
X0982728Y1742843D02*
X0986272D01*
X09845Y1741071D02*
Y1744614D01*
X0982728Y1723157D02*
X0986272D01*
X09845Y1721386D02*
Y1724929D01*
X0998728Y18685D02*
X1002272D01*
X10005Y1866728D02*
Y1870272D01*
X1008728Y18685D02*
X1012272D01*
X10105Y1866728D02*
Y1870272D01*
X1018728Y18685D02*
X1022272D01*
X10205Y1866728D02*
Y1870272D01*
X1028728Y18685D02*
X1032272D01*
X10305Y1866728D02*
Y1870272D01*
X1038728Y18685D02*
X1042272D01*
X10405Y1866728D02*
Y1870272D01*
X1048728Y18685D02*
X1052272D01*
X10505Y1866728D02*
Y1870272D01*
X1058728Y18685D02*
X1062272D01*
X10605Y1866728D02*
Y1870272D01*
X1068728Y18685D02*
X1072272D01*
X10705Y1866728D02*
Y1870272D01*
X1041228Y1573D02*
X1044772D01*
X1043Y1571228D02*
Y1574772D01*
X1031228Y1573D02*
X1034772D01*
X1033Y1571228D02*
Y1574772D01*
X1021228Y1573D02*
X1024772D01*
X1023Y1571228D02*
Y1574772D01*
X1011228Y1573D02*
X1014772D01*
X1013Y1571228D02*
Y1574772D01*
X1088728Y15725D02*
X1092272D01*
X10905Y1570728D02*
Y1574272D01*
X1078728Y15725D02*
X1082272D01*
X10805Y1570728D02*
Y1574272D01*
X1068728Y15725D02*
X1072272D01*
X10705Y1570728D02*
Y1574272D01*
X1110228Y1812D02*
X1113772D01*
X1112Y1810228D02*
Y1813772D01*
X1100228Y1812D02*
X1103772D01*
X1102Y1810228D02*
Y1813772D01*
X1110228Y1782D02*
X1113772D01*
X1112Y1780228D02*
Y1783772D01*
X1100228Y1782D02*
X1103772D01*
X1102Y1780228D02*
Y1783772D01*
X09611Y1635D02*
X09639D01*
X09625Y16336D02*
Y16364D01*
X0992013Y15665D02*
X0994813D01*
X0993413Y15651D02*
Y15679D01*
X09546Y1709D02*
X09574D01*
X0956Y17076D02*
Y17104D01*
X06586Y1691D02*
X06614D01*
X066Y16896D02*
Y16924D01*
X0481238Y1674D02*
X0484038D01*
X0482638Y16726D02*
Y16754D01*
X05481Y171D02*
X05509D01*
X05495Y17086D02*
Y17114D01*
X05701Y1582D02*
X05729D01*
X05715Y15806D02*
Y15834D01*
X05836Y1739D02*
X05864D01*
X0585Y17376D02*
Y17404D01*
X05861Y1618D02*
X05889D01*
X05875Y16166D02*
Y16194D01*
X05996Y1593D02*
X06024D01*
X0601Y15916D02*
Y15944D01*
X07126Y15635D02*
X07154D01*
X0714Y15621D02*
Y15649D01*
X07816Y15635D02*
X07844D01*
X0783Y15621D02*
Y15649D01*
X07891Y1568748D02*
X07919D01*
X07905Y1567348D02*
Y1570148D01*
X07126Y1573D02*
X07154D01*
X0714Y15716D02*
Y15744D01*
X07816Y1573D02*
X07844D01*
X0783Y15716D02*
Y15744D01*
X06846Y1582D02*
X06874D01*
X0686Y15806D02*
Y15834D01*
X07126Y15825D02*
X07154D01*
X0714Y15811D02*
Y15839D01*
X07611Y15875D02*
X07639D01*
X07625Y15861D02*
Y15889D01*
X07991Y15906D02*
X08019D01*
X08005Y15892D02*
Y1592D01*
X07126D02*
X07154D01*
X0714Y15906D02*
Y15934D01*
X06656Y1625D02*
X06684D01*
X0667Y16236D02*
Y16264D01*
X07501Y16375D02*
X07529D01*
X07515Y16361D02*
Y16389D01*
X07931Y16685D02*
X07959D01*
X07945Y16671D02*
Y16699D01*
X07946Y16785D02*
X07974D01*
X0796Y16771D02*
Y16799D01*
X06786Y16915D02*
X06814D01*
X068Y16901D02*
Y16929D01*
X07056Y17095D02*
X07084D01*
X0707Y17081D02*
Y17109D01*
X06656Y1715D02*
X06684D01*
X0667Y17136D02*
Y17164D01*
X07946Y17285D02*
X07974D01*
X0796Y17271D02*
Y17299D01*
X07061Y1736D02*
X07089D01*
X07075Y17346D02*
Y17374D01*
X06656Y1741D02*
X06684D01*
X0667Y17396D02*
Y17424D01*
X05671Y1813D02*
X05699D01*
X05685Y18116D02*
Y18144D01*
X05696Y17975D02*
X05724D01*
X0571Y17961D02*
Y17989D01*
X05781Y18425D02*
X05809D01*
X05795Y18411D02*
Y18439D01*
X06496Y1833D02*
X06524D01*
X0651Y18316D02*
Y18344D01*
X07701Y1775D02*
X07729D01*
X07715Y17736D02*
Y17764D01*
X08026Y1834D02*
X08054D01*
X0804Y18326D02*
Y18354D01*
X07806Y1843D02*
X07834D01*
X0782Y18416D02*
Y18444D01*
X07026Y18445D02*
X07054D01*
X0704Y18431D02*
Y18459D01*
X0703404Y18525D02*
X0706204D01*
X0704804Y18511D02*
Y18539D01*
X07106Y1856D02*
X07134D01*
X0712Y18546D02*
Y18574D01*
X07026Y18605D02*
X07054D01*
X0704Y18591D02*
Y18619D01*
X07806Y18628D02*
X07834D01*
X0782Y18614D02*
Y18642D01*
X07026Y1868D02*
X07054D01*
X0704Y18666D02*
Y18694D01*
X07711Y1877D02*
X07739D01*
X07725Y18756D02*
Y18784D01*
X07601Y1877D02*
X07629D01*
X07615Y18756D02*
Y18784D01*
X08216Y1587D02*
X08244D01*
X0823Y15856D02*
Y15884D01*
X08356Y16083D02*
X08384D01*
X0837Y16069D02*
Y16097D01*
X08356Y1596D02*
X08384D01*
X0837Y15946D02*
Y15974D01*
X08356Y16025D02*
X08384D01*
X0837Y16011D02*
Y16039D01*
X08356Y1627696D02*
X08384D01*
X0837Y1626296D02*
Y1629096D01*
X08356Y1635D02*
X08384D01*
X0837Y16336D02*
Y16364D01*
X08356Y1622D02*
X08384D01*
X0837Y16206D02*
Y16234D01*
X08356Y16415D02*
X08384D01*
X0837Y16401D02*
Y16429D01*
X08356Y16155D02*
X08384D01*
X0837Y16141D02*
Y16169D01*
X08606Y1588D02*
X08634D01*
X0862Y15866D02*
Y15894D01*
X08606Y1569D02*
X08634D01*
X0862Y15676D02*
Y15704D01*
X09756Y1674954D02*
X09784D01*
X0977Y1673554D02*
Y1676354D01*
X09856Y1684993D02*
X09884D01*
X0987Y1683593D02*
Y1686393D01*
X08196Y1848D02*
X08224D01*
X0821Y18466D02*
Y18494D01*
X08266Y18565D02*
X08294D01*
X0828Y18551D02*
Y18579D01*
X08606Y18775D02*
X08634D01*
X0862Y18761D02*
Y18789D01*
X0954632Y1696051D02*
X0957432D01*
X0956032Y1694651D02*
Y1697451D01*
X09386Y17165D02*
X09414D01*
X094Y17151D02*
Y17179D01*
X09386Y1725D02*
X09414D01*
X094Y17236D02*
Y17264D01*
X08831Y18465D02*
X08859D01*
X08845Y18451D02*
Y18479D01*
X11041Y1761D02*
X11069D01*
X11055Y17596D02*
Y17624D01*
X11121Y1772D02*
X11149D01*
X11135Y17706D02*
Y17734D01*
X10856Y18305D02*
X10884D01*
X1087Y18291D02*
Y18319D01*
M02*
