G04*
G04 #@! TF.GenerationSoftware,Altium Limited,Altium Designer,22.0.2 (36)*
G04*
G04 Layer_Color=255*
%FSTAX25Y25*%
%MOIN*%
G70*
G04*
G04 #@! TF.SameCoordinates,F14A6DB2-6BAA-43E7-8DF3-1F8C7E56E43F*
G04*
G04*
G04 #@! TF.FilePolarity,Positive*
G04*
G01*
G75*
%ADD10C,0.01000*%
%ADD48C,0.00098*%
%ADD49C,0.00100*%
%ADD50R,0.06890X0.08661*%
%ADD51R,0.06299X0.05118*%
%ADD52R,0.03937X0.10630*%
%ADD53R,0.05118X0.06299*%
%ADD54R,0.03543X0.03740*%
%ADD55R,0.03740X0.03543*%
%ADD56R,0.26378X0.21654*%
%ADD57R,0.08661X0.03740*%
%ADD58R,0.03347X0.03937*%
G04:AMPARAMS|DCode=59|XSize=425.2mil|YSize=433.07mil|CornerRadius=21.26mil|HoleSize=0mil|Usage=FLASHONLY|Rotation=0.000|XOffset=0mil|YOffset=0mil|HoleType=Round|Shape=RoundedRectangle|*
%AMROUNDEDRECTD59*
21,1,0.42520,0.39055,0,0,0.0*
21,1,0.38268,0.43307,0,0,0.0*
1,1,0.04252,0.19134,-0.19528*
1,1,0.04252,-0.19134,-0.19528*
1,1,0.04252,-0.19134,0.19528*
1,1,0.04252,0.19134,0.19528*
%
%ADD59ROUNDEDRECTD59*%
%ADD60R,0.04213X0.13780*%
G04:AMPARAMS|DCode=61|XSize=42.13mil|YSize=137.8mil|CornerRadius=10.53mil|HoleSize=0mil|Usage=FLASHONLY|Rotation=0.000|XOffset=0mil|YOffset=0mil|HoleType=Round|Shape=RoundedRectangle|*
%AMROUNDEDRECTD61*
21,1,0.04213,0.11673,0,0,0.0*
21,1,0.02106,0.13780,0,0,0.0*
1,1,0.02106,0.01053,-0.05837*
1,1,0.02106,-0.01053,-0.05837*
1,1,0.02106,-0.01053,0.05837*
1,1,0.02106,0.01053,0.05837*
%
%ADD61ROUNDEDRECTD61*%
%ADD62R,0.03347X0.03150*%
%ADD63R,0.04724X0.05906*%
%ADD64R,0.04016X0.12992*%
%ADD65R,0.04331X0.02362*%
%ADD66R,0.09843X0.13386*%
%ADD67R,0.06299X0.02559*%
%ADD68R,0.11811X0.09843*%
%ADD69R,0.10630X0.03937*%
%ADD70R,0.03150X0.03347*%
%ADD71R,0.12992X0.04016*%
%ADD72R,0.04724X0.02756*%
%ADD73R,0.02559X0.04134*%
%ADD114C,0.20000*%
%ADD115C,0.05906*%
%ADD116R,0.05906X0.05906*%
G04:AMPARAMS|DCode=117|XSize=236.22mil|YSize=157.48mil|CornerRadius=39.37mil|HoleSize=0mil|Usage=FLASHONLY|Rotation=0.000|XOffset=0mil|YOffset=0mil|HoleType=Round|Shape=RoundedRectangle|*
%AMROUNDEDRECTD117*
21,1,0.23622,0.07874,0,0,0.0*
21,1,0.15748,0.15748,0,0,0.0*
1,1,0.07874,0.07874,-0.03937*
1,1,0.07874,-0.07874,-0.03937*
1,1,0.07874,-0.07874,0.03937*
1,1,0.07874,0.07874,0.03937*
%
%ADD117ROUNDEDRECTD117*%
%ADD118R,0.13780X0.08661*%
%ADD119O,0.07874X0.11811*%
%ADD120C,0.07087*%
%ADD121R,0.07087X0.07087*%
%ADD122C,0.05906*%
%ADD123R,0.05906X0.05906*%
D10*
X063Y17195D02*
Y1719691D01*
D48*
X0863411Y1991625D02*
X0863353Y1992598D01*
X0863207Y1993563D01*
X0862972Y1994509D01*
X086265Y199543D01*
X0862245Y1996317D01*
X086176Y1997163D01*
X0861199Y199796D01*
X0860567Y1998703D01*
X0859869Y1999384D01*
X0859111Y1999997D01*
X08583Y2000538D01*
X0857442Y2001002D01*
X0856545Y2001385D01*
X0855616Y2001683D01*
X0854664Y2001895D01*
X0853697Y2002018D01*
X0852722Y200205D01*
X0755765Y2002011D02*
X0754791Y2001954D01*
X0753827Y2001807D01*
X075288Y2001572D01*
X075196Y200125D01*
X0751072Y2000845D01*
X0750226Y200036D01*
X0749429Y1999799D01*
X0748686Y1999167D01*
X0748005Y1998468D01*
X0747391Y199771D01*
X074685Y1996899D01*
X0746386Y1996041D01*
X0746003Y1995144D01*
X0745705Y1994215D01*
X0745494Y1993263D01*
X0745371Y1992296D01*
X0745338Y1991321D01*
X086342Y189589D02*
X0863459Y1894908D01*
X0863574Y1893933D01*
X0863766Y1892969D01*
X0864032Y1892024D01*
X0864373Y1891102D01*
X0864784Y189021D01*
X0865264Y1889353D01*
X086581Y1888536D01*
X0866418Y1887765D01*
X0867085Y1887043D01*
X0867806Y1886376D01*
X0868577Y1885768D01*
X0869394Y1885222D01*
X0870251Y1884742D01*
X0871143Y1884331D01*
X0872065Y1883991D01*
X087301Y1883725D01*
X0873974Y1883533D01*
X0874949Y1883417D01*
X0875931Y1883379D01*
X0733121D02*
X073414Y1883434D01*
X0735152Y1883574D01*
X0736148Y1883796D01*
X0737122Y18841D01*
X0738068Y1884484D01*
X073898Y1884944D01*
X073985Y1885478D01*
X0740673Y1886082D01*
X0741443Y1886752D01*
X0742155Y1887483D01*
X0742805Y188827D01*
X0743387Y1889109D01*
X0743898Y1889992D01*
X0744335Y1890915D01*
X0744693Y1891871D01*
X0744972Y1892853D01*
X0745168Y1893855D01*
X0745281Y1894869D01*
X074531Y189589D01*
X0745338Y1895918D02*
Y1991321D01*
X0863411Y1895899D02*
Y1991625D01*
X0863411Y1991625D02*
X0863411Y1991625D01*
X0847523Y2002011D02*
X0852722Y200205D01*
X0755765Y2002011D02*
X0847523D01*
X0875931Y1883379D02*
X1105251D01*
X0503479D02*
X0733121D01*
D49*
X0477862Y1583292D02*
X0477882Y1582287D01*
X0477941Y1581285D01*
X047804Y1580285D01*
X0478177Y157929D01*
X0478354Y1578301D01*
X0478569Y157732D01*
X0478823Y1576348D01*
X0479114Y1575387D01*
X0479443Y1574438D01*
X0479809Y1573503D01*
X0480212Y1572583D01*
X048065Y1571679D01*
X0481123Y1570793D01*
X0481631Y1569927D01*
X0482173Y1569081D01*
X0482747Y1568257D01*
X0483353Y1567456D01*
X0483991Y156668D01*
X0484658Y1565929D01*
X0485354Y1565205D01*
X0486078Y1564509D01*
X0486829Y1563842D01*
X0487605Y1563204D01*
X0488406Y1562598D01*
X048923Y1562024D01*
X0490076Y1561482D01*
X0490942Y1560975D01*
X0491828Y1560501D01*
X0492732Y1560063D01*
X0493652Y155966D01*
X0494587Y1559294D01*
X0495536Y1558965D01*
X0496497Y1558673D01*
X0497469Y155842D01*
X049845Y1558205D01*
X0499439Y1558028D01*
X0500434Y1557891D01*
X0501434Y1557792D01*
X0502436Y1557733D01*
X0503441Y1557713D01*
X1130829Y1857801D02*
X1130809Y1858805D01*
X113075Y1859807D01*
X1130652Y1860807D01*
X1130514Y1861802D01*
X1130338Y1862791D01*
X1130122Y1863772D01*
X1129869Y1864744D01*
X1129577Y1865705D01*
X1129248Y1866654D01*
X1128882Y1867589D01*
X112848Y1868509D01*
X1128041Y1869413D01*
X1127568Y1870299D01*
X112706Y1871165D01*
X1126519Y1872011D01*
X1125944Y1872835D01*
X1125338Y1873636D01*
X1124701Y1874412D01*
X1124034Y1875163D01*
X1123337Y1875887D01*
X1122614Y1876583D01*
X1121863Y187725D01*
X1121086Y1877888D01*
X1120285Y1878494D01*
X1119461Y1879068D01*
X1118616Y187961D01*
X1117749Y1880117D01*
X1116863Y1880591D01*
X1115959Y1881029D01*
X1115039Y1881432D01*
X1114104Y1881798D01*
X1113155Y1882127D01*
X1112194Y1882418D01*
X1111222Y1882672D01*
X1110241Y1882887D01*
X1109252Y1883064D01*
X1108257Y1883202D01*
X1107258Y18833D01*
X1106255Y1883359D01*
X1105251Y1883379D01*
X1105917Y1557713D02*
X1106914Y155782D01*
X1107908Y1557964D01*
X1108895Y1558143D01*
X1109875Y1558359D01*
X1110846Y1558611D01*
X1111808Y1558898D01*
X1112758Y155922D01*
X1113696Y1559577D01*
X111462Y1559968D01*
X1115529Y1560393D01*
X1116422Y156085D01*
X1117298Y156134D01*
X1118155Y1561862D01*
X1118992Y1562415D01*
X1119809Y1562999D01*
X1120603Y1563611D01*
X1121375Y1564253D01*
X1122123Y1564923D01*
X1122845Y1565619D01*
X1123542Y1566341D01*
X1124211Y1567089D01*
X1124852Y156786D01*
X1125465Y1568655D01*
X1126049Y1569471D01*
X1126602Y1570309D01*
X1127124Y1571166D01*
X1127614Y1572042D01*
X1128071Y1572935D01*
X1128496Y1573844D01*
X1128887Y1574768D01*
X1129244Y1575706D01*
X1129566Y1576656D01*
X1129853Y1577618D01*
X1130105Y1578589D01*
X1130321Y1579569D01*
X1130501Y1580556D01*
X1130644Y1581549D01*
X1130751Y1582547D01*
X0503441Y188334D02*
X0502436Y188332D01*
X0501434Y1883261D01*
X0500434Y1883163D01*
X0499439Y1883025D01*
X049845Y1882848D01*
X0497469Y1882633D01*
X0496497Y188238D01*
X0495536Y1882088D01*
X0494587Y1881759D01*
X0493652Y1881393D01*
X0492732Y188099D01*
X0491828Y1880552D01*
X0490942Y1880079D01*
X0490076Y1879571D01*
X048923Y1879029D01*
X0488406Y1878455D01*
X0487605Y1877849D01*
X0486829Y1877212D01*
X0486078Y1876544D01*
X0485354Y1875848D01*
X0484658Y1875124D01*
X0483991Y1874373D01*
X0483353Y1873597D01*
X0482747Y1872796D01*
X0482173Y1871972D01*
X0481631Y1871126D01*
X0481123Y187026D01*
X048065Y1869374D01*
X0480212Y186847D01*
X0479809Y186755D01*
X0479443Y1866615D01*
X0479114Y1865666D01*
X0478823Y1864705D01*
X0478569Y1863733D01*
X0478354Y1862752D01*
X0478177Y1861763D01*
X047804Y1860768D01*
X0477941Y1859768D01*
X0477882Y1858766D01*
X0477862Y1857762D01*
X1130751Y1582548D02*
X1130829Y1582626D01*
Y1857801D01*
X0477862Y1583292D02*
Y1857762D01*
X050344Y1557713D02*
X1105917D01*
D50*
X05465Y1609551D02*
D03*
Y1628449D02*
D03*
D51*
Y1657512D02*
D03*
Y1646488D02*
D03*
X0608Y1657524D02*
D03*
Y16465D02*
D03*
X0657Y1672488D02*
D03*
Y1683512D02*
D03*
X0699Y1672488D02*
D03*
Y1683512D02*
D03*
X0657Y1709512D02*
D03*
Y1698488D02*
D03*
X06565Y1736012D02*
D03*
Y1724988D02*
D03*
X0687Y1736012D02*
D03*
Y1724988D02*
D03*
X0699Y1698587D02*
D03*
Y170961D02*
D03*
X0699Y1736012D02*
D03*
Y1724988D02*
D03*
X05375Y1779512D02*
D03*
Y1768488D02*
D03*
X0549D02*
D03*
Y1779512D02*
D03*
D52*
X05675Y1630811D02*
D03*
Y1607189D02*
D03*
X0608Y1607D02*
D03*
Y1630622D02*
D03*
X05125Y1802811D02*
D03*
Y1779189D02*
D03*
D53*
X0582988Y1569D02*
D03*
X0594012D02*
D03*
X0562488Y1769D02*
D03*
X0573512D02*
D03*
X0568976Y1733D02*
D03*
X058D02*
D03*
X0579488Y1825D02*
D03*
X0590512D02*
D03*
D54*
X0591346Y1582D02*
D03*
X0584654D02*
D03*
Y1593D02*
D03*
X0591346D02*
D03*
X07005Y15635D02*
D03*
X0707193D02*
D03*
X0707347Y15825D02*
D03*
X0700654D02*
D03*
X0707346Y1573D02*
D03*
X0700653D02*
D03*
X0700654Y1592D02*
D03*
X0707347D02*
D03*
X0553654Y1733D02*
D03*
X0560347D02*
D03*
X0595693D02*
D03*
X0589D02*
D03*
X0562154Y17815D02*
D03*
X0568846D02*
D03*
X0600154Y1825D02*
D03*
X0606847D02*
D03*
X06445D02*
D03*
X0651193D02*
D03*
X0735346Y17705D02*
D03*
X0728654D02*
D03*
X0684654Y18605D02*
D03*
X0691346D02*
D03*
X0684653Y18525D02*
D03*
X0691346D02*
D03*
X0691347Y18685D02*
D03*
X0684654D02*
D03*
X0691346Y18445D02*
D03*
X0684654D02*
D03*
X0777346Y15635D02*
D03*
X0770653D02*
D03*
X0770654Y1573D02*
D03*
X0777347D02*
D03*
X0741347Y16465D02*
D03*
X0734654D02*
D03*
X0777347Y15915D02*
D03*
X0770654D02*
D03*
X0777346Y1582D02*
D03*
X0770654D02*
D03*
X1120346Y1647D02*
D03*
X1113654D02*
D03*
X1103847D02*
D03*
X1097154D02*
D03*
X0952654Y17165D02*
D03*
X0959347D02*
D03*
X1103846Y1717D02*
D03*
X1097154D02*
D03*
X1103847Y16825D02*
D03*
X1097154D02*
D03*
X1120193D02*
D03*
X11135D02*
D03*
X1120346Y1717D02*
D03*
X1113654D02*
D03*
X0952807Y1725D02*
D03*
X09595D02*
D03*
X0952654Y1733D02*
D03*
X0959347D02*
D03*
X0754307Y18695D02*
D03*
X0761D02*
D03*
Y18445D02*
D03*
X0754307D02*
D03*
X0761Y18615D02*
D03*
X0754307D02*
D03*
X0754315Y1853D02*
D03*
X0761008D02*
D03*
X1098846Y17485D02*
D03*
X1092154D02*
D03*
Y1757D02*
D03*
X1098846D02*
D03*
X1092154Y17655D02*
D03*
X1098846D02*
D03*
X11135Y1757D02*
D03*
X1120193D02*
D03*
X1120346Y17485D02*
D03*
X1113654D02*
D03*
X1120346Y17655D02*
D03*
X1113654D02*
D03*
D55*
X0619Y1646654D02*
D03*
Y1653346D02*
D03*
X05335Y1710654D02*
D03*
Y1717346D02*
D03*
Y17535D02*
D03*
Y1760193D02*
D03*
X0549Y1820846D02*
D03*
Y1814154D02*
D03*
X08915Y1578846D02*
D03*
Y1572154D02*
D03*
D56*
X05295Y1692D02*
D03*
D57*
X0503713Y1683024D02*
D03*
Y1700976D02*
D03*
D58*
X05335Y17275D02*
D03*
Y174128D02*
D03*
D59*
X05775Y16885D02*
D03*
D60*
X05675Y1652098D02*
D03*
D61*
X05775D02*
D03*
X05875D02*
D03*
D62*
X0619Y1666953D02*
D03*
Y1661047D02*
D03*
X09015Y1578905D02*
D03*
Y1573D02*
D03*
D63*
X0645Y16835D02*
D03*
Y1672476D02*
D03*
Y1698488D02*
D03*
Y1709512D02*
D03*
X0687Y16725D02*
D03*
Y1683524D02*
D03*
X0645Y1736012D02*
D03*
Y1724988D02*
D03*
X0687Y169839D02*
D03*
Y1709413D02*
D03*
D64*
X06715Y1587252D02*
D03*
Y1568748D02*
D03*
X06615Y1587252D02*
D03*
Y1568748D02*
D03*
X06515Y1587252D02*
D03*
Y1568748D02*
D03*
X0723D02*
D03*
Y1587252D02*
D03*
X0733Y1568748D02*
D03*
Y1587252D02*
D03*
X0743Y1568748D02*
D03*
Y1587252D02*
D03*
X06715Y1866252D02*
D03*
Y1847748D02*
D03*
X06615Y1866252D02*
D03*
Y1847748D02*
D03*
X06515Y1866252D02*
D03*
Y1847748D02*
D03*
X0723Y1846748D02*
D03*
Y1865252D02*
D03*
X0733Y1846748D02*
D03*
Y1865252D02*
D03*
X0743Y1846748D02*
D03*
Y1865252D02*
D03*
X07905Y1568748D02*
D03*
Y1587252D02*
D03*
X08005Y1568748D02*
D03*
Y1587252D02*
D03*
X08105Y1568748D02*
D03*
Y1587252D02*
D03*
X0852Y1569248D02*
D03*
Y1587752D02*
D03*
X0862Y1569248D02*
D03*
Y1587752D02*
D03*
X0872Y1569248D02*
D03*
Y1587752D02*
D03*
X0914Y1570248D02*
D03*
Y1588752D02*
D03*
X0924Y1570248D02*
D03*
Y1588752D02*
D03*
X0934Y1570248D02*
D03*
Y1588752D02*
D03*
X0944Y1570248D02*
D03*
Y1588752D02*
D03*
X0954Y1570248D02*
D03*
Y1588752D02*
D03*
X0964Y1570248D02*
D03*
Y1588752D02*
D03*
X0974Y1570248D02*
D03*
Y1588752D02*
D03*
X0984Y1570248D02*
D03*
Y1588752D02*
D03*
X08105Y1865252D02*
D03*
Y1846748D02*
D03*
X08005Y1865252D02*
D03*
Y1846748D02*
D03*
X07905Y1865252D02*
D03*
Y1846748D02*
D03*
X0852D02*
D03*
Y1865252D02*
D03*
X0862Y1846748D02*
D03*
Y1865252D02*
D03*
X0872Y1846748D02*
D03*
Y1865252D02*
D03*
X09035Y18465D02*
D03*
Y1865004D02*
D03*
X09135Y18465D02*
D03*
Y1865004D02*
D03*
X09235Y18465D02*
D03*
Y1865004D02*
D03*
X09335Y18465D02*
D03*
Y1865004D02*
D03*
X09435Y18465D02*
D03*
Y1865004D02*
D03*
X09535Y18465D02*
D03*
Y1865004D02*
D03*
X09635Y18465D02*
D03*
Y1865004D02*
D03*
X09735Y18465D02*
D03*
Y1865004D02*
D03*
D65*
X0677118Y168324D02*
D03*
X0666882D02*
D03*
Y16795D02*
D03*
Y167576D02*
D03*
X0677118D02*
D03*
Y170026D02*
D03*
X0666882D02*
D03*
Y1704D02*
D03*
Y170774D02*
D03*
X0677118D02*
D03*
Y172576D02*
D03*
X0666882D02*
D03*
Y17295D02*
D03*
Y173324D02*
D03*
X0677118D02*
D03*
D66*
X0569Y17505D02*
D03*
D67*
X055837Y1758D02*
D03*
Y1753D02*
D03*
Y1748D02*
D03*
Y1743D02*
D03*
X057963D02*
D03*
Y1748D02*
D03*
Y1753D02*
D03*
Y1758D02*
D03*
D68*
X06035Y1780524D02*
D03*
Y1758476D02*
D03*
D69*
X0579689Y18045D02*
D03*
X0603311D02*
D03*
D70*
X0729Y1778D02*
D03*
X0734906D02*
D03*
X0601047Y1834D02*
D03*
X0606953D02*
D03*
X0740453Y16375D02*
D03*
X0734547D02*
D03*
D71*
X0782752Y16685D02*
D03*
X0764248D02*
D03*
X0782752Y16785D02*
D03*
X0764248D02*
D03*
X0782752Y16885D02*
D03*
X0764248D02*
D03*
X0782752Y16985D02*
D03*
X0764248D02*
D03*
X0782752Y17085D02*
D03*
X0764248D02*
D03*
X0782752Y17185D02*
D03*
X0764248D02*
D03*
X0782752Y17285D02*
D03*
X0764248D02*
D03*
X0782752Y17385D02*
D03*
X0764248D02*
D03*
X1114752Y18255D02*
D03*
X1096248D02*
D03*
X1114752Y18355D02*
D03*
X1096248D02*
D03*
X1114752Y18455D02*
D03*
X1096248D02*
D03*
X1114752Y18555D02*
D03*
X1096248D02*
D03*
D72*
X1099626Y1626331D02*
D03*
X1115374D02*
D03*
Y1617669D02*
D03*
X1099626D02*
D03*
X1099126Y1698831D02*
D03*
X1114874D02*
D03*
Y1690169D02*
D03*
X1099126D02*
D03*
X1099686Y1663919D02*
D03*
X1115434D02*
D03*
Y1655257D02*
D03*
X1099686D02*
D03*
X1099126Y1724669D02*
D03*
X1114874D02*
D03*
Y1733331D02*
D03*
X1099126D02*
D03*
D73*
X095626Y1749555D02*
D03*
X096Y17405D02*
D03*
X095252D02*
D03*
D114*
X0977844Y1620527D02*
D03*
X0978Y18235D02*
D03*
X0634Y16205D02*
D03*
X063Y1820523D02*
D03*
X080434Y1900696D02*
D03*
X0762151Y1942384D02*
D03*
X080434Y1983323D02*
D03*
X084487Y1942384D02*
D03*
D115*
X0647Y1754D02*
D03*
X0657D02*
D03*
X0667D02*
D03*
X0677D02*
D03*
X0687D02*
D03*
X0697Y1654D02*
D03*
X0687D02*
D03*
X0677D02*
D03*
X0667D02*
D03*
X0657D02*
D03*
X0773D02*
D03*
X0783D02*
D03*
X0793D02*
D03*
X0803D02*
D03*
X0813D02*
D03*
X0803Y1754D02*
D03*
X0793D02*
D03*
X0783D02*
D03*
X0773D02*
D03*
X0763D02*
D03*
X06015Y18655D02*
D03*
X06115D02*
D03*
X0697Y18045D02*
D03*
X0687D02*
D03*
X0677D02*
D03*
X0667D02*
D03*
X0657D02*
D03*
X0773Y1805D02*
D03*
X0783D02*
D03*
X0793D02*
D03*
X0803D02*
D03*
X0813D02*
D03*
X0962Y1655D02*
D03*
X0972Y1645D02*
D03*
X0982Y1655D02*
D03*
X1002Y1645D02*
D03*
X1022D02*
D03*
X1042Y1665D02*
D03*
X1052Y1675D02*
D03*
Y1685D02*
D03*
Y1695D02*
D03*
X1042D02*
D03*
Y1755D02*
D03*
X1052D02*
D03*
X1042Y1765D02*
D03*
X1052D02*
D03*
X1042Y1775D02*
D03*
X1022Y1805D02*
D03*
X1012Y1795D02*
D03*
Y1805D02*
D03*
X0992Y1795D02*
D03*
Y1805D02*
D03*
X0982Y1795D02*
D03*
Y1805D02*
D03*
X0972Y1795D02*
D03*
X0952Y1805D02*
D03*
X0942Y1795D02*
D03*
Y1805D02*
D03*
X0862Y1665D02*
D03*
X0872D02*
D03*
X0862Y1675D02*
D03*
X0872D02*
D03*
X0862Y1685D02*
D03*
X0872D02*
D03*
X0862Y1695D02*
D03*
X0872D02*
D03*
X0862Y1705D02*
D03*
X0872D02*
D03*
X0862Y1715D02*
D03*
X0872D02*
D03*
X0862Y1725D02*
D03*
X0872D02*
D03*
Y1735D02*
D03*
X0862D02*
D03*
Y1745D02*
D03*
X0872D02*
D03*
X0862Y1755D02*
D03*
X0872D02*
D03*
X0862Y1765D02*
D03*
X0872D02*
D03*
X0862Y1775D02*
D03*
X0872D02*
D03*
X0862Y1785D02*
D03*
X0872D02*
D03*
X0862Y1805D02*
D03*
Y1795D02*
D03*
X0872Y1805D02*
D03*
Y1795D02*
D03*
X0882Y1805D02*
D03*
Y1795D02*
D03*
X0892Y1805D02*
D03*
Y1795D02*
D03*
X0902Y1805D02*
D03*
Y1795D02*
D03*
X0912Y1805D02*
D03*
Y1795D02*
D03*
X0922Y1805D02*
D03*
Y1795D02*
D03*
X0932Y1805D02*
D03*
Y1795D02*
D03*
X0952D02*
D03*
X0962Y1805D02*
D03*
Y1795D02*
D03*
X0972Y1805D02*
D03*
X1002D02*
D03*
Y1795D02*
D03*
X1022D02*
D03*
X1032Y1805D02*
D03*
Y1795D02*
D03*
X1042Y1805D02*
D03*
Y1795D02*
D03*
X1052Y1805D02*
D03*
Y1795D02*
D03*
Y1785D02*
D03*
X1042D02*
D03*
X1052Y1775D02*
D03*
X1042Y1685D02*
D03*
Y1675D02*
D03*
X1052Y1665D02*
D03*
Y1655D02*
D03*
Y1645D02*
D03*
X1042Y1655D02*
D03*
Y1645D02*
D03*
X1032Y1655D02*
D03*
Y1645D02*
D03*
X1022Y1655D02*
D03*
X1012D02*
D03*
Y1645D02*
D03*
X1002Y1655D02*
D03*
X0992D02*
D03*
Y1645D02*
D03*
X0982D02*
D03*
X0972Y1655D02*
D03*
X0962Y1645D02*
D03*
X0952Y1655D02*
D03*
Y1645D02*
D03*
X0942Y1655D02*
D03*
Y1645D02*
D03*
X0932Y1655D02*
D03*
Y1645D02*
D03*
X0922Y1655D02*
D03*
Y1645D02*
D03*
X0912Y1655D02*
D03*
Y1645D02*
D03*
X0902Y1655D02*
D03*
Y1645D02*
D03*
X0892Y1655D02*
D03*
Y1645D02*
D03*
X0882Y1655D02*
D03*
Y1645D02*
D03*
X0872Y1655D02*
D03*
Y1645D02*
D03*
X0862Y1655D02*
D03*
Y1645D02*
D03*
X09845Y1742843D02*
D03*
Y1723157D02*
D03*
X10105Y18685D02*
D03*
X10205D02*
D03*
X10305D02*
D03*
X10405D02*
D03*
X10505D02*
D03*
X10605D02*
D03*
X10705D02*
D03*
X1043Y1573D02*
D03*
X1033D02*
D03*
X1023D02*
D03*
X10905Y15725D02*
D03*
X10805D02*
D03*
D116*
X0697Y1754D02*
D03*
X0647Y1654D02*
D03*
X0763D02*
D03*
X0813Y1754D02*
D03*
X06215Y18655D02*
D03*
X0647Y18045D02*
D03*
X0763Y1805D02*
D03*
X10005Y18685D02*
D03*
X1013Y1573D02*
D03*
X10705Y15725D02*
D03*
D117*
X0513Y1660366D02*
D03*
Y16395D02*
D03*
D118*
Y17535D02*
D03*
Y1734602D02*
D03*
Y1715705D02*
D03*
D119*
X0532843Y1579D02*
D03*
X0513157D02*
D03*
X0532343Y18635D02*
D03*
X0512657D02*
D03*
D120*
X0559Y17975D02*
D03*
X0549D02*
D03*
D121*
X0539D02*
D03*
D122*
X1112Y1812D02*
D03*
X1102D02*
D03*
X1112Y1782D02*
D03*
D123*
X1102D02*
D03*
M02*
