G04*
G04 #@! TF.GenerationSoftware,Altium Limited,Altium Designer,22.0.2 (36)*
G04*
G04 Layer_Color=2752767*
%FSTAX25Y25*%
%MOIN*%
G70*
G04*
G04 #@! TF.SameCoordinates,F14A6DB2-6BAA-43E7-8DF3-1F8C7E56E43F*
G04*
G04*
G04 #@! TF.FilePolarity,Positive*
G04*
G01*
G75*
%ADD10C,0.01000*%
%ADD48C,0.00098*%
%ADD49C,0.00100*%
%ADD131C,0.00200*%
%ADD132C,0.00267*%
D10*
X063Y17195D02*
Y1719691D01*
D48*
X0863411Y1991625D02*
X0863353Y1992598D01*
X0863207Y1993563D01*
X0862972Y1994509D01*
X086265Y199543D01*
X0862245Y1996317D01*
X086176Y1997163D01*
X0861199Y199796D01*
X0860567Y1998703D01*
X0859869Y1999384D01*
X0859111Y1999997D01*
X08583Y2000538D01*
X0857442Y2001002D01*
X0856545Y2001385D01*
X0855616Y2001683D01*
X0854664Y2001895D01*
X0853697Y2002018D01*
X0852722Y200205D01*
X0755765Y2002011D02*
X0754791Y2001954D01*
X0753827Y2001807D01*
X075288Y2001572D01*
X075196Y200125D01*
X0751072Y2000845D01*
X0750226Y200036D01*
X0749429Y1999799D01*
X0748686Y1999167D01*
X0748005Y1998468D01*
X0747391Y199771D01*
X074685Y1996899D01*
X0746386Y1996041D01*
X0746003Y1995144D01*
X0745705Y1994215D01*
X0745494Y1993263D01*
X0745371Y1992296D01*
X0745338Y1991321D01*
X086342Y189589D02*
X0863459Y1894908D01*
X0863574Y1893933D01*
X0863766Y1892969D01*
X0864032Y1892024D01*
X0864373Y1891102D01*
X0864784Y189021D01*
X0865264Y1889353D01*
X086581Y1888536D01*
X0866418Y1887765D01*
X0867085Y1887043D01*
X0867806Y1886376D01*
X0868577Y1885768D01*
X0869394Y1885222D01*
X0870251Y1884742D01*
X0871143Y1884331D01*
X0872065Y1883991D01*
X087301Y1883725D01*
X0873974Y1883533D01*
X0874949Y1883417D01*
X0875931Y1883379D01*
X0733121D02*
X073414Y1883434D01*
X0735152Y1883574D01*
X0736148Y1883796D01*
X0737122Y18841D01*
X0738068Y1884484D01*
X073898Y1884944D01*
X073985Y1885478D01*
X0740673Y1886082D01*
X0741443Y1886752D01*
X0742155Y1887483D01*
X0742805Y188827D01*
X0743387Y1889109D01*
X0743898Y1889992D01*
X0744335Y1890915D01*
X0744693Y1891871D01*
X0744972Y1892853D01*
X0745168Y1893855D01*
X0745281Y1894869D01*
X074531Y189589D01*
X0745338Y1895918D02*
Y1991321D01*
X0863411Y1895899D02*
Y1991625D01*
X0863411Y1991625D02*
X0863411Y1991625D01*
X0847523Y2002011D02*
X0852722Y200205D01*
X0755765Y2002011D02*
X0847523D01*
X0875931Y1883379D02*
X1105251D01*
X0503479D02*
X0733121D01*
D49*
X0477862Y1583292D02*
X0477882Y1582287D01*
X0477941Y1581285D01*
X047804Y1580285D01*
X0478177Y157929D01*
X0478354Y1578301D01*
X0478569Y157732D01*
X0478823Y1576348D01*
X0479114Y1575387D01*
X0479443Y1574438D01*
X0479809Y1573503D01*
X0480212Y1572583D01*
X048065Y1571679D01*
X0481123Y1570793D01*
X0481631Y1569927D01*
X0482173Y1569081D01*
X0482747Y1568257D01*
X0483353Y1567456D01*
X0483991Y156668D01*
X0484658Y1565929D01*
X0485354Y1565205D01*
X0486078Y1564509D01*
X0486829Y1563842D01*
X0487605Y1563204D01*
X0488406Y1562598D01*
X048923Y1562024D01*
X0490076Y1561482D01*
X0490942Y1560975D01*
X0491828Y1560501D01*
X0492732Y1560063D01*
X0493652Y155966D01*
X0494587Y1559294D01*
X0495536Y1558965D01*
X0496497Y1558673D01*
X0497469Y155842D01*
X049845Y1558205D01*
X0499439Y1558028D01*
X0500434Y1557891D01*
X0501434Y1557792D01*
X0502436Y1557733D01*
X0503441Y1557713D01*
X1130829Y1857801D02*
X1130809Y1858805D01*
X113075Y1859807D01*
X1130652Y1860807D01*
X1130514Y1861802D01*
X1130338Y1862791D01*
X1130122Y1863772D01*
X1129869Y1864744D01*
X1129577Y1865705D01*
X1129248Y1866654D01*
X1128882Y1867589D01*
X112848Y1868509D01*
X1128041Y1869413D01*
X1127568Y1870299D01*
X112706Y1871165D01*
X1126519Y1872011D01*
X1125944Y1872835D01*
X1125338Y1873636D01*
X1124701Y1874412D01*
X1124034Y1875163D01*
X1123337Y1875887D01*
X1122614Y1876583D01*
X1121863Y187725D01*
X1121086Y1877888D01*
X1120285Y1878494D01*
X1119461Y1879068D01*
X1118616Y187961D01*
X1117749Y1880117D01*
X1116863Y1880591D01*
X1115959Y1881029D01*
X1115039Y1881432D01*
X1114104Y1881798D01*
X1113155Y1882127D01*
X1112194Y1882418D01*
X1111222Y1882672D01*
X1110241Y1882887D01*
X1109252Y1883064D01*
X1108257Y1883202D01*
X1107258Y18833D01*
X1106255Y1883359D01*
X1105251Y1883379D01*
X1105917Y1557713D02*
X1106914Y155782D01*
X1107908Y1557964D01*
X1108895Y1558143D01*
X1109875Y1558359D01*
X1110846Y1558611D01*
X1111808Y1558898D01*
X1112758Y155922D01*
X1113696Y1559577D01*
X111462Y1559968D01*
X1115529Y1560393D01*
X1116422Y156085D01*
X1117298Y156134D01*
X1118155Y1561862D01*
X1118992Y1562415D01*
X1119809Y1562999D01*
X1120603Y1563611D01*
X1121375Y1564253D01*
X1122123Y1564923D01*
X1122845Y1565619D01*
X1123542Y1566341D01*
X1124211Y1567089D01*
X1124852Y156786D01*
X1125465Y1568655D01*
X1126049Y1569471D01*
X1126602Y1570309D01*
X1127124Y1571166D01*
X1127614Y1572042D01*
X1128071Y1572935D01*
X1128496Y1573844D01*
X1128887Y1574768D01*
X1129244Y1575706D01*
X1129566Y1576656D01*
X1129853Y1577618D01*
X1130105Y1578589D01*
X1130321Y1579569D01*
X1130501Y1580556D01*
X1130644Y1581549D01*
X1130751Y1582547D01*
X0503441Y188334D02*
X0502436Y188332D01*
X0501434Y1883261D01*
X0500434Y1883163D01*
X0499439Y1883025D01*
X049845Y1882848D01*
X0497469Y1882633D01*
X0496497Y188238D01*
X0495536Y1882088D01*
X0494587Y1881759D01*
X0493652Y1881393D01*
X0492732Y188099D01*
X0491828Y1880552D01*
X0490942Y1880079D01*
X0490076Y1879571D01*
X048923Y1879029D01*
X0488406Y1878455D01*
X0487605Y1877849D01*
X0486829Y1877212D01*
X0486078Y1876544D01*
X0485354Y1875848D01*
X0484658Y1875124D01*
X0483991Y1874373D01*
X0483353Y1873597D01*
X0482747Y1872796D01*
X0482173Y1871972D01*
X0481631Y1871126D01*
X0481123Y187026D01*
X048065Y1869374D01*
X0480212Y186847D01*
X0479809Y186755D01*
X0479443Y1866615D01*
X0479114Y1865666D01*
X0478823Y1864705D01*
X0478569Y1863733D01*
X0478354Y1862752D01*
X0478177Y1861763D01*
X047804Y1860768D01*
X0477941Y1859768D01*
X0477882Y1858766D01*
X0477862Y1857762D01*
X1130751Y1582548D02*
X1130829Y1582626D01*
Y1857801D01*
X0477862Y1583292D02*
Y1857762D01*
X050344Y1557713D02*
X1105917D01*
D131*
X0977044Y1619727D02*
Y1621327D01*
X0978644D01*
Y1619727D01*
X0977044D01*
X09772Y18227D02*
Y18243D01*
X09788D01*
Y18227D01*
X09772D01*
X06332Y16197D02*
Y16213D01*
X06348D01*
Y16197D01*
X06332D01*
X06292Y1819723D02*
Y1821323D01*
X06308D01*
Y1819723D01*
X06292D01*
X080354Y1899896D02*
Y1901496D01*
X080514D01*
Y1899896D01*
X080354D01*
X0761351Y1941584D02*
Y1943184D01*
X0762951D01*
Y1941584D01*
X0761351D01*
X080354Y1982523D02*
Y1984123D01*
X080514D01*
Y1982523D01*
X080354D01*
X084407Y1941584D02*
Y1943184D01*
X084567D01*
Y1941584D01*
X084407D01*
X0513Y1659566D02*
X05122Y1661166D01*
X05138D01*
X0513Y1659566D01*
Y16387D02*
X05122Y16403D01*
X05138D01*
X0513Y16387D01*
Y17527D02*
X05134Y17531D01*
X05138D01*
X05134Y17535D01*
X05138Y17539D01*
X05134D01*
X0513Y17543D01*
X05126Y17539D01*
X05122D01*
X05126Y17535D01*
X05122Y17531D01*
X05126D01*
X0513Y17527D01*
Y1733802D02*
X05134Y1734202D01*
X05138D01*
X05134Y1734602D01*
X05138Y1735002D01*
X05134D01*
X0513Y1735402D01*
X05126Y1735002D01*
X05122D01*
X05126Y1734602D01*
X05122Y1734202D01*
X05126D01*
X0513Y1733802D01*
Y1714905D02*
X05134Y1715305D01*
X05138D01*
X05134Y1715705D01*
X05138Y1716105D01*
X05134D01*
X0513Y1716505D01*
X05126Y1716105D01*
X05122D01*
X05126Y1715705D01*
X05122Y1715305D01*
X05126D01*
X0513Y1714905D01*
X0532043Y15782D02*
X0532443Y1579D01*
X0532043Y15798D01*
X0532843Y15794D01*
X0533643Y15798D01*
X0533243Y1579D01*
X0533643Y15782D01*
X0532843Y15786D01*
X0532043Y15782D01*
X0512357D02*
X0512757Y1579D01*
X0512357Y15798D01*
X0513157Y15794D01*
X0513957Y15798D01*
X0513557Y1579D01*
X0513957Y15782D01*
X0513157Y15786D01*
X0512357Y15782D01*
X0531543Y18627D02*
X0531943Y18635D01*
X0531543Y18643D01*
X0532343Y18639D01*
X0533143Y18643D01*
X0532743Y18635D01*
X0533143Y18627D01*
X0532343Y18631D01*
X0531543Y18627D01*
X0511857D02*
X0512257Y18635D01*
X0511857Y18643D01*
X0512657Y18639D01*
X0513457Y18643D01*
X0513057Y18635D01*
X0513457Y18627D01*
X0512657Y18631D01*
X0511857Y18627D01*
X05586Y17971D02*
Y17967D01*
X05594D01*
Y17971D01*
X05598D01*
Y17979D01*
X05594D01*
Y17983D01*
X05586D01*
Y17979D01*
X05582D01*
Y17971D01*
X05586D01*
X05486D02*
Y17967D01*
X05494D01*
Y17971D01*
X05498D01*
Y17979D01*
X05494D01*
Y17983D01*
X05486D01*
Y17979D01*
X05482D01*
Y17971D01*
X05486D01*
X05386D02*
Y17967D01*
X05394D01*
Y17971D01*
X05398D01*
Y17979D01*
X05394D01*
Y17983D01*
X05386D01*
Y17979D01*
X05382D01*
Y17971D01*
X05386D01*
X09617Y16342D02*
X09621D01*
X09625Y16346D01*
X09629Y16342D01*
X09633D01*
Y16346D01*
X09629Y1635D01*
X09633Y16354D01*
Y16358D01*
X09629D01*
X09625Y16354D01*
X09621Y16358D01*
X09617D01*
Y16354D01*
X09621Y1635D01*
X09617Y16346D01*
Y16342D01*
X0992613Y15657D02*
X0993013D01*
X0993413Y15661D01*
X0993813Y15657D01*
X0994213D01*
Y15661D01*
X0993813Y15665D01*
X0994213Y15669D01*
Y15673D01*
X0993813D01*
X0993413Y15669D01*
X0993013Y15673D01*
X0992613D01*
Y15669D01*
X0993013Y15665D01*
X0992613Y15661D01*
Y15657D01*
X09552Y17082D02*
X09556D01*
X0956Y17086D01*
X09564Y17082D01*
X09568D01*
Y17086D01*
X09564Y1709D01*
X09568Y17094D01*
Y17098D01*
X09564D01*
X0956Y17094D01*
X09556Y17098D01*
X09552D01*
Y17094D01*
X09556Y1709D01*
X09552Y17086D01*
Y17082D01*
X06592Y16902D02*
X06596D01*
X066Y16906D01*
X06604Y16902D01*
X06608D01*
Y16906D01*
X06604Y1691D01*
X06608Y16914D01*
Y16918D01*
X06604D01*
X066Y16914D01*
X06596Y16918D01*
X06592D01*
Y16914D01*
X06596Y1691D01*
X06592Y16906D01*
Y16902D01*
X0481838Y16732D02*
X0482238D01*
X0482638Y16736D01*
X0483038Y16732D01*
X0483438D01*
Y16736D01*
X0483038Y1674D01*
X0483438Y16744D01*
Y16748D01*
X0483038D01*
X0482638Y16744D01*
X0482238Y16748D01*
X0481838D01*
Y16744D01*
X0482238Y1674D01*
X0481838Y16736D01*
Y16732D01*
X05487Y17092D02*
X05491D01*
X05495Y17096D01*
X05499Y17092D01*
X05503D01*
Y17096D01*
X05499Y171D01*
X05503Y17104D01*
Y17108D01*
X05499D01*
X05495Y17104D01*
X05491Y17108D01*
X05487D01*
Y17104D01*
X05491Y171D01*
X05487Y17096D01*
Y17092D01*
X05707Y15812D02*
X05711D01*
X05715Y15816D01*
X05719Y15812D01*
X05723D01*
Y15816D01*
X05719Y1582D01*
X05723Y15824D01*
Y15828D01*
X05719D01*
X05715Y15824D01*
X05711Y15828D01*
X05707D01*
Y15824D01*
X05711Y1582D01*
X05707Y15816D01*
Y15812D01*
X05842Y17382D02*
X05846D01*
X0585Y17386D01*
X05854Y17382D01*
X05858D01*
Y17386D01*
X05854Y1739D01*
X05858Y17394D01*
Y17398D01*
X05854D01*
X0585Y17394D01*
X05846Y17398D01*
X05842D01*
Y17394D01*
X05846Y1739D01*
X05842Y17386D01*
Y17382D01*
X05867Y16172D02*
X05871D01*
X05875Y16176D01*
X05879Y16172D01*
X05883D01*
Y16176D01*
X05879Y1618D01*
X05883Y16184D01*
Y16188D01*
X05879D01*
X05875Y16184D01*
X05871Y16188D01*
X05867D01*
Y16184D01*
X05871Y1618D01*
X05867Y16176D01*
Y16172D01*
X06002Y15922D02*
X06006D01*
X0601Y15926D01*
X06014Y15922D01*
X06018D01*
Y15926D01*
X06014Y1593D01*
X06018Y15934D01*
Y15938D01*
X06014D01*
X0601Y15934D01*
X06006Y15938D01*
X06002D01*
Y15934D01*
X06006Y1593D01*
X06002Y15926D01*
Y15922D01*
X07132Y15627D02*
X07136D01*
X0714Y15631D01*
X07144Y15627D01*
X07148D01*
Y15631D01*
X07144Y15635D01*
X07148Y15639D01*
Y15643D01*
X07144D01*
X0714Y15639D01*
X07136Y15643D01*
X07132D01*
Y15639D01*
X07136Y15635D01*
X07132Y15631D01*
Y15627D01*
X07822D02*
X07826D01*
X0783Y15631D01*
X07834Y15627D01*
X07838D01*
Y15631D01*
X07834Y15635D01*
X07838Y15639D01*
Y15643D01*
X07834D01*
X0783Y15639D01*
X07826Y15643D01*
X07822D01*
Y15639D01*
X07826Y15635D01*
X07822Y15631D01*
Y15627D01*
X07897Y1567948D02*
X07901D01*
X07905Y1568348D01*
X07909Y1567948D01*
X07913D01*
Y1568348D01*
X07909Y1568748D01*
X07913Y1569148D01*
Y1569548D01*
X07909D01*
X07905Y1569148D01*
X07901Y1569548D01*
X07897D01*
Y1569148D01*
X07901Y1568748D01*
X07897Y1568348D01*
Y1567948D01*
X07132Y15722D02*
X07136D01*
X0714Y15726D01*
X07144Y15722D01*
X07148D01*
Y15726D01*
X07144Y1573D01*
X07148Y15734D01*
Y15738D01*
X07144D01*
X0714Y15734D01*
X07136Y15738D01*
X07132D01*
Y15734D01*
X07136Y1573D01*
X07132Y15726D01*
Y15722D01*
X07822D02*
X07826D01*
X0783Y15726D01*
X07834Y15722D01*
X07838D01*
Y15726D01*
X07834Y1573D01*
X07838Y15734D01*
Y15738D01*
X07834D01*
X0783Y15734D01*
X07826Y15738D01*
X07822D01*
Y15734D01*
X07826Y1573D01*
X07822Y15726D01*
Y15722D01*
X06852Y15812D02*
X06856D01*
X0686Y15816D01*
X06864Y15812D01*
X06868D01*
Y15816D01*
X06864Y1582D01*
X06868Y15824D01*
Y15828D01*
X06864D01*
X0686Y15824D01*
X06856Y15828D01*
X06852D01*
Y15824D01*
X06856Y1582D01*
X06852Y15816D01*
Y15812D01*
X07132Y15817D02*
X07136D01*
X0714Y15821D01*
X07144Y15817D01*
X07148D01*
Y15821D01*
X07144Y15825D01*
X07148Y15829D01*
Y15833D01*
X07144D01*
X0714Y15829D01*
X07136Y15833D01*
X07132D01*
Y15829D01*
X07136Y15825D01*
X07132Y15821D01*
Y15817D01*
X07617Y15867D02*
X07621D01*
X07625Y15871D01*
X07629Y15867D01*
X07633D01*
Y15871D01*
X07629Y15875D01*
X07633Y15879D01*
Y15883D01*
X07629D01*
X07625Y15879D01*
X07621Y15883D01*
X07617D01*
Y15879D01*
X07621Y15875D01*
X07617Y15871D01*
Y15867D01*
X07997Y15898D02*
X08001D01*
X08005Y15902D01*
X08009Y15898D01*
X08013D01*
Y15902D01*
X08009Y15906D01*
X08013Y1591D01*
Y15914D01*
X08009D01*
X08005Y1591D01*
X08001Y15914D01*
X07997D01*
Y1591D01*
X08001Y15906D01*
X07997Y15902D01*
Y15898D01*
X07132Y15912D02*
X07136D01*
X0714Y15916D01*
X07144Y15912D01*
X07148D01*
Y15916D01*
X07144Y1592D01*
X07148Y15924D01*
Y15928D01*
X07144D01*
X0714Y15924D01*
X07136Y15928D01*
X07132D01*
Y15924D01*
X07136Y1592D01*
X07132Y15916D01*
Y15912D01*
X06662Y16242D02*
X06666D01*
X0667Y16246D01*
X06674Y16242D01*
X06678D01*
Y16246D01*
X06674Y1625D01*
X06678Y16254D01*
Y16258D01*
X06674D01*
X0667Y16254D01*
X06666Y16258D01*
X06662D01*
Y16254D01*
X06666Y1625D01*
X06662Y16246D01*
Y16242D01*
X07507Y16367D02*
X07511D01*
X07515Y16371D01*
X07519Y16367D01*
X07523D01*
Y16371D01*
X07519Y16375D01*
X07523Y16379D01*
Y16383D01*
X07519D01*
X07515Y16379D01*
X07511Y16383D01*
X07507D01*
Y16379D01*
X07511Y16375D01*
X07507Y16371D01*
Y16367D01*
X07937Y16677D02*
X07941D01*
X07945Y16681D01*
X07949Y16677D01*
X07953D01*
Y16681D01*
X07949Y16685D01*
X07953Y16689D01*
Y16693D01*
X07949D01*
X07945Y16689D01*
X07941Y16693D01*
X07937D01*
Y16689D01*
X07941Y16685D01*
X07937Y16681D01*
Y16677D01*
X07952Y16777D02*
X07956D01*
X0796Y16781D01*
X07964Y16777D01*
X07968D01*
Y16781D01*
X07964Y16785D01*
X07968Y16789D01*
Y16793D01*
X07964D01*
X0796Y16789D01*
X07956Y16793D01*
X07952D01*
Y16789D01*
X07956Y16785D01*
X07952Y16781D01*
Y16777D01*
X06792Y16907D02*
X06796D01*
X068Y16911D01*
X06804Y16907D01*
X06808D01*
Y16911D01*
X06804Y16915D01*
X06808Y16919D01*
Y16923D01*
X06804D01*
X068Y16919D01*
X06796Y16923D01*
X06792D01*
Y16919D01*
X06796Y16915D01*
X06792Y16911D01*
Y16907D01*
X07062Y17087D02*
X07066D01*
X0707Y17091D01*
X07074Y17087D01*
X07078D01*
Y17091D01*
X07074Y17095D01*
X07078Y17099D01*
Y17103D01*
X07074D01*
X0707Y17099D01*
X07066Y17103D01*
X07062D01*
Y17099D01*
X07066Y17095D01*
X07062Y17091D01*
Y17087D01*
X06662Y17142D02*
X06666D01*
X0667Y17146D01*
X06674Y17142D01*
X06678D01*
Y17146D01*
X06674Y1715D01*
X06678Y17154D01*
Y17158D01*
X06674D01*
X0667Y17154D01*
X06666Y17158D01*
X06662D01*
Y17154D01*
X06666Y1715D01*
X06662Y17146D01*
Y17142D01*
X07952Y17277D02*
X07956D01*
X0796Y17281D01*
X07964Y17277D01*
X07968D01*
Y17281D01*
X07964Y17285D01*
X07968Y17289D01*
Y17293D01*
X07964D01*
X0796Y17289D01*
X07956Y17293D01*
X07952D01*
Y17289D01*
X07956Y17285D01*
X07952Y17281D01*
Y17277D01*
X07067Y17352D02*
X07071D01*
X07075Y17356D01*
X07079Y17352D01*
X07083D01*
Y17356D01*
X07079Y1736D01*
X07083Y17364D01*
Y17368D01*
X07079D01*
X07075Y17364D01*
X07071Y17368D01*
X07067D01*
Y17364D01*
X07071Y1736D01*
X07067Y17356D01*
Y17352D01*
X06662Y17402D02*
X06666D01*
X0667Y17406D01*
X06674Y17402D01*
X06678D01*
Y17406D01*
X06674Y1741D01*
X06678Y17414D01*
Y17418D01*
X06674D01*
X0667Y17414D01*
X06666Y17418D01*
X06662D01*
Y17414D01*
X06666Y1741D01*
X06662Y17406D01*
Y17402D01*
X05677Y18122D02*
X05681D01*
X05685Y18126D01*
X05689Y18122D01*
X05693D01*
Y18126D01*
X05689Y1813D01*
X05693Y18134D01*
Y18138D01*
X05689D01*
X05685Y18134D01*
X05681Y18138D01*
X05677D01*
Y18134D01*
X05681Y1813D01*
X05677Y18126D01*
Y18122D01*
X05702Y17967D02*
X05706D01*
X0571Y17971D01*
X05714Y17967D01*
X05718D01*
Y17971D01*
X05714Y17975D01*
X05718Y17979D01*
Y17983D01*
X05714D01*
X0571Y17979D01*
X05706Y17983D01*
X05702D01*
Y17979D01*
X05706Y17975D01*
X05702Y17971D01*
Y17967D01*
X05787Y18417D02*
X05791D01*
X05795Y18421D01*
X05799Y18417D01*
X05803D01*
Y18421D01*
X05799Y18425D01*
X05803Y18429D01*
Y18433D01*
X05799D01*
X05795Y18429D01*
X05791Y18433D01*
X05787D01*
Y18429D01*
X05791Y18425D01*
X05787Y18421D01*
Y18417D01*
X06502Y18322D02*
X06506D01*
X0651Y18326D01*
X06514Y18322D01*
X06518D01*
Y18326D01*
X06514Y1833D01*
X06518Y18334D01*
Y18338D01*
X06514D01*
X0651Y18334D01*
X06506Y18338D01*
X06502D01*
Y18334D01*
X06506Y1833D01*
X06502Y18326D01*
Y18322D01*
X07707Y17742D02*
X07711D01*
X07715Y17746D01*
X07719Y17742D01*
X07723D01*
Y17746D01*
X07719Y1775D01*
X07723Y17754D01*
Y17758D01*
X07719D01*
X07715Y17754D01*
X07711Y17758D01*
X07707D01*
Y17754D01*
X07711Y1775D01*
X07707Y17746D01*
Y17742D01*
X08032Y18332D02*
X08036D01*
X0804Y18336D01*
X08044Y18332D01*
X08048D01*
Y18336D01*
X08044Y1834D01*
X08048Y18344D01*
Y18348D01*
X08044D01*
X0804Y18344D01*
X08036Y18348D01*
X08032D01*
Y18344D01*
X08036Y1834D01*
X08032Y18336D01*
Y18332D01*
X07812Y18422D02*
X07816D01*
X0782Y18426D01*
X07824Y18422D01*
X07828D01*
Y18426D01*
X07824Y1843D01*
X07828Y18434D01*
Y18438D01*
X07824D01*
X0782Y18434D01*
X07816Y18438D01*
X07812D01*
Y18434D01*
X07816Y1843D01*
X07812Y18426D01*
Y18422D01*
X07032Y18437D02*
X07036D01*
X0704Y18441D01*
X07044Y18437D01*
X07048D01*
Y18441D01*
X07044Y18445D01*
X07048Y18449D01*
Y18453D01*
X07044D01*
X0704Y18449D01*
X07036Y18453D01*
X07032D01*
Y18449D01*
X07036Y18445D01*
X07032Y18441D01*
Y18437D01*
X0704004Y18517D02*
X0704404D01*
X0704804Y18521D01*
X0705204Y18517D01*
X0705604D01*
Y18521D01*
X0705204Y18525D01*
X0705604Y18529D01*
Y18533D01*
X0705204D01*
X0704804Y18529D01*
X0704404Y18533D01*
X0704004D01*
Y18529D01*
X0704404Y18525D01*
X0704004Y18521D01*
Y18517D01*
X07112Y18552D02*
X07116D01*
X0712Y18556D01*
X07124Y18552D01*
X07128D01*
Y18556D01*
X07124Y1856D01*
X07128Y18564D01*
Y18568D01*
X07124D01*
X0712Y18564D01*
X07116Y18568D01*
X07112D01*
Y18564D01*
X07116Y1856D01*
X07112Y18556D01*
Y18552D01*
X07032Y18597D02*
X07036D01*
X0704Y18601D01*
X07044Y18597D01*
X07048D01*
Y18601D01*
X07044Y18605D01*
X07048Y18609D01*
Y18613D01*
X07044D01*
X0704Y18609D01*
X07036Y18613D01*
X07032D01*
Y18609D01*
X07036Y18605D01*
X07032Y18601D01*
Y18597D01*
X07812Y1862D02*
X07816D01*
X0782Y18624D01*
X07824Y1862D01*
X07828D01*
Y18624D01*
X07824Y18628D01*
X07828Y18632D01*
Y18636D01*
X07824D01*
X0782Y18632D01*
X07816Y18636D01*
X07812D01*
Y18632D01*
X07816Y18628D01*
X07812Y18624D01*
Y1862D01*
X07032Y18672D02*
X07036D01*
X0704Y18676D01*
X07044Y18672D01*
X07048D01*
Y18676D01*
X07044Y1868D01*
X07048Y18684D01*
Y18688D01*
X07044D01*
X0704Y18684D01*
X07036Y18688D01*
X07032D01*
Y18684D01*
X07036Y1868D01*
X07032Y18676D01*
Y18672D01*
X07717Y18762D02*
X07721D01*
X07725Y18766D01*
X07729Y18762D01*
X07733D01*
Y18766D01*
X07729Y1877D01*
X07733Y18774D01*
Y18778D01*
X07729D01*
X07725Y18774D01*
X07721Y18778D01*
X07717D01*
Y18774D01*
X07721Y1877D01*
X07717Y18766D01*
Y18762D01*
X07607D02*
X07611D01*
X07615Y18766D01*
X07619Y18762D01*
X07623D01*
Y18766D01*
X07619Y1877D01*
X07623Y18774D01*
Y18778D01*
X07619D01*
X07615Y18774D01*
X07611Y18778D01*
X07607D01*
Y18774D01*
X07611Y1877D01*
X07607Y18766D01*
Y18762D01*
X08222Y15862D02*
X08226D01*
X0823Y15866D01*
X08234Y15862D01*
X08238D01*
Y15866D01*
X08234Y1587D01*
X08238Y15874D01*
Y15878D01*
X08234D01*
X0823Y15874D01*
X08226Y15878D01*
X08222D01*
Y15874D01*
X08226Y1587D01*
X08222Y15866D01*
Y15862D01*
X08362Y16075D02*
X08366D01*
X0837Y16079D01*
X08374Y16075D01*
X08378D01*
Y16079D01*
X08374Y16083D01*
X08378Y16087D01*
Y16091D01*
X08374D01*
X0837Y16087D01*
X08366Y16091D01*
X08362D01*
Y16087D01*
X08366Y16083D01*
X08362Y16079D01*
Y16075D01*
Y15952D02*
X08366D01*
X0837Y15956D01*
X08374Y15952D01*
X08378D01*
Y15956D01*
X08374Y1596D01*
X08378Y15964D01*
Y15968D01*
X08374D01*
X0837Y15964D01*
X08366Y15968D01*
X08362D01*
Y15964D01*
X08366Y1596D01*
X08362Y15956D01*
Y15952D01*
Y16017D02*
X08366D01*
X0837Y16021D01*
X08374Y16017D01*
X08378D01*
Y16021D01*
X08374Y16025D01*
X08378Y16029D01*
Y16033D01*
X08374D01*
X0837Y16029D01*
X08366Y16033D01*
X08362D01*
Y16029D01*
X08366Y16025D01*
X08362Y16021D01*
Y16017D01*
Y1626896D02*
X08366D01*
X0837Y1627296D01*
X08374Y1626896D01*
X08378D01*
Y1627296D01*
X08374Y1627696D01*
X08378Y1628096D01*
Y1628496D01*
X08374D01*
X0837Y1628096D01*
X08366Y1628496D01*
X08362D01*
Y1628096D01*
X08366Y1627696D01*
X08362Y1627296D01*
Y1626896D01*
Y16342D02*
X08366D01*
X0837Y16346D01*
X08374Y16342D01*
X08378D01*
Y16346D01*
X08374Y1635D01*
X08378Y16354D01*
Y16358D01*
X08374D01*
X0837Y16354D01*
X08366Y16358D01*
X08362D01*
Y16354D01*
X08366Y1635D01*
X08362Y16346D01*
Y16342D01*
Y16212D02*
X08366D01*
X0837Y16216D01*
X08374Y16212D01*
X08378D01*
Y16216D01*
X08374Y1622D01*
X08378Y16224D01*
Y16228D01*
X08374D01*
X0837Y16224D01*
X08366Y16228D01*
X08362D01*
Y16224D01*
X08366Y1622D01*
X08362Y16216D01*
Y16212D01*
Y16407D02*
X08366D01*
X0837Y16411D01*
X08374Y16407D01*
X08378D01*
Y16411D01*
X08374Y16415D01*
X08378Y16419D01*
Y16423D01*
X08374D01*
X0837Y16419D01*
X08366Y16423D01*
X08362D01*
Y16419D01*
X08366Y16415D01*
X08362Y16411D01*
Y16407D01*
Y16147D02*
X08366D01*
X0837Y16151D01*
X08374Y16147D01*
X08378D01*
Y16151D01*
X08374Y16155D01*
X08378Y16159D01*
Y16163D01*
X08374D01*
X0837Y16159D01*
X08366Y16163D01*
X08362D01*
Y16159D01*
X08366Y16155D01*
X08362Y16151D01*
Y16147D01*
X08612Y15872D02*
X08616D01*
X0862Y15876D01*
X08624Y15872D01*
X08628D01*
Y15876D01*
X08624Y1588D01*
X08628Y15884D01*
Y15888D01*
X08624D01*
X0862Y15884D01*
X08616Y15888D01*
X08612D01*
Y15884D01*
X08616Y1588D01*
X08612Y15876D01*
Y15872D01*
Y15682D02*
X08616D01*
X0862Y15686D01*
X08624Y15682D01*
X08628D01*
Y15686D01*
X08624Y1569D01*
X08628Y15694D01*
Y15698D01*
X08624D01*
X0862Y15694D01*
X08616Y15698D01*
X08612D01*
Y15694D01*
X08616Y1569D01*
X08612Y15686D01*
Y15682D01*
X09762Y1674154D02*
X09766D01*
X0977Y1674554D01*
X09774Y1674154D01*
X09778D01*
Y1674554D01*
X09774Y1674954D01*
X09778Y1675354D01*
Y1675754D01*
X09774D01*
X0977Y1675354D01*
X09766Y1675754D01*
X09762D01*
Y1675354D01*
X09766Y1674954D01*
X09762Y1674554D01*
Y1674154D01*
X09862Y1684193D02*
X09866D01*
X0987Y1684593D01*
X09874Y1684193D01*
X09878D01*
Y1684593D01*
X09874Y1684993D01*
X09878Y1685393D01*
Y1685793D01*
X09874D01*
X0987Y1685393D01*
X09866Y1685793D01*
X09862D01*
Y1685393D01*
X09866Y1684993D01*
X09862Y1684593D01*
Y1684193D01*
X08202Y18472D02*
X08206D01*
X0821Y18476D01*
X08214Y18472D01*
X08218D01*
Y18476D01*
X08214Y1848D01*
X08218Y18484D01*
Y18488D01*
X08214D01*
X0821Y18484D01*
X08206Y18488D01*
X08202D01*
Y18484D01*
X08206Y1848D01*
X08202Y18476D01*
Y18472D01*
X08272Y18557D02*
X08276D01*
X0828Y18561D01*
X08284Y18557D01*
X08288D01*
Y18561D01*
X08284Y18565D01*
X08288Y18569D01*
Y18573D01*
X08284D01*
X0828Y18569D01*
X08276Y18573D01*
X08272D01*
Y18569D01*
X08276Y18565D01*
X08272Y18561D01*
Y18557D01*
X08612Y18767D02*
X08616D01*
X0862Y18771D01*
X08624Y18767D01*
X08628D01*
Y18771D01*
X08624Y18775D01*
X08628Y18779D01*
Y18783D01*
X08624D01*
X0862Y18779D01*
X08616Y18783D01*
X08612D01*
Y18779D01*
X08616Y18775D01*
X08612Y18771D01*
Y18767D01*
X0955232Y1695251D02*
X0955632D01*
X0956032Y1695651D01*
X0956432Y1695251D01*
X0956832D01*
Y1695651D01*
X0956432Y1696051D01*
X0956832Y1696451D01*
Y1696851D01*
X0956432D01*
X0956032Y1696451D01*
X0955632Y1696851D01*
X0955232D01*
Y1696451D01*
X0955632Y1696051D01*
X0955232Y1695651D01*
Y1695251D01*
X09392Y17157D02*
X09396D01*
X094Y17161D01*
X09404Y17157D01*
X09408D01*
Y17161D01*
X09404Y17165D01*
X09408Y17169D01*
Y17173D01*
X09404D01*
X094Y17169D01*
X09396Y17173D01*
X09392D01*
Y17169D01*
X09396Y17165D01*
X09392Y17161D01*
Y17157D01*
Y17242D02*
X09396D01*
X094Y17246D01*
X09404Y17242D01*
X09408D01*
Y17246D01*
X09404Y1725D01*
X09408Y17254D01*
Y17258D01*
X09404D01*
X094Y17254D01*
X09396Y17258D01*
X09392D01*
Y17254D01*
X09396Y1725D01*
X09392Y17246D01*
Y17242D01*
X08837Y18457D02*
X08841D01*
X08845Y18461D01*
X08849Y18457D01*
X08853D01*
Y18461D01*
X08849Y18465D01*
X08853Y18469D01*
Y18473D01*
X08849D01*
X08845Y18469D01*
X08841Y18473D01*
X08837D01*
Y18469D01*
X08841Y18465D01*
X08837Y18461D01*
Y18457D01*
X11047Y17602D02*
X11051D01*
X11055Y17606D01*
X11059Y17602D01*
X11063D01*
Y17606D01*
X11059Y1761D01*
X11063Y17614D01*
Y17618D01*
X11059D01*
X11055Y17614D01*
X11051Y17618D01*
X11047D01*
Y17614D01*
X11051Y1761D01*
X11047Y17606D01*
Y17602D01*
X11127Y17712D02*
X11131D01*
X11135Y17716D01*
X11139Y17712D01*
X11143D01*
Y17716D01*
X11139Y1772D01*
X11143Y17724D01*
Y17728D01*
X11139D01*
X11135Y17724D01*
X11131Y17728D01*
X11127D01*
Y17724D01*
X11131Y1772D01*
X11127Y17716D01*
Y17712D01*
X10862Y18297D02*
X10866D01*
X1087Y18301D01*
X10874Y18297D01*
X10878D01*
Y18301D01*
X10874Y18305D01*
X10878Y18309D01*
Y18313D01*
X10874D01*
X1087Y18309D01*
X10866Y18313D01*
X10862D01*
Y18309D01*
X10866Y18305D01*
X10862Y18301D01*
Y18297D01*
D132*
X06478Y1754D02*
X0647247Y1754761D01*
X0646353Y175447D01*
Y175353D01*
X0647247Y1753239D01*
X06478Y1754D01*
X06578D02*
X0657247Y1754761D01*
X0656353Y175447D01*
Y175353D01*
X0657247Y1753239D01*
X06578Y1754D01*
X06678D02*
X0667247Y1754761D01*
X0666353Y175447D01*
Y175353D01*
X0667247Y1753239D01*
X06678Y1754D01*
X06778D02*
X0677247Y1754761D01*
X0676353Y175447D01*
Y175353D01*
X0677247Y1753239D01*
X06778Y1754D01*
X06878D02*
X0687247Y1754761D01*
X0686353Y175447D01*
Y175353D01*
X0687247Y1753239D01*
X06878Y1754D01*
X06978D02*
X0697247Y1754761D01*
X0696353Y175447D01*
Y175353D01*
X0697247Y1753239D01*
X06978Y1754D01*
Y1654D02*
X0697247Y1654761D01*
X0696353Y165447D01*
Y165353D01*
X0697247Y1653239D01*
X06978Y1654D01*
X06878D02*
X0687247Y1654761D01*
X0686353Y165447D01*
Y165353D01*
X0687247Y1653239D01*
X06878Y1654D01*
X06778D02*
X0677247Y1654761D01*
X0676353Y165447D01*
Y165353D01*
X0677247Y1653239D01*
X06778Y1654D01*
X06678D02*
X0667247Y1654761D01*
X0666353Y165447D01*
Y165353D01*
X0667247Y1653239D01*
X06678Y1654D01*
X06578D02*
X0657247Y1654761D01*
X0656353Y165447D01*
Y165353D01*
X0657247Y1653239D01*
X06578Y1654D01*
X06478D02*
X0647247Y1654761D01*
X0646353Y165447D01*
Y165353D01*
X0647247Y1653239D01*
X06478Y1654D01*
X07638D02*
X0763247Y1654761D01*
X0762353Y165447D01*
Y165353D01*
X0763247Y1653239D01*
X07638Y1654D01*
X07738D02*
X0773247Y1654761D01*
X0772353Y165447D01*
Y165353D01*
X0773247Y1653239D01*
X07738Y1654D01*
X07838D02*
X0783247Y1654761D01*
X0782353Y165447D01*
Y165353D01*
X0783247Y1653239D01*
X07838Y1654D01*
X07938D02*
X0793247Y1654761D01*
X0792353Y165447D01*
Y165353D01*
X0793247Y1653239D01*
X07938Y1654D01*
X08038D02*
X0803247Y1654761D01*
X0802353Y165447D01*
Y165353D01*
X0803247Y1653239D01*
X08038Y1654D01*
X08138D02*
X0813247Y1654761D01*
X0812353Y165447D01*
Y165353D01*
X0813247Y1653239D01*
X08138Y1654D01*
Y1754D02*
X0813247Y1754761D01*
X0812353Y175447D01*
Y175353D01*
X0813247Y1753239D01*
X08138Y1754D01*
X08038D02*
X0803247Y1754761D01*
X0802353Y175447D01*
Y175353D01*
X0803247Y1753239D01*
X08038Y1754D01*
X07938D02*
X0793247Y1754761D01*
X0792353Y175447D01*
Y175353D01*
X0793247Y1753239D01*
X07938Y1754D01*
X07838D02*
X0783247Y1754761D01*
X0782353Y175447D01*
Y175353D01*
X0783247Y1753239D01*
X07838Y1754D01*
X07738D02*
X0773247Y1754761D01*
X0772353Y175447D01*
Y175353D01*
X0773247Y1753239D01*
X07738Y1754D01*
X07638D02*
X0763247Y1754761D01*
X0762353Y175447D01*
Y175353D01*
X0763247Y1753239D01*
X07638Y1754D01*
X06023Y18655D02*
X0601747Y1866261D01*
X0600853Y186597D01*
Y186503D01*
X0601747Y1864739D01*
X06023Y18655D01*
X06123D02*
X0611747Y1866261D01*
X0610853Y186597D01*
Y186503D01*
X0611747Y1864739D01*
X06123Y18655D01*
X06223D02*
X0621747Y1866261D01*
X0620853Y186597D01*
Y186503D01*
X0621747Y1864739D01*
X06223Y18655D01*
X06978Y18045D02*
X0697247Y1805261D01*
X0696353Y180497D01*
Y180403D01*
X0697247Y1803739D01*
X06978Y18045D01*
X06878D02*
X0687247Y1805261D01*
X0686353Y180497D01*
Y180403D01*
X0687247Y1803739D01*
X06878Y18045D01*
X06778D02*
X0677247Y1805261D01*
X0676353Y180497D01*
Y180403D01*
X0677247Y1803739D01*
X06778Y18045D01*
X06678D02*
X0667247Y1805261D01*
X0666353Y180497D01*
Y180403D01*
X0667247Y1803739D01*
X06678Y18045D01*
X06578D02*
X0657247Y1805261D01*
X0656353Y180497D01*
Y180403D01*
X0657247Y1803739D01*
X06578Y18045D01*
X06478D02*
X0647247Y1805261D01*
X0646353Y180497D01*
Y180403D01*
X0647247Y1803739D01*
X06478Y18045D01*
X07638Y1805D02*
X0763247Y1805761D01*
X0762353Y180547D01*
Y180453D01*
X0763247Y1804239D01*
X07638Y1805D01*
X07738D02*
X0773247Y1805761D01*
X0772353Y180547D01*
Y180453D01*
X0773247Y1804239D01*
X07738Y1805D01*
X07838D02*
X0783247Y1805761D01*
X0782353Y180547D01*
Y180453D01*
X0783247Y1804239D01*
X07838Y1805D01*
X07938D02*
X0793247Y1805761D01*
X0792353Y180547D01*
Y180453D01*
X0793247Y1804239D01*
X07938Y1805D01*
X08038D02*
X0803247Y1805761D01*
X0802353Y180547D01*
Y180453D01*
X0803247Y1804239D01*
X08038Y1805D01*
X08138D02*
X0813247Y1805761D01*
X0812353Y180547D01*
Y180453D01*
X0813247Y1804239D01*
X08138Y1805D01*
X09628Y1655D02*
X0962247Y1655761D01*
X0961353Y165547D01*
Y165453D01*
X0962247Y1654239D01*
X09628Y1655D01*
X09728Y1645D02*
X0972247Y1645761D01*
X0971353Y164547D01*
Y164453D01*
X0972247Y1644239D01*
X09728Y1645D01*
X09828Y1655D02*
X0982247Y1655761D01*
X0981353Y165547D01*
Y165453D01*
X0982247Y1654239D01*
X09828Y1655D01*
X10028Y1645D02*
X1002247Y1645761D01*
X1001353Y164547D01*
Y164453D01*
X1002247Y1644239D01*
X10028Y1645D01*
X10228D02*
X1022247Y1645761D01*
X1021353Y164547D01*
Y164453D01*
X1022247Y1644239D01*
X10228Y1645D01*
X10428Y1665D02*
X1042247Y1665761D01*
X1041353Y166547D01*
Y166453D01*
X1042247Y1664239D01*
X10428Y1665D01*
X10528Y1675D02*
X1052247Y1675761D01*
X1051353Y167547D01*
Y167453D01*
X1052247Y1674239D01*
X10528Y1675D01*
Y1685D02*
X1052247Y1685761D01*
X1051353Y168547D01*
Y168453D01*
X1052247Y1684239D01*
X10528Y1685D01*
Y1695D02*
X1052247Y1695761D01*
X1051353Y169547D01*
Y169453D01*
X1052247Y1694239D01*
X10528Y1695D01*
X10428D02*
X1042247Y1695761D01*
X1041353Y169547D01*
Y169453D01*
X1042247Y1694239D01*
X10428Y1695D01*
Y1755D02*
X1042247Y1755761D01*
X1041353Y175547D01*
Y175453D01*
X1042247Y1754239D01*
X10428Y1755D01*
X10528D02*
X1052247Y1755761D01*
X1051353Y175547D01*
Y175453D01*
X1052247Y1754239D01*
X10528Y1755D01*
X10428Y1765D02*
X1042247Y1765761D01*
X1041353Y176547D01*
Y176453D01*
X1042247Y1764239D01*
X10428Y1765D01*
X10528D02*
X1052247Y1765761D01*
X1051353Y176547D01*
Y176453D01*
X1052247Y1764239D01*
X10528Y1765D01*
X10428Y1775D02*
X1042247Y1775761D01*
X1041353Y177547D01*
Y177453D01*
X1042247Y1774239D01*
X10428Y1775D01*
X10228Y1805D02*
X1022247Y1805761D01*
X1021353Y180547D01*
Y180453D01*
X1022247Y1804239D01*
X10228Y1805D01*
X10128Y1795D02*
X1012247Y1795761D01*
X1011353Y179547D01*
Y179453D01*
X1012247Y1794239D01*
X10128Y1795D01*
Y1805D02*
X1012247Y1805761D01*
X1011353Y180547D01*
Y180453D01*
X1012247Y1804239D01*
X10128Y1805D01*
X09928Y1795D02*
X0992247Y1795761D01*
X0991353Y179547D01*
Y179453D01*
X0992247Y1794239D01*
X09928Y1795D01*
Y1805D02*
X0992247Y1805761D01*
X0991353Y180547D01*
Y180453D01*
X0992247Y1804239D01*
X09928Y1805D01*
X09828Y1795D02*
X0982247Y1795761D01*
X0981353Y179547D01*
Y179453D01*
X0982247Y1794239D01*
X09828Y1795D01*
Y1805D02*
X0982247Y1805761D01*
X0981353Y180547D01*
Y180453D01*
X0982247Y1804239D01*
X09828Y1805D01*
X09728Y1795D02*
X0972247Y1795761D01*
X0971353Y179547D01*
Y179453D01*
X0972247Y1794239D01*
X09728Y1795D01*
X09528Y1805D02*
X0952247Y1805761D01*
X0951353Y180547D01*
Y180453D01*
X0952247Y1804239D01*
X09528Y1805D01*
X09428Y1795D02*
X0942247Y1795761D01*
X0941353Y179547D01*
Y179453D01*
X0942247Y1794239D01*
X09428Y1795D01*
Y1805D02*
X0942247Y1805761D01*
X0941353Y180547D01*
Y180453D01*
X0942247Y1804239D01*
X09428Y1805D01*
X08628Y1665D02*
X0862247Y1665761D01*
X0861353Y166547D01*
Y166453D01*
X0862247Y1664239D01*
X08628Y1665D01*
X08728D02*
X0872247Y1665761D01*
X0871353Y166547D01*
Y166453D01*
X0872247Y1664239D01*
X08728Y1665D01*
X08628Y1675D02*
X0862247Y1675761D01*
X0861353Y167547D01*
Y167453D01*
X0862247Y1674239D01*
X08628Y1675D01*
X08728D02*
X0872247Y1675761D01*
X0871353Y167547D01*
Y167453D01*
X0872247Y1674239D01*
X08728Y1675D01*
X08628Y1685D02*
X0862247Y1685761D01*
X0861353Y168547D01*
Y168453D01*
X0862247Y1684239D01*
X08628Y1685D01*
X08728D02*
X0872247Y1685761D01*
X0871353Y168547D01*
Y168453D01*
X0872247Y1684239D01*
X08728Y1685D01*
X08628Y1695D02*
X0862247Y1695761D01*
X0861353Y169547D01*
Y169453D01*
X0862247Y1694239D01*
X08628Y1695D01*
X08728D02*
X0872247Y1695761D01*
X0871353Y169547D01*
Y169453D01*
X0872247Y1694239D01*
X08728Y1695D01*
X08628Y1705D02*
X0862247Y1705761D01*
X0861353Y170547D01*
Y170453D01*
X0862247Y1704239D01*
X08628Y1705D01*
X08728D02*
X0872247Y1705761D01*
X0871353Y170547D01*
Y170453D01*
X0872247Y1704239D01*
X08728Y1705D01*
X08628Y1715D02*
X0862247Y1715761D01*
X0861353Y171547D01*
Y171453D01*
X0862247Y1714239D01*
X08628Y1715D01*
X08728D02*
X0872247Y1715761D01*
X0871353Y171547D01*
Y171453D01*
X0872247Y1714239D01*
X08728Y1715D01*
X08628Y1725D02*
X0862247Y1725761D01*
X0861353Y172547D01*
Y172453D01*
X0862247Y1724239D01*
X08628Y1725D01*
X08728D02*
X0872247Y1725761D01*
X0871353Y172547D01*
Y172453D01*
X0872247Y1724239D01*
X08728Y1725D01*
Y1735D02*
X0872247Y1735761D01*
X0871353Y173547D01*
Y173453D01*
X0872247Y1734239D01*
X08728Y1735D01*
X08628D02*
X0862247Y1735761D01*
X0861353Y173547D01*
Y173453D01*
X0862247Y1734239D01*
X08628Y1735D01*
Y1745D02*
X0862247Y1745761D01*
X0861353Y174547D01*
Y174453D01*
X0862247Y1744239D01*
X08628Y1745D01*
X08728D02*
X0872247Y1745761D01*
X0871353Y174547D01*
Y174453D01*
X0872247Y1744239D01*
X08728Y1745D01*
X08628Y1755D02*
X0862247Y1755761D01*
X0861353Y175547D01*
Y175453D01*
X0862247Y1754239D01*
X08628Y1755D01*
X08728D02*
X0872247Y1755761D01*
X0871353Y175547D01*
Y175453D01*
X0872247Y1754239D01*
X08728Y1755D01*
X08628Y1765D02*
X0862247Y1765761D01*
X0861353Y176547D01*
Y176453D01*
X0862247Y1764239D01*
X08628Y1765D01*
X08728D02*
X0872247Y1765761D01*
X0871353Y176547D01*
Y176453D01*
X0872247Y1764239D01*
X08728Y1765D01*
X08628Y1775D02*
X0862247Y1775761D01*
X0861353Y177547D01*
Y177453D01*
X0862247Y1774239D01*
X08628Y1775D01*
X08728D02*
X0872247Y1775761D01*
X0871353Y177547D01*
Y177453D01*
X0872247Y1774239D01*
X08728Y1775D01*
X08628Y1785D02*
X0862247Y1785761D01*
X0861353Y178547D01*
Y178453D01*
X0862247Y1784239D01*
X08628Y1785D01*
X08728D02*
X0872247Y1785761D01*
X0871353Y178547D01*
Y178453D01*
X0872247Y1784239D01*
X08728Y1785D01*
X08628Y1805D02*
X0862247Y1805761D01*
X0861353Y180547D01*
Y180453D01*
X0862247Y1804239D01*
X08628Y1805D01*
Y1795D02*
X0862247Y1795761D01*
X0861353Y179547D01*
Y179453D01*
X0862247Y1794239D01*
X08628Y1795D01*
X08728Y1805D02*
X0872247Y1805761D01*
X0871353Y180547D01*
Y180453D01*
X0872247Y1804239D01*
X08728Y1805D01*
Y1795D02*
X0872247Y1795761D01*
X0871353Y179547D01*
Y179453D01*
X0872247Y1794239D01*
X08728Y1795D01*
X08828Y1805D02*
X0882247Y1805761D01*
X0881353Y180547D01*
Y180453D01*
X0882247Y1804239D01*
X08828Y1805D01*
Y1795D02*
X0882247Y1795761D01*
X0881353Y179547D01*
Y179453D01*
X0882247Y1794239D01*
X08828Y1795D01*
X08928Y1805D02*
X0892247Y1805761D01*
X0891353Y180547D01*
Y180453D01*
X0892247Y1804239D01*
X08928Y1805D01*
Y1795D02*
X0892247Y1795761D01*
X0891353Y179547D01*
Y179453D01*
X0892247Y1794239D01*
X08928Y1795D01*
X09028Y1805D02*
X0902247Y1805761D01*
X0901353Y180547D01*
Y180453D01*
X0902247Y1804239D01*
X09028Y1805D01*
Y1795D02*
X0902247Y1795761D01*
X0901353Y179547D01*
Y179453D01*
X0902247Y1794239D01*
X09028Y1795D01*
X09128Y1805D02*
X0912247Y1805761D01*
X0911353Y180547D01*
Y180453D01*
X0912247Y1804239D01*
X09128Y1805D01*
Y1795D02*
X0912247Y1795761D01*
X0911353Y179547D01*
Y179453D01*
X0912247Y1794239D01*
X09128Y1795D01*
X09228Y1805D02*
X0922247Y1805761D01*
X0921353Y180547D01*
Y180453D01*
X0922247Y1804239D01*
X09228Y1805D01*
Y1795D02*
X0922247Y1795761D01*
X0921353Y179547D01*
Y179453D01*
X0922247Y1794239D01*
X09228Y1795D01*
X09328Y1805D02*
X0932247Y1805761D01*
X0931353Y180547D01*
Y180453D01*
X0932247Y1804239D01*
X09328Y1805D01*
Y1795D02*
X0932247Y1795761D01*
X0931353Y179547D01*
Y179453D01*
X0932247Y1794239D01*
X09328Y1795D01*
X09528D02*
X0952247Y1795761D01*
X0951353Y179547D01*
Y179453D01*
X0952247Y1794239D01*
X09528Y1795D01*
X09628Y1805D02*
X0962247Y1805761D01*
X0961353Y180547D01*
Y180453D01*
X0962247Y1804239D01*
X09628Y1805D01*
Y1795D02*
X0962247Y1795761D01*
X0961353Y179547D01*
Y179453D01*
X0962247Y1794239D01*
X09628Y1795D01*
X09728Y1805D02*
X0972247Y1805761D01*
X0971353Y180547D01*
Y180453D01*
X0972247Y1804239D01*
X09728Y1805D01*
X10028D02*
X1002247Y1805761D01*
X1001353Y180547D01*
Y180453D01*
X1002247Y1804239D01*
X10028Y1805D01*
Y1795D02*
X1002247Y1795761D01*
X1001353Y179547D01*
Y179453D01*
X1002247Y1794239D01*
X10028Y1795D01*
X10228D02*
X1022247Y1795761D01*
X1021353Y179547D01*
Y179453D01*
X1022247Y1794239D01*
X10228Y1795D01*
X10328Y1805D02*
X1032247Y1805761D01*
X1031353Y180547D01*
Y180453D01*
X1032247Y1804239D01*
X10328Y1805D01*
Y1795D02*
X1032247Y1795761D01*
X1031353Y179547D01*
Y179453D01*
X1032247Y1794239D01*
X10328Y1795D01*
X10428Y1805D02*
X1042247Y1805761D01*
X1041353Y180547D01*
Y180453D01*
X1042247Y1804239D01*
X10428Y1805D01*
Y1795D02*
X1042247Y1795761D01*
X1041353Y179547D01*
Y179453D01*
X1042247Y1794239D01*
X10428Y1795D01*
X10528Y1805D02*
X1052247Y1805761D01*
X1051353Y180547D01*
Y180453D01*
X1052247Y1804239D01*
X10528Y1805D01*
Y1795D02*
X1052247Y1795761D01*
X1051353Y179547D01*
Y179453D01*
X1052247Y1794239D01*
X10528Y1795D01*
Y1785D02*
X1052247Y1785761D01*
X1051353Y178547D01*
Y178453D01*
X1052247Y1784239D01*
X10528Y1785D01*
X10428D02*
X1042247Y1785761D01*
X1041353Y178547D01*
Y178453D01*
X1042247Y1784239D01*
X10428Y1785D01*
X10528Y1775D02*
X1052247Y1775761D01*
X1051353Y177547D01*
Y177453D01*
X1052247Y1774239D01*
X10528Y1775D01*
X10428Y1685D02*
X1042247Y1685761D01*
X1041353Y168547D01*
Y168453D01*
X1042247Y1684239D01*
X10428Y1685D01*
Y1675D02*
X1042247Y1675761D01*
X1041353Y167547D01*
Y167453D01*
X1042247Y1674239D01*
X10428Y1675D01*
X10528Y1665D02*
X1052247Y1665761D01*
X1051353Y166547D01*
Y166453D01*
X1052247Y1664239D01*
X10528Y1665D01*
Y1655D02*
X1052247Y1655761D01*
X1051353Y165547D01*
Y165453D01*
X1052247Y1654239D01*
X10528Y1655D01*
Y1645D02*
X1052247Y1645761D01*
X1051353Y164547D01*
Y164453D01*
X1052247Y1644239D01*
X10528Y1645D01*
X10428Y1655D02*
X1042247Y1655761D01*
X1041353Y165547D01*
Y165453D01*
X1042247Y1654239D01*
X10428Y1655D01*
Y1645D02*
X1042247Y1645761D01*
X1041353Y164547D01*
Y164453D01*
X1042247Y1644239D01*
X10428Y1645D01*
X10328Y1655D02*
X1032247Y1655761D01*
X1031353Y165547D01*
Y165453D01*
X1032247Y1654239D01*
X10328Y1655D01*
Y1645D02*
X1032247Y1645761D01*
X1031353Y164547D01*
Y164453D01*
X1032247Y1644239D01*
X10328Y1645D01*
X10228Y1655D02*
X1022247Y1655761D01*
X1021353Y165547D01*
Y165453D01*
X1022247Y1654239D01*
X10228Y1655D01*
X10128D02*
X1012247Y1655761D01*
X1011353Y165547D01*
Y165453D01*
X1012247Y1654239D01*
X10128Y1655D01*
Y1645D02*
X1012247Y1645761D01*
X1011353Y164547D01*
Y164453D01*
X1012247Y1644239D01*
X10128Y1645D01*
X10028Y1655D02*
X1002247Y1655761D01*
X1001353Y165547D01*
Y165453D01*
X1002247Y1654239D01*
X10028Y1655D01*
X09928D02*
X0992247Y1655761D01*
X0991353Y165547D01*
Y165453D01*
X0992247Y1654239D01*
X09928Y1655D01*
Y1645D02*
X0992247Y1645761D01*
X0991353Y164547D01*
Y164453D01*
X0992247Y1644239D01*
X09928Y1645D01*
X09828D02*
X0982247Y1645761D01*
X0981353Y164547D01*
Y164453D01*
X0982247Y1644239D01*
X09828Y1645D01*
X09728Y1655D02*
X0972247Y1655761D01*
X0971353Y165547D01*
Y165453D01*
X0972247Y1654239D01*
X09728Y1655D01*
X09628Y1645D02*
X0962247Y1645761D01*
X0961353Y164547D01*
Y164453D01*
X0962247Y1644239D01*
X09628Y1645D01*
X09528Y1655D02*
X0952247Y1655761D01*
X0951353Y165547D01*
Y165453D01*
X0952247Y1654239D01*
X09528Y1655D01*
Y1645D02*
X0952247Y1645761D01*
X0951353Y164547D01*
Y164453D01*
X0952247Y1644239D01*
X09528Y1645D01*
X09428Y1655D02*
X0942247Y1655761D01*
X0941353Y165547D01*
Y165453D01*
X0942247Y1654239D01*
X09428Y1655D01*
Y1645D02*
X0942247Y1645761D01*
X0941353Y164547D01*
Y164453D01*
X0942247Y1644239D01*
X09428Y1645D01*
X09328Y1655D02*
X0932247Y1655761D01*
X0931353Y165547D01*
Y165453D01*
X0932247Y1654239D01*
X09328Y1655D01*
Y1645D02*
X0932247Y1645761D01*
X0931353Y164547D01*
Y164453D01*
X0932247Y1644239D01*
X09328Y1645D01*
X09228Y1655D02*
X0922247Y1655761D01*
X0921353Y165547D01*
Y165453D01*
X0922247Y1654239D01*
X09228Y1655D01*
Y1645D02*
X0922247Y1645761D01*
X0921353Y164547D01*
Y164453D01*
X0922247Y1644239D01*
X09228Y1645D01*
X09128Y1655D02*
X0912247Y1655761D01*
X0911353Y165547D01*
Y165453D01*
X0912247Y1654239D01*
X09128Y1655D01*
Y1645D02*
X0912247Y1645761D01*
X0911353Y164547D01*
Y164453D01*
X0912247Y1644239D01*
X09128Y1645D01*
X09028Y1655D02*
X0902247Y1655761D01*
X0901353Y165547D01*
Y165453D01*
X0902247Y1654239D01*
X09028Y1655D01*
Y1645D02*
X0902247Y1645761D01*
X0901353Y164547D01*
Y164453D01*
X0902247Y1644239D01*
X09028Y1645D01*
X08928Y1655D02*
X0892247Y1655761D01*
X0891353Y165547D01*
Y165453D01*
X0892247Y1654239D01*
X08928Y1655D01*
Y1645D02*
X0892247Y1645761D01*
X0891353Y164547D01*
Y164453D01*
X0892247Y1644239D01*
X08928Y1645D01*
X08828Y1655D02*
X0882247Y1655761D01*
X0881353Y165547D01*
Y165453D01*
X0882247Y1654239D01*
X08828Y1655D01*
Y1645D02*
X0882247Y1645761D01*
X0881353Y164547D01*
Y164453D01*
X0882247Y1644239D01*
X08828Y1645D01*
X08728Y1655D02*
X0872247Y1655761D01*
X0871353Y165547D01*
Y165453D01*
X0872247Y1654239D01*
X08728Y1655D01*
Y1645D02*
X0872247Y1645761D01*
X0871353Y164547D01*
Y164453D01*
X0872247Y1644239D01*
X08728Y1645D01*
X08628Y1655D02*
X0862247Y1655761D01*
X0861353Y165547D01*
Y165453D01*
X0862247Y1654239D01*
X08628Y1655D01*
Y1645D02*
X0862247Y1645761D01*
X0861353Y164547D01*
Y164453D01*
X0862247Y1644239D01*
X08628Y1645D01*
X09853Y1742843D02*
X0984747Y1743604D01*
X0983853Y1743313D01*
Y1742372D01*
X0984747Y1742082D01*
X09853Y1742843D01*
Y1723157D02*
X0984747Y1723918D01*
X0983853Y1723628D01*
Y1722687D01*
X0984747Y1722396D01*
X09853Y1723157D01*
X10013Y18685D02*
X1000747Y1869261D01*
X0999853Y186897D01*
Y186803D01*
X1000747Y1867739D01*
X10013Y18685D01*
X10113D02*
X1010747Y1869261D01*
X1009853Y186897D01*
Y186803D01*
X1010747Y1867739D01*
X10113Y18685D01*
X10213D02*
X1020747Y1869261D01*
X1019853Y186897D01*
Y186803D01*
X1020747Y1867739D01*
X10213Y18685D01*
X10313D02*
X1030747Y1869261D01*
X1029853Y186897D01*
Y186803D01*
X1030747Y1867739D01*
X10313Y18685D01*
X10413D02*
X1040747Y1869261D01*
X1039853Y186897D01*
Y186803D01*
X1040747Y1867739D01*
X10413Y18685D01*
X10513D02*
X1050747Y1869261D01*
X1049853Y186897D01*
Y186803D01*
X1050747Y1867739D01*
X10513Y18685D01*
X10613D02*
X1060747Y1869261D01*
X1059853Y186897D01*
Y186803D01*
X1060747Y1867739D01*
X10613Y18685D01*
X10713D02*
X1070747Y1869261D01*
X1069853Y186897D01*
Y186803D01*
X1070747Y1867739D01*
X10713Y18685D01*
X10438Y1573D02*
X1043247Y1573761D01*
X1042353Y157347D01*
Y157253D01*
X1043247Y1572239D01*
X10438Y1573D01*
X10338D02*
X1033247Y1573761D01*
X1032353Y157347D01*
Y157253D01*
X1033247Y1572239D01*
X10338Y1573D01*
X10238D02*
X1023247Y1573761D01*
X1022353Y157347D01*
Y157253D01*
X1023247Y1572239D01*
X10238Y1573D01*
X10138D02*
X1013247Y1573761D01*
X1012353Y157347D01*
Y157253D01*
X1013247Y1572239D01*
X10138Y1573D01*
X10913Y15725D02*
X1090747Y1573261D01*
X1089853Y157297D01*
Y157203D01*
X1090747Y1571739D01*
X10913Y15725D01*
X10813D02*
X1080747Y1573261D01*
X1079853Y157297D01*
Y157203D01*
X1080747Y1571739D01*
X10813Y15725D01*
X10713D02*
X1070747Y1573261D01*
X1069853Y157297D01*
Y157203D01*
X1070747Y1571739D01*
X10713Y15725D01*
X11128Y1812D02*
X1112247Y1812761D01*
X1111353Y181247D01*
Y181153D01*
X1112247Y1811239D01*
X11128Y1812D01*
X11028D02*
X1102247Y1812761D01*
X1101353Y181247D01*
Y181153D01*
X1102247Y1811239D01*
X11028Y1812D01*
X11128Y1782D02*
X1112247Y1782761D01*
X1111353Y178247D01*
Y178153D01*
X1112247Y1781239D01*
X11128Y1782D01*
X11028D02*
X1102247Y1782761D01*
X1101353Y178247D01*
Y178153D01*
X1102247Y1781239D01*
X11028Y1782D01*
M02*
