G04*
G04 #@! TF.GenerationSoftware,Altium Limited,Altium Designer,22.0.2 (36)*
G04*
G04 Layer_Physical_Order=3*
G04 Layer_Color=16440176*
%FSTAX25Y25*%
%MOIN*%
G70*
G04*
G04 #@! TF.SameCoordinates,F14A6DB2-6BAA-43E7-8DF3-1F8C7E56E43F*
G04*
G04*
G04 #@! TF.FilePolarity,Positive*
G04*
G01*
G75*
%ADD10C,0.01000*%
%ADD48C,0.00098*%
%ADD49C,0.00100*%
%ADD109C,0.03000*%
%ADD115C,0.05906*%
%ADD116R,0.05906X0.05906*%
G04:AMPARAMS|DCode=117|XSize=236.22mil|YSize=157.48mil|CornerRadius=39.37mil|HoleSize=0mil|Usage=FLASHONLY|Rotation=0.000|XOffset=0mil|YOffset=0mil|HoleType=Round|Shape=RoundedRectangle|*
%AMROUNDEDRECTD117*
21,1,0.23622,0.07874,0,0,0.0*
21,1,0.15748,0.15748,0,0,0.0*
1,1,0.07874,0.07874,-0.03937*
1,1,0.07874,-0.07874,-0.03937*
1,1,0.07874,-0.07874,0.03937*
1,1,0.07874,0.07874,0.03937*
%
%ADD117ROUNDEDRECTD117*%
%ADD119O,0.07874X0.11811*%
%ADD122C,0.05906*%
%ADD124C,0.05000*%
G36*
X085091Y200154D02*
X085091Y200154D01*
X0851734Y200154D01*
X0853366Y2001325D01*
X0854957Y2000898D01*
X0856478Y2000268D01*
X0857904Y1999445D01*
X085921Y1998442D01*
X0860374Y1997278D01*
X0861376Y1995972D01*
X08622Y1994546D01*
X086283Y1993024D01*
X0863256Y1991434D01*
X0863471Y1989801D01*
Y1988978D01*
X0863471Y1988978D01*
X0863471Y1988978D01*
X0863471Y189589D01*
X0863498Y1895075D01*
X086371Y1893459D01*
X0864132Y1891884D01*
X0864756Y1890379D01*
X0865571Y1888967D01*
X0866563Y1887674D01*
X0867715Y1886522D01*
X0869009Y1885529D01*
X087042Y1884715D01*
X0871926Y1884091D01*
X08735Y1883669D01*
X0875116Y1883456D01*
X0875905Y188343D01*
X1104688D01*
X1104689Y188343D01*
D01*
X1104714Y1883399D01*
X1104714Y1883398D01*
D01*
X1104765Y1883145D01*
X1104908Y188293D01*
X1105123Y1882786D01*
X1105377Y1882736D01*
X1105867Y188271D01*
X1108167Y1882581D01*
X1110922Y1882113D01*
X1113607Y1881339D01*
X1116188Y188027D01*
X1118634Y1878918D01*
X1120913Y1877301D01*
X1122996Y1875439D01*
X1124858Y1873356D01*
X1126475Y1871077D01*
X1127827Y1868631D01*
X1128896Y186605D01*
X112967Y1863365D01*
X1130138Y186061D01*
X1130294Y1857828D01*
X1130293Y185782D01*
Y1583111D01*
X1130194Y1582628D01*
X1130194D01*
X1130158Y1581993D01*
X1129656Y1579042D01*
X1128827Y1576165D01*
X1127682Y1573398D01*
X1126233Y1570778D01*
X1124501Y1568336D01*
X1122506Y1566104D01*
X1120273Y1564109D01*
X1117832Y1562376D01*
X1115211Y1560928D01*
X1112445Y1559782D01*
X1109568Y1558953D01*
X1106616Y1558452D01*
X1105616Y1558395D01*
X0791103D01*
X0790896Y1558895D01*
X0791293Y1559293D01*
X0791293Y1559293D01*
X0791536Y1559657D01*
X0791622Y1560086D01*
X0791622Y1560086D01*
Y1565424D01*
X0792265Y1565691D01*
X0792996Y1566252D01*
X0793557Y1566983D01*
X079391Y1567834D01*
X0793964Y1568248D01*
X07905D01*
Y1568748D01*
X079D01*
Y1572212D01*
X0789586Y1572158D01*
X0788735Y1571805D01*
X078847Y1571602D01*
X0788022Y1571823D01*
Y1581627D01*
X0796884Y1590489D01*
X0797411Y1590309D01*
X079748Y1589791D01*
X0797792Y1589037D01*
X0798289Y1588389D01*
X0798937Y1587892D01*
X0799691Y158758D01*
X08005Y1587473D01*
X0801309Y158758D01*
X0802063Y1587892D01*
X0802711Y1588389D01*
X0803208Y1589037D01*
X080352Y1589791D01*
X0803536Y1589909D01*
X0803865Y1590244D01*
X0804295Y1590329D01*
X0804658Y1590572D01*
X0825793Y1611707D01*
X0825793Y1611707D01*
X0826036Y1612071D01*
X0826122Y16125D01*
Y1706402D01*
X083274Y171302D01*
X0859671Y1739951D01*
X0859719Y1739971D01*
X0860395Y1739766D01*
X0861544Y1739653D01*
X0862693Y1739766D01*
X0863798Y1740101D01*
X0864816Y1740645D01*
X0864932Y174074D01*
X0865305Y1741041D01*
X086532Y174105D01*
X086532Y174105D01*
X0865401Y1741105D01*
X0865413Y1741122D01*
X0865675Y1741325D01*
X0865705Y1741364D01*
X0866501Y1742401D01*
X086702Y1743655D01*
X0867097Y1744243D01*
D01*
D01*
X0867969Y1745114D01*
X0868433Y1744872D01*
X0868539Y1744073D01*
X0868897Y1743208D01*
X0869466Y1742466D01*
X0870208Y1741897D01*
X0871073Y1741539D01*
X0872Y1741417D01*
X0872927Y1741539D01*
X0873792Y1741897D01*
X0874534Y1742466D01*
X0875103Y1743208D01*
X0875461Y1744073D01*
X0875583Y1745D01*
X0875461Y1745927D01*
X0875103Y1746792D01*
X0874534Y1747534D01*
X0873792Y1748103D01*
X0872927Y1748461D01*
X0872128Y1748566D01*
X0871886Y1749031D01*
X0872757Y1749903D01*
X0873345Y174998D01*
X0874599Y1750499D01*
X0875675Y1751325D01*
X0876501Y1752401D01*
X0876932Y1753441D01*
X087702Y1753655D01*
X0877038Y1753787D01*
X0877068Y1753885D01*
X0877068D01*
X0877332Y1754207D01*
X0897793Y1774668D01*
X0898036Y1775032D01*
X0898122Y1775461D01*
X0898122Y1775461D01*
Y1793773D01*
X0898622Y1793872D01*
X0898897Y1793208D01*
X0899466Y1792466D01*
X0900208Y1791897D01*
X0900878Y1791619D01*
Y1759733D01*
X0876031Y1734885D01*
X0875566Y1735128D01*
X0875461Y1735927D01*
X0875103Y1736792D01*
X0874534Y1737534D01*
X0873792Y1738103D01*
X0872927Y1738461D01*
X0872Y1738583D01*
X0871073Y1738461D01*
X0870208Y1738103D01*
X0869466Y1737534D01*
X0868897Y1736792D01*
X0868539Y1735927D01*
X0868417Y1735D01*
X0868539Y1734073D01*
X0868897Y1733208D01*
X0869466Y1732466D01*
X0870208Y1731897D01*
X0870872Y1731622D01*
X0870773Y1731121D01*
X0863227D01*
X0863128Y1731622D01*
X0863792Y1731897D01*
X0864534Y1732466D01*
X0865103Y1733208D01*
X0865461Y1734073D01*
X0865583Y1735D01*
X0865461Y1735927D01*
X0865103Y1736792D01*
X0864534Y1737534D01*
X0863792Y1738103D01*
X0862927Y1738461D01*
X0862Y1738583D01*
X0861073Y1738461D01*
X0860208Y1738103D01*
X0859466Y1737534D01*
X0858897Y1736792D01*
X0858539Y1735927D01*
X0858417Y1735D01*
X0858539Y1734073D01*
X0858897Y1733208D01*
X0859466Y1732466D01*
X0860208Y1731897D01*
X0860872Y1731622D01*
X0860773Y1731121D01*
X08605D01*
X0860071Y1731036D01*
X0859707Y1730793D01*
X0859707Y1730793D01*
X0827707Y1698793D01*
X0827464Y1698429D01*
X0827378Y1698D01*
X0827378Y1698D01*
Y1608465D01*
X0822207Y1603293D01*
X0821964Y1602929D01*
X0821878Y16025D01*
X0821878Y16025D01*
Y1589891D01*
X0821437Y1589708D01*
X0820789Y1589211D01*
X0820292Y1588563D01*
X081998Y1587809D01*
X0819873Y1587D01*
X081998Y1586191D01*
X0820292Y1585437D01*
X0820789Y1584789D01*
X0821437Y1584292D01*
X0822191Y158398D01*
X0823Y1583873D01*
X0823809Y158398D01*
X0824563Y1584292D01*
X0825211Y1584789D01*
X0825708Y1585437D01*
X082602Y1586191D01*
X0826127Y1587D01*
X082602Y1587809D01*
X0825708Y1588563D01*
X0825211Y1589211D01*
X0824563Y1589708D01*
X0824122Y1589891D01*
Y1602035D01*
X0829293Y1607207D01*
X0829293Y1607207D01*
X0829536Y1607571D01*
X0829622Y1608D01*
Y1697535D01*
X0858037Y1725951D01*
X0858511Y1725718D01*
X0858417Y1725D01*
X0858539Y1724073D01*
X0858897Y1723208D01*
X0859466Y1722466D01*
X0860208Y1721897D01*
X0861073Y1721539D01*
X0862Y1721417D01*
X0862927Y1721539D01*
X0863792Y1721897D01*
X0864534Y1722466D01*
X0865103Y1723208D01*
X0865461Y1724073D01*
X0865583Y1725D01*
X0865461Y1725927D01*
X0865103Y1726792D01*
X0864534Y1727534D01*
X0863792Y1728103D01*
X0863128Y1728378D01*
X0863227Y1728879D01*
X0870773D01*
X0870872Y1728378D01*
X0870208Y1728103D01*
X0869466Y1727534D01*
X0868897Y1726792D01*
X0868539Y1725927D01*
X0868417Y1725D01*
X086848Y1724519D01*
X0868478Y1724503D01*
X0868055Y1724051D01*
D01*
X0868Y1724054D01*
X0868Y1724054D01*
X0868Y1724054D01*
X0867586Y1724034D01*
X0867507Y1724019D01*
X0867157Y1723949D01*
X086686Y1723751D01*
X0866793Y1723706D01*
X0866486Y1723427D01*
X0866486Y1723427D01*
X0866207Y172312D01*
X0866162Y1723053D01*
X0865964Y1722756D01*
X0865878Y1722327D01*
X0865878Y1722327D01*
Y1716227D01*
X0865378Y1716128D01*
X0865103Y1716792D01*
X0864534Y1717534D01*
X0863792Y1718103D01*
X0862927Y1718461D01*
X0862Y1718583D01*
X0861073Y1718461D01*
X0860208Y1718103D01*
X0859466Y1717534D01*
X0858897Y1716792D01*
X0858539Y1715927D01*
X0858417Y1715D01*
X0858539Y1714073D01*
X0858897Y1713208D01*
X0859466Y1712466D01*
X0860208Y1711897D01*
X0861073Y1711539D01*
X0862Y1711417D01*
X0862927Y1711539D01*
X0863792Y1711897D01*
X0864534Y1712466D01*
X0865103Y1713208D01*
X0865378Y1713873D01*
X0865878Y1713773D01*
Y1706227D01*
X0865378Y1706128D01*
X0865103Y1706792D01*
X0864534Y1707534D01*
X0863792Y1708103D01*
X0862927Y1708461D01*
X0862Y1708583D01*
X0861073Y1708461D01*
X0860208Y1708103D01*
X0859466Y1707534D01*
X0858897Y1706792D01*
X0858539Y1705927D01*
X0858417Y1705D01*
X0858539Y1704073D01*
X0858897Y1703208D01*
X0859466Y1702466D01*
X0860208Y1701897D01*
X0861073Y1701539D01*
X0862Y1701417D01*
X0862927Y1701539D01*
X0863792Y1701897D01*
X0864534Y1702466D01*
X0865103Y1703208D01*
X0865378Y1703872D01*
X0865878Y1703773D01*
Y1696227D01*
X0865378Y1696128D01*
X0865103Y1696792D01*
X0864534Y1697534D01*
X0863792Y1698103D01*
X0862927Y1698461D01*
X0862Y1698583D01*
X0861073Y1698461D01*
X0860208Y1698103D01*
X0859466Y1697534D01*
X0858897Y1696792D01*
X0858539Y1695927D01*
X0858417Y1695D01*
X0858539Y1694073D01*
X0858897Y1693208D01*
X0859466Y1692466D01*
X0860208Y1691897D01*
X0861073Y1691539D01*
X0862Y1691417D01*
X0862927Y1691539D01*
X0863792Y1691897D01*
X0864534Y1692466D01*
X0865103Y1693208D01*
X0865378Y1693872D01*
X0865878Y1693773D01*
Y1686227D01*
X0865378Y1686127D01*
X0865103Y1686792D01*
X0864534Y1687534D01*
X0863792Y1688103D01*
X0862927Y1688461D01*
X0862Y1688583D01*
X0861073Y1688461D01*
X0860208Y1688103D01*
X0859466Y1687534D01*
X0858897Y1686792D01*
X0858539Y1685927D01*
X0858417Y1685D01*
X0858539Y1684073D01*
X0858897Y1683208D01*
X0859466Y1682466D01*
X0860208Y1681897D01*
X0861073Y1681539D01*
X0862Y1681417D01*
X0862927Y1681539D01*
X0863792Y1681897D01*
X0864534Y1682466D01*
X0865103Y1683208D01*
X0865378Y1683872D01*
X0865878Y1683773D01*
Y1676227D01*
X0865378Y1676127D01*
X0865103Y1676792D01*
X0864534Y1677534D01*
X0863792Y1678103D01*
X0862927Y1678461D01*
X0862Y1678583D01*
X0861073Y1678461D01*
X0860208Y1678103D01*
X0859466Y1677534D01*
X0858897Y1676792D01*
X0858539Y1675927D01*
X0858417Y1675D01*
X0858539Y1674073D01*
X0858897Y1673208D01*
X0859466Y1672466D01*
X0860208Y1671897D01*
X0861073Y1671539D01*
X0862Y1671417D01*
X0862927Y1671539D01*
X0863792Y1671897D01*
X0864534Y1672466D01*
X0865103Y1673208D01*
X0865378Y1673873D01*
X0865878Y1673773D01*
Y1666227D01*
X0865378Y1666128D01*
X0865103Y1666792D01*
X0864534Y1667534D01*
X0863792Y1668103D01*
X0862927Y1668461D01*
X0862Y1668583D01*
X0861073Y1668461D01*
X0860208Y1668103D01*
X0859466Y1667534D01*
X0858897Y1666792D01*
X0858539Y1665927D01*
X0858417Y1665D01*
X0858539Y1664073D01*
X0858897Y1663208D01*
X0859466Y1662466D01*
X0860208Y1661897D01*
X0861073Y1661539D01*
X0862Y1661417D01*
X0862927Y1661539D01*
X0863792Y1661897D01*
X0864534Y1662466D01*
X0865103Y1663208D01*
X0865378Y1663873D01*
X0865878Y1663773D01*
Y1656227D01*
X0865378Y1656128D01*
X0865103Y1656792D01*
X0864534Y1657534D01*
X0863792Y1658103D01*
X0862927Y1658461D01*
X0862Y1658583D01*
X0861073Y1658461D01*
X0860208Y1658103D01*
X0859466Y1657534D01*
X0858897Y1656792D01*
X0858539Y1655927D01*
X0858417Y1655D01*
X0858539Y1654073D01*
X0858897Y1653208D01*
X0859466Y1652466D01*
X0860208Y1651897D01*
X0861073Y1651539D01*
X0862Y1651417D01*
X0862927Y1651539D01*
X0863792Y1651897D01*
X0864534Y1652466D01*
X0865103Y1653208D01*
X0865378Y1653872D01*
X0865878Y1653773D01*
Y165D01*
X0865878Y165D01*
X0865964Y1649571D01*
X0866207Y1649207D01*
X0866207Y1649207D01*
X08665Y1648914D01*
X086851Y1646904D01*
X0868149Y1646032D01*
X0868079Y16455D01*
X08715D01*
Y1648921D01*
X0870968Y1648851D01*
X0870096Y164849D01*
X0868122Y1650464D01*
Y1653773D01*
X0868622Y1653872D01*
X0868897Y1653208D01*
X0869466Y1652466D01*
X0870208Y1651897D01*
X0871073Y1651539D01*
X0872Y1651417D01*
X0872927Y1651539D01*
X0873792Y1651897D01*
X0874534Y1652466D01*
X0875103Y1653208D01*
X0875461Y1654073D01*
X0875583Y1655D01*
X0875461Y1655927D01*
X0875103Y1656792D01*
X0874534Y1657534D01*
X0873792Y1658103D01*
X0872927Y1658461D01*
X0872Y1658583D01*
X0871073Y1658461D01*
X0870208Y1658103D01*
X0869466Y1657534D01*
X0868897Y1656792D01*
X0868622Y1656128D01*
X0868122Y1656227D01*
Y1663773D01*
X0868622Y1663873D01*
X0868897Y1663208D01*
X0869466Y1662466D01*
X0870208Y1661897D01*
X0871073Y1661539D01*
X0872Y1661417D01*
X0872927Y1661539D01*
X0873792Y1661897D01*
X0874534Y1662466D01*
X0875103Y1663208D01*
X0875461Y1664073D01*
X0875583Y1665D01*
X0875461Y1665927D01*
X0875103Y1666792D01*
X0874534Y1667534D01*
X0873792Y1668103D01*
X0872927Y1668461D01*
X0872Y1668583D01*
X0871073Y1668461D01*
X0870208Y1668103D01*
X0869466Y1667534D01*
X0868897Y1666792D01*
X0868622Y1666128D01*
X0868122Y1666227D01*
Y1673773D01*
X0868622Y1673873D01*
X0868897Y1673208D01*
X0869466Y1672466D01*
X0870208Y1671897D01*
X0871073Y1671539D01*
X0872Y1671417D01*
X0872927Y1671539D01*
X0873792Y1671897D01*
X0874534Y1672466D01*
X0875103Y1673208D01*
X0875461Y1674073D01*
X0875583Y1675D01*
X0875461Y1675927D01*
X0875103Y1676792D01*
X0874534Y1677534D01*
X0873792Y1678103D01*
X0872927Y1678461D01*
X0872Y1678583D01*
X0871073Y1678461D01*
X0870208Y1678103D01*
X0869466Y1677534D01*
X0868897Y1676792D01*
X0868622Y1676127D01*
X0868122Y1676227D01*
Y1683773D01*
X0868622Y1683872D01*
X0868897Y1683208D01*
X0869466Y1682466D01*
X0870208Y1681897D01*
X0871073Y1681539D01*
X0872Y1681417D01*
X0872927Y1681539D01*
X0873792Y1681897D01*
X0874534Y1682466D01*
X0875103Y1683208D01*
X0875461Y1684073D01*
X0875583Y1685D01*
X0875461Y1685927D01*
X0875103Y1686792D01*
X0874534Y1687534D01*
X0873792Y1688103D01*
X0872927Y1688461D01*
X0872Y1688583D01*
X0871073Y1688461D01*
X0870208Y1688103D01*
X0869466Y1687534D01*
X0868897Y1686792D01*
X0868622Y1686127D01*
X0868122Y1686227D01*
Y1693773D01*
X0868622Y1693872D01*
X0868897Y1693208D01*
X0869466Y1692466D01*
X0870208Y1691897D01*
X0871073Y1691539D01*
X0872Y1691417D01*
X0872927Y1691539D01*
X0873792Y1691897D01*
X0874534Y1692466D01*
X0875103Y1693208D01*
X0875461Y1694073D01*
X0875583Y1695D01*
X0875461Y1695927D01*
X0875103Y1696792D01*
X0874534Y1697534D01*
X0873792Y1698103D01*
X0872927Y1698461D01*
X0872Y1698583D01*
X0871073Y1698461D01*
X0870208Y1698103D01*
X0869466Y1697534D01*
X0868897Y1696792D01*
X0868622Y1696128D01*
X0868122Y1696227D01*
Y1703773D01*
X0868622Y1703872D01*
X0868897Y1703208D01*
X0869466Y1702466D01*
X0870208Y1701897D01*
X0871073Y1701539D01*
X0872Y1701417D01*
X0872927Y1701539D01*
X0873792Y1701897D01*
X0874534Y1702466D01*
X0875103Y1703208D01*
X0875461Y1704073D01*
X0875583Y1705D01*
X0875461Y1705927D01*
X0875103Y1706792D01*
X0874534Y1707534D01*
X0873792Y1708103D01*
X0872927Y1708461D01*
X0872Y1708583D01*
X0871073Y1708461D01*
X0870208Y1708103D01*
X0869466Y1707534D01*
X0868897Y1706792D01*
X0868622Y1706128D01*
X0868122Y1706227D01*
Y1713773D01*
X0868622Y1713873D01*
X0868897Y1713208D01*
X0869466Y1712466D01*
X0870208Y1711897D01*
X0871073Y1711539D01*
X0872Y1711417D01*
X0872927Y1711539D01*
X0873792Y1711897D01*
X0874534Y1712466D01*
X0875103Y1713208D01*
X0875461Y1714073D01*
X0875583Y1715D01*
X0875461Y1715927D01*
X0875103Y1716792D01*
X0874534Y1717534D01*
X0873792Y1718103D01*
X0872927Y1718461D01*
X0872Y1718583D01*
X0871073Y1718461D01*
X0870208Y1718103D01*
X0869466Y1717534D01*
X0868897Y1716792D01*
X0868622Y1716128D01*
X0868122Y1716227D01*
Y1720851D01*
X0868622Y1721098D01*
X0869401Y1720499D01*
X0870655Y171998D01*
X0872Y1719803D01*
X0873345Y171998D01*
X0874599Y1720499D01*
X0875675Y1721325D01*
X0876501Y1722401D01*
X087702Y1723655D01*
X087705Y1723878D01*
X0936676D01*
X0936943Y1723235D01*
X0937504Y1722504D01*
X0938235Y1721943D01*
X0939086Y172159D01*
X09395Y1721536D01*
Y1725D01*
Y1728464D01*
X0939086Y172841D01*
X0938235Y1728057D01*
X0937504Y1727496D01*
X0936943Y1726765D01*
X0936676Y1726122D01*
X0876053D01*
X0875624Y1726036D01*
X0875387Y1726108D01*
X0875103Y1726792D01*
X0874534Y1727534D01*
X0873792Y1728103D01*
X0873015Y1728425D01*
X0872981Y1728717D01*
X0873027Y1728937D01*
X0873161Y1728964D01*
X0873525Y1729207D01*
X0873525Y1729207D01*
X0902793Y1758475D01*
X0902793Y1758475D01*
X0903036Y1758839D01*
X0903122Y1759269D01*
X0903122Y1759269D01*
Y1791619D01*
X0903792Y1791897D01*
X0904534Y1792466D01*
X0905103Y1793208D01*
X0905461Y1794073D01*
X0905583Y1795D01*
X0905461Y1795927D01*
X0905103Y1796792D01*
X0904534Y1797534D01*
X0903792Y1798103D01*
X0903127Y1798379D01*
X0903227Y1798878D01*
X0910878D01*
Y1798381D01*
X0910208Y1798103D01*
X0909466Y1797534D01*
X0908897Y1796792D01*
X0908539Y1795927D01*
X0908417Y1795D01*
X0908539Y1794073D01*
X0908897Y1793208D01*
X0909466Y1792466D01*
X0910208Y1791897D01*
X0911073Y1791539D01*
X0912Y1791417D01*
X0912927Y1791539D01*
X0913792Y1791897D01*
X0914534Y1792466D01*
X0915103Y1793208D01*
X0915461Y1794073D01*
X0915583Y1795D01*
X0915461Y1795927D01*
X0915103Y1796792D01*
X0914534Y1797534D01*
X0913792Y1798103D01*
X0913122Y1798381D01*
Y1799414D01*
X0913036Y1799843D01*
X0912793Y1800207D01*
X0912793Y1800207D01*
X0912207Y1800793D01*
X0911993Y1800936D01*
X0911993Y1800974D01*
X0912145Y1801436D01*
X0912927Y1801539D01*
X0913792Y1801897D01*
X0914534Y1802466D01*
X0915103Y1803208D01*
X0915461Y1804073D01*
X0915583Y1805D01*
X0915461Y1805927D01*
X0915103Y1806792D01*
X0914534Y1807534D01*
X0913792Y1808103D01*
X0912927Y1808461D01*
X0912Y1808583D01*
X0911073Y1808461D01*
X0910208Y1808103D01*
X0909466Y1807534D01*
X0908897Y1806792D01*
X0908539Y1805927D01*
X0908417Y1805D01*
X0908539Y1804073D01*
X0908897Y1803208D01*
X0909466Y1802466D01*
X0910208Y1801897D01*
X0910872Y1801621D01*
X0910773Y1801122D01*
X0903227D01*
X0903127Y1801621D01*
X0903792Y1801897D01*
X0904534Y1802466D01*
X0905103Y1803208D01*
X0905461Y1804073D01*
X0905583Y1805D01*
X0905461Y1805927D01*
X0905103Y1806792D01*
X0904534Y1807534D01*
X0903792Y1808103D01*
X0902927Y1808461D01*
X0902Y1808583D01*
X0901073Y1808461D01*
X0900208Y1808103D01*
X0899466Y1807534D01*
X0898897Y1806792D01*
X0898539Y1805927D01*
X0898417Y1805D01*
X0898539Y1804073D01*
X0898897Y1803208D01*
X0899466Y1802466D01*
X0900208Y1801897D01*
X0900873Y1801621D01*
X0900773Y1801122D01*
X0897586D01*
X0897157Y1801036D01*
X0896793Y1800793D01*
X0896793Y1800793D01*
X0896207Y1800207D01*
X0895964Y1799843D01*
X0895878Y1799414D01*
X0895878Y1799414D01*
Y1796227D01*
X0895378Y1796128D01*
X0895103Y1796792D01*
X0894534Y1797534D01*
X0893792Y1798103D01*
X0892927Y1798461D01*
X0892Y1798583D01*
X0891073Y1798461D01*
X0890208Y1798103D01*
X0889466Y1797534D01*
X0888897Y1796792D01*
X0888539Y1795927D01*
X0888417Y1795D01*
X0888539Y1794073D01*
X0888897Y1793208D01*
X0889466Y1792466D01*
X0890208Y1791897D01*
X0891073Y1791539D01*
X0892Y1791417D01*
X0892927Y1791539D01*
X0893792Y1791897D01*
X0894534Y1792466D01*
X0895103Y1793208D01*
X0895378Y1793872D01*
X0895878Y1793773D01*
Y1775926D01*
X0875953Y1756D01*
X0875864Y1755987D01*
X0875392Y1756118D01*
X0875377Y1756132D01*
X0875103Y1756792D01*
X0874534Y1757534D01*
X0873792Y1758103D01*
X0872927Y1758461D01*
X0872Y1758583D01*
X0871073Y1758461D01*
X0870208Y1758103D01*
X0869466Y1757534D01*
X0868897Y1756792D01*
X0868539Y1755927D01*
X0868417Y1755D01*
X0868539Y1754073D01*
X0868897Y1753208D01*
X0869466Y1752466D01*
X0870208Y1751897D01*
X0870678Y1751702D01*
X0870795Y1751113D01*
X0865888Y1746205D01*
X0865298Y1746322D01*
X0865103Y1746792D01*
X0864534Y1747534D01*
X0863792Y1748103D01*
X0862927Y1748461D01*
X0862Y1748583D01*
X0861073Y1748461D01*
X0860208Y1748103D01*
X0859466Y1747534D01*
X0858897Y1746792D01*
X0858539Y1745927D01*
X0858417Y1745D01*
X0858539Y1744073D01*
X0858897Y1743208D01*
X0859299Y1742685D01*
X0859111Y1742138D01*
X0858826Y1742081D01*
X0858286Y174172D01*
X0858286Y174172D01*
X0858209Y1741661D01*
X0858209Y1741661D01*
X0857931Y1741384D01*
X0857931Y1741383D01*
X0857924Y1741376D01*
X0824207Y1707659D01*
X0823964Y1707295D01*
X0823878Y1706866D01*
X0823878Y1706866D01*
Y1612965D01*
X080343Y1592516D01*
X0802921Y1592537D01*
X0802711Y1592811D01*
X0802063Y1593308D01*
X0801309Y159362D01*
X0800791Y1593688D01*
X0800611Y1594216D01*
X0821793Y1615398D01*
X0821793Y1615398D01*
X0822036Y1615762D01*
X0822122Y1616191D01*
Y1739267D01*
X0857969Y1775114D01*
X0858434Y1774872D01*
X0858539Y1774073D01*
X0858897Y1773208D01*
X0859466Y1772466D01*
X0860208Y1771897D01*
X0861073Y1771539D01*
X0862Y1771417D01*
X0862927Y1771539D01*
X0863792Y1771897D01*
X0864534Y1772466D01*
X0865103Y1773208D01*
X0865461Y1774073D01*
X0865583Y1775D01*
X0865461Y1775927D01*
X0865103Y1776792D01*
X0864534Y1777534D01*
X0863792Y1778103D01*
X0862927Y1778461D01*
X0862128Y1778567D01*
X0861886Y1779031D01*
X0862757Y1779902D01*
X0863345Y177998D01*
X0864599Y1780499D01*
X0865675Y1781325D01*
X0866501Y1782401D01*
X086702Y1783655D01*
X0867025Y1783694D01*
X0868695D01*
X0868897Y1783208D01*
X0869466Y1782466D01*
X0870208Y1781897D01*
X0871073Y1781539D01*
X0872Y1781417D01*
X0872927Y1781539D01*
X0873792Y1781897D01*
X0874534Y1782466D01*
X0875103Y1783208D01*
X0875461Y1784073D01*
X0875583Y1785D01*
X0875461Y1785927D01*
X0875103Y1786792D01*
X0874534Y1787534D01*
X0873792Y1788103D01*
X0872927Y1788461D01*
X0872Y1788583D01*
X0871073Y1788461D01*
X0870208Y1788103D01*
X0869466Y1787534D01*
X0868897Y1786792D01*
X0868543Y1785937D01*
X0866084D01*
X0866084Y1785937D01*
X0865967Y1785914D01*
X0865595Y1785924D01*
X0865333Y1786238D01*
X0865103Y1786792D01*
X0864788Y1787202D01*
X0866944Y1789358D01*
X0875894D01*
X0875894Y1789358D01*
X0876323Y1789444D01*
X0876687Y1789687D01*
X0877273Y1790272D01*
X0877273Y1790272D01*
X0877516Y1790636D01*
X0877601Y1791065D01*
Y1876914D01*
X0877516Y1877343D01*
X0877273Y1877707D01*
X0877273Y1877707D01*
X0876687Y1878293D01*
X0876323Y1878536D01*
X0875894Y1878622D01*
X0875894Y1878621D01*
X0864891D01*
X0864708Y1879063D01*
X0864211Y1879711D01*
X0863563Y1880208D01*
X0862809Y188052D01*
X0862Y1880627D01*
X0861191Y188052D01*
X0860437Y1880208D01*
X0859789Y1879711D01*
X0859292Y1879063D01*
X085898Y1878309D01*
X0858873Y18775D01*
X085898Y1876691D01*
X0859292Y1875937D01*
X0859789Y1875289D01*
X0860437Y1874792D01*
X0861191Y187448D01*
X0862Y1874373D01*
X0862809Y187448D01*
X0863563Y1874792D01*
X0864211Y1875289D01*
X0864708Y1875937D01*
X0864891Y1876378D01*
X0875358D01*
Y1807281D01*
X0874858Y1807111D01*
X0874534Y1807534D01*
X0873792Y1808103D01*
X0873122Y1808381D01*
Y18275D01*
X0873122Y18275D01*
X0873036Y1827929D01*
X0872793Y1828293D01*
X0872793Y1828293D01*
X0823293Y1877793D01*
X0822929Y1878036D01*
X08225Y1878122D01*
X08225Y1878122D01*
X0775391D01*
X0775208Y1878563D01*
X0774711Y1879211D01*
X0774063Y1879708D01*
X0773309Y188002D01*
X07725Y1880127D01*
X0771691Y188002D01*
X0770937Y1879708D01*
X0770289Y1879211D01*
X0769792Y1878563D01*
X076948Y1877809D01*
X0769373Y1877D01*
X076948Y1876191D01*
X0769792Y1875437D01*
X0770289Y1874789D01*
X0770937Y1874292D01*
X0771691Y187398D01*
X07725Y1873873D01*
X0773309Y187398D01*
X0774063Y1874292D01*
X0774711Y1874789D01*
X0775208Y1875437D01*
X0775391Y1875879D01*
X0822035D01*
X0870878Y1827035D01*
Y1808381D01*
X0870208Y1808103D01*
X0869466Y1807534D01*
X0868897Y1806792D01*
X0868622Y1806128D01*
X0868122Y1806227D01*
Y1826D01*
X0868036Y1826429D01*
X0867793Y1826793D01*
X0867793Y1826793D01*
X0857254Y1837333D01*
X085689Y1837576D01*
X0856461Y1837661D01*
X085646Y1837661D01*
X0820925D01*
X0791393Y1867193D01*
X0791029Y1867436D01*
X07906Y1867522D01*
X07906Y1867521D01*
X0772565D01*
X0764337Y1875749D01*
X076452Y1876191D01*
X0764627Y1877D01*
X076452Y1877809D01*
X0764208Y1878563D01*
X0763711Y1879211D01*
X0763063Y1879708D01*
X0762309Y188002D01*
X07615Y1880127D01*
X0760691Y188002D01*
X0759937Y1879708D01*
X0759289Y1879211D01*
X0758792Y1878563D01*
X075848Y1877809D01*
X0758373Y1877D01*
X075848Y1876191D01*
X0758792Y1875437D01*
X0759289Y1874789D01*
X0759937Y1874292D01*
X0760691Y187398D01*
X07615Y1873873D01*
X0762309Y187398D01*
X0762751Y1874163D01*
X0771307Y1865607D01*
X0771307Y1865607D01*
X0771671Y1865364D01*
X07721Y1865278D01*
X0779364D01*
X0779611Y1864779D01*
X0779292Y1864363D01*
X077898Y1863609D01*
X0778873Y18628D01*
X077898Y1861991D01*
X0779292Y1861237D01*
X0779789Y1860589D01*
X0779859Y1860535D01*
Y1845264D01*
X0779789Y1845211D01*
X0779292Y1844563D01*
X077898Y1843809D01*
X0778873Y1843D01*
X077898Y1842191D01*
X0779292Y1841437D01*
X0779789Y1840789D01*
X0780437Y1840292D01*
X0781191Y183998D01*
X0782Y1839873D01*
X0782809Y183998D01*
X0783563Y1840292D01*
X0784211Y1840789D01*
X0784708Y1841437D01*
X078502Y1842191D01*
X0785127Y1843D01*
X078502Y1843809D01*
X0784708Y1844563D01*
X0784211Y1845211D01*
X0784141Y1845264D01*
Y1860535D01*
X0784211Y1860589D01*
X0784708Y1861237D01*
X078502Y1861991D01*
X0785127Y18628D01*
X078502Y1863609D01*
X0784708Y1864363D01*
X0784389Y1864779D01*
X0784636Y1865278D01*
X0790135D01*
X0819668Y1835746D01*
X0819668Y1835746D01*
X0820031Y1835503D01*
X0820461Y1835418D01*
X0820461Y1835418D01*
X0855996D01*
X0865878Y1825535D01*
Y1806227D01*
X0865378Y1806128D01*
X0865103Y1806792D01*
X0864534Y1807534D01*
X0863792Y1808103D01*
X0862927Y1808461D01*
X0862Y1808583D01*
X0861073Y1808461D01*
X0860208Y1808103D01*
X0859466Y1807534D01*
X0858897Y1806792D01*
X0858539Y1805927D01*
X0858417Y1805D01*
X0858539Y1804073D01*
X0858816Y1803402D01*
X0816207Y1760793D01*
X0815964Y1760429D01*
X0815878Y176D01*
X0815878Y176D01*
Y1757553D01*
X0809447D01*
Y1750447D01*
X0815878D01*
Y1656861D01*
X0815378Y1656653D01*
X0814792Y1657103D01*
X0813927Y1657461D01*
X0813Y1657583D01*
X0812072Y1657461D01*
X0811208Y1657103D01*
X0810466Y1656534D01*
X0809897Y1655792D01*
X0809539Y1654927D01*
X0809417Y1654D01*
X0809539Y1653073D01*
X0809897Y1652208D01*
X0810466Y1651466D01*
X0811208Y1650897D01*
X0812072Y1650539D01*
X0813Y1650417D01*
X0813927Y1650539D01*
X0814792Y1650897D01*
X0815378Y1651347D01*
X0815878Y1651139D01*
Y1619465D01*
X0782207Y1585793D01*
X0781964Y1585429D01*
X0781878Y1585D01*
X0781878Y1585D01*
Y1575891D01*
X0781437Y1575708D01*
X0780789Y1575211D01*
X0780292Y1574563D01*
X077998Y1573809D01*
X0779873Y1573D01*
X077998Y1572191D01*
X0780292Y1571437D01*
X0780789Y1570789D01*
X0781437Y1570292D01*
X0782191Y156998D01*
X0783Y1569873D01*
X0783809Y156998D01*
X0784563Y1570292D01*
X0785211Y1570789D01*
X0785278Y1570877D01*
X0785778Y1570707D01*
Y1565793D01*
X0785278Y1565623D01*
X0785211Y1565711D01*
X0784563Y1566208D01*
X0783809Y156652D01*
X0783Y1566627D01*
X0782191Y156652D01*
X0781437Y1566208D01*
X0780789Y1565711D01*
X0780292Y1565063D01*
X077998Y1564309D01*
X0779873Y15635D01*
X077998Y1562691D01*
X0780292Y1561937D01*
X0780789Y1561289D01*
X0781007Y1561122D01*
X0780838Y1560622D01*
X0716162D01*
X0715993Y1561122D01*
X0716211Y1561289D01*
X0716708Y1561937D01*
X071702Y1562691D01*
X0717127Y15635D01*
X071702Y1564309D01*
X0716708Y1565063D01*
X0716211Y1565711D01*
X0715563Y1566208D01*
X0714809Y156652D01*
X0714Y1566627D01*
X0713191Y156652D01*
X0712437Y1566208D01*
X0711789Y1565711D01*
X0711292Y1565063D01*
X071098Y1564309D01*
X0710873Y15635D01*
X071098Y1562691D01*
X0711292Y1561937D01*
X0711789Y1561289D01*
X0712007Y1561122D01*
X0711838Y1560622D01*
X0687122D01*
Y1578676D01*
X0687765Y1578943D01*
X0688496Y1579504D01*
X0689057Y1580235D01*
X068941Y1581086D01*
X0689464Y15815D01*
X0682536D01*
X068259Y1581086D01*
X0682943Y1580235D01*
X0683504Y1579504D01*
X0684235Y1578943D01*
X0684878Y1578676D01*
Y1560086D01*
X0684878Y1560086D01*
X0684964Y1559657D01*
X0685207Y1559293D01*
X0685604Y1558895D01*
X0685397Y1558395D01*
X0503567D01*
X0503559Y1558394D01*
X0500777Y155855D01*
X0498022Y1559018D01*
X0495337Y1559792D01*
X0492755Y1560861D01*
X049031Y1562213D01*
X0488031Y156383D01*
X0485947Y1565692D01*
X0484085Y1567775D01*
X0482468Y1570054D01*
X0481117Y15725D01*
X0480047Y1575081D01*
X0479274Y1577766D01*
X0478806Y1580521D01*
X0478677Y1582818D01*
X0478651Y1583311D01*
X0478651Y1583311D01*
X0478651Y1583803D01*
Y1857781D01*
X0478649Y1857789D01*
X0478806Y1860571D01*
X0479274Y1863326D01*
X0480047Y1866011D01*
X0481117Y1868592D01*
X0482468Y1871038D01*
X0484085Y1873317D01*
X0485947Y1875401D01*
X0488031Y1877262D01*
X049031Y1878879D01*
X0492755Y1880231D01*
X0495337Y18813D01*
X0498022Y1882074D01*
X0500777Y1882542D01*
X0503077Y1882671D01*
X0503567Y1882697D01*
X050382Y1882747D01*
X0504035Y1882891D01*
X0504179Y1883106D01*
X0504229Y1883359D01*
X0504287Y188343D01*
X0733141D01*
X0733919Y1883466D01*
X0735498Y1883693D01*
X0737034Y1884123D01*
X0738502Y1884748D01*
X0739877Y1885558D01*
X0741136Y1886539D01*
X0742256Y1887674D01*
X0743221Y1888945D01*
X0744012Y1890331D01*
X0744618Y1891807D01*
X0745028Y1893349D01*
X0745234Y1894931D01*
X074526Y1895729D01*
X074526Y1895749D01*
X074526Y1895788D01*
X074526Y1895828D01*
X074526Y1895868D01*
X0745259Y1895888D01*
X0745259Y1895889D01*
X0745259Y1895889D01*
Y1988978D01*
X0745259Y1989803D01*
X0745474Y1991435D01*
X0745901Y1993025D01*
X0746531Y1994546D01*
X0747354Y1995972D01*
X0748356Y1997278D01*
X0749521Y1998443D01*
X0750827Y1999445D01*
X0752253Y2000268D01*
X0753774Y2000898D01*
X0755364Y2001325D01*
X0756996Y200154D01*
X075782Y200154D01*
Y200154D01*
X075832Y200154D01*
X0850909Y200154D01*
X085091Y200154D01*
X085091Y200154D01*
D02*
G37*
%LPC*%
G36*
X080434Y1993956D02*
X0802677Y1993825D01*
X0801054Y1993435D01*
X0799513Y1992797D01*
X079809Y1991925D01*
X0796821Y1990841D01*
X0795738Y1989573D01*
X0794866Y198815D01*
X0794228Y1986609D01*
X0793838Y1984986D01*
X0793707Y1983323D01*
X0793838Y198166D01*
X0794228Y1980037D01*
X0794866Y1978496D01*
X0795738Y1977073D01*
X0796821Y1975805D01*
X079809Y1974721D01*
X0799513Y1973849D01*
X0801054Y1973211D01*
X0802677Y1972821D01*
X080434Y197269D01*
X0806003Y1972821D01*
X0807626Y1973211D01*
X0809167Y1973849D01*
X081059Y1974721D01*
X0811858Y1975805D01*
X0812942Y1977073D01*
X0813814Y1978496D01*
X0814452Y1980037D01*
X0814842Y198166D01*
X0814973Y1983323D01*
X0814842Y1984986D01*
X0814452Y1986609D01*
X0813814Y198815D01*
X0812942Y1989573D01*
X0811858Y1990841D01*
X081059Y1991925D01*
X0809167Y1992797D01*
X0807626Y1993435D01*
X0806003Y1993825D01*
X080434Y1993956D01*
D02*
G37*
G36*
X084487Y1953016D02*
X0843207Y1952886D01*
X0841584Y1952496D01*
X0840043Y1951858D01*
X083862Y1950986D01*
X0837351Y1949902D01*
X0836268Y1948634D01*
X0835396Y1947211D01*
X0834758Y1945669D01*
X0834368Y1944047D01*
X0834237Y1942384D01*
X0834368Y194072D01*
X0834758Y1939098D01*
X0835396Y1937556D01*
X0836268Y1936134D01*
X0837351Y1934865D01*
X083862Y1933782D01*
X0840043Y193291D01*
X0841584Y1932271D01*
X0843207Y1931882D01*
X084487Y1931751D01*
X0846533Y1931882D01*
X0848156Y1932271D01*
X0849697Y193291D01*
X085112Y1933782D01*
X0852388Y1934865D01*
X0853472Y1936134D01*
X0854344Y1937556D01*
X0854982Y1939098D01*
X0855372Y194072D01*
X0855503Y1942384D01*
X0855372Y1944047D01*
X0854982Y1945669D01*
X0854344Y1947211D01*
X0853472Y1948634D01*
X0852388Y1949902D01*
X085112Y1950986D01*
X0849697Y1951858D01*
X0848156Y1952496D01*
X0846533Y1952886D01*
X084487Y1953016D01*
D02*
G37*
G36*
X0762151D02*
X0760488Y1952886D01*
X0758865Y1952496D01*
X0757324Y1951858D01*
X0755901Y1950986D01*
X0754633Y1949902D01*
X0753549Y1948634D01*
X0752677Y1947211D01*
X0752039Y1945669D01*
X0751649Y1944047D01*
X0751518Y1942384D01*
X0751649Y194072D01*
X0752039Y1939098D01*
X0752677Y1937556D01*
X0753549Y1936134D01*
X0754633Y1934865D01*
X0755901Y1933782D01*
X0757324Y193291D01*
X0758865Y1932271D01*
X0760488Y1931882D01*
X0762151Y1931751D01*
X0763814Y1931882D01*
X0765437Y1932271D01*
X0766978Y193291D01*
X0768401Y1933782D01*
X076967Y1934865D01*
X0770753Y1936134D01*
X0771625Y1937556D01*
X0772264Y1939098D01*
X0772653Y194072D01*
X0772784Y1942384D01*
X0772653Y1944047D01*
X0772264Y1945669D01*
X0771625Y1947211D01*
X0770753Y1948634D01*
X076967Y1949902D01*
X0768401Y1950986D01*
X0766978Y1951858D01*
X0765437Y1952496D01*
X0763814Y1952886D01*
X0762151Y1953016D01*
D02*
G37*
G36*
X080434Y1911329D02*
X0802677Y1911198D01*
X0801054Y1910808D01*
X0799513Y191017D01*
X079809Y1909298D01*
X0796821Y1908215D01*
X0795738Y1906946D01*
X0794866Y1905523D01*
X0794228Y1903982D01*
X0793838Y1902359D01*
X0793707Y1900696D01*
X0793838Y1899033D01*
X0794228Y189741D01*
X0794866Y1895869D01*
X0795738Y1894446D01*
X0796821Y1893177D01*
X079809Y1892094D01*
X0799513Y1891222D01*
X0801054Y1890584D01*
X0802677Y1890194D01*
X080434Y1890063D01*
X0806003Y1890194D01*
X0807626Y1890584D01*
X0809167Y1891222D01*
X081059Y1892094D01*
X0811858Y1893177D01*
X0812942Y1894446D01*
X0813814Y1895869D01*
X0814452Y189741D01*
X0814842Y1899033D01*
X0814973Y1900696D01*
X0814842Y1902359D01*
X0814452Y1903982D01*
X0813814Y1905523D01*
X0812942Y1906946D01*
X0811858Y1908215D01*
X081059Y1909298D01*
X0809167Y191017D01*
X0807626Y1910808D01*
X0806003Y1911198D01*
X080434Y1911329D01*
D02*
G37*
G36*
X1011Y1872421D02*
Y1869D01*
X1014421D01*
X1014351Y1869532D01*
X1013953Y1870493D01*
X1013319Y1871319D01*
X1012493Y1871953D01*
X1011532Y1872351D01*
X1011Y1872421D01*
D02*
G37*
G36*
X101D02*
X1009468Y1872351D01*
X1008507Y1871953D01*
X1007681Y1871319D01*
X1007047Y1870493D01*
X1006649Y1869532D01*
X1006579Y1869D01*
X101D01*
Y1872421D01*
D02*
G37*
G36*
X0602Y1869421D02*
Y1866D01*
X0605421D01*
X0605351Y1866532D01*
X0604953Y1867493D01*
X0604319Y1868319D01*
X0603493Y1868953D01*
X0602532Y1869351D01*
X0602Y1869421D01*
D02*
G37*
G36*
X0601D02*
X0600468Y1869351D01*
X0599507Y1868953D01*
X0598681Y1868319D01*
X0598047Y1867493D01*
X0597649Y1866532D01*
X0597579Y1866D01*
X0601D01*
Y1869421D01*
D02*
G37*
G36*
X1004053Y1872053D02*
X0996947D01*
Y1864947D01*
X1004053D01*
Y1872053D01*
D02*
G37*
G36*
X10705Y1872083D02*
X1069573Y1871961D01*
X1068708Y1871603D01*
X1067966Y1871034D01*
X1067397Y1870292D01*
X1067039Y1869427D01*
X1066917Y18685D01*
X1067039Y1867573D01*
X1067397Y1866708D01*
X1067966Y1865966D01*
X1068708Y1865397D01*
X1069573Y1865039D01*
X10705Y1864917D01*
X1071427Y1865039D01*
X1072292Y1865397D01*
X1073034Y1865966D01*
X1073603Y1866708D01*
X1073961Y1867573D01*
X1074083Y18685D01*
X1073961Y1869427D01*
X1073603Y1870292D01*
X1073034Y1871034D01*
X1072292Y1871603D01*
X1071427Y1871961D01*
X10705Y1872083D01*
D02*
G37*
G36*
X10605D02*
X1059573Y1871961D01*
X1058708Y1871603D01*
X1057966Y1871034D01*
X1057397Y1870292D01*
X1057039Y1869427D01*
X1056917Y18685D01*
X1057039Y1867573D01*
X1057397Y1866708D01*
X1057966Y1865966D01*
X1058708Y1865397D01*
X1059573Y1865039D01*
X10605Y1864917D01*
X1061427Y1865039D01*
X1062292Y1865397D01*
X1063034Y1865966D01*
X1063603Y1866708D01*
X1063961Y1867573D01*
X1064083Y18685D01*
X1063961Y1869427D01*
X1063603Y1870292D01*
X1063034Y1871034D01*
X1062292Y1871603D01*
X1061427Y1871961D01*
X10605Y1872083D01*
D02*
G37*
G36*
X10505D02*
X1049573Y1871961D01*
X1048708Y1871603D01*
X1047966Y1871034D01*
X1047397Y1870292D01*
X1047039Y1869427D01*
X1046917Y18685D01*
X1047039Y1867573D01*
X1047397Y1866708D01*
X1047966Y1865966D01*
X1048708Y1865397D01*
X1049573Y1865039D01*
X10505Y1864917D01*
X1051427Y1865039D01*
X1052292Y1865397D01*
X1053034Y1865966D01*
X1053603Y1866708D01*
X1053961Y1867573D01*
X1054083Y18685D01*
X1053961Y1869427D01*
X1053603Y1870292D01*
X1053034Y1871034D01*
X1052292Y1871603D01*
X1051427Y1871961D01*
X10505Y1872083D01*
D02*
G37*
G36*
X10405D02*
X1039573Y1871961D01*
X1038708Y1871603D01*
X1037966Y1871034D01*
X1037397Y1870292D01*
X1037039Y1869427D01*
X1036917Y18685D01*
X1037039Y1867573D01*
X1037397Y1866708D01*
X1037966Y1865966D01*
X1038708Y1865397D01*
X1039573Y1865039D01*
X10405Y1864917D01*
X1041427Y1865039D01*
X1042292Y1865397D01*
X1043034Y1865966D01*
X1043603Y1866708D01*
X1043961Y1867573D01*
X1044083Y18685D01*
X1043961Y1869427D01*
X1043603Y1870292D01*
X1043034Y1871034D01*
X1042292Y1871603D01*
X1041427Y1871961D01*
X10405Y1872083D01*
D02*
G37*
G36*
X10305D02*
X1029573Y1871961D01*
X1028708Y1871603D01*
X1027966Y1871034D01*
X1027397Y1870292D01*
X1027039Y1869427D01*
X1026917Y18685D01*
X1027039Y1867573D01*
X1027397Y1866708D01*
X1027966Y1865966D01*
X1028708Y1865397D01*
X1029573Y1865039D01*
X10305Y1864917D01*
X1031427Y1865039D01*
X1032292Y1865397D01*
X1033034Y1865966D01*
X1033603Y1866708D01*
X1033961Y1867573D01*
X1034083Y18685D01*
X1033961Y1869427D01*
X1033603Y1870292D01*
X1033034Y1871034D01*
X1032292Y1871603D01*
X1031427Y1871961D01*
X10305Y1872083D01*
D02*
G37*
G36*
X10205D02*
X1019573Y1871961D01*
X1018708Y1871603D01*
X1017966Y1871034D01*
X1017397Y1870292D01*
X1017039Y1869427D01*
X1016917Y18685D01*
X1017039Y1867573D01*
X1017397Y1866708D01*
X1017966Y1865966D01*
X1018708Y1865397D01*
X1019573Y1865039D01*
X10205Y1864917D01*
X1021427Y1865039D01*
X1022292Y1865397D01*
X1023034Y1865966D01*
X1023603Y1866708D01*
X1023961Y1867573D01*
X1024083Y18685D01*
X1023961Y1869427D01*
X1023603Y1870292D01*
X1023034Y1871034D01*
X1022292Y1871603D01*
X1021427Y1871961D01*
X10205Y1872083D01*
D02*
G37*
G36*
X0704Y1871127D02*
X0703191Y187102D01*
X0702437Y1870708D01*
X0701789Y1870211D01*
X0701292Y1869563D01*
X070098Y1868809D01*
X0700873Y1868D01*
X070098Y1867191D01*
X0701292Y1866437D01*
X0701789Y1865789D01*
X0702437Y1865292D01*
X0703191Y186498D01*
X0704Y1864873D01*
X0704809Y186498D01*
X0705563Y1865292D01*
X0706211Y1865789D01*
X0706708Y1866437D01*
X070702Y1867191D01*
X0707127Y1868D01*
X070702Y1868809D01*
X0706708Y1869563D01*
X0706211Y1870211D01*
X0705563Y1870708D01*
X0704809Y187102D01*
X0704Y1871127D01*
D02*
G37*
G36*
X1014421Y1868D02*
X1011D01*
Y1864579D01*
X1011532Y1864649D01*
X1012493Y1865047D01*
X1013319Y1865681D01*
X1013953Y1866507D01*
X1014351Y1867468D01*
X1014421Y1868D01*
D02*
G37*
G36*
X101D02*
X1006579D01*
X1006649Y1867468D01*
X1007047Y1866507D01*
X1007681Y1865681D01*
X1008507Y1865047D01*
X1009468Y1864649D01*
X101Y1864579D01*
Y1868D01*
D02*
G37*
G36*
X0532843Y1870382D02*
Y1864D01*
X0537322D01*
Y1865468D01*
X0537152Y1866757D01*
X0536655Y1867958D01*
X0535864Y186899D01*
X0534832Y1869781D01*
X0533631Y1870278D01*
X0532843Y1870382D01*
D02*
G37*
G36*
X0531843D02*
X0531054Y1870278D01*
X0529853Y1869781D01*
X0528822Y186899D01*
X052803Y1867958D01*
X0527533Y1866757D01*
X0527363Y1865468D01*
Y1864D01*
X0531843D01*
Y1870382D01*
D02*
G37*
G36*
X0625053Y1869053D02*
X0617947D01*
Y1861947D01*
X0625053D01*
Y1869053D01*
D02*
G37*
G36*
X06115Y1869083D02*
X0610572Y1868961D01*
X0609708Y1868603D01*
X0608966Y1868034D01*
X0608397Y1867292D01*
X0608039Y1866427D01*
X0607917Y18655D01*
X0608039Y1864573D01*
X0608397Y1863708D01*
X0608966Y1862966D01*
X0609708Y1862397D01*
X0610572Y1862039D01*
X06115Y1861917D01*
X0612428Y1862039D01*
X0613292Y1862397D01*
X0614034Y1862966D01*
X0614603Y1863708D01*
X0614961Y1864573D01*
X0615083Y18655D01*
X0614961Y1866427D01*
X0614603Y1867292D01*
X0614034Y1868034D01*
X0613292Y1868603D01*
X0612428Y1868961D01*
X06115Y1869083D01*
D02*
G37*
G36*
X0605421Y1865D02*
X0602D01*
Y1861579D01*
X0602532Y1861649D01*
X0603493Y1862047D01*
X0604319Y1862681D01*
X0604953Y1863507D01*
X0605351Y1864468D01*
X0605421Y1865D01*
D02*
G37*
G36*
X0601D02*
X0597579D01*
X0597649Y1864468D01*
X0598047Y1863507D01*
X0598681Y1862681D01*
X0599507Y1862047D01*
X0600468Y1861649D01*
X0601Y1861579D01*
Y1865D01*
D02*
G37*
G36*
X0704Y1863627D02*
X0703191Y186352D01*
X0702437Y1863208D01*
X0701789Y1862711D01*
X0701292Y1862063D01*
X070098Y1861309D01*
X0700873Y18605D01*
X070098Y1859691D01*
X0701292Y1858937D01*
X0701789Y1858289D01*
X0702437Y1857792D01*
X0703191Y185748D01*
X0704Y1857373D01*
X0704809Y185748D01*
X0705563Y1857792D01*
X0706211Y1858289D01*
X0706708Y1858937D01*
X070702Y1859691D01*
X0707127Y18605D01*
X070702Y1861309D01*
X0706708Y1862063D01*
X0706211Y1862711D01*
X0705563Y1863208D01*
X0704809Y186352D01*
X0704Y1863627D01*
D02*
G37*
G36*
X0512657Y1870045D02*
X0511473Y1869889D01*
X0510369Y1869432D01*
X0509422Y1868704D01*
X0508694Y1867757D01*
X0508237Y1866653D01*
X0508081Y1865468D01*
Y1861531D01*
X0508237Y1860347D01*
X0508694Y1859243D01*
X0509422Y1858296D01*
X0510369Y1857568D01*
X0511473Y1857111D01*
X0512657Y1856955D01*
X0513842Y1857111D01*
X0514946Y1857568D01*
X0515893Y1858296D01*
X051662Y1859243D01*
X0517078Y1860347D01*
X0517234Y1861531D01*
Y1865468D01*
X0517078Y1866653D01*
X051662Y1867757D01*
X0515893Y1868704D01*
X0514946Y1869432D01*
X0513842Y1869889D01*
X0512657Y1870045D01*
D02*
G37*
G36*
X0537322Y1863D02*
X0532843D01*
Y1856618D01*
X0533631Y1856722D01*
X0534832Y1857219D01*
X0535864Y185801D01*
X0536655Y1859042D01*
X0537152Y1860243D01*
X0537322Y1861531D01*
Y1863D01*
D02*
G37*
G36*
X0531843D02*
X0527363D01*
Y1861531D01*
X0527533Y1860243D01*
X052803Y1859042D01*
X0528822Y185801D01*
X0529853Y1857219D01*
X0531054Y1856722D01*
X0531843Y1856618D01*
Y1863D01*
D02*
G37*
G36*
X07125Y1859464D02*
Y18565D01*
X0715464D01*
X071541Y1856914D01*
X0715057Y1857765D01*
X0714496Y1858496D01*
X0713765Y1859057D01*
X0712914Y185941D01*
X07125Y1859464D01*
D02*
G37*
G36*
X07115D02*
X0711086Y185941D01*
X0710235Y1859057D01*
X0709504Y1858496D01*
X0708943Y1857765D01*
X070859Y1856914D01*
X0708536Y18565D01*
X07115D01*
Y1859464D01*
D02*
G37*
G36*
X0828Y1859627D02*
X0827191Y185952D01*
X0826437Y1859208D01*
X0825789Y1858711D01*
X0825292Y1858063D01*
X082498Y1857309D01*
X0824873Y18565D01*
X082498Y1855691D01*
X0825292Y1854937D01*
X0825789Y1854289D01*
X0826437Y1853792D01*
X0827191Y185348D01*
X0828Y1853373D01*
X0828809Y185348D01*
X0829563Y1853792D01*
X0830211Y1854289D01*
X0830708Y1854937D01*
X083102Y1855691D01*
X0831127Y18565D01*
X083102Y1857309D01*
X0830708Y1858063D01*
X0830211Y1858711D01*
X0829563Y1859208D01*
X0828809Y185952D01*
X0828Y1859627D01*
D02*
G37*
G36*
X0715464Y18555D02*
X07125D01*
Y1852536D01*
X0712914Y185259D01*
X0713765Y1852943D01*
X0714496Y1853504D01*
X0715057Y1854235D01*
X071541Y1855086D01*
X0715464Y18555D01*
D02*
G37*
G36*
X07115D02*
X0708536D01*
X070859Y1855086D01*
X0708943Y1854235D01*
X0709504Y1853504D01*
X0710235Y1852943D01*
X0711086Y185259D01*
X07115Y1852536D01*
Y18555D01*
D02*
G37*
G36*
X0704804Y1855627D02*
X0703995Y185552D01*
X0703241Y1855208D01*
X0702594Y1854711D01*
X0702097Y1854063D01*
X0701784Y1853309D01*
X0701678Y18525D01*
X0701784Y1851691D01*
X0702097Y1850937D01*
X0702594Y1850289D01*
X0703241Y1849792D01*
X0703995Y184948D01*
X0704804Y1849373D01*
X0705614Y184948D01*
X0706368Y1849792D01*
X0707015Y1850289D01*
X0707512Y1850937D01*
X0707825Y1851691D01*
X0707931Y18525D01*
X0707825Y1853309D01*
X0707512Y1854063D01*
X0707015Y1854711D01*
X0706368Y1855208D01*
X0705614Y185552D01*
X0704804Y1855627D01*
D02*
G37*
G36*
X0821Y1851127D02*
X0820191Y185102D01*
X0819437Y1850708D01*
X0818789Y1850211D01*
X0818292Y1849563D01*
X081798Y1848809D01*
X0817873Y1848D01*
X081798Y1847191D01*
X0818292Y1846437D01*
X0818789Y1845789D01*
X0819437Y1845292D01*
X0820191Y184498D01*
X0821Y1844873D01*
X0821809Y184498D01*
X0822563Y1845292D01*
X0823211Y1845789D01*
X0823708Y1846437D01*
X082402Y1847191D01*
X0824127Y1848D01*
X082402Y1848809D01*
X0823708Y1849563D01*
X0823211Y1850211D01*
X0822563Y1850708D01*
X0821809Y185102D01*
X0821Y1851127D01*
D02*
G37*
G36*
X08845Y1849627D02*
X0883691Y184952D01*
X0882937Y1849208D01*
X0882289Y1848711D01*
X0881792Y1848063D01*
X088148Y1847309D01*
X0881373Y18465D01*
X088148Y1845691D01*
X0881792Y1844937D01*
X0882289Y1844289D01*
X0882937Y1843792D01*
X0883691Y184348D01*
X08845Y1843373D01*
X0885309Y184348D01*
X0886063Y1843792D01*
X0886711Y1844289D01*
X0887208Y1844937D01*
X088752Y1845691D01*
X0887627Y18465D01*
X088752Y1847309D01*
X0887208Y1848063D01*
X0886711Y1848711D01*
X0886063Y1849208D01*
X0885309Y184952D01*
X08845Y1849627D01*
D02*
G37*
G36*
X058Y1845964D02*
Y1843D01*
X0582964D01*
X058291Y1843414D01*
X0582557Y1844265D01*
X0581996Y1844996D01*
X0581265Y1845557D01*
X0580414Y184591D01*
X058Y1845964D01*
D02*
G37*
G36*
X0579D02*
X0578586Y184591D01*
X0577735Y1845557D01*
X0577004Y1844996D01*
X0576443Y1844265D01*
X057609Y1843414D01*
X0576036Y1843D01*
X0579D01*
Y1845964D01*
D02*
G37*
G36*
X0704Y1847627D02*
X0703191Y184752D01*
X0702437Y1847208D01*
X0701789Y1846711D01*
X0701292Y1846063D01*
X070098Y1845309D01*
X0700873Y18445D01*
X070098Y1843691D01*
X0701292Y1842937D01*
X0701789Y1842289D01*
X0702437Y1841792D01*
X0703191Y184148D01*
X0704Y1841373D01*
X0704809Y184148D01*
X0705563Y1841792D01*
X0706211Y1842289D01*
X0706708Y1842937D01*
X070702Y1843691D01*
X0707127Y18445D01*
X070702Y1845309D01*
X0706708Y1846063D01*
X0706211Y1846711D01*
X0705563Y1847208D01*
X0704809Y184752D01*
X0704Y1847627D01*
D02*
G37*
G36*
X0582964Y1842D02*
X058D01*
Y1839036D01*
X0580414Y183909D01*
X0581265Y1839443D01*
X0581996Y1840004D01*
X0582557Y1840735D01*
X058291Y1841586D01*
X0582964Y1842D01*
D02*
G37*
G36*
X0579D02*
X0576036D01*
X057609Y1841586D01*
X0576443Y1840735D01*
X0577004Y1840004D01*
X0577735Y1839443D01*
X0578586Y183909D01*
X0579Y1839036D01*
Y1842D01*
D02*
G37*
G36*
X0777414Y1837122D02*
X0777414Y1837122D01*
X0654D01*
X0654Y1837122D01*
X0653571Y1837036D01*
X0653207Y1836793D01*
X0652251Y1835837D01*
X0651809Y183602D01*
X0651Y1836127D01*
X0650191Y183602D01*
X0649437Y1835708D01*
X0648789Y1835211D01*
X0648292Y1834563D01*
X064798Y1833809D01*
X0647873Y1833D01*
X064798Y1832191D01*
X0648292Y1831437D01*
X0648789Y1830789D01*
X0649437Y1830292D01*
X0650191Y182998D01*
X0651Y1829873D01*
X0651809Y182998D01*
X0652563Y1830292D01*
X0653211Y1830789D01*
X0653708Y1831437D01*
X065402Y1832191D01*
X0654127Y1833D01*
X065402Y1833809D01*
X0653837Y1834251D01*
X0654465Y1834879D01*
X0776878D01*
Y1807221D01*
X0776784Y1807171D01*
X0776378Y180709D01*
X0775819Y1807819D01*
X0774993Y1808453D01*
X0774032Y1808851D01*
X07735Y1808921D01*
Y1805D01*
Y1801079D01*
X0774032Y1801149D01*
X0774993Y1801547D01*
X0775819Y1802181D01*
X0776378Y180291D01*
X0776784Y1802829D01*
X0776878Y1802779D01*
Y1776122D01*
X0774391D01*
X0774208Y1776563D01*
X0773711Y1777211D01*
X0773063Y1777708D01*
X0772309Y177802D01*
X07715Y1778127D01*
X0770691Y177802D01*
X0769937Y1777708D01*
X0769289Y1777211D01*
X0768792Y1776563D01*
X076848Y1775809D01*
X0768373Y1775D01*
X076848Y1774191D01*
X0768792Y1773437D01*
X0769289Y1772789D01*
X0769937Y1772292D01*
X0770691Y177198D01*
X07715Y1771873D01*
X0772309Y177198D01*
X0773063Y1772292D01*
X0773711Y1772789D01*
X0774208Y1773437D01*
X0774391Y1773878D01*
X0777414D01*
X0777414Y1773878D01*
X0777843Y1773964D01*
X0778207Y1774207D01*
X0778793Y1774793D01*
X0778793Y1774793D01*
X0779036Y1775157D01*
X0779122Y1775586D01*
Y1803773D01*
X0779622Y1803872D01*
X0779897Y1803208D01*
X0780466Y1802466D01*
X0781208Y1801897D01*
X0782072Y1801539D01*
X0783Y1801417D01*
X0783927Y1801539D01*
X0784792Y1801897D01*
X0785534Y1802466D01*
X0786103Y1803208D01*
X0786461Y1804073D01*
X0786583Y1805D01*
X0786461Y1805927D01*
X0786103Y1806792D01*
X0785534Y1807534D01*
X0784792Y1808103D01*
X0783927Y1808461D01*
X0783Y1808583D01*
X0782072Y1808461D01*
X0781208Y1808103D01*
X0780466Y1807534D01*
X0779897Y1806792D01*
X0779622Y1806128D01*
X0779122Y1806227D01*
Y1835414D01*
X0779036Y1835843D01*
X0778793Y1836207D01*
X0778793Y1836207D01*
X0778207Y1836793D01*
X0777843Y1837036D01*
X0777414Y1837122D01*
D02*
G37*
G36*
X10875Y1833964D02*
Y1831D01*
X1090464D01*
X109041Y1831414D01*
X1090057Y1832265D01*
X1089496Y1832996D01*
X1088765Y1833557D01*
X1087914Y183391D01*
X10875Y1833964D01*
D02*
G37*
G36*
X10865D02*
X1086086Y183391D01*
X1085235Y1833557D01*
X1084504Y1832996D01*
X1083943Y1832265D01*
X108359Y1831414D01*
X1083536Y1831D01*
X10865D01*
Y1833964D01*
D02*
G37*
G36*
X0804Y1837127D02*
X0803191Y183702D01*
X0802437Y1836708D01*
X0801789Y1836211D01*
X0801292Y1835563D01*
X080098Y1834809D01*
X0800873Y1834D01*
X080098Y1833191D01*
X0801292Y1832437D01*
X0801789Y1831789D01*
X0802437Y1831292D01*
X0803191Y183098D01*
X0804Y1830873D01*
X0804809Y183098D01*
X0805563Y1831292D01*
X0806211Y1831789D01*
X0806708Y1832437D01*
X080702Y1833191D01*
X0807127Y1834D01*
X080702Y1834809D01*
X0806708Y1835563D01*
X0806211Y1836211D01*
X0805563Y1836708D01*
X0804809Y183702D01*
X0804Y1837127D01*
D02*
G37*
G36*
X1090464Y183D02*
X10875D01*
Y1827036D01*
X1087914Y182709D01*
X1088765Y1827443D01*
X1089496Y1828004D01*
X1090057Y1828735D01*
X109041Y1829586D01*
X1090464Y183D01*
D02*
G37*
G36*
X10865D02*
X1083536D01*
X108359Y1829586D01*
X1083943Y1828735D01*
X1084504Y1828004D01*
X1085235Y1827443D01*
X1086086Y182709D01*
X10865Y1827036D01*
Y183D01*
D02*
G37*
G36*
X0569Y1816464D02*
Y18135D01*
X0571964D01*
X057191Y1813914D01*
X0571557Y1814765D01*
X0570996Y1815496D01*
X0570265Y1816057D01*
X0569414Y181641D01*
X0569Y1816464D01*
D02*
G37*
G36*
X0568D02*
X0567586Y181641D01*
X0566735Y1816057D01*
X0566004Y1815496D01*
X0565443Y1814765D01*
X056509Y1813914D01*
X0565036Y18135D01*
X0568D01*
Y1816464D01*
D02*
G37*
G36*
X0978Y1834133D02*
X0976337Y1834002D01*
X0974714Y1833612D01*
X0973173Y1832974D01*
X097175Y1832102D01*
X0970481Y1831018D01*
X0969398Y182975D01*
X0968526Y1828327D01*
X0967888Y1826786D01*
X0967498Y1825163D01*
X0967367Y18235D01*
X0967498Y1821837D01*
X0967888Y1820214D01*
X0968526Y1818673D01*
X0969398Y181725D01*
X0970481Y1815981D01*
X097175Y1814898D01*
X0973173Y1814026D01*
X0974714Y1813388D01*
X0976337Y1812998D01*
X0978Y1812867D01*
X0979663Y1812998D01*
X0981286Y1813388D01*
X0982827Y1814026D01*
X098425Y1814898D01*
X0985518Y1815981D01*
X0986602Y181725D01*
X0987474Y1818673D01*
X0988112Y1820214D01*
X0988502Y1821837D01*
X0988633Y18235D01*
X0988502Y1825163D01*
X0988112Y1826786D01*
X0987474Y1828327D01*
X0986602Y182975D01*
X0985518Y1831018D01*
X098425Y1832102D01*
X0982827Y1832974D01*
X0981286Y1833612D01*
X0979663Y1834002D01*
X0978Y1834133D01*
D02*
G37*
G36*
X11125Y1815921D02*
Y18125D01*
X1115921D01*
X1115851Y1813032D01*
X1115453Y1813993D01*
X1114819Y1814819D01*
X1113993Y1815453D01*
X1113032Y1815851D01*
X11125Y1815921D01*
D02*
G37*
G36*
X11025D02*
Y18125D01*
X1105921D01*
X1105851Y1813032D01*
X1105453Y1813993D01*
X1104819Y1814819D01*
X1103993Y1815453D01*
X1103032Y1815851D01*
X11025Y1815921D01*
D02*
G37*
G36*
X11115D02*
X1110968Y1815851D01*
X1110007Y1815453D01*
X1109181Y1814819D01*
X1108547Y1813993D01*
X1108149Y1813032D01*
X1108079Y18125D01*
X11115D01*
Y1815921D01*
D02*
G37*
G36*
X11015D02*
X1100968Y1815851D01*
X1100007Y1815453D01*
X1099181Y1814819D01*
X1098547Y1813993D01*
X1098149Y1813032D01*
X1098079Y18125D01*
X11015D01*
Y1815921D01*
D02*
G37*
G36*
X063Y1831156D02*
X0628337Y1831025D01*
X0626714Y1830635D01*
X0625173Y1829997D01*
X062375Y1829125D01*
X0622481Y1828042D01*
X0621398Y1826773D01*
X0620526Y182535D01*
X0619888Y1823809D01*
X0619498Y1822186D01*
X0619367Y1820523D01*
X0619498Y181886D01*
X0619888Y1817237D01*
X0620526Y1815696D01*
X0621398Y1814273D01*
X0622481Y1813005D01*
X062375Y1811921D01*
X0625173Y1811049D01*
X0626714Y1810411D01*
X0628337Y1810021D01*
X063Y180989D01*
X0631663Y1810021D01*
X0633286Y1810411D01*
X0634827Y1811049D01*
X063625Y1811921D01*
X0637519Y1813005D01*
X0638602Y1814273D01*
X0639474Y1815696D01*
X0640112Y1817237D01*
X0640502Y181886D01*
X0640633Y1820523D01*
X0640502Y1822186D01*
X0640112Y1823809D01*
X0639474Y182535D01*
X0638602Y1826773D01*
X0637519Y1828042D01*
X063625Y1829125D01*
X0634827Y1829997D01*
X0633286Y1830635D01*
X0631663Y1831025D01*
X063Y1831156D01*
D02*
G37*
G36*
X0571964Y18125D02*
X0569D01*
Y1809536D01*
X0569414Y180959D01*
X0570265Y1809943D01*
X0570996Y1810504D01*
X0571557Y1811235D01*
X057191Y1812086D01*
X0571964Y18125D01*
D02*
G37*
G36*
X0568D02*
X0565036D01*
X056509Y1812086D01*
X0565443Y1811235D01*
X0566004Y1810504D01*
X0566735Y1809943D01*
X0567586Y180959D01*
X0568Y1809536D01*
Y18125D01*
D02*
G37*
G36*
X1115921Y18115D02*
X11125D01*
Y1808079D01*
X1113032Y1808149D01*
X1113993Y1808547D01*
X1114819Y1809181D01*
X1115453Y1810007D01*
X1115851Y1810968D01*
X1115921Y18115D01*
D02*
G37*
G36*
X1105921D02*
X11025D01*
Y1808079D01*
X1103032Y1808149D01*
X1103993Y1808547D01*
X1104819Y1809181D01*
X1105453Y1810007D01*
X1105851Y1810968D01*
X1105921Y18115D01*
D02*
G37*
G36*
X11115D02*
X1108079D01*
X1108149Y1810968D01*
X1108547Y1810007D01*
X1109181Y1809181D01*
X1110007Y1808547D01*
X1110968Y1808149D01*
X11115Y1808079D01*
Y18115D01*
D02*
G37*
G36*
X11015D02*
X1098079D01*
X1098149Y1810968D01*
X1098547Y1810007D01*
X1099181Y1809181D01*
X1100007Y1808547D01*
X1100968Y1808149D01*
X11015Y1808079D01*
Y18115D01*
D02*
G37*
G36*
X08035Y1808921D02*
Y18055D01*
X0806921D01*
X0806851Y1806032D01*
X0806453Y1806993D01*
X0805819Y1807819D01*
X0804993Y1808453D01*
X0804032Y1808851D01*
X08035Y1808921D01*
D02*
G37*
G36*
X08025D02*
X0801968Y1808851D01*
X0801007Y1808453D01*
X0800181Y1807819D01*
X0799547Y1806993D01*
X0799149Y1806032D01*
X0799079Y18055D01*
X08025D01*
Y1808921D01*
D02*
G37*
G36*
X07725D02*
X0771968Y1808851D01*
X0771007Y1808453D01*
X0770181Y1807819D01*
X0769547Y1806993D01*
X0769149Y1806032D01*
X0769079Y18055D01*
X07725D01*
Y1808921D01*
D02*
G37*
G36*
X06875Y1808421D02*
Y1805D01*
X0690921D01*
X0690851Y1805532D01*
X0690453Y1806493D01*
X0689819Y1807319D01*
X0688993Y1807953D01*
X0688032Y1808351D01*
X06875Y1808421D01*
D02*
G37*
G36*
X06865D02*
X0685968Y1808351D01*
X0685007Y1807953D01*
X0684181Y1807319D01*
X0683547Y1806493D01*
X0683149Y1805532D01*
X0683079Y1805D01*
X06865D01*
Y1808421D01*
D02*
G37*
G36*
X06575D02*
Y1805D01*
X0660921D01*
X0660851Y1805532D01*
X0660453Y1806493D01*
X0659819Y1807319D01*
X0658993Y1807953D01*
X0658032Y1808351D01*
X06575Y1808421D01*
D02*
G37*
G36*
X06565D02*
X0655968Y1808351D01*
X0655007Y1807953D01*
X0654181Y1807319D01*
X0653547Y1806493D01*
X0653149Y1805532D01*
X0653079Y1805D01*
X06565D01*
Y1808421D01*
D02*
G37*
G36*
X0766553Y1808553D02*
X0759447D01*
Y1801447D01*
X0766553D01*
Y1808553D01*
D02*
G37*
G36*
X1052Y1808583D02*
X1051073Y1808461D01*
X1050208Y1808103D01*
X1049466Y1807534D01*
X1048897Y1806792D01*
X1048539Y1805927D01*
X1048417Y1805D01*
X1048539Y1804073D01*
X1048897Y1803208D01*
X1049466Y1802466D01*
X1050208Y1801897D01*
X1051073Y1801539D01*
X1052Y1801417D01*
X1052927Y1801539D01*
X1053792Y1801897D01*
X1054534Y1802466D01*
X1055103Y1803208D01*
X1055461Y1804073D01*
X1055583Y1805D01*
X1055461Y1805927D01*
X1055103Y1806792D01*
X1054534Y1807534D01*
X1053792Y1808103D01*
X1052927Y1808461D01*
X1052Y1808583D01*
D02*
G37*
G36*
X1042D02*
X1041073Y1808461D01*
X1040208Y1808103D01*
X1039466Y1807534D01*
X1038897Y1806792D01*
X1038539Y1805927D01*
X1038417Y1805D01*
X1038539Y1804073D01*
X1038897Y1803208D01*
X1039466Y1802466D01*
X1040208Y1801897D01*
X1041073Y1801539D01*
X1042Y1801417D01*
X1042927Y1801539D01*
X1043792Y1801897D01*
X1044534Y1802466D01*
X1045103Y1803208D01*
X1045461Y1804073D01*
X1045583Y1805D01*
X1045461Y1805927D01*
X1045103Y1806792D01*
X1044534Y1807534D01*
X1043792Y1808103D01*
X1042927Y1808461D01*
X1042Y1808583D01*
D02*
G37*
G36*
X1032D02*
X1031073Y1808461D01*
X1030208Y1808103D01*
X1029466Y1807534D01*
X1028897Y1806792D01*
X1028539Y1805927D01*
X1028417Y1805D01*
X1028539Y1804073D01*
X1028897Y1803208D01*
X1029466Y1802466D01*
X1030208Y1801897D01*
X1031073Y1801539D01*
X1032Y1801417D01*
X1032927Y1801539D01*
X1033792Y1801897D01*
X1034534Y1802466D01*
X1035103Y1803208D01*
X1035461Y1804073D01*
X1035583Y1805D01*
X1035461Y1805927D01*
X1035103Y1806792D01*
X1034534Y1807534D01*
X1033792Y1808103D01*
X1032927Y1808461D01*
X1032Y1808583D01*
D02*
G37*
G36*
X1022D02*
X1021073Y1808461D01*
X1020208Y1808103D01*
X1019466Y1807534D01*
X1018897Y1806792D01*
X1018539Y1805927D01*
X1018417Y1805D01*
X1018539Y1804073D01*
X1018897Y1803208D01*
X1019466Y1802466D01*
X1020208Y1801897D01*
X1021073Y1801539D01*
X1022Y1801417D01*
X1022927Y1801539D01*
X1023792Y1801897D01*
X1024534Y1802466D01*
X1025103Y1803208D01*
X1025461Y1804073D01*
X1025583Y1805D01*
X1025461Y1805927D01*
X1025103Y1806792D01*
X1024534Y1807534D01*
X1023792Y1808103D01*
X1022927Y1808461D01*
X1022Y1808583D01*
D02*
G37*
G36*
X1012D02*
X1011073Y1808461D01*
X1010208Y1808103D01*
X1009466Y1807534D01*
X1008897Y1806792D01*
X1008539Y1805927D01*
X1008417Y1805D01*
X1008539Y1804073D01*
X1008897Y1803208D01*
X1009466Y1802466D01*
X1010208Y1801897D01*
X1011073Y1801539D01*
X1012Y1801417D01*
X1012927Y1801539D01*
X1013792Y1801897D01*
X1014534Y1802466D01*
X1015103Y1803208D01*
X1015461Y1804073D01*
X1015583Y1805D01*
X1015461Y1805927D01*
X1015103Y1806792D01*
X1014534Y1807534D01*
X1013792Y1808103D01*
X1012927Y1808461D01*
X1012Y1808583D01*
D02*
G37*
G36*
X1002D02*
X1001073Y1808461D01*
X1000208Y1808103D01*
X0999466Y1807534D01*
X0998897Y1806792D01*
X0998539Y1805927D01*
X0998417Y1805D01*
X0998539Y1804073D01*
X0998816Y1803402D01*
X0996207Y1800793D01*
X0995964Y1800429D01*
X0995878Y18D01*
X0995878Y18D01*
Y1796227D01*
X0995378Y1796128D01*
X0995103Y1796792D01*
X0994534Y1797534D01*
X0993792Y1798103D01*
X0992927Y1798461D01*
X0992Y1798583D01*
X0991073Y1798461D01*
X0990208Y1798103D01*
X0989466Y1797534D01*
X0988897Y1796792D01*
X0988539Y1795927D01*
X0988417Y1795D01*
X0988539Y1794073D01*
X0988897Y1793208D01*
X0989466Y1792466D01*
X0990208Y1791897D01*
X0991073Y1791539D01*
X0992Y1791417D01*
X0992927Y1791539D01*
X0993792Y1791897D01*
X0994534Y1792466D01*
X0995103Y1793208D01*
X0995378Y1793872D01*
X0995878Y1793773D01*
Y1736471D01*
X0995878Y1736471D01*
X0995964Y1736041D01*
X0996207Y1735678D01*
X1014931Y1716953D01*
Y1657769D01*
X1014431Y1657613D01*
X1013792Y1658103D01*
X1012927Y1658461D01*
X1012Y1658583D01*
X1011073Y1658461D01*
X1010208Y1658103D01*
X1009466Y1657534D01*
X1008897Y1656792D01*
X1008619Y1656121D01*
X1006053D01*
X1005624Y1656036D01*
X1005387Y1656108D01*
X1005103Y1656792D01*
X1004534Y1657534D01*
X1003792Y1658103D01*
X1002927Y1658461D01*
X1002Y1658583D01*
X1001073Y1658461D01*
X1000208Y1658103D01*
X0999466Y1657534D01*
X0998897Y1656792D01*
X0998539Y1655927D01*
X0998417Y1655D01*
X0998505Y1654331D01*
X0998175Y1653874D01*
X0998097Y1653831D01*
X0997717D01*
X0997717Y1653831D01*
X0997288Y1653746D01*
X0996924Y1653503D01*
X0996924Y1653503D01*
X099622Y1652799D01*
X0995976Y1652435D01*
X0995891Y1652006D01*
X0995891Y1652006D01*
Y1646197D01*
X0995391Y1646097D01*
X0995103Y1646792D01*
X0994534Y1647534D01*
X0993792Y1648103D01*
X0992927Y1648461D01*
X0992052Y1648577D01*
X0992011Y1648589D01*
X0991982Y1648602D01*
X0991667Y1648929D01*
X0991622Y1649038D01*
Y1650962D01*
X0991667Y1651071D01*
X0991972Y1651388D01*
X0992052Y1651423D01*
X0992927Y1651539D01*
X0993792Y1651897D01*
X0994534Y1652466D01*
X0995103Y1653208D01*
X0995461Y1654073D01*
X0995583Y1655D01*
X0995461Y1655927D01*
X0995103Y1656792D01*
X0994534Y1657534D01*
X0993792Y1658103D01*
X0992927Y1658461D01*
X0992052Y1658577D01*
X0992052D01*
X0992011Y1658589D01*
D01*
D01*
X0991982Y1658602D01*
X0991667Y1658929D01*
X0991622Y1659038D01*
Y1681493D01*
X0991622Y1681493D01*
X0991536Y1681922D01*
X0991293Y1682286D01*
X0991293Y1682286D01*
X0991Y1682579D01*
X0991Y1682579D01*
X0989837Y1683742D01*
X099002Y1684184D01*
X0990127Y1684993D01*
X099002Y1685802D01*
X0989708Y1686556D01*
X0989211Y1687204D01*
X0988563Y1687701D01*
X0987809Y1688013D01*
X0987Y168812D01*
X0986191Y1688013D01*
X0985437Y1687701D01*
X0984789Y1687204D01*
X0984292Y1686556D01*
X098398Y1685802D01*
X0983873Y1684993D01*
X098398Y1684184D01*
X0984292Y168343D01*
X0984789Y1682782D01*
X0985437Y1682285D01*
X0986191Y1681973D01*
X0987Y1681866D01*
X0987809Y1681973D01*
X0988251Y1682156D01*
D01*
X0989378Y1681028D01*
Y1659483D01*
X0988325Y1658675D01*
X0987499Y1657599D01*
X098698Y1656345D01*
X0986803Y1655D01*
X098698Y1653655D01*
X0987499Y1652401D01*
X0988325Y1651325D01*
X0989378Y1650517D01*
Y1649483D01*
X0988325Y1648675D01*
X0987499Y1647599D01*
X098698Y1646345D01*
X0986803Y1645D01*
X098698Y1643655D01*
X0987499Y1642401D01*
X0988325Y1641325D01*
X0989378Y1640517D01*
D01*
Y1570122D01*
X0864891D01*
X0864708Y1570563D01*
X0864211Y1571211D01*
X0863563Y1571708D01*
X0862809Y157202D01*
X0862Y1572127D01*
X0861191Y157202D01*
X0860437Y1571708D01*
X0859789Y1571211D01*
X0859292Y1570563D01*
X085898Y1569809D01*
X0858873Y1569D01*
X085898Y1568191D01*
X0859292Y1567437D01*
X0859789Y1566789D01*
X0860437Y1566292D01*
X0861191Y156598D01*
X0862Y1565873D01*
X0862809Y156598D01*
X0863563Y1566292D01*
X0864211Y1566789D01*
X0864708Y1567437D01*
X0864891Y1567878D01*
X0989914D01*
X0989914Y1567878D01*
X0990102Y1567916D01*
X0990468Y1567491D01*
X0990392Y1567309D01*
X0990286Y15665D01*
X0990392Y1565691D01*
X0990705Y1564937D01*
X0991202Y1564289D01*
X0991849Y1563792D01*
X0992603Y156348D01*
X0993413Y1563373D01*
X0994222Y156348D01*
X0994976Y1563792D01*
X0995391Y1564111D01*
X0995891Y1563864D01*
Y1563586D01*
X0995891Y1563586D01*
X0995976Y1563157D01*
X099622Y1562793D01*
X0996805Y1562207D01*
X0996805Y1562207D01*
X0997169Y1561964D01*
X0997598Y1561878D01*
X1069914D01*
X1069914Y1561878D01*
X1070343Y1561964D01*
X1070707Y1562207D01*
X1071293Y1562793D01*
X1071293Y1562793D01*
X1071536Y1563157D01*
X1071622Y1563586D01*
X1071622Y1563586D01*
Y1568947D01*
X1074053D01*
Y1576053D01*
X1066947D01*
Y1568947D01*
X1069378D01*
Y1564122D01*
X0998134D01*
Y1643743D01*
X0998634Y1643842D01*
X0998897Y1643208D01*
X0999466Y1642466D01*
X1000208Y1641897D01*
X1001073Y1641539D01*
X1002Y1641417D01*
X1002927Y1641539D01*
X1003792Y1641897D01*
X1004534Y1642466D01*
X1004726Y1642716D01*
X1004998Y1642685D01*
X1005243Y164257D01*
X1005311Y1642229D01*
X1005554Y1641866D01*
X1023813Y1623607D01*
X1024177Y1623364D01*
X1024606Y1623278D01*
X1024606Y1623278D01*
X1031878D01*
Y1576381D01*
X1031208Y1576103D01*
X1030466Y1575534D01*
X1029897Y1574792D01*
X1029539Y1573927D01*
X1029417Y1573D01*
X1029539Y1572073D01*
X1029897Y1571208D01*
X1030466Y1570466D01*
X1031208Y1569897D01*
X1032073Y1569539D01*
X1033Y1569417D01*
X1033927Y1569539D01*
X1034792Y1569897D01*
X1035534Y1570466D01*
X1036103Y1571208D01*
X1036461Y1572073D01*
X1036583Y1573D01*
X1036461Y1573927D01*
X1036103Y1574792D01*
X1035534Y1575534D01*
X1034792Y1576103D01*
X1034122Y1576381D01*
Y1623814D01*
X1034122Y1623814D01*
X1034036Y1624243D01*
X1033946Y1624378D01*
X1034213Y1624878D01*
X1041878D01*
Y1576381D01*
X1041208Y1576103D01*
X1040466Y1575534D01*
X1039897Y1574792D01*
X1039539Y1573927D01*
X1039417Y1573D01*
X1039539Y1572073D01*
X1039897Y1571208D01*
X1040466Y1570466D01*
X1041208Y1569897D01*
X1042073Y1569539D01*
X1043Y1569417D01*
X1043927Y1569539D01*
X1044792Y1569897D01*
X1045534Y1570466D01*
X1046103Y1571208D01*
X1046461Y1572073D01*
X1046583Y1573D01*
X1046461Y1573927D01*
X1046103Y1574792D01*
X1045534Y1575534D01*
X1044792Y1576103D01*
X1044122Y1576381D01*
Y1625414D01*
X1044122Y1625414D01*
X1044036Y1625843D01*
X1043793Y1626207D01*
X1043793Y1626207D01*
X1043207Y1626793D01*
X1042843Y1627036D01*
X1042414Y1627122D01*
X1042414Y1627122D01*
X1025733D01*
X1011886Y1640969D01*
X1012128Y1641434D01*
X1012927Y1641539D01*
X1013792Y1641897D01*
X1014534Y1642466D01*
X1015103Y1643208D01*
X1015461Y1644073D01*
X1015583Y1645D01*
X1015461Y1645927D01*
X1015259Y1646416D01*
X1018669Y1649826D01*
X1023679D01*
X1023679Y1649826D01*
X1023946Y1649879D01*
X1024108Y1649911D01*
X1024108Y1649911D01*
X1024472Y1650154D01*
X1024472Y1650154D01*
X1026846Y1652528D01*
X1027089Y1652892D01*
X1027089Y1652892D01*
X1027174Y1653321D01*
Y1686179D01*
X1101884Y1760889D01*
X1102411Y176071D01*
X110248Y1760191D01*
X1102792Y1759437D01*
X1103289Y1758789D01*
X1103937Y1758292D01*
X1104691Y175798D01*
X11055Y1757873D01*
X1106309Y175798D01*
X1107063Y1758292D01*
X1107711Y1758789D01*
X1108208Y1759437D01*
X110852Y1760191D01*
X1108627Y1761D01*
X110852Y1761809D01*
X1108208Y1762563D01*
X1107711Y1763211D01*
X1107063Y1763708D01*
X1106309Y176402D01*
X1105791Y1764088D01*
X1105611Y1764616D01*
X1110815Y176982D01*
X1111289Y1769789D01*
X1111937Y1769292D01*
X1112691Y176898D01*
X11135Y1768873D01*
X1114309Y176898D01*
X1115063Y1769292D01*
X1115711Y1769789D01*
X1116208Y1770437D01*
X111652Y1771191D01*
X1116627Y1772D01*
X111652Y1772809D01*
X1116208Y1773563D01*
X1115711Y1774211D01*
X1115063Y1774708D01*
X1114309Y177502D01*
X11135Y1775127D01*
X1112691Y177502D01*
X1111937Y1774708D01*
X1111289Y1774211D01*
X1110792Y1773563D01*
X111048Y1772809D01*
X1110414Y1772311D01*
X1110214Y1772271D01*
X110985Y1772028D01*
X110985Y1772028D01*
X102526Y1687437D01*
X1025017Y1687073D01*
X1024931Y1686644D01*
X1024931Y1686644D01*
Y1657769D01*
X1024431Y1657613D01*
X1023792Y1658103D01*
X1022927Y1658461D01*
X1022Y1658583D01*
X1021073Y1658461D01*
X1020208Y1658103D01*
X1019466Y1657534D01*
X1019274Y1657284D01*
X1018774Y1657454D01*
Y1779347D01*
X1018689Y1779776D01*
X1018446Y178014D01*
X1018446Y178014D01*
X1005184Y1793402D01*
X1005461Y1794073D01*
X1005583Y1795D01*
X1005461Y1795927D01*
X1005103Y1796792D01*
X1004534Y1797534D01*
X1003792Y1798103D01*
X1002927Y1798461D01*
X1002Y1798583D01*
X1001073Y1798461D01*
X1000208Y1798103D01*
X0999466Y1797534D01*
X0998897Y1796792D01*
X0998622Y1796128D01*
X0998122Y1796227D01*
Y1799535D01*
X1000402Y1801816D01*
X1001073Y1801539D01*
X1002Y1801417D01*
X1002927Y1801539D01*
X1003792Y1801897D01*
X1004534Y1802466D01*
X1005103Y1803208D01*
X1005461Y1804073D01*
X1005583Y1805D01*
X1005461Y1805927D01*
X1005103Y1806792D01*
X1004534Y1807534D01*
X1003792Y1808103D01*
X1002927Y1808461D01*
X1002Y1808583D01*
D02*
G37*
G36*
X0992D02*
X0991073Y1808461D01*
X0990208Y1808103D01*
X0989466Y1807534D01*
X0988897Y1806792D01*
X0988539Y1805927D01*
X0988417Y1805D01*
X0988539Y1804073D01*
X0988897Y1803208D01*
X0989466Y1802466D01*
X0990208Y1801897D01*
X0991073Y1801539D01*
X0992Y1801417D01*
X0992927Y1801539D01*
X0993792Y1801897D01*
X0994534Y1802466D01*
X0995103Y1803208D01*
X0995461Y1804073D01*
X0995583Y1805D01*
X0995461Y1805927D01*
X0995103Y1806792D01*
X0994534Y1807534D01*
X0993792Y1808103D01*
X0992927Y1808461D01*
X0992Y1808583D01*
D02*
G37*
G36*
X0982D02*
X0981073Y1808461D01*
X0980208Y1808103D01*
X0979466Y1807534D01*
X0978897Y1806792D01*
X0978539Y1805927D01*
X0978417Y1805D01*
X0978539Y1804073D01*
X0978897Y1803208D01*
X0979466Y1802466D01*
X0980208Y1801897D01*
X0981073Y1801539D01*
X0982Y1801417D01*
X0982927Y1801539D01*
X0983792Y1801897D01*
X0984534Y1802466D01*
X0985103Y1803208D01*
X0985461Y1804073D01*
X0985583Y1805D01*
X0985461Y1805927D01*
X0985103Y1806792D01*
X0984534Y1807534D01*
X0983792Y1808103D01*
X0982927Y1808461D01*
X0982Y1808583D01*
D02*
G37*
G36*
X0972D02*
X0971073Y1808461D01*
X0970208Y1808103D01*
X0969466Y1807534D01*
X0968897Y1806792D01*
X0968539Y1805927D01*
X0968417Y1805D01*
X0968539Y1804073D01*
X0968897Y1803208D01*
X0969466Y1802466D01*
X0970208Y1801897D01*
X0971073Y1801539D01*
X0972Y1801417D01*
X0972927Y1801539D01*
X0973792Y1801897D01*
X0974534Y1802466D01*
X0975103Y1803208D01*
X0975461Y1804073D01*
X0975583Y1805D01*
X0975461Y1805927D01*
X0975103Y1806792D01*
X0974534Y1807534D01*
X0973792Y1808103D01*
X0972927Y1808461D01*
X0972Y1808583D01*
D02*
G37*
G36*
X0962D02*
X0961073Y1808461D01*
X0960208Y1808103D01*
X0959466Y1807534D01*
X0958897Y1806792D01*
X0958539Y1805927D01*
X0958417Y1805D01*
X0958539Y1804073D01*
X0958897Y1803208D01*
X0959466Y1802466D01*
X0960208Y1801897D01*
X0961073Y1801539D01*
X0962Y1801417D01*
X0962927Y1801539D01*
X0963792Y1801897D01*
X0964534Y1802466D01*
X0965103Y1803208D01*
X0965461Y1804073D01*
X0965583Y1805D01*
X0965461Y1805927D01*
X0965103Y1806792D01*
X0964534Y1807534D01*
X0963792Y1808103D01*
X0962927Y1808461D01*
X0962Y1808583D01*
D02*
G37*
G36*
X0952D02*
X0951073Y1808461D01*
X0950208Y1808103D01*
X0949466Y1807534D01*
X0948897Y1806792D01*
X0948539Y1805927D01*
X0948417Y1805D01*
X0948539Y1804073D01*
X0948897Y1803208D01*
X0949466Y1802466D01*
X0950208Y1801897D01*
X0951073Y1801539D01*
X0952Y1801417D01*
X0952927Y1801539D01*
X0953792Y1801897D01*
X0954534Y1802466D01*
X0955103Y1803208D01*
X0955461Y1804073D01*
X0955583Y1805D01*
X0955461Y1805927D01*
X0955103Y1806792D01*
X0954534Y1807534D01*
X0953792Y1808103D01*
X0952927Y1808461D01*
X0952Y1808583D01*
D02*
G37*
G36*
X0942D02*
X0941073Y1808461D01*
X0940208Y1808103D01*
X0939466Y1807534D01*
X0938897Y1806792D01*
X0938539Y1805927D01*
X0938417Y1805D01*
X0938539Y1804073D01*
X0938897Y1803208D01*
X0939466Y1802466D01*
X0940208Y1801897D01*
X0941073Y1801539D01*
X0942Y1801417D01*
X0942927Y1801539D01*
X0943792Y1801897D01*
X0944534Y1802466D01*
X0945103Y1803208D01*
X0945461Y1804073D01*
X0945583Y1805D01*
X0945461Y1805927D01*
X0945103Y1806792D01*
X0944534Y1807534D01*
X0943792Y1808103D01*
X0942927Y1808461D01*
X0942Y1808583D01*
D02*
G37*
G36*
X0932D02*
X0931073Y1808461D01*
X0930208Y1808103D01*
X0929466Y1807534D01*
X0928897Y1806792D01*
X0928539Y1805927D01*
X0928417Y1805D01*
X0928539Y1804073D01*
X0928897Y1803208D01*
X0929466Y1802466D01*
X0930208Y1801897D01*
X0931073Y1801539D01*
X0932Y1801417D01*
X0932927Y1801539D01*
X0933792Y1801897D01*
X0934534Y1802466D01*
X0935103Y1803208D01*
X0935461Y1804073D01*
X0935583Y1805D01*
X0935461Y1805927D01*
X0935103Y1806792D01*
X0934534Y1807534D01*
X0933792Y1808103D01*
X0932927Y1808461D01*
X0932Y1808583D01*
D02*
G37*
G36*
X0922D02*
X0921073Y1808461D01*
X0920208Y1808103D01*
X0919466Y1807534D01*
X0918897Y1806792D01*
X0918539Y1805927D01*
X0918417Y1805D01*
X0918539Y1804073D01*
X0918897Y1803208D01*
X0919466Y1802466D01*
X0920208Y1801897D01*
X0921073Y1801539D01*
X0922Y1801417D01*
X0922927Y1801539D01*
X0923792Y1801897D01*
X0924534Y1802466D01*
X0925103Y1803208D01*
X0925461Y1804073D01*
X0925583Y1805D01*
X0925461Y1805927D01*
X0925103Y1806792D01*
X0924534Y1807534D01*
X0923792Y1808103D01*
X0922927Y1808461D01*
X0922Y1808583D01*
D02*
G37*
G36*
X0892D02*
X0891073Y1808461D01*
X0890208Y1808103D01*
X0889466Y1807534D01*
X0888897Y1806792D01*
X0888539Y1805927D01*
X0888417Y1805D01*
X0888539Y1804073D01*
X0888897Y1803208D01*
X0889466Y1802466D01*
X0890208Y1801897D01*
X0891073Y1801539D01*
X0892Y1801417D01*
X0892927Y1801539D01*
X0893792Y1801897D01*
X0894534Y1802466D01*
X0895103Y1803208D01*
X0895461Y1804073D01*
X0895583Y1805D01*
X0895461Y1805927D01*
X0895103Y1806792D01*
X0894534Y1807534D01*
X0893792Y1808103D01*
X0892927Y1808461D01*
X0892Y1808583D01*
D02*
G37*
G36*
X0882D02*
X0881073Y1808461D01*
X0880208Y1808103D01*
X0879466Y1807534D01*
X0878897Y1806792D01*
X0878539Y1805927D01*
X0878417Y1805D01*
X0878539Y1804073D01*
X0878897Y1803208D01*
X0879466Y1802466D01*
X0880208Y1801897D01*
X0881073Y1801539D01*
X0882Y1801417D01*
X0882927Y1801539D01*
X0883792Y1801897D01*
X0884534Y1802466D01*
X0885103Y1803208D01*
X0885461Y1804073D01*
X0885583Y1805D01*
X0885461Y1805927D01*
X0885103Y1806792D01*
X0884534Y1807534D01*
X0883792Y1808103D01*
X0882927Y1808461D01*
X0882Y1808583D01*
D02*
G37*
G36*
X0813D02*
X0812072Y1808461D01*
X0811208Y1808103D01*
X0810466Y1807534D01*
X0809897Y1806792D01*
X0809539Y1805927D01*
X0809417Y1805D01*
X0809539Y1804073D01*
X0809897Y1803208D01*
X0810466Y1802466D01*
X0811208Y1801897D01*
X0812072Y1801539D01*
X0813Y1801417D01*
X0813927Y1801539D01*
X0814792Y1801897D01*
X0815534Y1802466D01*
X0816103Y1803208D01*
X0816461Y1804073D01*
X0816583Y1805D01*
X0816461Y1805927D01*
X0816103Y1806792D01*
X0815534Y1807534D01*
X0814792Y1808103D01*
X0813927Y1808461D01*
X0813Y1808583D01*
D02*
G37*
G36*
X0793D02*
X0792072Y1808461D01*
X0791208Y1808103D01*
X0790466Y1807534D01*
X0789897Y1806792D01*
X0789539Y1805927D01*
X0789417Y1805D01*
X0789539Y1804073D01*
X0789897Y1803208D01*
X0790466Y1802466D01*
X0791208Y1801897D01*
X0792072Y1801539D01*
X0793Y1801417D01*
X0793927Y1801539D01*
X0794792Y1801897D01*
X0795534Y1802466D01*
X0796103Y1803208D01*
X0796461Y1804073D01*
X0796583Y1805D01*
X0796461Y1805927D01*
X0796103Y1806792D01*
X0795534Y1807534D01*
X0794792Y1808103D01*
X0793927Y1808461D01*
X0793Y1808583D01*
D02*
G37*
G36*
X0806921Y18045D02*
X08035D01*
Y1801079D01*
X0804032Y1801149D01*
X0804993Y1801547D01*
X0805819Y1802181D01*
X0806453Y1803007D01*
X0806851Y1803968D01*
X0806921Y18045D01*
D02*
G37*
G36*
X08025D02*
X0799079D01*
X0799149Y1803968D01*
X0799547Y1803007D01*
X0800181Y1802181D01*
X0801007Y1801547D01*
X0801968Y1801149D01*
X08025Y1801079D01*
Y18045D01*
D02*
G37*
G36*
X07725D02*
X0769079D01*
X0769149Y1803968D01*
X0769547Y1803007D01*
X0770181Y1802181D01*
X0771007Y1801547D01*
X0771968Y1801149D01*
X07725Y1801079D01*
Y18045D01*
D02*
G37*
G36*
X0650553Y1808053D02*
X0643447D01*
Y1800947D01*
X0650553D01*
Y1808053D01*
D02*
G37*
G36*
X0697Y1808083D02*
X0696072Y1807961D01*
X0695208Y1807603D01*
X0694466Y1807034D01*
X0693897Y1806292D01*
X0693539Y1805427D01*
X0693417Y18045D01*
X0693539Y1803573D01*
X0693897Y1802708D01*
X0694466Y1801966D01*
X0695208Y1801397D01*
X0696072Y1801039D01*
X0697Y1800917D01*
X0697928Y1801039D01*
X0698792Y1801397D01*
X0699534Y1801966D01*
X0700103Y1802708D01*
X0700461Y1803573D01*
X0700583Y18045D01*
X0700461Y1805427D01*
X0700103Y1806292D01*
X0699534Y1807034D01*
X0698792Y1807603D01*
X0697928Y1807961D01*
X0697Y1808083D01*
D02*
G37*
G36*
X0677D02*
X0676073Y1807961D01*
X0675208Y1807603D01*
X0674466Y1807034D01*
X0673897Y1806292D01*
X0673539Y1805427D01*
X0673417Y18045D01*
X0673539Y1803573D01*
X0673897Y1802708D01*
X0674466Y1801966D01*
X0675208Y1801397D01*
X0676073Y1801039D01*
X0677Y1800917D01*
X0677927Y1801039D01*
X0678792Y1801397D01*
X0679534Y1801966D01*
X0680103Y1802708D01*
X0680461Y1803573D01*
X0680583Y18045D01*
X0680461Y1805427D01*
X0680103Y1806292D01*
X0679534Y1807034D01*
X0678792Y1807603D01*
X0677927Y1807961D01*
X0677Y1808083D01*
D02*
G37*
G36*
X0667D02*
X0666073Y1807961D01*
X0665208Y1807603D01*
X0664466Y1807034D01*
X0663897Y1806292D01*
X0663539Y1805427D01*
X0663417Y18045D01*
X0663539Y1803573D01*
X0663897Y1802708D01*
X0664466Y1801966D01*
X0665208Y1801397D01*
X0666073Y1801039D01*
X0667Y1800917D01*
X0667928Y1801039D01*
X0668792Y1801397D01*
X0669534Y1801966D01*
X0670103Y1802708D01*
X0670461Y1803573D01*
X0670583Y18045D01*
X0670461Y1805427D01*
X0670103Y1806292D01*
X0669534Y1807034D01*
X0668792Y1807603D01*
X0667928Y1807961D01*
X0667Y1808083D01*
D02*
G37*
G36*
X0690921Y1804D02*
X06875D01*
Y1800579D01*
X0688032Y1800649D01*
X0688993Y1801047D01*
X0689819Y1801681D01*
X0690453Y1802507D01*
X0690851Y1803468D01*
X0690921Y1804D01*
D02*
G37*
G36*
X06865D02*
X0683079D01*
X0683149Y1803468D01*
X0683547Y1802507D01*
X0684181Y1801681D01*
X0685007Y1801047D01*
X0685968Y1800649D01*
X06865Y1800579D01*
Y1804D01*
D02*
G37*
G36*
X0660921D02*
X06575D01*
Y1800579D01*
X0658032Y1800649D01*
X0658993Y1801047D01*
X0659819Y1801681D01*
X0660453Y1802507D01*
X0660851Y1803468D01*
X0660921Y1804D01*
D02*
G37*
G36*
X06565D02*
X0653079D01*
X0653149Y1803468D01*
X0653547Y1802507D01*
X0654181Y1801681D01*
X0655007Y1801047D01*
X0655968Y1800649D01*
X06565Y1800579D01*
Y1804D01*
D02*
G37*
G36*
X0571Y1800627D02*
X0570191Y180052D01*
X0569437Y1800208D01*
X0568789Y1799711D01*
X0568292Y1799063D01*
X056798Y1798309D01*
X0567873Y17975D01*
X056798Y1796691D01*
X0568292Y1795937D01*
X0568789Y1795289D01*
X0569437Y1794792D01*
X0570191Y179448D01*
X0571Y1794373D01*
X0571809Y179448D01*
X0572563Y1794792D01*
X0573211Y1795289D01*
X0573708Y1795937D01*
X057402Y1796691D01*
X0574127Y17975D01*
X057402Y1798309D01*
X0573708Y1799063D01*
X0573211Y1799711D01*
X0572563Y1800208D01*
X0571809Y180052D01*
X0571Y1800627D01*
D02*
G37*
G36*
X0543143Y1801643D02*
X0534857D01*
Y1793357D01*
X0543143D01*
Y1801643D01*
D02*
G37*
G36*
X0559Y1801679D02*
X0557918Y1801537D01*
X0556911Y1801119D01*
X0556045Y1800455D01*
X0555381Y179959D01*
X0554963Y1798582D01*
X0554821Y17975D01*
X0554963Y1796418D01*
X0555381Y1795411D01*
X0556045Y1794545D01*
X0556911Y1793881D01*
X0557918Y1793463D01*
X0559Y1793321D01*
X0560082Y1793463D01*
X056109Y1793881D01*
X0561955Y1794545D01*
X0562619Y1795411D01*
X0563037Y1796418D01*
X0563179Y17975D01*
X0563037Y1798582D01*
X0562619Y179959D01*
X0561955Y1800455D01*
X056109Y1801119D01*
X0560082Y1801537D01*
X0559Y1801679D01*
D02*
G37*
G36*
X0549D02*
X0547918Y1801537D01*
X054691Y1801119D01*
X0546045Y1800455D01*
X0545381Y179959D01*
X0544963Y1798582D01*
X0544821Y17975D01*
X0544963Y1796418D01*
X0545381Y1795411D01*
X0546045Y1794545D01*
X054691Y1793881D01*
X0547918Y1793463D01*
X0549Y1793321D01*
X0550082Y1793463D01*
X0551089Y1793881D01*
X0551955Y1794545D01*
X0552619Y1795411D01*
X0553037Y1796418D01*
X0553179Y17975D01*
X0553037Y1798582D01*
X0552619Y179959D01*
X0551955Y1800455D01*
X0551089Y1801119D01*
X0550082Y1801537D01*
X0549Y1801679D01*
D02*
G37*
G36*
X1052Y1798583D02*
X1051073Y1798461D01*
X1050208Y1798103D01*
X1049466Y1797534D01*
X1048897Y1796792D01*
X1048539Y1795927D01*
X1048417Y1795D01*
X1048539Y1794073D01*
X1048897Y1793208D01*
X1049466Y1792466D01*
X1050208Y1791897D01*
X1051073Y1791539D01*
X1052Y1791417D01*
X1052927Y1791539D01*
X1053792Y1791897D01*
X1054534Y1792466D01*
X1055103Y1793208D01*
X1055461Y1794073D01*
X1055583Y1795D01*
X1055461Y1795927D01*
X1055103Y1796792D01*
X1054534Y1797534D01*
X1053792Y1798103D01*
X1052927Y1798461D01*
X1052Y1798583D01*
D02*
G37*
G36*
X1042D02*
X1041073Y1798461D01*
X1040208Y1798103D01*
X1039466Y1797534D01*
X1038897Y1796792D01*
X1038539Y1795927D01*
X1038417Y1795D01*
X1038539Y1794073D01*
X1038897Y1793208D01*
X1039466Y1792466D01*
X1040208Y1791897D01*
X1041073Y1791539D01*
X1042Y1791417D01*
X1042927Y1791539D01*
X1043792Y1791897D01*
X1044534Y1792466D01*
X1045103Y1793208D01*
X1045461Y1794073D01*
X1045583Y1795D01*
X1045461Y1795927D01*
X1045103Y1796792D01*
X1044534Y1797534D01*
X1043792Y1798103D01*
X1042927Y1798461D01*
X1042Y1798583D01*
D02*
G37*
G36*
X1032D02*
X1031073Y1798461D01*
X1030208Y1798103D01*
X1029466Y1797534D01*
X1028897Y1796792D01*
X1028539Y1795927D01*
X1028417Y1795D01*
X1028539Y1794073D01*
X1028897Y1793208D01*
X1029466Y1792466D01*
X1030208Y1791897D01*
X1031073Y1791539D01*
X1032Y1791417D01*
X1032927Y1791539D01*
X1033792Y1791897D01*
X1034534Y1792466D01*
X1035103Y1793208D01*
X1035461Y1794073D01*
X1035583Y1795D01*
X1035461Y1795927D01*
X1035103Y1796792D01*
X1034534Y1797534D01*
X1033792Y1798103D01*
X1032927Y1798461D01*
X1032Y1798583D01*
D02*
G37*
G36*
X1022D02*
X1021073Y1798461D01*
X1020208Y1798103D01*
X1019466Y1797534D01*
X1018897Y1796792D01*
X1018539Y1795927D01*
X1018417Y1795D01*
X1018539Y1794073D01*
X1018897Y1793208D01*
X1019466Y1792466D01*
X1020208Y1791897D01*
X1021073Y1791539D01*
X1022Y1791417D01*
X1022927Y1791539D01*
X1023792Y1791897D01*
X1024534Y1792466D01*
X1025103Y1793208D01*
X1025461Y1794073D01*
X1025583Y1795D01*
X1025461Y1795927D01*
X1025103Y1796792D01*
X1024534Y1797534D01*
X1023792Y1798103D01*
X1022927Y1798461D01*
X1022Y1798583D01*
D02*
G37*
G36*
X1012D02*
X1011073Y1798461D01*
X1010208Y1798103D01*
X1009466Y1797534D01*
X1008897Y1796792D01*
X1008539Y1795927D01*
X1008417Y1795D01*
X1008539Y1794073D01*
X1008897Y1793208D01*
X1009466Y1792466D01*
X1010208Y1791897D01*
X1011073Y1791539D01*
X1012Y1791417D01*
X1012927Y1791539D01*
X1013792Y1791897D01*
X1014534Y1792466D01*
X1015103Y1793208D01*
X1015461Y1794073D01*
X1015583Y1795D01*
X1015461Y1795927D01*
X1015103Y1796792D01*
X1014534Y1797534D01*
X1013792Y1798103D01*
X1012927Y1798461D01*
X1012Y1798583D01*
D02*
G37*
G36*
X0982D02*
X0981073Y1798461D01*
X0980208Y1798103D01*
X0979466Y1797534D01*
X0978897Y1796792D01*
X0978539Y1795927D01*
X0978417Y1795D01*
X0978539Y1794073D01*
X0978897Y1793208D01*
X0979466Y1792466D01*
X0980208Y1791897D01*
X0981073Y1791539D01*
X0982Y1791417D01*
X0982927Y1791539D01*
X0983792Y1791897D01*
X0984534Y1792466D01*
X0985103Y1793208D01*
X0985461Y1794073D01*
X0985583Y1795D01*
X0985461Y1795927D01*
X0985103Y1796792D01*
X0984534Y1797534D01*
X0983792Y1798103D01*
X0982927Y1798461D01*
X0982Y1798583D01*
D02*
G37*
G36*
X0972D02*
X0971073Y1798461D01*
X0970208Y1798103D01*
X0969466Y1797534D01*
X0968897Y1796792D01*
X0968539Y1795927D01*
X0968417Y1795D01*
X0968539Y1794073D01*
X0968897Y1793208D01*
X0969466Y1792466D01*
X0970208Y1791897D01*
X0971073Y1791539D01*
X0972Y1791417D01*
X0972927Y1791539D01*
X0973792Y1791897D01*
X0974534Y1792466D01*
X0975103Y1793208D01*
X0975461Y1794073D01*
X0975583Y1795D01*
X0975461Y1795927D01*
X0975103Y1796792D01*
X0974534Y1797534D01*
X0973792Y1798103D01*
X0972927Y1798461D01*
X0972Y1798583D01*
D02*
G37*
G36*
X0962D02*
X0961073Y1798461D01*
X0960208Y1798103D01*
X0959466Y1797534D01*
X0958897Y1796792D01*
X0958539Y1795927D01*
X0958417Y1795D01*
X0958539Y1794073D01*
X0958897Y1793208D01*
X0959466Y1792466D01*
X0960208Y1791897D01*
X0961073Y1791539D01*
X0962Y1791417D01*
X0962927Y1791539D01*
X0963792Y1791897D01*
X0964534Y1792466D01*
X0965103Y1793208D01*
X0965461Y1794073D01*
X0965583Y1795D01*
X0965461Y1795927D01*
X0965103Y1796792D01*
X0964534Y1797534D01*
X0963792Y1798103D01*
X0962927Y1798461D01*
X0962Y1798583D01*
D02*
G37*
G36*
X0952D02*
X0951073Y1798461D01*
X0950208Y1798103D01*
X0949466Y1797534D01*
X0948897Y1796792D01*
X0948539Y1795927D01*
X0948417Y1795D01*
X0948539Y1794073D01*
X0948897Y1793208D01*
X0949466Y1792466D01*
X0950208Y1791897D01*
X0951073Y1791539D01*
X0952Y1791417D01*
X0952927Y1791539D01*
X0953792Y1791897D01*
X0954534Y1792466D01*
X0955103Y1793208D01*
X0955461Y1794073D01*
X0955583Y1795D01*
X0955461Y1795927D01*
X0955103Y1796792D01*
X0954534Y1797534D01*
X0953792Y1798103D01*
X0952927Y1798461D01*
X0952Y1798583D01*
D02*
G37*
G36*
X0942D02*
X0941073Y1798461D01*
X0940208Y1798103D01*
X0939466Y1797534D01*
X0938897Y1796792D01*
X0938539Y1795927D01*
X0938417Y1795D01*
X0938539Y1794073D01*
X0938897Y1793208D01*
X0939466Y1792466D01*
X0940208Y1791897D01*
X0941073Y1791539D01*
X0942Y1791417D01*
X0942927Y1791539D01*
X0943792Y1791897D01*
X0944534Y1792466D01*
X0945103Y1793208D01*
X0945461Y1794073D01*
X0945583Y1795D01*
X0945461Y1795927D01*
X0945103Y1796792D01*
X0944534Y1797534D01*
X0943792Y1798103D01*
X0942927Y1798461D01*
X0942Y1798583D01*
D02*
G37*
G36*
X0932D02*
X0931073Y1798461D01*
X0930208Y1798103D01*
X0929466Y1797534D01*
X0928897Y1796792D01*
X0928539Y1795927D01*
X0928417Y1795D01*
X0928539Y1794073D01*
X0928897Y1793208D01*
X0929466Y1792466D01*
X0930208Y1791897D01*
X0931073Y1791539D01*
X0932Y1791417D01*
X0932927Y1791539D01*
X0933792Y1791897D01*
X0934534Y1792466D01*
X0935103Y1793208D01*
X0935461Y1794073D01*
X0935583Y1795D01*
X0935461Y1795927D01*
X0935103Y1796792D01*
X0934534Y1797534D01*
X0933792Y1798103D01*
X0932927Y1798461D01*
X0932Y1798583D01*
D02*
G37*
G36*
X0922D02*
X0921073Y1798461D01*
X0920208Y1798103D01*
X0919466Y1797534D01*
X0918897Y1796792D01*
X0918539Y1795927D01*
X0918417Y1795D01*
X0918539Y1794073D01*
X0918897Y1793208D01*
X0919466Y1792466D01*
X0920208Y1791897D01*
X0921073Y1791539D01*
X0922Y1791417D01*
X0922927Y1791539D01*
X0923792Y1791897D01*
X0924534Y1792466D01*
X0925103Y1793208D01*
X0925461Y1794073D01*
X0925583Y1795D01*
X0925461Y1795927D01*
X0925103Y1796792D01*
X0924534Y1797534D01*
X0923792Y1798103D01*
X0922927Y1798461D01*
X0922Y1798583D01*
D02*
G37*
G36*
X0882D02*
X0881073Y1798461D01*
X0880208Y1798103D01*
X0879466Y1797534D01*
X0878897Y1796792D01*
X0878539Y1795927D01*
X0878417Y1795D01*
X0878539Y1794073D01*
X0878897Y1793208D01*
X0879466Y1792466D01*
X0880208Y1791897D01*
X0881073Y1791539D01*
X0882Y1791417D01*
X0882927Y1791539D01*
X0883792Y1791897D01*
X0884534Y1792466D01*
X0885103Y1793208D01*
X0885461Y1794073D01*
X0885583Y1795D01*
X0885461Y1795927D01*
X0885103Y1796792D01*
X0884534Y1797534D01*
X0883792Y1798103D01*
X0882927Y1798461D01*
X0882Y1798583D01*
D02*
G37*
G36*
X1052Y1788583D02*
X1051073Y1788461D01*
X1050208Y1788103D01*
X1049466Y1787534D01*
X1048897Y1786792D01*
X1048539Y1785927D01*
X1048417Y1785D01*
X1048539Y1784073D01*
X1048897Y1783208D01*
X1049466Y1782466D01*
X1050208Y1781897D01*
X1051073Y1781539D01*
X1052Y1781417D01*
X1052927Y1781539D01*
X1053792Y1781897D01*
X1054534Y1782466D01*
X1055103Y1783208D01*
X1055461Y1784073D01*
X1055583Y1785D01*
X1055461Y1785927D01*
X1055103Y1786792D01*
X1054534Y1787534D01*
X1053792Y1788103D01*
X1052927Y1788461D01*
X1052Y1788583D01*
D02*
G37*
G36*
X1042D02*
X1041073Y1788461D01*
X1040208Y1788103D01*
X1039466Y1787534D01*
X1038897Y1786792D01*
X1038539Y1785927D01*
X1038417Y1785D01*
X1038539Y1784073D01*
X1038897Y1783208D01*
X1039466Y1782466D01*
X1040208Y1781897D01*
X1041073Y1781539D01*
X1042Y1781417D01*
X1042927Y1781539D01*
X1043792Y1781897D01*
X1044534Y1782466D01*
X1045103Y1783208D01*
X1045461Y1784073D01*
X1045583Y1785D01*
X1045461Y1785927D01*
X1045103Y1786792D01*
X1044534Y1787534D01*
X1043792Y1788103D01*
X1042927Y1788461D01*
X1042Y1788583D01*
D02*
G37*
G36*
X1105553Y1785553D02*
X1098447D01*
Y1778447D01*
X1105553D01*
Y1785553D01*
D02*
G37*
G36*
X1112Y1785583D02*
X1111073Y1785461D01*
X1110208Y1785103D01*
X1109466Y1784534D01*
X1108897Y1783792D01*
X1108539Y1782927D01*
X1108417Y1782D01*
X1108539Y1781073D01*
X1108897Y1780208D01*
X1109466Y1779466D01*
X1110208Y1778897D01*
X1111073Y1778539D01*
X1112Y1778417D01*
X1112927Y1778539D01*
X1113792Y1778897D01*
X1114534Y1779466D01*
X1115103Y1780208D01*
X1115461Y1781073D01*
X1115583Y1782D01*
X1115461Y1782927D01*
X1115103Y1783792D01*
X1114534Y1784534D01*
X1113792Y1785103D01*
X1112927Y1785461D01*
X1112Y1785583D01*
D02*
G37*
G36*
X1052Y1778583D02*
X1051073Y1778461D01*
X1050208Y1778103D01*
X1049466Y1777534D01*
X1048897Y1776792D01*
X1048539Y1775927D01*
X1048417Y1775D01*
X1048539Y1774073D01*
X1048897Y1773208D01*
X1049466Y1772466D01*
X1050208Y1771897D01*
X1051073Y1771539D01*
X1052Y1771417D01*
X1052927Y1771539D01*
X1053792Y1771897D01*
X1054534Y1772466D01*
X1055103Y1773208D01*
X1055461Y1774073D01*
X1055583Y1775D01*
X1055461Y1775927D01*
X1055103Y1776792D01*
X1054534Y1777534D01*
X1053792Y1778103D01*
X1052927Y1778461D01*
X1052Y1778583D01*
D02*
G37*
G36*
X1042D02*
X1041073Y1778461D01*
X1040208Y1778103D01*
X1039466Y1777534D01*
X1038897Y1776792D01*
X1038539Y1775927D01*
X1038417Y1775D01*
X1038539Y1774073D01*
X1038897Y1773208D01*
X1039466Y1772466D01*
X1040208Y1771897D01*
X1041073Y1771539D01*
X1042Y1771417D01*
X1042927Y1771539D01*
X1043792Y1771897D01*
X1044534Y1772466D01*
X1045103Y1773208D01*
X1045461Y1774073D01*
X1045583Y1775D01*
X1045461Y1775927D01*
X1045103Y1776792D01*
X1044534Y1777534D01*
X1043792Y1778103D01*
X1042927Y1778461D01*
X1042Y1778583D01*
D02*
G37*
G36*
X0872D02*
X0871073Y1778461D01*
X0870208Y1778103D01*
X0869466Y1777534D01*
X0868897Y1776792D01*
X0868539Y1775927D01*
X0868417Y1775D01*
X0868539Y1774073D01*
X0868897Y1773208D01*
X0869466Y1772466D01*
X0870208Y1771897D01*
X0871073Y1771539D01*
X0872Y1771417D01*
X0872927Y1771539D01*
X0873792Y1771897D01*
X0874534Y1772466D01*
X0875103Y1773208D01*
X0875461Y1774073D01*
X0875583Y1775D01*
X0875461Y1775927D01*
X0875103Y1776792D01*
X0874534Y1777534D01*
X0873792Y1778103D01*
X0872927Y1778461D01*
X0872Y1778583D01*
D02*
G37*
G36*
X1052Y1768583D02*
X1051073Y1768461D01*
X1050208Y1768103D01*
X1049466Y1767534D01*
X1048897Y1766792D01*
X1048539Y1765927D01*
X1048417Y1765D01*
X1048539Y1764073D01*
X1048897Y1763208D01*
X1049466Y1762466D01*
X1050208Y1761897D01*
X1051073Y1761539D01*
X1052Y1761417D01*
X1052927Y1761539D01*
X1053792Y1761897D01*
X1054534Y1762466D01*
X1055103Y1763208D01*
X1055461Y1764073D01*
X1055583Y1765D01*
X1055461Y1765927D01*
X1055103Y1766792D01*
X1054534Y1767534D01*
X1053792Y1768103D01*
X1052927Y1768461D01*
X1052Y1768583D01*
D02*
G37*
G36*
X1042D02*
X1041073Y1768461D01*
X1040208Y1768103D01*
X1039466Y1767534D01*
X1038897Y1766792D01*
X1038539Y1765927D01*
X1038417Y1765D01*
X1038539Y1764073D01*
X1038897Y1763208D01*
X1039466Y1762466D01*
X1040208Y1761897D01*
X1041073Y1761539D01*
X1042Y1761417D01*
X1042927Y1761539D01*
X1043792Y1761897D01*
X1044534Y1762466D01*
X1045103Y1763208D01*
X1045461Y1764073D01*
X1045583Y1765D01*
X1045461Y1765927D01*
X1045103Y1766792D01*
X1044534Y1767534D01*
X1043792Y1768103D01*
X1042927Y1768461D01*
X1042Y1768583D01*
D02*
G37*
G36*
X0872D02*
X0871073Y1768461D01*
X0870208Y1768103D01*
X0869466Y1767534D01*
X0868897Y1766792D01*
X0868539Y1765927D01*
X0868417Y1765D01*
X0868539Y1764073D01*
X0868897Y1763208D01*
X0869466Y1762466D01*
X0870208Y1761897D01*
X0871073Y1761539D01*
X0872Y1761417D01*
X0872927Y1761539D01*
X0873792Y1761897D01*
X0874534Y1762466D01*
X0875103Y1763208D01*
X0875461Y1764073D01*
X0875583Y1765D01*
X0875461Y1765927D01*
X0875103Y1766792D01*
X0874534Y1767534D01*
X0873792Y1768103D01*
X0872927Y1768461D01*
X0872Y1768583D01*
D02*
G37*
G36*
X0862D02*
X0861073Y1768461D01*
X0860208Y1768103D01*
X0859466Y1767534D01*
X0858897Y1766792D01*
X0858539Y1765927D01*
X0858417Y1765D01*
X0858539Y1764073D01*
X0858897Y1763208D01*
X0859466Y1762466D01*
X0860208Y1761897D01*
X0861073Y1761539D01*
X0862Y1761417D01*
X0862927Y1761539D01*
X0863792Y1761897D01*
X0864534Y1762466D01*
X0865103Y1763208D01*
X0865461Y1764073D01*
X0865583Y1765D01*
X0865461Y1765927D01*
X0865103Y1766792D01*
X0864534Y1767534D01*
X0863792Y1768103D01*
X0862927Y1768461D01*
X0862Y1768583D01*
D02*
G37*
G36*
X08035Y1757921D02*
Y17545D01*
X0806921D01*
X0806851Y1755032D01*
X0806453Y1755993D01*
X0805819Y1756819D01*
X0804993Y1757453D01*
X0804032Y1757851D01*
X08035Y1757921D01*
D02*
G37*
G36*
X07735D02*
Y17545D01*
X0776921D01*
X0776851Y1755032D01*
X0776453Y1755993D01*
X0775819Y1756819D01*
X0774993Y1757453D01*
X0774032Y1757851D01*
X07735Y1757921D01*
D02*
G37*
G36*
X06575D02*
Y17545D01*
X0660921D01*
X0660851Y1755032D01*
X0660453Y1755993D01*
X0659819Y1756819D01*
X0658993Y1757453D01*
X0658032Y1757851D01*
X06575Y1757921D01*
D02*
G37*
G36*
X06875D02*
Y17545D01*
X0690921D01*
X0690851Y1755032D01*
X0690453Y1755993D01*
X0689819Y1756819D01*
X0688993Y1757453D01*
X0688032Y1757851D01*
X06875Y1757921D01*
D02*
G37*
G36*
X07725D02*
X0771968Y1757851D01*
X0771007Y1757453D01*
X0770181Y1756819D01*
X0769547Y1755993D01*
X0769149Y1755032D01*
X0769079Y17545D01*
X07725D01*
Y1757921D01*
D02*
G37*
G36*
X08025D02*
X0801968Y1757851D01*
X0801007Y1757453D01*
X0800181Y1756819D01*
X0799547Y1755993D01*
X0799149Y1755032D01*
X0799079Y17545D01*
X08025D01*
Y1757921D01*
D02*
G37*
G36*
X06565D02*
X0655968Y1757851D01*
X0655007Y1757453D01*
X0654181Y1756819D01*
X0653547Y1755993D01*
X0653149Y1755032D01*
X0653079Y17545D01*
X06565D01*
Y1757921D01*
D02*
G37*
G36*
X06865D02*
X0685968Y1757851D01*
X0685007Y1757453D01*
X0684181Y1756819D01*
X0683547Y1755993D01*
X0683149Y1755032D01*
X0683079Y17545D01*
X06865D01*
Y1757921D01*
D02*
G37*
G36*
X1052Y1758583D02*
X1051073Y1758461D01*
X1050208Y1758103D01*
X1049466Y1757534D01*
X1048897Y1756792D01*
X1048539Y1755927D01*
X1048417Y1755D01*
X1048539Y1754073D01*
X1048897Y1753208D01*
X1049466Y1752466D01*
X1050208Y1751897D01*
X1051073Y1751539D01*
X1052Y1751417D01*
X1052927Y1751539D01*
X1053792Y1751897D01*
X1054534Y1752466D01*
X1055103Y1753208D01*
X1055461Y1754073D01*
X1055583Y1755D01*
X1055461Y1755927D01*
X1055103Y1756792D01*
X1054534Y1757534D01*
X1053792Y1758103D01*
X1052927Y1758461D01*
X1052Y1758583D01*
D02*
G37*
G36*
X1042D02*
X1041073Y1758461D01*
X1040208Y1758103D01*
X1039466Y1757534D01*
X1038897Y1756792D01*
X1038539Y1755927D01*
X1038417Y1755D01*
X1038539Y1754073D01*
X1038897Y1753208D01*
X1039466Y1752466D01*
X1040208Y1751897D01*
X1041073Y1751539D01*
X1042Y1751417D01*
X1042927Y1751539D01*
X1043792Y1751897D01*
X1044534Y1752466D01*
X1045103Y1753208D01*
X1045461Y1754073D01*
X1045583Y1755D01*
X1045461Y1755927D01*
X1045103Y1756792D01*
X1044534Y1757534D01*
X1043792Y1758103D01*
X1042927Y1758461D01*
X1042Y1758583D01*
D02*
G37*
G36*
X0862D02*
X0861073Y1758461D01*
X0860208Y1758103D01*
X0859466Y1757534D01*
X0858897Y1756792D01*
X0858539Y1755927D01*
X0858417Y1755D01*
X0858539Y1754073D01*
X0858897Y1753208D01*
X0859466Y1752466D01*
X0860208Y1751897D01*
X0861073Y1751539D01*
X0862Y1751417D01*
X0862927Y1751539D01*
X0863792Y1751897D01*
X0864534Y1752466D01*
X0865103Y1753208D01*
X0865461Y1754073D01*
X0865583Y1755D01*
X0865461Y1755927D01*
X0865103Y1756792D01*
X0864534Y1757534D01*
X0863792Y1758103D01*
X0862927Y1758461D01*
X0862Y1758583D01*
D02*
G37*
G36*
X0700553Y1757553D02*
X0693447D01*
Y1750447D01*
X0700553D01*
Y1757553D01*
D02*
G37*
G36*
X0793Y1757583D02*
X0792072Y1757461D01*
X0791208Y1757103D01*
X0790466Y1756534D01*
X0789897Y1755792D01*
X0789539Y1754927D01*
X0789417Y1754D01*
X0789539Y1753073D01*
X0789897Y1752208D01*
X0790466Y1751466D01*
X0791208Y1750897D01*
X0792072Y1750539D01*
X0793Y1750417D01*
X0793927Y1750539D01*
X0794792Y1750897D01*
X0795534Y1751466D01*
X0796103Y1752208D01*
X0796461Y1753073D01*
X0796583Y1754D01*
X0796461Y1754927D01*
X0796103Y1755792D01*
X0795534Y1756534D01*
X0794792Y1757103D01*
X0793927Y1757461D01*
X0793Y1757583D01*
D02*
G37*
G36*
X0783D02*
X0782072Y1757461D01*
X0781208Y1757103D01*
X0780466Y1756534D01*
X0779897Y1755792D01*
X0779539Y1754927D01*
X0779417Y1754D01*
X0779539Y1753073D01*
X0779897Y1752208D01*
X0780466Y1751466D01*
X0781208Y1750897D01*
X0782072Y1750539D01*
X0783Y1750417D01*
X0783927Y1750539D01*
X0784792Y1750897D01*
X0785534Y1751466D01*
X0786103Y1752208D01*
X0786461Y1753073D01*
X0786583Y1754D01*
X0786461Y1754927D01*
X0786103Y1755792D01*
X0785534Y1756534D01*
X0784792Y1757103D01*
X0783927Y1757461D01*
X0783Y1757583D01*
D02*
G37*
G36*
X0763D02*
X0762073Y1757461D01*
X0761208Y1757103D01*
X0760466Y1756534D01*
X0759897Y1755792D01*
X0759539Y1754927D01*
X0759417Y1754D01*
X0759539Y1753073D01*
X0759897Y1752208D01*
X0760466Y1751466D01*
X0761208Y1750897D01*
X0762073Y1750539D01*
X0763Y1750417D01*
X0763928Y1750539D01*
X0764792Y1750897D01*
X0765534Y1751466D01*
X0766103Y1752208D01*
X0766461Y1753073D01*
X0766583Y1754D01*
X0766461Y1754927D01*
X0766103Y1755792D01*
X0765534Y1756534D01*
X0764792Y1757103D01*
X0763928Y1757461D01*
X0763Y1757583D01*
D02*
G37*
G36*
X0677D02*
X0676073Y1757461D01*
X0675208Y1757103D01*
X0674466Y1756534D01*
X0673897Y1755792D01*
X0673539Y1754927D01*
X0673417Y1754D01*
X0673539Y1753073D01*
X0673897Y1752208D01*
X0674466Y1751466D01*
X0675208Y1750897D01*
X0676073Y1750539D01*
X0677Y1750417D01*
X0677927Y1750539D01*
X0678792Y1750897D01*
X0679534Y1751466D01*
X0680103Y1752208D01*
X0680461Y1753073D01*
X0680583Y1754D01*
X0680461Y1754927D01*
X0680103Y1755792D01*
X0679534Y1756534D01*
X0678792Y1757103D01*
X0677927Y1757461D01*
X0677Y1757583D01*
D02*
G37*
G36*
X0667D02*
X0666073Y1757461D01*
X0665208Y1757103D01*
X0664466Y1756534D01*
X0663897Y1755792D01*
X0663539Y1754927D01*
X0663417Y1754D01*
X0663539Y1753073D01*
X0663897Y1752208D01*
X0664466Y1751466D01*
X0665208Y1750897D01*
X0666073Y1750539D01*
X0667Y1750417D01*
X0667928Y1750539D01*
X0668792Y1750897D01*
X0669534Y1751466D01*
X0670103Y1752208D01*
X0670461Y1753073D01*
X0670583Y1754D01*
X0670461Y1754927D01*
X0670103Y1755792D01*
X0669534Y1756534D01*
X0668792Y1757103D01*
X0667928Y1757461D01*
X0667Y1757583D01*
D02*
G37*
G36*
X0647D02*
X0646072Y1757461D01*
X0645208Y1757103D01*
X0644466Y1756534D01*
X0643897Y1755792D01*
X0643539Y1754927D01*
X0643417Y1754D01*
X0643539Y1753073D01*
X0643897Y1752208D01*
X0644466Y1751466D01*
X0645208Y1750897D01*
X0646072Y1750539D01*
X0647Y1750417D01*
X0647928Y1750539D01*
X0648792Y1750897D01*
X0649534Y1751466D01*
X0650103Y1752208D01*
X0650461Y1753073D01*
X0650583Y1754D01*
X0650461Y1754927D01*
X0650103Y1755792D01*
X0649534Y1756534D01*
X0648792Y1757103D01*
X0647928Y1757461D01*
X0647Y1757583D01*
D02*
G37*
G36*
X0806921Y17535D02*
X08035D01*
Y1750079D01*
X0804032Y1750149D01*
X0804993Y1750547D01*
X0805819Y1751181D01*
X0806453Y1752007D01*
X0806851Y1752968D01*
X0806921Y17535D01*
D02*
G37*
G36*
X0776921D02*
X07735D01*
Y1750079D01*
X0774032Y1750149D01*
X0774993Y1750547D01*
X0775819Y1751181D01*
X0776453Y1752007D01*
X0776851Y1752968D01*
X0776921Y17535D01*
D02*
G37*
G36*
X0690921D02*
X06875D01*
Y1750079D01*
X0688032Y1750149D01*
X0688993Y1750547D01*
X0689819Y1751181D01*
X0690453Y1752007D01*
X0690851Y1752968D01*
X0690921Y17535D01*
D02*
G37*
G36*
X0660921D02*
X06575D01*
Y1750079D01*
X0658032Y1750149D01*
X0658993Y1750547D01*
X0659819Y1751181D01*
X0660453Y1752007D01*
X0660851Y1752968D01*
X0660921Y17535D01*
D02*
G37*
G36*
X08025D02*
X0799079D01*
X0799149Y1752968D01*
X0799547Y1752007D01*
X0800181Y1751181D01*
X0801007Y1750547D01*
X0801968Y1750149D01*
X08025Y1750079D01*
Y17535D01*
D02*
G37*
G36*
X07725D02*
X0769079D01*
X0769149Y1752968D01*
X0769547Y1752007D01*
X0770181Y1751181D01*
X0771007Y1750547D01*
X0771968Y1750149D01*
X07725Y1750079D01*
Y17535D01*
D02*
G37*
G36*
X06865D02*
X0683079D01*
X0683149Y1752968D01*
X0683547Y1752007D01*
X0684181Y1751181D01*
X0685007Y1750547D01*
X0685968Y1750149D01*
X06865Y1750079D01*
Y17535D01*
D02*
G37*
G36*
X06565D02*
X0653079D01*
X0653149Y1752968D01*
X0653547Y1752007D01*
X0654181Y1751181D01*
X0655007Y1750547D01*
X0655968Y1750149D01*
X06565Y1750079D01*
Y17535D01*
D02*
G37*
G36*
X052049Y1758431D02*
X050551D01*
Y1748569D01*
X052049D01*
Y1758431D01*
D02*
G37*
G36*
X09845Y1746426D02*
X0983573Y1746304D01*
X0982708Y1745946D01*
X0981966Y1745377D01*
X0981397Y1744634D01*
X0981039Y174377D01*
X0980917Y1742843D01*
X0981039Y1741915D01*
X0981397Y1741051D01*
X0981966Y1740309D01*
X0982708Y1739739D01*
X0983573Y1739381D01*
X09845Y1739259D01*
X0985427Y1739381D01*
X0986292Y1739739D01*
X0987034Y1740309D01*
X0987603Y1741051D01*
X0987961Y1741915D01*
X0988083Y1742843D01*
X0987961Y174377D01*
X0987603Y1744634D01*
X0987034Y1745377D01*
X0986292Y1745946D01*
X0985427Y1746304D01*
X09845Y1746426D01*
D02*
G37*
G36*
X0667Y1744127D02*
X0666191Y174402D01*
X0665437Y1743708D01*
X0664789Y1743211D01*
X0664292Y1742563D01*
X066398Y1741809D01*
X0663873Y1741D01*
X066398Y1740191D01*
X0664292Y1739437D01*
X0664789Y1738789D01*
X0665437Y1738292D01*
X0666191Y173798D01*
X0667Y1737873D01*
X0667809Y173798D01*
X0668563Y1738292D01*
X0669211Y1738789D01*
X0669708Y1739437D01*
X067002Y1740191D01*
X0670127Y1741D01*
X067002Y1741809D01*
X0669708Y1742563D01*
X0669211Y1743211D01*
X0668563Y1743708D01*
X0667809Y174402D01*
X0667Y1744127D01*
D02*
G37*
G36*
X0585Y1742127D02*
X0584191Y174202D01*
X0583437Y1741708D01*
X0582789Y1741211D01*
X0582292Y1740563D01*
X058198Y1739809D01*
X0581873Y1739D01*
X058198Y1738191D01*
X0582292Y1737437D01*
X0582789Y1736789D01*
X0583437Y1736292D01*
X0584191Y173598D01*
X0585Y1735873D01*
X0585809Y173598D01*
X0586563Y1736292D01*
X0587211Y1736789D01*
X0587708Y1737437D01*
X058802Y1738191D01*
X0588127Y1739D01*
X058802Y1739809D01*
X0587708Y1740563D01*
X0587211Y1741211D01*
X0586563Y1741708D01*
X0585809Y174202D01*
X0585Y1742127D01*
D02*
G37*
G36*
X07075Y1739127D02*
X0706691Y173902D01*
X0705937Y1738708D01*
X0705289Y1738211D01*
X0704792Y1737563D01*
X070448Y1736809D01*
X0704373Y1736D01*
X070448Y1735191D01*
X0704792Y1734437D01*
X0705289Y1733789D01*
X0705937Y1733292D01*
X0706691Y173298D01*
X07075Y1732873D01*
X0708309Y173298D01*
X0709063Y1733292D01*
X0709711Y1733789D01*
X0710208Y1734437D01*
X071052Y1735191D01*
X0710627Y1736D01*
X071052Y1736809D01*
X0710208Y1737563D01*
X0709711Y1738211D01*
X0709063Y1738708D01*
X0708309Y173902D01*
X07075Y1739127D01*
D02*
G37*
G36*
X052049Y1739533D02*
X050551D01*
Y1729672D01*
X052049D01*
Y1739533D01*
D02*
G37*
G36*
X07965Y1731964D02*
Y1729D01*
X0799464D01*
X079941Y1729414D01*
X0799057Y1730265D01*
X0798496Y1730996D01*
X0797765Y1731557D01*
X0796914Y173191D01*
X07965Y1731964D01*
D02*
G37*
G36*
X07955D02*
X0795086Y173191D01*
X0794235Y1731557D01*
X0793504Y1730996D01*
X0792943Y1730265D01*
X079259Y1729414D01*
X0792536Y1729D01*
X07955D01*
Y1731964D01*
D02*
G37*
G36*
X09405Y1728464D02*
Y17255D01*
X0943464D01*
X094341Y1725914D01*
X0943057Y1726765D01*
X0942496Y1727496D01*
X0941765Y1728057D01*
X0940914Y172841D01*
X09405Y1728464D01*
D02*
G37*
G36*
X0799464Y1728D02*
X07965D01*
Y1725036D01*
X0796914Y172509D01*
X0797765Y1725443D01*
X0798496Y1726004D01*
X0799057Y1726735D01*
X079941Y1727586D01*
X0799464Y1728D01*
D02*
G37*
G36*
X07955D02*
X0792536D01*
X079259Y1727586D01*
X0792943Y1726735D01*
X0793504Y1726004D01*
X0794235Y1725443D01*
X0795086Y172509D01*
X07955Y1725036D01*
Y1728D01*
D02*
G37*
G36*
X0943464Y17245D02*
X09405D01*
Y1721536D01*
X0940914Y172159D01*
X0941765Y1721943D01*
X0942496Y1722504D01*
X0943057Y1723235D01*
X094341Y1724086D01*
X0943464Y17245D01*
D02*
G37*
G36*
X09845Y1726741D02*
X0983573Y1726619D01*
X0982708Y1726261D01*
X0981966Y1725691D01*
X0981397Y1724949D01*
X0981039Y1724085D01*
X0980917Y1723157D01*
X0981039Y172223D01*
X0981397Y1721366D01*
X0981966Y1720624D01*
X0982708Y1720054D01*
X0983573Y1719696D01*
X09845Y1719574D01*
X0985427Y1719696D01*
X0986292Y1720054D01*
X0987034Y1720624D01*
X0987603Y1721366D01*
X0987961Y172223D01*
X0988083Y1723157D01*
X0987961Y1724085D01*
X0987603Y1724949D01*
X0987034Y1725691D01*
X0986292Y1726261D01*
X0985427Y1726619D01*
X09845Y1726741D01*
D02*
G37*
G36*
X0667Y1718127D02*
X0666191Y171802D01*
X0665437Y1717708D01*
X0664789Y1717211D01*
X0664292Y1716563D01*
X066398Y1715809D01*
X0663873Y1715D01*
X066398Y1714191D01*
X0664292Y1713437D01*
X0664789Y1712789D01*
X0665437Y1712292D01*
X0666191Y171198D01*
X0667Y1711873D01*
X0667809Y171198D01*
X0668563Y1712292D01*
X0669211Y1712789D01*
X0669708Y1713437D01*
X067002Y1714191D01*
X0670127Y1715D01*
X067002Y1715809D01*
X0669708Y1716563D01*
X0669211Y1717211D01*
X0668563Y1717708D01*
X0667809Y171802D01*
X0667Y1718127D01*
D02*
G37*
G36*
X052049Y1720635D02*
X050551D01*
Y1710774D01*
X052049D01*
Y1720635D01*
D02*
G37*
G36*
X05495Y1713127D02*
X0548691Y171302D01*
X0547937Y1712708D01*
X0547289Y1712211D01*
X0546792Y1711563D01*
X054648Y1710809D01*
X0546373Y171D01*
X054648Y1709191D01*
X0546792Y1708437D01*
X0547289Y1707789D01*
X0547937Y1707292D01*
X0548691Y170698D01*
X05495Y1706873D01*
X0550309Y170698D01*
X0551063Y1707292D01*
X0551711Y1707789D01*
X0552208Y1708437D01*
X055252Y1709191D01*
X0552627Y171D01*
X055252Y1710809D01*
X0552208Y1711563D01*
X0551711Y1712211D01*
X0551063Y1712708D01*
X0550309Y171302D01*
X05495Y1713127D01*
D02*
G37*
G36*
X0707Y1712627D02*
X0706191Y171252D01*
X0705437Y1712208D01*
X0704789Y1711711D01*
X0704292Y1711063D01*
X070398Y1710309D01*
X0703873Y17095D01*
X070398Y1708691D01*
X0704292Y1707937D01*
X0704789Y1707289D01*
X0705437Y1706792D01*
X0706191Y170648D01*
X0707Y1706373D01*
X0707809Y170648D01*
X0708563Y1706792D01*
X0709211Y1707289D01*
X0709708Y1707937D01*
X071002Y1708691D01*
X0710127Y17095D01*
X071002Y1710309D01*
X0709708Y1711063D01*
X0709211Y1711711D01*
X0708563Y1712208D01*
X0707809Y171252D01*
X0707Y1712627D01*
D02*
G37*
G36*
X0956Y1712127D02*
X0955191Y171202D01*
X0954437Y1711708D01*
X0953789Y1711211D01*
X0953292Y1710563D01*
X095298Y1709809D01*
X0952873Y1709D01*
X095298Y1708191D01*
X0953292Y1707437D01*
X0953789Y1706789D01*
X0954437Y1706292D01*
X0955191Y170598D01*
X0956Y1705873D01*
X0956809Y170598D01*
X0957563Y1706292D01*
X0958211Y1706789D01*
X0958708Y1707437D01*
X095902Y1708191D01*
X0959127Y1709D01*
X095902Y1709809D01*
X0958708Y1710563D01*
X0958211Y1711211D01*
X0957563Y1711708D01*
X0956809Y171202D01*
X0956Y1712127D01*
D02*
G37*
G36*
X0956032Y1699178D02*
X0955223Y1699071D01*
X0954469Y1698759D01*
X0953821Y1698262D01*
X0953324Y1697614D01*
X0953012Y169686D01*
X0952905Y1696051D01*
X0953012Y1695242D01*
X0953324Y1694488D01*
X0953821Y169384D01*
X0954469Y1693343D01*
X0955223Y1693031D01*
X0956032Y1692924D01*
X0956841Y1693031D01*
X0957596Y1693343D01*
X0958243Y169384D01*
X095874Y1694488D01*
X0959052Y1695242D01*
X0959159Y1696051D01*
X0959052Y169686D01*
X095874Y1697614D01*
X0958243Y1698262D01*
X0957596Y1698759D01*
X0956841Y1699071D01*
X0956032Y1699178D01*
D02*
G37*
G36*
X06805Y1694964D02*
Y1692D01*
X0683464D01*
X068341Y1692414D01*
X0683057Y1693265D01*
X0682496Y1693996D01*
X0681765Y1694557D01*
X0680914Y169491D01*
X06805Y1694964D01*
D02*
G37*
G36*
X06795D02*
X0679086Y169491D01*
X0678235Y1694557D01*
X0677504Y1693996D01*
X0676943Y1693265D01*
X067659Y1692414D01*
X0676536Y1692D01*
X06795D01*
Y1694964D01*
D02*
G37*
G36*
X06605Y1694464D02*
Y16915D01*
X0663464D01*
X066341Y1691914D01*
X0663057Y1692765D01*
X0662496Y1693496D01*
X0661765Y1694057D01*
X0660914Y169441D01*
X06605Y1694464D01*
D02*
G37*
G36*
X06595D02*
X0659086Y169441D01*
X0658235Y1694057D01*
X0657504Y1693496D01*
X0656943Y1692765D01*
X065659Y1691914D01*
X0656536Y16915D01*
X06595D01*
Y1694464D01*
D02*
G37*
G36*
X1052Y1698583D02*
X1051073Y1698461D01*
X1050208Y1698103D01*
X1049466Y1697534D01*
X1048897Y1696792D01*
X1048539Y1695927D01*
X1048417Y1695D01*
X1048539Y1694073D01*
X1048897Y1693208D01*
X1049466Y1692466D01*
X1050208Y1691897D01*
X1051073Y1691539D01*
X1052Y1691417D01*
X1052927Y1691539D01*
X1053792Y1691897D01*
X1054534Y1692466D01*
X1055103Y1693208D01*
X1055461Y1694073D01*
X1055583Y1695D01*
X1055461Y1695927D01*
X1055103Y1696792D01*
X1054534Y1697534D01*
X1053792Y1698103D01*
X1052927Y1698461D01*
X1052Y1698583D01*
D02*
G37*
G36*
X1042D02*
X1041073Y1698461D01*
X1040208Y1698103D01*
X1039466Y1697534D01*
X1038897Y1696792D01*
X1038539Y1695927D01*
X1038417Y1695D01*
X1038539Y1694073D01*
X1038897Y1693208D01*
X1039466Y1692466D01*
X1040208Y1691897D01*
X1041073Y1691539D01*
X1042Y1691417D01*
X1042927Y1691539D01*
X1043792Y1691897D01*
X1044534Y1692466D01*
X1045103Y1693208D01*
X1045461Y1694073D01*
X1045583Y1695D01*
X1045461Y1695927D01*
X1045103Y1696792D01*
X1044534Y1697534D01*
X1043792Y1698103D01*
X1042927Y1698461D01*
X1042Y1698583D01*
D02*
G37*
G36*
X0683464Y1691D02*
X06805D01*
Y1688036D01*
X0680914Y168809D01*
X0681765Y1688443D01*
X0682496Y1689004D01*
X0683057Y1689735D01*
X068341Y1690586D01*
X0683464Y1691D01*
D02*
G37*
G36*
X06795D02*
X0676536D01*
X067659Y1690586D01*
X0676943Y1689735D01*
X0677504Y1689004D01*
X0678235Y1688443D01*
X0679086Y168809D01*
X06795Y1688036D01*
Y1691D01*
D02*
G37*
G36*
X0663464Y16905D02*
X06605D01*
Y1687536D01*
X0660914Y168759D01*
X0661765Y1687943D01*
X0662496Y1688504D01*
X0663057Y1689235D01*
X066341Y1690086D01*
X0663464Y16905D01*
D02*
G37*
G36*
X06595D02*
X0656536D01*
X065659Y1690086D01*
X0656943Y1689235D01*
X0657504Y1688504D01*
X0658235Y1687943D01*
X0659086Y168759D01*
X06595Y1687536D01*
Y16905D01*
D02*
G37*
G36*
X1052Y1688583D02*
X1051073Y1688461D01*
X1050208Y1688103D01*
X1049466Y1687534D01*
X1048897Y1686792D01*
X1048539Y1685927D01*
X1048417Y1685D01*
X1048539Y1684073D01*
X1048897Y1683208D01*
X1049466Y1682466D01*
X1050208Y1681897D01*
X1051073Y1681539D01*
X1052Y1681417D01*
X1052927Y1681539D01*
X1053792Y1681897D01*
X1054534Y1682466D01*
X1055103Y1683208D01*
X1055461Y1684073D01*
X1055583Y1685D01*
X1055461Y1685927D01*
X1055103Y1686792D01*
X1054534Y1687534D01*
X1053792Y1688103D01*
X1052927Y1688461D01*
X1052Y1688583D01*
D02*
G37*
G36*
X1042D02*
X1041073Y1688461D01*
X1040208Y1688103D01*
X1039466Y1687534D01*
X1038897Y1686792D01*
X1038539Y1685927D01*
X1038417Y1685D01*
X1038539Y1684073D01*
X1038897Y1683208D01*
X1039466Y1682466D01*
X1040208Y1681897D01*
X1041073Y1681539D01*
X1042Y1681417D01*
X1042927Y1681539D01*
X1043792Y1681897D01*
X1044534Y1682466D01*
X1045103Y1683208D01*
X1045461Y1684073D01*
X1045583Y1685D01*
X1045461Y1685927D01*
X1045103Y1686792D01*
X1044534Y1687534D01*
X1043792Y1688103D01*
X1042927Y1688461D01*
X1042Y1688583D01*
D02*
G37*
G36*
X07965Y1681964D02*
Y1679D01*
X0799464D01*
X079941Y1679414D01*
X0799057Y1680265D01*
X0798496Y1680996D01*
X0797765Y1681557D01*
X0796914Y168191D01*
X07965Y1681964D01*
D02*
G37*
G36*
X07955D02*
X0795086Y168191D01*
X0794235Y1681557D01*
X0793504Y1680996D01*
X0792943Y1680265D01*
X079259Y1679414D01*
X0792536Y1679D01*
X07955D01*
Y1681964D01*
D02*
G37*
G36*
X0799464Y1678D02*
X07965D01*
Y1675036D01*
X0796914Y167509D01*
X0797765Y1675443D01*
X0798496Y1676004D01*
X0799057Y1676735D01*
X079941Y1677586D01*
X0799464Y1678D01*
D02*
G37*
G36*
X07955D02*
X0792536D01*
X079259Y1677586D01*
X0792943Y1676735D01*
X0793504Y1676004D01*
X0794235Y1675443D01*
X0795086Y167509D01*
X07955Y1675036D01*
Y1678D01*
D02*
G37*
G36*
X1052Y1678583D02*
X1051073Y1678461D01*
X1050208Y1678103D01*
X1049466Y1677534D01*
X1048897Y1676792D01*
X1048539Y1675927D01*
X1048417Y1675D01*
X1048539Y1674073D01*
X1048897Y1673208D01*
X1049466Y1672466D01*
X1050208Y1671897D01*
X1051073Y1671539D01*
X1052Y1671417D01*
X1052927Y1671539D01*
X1053792Y1671897D01*
X1054534Y1672466D01*
X1055103Y1673208D01*
X1055461Y1674073D01*
X1055583Y1675D01*
X1055461Y1675927D01*
X1055103Y1676792D01*
X1054534Y1677534D01*
X1053792Y1678103D01*
X1052927Y1678461D01*
X1052Y1678583D01*
D02*
G37*
G36*
X1042D02*
X1041073Y1678461D01*
X1040208Y1678103D01*
X1039466Y1677534D01*
X1038897Y1676792D01*
X1038539Y1675927D01*
X1038417Y1675D01*
X1038539Y1674073D01*
X1038897Y1673208D01*
X1039466Y1672466D01*
X1040208Y1671897D01*
X1041073Y1671539D01*
X1042Y1671417D01*
X1042927Y1671539D01*
X1043792Y1671897D01*
X1044534Y1672466D01*
X1045103Y1673208D01*
X1045461Y1674073D01*
X1045583Y1675D01*
X1045461Y1675927D01*
X1045103Y1676792D01*
X1044534Y1677534D01*
X1043792Y1678103D01*
X1042927Y1678461D01*
X1042Y1678583D01*
D02*
G37*
G36*
X0482638Y1677127D02*
X0481829Y167702D01*
X0481075Y1676708D01*
X0480427Y1676211D01*
X047993Y1675563D01*
X0479618Y1674809D01*
X0479511Y1674D01*
X0479618Y1673191D01*
X047993Y1672437D01*
X0480427Y1671789D01*
X0481075Y1671292D01*
X0481829Y167098D01*
X0482638Y1670873D01*
X0483448Y167098D01*
X0484202Y1671292D01*
X0484849Y1671789D01*
X0485346Y1672437D01*
X0485658Y1673191D01*
X0485765Y1674D01*
X0485658Y1674809D01*
X0485346Y1675563D01*
X0484849Y1676211D01*
X0484202Y1676708D01*
X0483448Y167702D01*
X0482638Y1677127D01*
D02*
G37*
G36*
X07945Y1671627D02*
X0793691Y167152D01*
X0792937Y1671208D01*
X0792289Y1670711D01*
X0791792Y1670063D01*
X079148Y1669309D01*
X0791373Y16685D01*
X079148Y1667691D01*
X0791792Y1666937D01*
X0792289Y1666289D01*
X0792937Y1665792D01*
X0793691Y166548D01*
X07945Y1665373D01*
X0795309Y166548D01*
X0796063Y1665792D01*
X0796711Y1666289D01*
X0797208Y1666937D01*
X079752Y1667691D01*
X0797627Y16685D01*
X079752Y1669309D01*
X0797208Y1670063D01*
X0796711Y1670711D01*
X0796063Y1671208D01*
X0795309Y167152D01*
X07945Y1671627D01*
D02*
G37*
G36*
X1052Y1668583D02*
X1051073Y1668461D01*
X1050208Y1668103D01*
X1049466Y1667534D01*
X1048897Y1666792D01*
X1048539Y1665927D01*
X1048417Y1665D01*
X1048539Y1664073D01*
X1048897Y1663208D01*
X1049466Y1662466D01*
X1050208Y1661897D01*
X1051073Y1661539D01*
X1052Y1661417D01*
X1052927Y1661539D01*
X1053792Y1661897D01*
X1054534Y1662466D01*
X1055103Y1663208D01*
X1055461Y1664073D01*
X1055583Y1665D01*
X1055461Y1665927D01*
X1055103Y1666792D01*
X1054534Y1667534D01*
X1053792Y1668103D01*
X1052927Y1668461D01*
X1052Y1668583D01*
D02*
G37*
G36*
X1042D02*
X1041073Y1668461D01*
X1040208Y1668103D01*
X1039466Y1667534D01*
X1038897Y1666792D01*
X1038539Y1665927D01*
X1038417Y1665D01*
X1038539Y1664073D01*
X1038897Y1663208D01*
X1039466Y1662466D01*
X1040208Y1661897D01*
X1041073Y1661539D01*
X1042Y1661417D01*
X1042927Y1661539D01*
X1043792Y1661897D01*
X1044534Y1662466D01*
X1045103Y1663208D01*
X1045461Y1664073D01*
X1045583Y1665D01*
X1045461Y1665927D01*
X1045103Y1666792D01*
X1044534Y1667534D01*
X1043792Y1668103D01*
X1042927Y1668461D01*
X1042Y1668583D01*
D02*
G37*
G36*
X0977Y1678081D02*
X0976191Y1677974D01*
X0975437Y1677662D01*
X0974789Y1677165D01*
X0974292Y1676517D01*
X097398Y1675763D01*
X0973873Y1674954D01*
X097398Y1674145D01*
X0974292Y167339D01*
X0974789Y1672743D01*
X0975437Y1672246D01*
X0975878Y1672063D01*
Y1656227D01*
X0975378Y1656128D01*
X0975103Y1656792D01*
X0974534Y1657534D01*
X0973792Y1658103D01*
X0972927Y1658461D01*
X0972Y1658583D01*
X0971073Y1658461D01*
X0970208Y1658103D01*
X0969466Y1657534D01*
X0968897Y1656792D01*
X0968539Y1655927D01*
X0968417Y1655D01*
X0968539Y1654073D01*
X0968897Y1653208D01*
X0969466Y1652466D01*
X0970208Y1651897D01*
X0971073Y1651539D01*
X0972Y1651417D01*
X0972927Y1651539D01*
X0973792Y1651897D01*
X0974534Y1652466D01*
X0975103Y1653208D01*
X0975378Y1653872D01*
X0975878Y1653773D01*
Y1646227D01*
X0975378Y1646128D01*
X0975103Y1646792D01*
X0974534Y1647534D01*
X0973792Y1648103D01*
X0972927Y1648461D01*
X0972Y1648583D01*
X0971073Y1648461D01*
X0970208Y1648103D01*
X0969466Y1647534D01*
X0968897Y1646792D01*
X0968539Y1645927D01*
X0968417Y1645D01*
X0968539Y1644073D01*
X0968897Y1643208D01*
X0969466Y1642466D01*
X0970208Y1641897D01*
X0971073Y1641539D01*
X0972Y1641417D01*
X0972927Y1641539D01*
X0973792Y1641897D01*
X0974534Y1642466D01*
X0975103Y1643208D01*
X0975378Y1643872D01*
X0975878Y1643773D01*
Y1637465D01*
X0927535Y1589122D01*
X0864891D01*
X0864708Y1589563D01*
X0864211Y1590211D01*
X0863563Y1590708D01*
X0862809Y159102D01*
X0862Y1591127D01*
X0861191Y159102D01*
X0860437Y1590708D01*
X0859789Y1590211D01*
X0859292Y1589563D01*
X085898Y1588809D01*
X0858873Y1588D01*
X085898Y1587191D01*
X0859292Y1586437D01*
X0859789Y1585789D01*
X0860437Y1585292D01*
X0861191Y158498D01*
X0862Y1584873D01*
X0862809Y158498D01*
X0863563Y1585292D01*
X0864211Y1585789D01*
X0864708Y1586437D01*
X0864891Y1586878D01*
X0928D01*
X0928Y1586878D01*
X0928429Y1586964D01*
X0928793Y1587207D01*
X0969882Y1628296D01*
X097025Y1627957D01*
X0970085Y1627764D01*
X0969242Y1626776D01*
X096837Y1625354D01*
X0967732Y1623812D01*
X0967342Y162219D01*
X0967211Y1620527D01*
X0967342Y1618863D01*
X0967732Y1617241D01*
X096837Y1615699D01*
X0969242Y1614277D01*
X0970325Y1613008D01*
X0971594Y1611925D01*
X0973017Y1611053D01*
X0974558Y1610414D01*
X0976181Y1610025D01*
X0977844Y1609894D01*
X0979507Y1610025D01*
X098113Y1610414D01*
X0982671Y1611053D01*
X0984094Y1611925D01*
X0985362Y1613008D01*
X0986446Y1614277D01*
X0987318Y1615699D01*
X0987956Y1617241D01*
X0988346Y1618863D01*
X0988477Y1620527D01*
X0988346Y162219D01*
X0987956Y1623812D01*
X0987318Y1625354D01*
X0986446Y1626776D01*
X0985362Y1628045D01*
X0984094Y1629129D01*
X0982671Y163D01*
X098113Y1630639D01*
X0979507Y1631029D01*
X0977844Y1631159D01*
X0976181Y1631029D01*
X0974558Y1630639D01*
X0973017Y163D01*
X0971594Y1629129D01*
X0970607Y1628286D01*
X0970414Y1628121D01*
X0970074Y1628488D01*
X0977793Y1636207D01*
X0977793Y1636207D01*
X0978036Y1636571D01*
X0978122Y1637D01*
Y1643773D01*
X0978622Y1643872D01*
X0978897Y1643208D01*
X0979466Y1642466D01*
X0980208Y1641897D01*
X0981073Y1641539D01*
X0982Y1641417D01*
X0982927Y1641539D01*
X0983792Y1641897D01*
X0984534Y1642466D01*
X0985103Y1643208D01*
X0985461Y1644073D01*
X0985583Y1645D01*
X0985461Y1645927D01*
X0985103Y1646792D01*
X0984534Y1647534D01*
X0983792Y1648103D01*
X0982927Y1648461D01*
X0982Y1648583D01*
X0981073Y1648461D01*
X0980208Y1648103D01*
X0979466Y1647534D01*
X0978897Y1646792D01*
X0978622Y1646128D01*
X0978122Y1646227D01*
Y1653773D01*
X0978622Y1653872D01*
X0978897Y1653208D01*
X0979466Y1652466D01*
X0980208Y1651897D01*
X0981073Y1651539D01*
X0982Y1651417D01*
X0982927Y1651539D01*
X0983792Y1651897D01*
X0984534Y1652466D01*
X0985103Y1653208D01*
X0985461Y1654073D01*
X0985583Y1655D01*
X0985461Y1655927D01*
X0985103Y1656792D01*
X0984534Y1657534D01*
X0983792Y1658103D01*
X0982927Y1658461D01*
X0982Y1658583D01*
X0981073Y1658461D01*
X0980208Y1658103D01*
X0979466Y1657534D01*
X0978897Y1656792D01*
X0978622Y1656128D01*
X0978122Y1656227D01*
Y1672063D01*
X0978563Y1672246D01*
X0979211Y1672743D01*
X0979708Y167339D01*
X098002Y1674145D01*
X0980127Y1674954D01*
X098002Y1675763D01*
X0979708Y1676517D01*
X0979211Y1677165D01*
X0978563Y1677662D01*
X0977809Y1677974D01*
X0977Y1678081D01*
D02*
G37*
G36*
X094Y1719627D02*
X0939191Y171952D01*
X0938437Y1719208D01*
X0937789Y1718711D01*
X0937292Y1718063D01*
X093698Y1717309D01*
X0936873Y17165D01*
X093698Y1715691D01*
X0937292Y1714937D01*
X0937789Y1714289D01*
X0938437Y1713792D01*
X0938878Y1713609D01*
Y1676D01*
X0938878Y1676D01*
X0938964Y1675571D01*
X0939207Y1675207D01*
X0955878Y1658535D01*
Y1656227D01*
X0955378Y1656128D01*
X0955103Y1656792D01*
X0954534Y1657534D01*
X0953792Y1658103D01*
X0952927Y1658461D01*
X0952Y1658583D01*
X0951073Y1658461D01*
X0950208Y1658103D01*
X0949466Y1657534D01*
X0948897Y1656792D01*
X0948539Y1655927D01*
X0948417Y1655D01*
X0948539Y1654073D01*
X0948897Y1653208D01*
X0949466Y1652466D01*
X0950208Y1651897D01*
X0951073Y1651539D01*
X0952Y1651417D01*
X0952927Y1651539D01*
X0953792Y1651897D01*
X0954534Y1652466D01*
X0955103Y1653208D01*
X0955378Y1653872D01*
X0955878Y1653773D01*
Y1646227D01*
X0955378Y1646128D01*
X0955103Y1646792D01*
X0954534Y1647534D01*
X0953792Y1648103D01*
X0952927Y1648461D01*
X0952Y1648583D01*
X0951073Y1648461D01*
X0950208Y1648103D01*
X0949466Y1647534D01*
X0948897Y1646792D01*
X0948539Y1645927D01*
X0948417Y1645D01*
X0948539Y1644073D01*
X0948897Y1643208D01*
X0949466Y1642466D01*
X0950208Y1641897D01*
X0951073Y1641539D01*
X0952Y1641417D01*
X0952927Y1641539D01*
X0953792Y1641897D01*
X0954534Y1642466D01*
X0955103Y1643208D01*
X0955378Y1643872D01*
X0955878Y1643773D01*
Y16365D01*
X0955878Y16365D01*
X0955964Y1636071D01*
X0956207Y1635707D01*
X0957707Y1634207D01*
X0958071Y1633964D01*
X09585Y1633878D01*
X09585Y1633878D01*
X0959609D01*
X0959792Y1633437D01*
X0960289Y1632789D01*
X0960937Y1632292D01*
X0961691Y163198D01*
X09625Y1631873D01*
X0963309Y163198D01*
X0964063Y1632292D01*
X0964711Y1632789D01*
X0965208Y1633437D01*
X096552Y1634191D01*
X0965627Y1635D01*
X096552Y1635809D01*
X0965208Y1636563D01*
X0964711Y1637211D01*
X0964063Y1637708D01*
X0963309Y163802D01*
X09625Y1638127D01*
X0961691Y163802D01*
X0960937Y1637708D01*
X0960289Y1637211D01*
X0959792Y1636563D01*
X0959609Y1636122D01*
X0958965D01*
X0958122Y1636965D01*
Y1643773D01*
X0958622Y1643872D01*
X0958897Y1643208D01*
X0959466Y1642466D01*
X0960208Y1641897D01*
X0961073Y1641539D01*
X0962Y1641417D01*
X0962927Y1641539D01*
X0963792Y1641897D01*
X0964534Y1642466D01*
X0965103Y1643208D01*
X0965461Y1644073D01*
X0965583Y1645D01*
X0965461Y1645927D01*
X0965103Y1646792D01*
X0964534Y1647534D01*
X0963792Y1648103D01*
X0962927Y1648461D01*
X0962Y1648583D01*
X0961073Y1648461D01*
X0960208Y1648103D01*
X0959466Y1647534D01*
X0958897Y1646792D01*
X0958622Y1646128D01*
X0958122Y1646227D01*
Y1653773D01*
X0958622Y1653872D01*
X0958897Y1653208D01*
X0959466Y1652466D01*
X0960208Y1651897D01*
X0961073Y1651539D01*
X0962Y1651417D01*
X0962927Y1651539D01*
X0963792Y1651897D01*
X0964534Y1652466D01*
X0965103Y1653208D01*
X0965461Y1654073D01*
X0965583Y1655D01*
X0965461Y1655927D01*
X0965103Y1656792D01*
X0964534Y1657534D01*
X0963792Y1658103D01*
X0962927Y1658461D01*
X0962Y1658583D01*
X0961073Y1658461D01*
X0960208Y1658103D01*
X0959466Y1657534D01*
X0958897Y1656792D01*
X0958622Y1656128D01*
X0958122Y1656227D01*
Y1659D01*
X0958122Y1659D01*
X0958036Y1659429D01*
X0957793Y1659793D01*
X0941122Y1676465D01*
Y1713609D01*
X0941563Y1713792D01*
X0942211Y1714289D01*
X0942708Y1714937D01*
X094302Y1715691D01*
X0943127Y17165D01*
X094302Y1717309D01*
X0942708Y1718063D01*
X0942211Y1718711D01*
X0941563Y1719208D01*
X0940809Y171952D01*
X094Y1719627D01*
D02*
G37*
G36*
X07835Y1657921D02*
Y16545D01*
X0786921D01*
X0786851Y1655032D01*
X0786453Y1655993D01*
X0785819Y1656819D01*
X0784993Y1657453D01*
X0784032Y1657851D01*
X07835Y1657921D01*
D02*
G37*
G36*
X07825D02*
X0781968Y1657851D01*
X0781007Y1657453D01*
X0780181Y1656819D01*
X0779547Y1655993D01*
X0779149Y1655032D01*
X0779079Y16545D01*
X07825D01*
Y1657921D01*
D02*
G37*
G36*
X06675D02*
Y16545D01*
X0670921D01*
X0670851Y1655032D01*
X0670453Y1655993D01*
X0669819Y1656819D01*
X0668993Y1657453D01*
X0668032Y1657851D01*
X06675Y1657921D01*
D02*
G37*
G36*
X06665D02*
X0665968Y1657851D01*
X0665007Y1657453D01*
X0664181Y1656819D01*
X0663547Y1655993D01*
X0663149Y1655032D01*
X0663079Y16545D01*
X06665D01*
Y1657921D01*
D02*
G37*
G36*
X0520874Y1668879D02*
X0505126D01*
X0503942Y1668723D01*
X0502838Y1668266D01*
X050189Y1667539D01*
X0501163Y1666591D01*
X0500706Y1665488D01*
X050055Y1664303D01*
Y1656429D01*
X0500706Y1655245D01*
X0501163Y1654141D01*
X050189Y1653193D01*
X0502838Y1652466D01*
X0503942Y1652009D01*
X0505126Y1651853D01*
X0520874D01*
X0522058Y1652009D01*
X0523162Y1652466D01*
X052411Y1653193D01*
X0524837Y1654141D01*
X0525294Y1655245D01*
X052545Y1656429D01*
Y1664303D01*
X0525294Y1665488D01*
X0524837Y1666591D01*
X052411Y1667539D01*
X0523162Y1668266D01*
X0522058Y1668723D01*
X0520874Y1668879D01*
D02*
G37*
G36*
X1052Y1658583D02*
X1051073Y1658461D01*
X1050208Y1658103D01*
X1049466Y1657534D01*
X1048897Y1656792D01*
X1048539Y1655927D01*
X1048417Y1655D01*
X1048539Y1654073D01*
X1048897Y1653208D01*
X1049466Y1652466D01*
X1050208Y1651897D01*
X1051073Y1651539D01*
X1052Y1651417D01*
X1052927Y1651539D01*
X1053792Y1651897D01*
X1054534Y1652466D01*
X1055103Y1653208D01*
X1055461Y1654073D01*
X1055583Y1655D01*
X1055461Y1655927D01*
X1055103Y1656792D01*
X1054534Y1657534D01*
X1053792Y1658103D01*
X1052927Y1658461D01*
X1052Y1658583D01*
D02*
G37*
G36*
X1042D02*
X1041073Y1658461D01*
X1040208Y1658103D01*
X1039466Y1657534D01*
X1038897Y1656792D01*
X1038539Y1655927D01*
X1038417Y1655D01*
X1038539Y1654073D01*
X1038897Y1653208D01*
X1039466Y1652466D01*
X1040208Y1651897D01*
X1041073Y1651539D01*
X1042Y1651417D01*
X1042927Y1651539D01*
X1043792Y1651897D01*
X1044534Y1652466D01*
X1045103Y1653208D01*
X1045461Y1654073D01*
X1045583Y1655D01*
X1045461Y1655927D01*
X1045103Y1656792D01*
X1044534Y1657534D01*
X1043792Y1658103D01*
X1042927Y1658461D01*
X1042Y1658583D01*
D02*
G37*
G36*
X1032D02*
X1031073Y1658461D01*
X1030208Y1658103D01*
X1029466Y1657534D01*
X1028897Y1656792D01*
X1028539Y1655927D01*
X1028417Y1655D01*
X1028539Y1654073D01*
X1028897Y1653208D01*
X1029466Y1652466D01*
X1030208Y1651897D01*
X1031073Y1651539D01*
X1032Y1651417D01*
X1032927Y1651539D01*
X1033792Y1651897D01*
X1034534Y1652466D01*
X1035103Y1653208D01*
X1035461Y1654073D01*
X1035583Y1655D01*
X1035461Y1655927D01*
X1035103Y1656792D01*
X1034534Y1657534D01*
X1033792Y1658103D01*
X1032927Y1658461D01*
X1032Y1658583D01*
D02*
G37*
G36*
X0942D02*
X0941073Y1658461D01*
X0940208Y1658103D01*
X0939466Y1657534D01*
X0938897Y1656792D01*
X0938539Y1655927D01*
X0938417Y1655D01*
X0938539Y1654073D01*
X0938897Y1653208D01*
X0939466Y1652466D01*
X0940208Y1651897D01*
X0941073Y1651539D01*
X0942Y1651417D01*
X0942927Y1651539D01*
X0943792Y1651897D01*
X0944534Y1652466D01*
X0945103Y1653208D01*
X0945461Y1654073D01*
X0945583Y1655D01*
X0945461Y1655927D01*
X0945103Y1656792D01*
X0944534Y1657534D01*
X0943792Y1658103D01*
X0942927Y1658461D01*
X0942Y1658583D01*
D02*
G37*
G36*
X0932D02*
X0931073Y1658461D01*
X0930208Y1658103D01*
X0929466Y1657534D01*
X0928897Y1656792D01*
X0928539Y1655927D01*
X0928417Y1655D01*
X0928539Y1654073D01*
X0928897Y1653208D01*
X0929466Y1652466D01*
X0930208Y1651897D01*
X0931073Y1651539D01*
X0932Y1651417D01*
X0932927Y1651539D01*
X0933792Y1651897D01*
X0934534Y1652466D01*
X0935103Y1653208D01*
X0935461Y1654073D01*
X0935583Y1655D01*
X0935461Y1655927D01*
X0935103Y1656792D01*
X0934534Y1657534D01*
X0933792Y1658103D01*
X0932927Y1658461D01*
X0932Y1658583D01*
D02*
G37*
G36*
X0922D02*
X0921073Y1658461D01*
X0920208Y1658103D01*
X0919466Y1657534D01*
X0918897Y1656792D01*
X0918539Y1655927D01*
X0918417Y1655D01*
X0918539Y1654073D01*
X0918897Y1653208D01*
X0919466Y1652466D01*
X0920208Y1651897D01*
X0921073Y1651539D01*
X0922Y1651417D01*
X0922927Y1651539D01*
X0923792Y1651897D01*
X0924534Y1652466D01*
X0925103Y1653208D01*
X0925461Y1654073D01*
X0925583Y1655D01*
X0925461Y1655927D01*
X0925103Y1656792D01*
X0924534Y1657534D01*
X0923792Y1658103D01*
X0922927Y1658461D01*
X0922Y1658583D01*
D02*
G37*
G36*
X0912D02*
X0911073Y1658461D01*
X0910208Y1658103D01*
X0909466Y1657534D01*
X0908897Y1656792D01*
X0908539Y1655927D01*
X0908417Y1655D01*
X0908539Y1654073D01*
X0908897Y1653208D01*
X0909466Y1652466D01*
X0910208Y1651897D01*
X0911073Y1651539D01*
X0912Y1651417D01*
X0912927Y1651539D01*
X0913792Y1651897D01*
X0914534Y1652466D01*
X0915103Y1653208D01*
X0915461Y1654073D01*
X0915583Y1655D01*
X0915461Y1655927D01*
X0915103Y1656792D01*
X0914534Y1657534D01*
X0913792Y1658103D01*
X0912927Y1658461D01*
X0912Y1658583D01*
D02*
G37*
G36*
X0902D02*
X0901073Y1658461D01*
X0900208Y1658103D01*
X0899466Y1657534D01*
X0898897Y1656792D01*
X0898539Y1655927D01*
X0898417Y1655D01*
X0898539Y1654073D01*
X0898897Y1653208D01*
X0899466Y1652466D01*
X0900208Y1651897D01*
X0901073Y1651539D01*
X0902Y1651417D01*
X0902927Y1651539D01*
X0903792Y1651897D01*
X0904534Y1652466D01*
X0905103Y1653208D01*
X0905461Y1654073D01*
X0905583Y1655D01*
X0905461Y1655927D01*
X0905103Y1656792D01*
X0904534Y1657534D01*
X0903792Y1658103D01*
X0902927Y1658461D01*
X0902Y1658583D01*
D02*
G37*
G36*
X0892D02*
X0891073Y1658461D01*
X0890208Y1658103D01*
X0889466Y1657534D01*
X0888897Y1656792D01*
X0888539Y1655927D01*
X0888417Y1655D01*
X0888539Y1654073D01*
X0888897Y1653208D01*
X0889466Y1652466D01*
X0890208Y1651897D01*
X0891073Y1651539D01*
X0892Y1651417D01*
X0892927Y1651539D01*
X0893792Y1651897D01*
X0894534Y1652466D01*
X0895103Y1653208D01*
X0895461Y1654073D01*
X0895583Y1655D01*
X0895461Y1655927D01*
X0895103Y1656792D01*
X0894534Y1657534D01*
X0893792Y1658103D01*
X0892927Y1658461D01*
X0892Y1658583D01*
D02*
G37*
G36*
X0882D02*
X0881073Y1658461D01*
X0880208Y1658103D01*
X0879466Y1657534D01*
X0878897Y1656792D01*
X0878539Y1655927D01*
X0878417Y1655D01*
X0878539Y1654073D01*
X0878897Y1653208D01*
X0879466Y1652466D01*
X0880208Y1651897D01*
X0881073Y1651539D01*
X0882Y1651417D01*
X0882927Y1651539D01*
X0883792Y1651897D01*
X0884534Y1652466D01*
X0885103Y1653208D01*
X0885461Y1654073D01*
X0885583Y1655D01*
X0885461Y1655927D01*
X0885103Y1656792D01*
X0884534Y1657534D01*
X0883792Y1658103D01*
X0882927Y1658461D01*
X0882Y1658583D01*
D02*
G37*
G36*
X0766553Y1657553D02*
X0759447D01*
Y1650447D01*
X0766553D01*
Y1657553D01*
D02*
G37*
G36*
X0650553D02*
X0643447D01*
Y1650447D01*
X0650553D01*
Y1657553D01*
D02*
G37*
G36*
X0803Y1657583D02*
X0802073Y1657461D01*
X0801208Y1657103D01*
X0800466Y1656534D01*
X0799897Y1655792D01*
X0799539Y1654927D01*
X0799417Y1654D01*
X0799539Y1653073D01*
X0799897Y1652208D01*
X0800466Y1651466D01*
X0801208Y1650897D01*
X0802073Y1650539D01*
X0803Y1650417D01*
X0803928Y1650539D01*
X0804792Y1650897D01*
X0805534Y1651466D01*
X0806103Y1652208D01*
X0806461Y1653073D01*
X0806583Y1654D01*
X0806461Y1654927D01*
X0806103Y1655792D01*
X0805534Y1656534D01*
X0804792Y1657103D01*
X0803928Y1657461D01*
X0803Y1657583D01*
D02*
G37*
G36*
X0793D02*
X0792072Y1657461D01*
X0791208Y1657103D01*
X0790466Y1656534D01*
X0789897Y1655792D01*
X0789539Y1654927D01*
X0789417Y1654D01*
X0789539Y1653073D01*
X0789897Y1652208D01*
X0790466Y1651466D01*
X0791208Y1650897D01*
X0792072Y1650539D01*
X0793Y1650417D01*
X0793927Y1650539D01*
X0794792Y1650897D01*
X0795534Y1651466D01*
X0796103Y1652208D01*
X0796461Y1653073D01*
X0796583Y1654D01*
X0796461Y1654927D01*
X0796103Y1655792D01*
X0795534Y1656534D01*
X0794792Y1657103D01*
X0793927Y1657461D01*
X0793Y1657583D01*
D02*
G37*
G36*
X0773D02*
X0772073Y1657461D01*
X0771208Y1657103D01*
X0770466Y1656534D01*
X0769897Y1655792D01*
X0769539Y1654927D01*
X0769417Y1654D01*
X0769539Y1653073D01*
X0769897Y1652208D01*
X0770466Y1651466D01*
X0771208Y1650897D01*
X0772073Y1650539D01*
X0773Y1650417D01*
X0773927Y1650539D01*
X0774792Y1650897D01*
X0775534Y1651466D01*
X0776103Y1652208D01*
X0776461Y1653073D01*
X0776583Y1654D01*
X0776461Y1654927D01*
X0776103Y1655792D01*
X0775534Y1656534D01*
X0774792Y1657103D01*
X0773927Y1657461D01*
X0773Y1657583D01*
D02*
G37*
G36*
X0697D02*
X0696072Y1657461D01*
X0695208Y1657103D01*
X0694466Y1656534D01*
X0693897Y1655792D01*
X0693539Y1654927D01*
X0693417Y1654D01*
X0693539Y1653073D01*
X0693897Y1652208D01*
X0694466Y1651466D01*
X0695208Y1650897D01*
X0696072Y1650539D01*
X0697Y1650417D01*
X0697928Y1650539D01*
X0698792Y1650897D01*
X0699534Y1651466D01*
X0700103Y1652208D01*
X0700461Y1653073D01*
X0700583Y1654D01*
X0700461Y1654927D01*
X0700103Y1655792D01*
X0699534Y1656534D01*
X0698792Y1657103D01*
X0697928Y1657461D01*
X0697Y1657583D01*
D02*
G37*
G36*
X0687D02*
X0686072Y1657461D01*
X0685208Y1657103D01*
X0684466Y1656534D01*
X0683897Y1655792D01*
X0683539Y1654927D01*
X0683417Y1654D01*
X0683539Y1653073D01*
X0683897Y1652208D01*
X0684466Y1651466D01*
X0685208Y1650897D01*
X0686072Y1650539D01*
X0687Y1650417D01*
X0687927Y1650539D01*
X0688792Y1650897D01*
X0689534Y1651466D01*
X0690103Y1652208D01*
X0690461Y1653073D01*
X0690583Y1654D01*
X0690461Y1654927D01*
X0690103Y1655792D01*
X0689534Y1656534D01*
X0688792Y1657103D01*
X0687927Y1657461D01*
X0687Y1657583D01*
D02*
G37*
G36*
X0677D02*
X0676073Y1657461D01*
X0675208Y1657103D01*
X0674466Y1656534D01*
X0673897Y1655792D01*
X0673539Y1654927D01*
X0673417Y1654D01*
X0673539Y1653073D01*
X0673897Y1652208D01*
X0674466Y1651466D01*
X0675208Y1650897D01*
X0676073Y1650539D01*
X0677Y1650417D01*
X0677927Y1650539D01*
X0678792Y1650897D01*
X0679534Y1651466D01*
X0680103Y1652208D01*
X0680461Y1653073D01*
X0680583Y1654D01*
X0680461Y1654927D01*
X0680103Y1655792D01*
X0679534Y1656534D01*
X0678792Y1657103D01*
X0677927Y1657461D01*
X0677Y1657583D01*
D02*
G37*
G36*
X0657D02*
X0656073Y1657461D01*
X0655208Y1657103D01*
X0654466Y1656534D01*
X0653897Y1655792D01*
X0653539Y1654927D01*
X0653417Y1654D01*
X0653539Y1653073D01*
X0653897Y1652208D01*
X0654466Y1651466D01*
X0655208Y1650897D01*
X0656073Y1650539D01*
X0657Y1650417D01*
X0657928Y1650539D01*
X0658792Y1650897D01*
X0659534Y1651466D01*
X0660103Y1652208D01*
X0660461Y1653073D01*
X0660583Y1654D01*
X0660461Y1654927D01*
X0660103Y1655792D01*
X0659534Y1656534D01*
X0658792Y1657103D01*
X0657928Y1657461D01*
X0657Y1657583D01*
D02*
G37*
G36*
X0786921Y16535D02*
X07835D01*
Y1650079D01*
X0784032Y1650149D01*
X0784993Y1650547D01*
X0785819Y1651181D01*
X0786453Y1652007D01*
X0786851Y1652968D01*
X0786921Y16535D01*
D02*
G37*
G36*
X07825D02*
X0779079D01*
X0779149Y1652968D01*
X0779547Y1652007D01*
X0780181Y1651181D01*
X0781007Y1650547D01*
X0781968Y1650149D01*
X07825Y1650079D01*
Y16535D01*
D02*
G37*
G36*
X0670921D02*
X06675D01*
Y1650079D01*
X0668032Y1650149D01*
X0668993Y1650547D01*
X0669819Y1651181D01*
X0670453Y1652007D01*
X0670851Y1652968D01*
X0670921Y16535D01*
D02*
G37*
G36*
X06665D02*
X0663079D01*
X0663149Y1652968D01*
X0663547Y1652007D01*
X0664181Y1651181D01*
X0665007Y1650547D01*
X0665968Y1650149D01*
X06665Y1650079D01*
Y16535D01*
D02*
G37*
G36*
X08625Y1648921D02*
Y16455D01*
X0865921D01*
X0865851Y1646032D01*
X0865453Y1646993D01*
X0864819Y1647819D01*
X0863993Y1648453D01*
X0863032Y1648851D01*
X08625Y1648921D01*
D02*
G37*
G36*
X08725D02*
Y16455D01*
X0875921D01*
X0875851Y1646032D01*
X0875453Y1646993D01*
X0874819Y1647819D01*
X0873993Y1648453D01*
X0873032Y1648851D01*
X08725Y1648921D01*
D02*
G37*
G36*
X08615D02*
X0860968Y1648851D01*
X0860007Y1648453D01*
X0859181Y1647819D01*
X0858547Y1646993D01*
X0858149Y1646032D01*
X0858079Y16455D01*
X08615D01*
Y1648921D01*
D02*
G37*
G36*
X1052Y1648583D02*
X1051073Y1648461D01*
X1050208Y1648103D01*
X1049466Y1647534D01*
X1048897Y1646792D01*
X1048539Y1645927D01*
X1048417Y1645D01*
X1048539Y1644073D01*
X1048897Y1643208D01*
X1049466Y1642466D01*
X1050208Y1641897D01*
X1051073Y1641539D01*
X1052Y1641417D01*
X1052927Y1641539D01*
X1053792Y1641897D01*
X1054534Y1642466D01*
X1055103Y1643208D01*
X1055461Y1644073D01*
X1055583Y1645D01*
X1055461Y1645927D01*
X1055103Y1646792D01*
X1054534Y1647534D01*
X1053792Y1648103D01*
X1052927Y1648461D01*
X1052Y1648583D01*
D02*
G37*
G36*
X1042D02*
X1041073Y1648461D01*
X1040208Y1648103D01*
X1039466Y1647534D01*
X1038897Y1646792D01*
X1038539Y1645927D01*
X1038417Y1645D01*
X1038539Y1644073D01*
X1038897Y1643208D01*
X1039466Y1642466D01*
X1040208Y1641897D01*
X1041073Y1641539D01*
X1042Y1641417D01*
X1042927Y1641539D01*
X1043792Y1641897D01*
X1044534Y1642466D01*
X1045103Y1643208D01*
X1045461Y1644073D01*
X1045583Y1645D01*
X1045461Y1645927D01*
X1045103Y1646792D01*
X1044534Y1647534D01*
X1043792Y1648103D01*
X1042927Y1648461D01*
X1042Y1648583D01*
D02*
G37*
G36*
X1032D02*
X1031073Y1648461D01*
X1030208Y1648103D01*
X1029466Y1647534D01*
X1028897Y1646792D01*
X1028539Y1645927D01*
X1028417Y1645D01*
X1028539Y1644073D01*
X1028897Y1643208D01*
X1029466Y1642466D01*
X1030208Y1641897D01*
X1031073Y1641539D01*
X1032Y1641417D01*
X1032927Y1641539D01*
X1033792Y1641897D01*
X1034534Y1642466D01*
X1035103Y1643208D01*
X1035461Y1644073D01*
X1035583Y1645D01*
X1035461Y1645927D01*
X1035103Y1646792D01*
X1034534Y1647534D01*
X1033792Y1648103D01*
X1032927Y1648461D01*
X1032Y1648583D01*
D02*
G37*
G36*
X1022D02*
X1021073Y1648461D01*
X1020208Y1648103D01*
X1019466Y1647534D01*
X1018897Y1646792D01*
X1018539Y1645927D01*
X1018417Y1645D01*
X1018539Y1644073D01*
X1018897Y1643208D01*
X1019466Y1642466D01*
X1020208Y1641897D01*
X1021073Y1641539D01*
X1022Y1641417D01*
X1022927Y1641539D01*
X1023792Y1641897D01*
X1024534Y1642466D01*
X1025103Y1643208D01*
X1025461Y1644073D01*
X1025583Y1645D01*
X1025461Y1645927D01*
X1025103Y1646792D01*
X1024534Y1647534D01*
X1023792Y1648103D01*
X1022927Y1648461D01*
X1022Y1648583D01*
D02*
G37*
G36*
X0942D02*
X0941073Y1648461D01*
X0940208Y1648103D01*
X0939466Y1647534D01*
X0938897Y1646792D01*
X0938539Y1645927D01*
X0938417Y1645D01*
X0938539Y1644073D01*
X0938897Y1643208D01*
X0939466Y1642466D01*
X0940208Y1641897D01*
X0941073Y1641539D01*
X0942Y1641417D01*
X0942927Y1641539D01*
X0943792Y1641897D01*
X0944534Y1642466D01*
X0945103Y1643208D01*
X0945461Y1644073D01*
X0945583Y1645D01*
X0945461Y1645927D01*
X0945103Y1646792D01*
X0944534Y1647534D01*
X0943792Y1648103D01*
X0942927Y1648461D01*
X0942Y1648583D01*
D02*
G37*
G36*
X0932D02*
X0931073Y1648461D01*
X0930208Y1648103D01*
X0929466Y1647534D01*
X0928897Y1646792D01*
X0928539Y1645927D01*
X0928417Y1645D01*
X0928539Y1644073D01*
X0928897Y1643208D01*
X0929466Y1642466D01*
X0930208Y1641897D01*
X0931073Y1641539D01*
X0932Y1641417D01*
X0932927Y1641539D01*
X0933792Y1641897D01*
X0934534Y1642466D01*
X0935103Y1643208D01*
X0935461Y1644073D01*
X0935583Y1645D01*
X0935461Y1645927D01*
X0935103Y1646792D01*
X0934534Y1647534D01*
X0933792Y1648103D01*
X0932927Y1648461D01*
X0932Y1648583D01*
D02*
G37*
G36*
X0922D02*
X0921073Y1648461D01*
X0920208Y1648103D01*
X0919466Y1647534D01*
X0918897Y1646792D01*
X0918539Y1645927D01*
X0918417Y1645D01*
X0918539Y1644073D01*
X0918897Y1643208D01*
X0919466Y1642466D01*
X0920208Y1641897D01*
X0921073Y1641539D01*
X0922Y1641417D01*
X0922927Y1641539D01*
X0923792Y1641897D01*
X0924534Y1642466D01*
X0925103Y1643208D01*
X0925461Y1644073D01*
X0925583Y1645D01*
X0925461Y1645927D01*
X0925103Y1646792D01*
X0924534Y1647534D01*
X0923792Y1648103D01*
X0922927Y1648461D01*
X0922Y1648583D01*
D02*
G37*
G36*
X0912D02*
X0911073Y1648461D01*
X0910208Y1648103D01*
X0909466Y1647534D01*
X0908897Y1646792D01*
X0908539Y1645927D01*
X0908417Y1645D01*
X0908539Y1644073D01*
X0908897Y1643208D01*
X0909466Y1642466D01*
X0910208Y1641897D01*
X0911073Y1641539D01*
X0912Y1641417D01*
X0912927Y1641539D01*
X0913792Y1641897D01*
X0914534Y1642466D01*
X0915103Y1643208D01*
X0915461Y1644073D01*
X0915583Y1645D01*
X0915461Y1645927D01*
X0915103Y1646792D01*
X0914534Y1647534D01*
X0913792Y1648103D01*
X0912927Y1648461D01*
X0912Y1648583D01*
D02*
G37*
G36*
X0902D02*
X0901073Y1648461D01*
X0900208Y1648103D01*
X0899466Y1647534D01*
X0898897Y1646792D01*
X0898539Y1645927D01*
X0898417Y1645D01*
X0898539Y1644073D01*
X0898897Y1643208D01*
X0899466Y1642466D01*
X0900208Y1641897D01*
X0901073Y1641539D01*
X0902Y1641417D01*
X0902927Y1641539D01*
X0903792Y1641897D01*
X0904534Y1642466D01*
X0905103Y1643208D01*
X0905461Y1644073D01*
X0905583Y1645D01*
X0905461Y1645927D01*
X0905103Y1646792D01*
X0904534Y1647534D01*
X0903792Y1648103D01*
X0902927Y1648461D01*
X0902Y1648583D01*
D02*
G37*
G36*
X0892D02*
X0891073Y1648461D01*
X0890208Y1648103D01*
X0889466Y1647534D01*
X0888897Y1646792D01*
X0888539Y1645927D01*
X0888417Y1645D01*
X0888539Y1644073D01*
X0888897Y1643208D01*
X0889466Y1642466D01*
X0890208Y1641897D01*
X0891073Y1641539D01*
X0892Y1641417D01*
X0892927Y1641539D01*
X0893792Y1641897D01*
X0894534Y1642466D01*
X0895103Y1643208D01*
X0895461Y1644073D01*
X0895583Y1645D01*
X0895461Y1645927D01*
X0895103Y1646792D01*
X0894534Y1647534D01*
X0893792Y1648103D01*
X0892927Y1648461D01*
X0892Y1648583D01*
D02*
G37*
G36*
X0882D02*
X0881073Y1648461D01*
X0880208Y1648103D01*
X0879466Y1647534D01*
X0878897Y1646792D01*
X0878539Y1645927D01*
X0878417Y1645D01*
X0878539Y1644073D01*
X0878897Y1643208D01*
X0879466Y1642466D01*
X0880208Y1641897D01*
X0881073Y1641539D01*
X0882Y1641417D01*
X0882927Y1641539D01*
X0883792Y1641897D01*
X0884534Y1642466D01*
X0885103Y1643208D01*
X0885461Y1644073D01*
X0885583Y1645D01*
X0885461Y1645927D01*
X0885103Y1646792D01*
X0884534Y1647534D01*
X0883792Y1648103D01*
X0882927Y1648461D01*
X0882Y1648583D01*
D02*
G37*
G36*
X0865921Y16445D02*
X08625D01*
Y1641079D01*
X0863032Y1641149D01*
X0863993Y1641547D01*
X0864819Y1642181D01*
X0865453Y1643007D01*
X0865851Y1643968D01*
X0865921Y16445D01*
D02*
G37*
G36*
X0875921D02*
X08725D01*
Y1641079D01*
X0873032Y1641149D01*
X0873993Y1641547D01*
X0874819Y1642181D01*
X0875453Y1643007D01*
X0875851Y1643968D01*
X0875921Y16445D01*
D02*
G37*
G36*
X08715D02*
X0868079D01*
X0868149Y1643968D01*
X0868547Y1643007D01*
X0869181Y1642181D01*
X0870007Y1641547D01*
X0870968Y1641149D01*
X08715Y1641079D01*
Y16445D01*
D02*
G37*
G36*
X08615D02*
X0858079D01*
X0858149Y1643968D01*
X0858547Y1643007D01*
X0859181Y1642181D01*
X0860007Y1641547D01*
X0860968Y1641149D01*
X08615Y1641079D01*
Y16445D01*
D02*
G37*
G36*
X0520874Y1648417D02*
X05135D01*
Y164D01*
X0525854D01*
Y1643437D01*
X0525684Y1644726D01*
X0525186Y1645927D01*
X0524395Y1646958D01*
X0523364Y164775D01*
X0522163Y1648247D01*
X0520874Y1648417D01*
D02*
G37*
G36*
X05125D02*
X0505126D01*
X0503837Y1648247D01*
X0502636Y164775D01*
X0501605Y1646958D01*
X0500813Y1645927D01*
X0500316Y1644726D01*
X0500146Y1643437D01*
Y164D01*
X05125D01*
Y1648417D01*
D02*
G37*
G36*
X0752Y1640964D02*
Y1638D01*
X0754964D01*
X075491Y1638414D01*
X0754557Y1639265D01*
X0753996Y1639996D01*
X0753265Y1640557D01*
X0752414Y164091D01*
X0752Y1640964D01*
D02*
G37*
G36*
X0751D02*
X0750586Y164091D01*
X0749735Y1640557D01*
X0749004Y1639996D01*
X0748443Y1639265D01*
X074809Y1638414D01*
X0748036Y1638D01*
X0751D01*
Y1640964D01*
D02*
G37*
G36*
X0754964Y1637D02*
X0752D01*
Y1634036D01*
X0752414Y163409D01*
X0753265Y1634443D01*
X0753996Y1635004D01*
X0754557Y1635735D01*
X075491Y1636586D01*
X0754964Y1637D01*
D02*
G37*
G36*
X0751D02*
X0748036D01*
X074809Y1636586D01*
X0748443Y1635735D01*
X0749004Y1635004D01*
X0749735Y1634443D01*
X0750586Y163409D01*
X0751Y1634036D01*
Y1637D01*
D02*
G37*
G36*
X0837Y1644627D02*
X0836191Y164452D01*
X0835437Y1644208D01*
X0834789Y1643711D01*
X0834292Y1643063D01*
X083398Y1642309D01*
X0833873Y16415D01*
X083398Y1640691D01*
X0834292Y1639937D01*
X0834789Y1639289D01*
X0835437Y1638792D01*
X0836116Y1638511D01*
X0836156Y163825D01*
X0836116Y1637989D01*
X0835437Y1637708D01*
X0834789Y1637211D01*
X0834292Y1636563D01*
X083398Y1635809D01*
X0833873Y1635D01*
X083398Y1634191D01*
X0834292Y1633437D01*
X0834789Y1632789D01*
X0835437Y1632292D01*
X0836191Y163198D01*
X0837Y1631873D01*
X0837809Y163198D01*
X0838563Y1632292D01*
X0839211Y1632789D01*
X0839708Y1633437D01*
X084002Y1634191D01*
X0840127Y1635D01*
X084002Y1635809D01*
X0839708Y1636563D01*
X0839211Y1637211D01*
X0838563Y1637708D01*
X0837884Y1637989D01*
X0837844Y163825D01*
X0837884Y1638511D01*
X0838563Y1638792D01*
X0839211Y1639289D01*
X0839708Y1639937D01*
X084002Y1640691D01*
X0840127Y16415D01*
X084002Y1642309D01*
X0839708Y1643063D01*
X0839211Y1643711D01*
X0838563Y1644208D01*
X0837809Y164452D01*
X0837Y1644627D01*
D02*
G37*
G36*
X0525854Y1639D02*
X05135D01*
Y1630583D01*
X0520874D01*
X0522163Y1630753D01*
X0523364Y1631251D01*
X0524395Y1632042D01*
X0525186Y1633073D01*
X0525684Y1634274D01*
X0525854Y1635563D01*
Y1639D01*
D02*
G37*
G36*
X05125D02*
X0500146D01*
Y1635563D01*
X0500316Y1634274D01*
X0500813Y1633073D01*
X0501605Y1632042D01*
X0502636Y1631251D01*
X0503837Y1630753D01*
X0505126Y1630583D01*
X05125D01*
Y1639D01*
D02*
G37*
G36*
X06675Y1628464D02*
Y16255D01*
X0670464D01*
X067041Y1625914D01*
X0670057Y1626765D01*
X0669496Y1627496D01*
X0668765Y1628057D01*
X0667914Y162841D01*
X06675Y1628464D01*
D02*
G37*
G36*
X06665D02*
X0666086Y162841D01*
X0665235Y1628057D01*
X0664504Y1627496D01*
X0663943Y1626765D01*
X066359Y1625914D01*
X0663536Y16255D01*
X06665D01*
Y1628464D01*
D02*
G37*
G36*
X0670464Y16245D02*
X06675D01*
Y1621536D01*
X0667914Y162159D01*
X0668765Y1621943D01*
X0669496Y1622504D01*
X0670057Y1623235D01*
X067041Y1624086D01*
X0670464Y16245D01*
D02*
G37*
G36*
X06665D02*
X0663536D01*
X066359Y1624086D01*
X0663943Y1623235D01*
X0664504Y1622504D01*
X0665235Y1621943D01*
X0666086Y162159D01*
X06665Y1621536D01*
Y16245D01*
D02*
G37*
G36*
X0588Y1621464D02*
Y16185D01*
X0590964D01*
X059091Y1618914D01*
X0590557Y1619765D01*
X0589996Y1620496D01*
X0589265Y1621057D01*
X0588414Y162141D01*
X0588Y1621464D01*
D02*
G37*
G36*
X0587D02*
X0586586Y162141D01*
X0585735Y1621057D01*
X0585004Y1620496D01*
X0584443Y1619765D01*
X058409Y1618914D01*
X0584036Y16185D01*
X0587D01*
Y1621464D01*
D02*
G37*
G36*
X0590964Y16175D02*
X0588D01*
Y1614536D01*
X0588414Y161459D01*
X0589265Y1614943D01*
X0589996Y1615504D01*
X0590557Y1616235D01*
X059091Y1617086D01*
X0590964Y16175D01*
D02*
G37*
G36*
X0587D02*
X0584036D01*
X058409Y1617086D01*
X0584443Y1616235D01*
X0585004Y1615504D01*
X0585735Y1614943D01*
X0586586Y161459D01*
X0587Y1614536D01*
Y16175D01*
D02*
G37*
G36*
X0837Y1630822D02*
X0836191Y1630716D01*
X0835437Y1630403D01*
X0834789Y1629907D01*
X0834292Y1629259D01*
X083398Y1628505D01*
X0833873Y1627696D01*
X083398Y1626886D01*
X0834292Y1626132D01*
X0834789Y1625485D01*
X0835225Y162515D01*
X0835245Y1625109D01*
Y1624587D01*
X0835225Y1624546D01*
X0834789Y1624211D01*
X0834292Y1623563D01*
X083398Y1622809D01*
X0833873Y1622D01*
X083398Y1621191D01*
X0834292Y1620437D01*
X0834789Y1619789D01*
X0835437Y1619292D01*
X0836116Y1619011D01*
X0836156Y161875D01*
X0836116Y1618489D01*
X0835437Y1618208D01*
X0834789Y1617711D01*
X0834292Y1617063D01*
X083398Y1616309D01*
X0833873Y16155D01*
X083398Y1614691D01*
X0834292Y1613937D01*
X0834789Y1613289D01*
X0835437Y1612792D01*
X0836191Y161248D01*
X0837Y1612373D01*
X0837809Y161248D01*
X0838563Y1612792D01*
X0839211Y1613289D01*
X0839708Y1613937D01*
X084002Y1614691D01*
X0840127Y16155D01*
X084002Y1616309D01*
X0839708Y1617063D01*
X0839211Y1617711D01*
X0838563Y1618208D01*
X0837884Y1618489D01*
X0837844Y161875D01*
X0837884Y1619011D01*
X0838563Y1619292D01*
X0839211Y1619789D01*
X0839708Y1620437D01*
X084002Y1621191D01*
X0840127Y1622D01*
X084002Y1622809D01*
X0839708Y1623563D01*
X0839211Y1624211D01*
X0838775Y1624546D01*
X0838755Y1624587D01*
Y1625109D01*
X0838775Y162515D01*
X0839211Y1625485D01*
X0839708Y1626132D01*
X084002Y1626886D01*
X0840127Y1627696D01*
X084002Y1628505D01*
X0839708Y1629259D01*
X0839211Y1629907D01*
X0838563Y1630403D01*
X0837809Y1630716D01*
X0837Y1630822D01*
D02*
G37*
G36*
X0634Y1631133D02*
X0632337Y1631002D01*
X0630714Y1630612D01*
X0629173Y1629974D01*
X062775Y1629102D01*
X0626481Y1628019D01*
X0625398Y162675D01*
X0624526Y1625327D01*
X0623888Y1623786D01*
X0623498Y1622163D01*
X0623367Y16205D01*
X0623498Y1618837D01*
X0623888Y1617214D01*
X0624526Y1615673D01*
X0625398Y161425D01*
X0626481Y1612981D01*
X062775Y1611898D01*
X0629173Y1611026D01*
X0630714Y1610388D01*
X0632337Y1609998D01*
X0634Y1609867D01*
X0635663Y1609998D01*
X0637286Y1610388D01*
X0638827Y1611026D01*
X064025Y1611898D01*
X0641518Y1612981D01*
X0642602Y161425D01*
X0643474Y1615673D01*
X0644112Y1617214D01*
X0644502Y1618837D01*
X0644633Y16205D01*
X0644502Y1622163D01*
X0644112Y1623786D01*
X0643474Y1625327D01*
X0642602Y162675D01*
X0641518Y1628019D01*
X064025Y1629102D01*
X0638827Y1629974D01*
X0637286Y1630612D01*
X0635663Y1631002D01*
X0634Y1631133D01*
D02*
G37*
G36*
X0837Y1611427D02*
X0836191Y161132D01*
X0835437Y1611008D01*
X0834789Y1610511D01*
X0834292Y1609863D01*
X083398Y1609109D01*
X0833873Y16083D01*
X083398Y1607491D01*
X0834292Y1606737D01*
X0834789Y1606089D01*
X0835304Y1605694D01*
X0835346Y160554D01*
Y160526D01*
X0835304Y1605106D01*
X0834789Y1604711D01*
X0834292Y1604063D01*
X083398Y1603309D01*
X0833873Y16025D01*
X083398Y1601691D01*
X0834292Y1600937D01*
X0834789Y1600289D01*
X0835437Y1599792D01*
X0836116Y1599511D01*
X0836156Y159925D01*
X0836116Y1598989D01*
X0835437Y1598708D01*
X0834789Y1598211D01*
X0834292Y1597563D01*
X083398Y1596809D01*
X0833873Y1596D01*
X083398Y1595191D01*
X0834292Y1594437D01*
X0834789Y1593789D01*
X0835437Y1593292D01*
X0836191Y159298D01*
X0837Y1592873D01*
X0837809Y159298D01*
X0838563Y1593292D01*
X0839211Y1593789D01*
X0839708Y1594437D01*
X084002Y1595191D01*
X0840127Y1596D01*
X084002Y1596809D01*
X0839708Y1597563D01*
X0839211Y1598211D01*
X0838563Y1598708D01*
X0837884Y1598989D01*
X0837844Y159925D01*
X0837884Y1599511D01*
X0838563Y1599792D01*
X0839211Y1600289D01*
X0839708Y1600937D01*
X084002Y1601691D01*
X0840127Y16025D01*
X084002Y1603309D01*
X0839708Y1604063D01*
X0839211Y1604711D01*
X0838696Y1605106D01*
D01*
X0838654Y160526D01*
D01*
Y160554D01*
X0838696Y1605694D01*
X0839211Y1606089D01*
X0839708Y1606737D01*
X084002Y1607491D01*
X0840127Y16083D01*
X084002Y1609109D01*
X0839708Y1609863D01*
X0839211Y1610511D01*
X0838563Y1611008D01*
X0837809Y161132D01*
X0837Y1611427D01*
D02*
G37*
G36*
X0601Y1596127D02*
X0600191Y159602D01*
X0599437Y1595708D01*
X0598789Y1595211D01*
X0598292Y1594563D01*
X059798Y1593809D01*
X0597873Y1593D01*
X059798Y1592191D01*
X0598292Y1591437D01*
X0598789Y1590789D01*
X0599437Y1590292D01*
X0600191Y158998D01*
X0601Y1589873D01*
X0601809Y158998D01*
X0602563Y1590292D01*
X0603211Y1590789D01*
X0603708Y1591437D01*
X060402Y1592191D01*
X0604127Y1593D01*
X060402Y1593809D01*
X0603708Y1594563D01*
X0603211Y1595211D01*
X0602563Y1595708D01*
X0601809Y159602D01*
X0601Y1596127D01*
D02*
G37*
G36*
X0714Y1595127D02*
X0713191Y159502D01*
X0712437Y1594708D01*
X0711789Y1594211D01*
X0711292Y1593563D01*
X071098Y1592809D01*
X0710873Y1592D01*
X071098Y1591191D01*
X0711292Y1590437D01*
X0711789Y1589789D01*
X0712437Y1589292D01*
X0713191Y158898D01*
X0714Y1588873D01*
X0714809Y158898D01*
X0715563Y1589292D01*
X0716211Y1589789D01*
X0716708Y1590437D01*
X071702Y1591191D01*
X0717127Y1592D01*
X071702Y1592809D01*
X0716708Y1593563D01*
X0716211Y1594211D01*
X0715563Y1594708D01*
X0714809Y159502D01*
X0714Y1595127D01*
D02*
G37*
G36*
X07625Y1590627D02*
X0761691Y159052D01*
X0760937Y1590208D01*
X0760289Y1589711D01*
X0759792Y1589063D01*
X075948Y1588309D01*
X0759373Y15875D01*
X075948Y1586691D01*
X0759792Y1585937D01*
X0760289Y1585289D01*
X0760937Y1584792D01*
X0761691Y158448D01*
X07625Y1584373D01*
X0763309Y158448D01*
X0764063Y1584792D01*
X0764711Y1585289D01*
X0765208Y1585937D01*
X076552Y1586691D01*
X0765627Y15875D01*
X076552Y1588309D01*
X0765208Y1589063D01*
X0764711Y1589711D01*
X0764063Y1590208D01*
X0763309Y159052D01*
X07625Y1590627D01*
D02*
G37*
G36*
X06865Y1585464D02*
Y15825D01*
X0689464D01*
X068941Y1582914D01*
X0689057Y1583765D01*
X0688496Y1584496D01*
X0687765Y1585057D01*
X0686914Y158541D01*
X06865Y1585464D01*
D02*
G37*
G36*
X06855D02*
X0685086Y158541D01*
X0684235Y1585057D01*
X0683504Y1584496D01*
X0682943Y1583765D01*
X068259Y1582914D01*
X0682536Y15825D01*
X06855D01*
Y1585464D01*
D02*
G37*
G36*
X0572D02*
Y15825D01*
X0574964D01*
X057491Y1582914D01*
X0574557Y1583765D01*
X0573996Y1584496D01*
X0573265Y1585057D01*
X0572414Y158541D01*
X0572Y1585464D01*
D02*
G37*
G36*
X0571D02*
X0570586Y158541D01*
X0569735Y1585057D01*
X0569004Y1584496D01*
X0568443Y1583765D01*
X056809Y1582914D01*
X0568036Y15825D01*
X0571D01*
Y1585464D01*
D02*
G37*
G36*
X0513657Y1585882D02*
Y15795D01*
X0518137D01*
Y1580968D01*
X0517967Y1582257D01*
X051747Y1583458D01*
X0516678Y158449D01*
X0515647Y1585281D01*
X0514446Y1585778D01*
X0513657Y1585882D01*
D02*
G37*
G36*
X0512657D02*
X0511869Y1585778D01*
X0510668Y1585281D01*
X0509636Y158449D01*
X0508845Y1583458D01*
X0508348Y1582257D01*
X0508178Y1580968D01*
Y15795D01*
X0512657D01*
Y1585882D01*
D02*
G37*
G36*
X0714Y1585627D02*
X0713191Y158552D01*
X0712437Y1585208D01*
X0711789Y1584711D01*
X0711292Y1584063D01*
X071098Y1583309D01*
X0710873Y15825D01*
X071098Y1581691D01*
X0711292Y1580937D01*
X0711789Y1580289D01*
X0712437Y1579792D01*
X0713191Y157948D01*
X0714Y1579373D01*
X0714809Y157948D01*
X0715563Y1579792D01*
X0716211Y1580289D01*
X0716708Y1580937D01*
X071702Y1581691D01*
X0717127Y15825D01*
X071702Y1583309D01*
X0716708Y1584063D01*
X0716211Y1584711D01*
X0715563Y1585208D01*
X0714809Y158552D01*
X0714Y1585627D01*
D02*
G37*
G36*
X0574964Y15815D02*
X0572D01*
Y1578536D01*
X0572414Y157859D01*
X0573265Y1578943D01*
X0573996Y1579504D01*
X0574557Y1580235D01*
X057491Y1581086D01*
X0574964Y15815D01*
D02*
G37*
G36*
X0571D02*
X0568036D01*
X056809Y1581086D01*
X0568443Y1580235D01*
X0569004Y1579504D01*
X0569735Y1578943D01*
X0570586Y157859D01*
X0571Y1578536D01*
Y15815D01*
D02*
G37*
G36*
X10235Y1576921D02*
Y15735D01*
X1026921D01*
X1026851Y1574032D01*
X1026453Y1574993D01*
X1025819Y1575819D01*
X1024993Y1576453D01*
X1024032Y1576851D01*
X10235Y1576921D01*
D02*
G37*
G36*
X10225D02*
X1021968Y1576851D01*
X1021007Y1576453D01*
X1020181Y1575819D01*
X1019547Y1574993D01*
X1019149Y1574032D01*
X1019079Y15735D01*
X10225D01*
Y1576921D01*
D02*
G37*
G36*
X1091Y1576421D02*
Y1573D01*
X1094421D01*
X1094351Y1573532D01*
X1093953Y1574493D01*
X1093319Y1575319D01*
X1092493Y1575953D01*
X1091532Y1576351D01*
X1091Y1576421D01*
D02*
G37*
G36*
X109D02*
X1089468Y1576351D01*
X1088507Y1575953D01*
X1087681Y1575319D01*
X1087047Y1574493D01*
X1086649Y1573532D01*
X1086579Y1573D01*
X109D01*
Y1576421D01*
D02*
G37*
G36*
X0532843Y1585545D02*
X0531658Y1585389D01*
X0530554Y1584932D01*
X0529607Y1584204D01*
X0528879Y1583257D01*
X0528422Y1582153D01*
X0528266Y1580968D01*
Y1577032D01*
X0528422Y1575847D01*
X0528879Y1574743D01*
X0529607Y1573796D01*
X0530554Y1573068D01*
X0531658Y1572611D01*
X0532843Y1572455D01*
X0534027Y1572611D01*
X0535131Y1573068D01*
X0536078Y1573796D01*
X0536806Y1574743D01*
X0537263Y1575847D01*
X0537419Y1577032D01*
Y1580968D01*
X0537263Y1582153D01*
X0536806Y1583257D01*
X0536078Y1584204D01*
X0535131Y1584932D01*
X0534027Y1585389D01*
X0532843Y1585545D01*
D02*
G37*
G36*
X0518137Y15785D02*
X0513657D01*
Y1572118D01*
X0514446Y1572222D01*
X0515647Y1572719D01*
X0516678Y157351D01*
X051747Y1574542D01*
X0517967Y1575743D01*
X0518137Y1577032D01*
Y15785D01*
D02*
G37*
G36*
X0512657D02*
X0508178D01*
Y1577032D01*
X0508348Y1575743D01*
X0508845Y1574542D01*
X0509636Y157351D01*
X0510668Y1572719D01*
X0511869Y1572222D01*
X0512657Y1572118D01*
Y15785D01*
D02*
G37*
G36*
X0714Y1576127D02*
X0713191Y157602D01*
X0712437Y1575708D01*
X0711789Y1575211D01*
X0711292Y1574563D01*
X071098Y1573809D01*
X0710873Y1573D01*
X071098Y1572191D01*
X0711292Y1571437D01*
X0711789Y1570789D01*
X0712437Y1570292D01*
X0713191Y156998D01*
X0714Y1569873D01*
X0714809Y156998D01*
X0715563Y1570292D01*
X0716211Y1570789D01*
X0716708Y1571437D01*
X071702Y1572191D01*
X0717127Y1573D01*
X071702Y1573809D01*
X0716708Y1574563D01*
X0716211Y1575211D01*
X0715563Y1575708D01*
X0714809Y157602D01*
X0714Y1576127D01*
D02*
G37*
G36*
X1016553Y1576553D02*
X1009447D01*
Y1569447D01*
X1016553D01*
Y1576553D01*
D02*
G37*
G36*
X0791Y1572212D02*
Y1569248D01*
X0793964D01*
X079391Y1569662D01*
X0793557Y1570513D01*
X0792996Y1571244D01*
X0792265Y1571805D01*
X0791414Y1572158D01*
X0791Y1572212D01*
D02*
G37*
G36*
X1026921Y15725D02*
X10235D01*
Y1569079D01*
X1024032Y1569149D01*
X1024993Y1569547D01*
X1025819Y1570181D01*
X1026453Y1571007D01*
X1026851Y1571968D01*
X1026921Y15725D01*
D02*
G37*
G36*
X10225D02*
X1019079D01*
X1019149Y1571968D01*
X1019547Y1571007D01*
X1020181Y1570181D01*
X1021007Y1569547D01*
X1021968Y1569149D01*
X10225Y1569079D01*
Y15725D01*
D02*
G37*
G36*
X10805Y1576083D02*
X1079573Y1575961D01*
X1078708Y1575603D01*
X1077966Y1575034D01*
X1077397Y1574292D01*
X1077039Y1573427D01*
X1076917Y15725D01*
X1077039Y1571573D01*
X1077397Y1570708D01*
X1077966Y1569966D01*
X1078708Y1569397D01*
X1079573Y1569039D01*
X10805Y1568917D01*
X1081427Y1569039D01*
X1082292Y1569397D01*
X1083034Y1569966D01*
X1083603Y1570708D01*
X1083961Y1571573D01*
X1084083Y15725D01*
X1083961Y1573427D01*
X1083603Y1574292D01*
X1083034Y1575034D01*
X1082292Y1575603D01*
X1081427Y1575961D01*
X10805Y1576083D01*
D02*
G37*
G36*
X1094421Y1572D02*
X1091D01*
Y1568579D01*
X1091532Y1568649D01*
X1092493Y1569047D01*
X1093319Y1569681D01*
X1093953Y1570507D01*
X1094351Y1571468D01*
X1094421Y1572D01*
D02*
G37*
G36*
X109D02*
X1086579D01*
X1086649Y1571468D01*
X1087047Y1570507D01*
X1087681Y1569681D01*
X1088507Y1569047D01*
X1089468Y1568649D01*
X109Y1568579D01*
Y1572D01*
D02*
G37*
%LPD*%
D10*
X0990106Y1658583D02*
X0989306Y1658028D01*
X0988661Y1657297D01*
X0988209Y1656434D01*
X0987977Y1655487D01*
Y1654513D01*
X0988209Y1653566D01*
X0988661Y1652703D01*
X0989306Y1651972D01*
X0990106Y1651417D01*
X0990207Y1651316D02*
X0990207Y1651316D01*
X0990106Y1648583D02*
X0989306Y1648028D01*
X0988661Y1647297D01*
X0988209Y1646434D01*
X0987977Y1645487D01*
Y1644513D01*
X0988209Y1643566D01*
X0988661Y1642703D01*
X0989306Y1641972D01*
X0990106Y1641417D01*
X0990207Y1641316D02*
X0990207Y1641316D01*
X0990207Y1658684D02*
X0990207Y1658684D01*
X0990207Y1648684D02*
X0990207Y1648684D01*
X0868755Y1722572D02*
X0869456Y1721845D01*
X0870316Y1721314D01*
X087128Y1721012D01*
X0872289Y1720958D01*
X0873279Y1721155D01*
X0874191Y172159D01*
X0874966Y1722238D01*
X0875557Y1723058D01*
X0875927Y1723998D01*
X0876053Y1725D01*
X0817Y1653348D02*
Y1654652D01*
X0868707Y172262D02*
X0868707Y172262D01*
X0867293D02*
X0867293Y172262D01*
X0868Y1722913D02*
X0868D01*
X0859975Y1741047D02*
X0859002Y1740868D01*
X0859975Y1741047D02*
X0860932Y1740821D01*
X0861916Y1740796D01*
X0862883Y1740973D01*
X0863793Y1741346D01*
X0864608Y1741898D01*
X0865346Y1742713D01*
X0865838Y1743698D01*
X0866047Y1744778D01*
X0862222Y1780953D02*
X0863191Y1781126D01*
X086409Y1781528D01*
X0864866Y1782134D01*
X0865472Y178291D01*
X0865874Y1783809D01*
X0866047Y1784778D01*
X0872222Y1750953D02*
X0873143Y1751112D01*
X0874004Y1751477D01*
X0874758Y1752031D01*
X0875365Y1752742D01*
X0875793Y1753573D01*
X0876019Y1754481D01*
X0876246Y1754707D02*
X0876246Y1754707D01*
X099879Y1652526D02*
X0998606Y1652709D01*
X099879Y1652526D02*
X0999484Y1651823D01*
X1000327Y1651309D01*
X1001269Y1651014D01*
X1002255Y1650955D01*
X1003226Y1651137D01*
X1004124Y1651548D01*
X1004896Y1652164D01*
X1005495Y1652949D01*
X1005888Y1653855D01*
Y1653855D02*
X1006053Y1655D01*
X0957Y16365D02*
X09585Y1635D01*
X09625D01*
X0990106Y1651417D02*
X0990207Y1651316D01*
X0990207Y1651316D02*
X09905Y1651023D01*
Y1648977D02*
Y1651023D01*
X0990207Y1648684D02*
X09905Y1648977D01*
X0862Y1569D02*
X0989914D01*
X0990207Y1658684D02*
X09905Y1658977D01*
X0990106Y1641417D02*
X0990207Y1641316D01*
X09905Y1569586D02*
Y1641023D01*
X0990207Y1569293D02*
X09905Y1569586D01*
X0989914Y1569D02*
X0990207Y1569293D01*
Y1681786D02*
X09905Y1681493D01*
X0990106Y1648583D02*
X0990207Y1648684D01*
X09905Y1658977D02*
Y1681493D01*
X0987Y1684993D02*
X0990207Y1681786D01*
X0990106Y1658583D02*
X0990207Y1658684D01*
X0990207Y1641316D02*
X09905Y1641023D01*
X0997013Y1563586D02*
Y1652006D01*
X0997717Y165271D01*
X0997598Y1563D02*
X1069914D01*
X0997013Y1563586D02*
X0997598Y1563D01*
X0928Y1588D02*
X0977Y1637D01*
X0862Y1588D02*
X0928D01*
X0977Y1637D02*
Y1674954D01*
X0867Y1722327D02*
X0867293Y172262D01*
X0867293Y172262D02*
X0867586Y1722913D01*
X0868707Y172262D02*
X0868755Y1722572D01*
X0686586Y15595D02*
X0789914D01*
X0686Y1560086D02*
X0686586Y15595D01*
X0686Y1560086D02*
Y1582D01*
X0789914Y15595D02*
X07905Y1560086D01*
X0783Y15635D02*
X0783343Y1563843D01*
X0786314D01*
X07869Y1564428D01*
X07905Y1560086D02*
Y1568748D01*
X07869Y1564428D02*
Y1582091D01*
X0783Y1573D02*
Y1585D01*
X08005Y15906D02*
X0801265Y1591365D01*
X0803865D01*
X07869Y1582091D02*
X0821Y1616191D01*
X0783Y1585D02*
X0817Y1619D01*
X0651Y1833D02*
X0654Y1836D01*
X07715Y1775D02*
X0777414D01*
X0778Y1775586D01*
Y1835414D01*
X0777414Y1836D02*
X0778Y1835414D01*
X0654Y1836D02*
X0777414D01*
X07906Y18664D02*
X0820461Y1836539D01*
X07721Y18664D02*
X07906D01*
X07615Y1877D02*
X07721Y18664D01*
X07725Y1877D02*
X08225D01*
X0823Y1587D02*
Y16025D01*
X0803865Y1591365D02*
X0825Y16125D01*
X0823Y16025D02*
X08285Y1608D01*
X0817Y1619D02*
Y1653348D01*
X08285Y1608D02*
Y1698D01*
X0825Y16125D02*
Y1706866D01*
X0821Y1616191D02*
Y1739731D01*
X0817Y1654652D02*
Y1750539D01*
X08285Y1698D02*
X08605Y173D01*
X0825Y1706866D02*
X0859002Y1740868D01*
X0867293Y1649707D02*
X0872Y1645D01*
X0867Y165D02*
X0867293Y1649707D01*
X0867Y165D02*
Y1722327D01*
X0868414Y1722913D02*
X0868707Y172262D01*
X0868Y1722913D02*
X0868414D01*
X0867586D02*
X0868D01*
X0876053Y1725D02*
X094D01*
X08605Y173D02*
X0872732D01*
X0866047Y1744778D02*
X0872222Y1750953D01*
X0817Y1750539D02*
X0817053Y1750592D01*
Y1757408D01*
X0817Y1757461D02*
X0817053Y1757408D01*
X0817Y1757461D02*
Y176D01*
X0821Y1739731D02*
X0862222Y1780953D01*
X0817Y176D02*
X0862Y1805D01*
X0866047Y1784778D02*
X0866084Y1784816D01*
X0871816D01*
X0862Y1785D02*
Y1786D01*
X086648Y179048D01*
X0875894D01*
X0862Y1795D02*
X0867Y18D01*
Y1826D01*
X0856461Y1836539D02*
X0867Y1826D01*
X0820461Y1836539D02*
X0856461D01*
X08225Y1877D02*
X0872Y18275D01*
X0862Y18775D02*
X0875894D01*
X0872732Y173D02*
X0902Y1759269D01*
X0876019Y1754481D02*
X0876246Y1754707D01*
X0876246Y1754707D02*
X0876539Y1755D01*
X0876539D01*
X0897Y1775461D01*
X0902Y1759269D02*
Y1795D01*
X0871816Y1784816D02*
X0872Y1785D01*
X0897Y1775461D02*
Y1799414D01*
X0875894Y179048D02*
X087648Y1791065D01*
X0897Y1799414D02*
X0897586Y18D01*
X0911414D02*
X0912Y1799414D01*
X0897586Y18D02*
X0911414D01*
X0872Y1805D02*
Y18275D01*
X087648Y1791065D02*
Y1876914D01*
X0875894Y18775D02*
X087648Y1876914D01*
X0957Y16365D02*
Y1659D01*
X0997717Y165271D02*
X0998555D01*
X0998606Y1652709D01*
X1006347Y1642659D02*
Y1647341D01*
X1007947Y1643321D02*
Y1646679D01*
X1006347Y1647341D02*
X1009659Y1650653D01*
X1007947Y1646679D02*
X1010321Y1649053D01*
X1009659Y1650653D02*
X1013384D01*
X0912Y1795D02*
Y1799414D01*
X094Y1676D02*
Y17165D01*
Y1676D02*
X0957Y1659D01*
X1006053Y1655D02*
X1012D01*
X0997Y1736471D02*
X1016053Y1717418D01*
X0997Y1736471D02*
Y18D01*
X1002Y1795D02*
X1017653Y1779347D01*
X0997Y18D02*
X1002Y1805D01*
X1013384Y1650653D02*
X1016053Y1653321D01*
Y1717418D01*
X1017653Y1652659D02*
Y1779347D01*
X1018204Y1650947D02*
X1023679D01*
X1006347Y1642659D02*
X1024606Y16244D01*
X1007947Y1643321D02*
X1025269Y1626D01*
X1014047Y1649053D02*
X1017653Y1652659D01*
X1010321Y1649053D02*
X1014047D01*
X1012257Y1645D02*
X1018204Y1650947D01*
X1012Y1645D02*
X1012257D01*
X1069914Y1563D02*
X10705Y1563586D01*
Y15725D01*
X1033Y1573D02*
Y1623814D01*
X1043Y1573D02*
Y1625414D01*
X1032414Y16244D02*
X1033Y1623814D01*
X1024606Y16244D02*
X1032414D01*
X1042414Y1626D02*
X1043Y1625414D01*
X1025269Y1626D02*
X1042414D01*
X1023679Y1650947D02*
X1026053Y1653321D01*
Y1686644D01*
X1110643Y1771235D01*
X1112735D01*
X11135Y1772D01*
X063Y17195D02*
Y1719691D01*
D48*
X0863411Y1991625D02*
X0863353Y1992598D01*
X0863207Y1993563D01*
X0862972Y1994509D01*
X086265Y199543D01*
X0862245Y1996317D01*
X086176Y1997163D01*
X0861199Y199796D01*
X0860567Y1998703D01*
X0859869Y1999384D01*
X0859111Y1999997D01*
X08583Y2000538D01*
X0857442Y2001002D01*
X0856545Y2001385D01*
X0855616Y2001683D01*
X0854664Y2001895D01*
X0853697Y2002018D01*
X0852722Y200205D01*
X0755765Y2002011D02*
X0754791Y2001954D01*
X0753827Y2001807D01*
X075288Y2001572D01*
X075196Y200125D01*
X0751072Y2000845D01*
X0750226Y200036D01*
X0749429Y1999799D01*
X0748686Y1999167D01*
X0748005Y1998468D01*
X0747391Y199771D01*
X074685Y1996899D01*
X0746386Y1996041D01*
X0746003Y1995144D01*
X0745705Y1994215D01*
X0745494Y1993263D01*
X0745371Y1992296D01*
X0745338Y1991321D01*
X086342Y189589D02*
X0863459Y1894908D01*
X0863574Y1893933D01*
X0863766Y1892969D01*
X0864032Y1892024D01*
X0864373Y1891102D01*
X0864784Y189021D01*
X0865264Y1889353D01*
X086581Y1888536D01*
X0866418Y1887765D01*
X0867085Y1887043D01*
X0867806Y1886376D01*
X0868577Y1885768D01*
X0869394Y1885222D01*
X0870251Y1884742D01*
X0871143Y1884331D01*
X0872065Y1883991D01*
X087301Y1883725D01*
X0873974Y1883533D01*
X0874949Y1883417D01*
X0875931Y1883379D01*
X0733121D02*
X073414Y1883434D01*
X0735152Y1883574D01*
X0736148Y1883796D01*
X0737122Y18841D01*
X0738068Y1884484D01*
X073898Y1884944D01*
X073985Y1885478D01*
X0740673Y1886082D01*
X0741443Y1886752D01*
X0742155Y1887483D01*
X0742805Y188827D01*
X0743387Y1889109D01*
X0743898Y1889992D01*
X0744335Y1890915D01*
X0744693Y1891871D01*
X0744972Y1892853D01*
X0745168Y1893855D01*
X0745281Y1894869D01*
X074531Y189589D01*
X0745338Y1895918D02*
Y1991321D01*
X0863411Y1895899D02*
Y1991625D01*
X0863411Y1991625D02*
X0863411Y1991625D01*
X0847523Y2002011D02*
X0852722Y200205D01*
X0755765Y2002011D02*
X0847523D01*
X0875931Y1883379D02*
X1105251D01*
X0503479D02*
X0733121D01*
D49*
X0477862Y1583292D02*
X0477882Y1582287D01*
X0477941Y1581285D01*
X047804Y1580285D01*
X0478177Y157929D01*
X0478354Y1578301D01*
X0478569Y157732D01*
X0478823Y1576348D01*
X0479114Y1575387D01*
X0479443Y1574438D01*
X0479809Y1573503D01*
X0480212Y1572583D01*
X048065Y1571679D01*
X0481123Y1570793D01*
X0481631Y1569927D01*
X0482173Y1569081D01*
X0482747Y1568257D01*
X0483353Y1567456D01*
X0483991Y156668D01*
X0484658Y1565929D01*
X0485354Y1565205D01*
X0486078Y1564509D01*
X0486829Y1563842D01*
X0487605Y1563204D01*
X0488406Y1562598D01*
X048923Y1562024D01*
X0490076Y1561482D01*
X0490942Y1560975D01*
X0491828Y1560501D01*
X0492732Y1560063D01*
X0493652Y155966D01*
X0494587Y1559294D01*
X0495536Y1558965D01*
X0496497Y1558673D01*
X0497469Y155842D01*
X049845Y1558205D01*
X0499439Y1558028D01*
X0500434Y1557891D01*
X0501434Y1557792D01*
X0502436Y1557733D01*
X0503441Y1557713D01*
X1130829Y1857801D02*
X1130809Y1858805D01*
X113075Y1859807D01*
X1130652Y1860807D01*
X1130514Y1861802D01*
X1130338Y1862791D01*
X1130122Y1863772D01*
X1129869Y1864744D01*
X1129577Y1865705D01*
X1129248Y1866654D01*
X1128882Y1867589D01*
X112848Y1868509D01*
X1128041Y1869413D01*
X1127568Y1870299D01*
X112706Y1871165D01*
X1126519Y1872011D01*
X1125944Y1872835D01*
X1125338Y1873636D01*
X1124701Y1874412D01*
X1124034Y1875163D01*
X1123337Y1875887D01*
X1122614Y1876583D01*
X1121863Y187725D01*
X1121086Y1877888D01*
X1120285Y1878494D01*
X1119461Y1879068D01*
X1118616Y187961D01*
X1117749Y1880117D01*
X1116863Y1880591D01*
X1115959Y1881029D01*
X1115039Y1881432D01*
X1114104Y1881798D01*
X1113155Y1882127D01*
X1112194Y1882418D01*
X1111222Y1882672D01*
X1110241Y1882887D01*
X1109252Y1883064D01*
X1108257Y1883202D01*
X1107258Y18833D01*
X1106255Y1883359D01*
X1105251Y1883379D01*
X1105917Y1557713D02*
X1106914Y155782D01*
X1107908Y1557964D01*
X1108895Y1558143D01*
X1109875Y1558359D01*
X1110846Y1558611D01*
X1111808Y1558898D01*
X1112758Y155922D01*
X1113696Y1559577D01*
X111462Y1559968D01*
X1115529Y1560393D01*
X1116422Y156085D01*
X1117298Y156134D01*
X1118155Y1561862D01*
X1118992Y1562415D01*
X1119809Y1562999D01*
X1120603Y1563611D01*
X1121375Y1564253D01*
X1122123Y1564923D01*
X1122845Y1565619D01*
X1123542Y1566341D01*
X1124211Y1567089D01*
X1124852Y156786D01*
X1125465Y1568655D01*
X1126049Y1569471D01*
X1126602Y1570309D01*
X1127124Y1571166D01*
X1127614Y1572042D01*
X1128071Y1572935D01*
X1128496Y1573844D01*
X1128887Y1574768D01*
X1129244Y1575706D01*
X1129566Y1576656D01*
X1129853Y1577618D01*
X1130105Y1578589D01*
X1130321Y1579569D01*
X1130501Y1580556D01*
X1130644Y1581549D01*
X1130751Y1582547D01*
X0503441Y188334D02*
X0502436Y188332D01*
X0501434Y1883261D01*
X0500434Y1883163D01*
X0499439Y1883025D01*
X049845Y1882848D01*
X0497469Y1882633D01*
X0496497Y188238D01*
X0495536Y1882088D01*
X0494587Y1881759D01*
X0493652Y1881393D01*
X0492732Y188099D01*
X0491828Y1880552D01*
X0490942Y1880079D01*
X0490076Y1879571D01*
X048923Y1879029D01*
X0488406Y1878455D01*
X0487605Y1877849D01*
X0486829Y1877212D01*
X0486078Y1876544D01*
X0485354Y1875848D01*
X0484658Y1875124D01*
X0483991Y1874373D01*
X0483353Y1873597D01*
X0482747Y1872796D01*
X0482173Y1871972D01*
X0481631Y1871126D01*
X0481123Y187026D01*
X048065Y1869374D01*
X0480212Y186847D01*
X0479809Y186755D01*
X0479443Y1866615D01*
X0479114Y1865666D01*
X0478823Y1864705D01*
X0478569Y1863733D01*
X0478354Y1862752D01*
X0478177Y1861763D01*
X047804Y1860768D01*
X0477941Y1859768D01*
X0477882Y1858766D01*
X0477862Y1857762D01*
X1130751Y1582548D02*
X1130829Y1582626D01*
Y1857801D01*
X0477862Y1583292D02*
Y1857762D01*
X050344Y1557713D02*
X1105917D01*
D109*
X0782Y1843D02*
Y18628D01*
D115*
X0657Y1754D02*
D03*
X0687D02*
D03*
X0667Y1654D02*
D03*
X0783D02*
D03*
X0803Y1754D02*
D03*
X0773D02*
D03*
X06015Y18655D02*
D03*
X0687Y18045D02*
D03*
X0657D02*
D03*
X0773Y1805D02*
D03*
X0803D02*
D03*
X0862Y1785D02*
D03*
X0872D02*
D03*
X0862Y1805D02*
D03*
Y1795D02*
D03*
X0872Y1805D02*
D03*
X0902Y1795D02*
D03*
X0912D02*
D03*
X1002Y1805D02*
D03*
Y1795D02*
D03*
X1012Y1655D02*
D03*
Y1645D02*
D03*
X0872D02*
D03*
X0862D02*
D03*
X10105Y18685D02*
D03*
X1043Y1573D02*
D03*
X1033D02*
D03*
X1023D02*
D03*
X10905Y15725D02*
D03*
D116*
X10705D02*
D03*
D117*
X0513Y16395D02*
D03*
D119*
X0513157Y1579D02*
D03*
X0532343Y18635D02*
D03*
D122*
X1112Y1812D02*
D03*
X1102D02*
D03*
D124*
X09625Y1635D02*
D03*
X066Y1691D02*
D03*
X05715Y1582D02*
D03*
X05875Y1618D02*
D03*
X0783Y15635D02*
D03*
X07905Y1568748D02*
D03*
X0783Y1573D02*
D03*
X0686Y1582D02*
D03*
X08005Y15906D02*
D03*
X0667Y1625D02*
D03*
X07515Y16375D02*
D03*
X0796Y16785D02*
D03*
X068Y16915D02*
D03*
X0796Y17285D02*
D03*
X05685Y1813D02*
D03*
X05795Y18425D02*
D03*
X0651Y1833D02*
D03*
X07715Y1775D02*
D03*
X0782Y1843D02*
D03*
X0712Y1856D02*
D03*
X0782Y18628D02*
D03*
X07725Y1877D02*
D03*
X07615D02*
D03*
X0823Y1587D02*
D03*
X0862Y1588D02*
D03*
Y1569D02*
D03*
X0977Y1674954D02*
D03*
X0987Y1684993D02*
D03*
X0862Y18775D02*
D03*
X094Y17165D02*
D03*
Y1725D02*
D03*
X11135Y1772D02*
D03*
X1087Y18305D02*
D03*
M02*
