G04*
G04 #@! TF.GenerationSoftware,Altium Limited,Altium Designer,22.0.2 (36)*
G04*
G04 Layer_Color=8388736*
%FSTAX25Y25*%
%MOIN*%
G70*
G04*
G04 #@! TF.SameCoordinates,F14A6DB2-6BAA-43E7-8DF3-1F8C7E56E43F*
G04*
G04*
G04 #@! TF.FilePolarity,Positive*
G04*
G01*
G75*
%ADD10C,0.01000*%
%ADD12C,0.00787*%
%ADD48C,0.00098*%
%ADD49C,0.00100*%
%ADD127C,0.00394*%
%ADD128C,0.00197*%
D10*
X063Y17195D02*
Y1719691D01*
D12*
X0499319Y1629756D02*
Y167011D01*
Y1629756D02*
X0526681D01*
Y167011D01*
X0499319Y167011D02*
X0526681Y167011D01*
D48*
X0863411Y1991625D02*
X0863353Y1992598D01*
X0863207Y1993563D01*
X0862972Y1994509D01*
X086265Y199543D01*
X0862245Y1996317D01*
X086176Y1997163D01*
X0861199Y199796D01*
X0860567Y1998703D01*
X0859869Y1999384D01*
X0859111Y1999997D01*
X08583Y2000538D01*
X0857442Y2001002D01*
X0856545Y2001385D01*
X0855616Y2001683D01*
X0854664Y2001895D01*
X0853697Y2002018D01*
X0852722Y200205D01*
X0755765Y2002011D02*
X0754791Y2001954D01*
X0753827Y2001807D01*
X075288Y2001572D01*
X075196Y200125D01*
X0751072Y2000845D01*
X0750226Y200036D01*
X0749429Y1999799D01*
X0748686Y1999167D01*
X0748005Y1998468D01*
X0747391Y199771D01*
X074685Y1996899D01*
X0746386Y1996041D01*
X0746003Y1995144D01*
X0745705Y1994215D01*
X0745494Y1993263D01*
X0745371Y1992296D01*
X0745338Y1991321D01*
X086342Y189589D02*
X0863459Y1894908D01*
X0863574Y1893933D01*
X0863766Y1892969D01*
X0864032Y1892024D01*
X0864373Y1891102D01*
X0864784Y189021D01*
X0865264Y1889353D01*
X086581Y1888536D01*
X0866418Y1887765D01*
X0867085Y1887043D01*
X0867806Y1886376D01*
X0868577Y1885768D01*
X0869394Y1885222D01*
X0870251Y1884742D01*
X0871143Y1884331D01*
X0872065Y1883991D01*
X087301Y1883725D01*
X0873974Y1883533D01*
X0874949Y1883417D01*
X0875931Y1883379D01*
X0733121D02*
X073414Y1883434D01*
X0735152Y1883574D01*
X0736148Y1883796D01*
X0737122Y18841D01*
X0738068Y1884484D01*
X073898Y1884944D01*
X073985Y1885478D01*
X0740673Y1886082D01*
X0741443Y1886752D01*
X0742155Y1887483D01*
X0742805Y188827D01*
X0743387Y1889109D01*
X0743898Y1889992D01*
X0744335Y1890915D01*
X0744693Y1891871D01*
X0744972Y1892853D01*
X0745168Y1893855D01*
X0745281Y1894869D01*
X074531Y189589D01*
X0745338Y1895918D02*
Y1991321D01*
X0863411Y1895899D02*
Y1991625D01*
X0863411Y1991625D02*
X0863411Y1991625D01*
X0847523Y2002011D02*
X0852722Y200205D01*
X0755765Y2002011D02*
X0847523D01*
X0875931Y1883379D02*
X1105251D01*
X0503479D02*
X0733121D01*
D49*
X0477862Y1583292D02*
X0477882Y1582287D01*
X0477941Y1581285D01*
X047804Y1580285D01*
X0478177Y157929D01*
X0478354Y1578301D01*
X0478569Y157732D01*
X0478823Y1576348D01*
X0479114Y1575387D01*
X0479443Y1574438D01*
X0479809Y1573503D01*
X0480212Y1572583D01*
X048065Y1571679D01*
X0481123Y1570793D01*
X0481631Y1569927D01*
X0482173Y1569081D01*
X0482747Y1568257D01*
X0483353Y1567456D01*
X0483991Y156668D01*
X0484658Y1565929D01*
X0485354Y1565205D01*
X0486078Y1564509D01*
X0486829Y1563842D01*
X0487605Y1563204D01*
X0488406Y1562598D01*
X048923Y1562024D01*
X0490076Y1561482D01*
X0490942Y1560975D01*
X0491828Y1560501D01*
X0492732Y1560063D01*
X0493652Y155966D01*
X0494587Y1559294D01*
X0495536Y1558965D01*
X0496497Y1558673D01*
X0497469Y155842D01*
X049845Y1558205D01*
X0499439Y1558028D01*
X0500434Y1557891D01*
X0501434Y1557792D01*
X0502436Y1557733D01*
X0503441Y1557713D01*
X1130829Y1857801D02*
X1130809Y1858805D01*
X113075Y1859807D01*
X1130652Y1860807D01*
X1130514Y1861802D01*
X1130338Y1862791D01*
X1130122Y1863772D01*
X1129869Y1864744D01*
X1129577Y1865705D01*
X1129248Y1866654D01*
X1128882Y1867589D01*
X112848Y1868509D01*
X1128041Y1869413D01*
X1127568Y1870299D01*
X112706Y1871165D01*
X1126519Y1872011D01*
X1125944Y1872835D01*
X1125338Y1873636D01*
X1124701Y1874412D01*
X1124034Y1875163D01*
X1123337Y1875887D01*
X1122614Y1876583D01*
X1121863Y187725D01*
X1121086Y1877888D01*
X1120285Y1878494D01*
X1119461Y1879068D01*
X1118616Y187961D01*
X1117749Y1880117D01*
X1116863Y1880591D01*
X1115959Y1881029D01*
X1115039Y1881432D01*
X1114104Y1881798D01*
X1113155Y1882127D01*
X1112194Y1882418D01*
X1111222Y1882672D01*
X1110241Y1882887D01*
X1109252Y1883064D01*
X1108257Y1883202D01*
X1107258Y18833D01*
X1106255Y1883359D01*
X1105251Y1883379D01*
X1105917Y1557713D02*
X1106914Y155782D01*
X1107908Y1557964D01*
X1108895Y1558143D01*
X1109875Y1558359D01*
X1110846Y1558611D01*
X1111808Y1558898D01*
X1112758Y155922D01*
X1113696Y1559577D01*
X111462Y1559968D01*
X1115529Y1560393D01*
X1116422Y156085D01*
X1117298Y156134D01*
X1118155Y1561862D01*
X1118992Y1562415D01*
X1119809Y1562999D01*
X1120603Y1563611D01*
X1121375Y1564253D01*
X1122123Y1564923D01*
X1122845Y1565619D01*
X1123542Y1566341D01*
X1124211Y1567089D01*
X1124852Y156786D01*
X1125465Y1568655D01*
X1126049Y1569471D01*
X1126602Y1570309D01*
X1127124Y1571166D01*
X1127614Y1572042D01*
X1128071Y1572935D01*
X1128496Y1573844D01*
X1128887Y1574768D01*
X1129244Y1575706D01*
X1129566Y1576656D01*
X1129853Y1577618D01*
X1130105Y1578589D01*
X1130321Y1579569D01*
X1130501Y1580556D01*
X1130644Y1581549D01*
X1130751Y1582547D01*
X0503441Y188334D02*
X0502436Y188332D01*
X0501434Y1883261D01*
X0500434Y1883163D01*
X0499439Y1883025D01*
X049845Y1882848D01*
X0497469Y1882633D01*
X0496497Y188238D01*
X0495536Y1882088D01*
X0494587Y1881759D01*
X0493652Y1881393D01*
X0492732Y188099D01*
X0491828Y1880552D01*
X0490942Y1880079D01*
X0490076Y1879571D01*
X048923Y1879029D01*
X0488406Y1878455D01*
X0487605Y1877849D01*
X0486829Y1877212D01*
X0486078Y1876544D01*
X0485354Y1875848D01*
X0484658Y1875124D01*
X0483991Y1874373D01*
X0483353Y1873597D01*
X0482747Y1872796D01*
X0482173Y1871972D01*
X0481631Y1871126D01*
X0481123Y187026D01*
X048065Y1869374D01*
X0480212Y186847D01*
X0479809Y186755D01*
X0479443Y1866615D01*
X0479114Y1865666D01*
X0478823Y1864705D01*
X0478569Y1863733D01*
X0478354Y1862752D01*
X0478177Y1861763D01*
X047804Y1860768D01*
X0477941Y1859768D01*
X0477882Y1858766D01*
X0477862Y1857762D01*
X1130751Y1582548D02*
X1130829Y1582626D01*
Y1857801D01*
X0477862Y1583292D02*
Y1857762D01*
X050344Y1557713D02*
X1105917D01*
D127*
X1003398Y1733D02*
X1003371Y1733997D01*
X1003292Y1734992D01*
X1003161Y1735981D01*
X1002978Y1736962D01*
X1002743Y1737931D01*
X1002457Y1738887D01*
X1002122Y1739827D01*
X1001737Y1740747D01*
X1001304Y1741646D01*
X1000824Y1742521D01*
X1000299Y1743369D01*
X099973Y1744188D01*
X0999118Y1744976D01*
X0998466Y1745731D01*
X0997774Y174645D01*
X0997046Y1747132D01*
X0996282Y1747775D01*
X0995486Y1748376D01*
X099466Y1748934D01*
X0993804Y1749448D01*
X0992923Y1749916D01*
X0992019Y1750337D01*
X0991093Y175071D01*
X099015Y1751033D01*
X098919Y1751306D01*
X0988217Y1751528D01*
X0987234Y1751699D01*
X0986244Y1751817D01*
X0985248Y1751883D01*
X0984251Y1751896D01*
X0983254Y1751856D01*
X098226Y1751764D01*
X0981273Y175162D01*
X0980295Y1751424D01*
X0979328Y1751176D01*
X0978376Y1750878D01*
X0977441Y175053D01*
X0976526Y1750133D01*
X0975633Y1749688D01*
X0974765Y1749197D01*
X0973923Y1748661D01*
X0973112Y1748081D01*
X0972332Y1747459D01*
X0971585Y1746796D01*
X0970875Y1746095D01*
X0970203Y1745358D01*
X0969571Y1744586D01*
X096898Y1743782D01*
X0968433Y1742948D01*
X096793Y1742086D01*
X0967474Y1741199D01*
X0967065Y1740289D01*
X0966704Y1739359D01*
X0966394Y1738411D01*
X0966133Y1737448D01*
X0965924Y1736473D01*
X0965767Y1735487D01*
X0965662Y1734495D01*
X0965609Y1733499D01*
X0965609Y1732501D01*
X0965662Y1731505D01*
X0965767Y1730513D01*
X0965924Y1729528D01*
X0966133Y1728552D01*
X0966394Y1727589D01*
X0966704Y1726641D01*
X0967065Y1725711D01*
X0967474Y1724801D01*
X096793Y1723914D01*
X0968433Y1723052D01*
X096898Y1722218D01*
X0969571Y1721414D01*
X0970203Y1720642D01*
X0970875Y1719905D01*
X0971585Y1719204D01*
X0972332Y1718541D01*
X0973112Y1717919D01*
X0973923Y1717339D01*
X0974765Y1716803D01*
X0975633Y1716312D01*
X0976526Y1715867D01*
X0977441Y171547D01*
X0978376Y1715122D01*
X0979328Y1714824D01*
X0980295Y1714576D01*
X0981273Y171438D01*
X098226Y1714236D01*
X0983254Y1714144D01*
X0984251Y1714104D01*
X0985248Y1714117D01*
X0986244Y1714183D01*
X0987234Y1714301D01*
X0988217Y1714472D01*
X098919Y1714694D01*
X0990149Y1714967D01*
X0991093Y171529D01*
X0992019Y1715663D01*
X0992923Y1716084D01*
X0993804Y1716552D01*
X099466Y1717066D01*
X0995486Y1717624D01*
X0996282Y1718225D01*
X0997046Y1718868D01*
X0997774Y1719549D01*
X0998466Y1720269D01*
X0999118Y1721024D01*
X099973Y1721812D01*
X1000299Y1722631D01*
X1000824Y1723479D01*
X1001304Y1724354D01*
X1001737Y1725253D01*
X1002122Y1726173D01*
X1002457Y1727113D01*
X1002743Y1728069D01*
X1002978Y1729038D01*
X1003161Y1730019D01*
X1003292Y1731008D01*
X1003371Y1732003D01*
X1003398Y1733D01*
X0498925Y1760488D02*
X0527075D01*
X0498925Y1708717D02*
Y1760488D01*
Y1708717D02*
X0527075D01*
Y1760488D01*
X0503Y15905D02*
X0543D01*
X0503Y1561D02*
Y15905D01*
X0543Y1561D02*
Y15905D01*
X0503Y1561D02*
X0543D01*
X05025Y18815D02*
X05425D01*
X05025Y1852D02*
Y18815D01*
X05425Y1852D02*
Y18815D01*
X05025Y1852D02*
X05425D01*
X05965Y186048D02*
X06265D01*
Y18705D01*
X05965D02*
X06265D01*
X05965Y186048D02*
Y18705D01*
X0642Y18095D02*
X0702D01*
Y17995D02*
Y18095D01*
X0642Y17995D02*
X0702D01*
X0642D02*
Y18095D01*
X0758Y18D02*
Y181D01*
Y18D02*
X0818D01*
Y181D01*
X0758D02*
X0818D01*
X09955Y18735D02*
X10755D01*
Y18635D02*
Y18735D01*
X09955Y18635D02*
X10755D01*
X09955D02*
Y18735D01*
X1048Y1568D02*
Y157802D01*
X1008Y1568D02*
X1048D01*
X1008D02*
Y157802D01*
X1048D01*
X10655Y157752D02*
X10955D01*
X10655Y15675D02*
Y157752D01*
Y15675D02*
X10955D01*
Y157752D01*
X1094598Y177702D02*
Y181698D01*
X11195D01*
X1094598Y177702D02*
X11195D01*
Y181698D01*
X0543575Y1678614D02*
Y1705386D01*
X0498496Y1678614D02*
X0543575D01*
X0498496D02*
Y1705386D01*
X0543575D01*
X0555059Y1644315D02*
X0599941D01*
Y1711343D01*
X0555059Y1644315D02*
Y1711343D01*
X0599941D01*
X06465Y1561366D02*
X06765D01*
X06465D02*
Y1594634D01*
X06765Y1561366D02*
Y1594634D01*
X06465D02*
X06765D01*
X0718D02*
X0748D01*
Y1561366D02*
Y1594634D01*
X0718Y1561366D02*
Y1594634D01*
Y1561366D02*
X0748D01*
X0617476Y1752669D02*
Y1786331D01*
X0589524D02*
X0617476D01*
X0589524Y1752669D02*
Y1786331D01*
Y1752669D02*
X0617476D01*
X06465Y1840366D02*
X06765D01*
X06465D02*
Y1873634D01*
X06765Y1840366D02*
Y1873634D01*
X06465D02*
X06765D01*
X0718Y1872634D02*
X0748D01*
Y1839366D02*
Y1872634D01*
X0718Y1839366D02*
Y1872634D01*
Y1839366D02*
X0748D01*
X07855Y1594634D02*
X08155D01*
Y1561366D02*
Y1594634D01*
X07855Y1561366D02*
Y1594634D01*
Y1561366D02*
X08155D01*
X0847Y1595134D02*
X0877D01*
Y1561866D02*
Y1595134D01*
X0847Y1561866D02*
Y1595134D01*
Y1561866D02*
X0877D01*
X0909Y1597217D02*
X0989D01*
Y1561882D02*
Y1597217D01*
X0909Y1561882D02*
X0989D01*
X0909D02*
Y1597217D01*
X0755882Y17435D02*
X0791217D01*
X0755882Y16635D02*
Y17435D01*
Y16635D02*
X0791217D01*
Y17435D01*
X07855Y1839366D02*
X08155D01*
X07855D02*
Y1872634D01*
X08155Y1839366D02*
Y1872634D01*
X07855D02*
X08155D01*
X0847D02*
X0877D01*
Y1839366D02*
Y1872634D01*
X0847Y1839366D02*
Y1872634D01*
Y1839366D02*
X0877D01*
X08985Y1873469D02*
X09785D01*
Y1838134D02*
Y1873469D01*
X08985Y1838134D02*
X09785D01*
X08985D02*
Y1873469D01*
X1088866Y1818945D02*
X1122134D01*
X1088866D02*
Y1861957D01*
X1122134D01*
Y1818945D02*
Y1861957D01*
D128*
X0568528Y1785689D02*
Y1808524D01*
X0528764Y1785689D02*
X0568528D01*
X0528764D02*
Y1808524D01*
X0568528D01*
X0552799Y1604433D02*
Y1633567D01*
X0540201Y1604433D02*
Y1633567D01*
Y1604433D02*
X0552799D01*
X0540201Y1633567D02*
X0552799D01*
X0542268Y1642846D02*
Y1661154D01*
X0550732Y1642846D02*
Y1661154D01*
X0542268D02*
X0550732D01*
X0542268Y1642846D02*
X0550732D01*
X0553622Y1636717D02*
X0581378D01*
X0553622Y1601283D02*
Y1636717D01*
Y1601283D02*
X0581378D01*
Y1636717D01*
X0579346Y1564768D02*
Y1573232D01*
X0597654Y1564768D02*
Y1573232D01*
X0579346Y1564768D02*
X0597654D01*
X0579346Y1573232D02*
X0597654D01*
X0594201Y1579047D02*
Y1584953D01*
X0581799Y1579047D02*
Y1584953D01*
Y1579047D02*
X0594201D01*
X0581799Y1584953D02*
X0594201D01*
X0581799Y1590047D02*
Y1595953D01*
X0594201Y1590047D02*
Y1595953D01*
X0581799D02*
X0594201D01*
X0581799Y1590047D02*
X0594201D01*
X0621878Y1601094D02*
Y1636528D01*
X0594122Y1601094D02*
X0621878D01*
X0594122D02*
Y1636528D01*
X0621878D01*
X0603768Y1642858D02*
Y1661165D01*
X0612232Y1642858D02*
Y1661165D01*
X0603768D02*
X0612232D01*
X0603768Y1642858D02*
X0612232D01*
X0616047Y1643799D02*
X0621953D01*
X0616047Y1656201D02*
X0621953D01*
X0616047Y1643799D02*
Y1656201D01*
X0621953Y1643799D02*
Y1656201D01*
X0530547Y1707799D02*
X0536453D01*
X0530547Y1720201D02*
X0536453D01*
X0530547Y1707799D02*
Y1720201D01*
X0536453Y1707799D02*
Y1720201D01*
X0537043Y1724744D02*
Y1744035D01*
X0529957D02*
X0537043D01*
X0529957Y1724744D02*
Y1744035D01*
Y1724744D02*
X0537043D01*
X0616539Y1669315D02*
X0621461D01*
Y1658685D02*
Y1669315D01*
X0616539Y1658685D02*
X0621461D01*
X0616539D02*
Y1669315D01*
X0640866Y168724D02*
X0649134D01*
X0640866Y1668736D02*
X0649134D01*
Y168724D01*
X0640866Y1668736D02*
Y168724D01*
Y1694748D02*
Y1713252D01*
X0649134Y1694748D02*
Y1713252D01*
X0640866Y1694748D02*
X0649134D01*
X0640866Y1713252D02*
X0649134D01*
X0652768Y1668846D02*
X0661232D01*
X0652768Y1687154D02*
X0661232D01*
Y1668846D02*
Y1687154D01*
X0652768Y1668846D02*
Y1687154D01*
X0663929Y1673398D02*
X0680071D01*
X0663929Y1685602D02*
X0680071D01*
Y1673398D02*
Y1685602D01*
X0663929Y1673398D02*
Y1685602D01*
X0682866Y166876D02*
X0691134D01*
X0682866Y1687264D02*
X0691134D01*
X0682866Y166876D02*
Y1687264D01*
X0691134Y166876D02*
Y1687264D01*
X0694768Y1668846D02*
X0703232D01*
X0694768Y1687154D02*
X0703232D01*
Y1668846D02*
Y1687154D01*
X0694768Y1668846D02*
Y1687154D01*
X0697646Y1560547D02*
Y1566453D01*
X0710047Y1560547D02*
Y1566453D01*
X0697646D02*
X0710047D01*
X0697646Y1560547D02*
X0710047D01*
X0697799Y1579547D02*
X0710201D01*
X0697799Y1585453D02*
X0710201D01*
Y1579547D02*
Y1585453D01*
X0697799Y1579547D02*
Y1585453D01*
X0710201Y1570047D02*
Y1575953D01*
X0697799Y1570047D02*
Y1575953D01*
Y1570047D02*
X0710201D01*
X0697799Y1575953D02*
X0710201D01*
X0697799Y1594953D02*
X0710201D01*
X0697799Y1589047D02*
X0710201D01*
X0697799D02*
Y1594953D01*
X0710201Y1589047D02*
Y1594953D01*
X0640866Y1739752D02*
X0649134D01*
X0640866Y1721248D02*
X0649134D01*
Y1739752D01*
X0640866Y1721248D02*
Y1739752D01*
X0652768Y1694846D02*
Y1713154D01*
X0661232Y1694846D02*
Y1713154D01*
X0652768D02*
X0661232D01*
X0652768Y1694846D02*
X0661232D01*
X0652268Y1721346D02*
Y1739654D01*
X0660732Y1721346D02*
Y1739654D01*
X0652268D02*
X0660732D01*
X0652268Y1721346D02*
X0660732D01*
X0663929Y1697898D02*
Y1710102D01*
X0680071Y1697898D02*
Y1710102D01*
X0663929D02*
X0680071D01*
X0663929Y1697898D02*
X0680071D01*
X0663929Y1723398D02*
Y1735602D01*
X0680071Y1723398D02*
Y1735602D01*
X0663929D02*
X0680071D01*
X0663929Y1723398D02*
X0680071D01*
X0682866Y169465D02*
Y1713154D01*
X0691134Y169465D02*
Y1713154D01*
X0682866Y169465D02*
X0691134D01*
X0682866Y1713154D02*
X0691134D01*
X0682768Y1721346D02*
Y1739654D01*
X0691232Y1721346D02*
Y1739654D01*
X0682768D02*
X0691232D01*
X0682768Y1721346D02*
X0691232D01*
X0703232Y1694945D02*
Y1713252D01*
X0694768Y1694945D02*
Y1713252D01*
Y1694945D02*
X0703232D01*
X0694768Y1713252D02*
X0703232D01*
X0694768Y1721346D02*
Y1739654D01*
X0703232Y1721346D02*
Y1739654D01*
X0694768D02*
X0703232D01*
X0694768Y1721346D02*
X0703232D01*
X0530547Y1750646D02*
Y1763047D01*
X0536453Y1750646D02*
Y1763047D01*
X0530547Y1750646D02*
X0536453D01*
X0530547Y1763047D02*
X0536453D01*
X0533268Y1783154D02*
X0541732D01*
X0533268Y1764846D02*
X0541732D01*
X0533268D02*
Y1783154D01*
X0541732Y1764846D02*
Y1783154D01*
X0553232Y1764846D02*
Y1783154D01*
X0544768Y1764846D02*
Y1783154D01*
Y1764846D02*
X0553232D01*
X0544768Y1783154D02*
X0553232D01*
X0550799Y1735953D02*
X0563201D01*
X0550799Y1730047D02*
X0563201D01*
X0550799D02*
Y1735953D01*
X0563201Y1730047D02*
Y1735953D01*
X0554433Y1740264D02*
Y1760736D01*
Y1740264D02*
X0583567D01*
Y1760736D01*
X0554433D02*
X0583567D01*
X0558846Y1764768D02*
X0577154D01*
X0558846Y1773232D02*
X0577154D01*
X0558846Y1764768D02*
Y1773232D01*
X0577154Y1764768D02*
Y1773232D01*
X0565335Y1728768D02*
X0583642D01*
X0565335Y1737232D02*
X0583642D01*
X0565335Y1728768D02*
Y1737232D01*
X0583642Y1728768D02*
Y1737232D01*
X0586146Y1730047D02*
X0598547D01*
X0586146Y1735953D02*
X0598547D01*
Y1730047D02*
Y1735953D01*
X0586146Y1730047D02*
Y1735953D01*
X0498622Y1808717D02*
X0526378D01*
X0498622Y1773283D02*
Y1808717D01*
Y1773283D02*
X0526378D01*
Y1808717D01*
X0551953Y1811299D02*
Y1823701D01*
X0546047Y1811299D02*
Y1823701D01*
X0551953D01*
X0546047Y1811299D02*
X0551953D01*
X0559299Y1784453D02*
X0571701D01*
X0559299Y1778547D02*
X0571701D01*
X0559299D02*
Y1784453D01*
X0571701Y1778547D02*
Y1784453D01*
X0573783Y1790622D02*
X0609217D01*
X0573783D02*
Y1818378D01*
X0609217D01*
Y1790622D02*
Y1818378D01*
X0575846Y1820768D02*
X0594154D01*
X0575846Y1829232D02*
X0594154D01*
X0575846Y1820768D02*
Y1829232D01*
X0594154Y1820768D02*
Y1829232D01*
X0597299Y1827953D02*
X0609701D01*
X0597299Y1822047D02*
X0609701D01*
X0597299D02*
Y1827953D01*
X0609701Y1822047D02*
Y1827953D01*
X0641646D02*
X0654047D01*
X0641646Y1822047D02*
X0654047D01*
X0641646D02*
Y1827953D01*
X0654047Y1822047D02*
Y1827953D01*
X0725799Y1767547D02*
X0738201D01*
X0725799Y1773453D02*
X0738201D01*
Y1767547D02*
Y1773453D01*
X0725799Y1767547D02*
Y1773453D01*
X0726638Y1775539D02*
Y1780461D01*
X0737268D01*
Y1775539D02*
Y1780461D01*
X0726638Y1775539D02*
X0737268D01*
X0598685Y1831539D02*
Y1836461D01*
X0609315D01*
Y1831539D02*
Y1836461D01*
X0598685Y1831539D02*
X0609315D01*
X0681799Y1857547D02*
Y1863453D01*
X0694201Y1857547D02*
Y1863453D01*
X0681799D02*
X0694201D01*
X0681799Y1857547D02*
X0694201D01*
X0681799Y1849547D02*
Y1855453D01*
X0694201Y1849547D02*
Y1855453D01*
X0681799D02*
X0694201D01*
X0681799Y1849547D02*
X0694201D01*
Y1865547D02*
Y1871453D01*
X0681799Y1865547D02*
Y1871453D01*
Y1865547D02*
X0694201D01*
X0681799Y1871453D02*
X0694201D01*
Y1841547D02*
Y1847453D01*
X0681799Y1841547D02*
Y1847453D01*
Y1841547D02*
X0694201D01*
X0681799Y1847453D02*
X0694201D01*
X0767799Y1560547D02*
X0780201D01*
X0767799Y1566453D02*
X0780201D01*
Y1560547D02*
Y1566453D01*
X0767799Y1560547D02*
Y1566453D01*
X0894453Y1569299D02*
Y1581701D01*
X0888547Y1569299D02*
Y1581701D01*
X0894453D01*
X0888547Y1569299D02*
X0894453D01*
X0767799Y1575953D02*
X0780201D01*
X0767799Y1570047D02*
X0780201D01*
X0767799D02*
Y1575953D01*
X0780201Y1570047D02*
Y1575953D01*
X0903961Y1570638D02*
Y1581268D01*
X0899039D02*
X0903961D01*
X0899039Y1570638D02*
Y1581268D01*
Y1570638D02*
X0903961D01*
X0744201Y1643547D02*
Y1649453D01*
X0731799Y1643547D02*
Y1649453D01*
Y1643547D02*
X0744201D01*
X0731799Y1649453D02*
X0744201D01*
X0742815Y1635039D02*
Y1639961D01*
X0732185Y1635039D02*
X0742815D01*
X0732185D02*
Y1639961D01*
X0742815D01*
X0767799Y1588547D02*
X0780201D01*
X0767799Y1594453D02*
X0780201D01*
Y1588547D02*
Y1594453D01*
X0767799Y1588547D02*
Y1594453D01*
Y1579047D02*
X0780201D01*
X0767799Y1584953D02*
X0780201D01*
Y1579047D02*
Y1584953D01*
X0767799Y1579047D02*
Y1584953D01*
X1096476Y1615307D02*
X1118524D01*
X1096476D02*
Y1628693D01*
X1118524Y1615307D02*
Y1628693D01*
X1096476D02*
X1118524D01*
X1123201Y1644047D02*
Y1649953D01*
X1110799Y1644047D02*
Y1649953D01*
Y1644047D02*
X1123201D01*
X1110799Y1649953D02*
X1123201D01*
X1106701Y1644047D02*
Y1649953D01*
X1094299Y1644047D02*
Y1649953D01*
Y1644047D02*
X1106701D01*
X1094299Y1649953D02*
X1106701D01*
X0949799Y1713547D02*
Y1719453D01*
X0962201Y1713547D02*
Y1719453D01*
X0949799D02*
X0962201D01*
X0949799Y1713547D02*
X0962201D01*
X1106701Y1714047D02*
Y1719953D01*
X1094299Y1714047D02*
Y1719953D01*
Y1714047D02*
X1106701D01*
X1094299Y1719953D02*
X1106701D01*
X1106701Y1679547D02*
Y1685453D01*
X1094299Y1679547D02*
Y1685453D01*
Y1679547D02*
X1106701D01*
X1094299Y1685453D02*
X1106701D01*
X1095976Y1687807D02*
X1118024D01*
X1095976D02*
Y1701193D01*
X1118024Y1687807D02*
Y1701193D01*
X1095976D02*
X1118024D01*
X1096537Y1652895D02*
X1118584D01*
X1096537D02*
Y1666281D01*
X1118584Y1652895D02*
Y1666281D01*
X1096537D02*
X1118584D01*
X1123047Y1679547D02*
Y1685453D01*
X1110646Y1679547D02*
Y1685453D01*
Y1679547D02*
X1123047D01*
X1110646Y1685453D02*
X1123047D01*
X1123201Y1714047D02*
Y1719953D01*
X1110799Y1714047D02*
Y1719953D01*
Y1714047D02*
X1123201D01*
X1110799Y1719953D02*
X1123201D01*
X0949953Y1727953D02*
X0962354D01*
X0949953Y1722047D02*
X0962354D01*
X0949953D02*
Y1727953D01*
X0962354Y1722047D02*
Y1727953D01*
X0949799Y1735953D02*
X0962201D01*
X0949799Y1730047D02*
X0962201D01*
X0949799D02*
Y1735953D01*
X0962201Y1730047D02*
Y1735953D01*
X0962362Y1737646D02*
Y1752409D01*
X0950157Y1737646D02*
Y1752409D01*
X0962362D01*
X0950157Y1737646D02*
X0962362D01*
X0751453Y1872453D02*
X0763854D01*
X0751453Y1866547D02*
X0763854D01*
X0751453D02*
Y1872453D01*
X0763854Y1866547D02*
Y1872453D01*
X0751453Y1841547D02*
X0763854D01*
X0751453Y1847453D02*
X0763854D01*
Y1841547D02*
Y1847453D01*
X0751453Y1841547D02*
Y1847453D01*
Y1858547D02*
X0763854D01*
X0751453Y1864453D02*
X0763854D01*
Y1858547D02*
Y1864453D01*
X0751453Y1858547D02*
Y1864453D01*
X075146Y1855953D02*
X0763862D01*
X075146Y1850047D02*
X0763862D01*
X075146D02*
Y1855953D01*
X0763862Y1850047D02*
Y1855953D01*
X1101701Y1745547D02*
Y1751453D01*
X1089299Y1745547D02*
Y1751453D01*
Y1745547D02*
X1101701D01*
X1089299Y1751453D02*
X1101701D01*
X1089299Y1759953D02*
X1101701D01*
X1089299Y1754047D02*
X1101701D01*
X1089299D02*
Y1759953D01*
X1101701Y1754047D02*
Y1759953D01*
X1089299Y1768453D02*
X1101701D01*
X1089299Y1762547D02*
X1101701D01*
X1089299D02*
Y1768453D01*
X1101701Y1762547D02*
Y1768453D01*
X1095976Y1735693D02*
X1118024D01*
Y1722307D02*
Y1735693D01*
X1095976Y1722307D02*
Y1735693D01*
Y1722307D02*
X1118024D01*
X1110646Y1754047D02*
Y1759953D01*
X1123047Y1754047D02*
Y1759953D01*
X1110646D02*
X1123047D01*
X1110646Y1754047D02*
X1123047D01*
X1123201Y1745547D02*
Y1751453D01*
X1110799Y1745547D02*
Y1751453D01*
Y1745547D02*
X1123201D01*
X1110799Y1751453D02*
X1123201D01*
Y1762547D02*
Y1768453D01*
X1110799Y1762547D02*
Y1768453D01*
Y1762547D02*
X1123201D01*
X1110799Y1768453D02*
X1123201D01*
M02*
