M48
;Layer_Color=9474304
;FILE_FORMAT=2:5
INCH,LZ
;TYPE=PLATED
T1F00S00C0.02800
T2F00S00C0.03150
T3F00S00C0.03543
T4F00S00C0.04724
T6F00S00C0.10236
T7F00S00C0.12500
%
T01
X0482638Y1674
X05495Y171
X05875Y1618
X0601Y1593
X05715Y1582
X0686
X0714Y15825
Y1573
Y15635
Y1592
X07625Y15875
X07515Y16375
X0667Y1625
X066Y1691
X068Y16915
X0667Y1715
X0707Y17095
X0796Y16785
X07945Y16685
X0837Y16415
Y1635
Y1627696
Y1622
Y16155
Y16083
Y16025
Y1596
X0823Y1587
X08005Y15906
X07905Y1568748
X0783Y1573
Y15635
X0862Y1569
Y1588
X09625Y1635
X0977Y1674954
X0987Y1684993
X0956032Y1696051
X0956Y1709
X094Y17165
X0993413Y15665
X11055Y1761
X11135Y1772
X1087Y18305
X094Y1725
X0796Y17285
X0804Y1834
X0782Y1843
Y18628
X0828Y18565
X0821Y1848
X08845Y18465
X0712Y1856
X0704804Y18525
X0704Y18445
Y18605
Y1868
X0651Y1833
X0667Y1741
X07075Y1736
X07715Y1775
X0585Y1739
X0571Y17975
X05685Y1813
X05795Y18425
X07615Y1877
X07725
X0862Y18775
T02
X0539Y17975
X0549
X0559
T03
X0647Y1654
X0657
X0667
X0677
X0687
X0697
X0763
X0773
X0783
X0793
X0803
X0813
X0862Y1655
Y1665
X0872
Y1675
X0862
Y1685
X0872
Y1695
X0862
Y1705
X0872
Y1715
X0862
X0872Y1655
X0882
X0892
X0902
X0912
X0922
X0932
Y1645
X0922
X0912
X0902
X0892
X0882
X0872
X0862
X0942
X0952
X0962
Y1655
X0972
Y1645
X0982
Y1655
X0992
X1002
Y1645
X1012
X1022
X1032
X1042
X1052
Y1655
Y1665
X1042
Y1675
X1052
Y1685
Y1695
X1042
Y1685
Y1655
X1032
X1022
X1012
X0992Y1645
X0952Y1655
X0942
X1013Y1573
X1023
X1033
X1043
X10705Y15725
X10805
X10905
X1102Y1782
X1112
Y1812
X1102
X1052Y1805
X1042
X1032
X1022
X1012
Y1795
X1002
X0992
Y1805
X0982
Y1795
X0972
X0962
X0952
Y1805
X0942
Y1795
X0962Y1805
X0972
X1002
X1022Y1795
X1032
X1042
X1052
Y1785
X1042
Y1775
Y1765
Y1755
X1052
Y1765
Y1775
X10505Y18685
X10405
X10305
X10205
X10105
X10005
X10605
X10705
X09845Y1742843
Y1723157
X0872Y1725
X0862
Y1735
X0872
Y1745
X0862
Y1755
X0872
Y1765
X0862
Y1775
X0872
Y1785
X0862
Y1795
Y1805
X0872
Y1795
X0882
Y1805
X0892
Y1795
X0902
Y1805
X0912
Y1795
X0922
Y1805
X0932
Y1795
X0813Y1805
X0803
X0793
X0783
Y1754
X0793
X0803
X0813
X0773
X0763
Y1805
X0773
X0697Y18045
X0687
X0677
X0667
X0657
X0647
Y1754
X0657
X0667
X0677
X0687
X0697
X06215Y18655
X06115
X06015
T04
X0513157Y1579
X0532843
X0532343Y18635
X0512657
T06
X0513Y1660366
Y16395
T07
X0634Y16205
X0977844Y1620527
X0978Y18235
X063Y1820523
X0762151Y1942384
X084487
X080434Y1983323
Y1900696
M30
