G04*
G04 #@! TF.GenerationSoftware,Altium Limited,Altium Designer,22.0.2 (36)*
G04*
G04 Layer_Color=8388736*
%FSTAX25Y25*%
%MOIN*%
G70*
G04*
G04 #@! TF.SameCoordinates,5FDB733D-D120-4548-BF5C-F3B634D9DF53*
G04*
G04*
G04 #@! TF.FilePolarity,Positive*
G04*
G01*
G75*
%ADD10C,0.01000*%
%ADD11C,0.00787*%
%ADD114C,0.00394*%
%ADD117C,0.00197*%
%ADD118R,0.00197X0.05512*%
%ADD119R,0.11417X0.00197*%
%ADD120R,0.00197X0.05512*%
%ADD121R,0.00197X0.11319*%
%ADD122R,0.04232X0.00197*%
%ADD123R,0.00197X0.05906*%
%ADD124R,0.04232X0.00197*%
%ADD125R,0.00197X0.11319*%
G04:AMPARAMS|DCode=126|XSize=1.97mil|YSize=79.34mil|CornerRadius=0mil|HoleSize=0mil|Usage=FLASHONLY|Rotation=225.000|XOffset=0mil|YOffset=0mil|HoleType=Round|Shape=Rectangle|*
%AMROTATEDRECTD126*
4,1,4,-0.02736,0.02875,0.02875,-0.02736,0.02736,-0.02875,-0.02875,0.02736,-0.02736,0.02875,0.0*
%
%ADD126ROTATEDRECTD126*%

%ADD127R,0.22539X0.00197*%
G04:AMPARAMS|DCode=128|XSize=1.97mil|YSize=79.34mil|CornerRadius=0mil|HoleSize=0mil|Usage=FLASHONLY|Rotation=135.000|XOffset=0mil|YOffset=0mil|HoleType=Round|Shape=Rectangle|*
%AMROTATEDRECTD128*
4,1,4,0.02875,0.02736,-0.02736,-0.02875,-0.02875,-0.02736,0.02736,0.02875,0.02875,0.02736,0.0*
%
%ADD128ROTATEDRECTD128*%

%ADD129R,0.22539X0.00197*%
%ADD130R,0.00197X0.05709*%
%ADD131R,0.04232X0.00197*%
%ADD132R,0.00197X0.05906*%
%ADD133R,0.00197X0.05709*%
%ADD134R,0.04232X0.00197*%
%ADD135R,0.05512X0.00197*%
%ADD136R,0.00197X0.11417*%
%ADD137R,0.05512X0.00197*%
%ADD138R,0.00197X0.04232*%
%ADD139R,0.05709X0.00197*%
%ADD140R,0.05906X0.00197*%
%ADD141R,0.00197X0.04232*%
%ADD142R,0.05709X0.00197*%
%ADD143R,0.00197X0.22539*%
%ADD144R,0.00197X0.22539*%
%ADD145R,0.11319X0.00197*%
%ADD146R,0.00197X0.04232*%
%ADD147R,0.05906X0.00197*%
%ADD148R,0.00197X0.04232*%
%ADD149R,0.11319X0.00197*%
%ADD150R,0.00197X0.08268*%
%ADD151R,0.18110X0.00197*%
%ADD152R,0.18110X0.00197*%
%ADD153R,0.00197X0.14961*%
%ADD154R,0.06693X0.00197*%
%ADD155R,0.00197X0.16929*%
%ADD156R,0.07677X0.00197*%
%ADD157R,0.00197X0.02165*%
%ADD158R,0.01181X0.00197*%
%ADD159R,0.07677X0.00197*%
%ADD160R,0.08268X0.00197*%
%ADD161R,0.00197X0.18110*%
%ADD162R,0.00197X0.18110*%
%ADD163R,0.04232X0.00197*%
%ADD164R,0.04232X0.00197*%
%ADD165R,0.22539X0.00197*%
D10*
X0718Y0409771D02*
X0717987Y0410775D01*
X0717946Y0411779D01*
X071788Y0412781D01*
X0717786Y0413781D01*
X0717666Y0414779D01*
X071752Y0415772D01*
X0717347Y0416762D01*
X0717147Y0417746D01*
X0716922Y0418725D01*
X0716671Y0419698D01*
X0716394Y0420663D01*
X0716091Y0421621D01*
X0715763Y042257D01*
X0715409Y042351D01*
X0715031Y0424441D01*
X0714628Y0425361D01*
X0714201Y042627D01*
X071375Y0427168D01*
X0713275Y0428053D01*
X0712777Y0428925D01*
X0712255Y0429783D01*
X0711711Y0430628D01*
X0711145Y0431457D01*
X0710557Y0432271D01*
X0709947Y043307D01*
X0709316Y0433851D01*
X0708665Y0434616D01*
X0707993Y0435363D01*
X0707302Y0436092D01*
X0706592Y0436802D01*
X0705863Y0437493D01*
X0705116Y0438165D01*
X0704351Y0438816D01*
X070357Y0439447D01*
X0702771Y0440057D01*
X0701957Y0440645D01*
X0701128Y0441211D01*
X0700283Y0441755D01*
X0699425Y0442277D01*
X0698553Y0442775D01*
X0697668Y044325D01*
X069677Y0443701D01*
X0695861Y0444128D01*
X0694941Y0444531D01*
X069401Y0444909D01*
X069307Y0445263D01*
X0692121Y0445591D01*
X0691163Y0445894D01*
X0690198Y0446171D01*
X0689225Y0446422D01*
X0688246Y0446647D01*
X0687262Y0446847D01*
X0686272Y044702D01*
X0685279Y0447166D01*
X0684281Y0447286D01*
X0683281Y044738D01*
X0682279Y0447446D01*
X0681275Y0447487D01*
X0680271Y04475D01*
X01365Y0447488D02*
X0135491Y0447468D01*
X0134484Y044742D01*
X0133478Y0447345D01*
X0132475Y0447243D01*
X0131475Y0447114D01*
X0130479Y0446957D01*
X0129487Y0446774D01*
X0128501Y0446564D01*
X0127521Y0446327D01*
X0126547Y0446064D01*
X0125581Y0445775D01*
X0124624Y0445459D01*
X0123675Y0445118D01*
X0122735Y0444751D01*
X0121806Y0444359D01*
X0120888Y0443942D01*
X0119982Y04435D01*
X0119088Y0443034D01*
X0118206Y0442544D01*
X0117339Y044203D01*
X0116486Y0441492D01*
X0115647Y0440932D01*
X0114824Y0440349D01*
X0114017Y0439745D01*
X0113227Y0439118D01*
X0112454Y0438471D01*
X0111699Y0437803D01*
X0110962Y0437114D01*
X0110244Y0436406D01*
X0109546Y0435678D01*
X0108867Y0434933D01*
X0108209Y0434168D01*
X0107572Y0433387D01*
X0106956Y0432588D01*
X0106362Y0431773D01*
X0105791Y0430942D01*
X0105242Y0430096D01*
X0104716Y0429236D01*
X0104214Y0428362D01*
X0103735Y0427474D01*
X0103281Y0426574D01*
X0102851Y0425661D01*
X0102447Y0424738D01*
X0102067Y0423803D01*
X0101713Y0422859D01*
X0101384Y0421906D01*
X0101082Y0420944D01*
X0100805Y0419974D01*
X0100555Y0418997D01*
X0100332Y0418014D01*
X0100135Y0417025D01*
X0099965Y0416031D01*
X0099822Y0415033D01*
X0099706Y0414031D01*
X0099617Y0413027D01*
X0099556Y041202D01*
X0099522Y0411012D01*
X0099515Y0410004D01*
X01Y0206229D02*
X0100013Y0205234D01*
X0100054Y0204241D01*
X0100121Y0203248D01*
X0100215Y0202258D01*
X0100336Y0201271D01*
X0100484Y0200287D01*
X0100658Y0199308D01*
X0100859Y0198333D01*
X0101086Y0197365D01*
X0101339Y0196403D01*
X0101618Y0195448D01*
X0101923Y0194501D01*
X0102253Y0193563D01*
X0102609Y0192634D01*
X0102989Y0191715D01*
X0103395Y0190807D01*
X0103824Y018991D01*
X0104279Y0189025D01*
X0104756Y0188152D01*
X0105257Y0187293D01*
X0105782Y0186448D01*
X0106329Y0185617D01*
X0106898Y0184801D01*
X0107489Y0184002D01*
X0108102Y0183218D01*
X0108736Y0182451D01*
X010939Y0181702D01*
X0110064Y0180971D01*
X0110758Y0180258D01*
X011147Y0179564D01*
X0112202Y017889D01*
X0112951Y0178235D01*
X0113718Y0177602D01*
X0114502Y0176989D01*
X0115302Y0176398D01*
X0116117Y0175829D01*
X0116948Y0175282D01*
X0117793Y0174758D01*
X0118652Y0174256D01*
X0119525Y0173778D01*
X012041Y0173325D01*
X0121307Y0172895D01*
X0122215Y0172489D01*
X0123134Y0172109D01*
X0124063Y0171753D01*
X0125002Y0171423D01*
X0125948Y0171118D01*
X0126903Y0170839D01*
X0127865Y0170586D01*
X0128833Y0170359D01*
X0129808Y0170158D01*
X0130787Y0169984D01*
X0131771Y0169836D01*
X0132758Y0169715D01*
X0133748Y0169621D01*
X0134741Y0169554D01*
X0135734Y0169513D01*
X0136729Y01695D01*
X0680768D02*
X0681776Y0169514D01*
X0682783Y0169555D01*
X0683789Y0169623D01*
X0684793Y0169718D01*
X0685794Y0169841D01*
X0686791Y0169991D01*
X0687784Y0170167D01*
X0688771Y017037D01*
X0689753Y01706D01*
X0690728Y0170857D01*
X0691696Y017114D01*
X0692656Y0171449D01*
X0693607Y0171784D01*
X0694549Y0172144D01*
X069548Y017253D01*
X0696401Y0172941D01*
X069731Y0173377D01*
X0698208Y0173837D01*
X0699092Y0174321D01*
X0699963Y017483D01*
X070082Y0175361D01*
X0701662Y0175916D01*
X0702489Y0176493D01*
X07033Y0177092D01*
X0704094Y0177713D01*
X0704871Y0178355D01*
X0705631Y0179018D01*
X0706372Y0179702D01*
X0707095Y0180405D01*
X0707798Y0181128D01*
X0708482Y0181869D01*
X0709145Y0182629D01*
X0709787Y0183406D01*
X0710408Y01842D01*
X0711007Y0185011D01*
X0711585Y0185838D01*
X0712139Y018668D01*
X0712671Y0187537D01*
X0713179Y0188408D01*
X0713663Y0189293D01*
X0714123Y019019D01*
X0714559Y0191099D01*
X071497Y019202D01*
X0715356Y0192951D01*
X0715716Y0193893D01*
X0716051Y0194844D01*
X071636Y0195804D01*
X0716643Y0196772D01*
X0716899Y0197747D01*
X071713Y0198729D01*
X0717333Y0199716D01*
X071751Y0200709D01*
X0717659Y0201706D01*
X0717782Y0202707D01*
X0717877Y0203711D01*
X0717945Y0204717D01*
X0717986Y0205724D01*
X0718Y0206732D01*
Y0409771D01*
X0099515Y0410004D02*
X01Y0206239D01*
X0137Y01695D02*
X0681Y01695D01*
X01365Y0447488D02*
X0680271Y04475D01*
D11*
X0118319Y0260094D02*
X0145681Y0260094D01*
Y021974D02*
Y0260094D01*
X0118319Y021974D02*
X0145681D01*
X0118319D02*
Y0260094D01*
D114*
X0604398Y0302D02*
X0604371Y0302997D01*
X0604292Y0303992D01*
X0604161Y0304981D01*
X0603978Y0305962D01*
X0603743Y0306931D01*
X0603457Y0307887D01*
X0603122Y0308827D01*
X0602737Y0309747D01*
X0602304Y0310646D01*
X0601824Y0311521D01*
X0601299Y0312369D01*
X060073Y0313188D01*
X0600118Y0313977D01*
X0599466Y0314731D01*
X0598774Y0315451D01*
X0598046Y0316132D01*
X0597283Y0316775D01*
X0596486Y0317376D01*
X0595659Y0317934D01*
X0594804Y0318448D01*
X0593923Y0318917D01*
X0593019Y0319337D01*
X0592093Y031971D01*
X059115Y0320033D01*
X059019Y0320306D01*
X0589217Y0320528D01*
X0588234Y0320699D01*
X0587244Y0320817D01*
X0586248Y0320883D01*
X0585251Y0320896D01*
X0584254Y0320856D01*
X058326Y0320764D01*
X0582273Y032062D01*
X0581295Y0320424D01*
X0580328Y0320176D01*
X0579376Y0319878D01*
X0578441Y031953D01*
X0577526Y0319133D01*
X0576633Y0318688D01*
X0575765Y0318197D01*
X0574923Y0317661D01*
X0574112Y0317081D01*
X0573332Y0316459D01*
X0572585Y0315796D01*
X0571875Y0315095D01*
X0571203Y0314358D01*
X0570571Y0313586D01*
X056998Y0312782D01*
X0569433Y0311948D01*
X056893Y0311087D01*
X0568474Y0310199D01*
X0568065Y0309289D01*
X0567704Y0308359D01*
X0567394Y0307411D01*
X0567133Y0306448D01*
X0566924Y0305472D01*
X0566767Y0304487D01*
X0566662Y0303495D01*
X0566609Y0302499D01*
X0566609Y0301501D01*
X0566662Y0300505D01*
X0566767Y0299513D01*
X0566924Y0298528D01*
X0567133Y0297552D01*
X0567394Y0296589D01*
X0567704Y0295641D01*
X0568065Y0294711D01*
X0568474Y0293801D01*
X056893Y0292914D01*
X0569433Y0292052D01*
X056998Y0291218D01*
X0570571Y0290414D01*
X0571203Y0289642D01*
X0571875Y0288905D01*
X0572585Y0288204D01*
X0573332Y0287541D01*
X0574112Y0286919D01*
X0574923Y0286339D01*
X0575765Y0285803D01*
X0576633Y0285312D01*
X0577526Y0284867D01*
X0578441Y028447D01*
X0579376Y0284122D01*
X0580328Y0283824D01*
X0581295Y0283576D01*
X0582273Y028338D01*
X058326Y0283236D01*
X0584254Y0283143D01*
X0585251Y0283104D01*
X0586248Y0283117D01*
X0587244Y0283183D01*
X0588234Y0283301D01*
X0589217Y0283472D01*
X059019Y0283694D01*
X059115Y0283967D01*
X0592093Y028429D01*
X0593019Y0284663D01*
X0593923Y0285084D01*
X0594804Y0285552D01*
X0595659Y0286066D01*
X0596486Y0286624D01*
X0597282Y0287225D01*
X0598046Y0287868D01*
X0598774Y0288549D01*
X0599466Y0289269D01*
X0600118Y0290023D01*
X060073Y0290812D01*
X0601299Y0291631D01*
X0601824Y0292479D01*
X0602304Y0293354D01*
X0602737Y0294253D01*
X0603122Y0295173D01*
X0603457Y0296113D01*
X0603743Y0297069D01*
X0603978Y0298038D01*
X0604161Y0299019D01*
X0604292Y0300008D01*
X0604371Y0301003D01*
X0604398Y0302D01*
X01965Y0400831D02*
Y041085D01*
X02265D01*
Y0400831D02*
Y041085D01*
X01965Y0400831D02*
X02265D01*
X0118925Y0345236D02*
X0147075D01*
X0118925Y0293465D02*
Y0345236D01*
Y0293465D02*
X0147075D01*
Y0345236D01*
X0452Y019048D02*
Y02005D01*
X0482D01*
Y019048D02*
Y02005D01*
X0452Y019048D02*
X0482D01*
X0452Y020298D02*
X0492D01*
Y0213D01*
X0452D02*
X0492D01*
X0452Y020298D02*
Y0213D01*
X0354Y0267D02*
Y0347D01*
X0374D01*
Y0267D02*
Y0347D01*
X0354Y0267D02*
X0374D01*
X07005Y031902D02*
Y035898D01*
X0675598Y031902D02*
X07005D01*
X0675598Y035898D02*
X07005D01*
X0675598Y031902D02*
Y035898D01*
X0450303Y02015D02*
Y022152D01*
X0420303Y02015D02*
X0450303D01*
X0420303D02*
Y022152D01*
X0450303D01*
X0168669Y0283874D02*
Y0311827D01*
X0202331D01*
Y0283874D02*
Y0311827D01*
X0168669Y0283874D02*
X0202331D01*
X0117996Y0290736D02*
X0163075D01*
X0117996Y0263965D02*
Y0290736D01*
Y0263965D02*
X0163075D01*
Y0290736D01*
X0328Y020148D02*
Y02215D01*
X0358D01*
Y020148D02*
Y02215D01*
X0328Y020148D02*
X0358D01*
X0327Y038998D02*
Y041D01*
X0357D01*
Y038998D02*
Y041D01*
X0327Y038998D02*
X0357D01*
X0498Y0203D02*
Y0213D01*
Y0203D02*
X0558D01*
Y0213D01*
X0498D02*
X0558D01*
X04505Y039D02*
Y041002D01*
X04205Y039D02*
X04505D01*
X04205D02*
Y041002D01*
X04505D01*
X041Y02015D02*
Y022152D01*
X038Y02015D02*
X041D01*
X038D02*
Y022152D01*
X041D01*
Y039D02*
Y041002D01*
X038Y039D02*
X041D01*
X038D02*
Y041002D01*
X041D01*
X0661Y0193D02*
Y0213D01*
X0611D02*
X0661D01*
X0611Y0193D02*
Y0213D01*
Y0193D02*
X0661D01*
X0678Y04065D02*
X0698D01*
Y03665D02*
Y04065D01*
X0678Y03665D02*
X0698D01*
X0678D02*
Y04065D01*
X0354Y03725D02*
Y03825D01*
Y03725D02*
X0414D01*
Y03825D01*
X0354D02*
X0414D01*
X02535Y037235D02*
Y038235D01*
Y037235D02*
X03135D01*
Y038235D01*
X02535D02*
X03135D01*
X03Y02015D02*
Y022152D01*
X027Y02015D02*
X03D01*
X027D02*
Y022152D01*
X03D01*
Y039D02*
Y041002D01*
X027Y039D02*
X03D01*
X027D02*
Y041002D01*
X03D01*
X05645Y04035D02*
Y04135D01*
Y04035D02*
X06445D01*
Y04135D01*
X05645D02*
X06445D01*
X0477Y03935D02*
Y04135D01*
Y03935D02*
X0557D01*
Y04135D01*
X0477D02*
X0557D01*
X0229831Y0356374D02*
Y0384327D01*
X0196169Y0356374D02*
X0229831D01*
X0196169D02*
Y0384327D01*
X0229831D01*
D117*
X0185646Y038515D02*
Y0415547D01*
X0146669Y038515D02*
X0185646D01*
X0146669Y0415547D02*
X0185646D01*
X0146669Y038515D02*
Y0415547D01*
X0427177Y0370138D02*
Y0374862D01*
Y0370138D02*
X0436823D01*
X0427177Y0374862D02*
X0436823D01*
Y0370138D02*
Y0374862D01*
X0675976Y0249193D02*
X0698024D01*
Y0235807D02*
Y0249193D01*
X0675976Y0235807D02*
Y0249193D01*
Y0235807D02*
X0698024D01*
X0675976Y0228193D02*
X0698024D01*
Y0214807D02*
Y0228193D01*
X0675976Y0214807D02*
Y0228193D01*
Y0214807D02*
X0698024D01*
X0675976Y0271193D02*
X0698024D01*
Y0257807D02*
Y0271193D01*
X0675976Y0257807D02*
Y0271193D01*
Y0257807D02*
X0698024D01*
X0676102Y0292862D02*
X069815D01*
Y0279476D02*
Y0292862D01*
X0676102Y0279476D02*
Y0292862D01*
Y0279476D02*
X069815D01*
X0176264Y0251783D02*
X0196736D01*
Y0280917D01*
X0176264D02*
X0196736D01*
X0176264Y0251783D02*
Y0280917D01*
X0223323Y0238138D02*
Y0242862D01*
X0213677D02*
X0223323D01*
X0213677Y0238138D02*
X0223323D01*
X0213677D02*
Y0242862D01*
X020472Y0291551D02*
X0232279D01*
X020472Y030415D02*
X0232279D01*
X020472Y0291551D02*
Y030415D01*
X0232279Y0291551D02*
Y030415D01*
X0171221Y0221551D02*
X0198779D01*
X0171221Y023415D02*
X0198779D01*
X0171221Y0221551D02*
Y023415D01*
X0198779Y0221551D02*
Y023415D01*
X0277929Y0269898D02*
X0294071D01*
X0277929Y0282102D02*
X0294071D01*
Y0269898D02*
Y0282102D01*
X0277929Y0269898D02*
Y0282102D01*
X0277929Y0323248D02*
X0294071D01*
X0277929Y0335453D02*
X0294071D01*
Y0323248D02*
Y0335453D01*
X0277929Y0323248D02*
Y0335453D01*
X0277929Y0296398D02*
X0294071D01*
X0277929Y0308602D02*
X0294071D01*
Y0296398D02*
Y0308602D01*
X0277929Y0296398D02*
Y0308602D01*
X0165433Y0324114D02*
Y0344587D01*
Y0324114D02*
X0194567D01*
Y0344587D01*
X0165433D02*
X0194567D01*
X0186039Y0345559D02*
Y0384142D01*
X0165961D02*
X0186039D01*
X0168717Y0353827D02*
Y0377291D01*
X0165961Y0345559D02*
X0186039D01*
X0165961Y0379909D02*
Y0384142D01*
Y0345559D02*
Y0349791D01*
X0168717D02*
Y0353827D01*
X0165961Y0349791D02*
X0168717D01*
X0165961Y0379909D02*
X0168717D01*
Y0377291D02*
Y0379909D01*
X0545898Y0304118D02*
X0558102D01*
X0545898Y0318882D02*
X0558102D01*
X0545898Y0304118D02*
Y0318882D01*
X0558102Y0304118D02*
Y0318882D01*
X022787Y0391488D02*
Y0396213D01*
X0218224D02*
X022787D01*
X0218224Y0391488D02*
X022787D01*
X0218224D02*
Y0396213D01*
X0339323Y0240138D02*
Y0244862D01*
X0329677D02*
X0339323D01*
X0329677Y0240138D02*
X0339323D01*
X0329677D02*
Y0244862D01*
X0338823Y0369138D02*
Y0373862D01*
X0329177D02*
X0338823D01*
X0329177Y0369138D02*
X0338823D01*
X0329177D02*
Y0373862D01*
X0185488Y0188154D02*
Y0218551D01*
X0146512Y0188154D02*
X0185488D01*
X0146512Y0218551D02*
X0185488D01*
X0146512Y0188154D02*
Y0218551D01*
X0161043Y0293205D02*
Y0312496D01*
X0153957D02*
X0161043D01*
X0153957Y0293205D02*
Y0312496D01*
Y0293205D02*
X0161043D01*
D118*
X021311Y0191D02*
D03*
X021539Y02D02*
D03*
X020174Y02D02*
D03*
X043711Y03655D02*
D03*
X055726Y0283D02*
D03*
X0557244Y0290681D02*
D03*
X055711Y02985D02*
D03*
X069961Y0232D02*
D03*
X068711D02*
D03*
Y02535D02*
D03*
X069961D02*
D03*
Y02755D02*
D03*
X068761D02*
D03*
X069961Y0298D02*
D03*
X068711D02*
D03*
X069961Y03055D02*
D03*
X067589Y03055D02*
D03*
X068824Y0312D02*
D03*
X068711Y0312D02*
D03*
X030389Y0201D02*
D03*
X024511Y03885D02*
D03*
X036239Y0208D02*
D03*
X037361Y0201D02*
D03*
X036224Y02225D02*
D03*
X0373461Y0215D02*
D03*
X036239Y0388D02*
D03*
X037361Y0395D02*
D03*
X036239Y04025D02*
D03*
X037361Y041D02*
D03*
X030389Y0215D02*
D03*
X031511Y0222D02*
D03*
X031511Y0208D02*
D03*
X0303539Y041D02*
D03*
X031461Y0403D02*
D03*
X030324Y0389D02*
D03*
X031461Y0396D02*
D03*
X032839Y025D02*
D03*
Y03645D02*
D03*
X018854Y031985D02*
D03*
X0228461Y038835D02*
D03*
X016239Y031985D02*
D03*
X017554Y031985D02*
D03*
X018804Y034885D02*
D03*
D119*
X02075Y0193658D02*
D03*
Y0188342D02*
D03*
X0221Y0197343D02*
D03*
Y0202658D02*
D03*
X020735D02*
D03*
Y0197343D02*
D03*
X04315Y0362842D02*
D03*
Y0368158D02*
D03*
X055165Y0280343D02*
D03*
Y0285657D02*
D03*
X0551634Y0288023D02*
D03*
Y0293338D02*
D03*
X05515Y0295843D02*
D03*
Y0301157D02*
D03*
X0694Y0229343D02*
D03*
Y0234658D02*
D03*
X06815Y0229343D02*
D03*
Y0234658D02*
D03*
Y0250842D02*
D03*
Y0256157D02*
D03*
X0694Y0250842D02*
D03*
Y0256157D02*
D03*
Y0272843D02*
D03*
Y0278157D02*
D03*
X0682Y0272843D02*
D03*
Y0278157D02*
D03*
X0694Y0295342D02*
D03*
Y0300658D02*
D03*
X06815Y0295342D02*
D03*
Y0300658D02*
D03*
X0694Y0302842D02*
D03*
Y0308157D02*
D03*
X06815Y0308157D02*
D03*
Y0302842D02*
D03*
X069385Y0314657D02*
D03*
Y0309343D02*
D03*
X06815Y0309343D02*
D03*
Y0314657D02*
D03*
X03095Y0203658D02*
D03*
Y0198343D02*
D03*
X02395Y0391158D02*
D03*
Y0385842D02*
D03*
X0368Y0205343D02*
D03*
Y0210658D02*
D03*
X0368Y0203658D02*
D03*
Y0198343D02*
D03*
X036785Y0219843D02*
D03*
Y0225157D02*
D03*
X036785Y0217657D02*
D03*
Y0212343D02*
D03*
X0368Y0385343D02*
D03*
Y0390657D02*
D03*
Y0397657D02*
D03*
Y0392343D02*
D03*
Y0399843D02*
D03*
Y0405158D02*
D03*
Y0412657D02*
D03*
Y0407343D02*
D03*
X03095Y0212343D02*
D03*
Y0217657D02*
D03*
Y0224658D02*
D03*
Y0219342D02*
D03*
X03095Y0205343D02*
D03*
Y0210658D02*
D03*
X030915Y0407343D02*
D03*
Y0412657D02*
D03*
X0309Y0405657D02*
D03*
Y0400343D02*
D03*
X030885Y0386343D02*
D03*
Y0391657D02*
D03*
X0309Y0398657D02*
D03*
Y0393342D02*
D03*
X0334Y0247342D02*
D03*
Y0252658D02*
D03*
Y0361842D02*
D03*
Y0367158D02*
D03*
X019415Y0317193D02*
D03*
Y0322508D02*
D03*
X022285Y0391008D02*
D03*
Y0385693D02*
D03*
X0168Y0317193D02*
D03*
Y0322508D02*
D03*
X018115Y0322508D02*
D03*
Y0317193D02*
D03*
X019365Y0351508D02*
D03*
Y0346193D02*
D03*
D120*
X020189Y0191D02*
D03*
X022661Y02D02*
D03*
X0212961Y02D02*
D03*
X042589Y03655D02*
D03*
X0546039Y0283D02*
D03*
X0546024Y0290681D02*
D03*
X054589Y02985D02*
D03*
X068839Y0232D02*
D03*
X067589D02*
D03*
Y02535D02*
D03*
X068839D02*
D03*
Y02755D02*
D03*
X067639D02*
D03*
X068839Y0298D02*
D03*
X067589D02*
D03*
X068839Y03055D02*
D03*
X068711Y03055D02*
D03*
X0699461Y0312D02*
D03*
X067589Y0312D02*
D03*
X031511Y0201D02*
D03*
X023389Y03885D02*
D03*
X037361Y0208D02*
D03*
X036239Y0201D02*
D03*
X0373461Y02225D02*
D03*
X036224Y0215D02*
D03*
X037361Y0388D02*
D03*
X036239Y0395D02*
D03*
X037361Y04025D02*
D03*
X036239Y041D02*
D03*
X031511Y0215D02*
D03*
X030389Y0222D02*
D03*
X030389Y0208D02*
D03*
X031476Y041D02*
D03*
X030339Y0403D02*
D03*
X031446Y0389D02*
D03*
X030339Y0396D02*
D03*
X033961Y025D02*
D03*
Y03645D02*
D03*
X019976Y031985D02*
D03*
X021724Y038835D02*
D03*
X017361Y031985D02*
D03*
X018676D02*
D03*
X019926Y034885D02*
D03*
D121*
X0229476Y0209585D02*
D03*
X0131213Y0368766D02*
D03*
D122*
X0231493Y0215146D02*
D03*
X0129195Y0363205D02*
D03*
D123*
X0233511Y0218D02*
D03*
X0127178Y036035D02*
D03*
D124*
X0231493Y0220854D02*
D03*
X0129195Y0357496D02*
D03*
D125*
X0229476Y0226415D02*
D03*
X0131213Y0351935D02*
D03*
D126*
X02043Y02068D02*
D03*
X02387Y028055D02*
D03*
X02257Y034855D02*
D03*
X0156388Y037155D02*
D03*
D127*
X0218305Y0204024D02*
D03*
D128*
X02043Y02292D02*
D03*
X02163Y028055D02*
D03*
X02033Y034855D02*
D03*
X0156388Y034915D02*
D03*
D129*
X0218305Y0231976D02*
D03*
D130*
X0201524Y021239D02*
D03*
X0159165Y0365961D02*
D03*
D131*
X0199506Y0215146D02*
D03*
D132*
X0197489Y0218D02*
D03*
X01632Y036035D02*
D03*
D133*
X0201524Y022361D02*
D03*
X0159165Y035474D02*
D03*
D134*
X0199506Y0220854D02*
D03*
D135*
X05865Y025139D02*
D03*
X0595Y026261D02*
D03*
X0201Y026689D02*
D03*
X0216Y024374D02*
D03*
X02085Y024074D02*
D03*
X02085Y025374D02*
D03*
Y026689D02*
D03*
X0201Y024074D02*
D03*
X0201Y025374D02*
D03*
X0172Y026239D02*
D03*
X0175Y023874D02*
D03*
X0191Y037189D02*
D03*
X0191Y035739D02*
D03*
X0165Y0301091D02*
D03*
X031Y027039D02*
D03*
X02725D02*
D03*
X031Y032339D02*
D03*
X02725Y032374D02*
D03*
X031Y029689D02*
D03*
X02725Y029689D02*
D03*
X01575Y031374D02*
D03*
D136*
X0583843Y0257D02*
D03*
X0589157D02*
D03*
X0597657D02*
D03*
X0592343D02*
D03*
X0203658Y02725D02*
D03*
X0198343D02*
D03*
X0218657Y024935D02*
D03*
X0213342D02*
D03*
X0211157Y024635D02*
D03*
X0205842D02*
D03*
X0211157Y025935D02*
D03*
X0205842D02*
D03*
X0211157Y02725D02*
D03*
X0205843D02*
D03*
X0203657Y024635D02*
D03*
X0198343D02*
D03*
X0198343Y025935D02*
D03*
X0203658D02*
D03*
X0169343Y0268D02*
D03*
X0174657D02*
D03*
X0172343Y024435D02*
D03*
X0177657D02*
D03*
X0193657Y03775D02*
D03*
X0188342D02*
D03*
X0193657Y0363D02*
D03*
X0188342D02*
D03*
X0167657Y0306701D02*
D03*
X0162343D02*
D03*
X0307343Y0276D02*
D03*
X0312657D02*
D03*
X0269843D02*
D03*
X0275157D02*
D03*
X0307343Y0329D02*
D03*
X0312657D02*
D03*
X0269843Y032935D02*
D03*
X0275157D02*
D03*
X0307343Y03025D02*
D03*
X0312657D02*
D03*
X0269843Y03025D02*
D03*
X0275157D02*
D03*
X0154842Y031935D02*
D03*
X0160158D02*
D03*
D137*
X05865Y026261D02*
D03*
X0595Y025139D02*
D03*
X0201Y027811D02*
D03*
X0216Y0254961D02*
D03*
X02085Y0251961D02*
D03*
Y0264961D02*
D03*
X02085Y027811D02*
D03*
X0201Y0251961D02*
D03*
X0201Y0264961D02*
D03*
X0172Y027361D02*
D03*
X0175Y0249961D02*
D03*
X0191Y038311D02*
D03*
X0191Y036861D02*
D03*
X0165Y0312311D02*
D03*
X031Y028161D02*
D03*
X02725D02*
D03*
X031Y033461D02*
D03*
X02725Y0334961D02*
D03*
X031Y030811D02*
D03*
X02725Y030811D02*
D03*
X01575Y0324961D02*
D03*
D138*
X0230354Y0285344D02*
D03*
X0217354Y0353344D02*
D03*
D139*
X023311Y0283326D02*
D03*
X022011Y0351326D02*
D03*
D140*
X02275Y0287362D02*
D03*
X02145Y0355362D02*
D03*
D141*
X0224646Y0285344D02*
D03*
X0211646Y0353344D02*
D03*
D142*
X022189Y0283326D02*
D03*
X020889Y0351326D02*
D03*
D143*
X0241476Y0266546D02*
D03*
X0228476Y0334545D02*
D03*
D144*
X0213524Y0266546D02*
D03*
X0200524Y0334545D02*
D03*
D145*
X0235915Y0255375D02*
D03*
X0222915Y0323375D02*
D03*
D146*
X0230354Y0253357D02*
D03*
X0217354Y0321357D02*
D03*
D147*
X02275Y0251339D02*
D03*
X02145Y0319339D02*
D03*
D148*
X0224646Y0253357D02*
D03*
X0211646Y0321357D02*
D03*
D149*
X0219085Y0255375D02*
D03*
X0206085Y0323375D02*
D03*
D150*
X0224456Y031435D02*
D03*
X0206544D02*
D03*
X0179056Y024485D02*
D03*
X0196968D02*
D03*
X0214444Y039085D02*
D03*
X0196532D02*
D03*
D151*
X02155Y0310315D02*
D03*
X0188012Y0248886D02*
D03*
X0205488Y0386815D02*
D03*
D152*
X02155Y0318386D02*
D03*
X0188012Y0240815D02*
D03*
X0205488Y0394886D02*
D03*
D153*
X0296268Y0276D02*
D03*
X0258768Y02755D02*
D03*
X0296268Y03295D02*
D03*
X0258768Y0329488D02*
D03*
X0296268Y03025D02*
D03*
X0258768Y0302D02*
D03*
D154*
X03005Y026665D02*
D03*
X0263Y026615D02*
D03*
X03005Y032015D02*
D03*
X0263Y0320138D02*
D03*
X03005Y029315D02*
D03*
X0263Y029265D02*
D03*
D155*
X0304732Y0276984D02*
D03*
X0267232Y0276484D02*
D03*
X0304732Y0330484D02*
D03*
X0267232Y0330472D02*
D03*
X0304732Y0303484D02*
D03*
X0267232Y0302984D02*
D03*
D156*
X0300992Y028535D02*
D03*
X0263492Y028485D02*
D03*
X0300992Y033885D02*
D03*
Y031185D02*
D03*
X0263492Y031135D02*
D03*
D157*
X0303748Y0267634D02*
D03*
X0297252D02*
D03*
Y0284366D02*
D03*
X0266248Y0267134D02*
D03*
X0259752D02*
D03*
Y0283866D02*
D03*
X0303748Y0321134D02*
D03*
X0297252D02*
D03*
Y0337866D02*
D03*
X0266248Y0321122D02*
D03*
X0259752D02*
D03*
Y0337854D02*
D03*
X0303748Y0294134D02*
D03*
X0297252D02*
D03*
Y0310866D02*
D03*
X0266248Y0293634D02*
D03*
X0259752D02*
D03*
Y0310366D02*
D03*
D158*
X030424Y0268618D02*
D03*
X029676Y0268618D02*
D03*
X029676Y0283382D02*
D03*
X026674Y0268118D02*
D03*
X025926Y0268118D02*
D03*
X025926Y0282882D02*
D03*
X030424Y0322118D02*
D03*
X029676Y0322118D02*
D03*
X029676Y0336882D02*
D03*
X026674Y0322106D02*
D03*
X025926Y0322106D02*
D03*
X025926Y033687D02*
D03*
X030424Y0295118D02*
D03*
X029676Y0295118D02*
D03*
X029676Y0309882D02*
D03*
X026674Y0294618D02*
D03*
X025926Y0294618D02*
D03*
X025926Y0309382D02*
D03*
D159*
X0263492Y0338839D02*
D03*
D160*
X01575Y0327406D02*
D03*
Y0345318D02*
D03*
D161*
X0153465Y0336362D02*
D03*
D162*
X0161536Y0336362D02*
D03*
D163*
X0161182Y0357496D02*
D03*
D164*
X0161182Y0363205D02*
D03*
D165*
X0142384Y0346374D02*
D03*
Y0374327D02*
D03*
M02*
