G04*
G04 #@! TF.GenerationSoftware,Altium Limited,Altium Designer,22.0.2 (36)*
G04*
G04 Layer_Color=16711935*
%FSTAX25Y25*%
%MOIN*%
G70*
G04*
G04 #@! TF.SameCoordinates,5FDB733D-D120-4548-BF5C-F3B634D9DF53*
G04*
G04*
G04 #@! TF.FilePolarity,Positive*
G04*
G01*
G75*
%ADD10C,0.01000*%
D10*
X068084Y0169526D02*
X0681849Y0169539D01*
X0682856Y016958D01*
X0683862Y0169649D01*
X0684866Y0169744D01*
X0685867Y0169867D01*
X0686864Y0170016D01*
X0687857Y0170193D01*
X0688844Y0170396D01*
X0689826Y0170626D01*
X0690801Y0170883D01*
X0691769Y0171166D01*
X0692729Y0171475D01*
X069368Y017181D01*
X0694622Y017217D01*
X0695553Y0172556D01*
X0696474Y0172967D01*
X0697383Y0173403D01*
X069828Y0173863D01*
X0699165Y0174347D01*
X0700036Y0174855D01*
X0700893Y0175387D01*
X0701735Y0175941D01*
X0702562Y0176518D01*
X0703372Y0177118D01*
X0704167Y0177739D01*
X0704944Y0178381D01*
X0705704Y0179044D01*
X0706445Y0179728D01*
X0707168Y0180431D01*
X0707871Y0181154D01*
X0708554Y0181895D01*
X0709218Y0182655D01*
X070986Y0183432D01*
X0710481Y0184226D01*
X071108Y0185037D01*
X0711657Y0185864D01*
X0712212Y0186706D01*
X0712743Y0187563D01*
X0713251Y0188434D01*
X0713736Y0189318D01*
X0714196Y0190215D01*
X0714632Y0191125D01*
X0715043Y0192045D01*
X0715428Y0192977D01*
X0715789Y0193919D01*
X0716124Y019487D01*
X0716433Y019583D01*
X0716716Y0196798D01*
X0716972Y0197773D01*
X0717202Y0198754D01*
X0717406Y0199742D01*
X0717582Y0200735D01*
X0717732Y0201732D01*
X0717855Y0202733D01*
X071795Y0203736D01*
X0718018Y0204743D01*
X0718059Y020575D01*
X0718073Y0206758D01*
X0100073Y0206255D02*
X0100086Y020526D01*
X0100127Y0204266D01*
X0100194Y0203274D01*
X0100288Y0202284D01*
X0100409Y0201296D01*
X0100557Y0200313D01*
X0100731Y0199333D01*
X0100932Y0198359D01*
X0101158Y0197391D01*
X0101412Y0196429D01*
X0101691Y0195474D01*
X0101996Y0194527D01*
X0102326Y0193589D01*
X0102681Y019266D01*
X0103062Y0191741D01*
X0103468Y0190833D01*
X0103897Y0189936D01*
X0104351Y0189051D01*
X0104829Y0188178D01*
X010533Y0187319D01*
X0105855Y0186474D01*
X0106402Y0185643D01*
X0106971Y0184827D01*
X0107562Y0184027D01*
X0108175Y0183244D01*
X0108808Y0182477D01*
X0109463Y0181728D01*
X0110137Y0180996D01*
X011083Y0180283D01*
X0111543Y017959D01*
X0112275Y0178915D01*
X0113024Y0178261D01*
X0113791Y0177628D01*
X0114574Y0177015D01*
X0115374Y0176424D01*
X011619Y0175855D01*
X0117021Y0175308D01*
X0117866Y0174783D01*
X0118725Y0174282D01*
X0119598Y0173804D01*
X0120483Y017335D01*
X012138Y017292D01*
X0122288Y0172515D01*
X0123207Y0172134D01*
X0124136Y0171779D01*
X0125074Y0171448D01*
X0126021Y0171144D01*
X0126976Y0170864D01*
X0127938Y0170611D01*
X0128906Y0170384D01*
X012988Y0170184D01*
X013086Y017001D01*
X0131843Y0169862D01*
X0132831Y0169741D01*
X0133821Y0169647D01*
X0134813Y016958D01*
X0135807Y0169539D01*
X0136802Y0169526D01*
X0136572Y0447514D02*
X0135564Y0447494D01*
X0134557Y0447446D01*
X0133551Y0447371D01*
X0132548Y0447269D01*
X0131548Y044714D01*
X0130552Y0446983D01*
X012956Y04468D01*
X0128574Y044659D01*
X0127594Y0446353D01*
X012662Y044609D01*
X0125654Y0445801D01*
X0124696Y0445485D01*
X0123747Y0445144D01*
X0122808Y0444777D01*
X0121879Y0444385D01*
X0120961Y0443968D01*
X0120055Y0443526D01*
X011916Y044306D01*
X0118279Y0442569D01*
X0117412Y0442055D01*
X0116558Y0441518D01*
X011572Y0440958D01*
X0114897Y0440375D01*
X011409Y043977D01*
X01133Y0439144D01*
X0112527Y0438496D01*
X0111771Y0437828D01*
X0111035Y043714D01*
X0110317Y0436432D01*
X0109618Y0435704D01*
X010894Y0434958D01*
X0108282Y0434194D01*
X0107645Y0433413D01*
X0107029Y0432614D01*
X0106435Y0431799D01*
X0105863Y0430968D01*
X0105315Y0430122D01*
X0104789Y0429262D01*
X0104286Y0428387D01*
X0103808Y04275D01*
X0103354Y0426599D01*
X0102924Y0425687D01*
X0102519Y0424763D01*
X010214Y0423829D01*
X0101786Y0422885D01*
X0101457Y0421932D01*
X0101154Y042097D01*
X0100878Y042D01*
X0100628Y0419023D01*
X0100405Y041804D01*
X0100208Y0417051D01*
X0100038Y0416057D01*
X0099895Y0415059D01*
X0099779Y0414057D01*
X009969Y0413052D01*
X0099629Y0412046D01*
X0099595Y0411038D01*
X0099588Y041003D01*
X0718073Y0409797D02*
X0718059Y0410801D01*
X0718019Y0411805D01*
X0717952Y0412807D01*
X0717859Y0413807D01*
X0717739Y0414804D01*
X0717592Y0415798D01*
X0717419Y0416787D01*
X071722Y0417772D01*
X0716995Y0418751D01*
X0716744Y0419723D01*
X0716466Y0420689D01*
X0716164Y0421646D01*
X0715836Y0422596D01*
X0715482Y0423536D01*
X0715104Y0424467D01*
X0714701Y0425387D01*
X0714274Y0426296D01*
X0713823Y0427193D01*
X0713348Y0428078D01*
X0712849Y0428951D01*
X0712328Y0429809D01*
X0711784Y0430653D01*
X0711217Y0431483D01*
X0710629Y0432297D01*
X071002Y0433095D01*
X0709389Y0433877D01*
X0708738Y0434642D01*
X0708066Y0435389D01*
X0707375Y0436118D01*
X0706665Y0436828D01*
X0705936Y0437519D01*
X0705189Y0438191D01*
X0704424Y0438842D01*
X0703642Y0439473D01*
X0702844Y0440082D01*
X070203Y044067D01*
X07012Y0441237D01*
X0700356Y0441781D01*
X0699498Y0442302D01*
X0698625Y0442801D01*
X069774Y0443276D01*
X0696843Y0443727D01*
X0695934Y0444154D01*
X0695014Y0444557D01*
X0694083Y0444935D01*
X0693143Y0445288D01*
X0692194Y0445617D01*
X0691236Y0445919D01*
X069027Y0446197D01*
X0689298Y0446448D01*
X0688319Y0446673D01*
X0687334Y0446872D01*
X0686345Y0447045D01*
X0685351Y0447192D01*
X0684354Y0447312D01*
X0683354Y0447405D01*
X0682352Y0447472D01*
X0681348Y0447512D01*
X0680344Y0447526D01*
X0136572Y0447514D02*
X0680344Y0447526D01*
X0137073Y0169526D02*
X0681073Y0169526D01*
X0099588Y041003D02*
X0100073Y0206265D01*
X0718073Y0206758D02*
Y0409797D01*
X0718Y0409771D02*
X0717987Y0410775D01*
X0717946Y0411779D01*
X071788Y0412781D01*
X0717786Y0413781D01*
X0717666Y0414779D01*
X071752Y0415772D01*
X0717347Y0416762D01*
X0717147Y0417746D01*
X0716922Y0418725D01*
X0716671Y0419698D01*
X0716394Y0420663D01*
X0716091Y0421621D01*
X0715763Y042257D01*
X0715409Y042351D01*
X0715031Y0424441D01*
X0714628Y0425361D01*
X0714201Y042627D01*
X071375Y0427168D01*
X0713275Y0428053D01*
X0712777Y0428925D01*
X0712255Y0429783D01*
X0711711Y0430628D01*
X0711145Y0431457D01*
X0710557Y0432271D01*
X0709947Y043307D01*
X0709316Y0433851D01*
X0708665Y0434616D01*
X0707993Y0435363D01*
X0707302Y0436092D01*
X0706592Y0436802D01*
X0705863Y0437493D01*
X0705116Y0438165D01*
X0704351Y0438816D01*
X070357Y0439447D01*
X0702771Y0440057D01*
X0701957Y0440645D01*
X0701128Y0441211D01*
X0700283Y0441755D01*
X0699425Y0442277D01*
X0698553Y0442775D01*
X0697668Y044325D01*
X069677Y0443701D01*
X0695861Y0444128D01*
X0694941Y0444531D01*
X069401Y0444909D01*
X069307Y0445263D01*
X0692121Y0445591D01*
X0691163Y0445894D01*
X0690198Y0446171D01*
X0689225Y0446422D01*
X0688246Y0446647D01*
X0687262Y0446847D01*
X0686272Y044702D01*
X0685279Y0447166D01*
X0684281Y0447286D01*
X0683281Y044738D01*
X0682279Y0447446D01*
X0681275Y0447487D01*
X0680271Y04475D01*
X01365Y0447488D02*
X0135491Y0447468D01*
X0134484Y044742D01*
X0133478Y0447345D01*
X0132475Y0447243D01*
X0131475Y0447114D01*
X0130479Y0446957D01*
X0129487Y0446774D01*
X0128501Y0446564D01*
X0127521Y0446327D01*
X0126547Y0446064D01*
X0125581Y0445775D01*
X0124624Y0445459D01*
X0123675Y0445118D01*
X0122735Y0444751D01*
X0121806Y0444359D01*
X0120888Y0443942D01*
X0119982Y04435D01*
X0119088Y0443034D01*
X0118206Y0442544D01*
X0117339Y044203D01*
X0116486Y0441492D01*
X0115647Y0440932D01*
X0114824Y0440349D01*
X0114017Y0439745D01*
X0113227Y0439118D01*
X0112454Y0438471D01*
X0111699Y0437803D01*
X0110962Y0437114D01*
X0110244Y0436406D01*
X0109546Y0435678D01*
X0108867Y0434933D01*
X0108209Y0434168D01*
X0107572Y0433387D01*
X0106956Y0432588D01*
X0106362Y0431773D01*
X0105791Y0430942D01*
X0105242Y0430096D01*
X0104716Y0429236D01*
X0104214Y0428362D01*
X0103735Y0427474D01*
X0103281Y0426574D01*
X0102851Y0425661D01*
X0102447Y0424738D01*
X0102067Y0423803D01*
X0101713Y0422859D01*
X0101384Y0421906D01*
X0101082Y0420944D01*
X0100805Y0419974D01*
X0100555Y0418997D01*
X0100332Y0418014D01*
X0100135Y0417025D01*
X0099965Y0416031D01*
X0099822Y0415033D01*
X0099706Y0414031D01*
X0099617Y0413027D01*
X0099556Y041202D01*
X0099522Y0411012D01*
X0099515Y0410004D01*
X01Y0206229D02*
X0100013Y0205234D01*
X0100054Y0204241D01*
X0100121Y0203248D01*
X0100215Y0202258D01*
X0100336Y0201271D01*
X0100484Y0200287D01*
X0100658Y0199308D01*
X0100859Y0198333D01*
X0101086Y0197365D01*
X0101339Y0196403D01*
X0101618Y0195448D01*
X0101923Y0194501D01*
X0102253Y0193563D01*
X0102609Y0192634D01*
X0102989Y0191715D01*
X0103395Y0190807D01*
X0103824Y018991D01*
X0104279Y0189025D01*
X0104756Y0188152D01*
X0105257Y0187293D01*
X0105782Y0186448D01*
X0106329Y0185617D01*
X0106898Y0184801D01*
X0107489Y0184002D01*
X0108102Y0183218D01*
X0108736Y0182451D01*
X010939Y0181702D01*
X0110064Y0180971D01*
X0110758Y0180258D01*
X011147Y0179564D01*
X0112202Y017889D01*
X0112951Y0178235D01*
X0113718Y0177602D01*
X0114502Y0176989D01*
X0115302Y0176398D01*
X0116117Y0175829D01*
X0116948Y0175282D01*
X0117793Y0174758D01*
X0118652Y0174256D01*
X0119525Y0173778D01*
X012041Y0173325D01*
X0121307Y0172895D01*
X0122215Y0172489D01*
X0123134Y0172109D01*
X0124063Y0171753D01*
X0125002Y0171423D01*
X0125948Y0171118D01*
X0126903Y0170839D01*
X0127865Y0170586D01*
X0128833Y0170359D01*
X0129808Y0170158D01*
X0130787Y0169984D01*
X0131771Y0169836D01*
X0132758Y0169715D01*
X0133748Y0169621D01*
X0134741Y0169554D01*
X0135734Y0169513D01*
X0136729Y01695D01*
X0680768D02*
X0681776Y0169514D01*
X0682783Y0169555D01*
X0683789Y0169623D01*
X0684793Y0169718D01*
X0685794Y0169841D01*
X0686791Y0169991D01*
X0687784Y0170167D01*
X0688771Y017037D01*
X0689753Y01706D01*
X0690728Y0170857D01*
X0691696Y017114D01*
X0692656Y0171449D01*
X0693607Y0171784D01*
X0694549Y0172144D01*
X069548Y017253D01*
X0696401Y0172941D01*
X069731Y0173377D01*
X0698208Y0173837D01*
X0699092Y0174321D01*
X0699963Y017483D01*
X070082Y0175361D01*
X0701662Y0175916D01*
X0702489Y0176493D01*
X07033Y0177092D01*
X0704094Y0177713D01*
X0704871Y0178355D01*
X0705631Y0179018D01*
X0706372Y0179702D01*
X0707095Y0180405D01*
X0707798Y0181128D01*
X0708482Y0181869D01*
X0709145Y0182629D01*
X0709787Y0183406D01*
X0710408Y01842D01*
X0711007Y0185011D01*
X0711585Y0185838D01*
X0712139Y018668D01*
X0712671Y0187537D01*
X0713179Y0188408D01*
X0713663Y0189293D01*
X0714123Y019019D01*
X0714559Y0191099D01*
X071497Y019202D01*
X0715356Y0192951D01*
X0715716Y0193893D01*
X0716051Y0194844D01*
X071636Y0195804D01*
X0716643Y0196772D01*
X0716899Y0197747D01*
X071713Y0198729D01*
X0717333Y0199716D01*
X071751Y0200709D01*
X0717659Y0201706D01*
X0717782Y0202707D01*
X0717877Y0203711D01*
X0717945Y0204717D01*
X0717986Y0205724D01*
X0718Y0206732D01*
Y0409771D01*
X0099515Y0410004D02*
X01Y0206239D01*
X0137Y01695D02*
X0681Y01695D01*
X01365Y0447488D02*
X0680271Y04475D01*
M02*
