M48
;Layer_Color=9474304
;FILE_FORMAT=2:5
INCH,LZ
;TYPE=PLATED
T1F00S00C0.02756
T2F00S00C0.02800
T3F00S00C0.03543
T4F00S00C0.04724
T6F00S00C0.10236
T7F00S00C0.12500
%
T01
X0176Y035485
Y036485
Y037485
T02
X06465Y02155
X0667805Y0197547
X0674629Y0204371
X0689025Y0196957
X0695Y01975
X0701Y02425
X0673Y02755
X06695Y029
X0664Y02855
X06575Y0298091
X06695Y031
X0650774Y0274194
X0646774Y02685
X0626814Y0239674
X0602Y02465
X0594646Y0240146
X05995Y02
X0593Y01955
X0583Y019
X05275
X0504Y0195
X04985Y01995
X0522024Y0264495
X0555Y0272
X0532547Y0311834
X0457Y0307
X0459Y02675
Y02585
Y02495
Y02415
X03765Y0216
X03245Y0215
Y0222
X03185Y0208
Y0201
X0331Y0264
X0326Y0272
X04Y0307
X0281Y0268698
X02835Y02315
X02535
X0243Y0246
X024Y02015
X02325Y01995
X0204Y01745
X02505Y02895
Y0299
X02035Y03195
X0176Y0385
X0345582Y0385034
X03455Y0379035
X034557Y0373035
X03455Y0367
X0377Y0386
Y03925
X0445Y0382
X0451843Y0382157
X04685Y03675
Y03575
X0450328Y0347672
X044025Y034775
X042875
X041825
X04Y03365
Y0327
Y03175
X0457Y0317
X0456918Y0327
X0457Y03375
X04965Y0352
X0521Y0348
X0553Y03415
X0556Y03565
X0561Y0361
X0593Y03595
X0602
X06125
X0621
X06195Y0401
X06095
X05995
X05895
X058Y04235
X05695Y0423
X05265Y04285
X05175Y0432
X0507Y0436
X0492Y0423
X05465Y0322
X06635
X06765Y03465
Y03615
X0703162Y0377535
X07025Y0385
X0703162Y0397218
X06895Y0408
X0688Y0414
X0662Y0406
X0650078Y0390922
T03
X0626Y0198
X0636
X0646
X0656
Y0208
X0646
X0636
X0626
X0627Y02225
X0637
X0647
X0657
X0667
Y02325
Y02425
Y02525
Y02625
Y02725
X0657
Y02625
Y02525
Y02425
Y02325
X0647
X0637
X0627
X0617
Y02225
X0607
Y02325
X0597
Y02225
X0587
Y02325
X0577
Y02225
X0567
Y02325
X0557
Y02225
X0547
Y02325
X0537
Y02225
X0527
Y02325
X0517
Y02225
X0507
Y02325
X0497
Y02225
X0487
Y02325
Y02425
Y02525
Y02625
Y02725
Y02825
Y02925
Y03025
X0477
Y02925
Y02825
Y02725
Y02625
Y02525
Y02425
Y02325
Y02225
Y0208
X0487
X0503
X0513
X0523
X0533
X0543
X0553
X0616
Y0198
X05855Y0292158
Y0311842
X0477Y01955
X0467
X0457
Y0208
X0467
X0445303Y02065
X0435303
X0425303
Y02165
X0435303
X0445303
X0405
X0395
X0385
Y02065
X0395
X0405
X0353
Y02165
X0343
Y02065
X0333
Y02165
X0359Y02575
X0369
X0379
X0389
X0399
X0409
X0369Y0272
X0359
Y0282
X0369
Y0292
X0359
Y0302
X0369
Y0312
X0359
X03085Y0257
X02985
X02885
X02785
X02685
X02585
X0275Y02165
Y02065
X0285
Y02165
X0295
Y02065
X02985Y0357
X03085
X02885
X02785
X02685
X02585
X02585Y037735
X02685
X02785
X02885
X02985
X03085
X0295Y0395
X0285
X0275
Y0405
X0285
X0295
X02215Y040585
X02115
X02015
X0332Y0405
X0342
X0352
Y0395
X0342
X0332
X0359Y03775
X0369
X0379
X0389
X0399
X0409
Y03575
X0399
X0389
X0379
X0369
X0359
Y0342
Y0332
Y0322
X0369
Y0332
Y0342
X0385Y0395
Y0405
X0395
Y0395
X0405
Y0405
X04255
Y0395
X04355
Y0405
X04455
Y0395
X0482Y03985
X0492
X0502
X0512
X0522
X0532
X0542
X0552
Y04085
X0542
X0532
X0522
X0512
X0502
X0492
X0482
X0487Y03825
Y03725
X0477
Y03825
Y03625
X0487
Y03525
X0477
Y03425
X0487
Y03325
X0477
Y03225
X0487
Y03125
X0477
X0497Y03725
Y03825
X0507
Y03725
X0517
Y03825
X0527
Y03725
X0537
Y03825
X0547
Y03725
X0557
Y03825
X0567
Y03725
X0577
Y03825
X0587
Y03725
X0597
Y03825
X0607
Y03725
X0617
Y03825
X06195Y04085
X06095
X05995
X05895
X05795
X05695
X06295
X06395
X0637Y03825
X0627
Y03725
X0637
X0647
Y03825
X0657
Y03725
X0667
Y03825
X0683Y03815
Y03915
Y04015
X0693
Y03915
Y03815
Y03715
X0683
Y0354
X0693
X0667Y03525
Y03625
X0657
Y03525
Y03425
X0667
Y03325
X0657
X0683Y0324
X0693
T04
X0175842Y019985
X0156158
X0156315Y040385
X0176
T06
X0132Y0229484
Y025035
T07
X02405Y0331
X05755
M30
