G04*
G04 #@! TF.GenerationSoftware,Altium Limited,Altium Designer,22.0.2 (36)*
G04*
G04 Layer_Color=0*
%FSTAX25Y25*%
%MOIN*%
G70*
G04*
G04 #@! TF.SameCoordinates,5FDB733D-D120-4548-BF5C-F3B634D9DF53*
G04*
G04*
G04 #@! TF.FilePolarity,Positive*
G04*
G01*
G75*
%ADD10C,0.01000*%
%ADD114C,0.00394*%
%ADD117C,0.00197*%
%ADD166C,0.00100*%
D10*
X0718Y0409771D02*
X0717987Y0410775D01*
X0717946Y0411779D01*
X071788Y0412781D01*
X0717786Y0413781D01*
X0717666Y0414779D01*
X071752Y0415772D01*
X0717347Y0416762D01*
X0717147Y0417746D01*
X0716922Y0418725D01*
X0716671Y0419698D01*
X0716394Y0420663D01*
X0716091Y0421621D01*
X0715763Y042257D01*
X0715409Y042351D01*
X0715031Y0424441D01*
X0714628Y0425361D01*
X0714201Y042627D01*
X071375Y0427168D01*
X0713275Y0428053D01*
X0712777Y0428925D01*
X0712255Y0429783D01*
X0711711Y0430628D01*
X0711145Y0431457D01*
X0710557Y0432271D01*
X0709947Y043307D01*
X0709316Y0433851D01*
X0708665Y0434616D01*
X0707993Y0435363D01*
X0707302Y0436092D01*
X0706592Y0436802D01*
X0705863Y0437493D01*
X0705116Y0438165D01*
X0704351Y0438816D01*
X070357Y0439447D01*
X0702771Y0440057D01*
X0701957Y0440645D01*
X0701128Y0441211D01*
X0700283Y0441755D01*
X0699425Y0442277D01*
X0698553Y0442775D01*
X0697668Y044325D01*
X069677Y0443701D01*
X0695861Y0444128D01*
X0694941Y0444531D01*
X069401Y0444909D01*
X069307Y0445263D01*
X0692121Y0445591D01*
X0691163Y0445894D01*
X0690198Y0446171D01*
X0689225Y0446422D01*
X0688246Y0446647D01*
X0687262Y0446847D01*
X0686272Y044702D01*
X0685279Y0447166D01*
X0684281Y0447286D01*
X0683281Y044738D01*
X0682279Y0447446D01*
X0681275Y0447487D01*
X0680271Y04475D01*
X01365Y0447488D02*
X0135491Y0447468D01*
X0134484Y044742D01*
X0133478Y0447345D01*
X0132475Y0447243D01*
X0131475Y0447114D01*
X0130479Y0446957D01*
X0129487Y0446774D01*
X0128501Y0446564D01*
X0127521Y0446327D01*
X0126547Y0446064D01*
X0125581Y0445775D01*
X0124624Y0445459D01*
X0123675Y0445118D01*
X0122735Y0444751D01*
X0121806Y0444359D01*
X0120888Y0443942D01*
X0119982Y04435D01*
X0119088Y0443034D01*
X0118206Y0442544D01*
X0117339Y044203D01*
X0116486Y0441492D01*
X0115647Y0440932D01*
X0114824Y0440349D01*
X0114017Y0439745D01*
X0113227Y0439118D01*
X0112454Y0438471D01*
X0111699Y0437803D01*
X0110962Y0437114D01*
X0110244Y0436406D01*
X0109546Y0435678D01*
X0108867Y0434933D01*
X0108209Y0434168D01*
X0107572Y0433387D01*
X0106956Y0432588D01*
X0106362Y0431773D01*
X0105791Y0430942D01*
X0105242Y0430096D01*
X0104716Y0429236D01*
X0104214Y0428362D01*
X0103735Y0427474D01*
X0103281Y0426574D01*
X0102851Y0425661D01*
X0102447Y0424738D01*
X0102067Y0423803D01*
X0101713Y0422859D01*
X0101384Y0421906D01*
X0101082Y0420944D01*
X0100805Y0419974D01*
X0100555Y0418997D01*
X0100332Y0418014D01*
X0100135Y0417025D01*
X0099965Y0416031D01*
X0099822Y0415033D01*
X0099706Y0414031D01*
X0099617Y0413027D01*
X0099556Y041202D01*
X0099522Y0411012D01*
X0099515Y0410004D01*
X01Y0206229D02*
X0100013Y0205234D01*
X0100054Y0204241D01*
X0100121Y0203248D01*
X0100215Y0202258D01*
X0100336Y0201271D01*
X0100484Y0200287D01*
X0100658Y0199308D01*
X0100859Y0198333D01*
X0101086Y0197365D01*
X0101339Y0196403D01*
X0101618Y0195448D01*
X0101923Y0194501D01*
X0102253Y0193563D01*
X0102609Y0192634D01*
X0102989Y0191715D01*
X0103395Y0190807D01*
X0103824Y018991D01*
X0104279Y0189025D01*
X0104756Y0188152D01*
X0105257Y0187293D01*
X0105782Y0186448D01*
X0106329Y0185617D01*
X0106898Y0184801D01*
X0107489Y0184002D01*
X0108102Y0183218D01*
X0108736Y0182451D01*
X010939Y0181702D01*
X0110064Y0180971D01*
X0110758Y0180258D01*
X011147Y0179564D01*
X0112202Y017889D01*
X0112951Y0178235D01*
X0113718Y0177602D01*
X0114502Y0176989D01*
X0115302Y0176398D01*
X0116117Y0175829D01*
X0116948Y0175282D01*
X0117793Y0174758D01*
X0118652Y0174256D01*
X0119525Y0173778D01*
X012041Y0173325D01*
X0121307Y0172895D01*
X0122215Y0172489D01*
X0123134Y0172109D01*
X0124063Y0171753D01*
X0125002Y0171423D01*
X0125948Y0171118D01*
X0126903Y0170839D01*
X0127865Y0170586D01*
X0128833Y0170359D01*
X0129808Y0170158D01*
X0130787Y0169984D01*
X0131771Y0169836D01*
X0132758Y0169715D01*
X0133748Y0169621D01*
X0134741Y0169554D01*
X0135734Y0169513D01*
X0136729Y01695D01*
X0680768D02*
X0681776Y0169514D01*
X0682783Y0169555D01*
X0683789Y0169623D01*
X0684793Y0169718D01*
X0685794Y0169841D01*
X0686791Y0169991D01*
X0687784Y0170167D01*
X0688771Y017037D01*
X0689753Y01706D01*
X0690728Y0170857D01*
X0691696Y017114D01*
X0692656Y0171449D01*
X0693607Y0171784D01*
X0694549Y0172144D01*
X069548Y017253D01*
X0696401Y0172941D01*
X069731Y0173377D01*
X0698208Y0173837D01*
X0699092Y0174321D01*
X0699963Y017483D01*
X070082Y0175361D01*
X0701662Y0175916D01*
X0702489Y0176493D01*
X07033Y0177092D01*
X0704094Y0177713D01*
X0704871Y0178355D01*
X0705631Y0179018D01*
X0706372Y0179702D01*
X0707095Y0180405D01*
X0707798Y0181128D01*
X0708482Y0181869D01*
X0709145Y0182629D01*
X0709787Y0183406D01*
X0710408Y01842D01*
X0711007Y0185011D01*
X0711585Y0185838D01*
X0712139Y018668D01*
X0712671Y0187537D01*
X0713179Y0188408D01*
X0713663Y0189293D01*
X0714123Y019019D01*
X0714559Y0191099D01*
X071497Y019202D01*
X0715356Y0192951D01*
X0715716Y0193893D01*
X0716051Y0194844D01*
X071636Y0195804D01*
X0716643Y0196772D01*
X0716899Y0197747D01*
X071713Y0198729D01*
X0717333Y0199716D01*
X071751Y0200709D01*
X0717659Y0201706D01*
X0717782Y0202707D01*
X0717877Y0203711D01*
X0717945Y0204717D01*
X0717986Y0205724D01*
X0718Y0206732D01*
Y0409771D01*
X0099515Y0410004D02*
X01Y0206239D01*
X0137Y01695D02*
X0681Y01695D01*
X01365Y0447488D02*
X0680271Y04475D01*
D114*
X0168126Y040385D02*
X0167862Y0404835D01*
X0167142Y0405555D01*
X0166157Y0405819D01*
X0165173Y0405555D01*
X0164453Y0404835D01*
X0164189Y040385D01*
X0164453Y0402866D01*
X0165173Y0402146D01*
X0166157Y0401882D01*
X0167142Y0402146D01*
X0167862Y0402866D01*
X0168126Y040385D01*
X0586602Y0302D02*
X0586187Y0302862D01*
X0585255Y0303075D01*
X0584507Y0302478D01*
Y0301522D01*
X0585255Y0300925D01*
X0586187Y0301138D01*
X0586602Y0302D01*
X0213469Y040585D02*
X0213205Y0406835D01*
X0212484Y0407555D01*
X02115Y0407819D01*
X0210516Y0407555D01*
X0209795Y0406835D01*
X0209531Y040585D01*
X0209795Y0404866D01*
X0210516Y0404146D01*
X02115Y0403882D01*
X0212484Y0404146D01*
X0213205Y0404866D01*
X0213469Y040585D01*
X0134968Y031935D02*
X0134705Y0320335D01*
X0133984Y0321055D01*
X0133Y0321319D01*
X0132016Y0321055D01*
X0131295Y0320335D01*
X0131032Y031935D01*
X0131295Y0318366D01*
X0132016Y0317646D01*
X0133Y0317382D01*
X0133984Y0317646D01*
X0134705Y0318366D01*
X0134968Y031935D01*
X0217469Y0218D02*
X0217205Y0218984D01*
X0216484Y0219705D01*
X02155Y0219969D01*
X0214516Y0219705D01*
X0213795Y0218984D01*
X0213531Y0218D01*
X0213795Y0217016D01*
X0214516Y0216295D01*
X02155Y0216032D01*
X0216484Y0216295D01*
X0217205Y0217016D01*
X0217469Y0218D01*
X0468968Y01955D02*
X0468705Y0196484D01*
X0467984Y0197205D01*
X0467Y0197468D01*
X0466016Y0197205D01*
X0465295Y0196484D01*
X0465031Y01955D01*
X0465295Y0194516D01*
X0466016Y0193795D01*
X0467Y0193532D01*
X0467984Y0193795D01*
X0468705Y0194516D01*
X0468968Y01955D01*
X0473969Y0208D02*
X0473705Y0208984D01*
X0472984Y0209705D01*
X0472Y0209968D01*
X0471016Y0209705D01*
X0470295Y0208984D01*
X0470031Y0208D01*
X0470295Y0207016D01*
X0471016Y0206295D01*
X0472Y0206031D01*
X0472984Y0206295D01*
X0473705Y0207016D01*
X0473969Y0208D01*
X0365968Y0307D02*
X0365705Y0307984D01*
X0364984Y0308705D01*
X0364Y0308968D01*
X0363016Y0308705D01*
X0362295Y0307984D01*
X0362032Y0307D01*
X0362295Y0306016D01*
X0363016Y0305295D01*
X0364Y0305031D01*
X0364984Y0305295D01*
X0365705Y0306016D01*
X0365968Y0307D01*
X0688969Y02425D02*
X0688705Y0243484D01*
X0687984Y0244205D01*
X0687Y0244468D01*
X0686016Y0244205D01*
X0685295Y0243484D01*
X0685032Y02425D01*
X0685295Y0241516D01*
X0686016Y0240795D01*
X0687Y0240531D01*
X0687984Y0240795D01*
X0688705Y0241516D01*
X0688969Y02425D01*
Y02215D02*
X0688705Y0222484D01*
X0687984Y0223205D01*
X0687Y0223468D01*
X0686016Y0223205D01*
X0685295Y0222484D01*
X0685032Y02215D01*
X0685295Y0220516D01*
X0686016Y0219795D01*
X0687Y0219531D01*
X0687984Y0219795D01*
X0688705Y0220516D01*
X0688969Y02215D01*
Y02645D02*
X0688705Y0265484D01*
X0687984Y0266205D01*
X0687Y0266469D01*
X0686016Y0266205D01*
X0685295Y0265484D01*
X0685032Y02645D01*
X0685295Y0263516D01*
X0686016Y0262795D01*
X0687Y0262531D01*
X0687984Y0262795D01*
X0688705Y0263516D01*
X0688969Y02645D01*
X0689094Y0286169D02*
X0688831Y0287154D01*
X068811Y0287874D01*
X0687126Y0288138D01*
X0686142Y0287874D01*
X0685421Y0287154D01*
X0685157Y0286169D01*
X0685421Y0285185D01*
X0686142Y0284465D01*
X0687126Y0284201D01*
X068811Y0284465D01*
X0688831Y0285185D01*
X0689094Y0286169D01*
X0689968Y0339D02*
X0689705Y0339984D01*
X0688984Y0340705D01*
X0688Y0340968D01*
X0687016Y0340705D01*
X0686295Y0339984D01*
X0686031Y0339D01*
X0686295Y0338016D01*
X0687016Y0337295D01*
X0688Y0337032D01*
X0688984Y0337295D01*
X0689705Y0338016D01*
X0689968Y0339D01*
X0437272Y02115D02*
X0437008Y0212484D01*
X0436287Y0213204D01*
X0435303Y0213468D01*
X0434319Y0213204D01*
X0433598Y0212484D01*
X0433335Y02115D01*
X0433598Y0210515D01*
X0434319Y0209795D01*
X0435303Y0209531D01*
X0436287Y0209795D01*
X0437008Y0210515D01*
X0437272Y02115D01*
X0229468Y026935D02*
X0229205Y0270335D01*
X0228484Y0271055D01*
X02275Y0271319D01*
X0226516Y0271055D01*
X0225795Y0270335D01*
X0225532Y026935D01*
X0225795Y0268366D01*
X0226516Y0267646D01*
X02275Y0267382D01*
X0228484Y0267646D01*
X0229205Y0268366D01*
X0229468Y026935D01*
X0138075Y027735D02*
X0137811Y0278335D01*
X0137091Y0279055D01*
X0136106Y0279319D01*
X0135122Y0279055D01*
X0134402Y0278335D01*
X0134138Y027735D01*
X0134402Y0276366D01*
X0135122Y0275646D01*
X0136106Y0275382D01*
X0137091Y0275646D01*
X0137811Y0276366D01*
X0138075Y027735D01*
X0344969Y02115D02*
X0344705Y0212485D01*
X0343984Y0213205D01*
X0343Y0213469D01*
X0342016Y0213205D01*
X0341295Y0212485D01*
X0341032Y02115D01*
X0341295Y0210516D01*
X0342016Y0209796D01*
X0343Y0209532D01*
X0343984Y0209796D01*
X0344705Y0210516D01*
X0344969Y02115D01*
X0343969Y04D02*
X0343705Y0400985D01*
X0342984Y0401705D01*
X0342Y0401969D01*
X0341016Y0401705D01*
X0340295Y0400985D01*
X0340032Y04D01*
X0340295Y0399016D01*
X0341016Y0398296D01*
X0342Y0398032D01*
X0342984Y0398296D01*
X0343705Y0399016D01*
X0343969Y04D01*
X0529969Y0208D02*
X0529705Y0208984D01*
X0528985Y0209705D01*
X0528Y0209968D01*
X0527016Y0209705D01*
X0526296Y0208984D01*
X0526032Y0208D01*
X0526296Y0207016D01*
X0527016Y0206295D01*
X0528Y0206031D01*
X0528985Y0206295D01*
X0529705Y0207016D01*
X0529969Y0208D01*
X0437468Y04D02*
X0437205Y0400984D01*
X0436484Y0401704D01*
X04355Y0401968D01*
X0434516Y0401704D01*
X0433795Y0400984D01*
X0433532Y04D01*
X0433795Y0399015D01*
X0434516Y0398295D01*
X04355Y0398031D01*
X0436484Y0398295D01*
X0437205Y0399015D01*
X0437468Y04D01*
X0396969Y02115D02*
X0396705Y0212484D01*
X0395984Y0213204D01*
X0395Y0213468D01*
X0394016Y0213204D01*
X0393295Y0212484D01*
X0393032Y02115D01*
X0393295Y0210515D01*
X0394016Y0209795D01*
X0395Y0209531D01*
X0395984Y0209795D01*
X0396705Y0210515D01*
X0396969Y02115D01*
Y04D02*
X0396705Y0400984D01*
X0395984Y0401704D01*
X0395Y0401968D01*
X0394016Y0401704D01*
X0393295Y0400984D01*
X0393032Y04D01*
X0393295Y0399015D01*
X0394016Y0398295D01*
X0395Y0398031D01*
X0395984Y0398295D01*
X0396705Y0399015D01*
X0396969Y04D01*
X0637968Y0203D02*
X0637705Y0203984D01*
X0636984Y0204704D01*
X0636Y0204968D01*
X0635016Y0204704D01*
X0634295Y0203984D01*
X0634031Y0203D01*
X0634295Y0202015D01*
X0635016Y0201295D01*
X0636Y0201031D01*
X0636984Y0201295D01*
X0637705Y0202015D01*
X0637968Y0203D01*
X0689968Y03865D02*
X0689705Y0387484D01*
X0688984Y0388205D01*
X0688Y0388469D01*
X0687016Y0388205D01*
X0686295Y0387484D01*
X0686031Y03865D01*
X0686295Y0385516D01*
X0687016Y0384795D01*
X0688Y0384531D01*
X0688984Y0384795D01*
X0689705Y0385516D01*
X0689968Y03865D01*
X0385969Y03775D02*
X0385705Y0378484D01*
X0384985Y0379205D01*
X0384Y0379468D01*
X0383016Y0379205D01*
X0382296Y0378484D01*
X0382032Y03775D01*
X0382296Y0376516D01*
X0383016Y0375795D01*
X0384Y0375532D01*
X0384985Y0375795D01*
X0385705Y0376516D01*
X0385969Y03775D01*
X0285469Y037735D02*
X0285205Y0378335D01*
X0284485Y0379055D01*
X02835Y0379319D01*
X0282516Y0379055D01*
X0281796Y0378335D01*
X0281532Y037735D01*
X0281796Y0376366D01*
X0282516Y0375646D01*
X02835Y0375382D01*
X0284485Y0375646D01*
X0285205Y0376366D01*
X0285469Y037735D01*
X0286968Y02115D02*
X0286705Y0212484D01*
X0285984Y0213204D01*
X0285Y0213468D01*
X0284016Y0213204D01*
X0283295Y0212484D01*
X0283032Y02115D01*
X0283295Y0210515D01*
X0284016Y0209795D01*
X0285Y0209531D01*
X0285984Y0209795D01*
X0286705Y0210515D01*
X0286968Y02115D01*
Y04D02*
X0286705Y0400984D01*
X0285984Y0401704D01*
X0285Y0401968D01*
X0284016Y0401704D01*
X0283295Y0400984D01*
X0283032Y04D01*
X0283295Y0399015D01*
X0284016Y0398295D01*
X0285Y0398031D01*
X0285984Y0398295D01*
X0286705Y0399015D01*
X0286968Y04D01*
X0606469Y04085D02*
X0606205Y0409484D01*
X0605484Y0410205D01*
X06045Y0410468D01*
X0603516Y0410205D01*
X0602795Y0409484D01*
X0602532Y04085D01*
X0602795Y0407516D01*
X0603516Y0406795D01*
X06045Y0406531D01*
X0605484Y0406795D01*
X0606205Y0407516D01*
X0606469Y04085D01*
X0518968Y04035D02*
X0518705Y0404484D01*
X0517984Y0405205D01*
X0517Y0405469D01*
X0516016Y0405205D01*
X0515295Y0404484D01*
X0515031Y04035D01*
X0515295Y0402516D01*
X0516016Y0401795D01*
X0517Y0401532D01*
X0517984Y0401795D01*
X0518705Y0402516D01*
X0518968Y04035D01*
X0167968Y019985D02*
X0167705Y0200835D01*
X0166984Y0201555D01*
X0166Y0201819D01*
X0165016Y0201555D01*
X0164295Y0200835D01*
X0164032Y019985D01*
X0164295Y0198866D01*
X0165016Y0198146D01*
X0166Y0197882D01*
X0166984Y0198146D01*
X0167705Y0198866D01*
X0167968Y019985D01*
X0133968Y0239917D02*
X0133705Y0240902D01*
X0132984Y0241622D01*
X0132Y0241886D01*
X0131016Y0241622D01*
X0130295Y0240902D01*
X0130032Y0239917D01*
X0130295Y0238933D01*
X0131016Y0238213D01*
X0132Y0237949D01*
X0132984Y0238213D01*
X0133705Y0238933D01*
X0133968Y0239917D01*
X0301386Y0276D02*
X0300943Y0276767D01*
X0300057D01*
X0299614Y0276D01*
X0300057Y0275233D01*
X0300943D01*
X0301386Y0276D01*
X0263886Y02755D02*
X0263443Y0276267D01*
X0262557D01*
X0262114Y02755D01*
X0262557Y0274733D01*
X0263443D01*
X0263886Y02755D01*
X0301386Y03295D02*
X0300943Y0330267D01*
X0300057D01*
X0299614Y03295D01*
X0300057Y0328733D01*
X0300943D01*
X0301386Y03295D01*
X0263886Y0329488D02*
X0263443Y0330255D01*
X0262557D01*
X0262114Y0329488D01*
X0262557Y0328721D01*
X0263443D01*
X0263886Y0329488D01*
X0301386Y03025D02*
X0300943Y0303267D01*
X0300057D01*
X0299614Y03025D01*
X0300057Y0301733D01*
X0300943D01*
X0301386Y03025D01*
X0263886Y0302D02*
X0263443Y0302767D01*
X0262557D01*
X0262114Y0302D01*
X0262557Y0301233D01*
X0263443D01*
X0263886Y0302D01*
X0216469Y033735D02*
X0216205Y0338335D01*
X0215484Y0339055D01*
X02145Y0339319D01*
X0213516Y0339055D01*
X0212795Y0338335D01*
X0212531Y033735D01*
X0212795Y0336366D01*
X0213516Y0335646D01*
X02145Y0335382D01*
X0215484Y0335646D01*
X0216205Y0336366D01*
X0216469Y033735D01*
X0147158Y036035D02*
X0146894Y0361335D01*
X0146173Y0362055D01*
X0145189Y0362319D01*
X0144205Y0362055D01*
X0143484Y0361335D01*
X014322Y036035D01*
X0143484Y0359366D01*
X0144205Y0358646D01*
X0145189Y0358382D01*
X0146173Y0358646D01*
X0146894Y0359366D01*
X0147158Y036035D01*
X0162221Y040385D02*
X0170095D01*
X0166157Y0399913D02*
Y0407787D01*
X05855Y0300031D02*
Y0303969D01*
X0583532Y0302D02*
X0587468D01*
X0207563Y040585D02*
X0215437D01*
X02115Y0401913D02*
Y0409787D01*
X0133Y0315413D02*
Y0323287D01*
X0129063Y031935D02*
X0136937D01*
X02155Y0214063D02*
Y0221937D01*
X0211563Y0218D02*
X0219437D01*
X0463063Y01955D02*
X0470937D01*
X0467Y0191563D02*
Y0199437D01*
X0468063Y0208D02*
X0475937D01*
X0472Y0204063D02*
Y0211937D01*
X0360063Y0307D02*
X0367937D01*
X0364Y0303063D02*
Y0310937D01*
X0687Y0238563D02*
Y0246437D01*
X0683063Y02425D02*
X0690937D01*
X0687Y0217563D02*
Y0225437D01*
X0683063Y02215D02*
X0690937D01*
X0687Y0260563D02*
Y0268437D01*
X0683063Y02645D02*
X0690937D01*
X0687126Y0282232D02*
Y0290106D01*
X0683189Y0286169D02*
X0691063D01*
X0684063Y0339D02*
X0691937D01*
X0688Y0335063D02*
Y0342937D01*
X0435303Y0207563D02*
Y0215437D01*
X0431366Y02115D02*
X043924D01*
X02275Y0265413D02*
Y0273287D01*
X0223563Y026935D02*
X0231437D01*
X0136106Y0273413D02*
Y0281287D01*
X0132169Y027735D02*
X0140043D01*
X0343Y0207563D02*
Y0215437D01*
X0339063Y02115D02*
X0346937D01*
X0342Y0396063D02*
Y0403937D01*
X0338063Y04D02*
X0345937D01*
X0524063Y0208D02*
X0531937D01*
X0528Y0204063D02*
Y0211937D01*
X04355Y0396063D02*
Y0403937D01*
X0431563Y04D02*
X0439437D01*
X0395Y0207563D02*
Y0215437D01*
X0391063Y02115D02*
X0398937D01*
X0395Y0396063D02*
Y0403937D01*
X0391063Y04D02*
X0398937D01*
X0632063Y0203D02*
X0639937D01*
X0636Y0199063D02*
Y0206937D01*
X0688Y0382563D02*
Y0390437D01*
X0684063Y03865D02*
X0691937D01*
X0380063Y03775D02*
X0387937D01*
X0384Y0373563D02*
Y0381437D01*
X0279563Y037735D02*
X0287437D01*
X02835Y0373413D02*
Y0381287D01*
X0285Y0207563D02*
Y0215437D01*
X0281063Y02115D02*
X0288937D01*
X0285Y0396063D02*
Y0403937D01*
X0281063Y04D02*
X0288937D01*
X06045Y0404563D02*
Y0412437D01*
X0600563Y04085D02*
X0608437D01*
X0513063Y04035D02*
X0520937D01*
X0517Y0399563D02*
Y0407437D01*
X0166Y0195913D02*
Y0203787D01*
X0162063Y019985D02*
X0169937D01*
X0128063Y0239917D02*
X0135937D01*
X0132Y023598D02*
Y0243854D01*
X03005Y0274228D02*
Y0277772D01*
X0298728Y0276D02*
X0302272D01*
X0263Y0273728D02*
Y0277272D01*
X0261228Y02755D02*
X0264772D01*
X03005Y0327728D02*
Y0331272D01*
X0298728Y03295D02*
X0302272D01*
X0263Y0327716D02*
Y033126D01*
X0261228Y0329488D02*
X0264772D01*
X03005Y0300728D02*
Y0304272D01*
X0298728Y03025D02*
X0302272D01*
X0263Y0300228D02*
Y0303772D01*
X0261228Y0302D02*
X0264772D01*
X02145Y0333413D02*
Y0341287D01*
X0210563Y033735D02*
X0218437D01*
X0141252Y036035D02*
X0149126D01*
X0145189Y0356413D02*
Y0364287D01*
D117*
X0208386Y0191D02*
X0207943Y0191767D01*
X0207057D01*
X0206614Y0191D01*
X0207057Y0190233D01*
X0207943D01*
X0208386Y0191D01*
X0221886Y02D02*
X0221443Y0200767D01*
X0220557D01*
X0220114Y02D01*
X0220557Y0199233D01*
X0221443D01*
X0221886Y02D01*
X0208236Y02D02*
X0207793Y0200767D01*
X0206908D01*
X0206465Y02D01*
X0206908Y0199233D01*
X0207793D01*
X0208236Y02D01*
X0587386Y0257D02*
X0586943Y0257767D01*
X0586057D01*
X0585614Y0257D01*
X0586057Y0256233D01*
X0586943D01*
X0587386Y0257D01*
X0595886D02*
X0595443Y0257767D01*
X0594557D01*
X0594114Y0257D01*
X0594557Y0256233D01*
X0595443D01*
X0595886Y0257D01*
X0432886Y03725D02*
X0432443Y0373267D01*
X0431557D01*
X0431114Y03725D01*
X0431557Y0371733D01*
X0432443D01*
X0432886Y03725D01*
X0432386Y03655D02*
X0431943Y0366267D01*
X0431057D01*
X0430614Y03655D01*
X0431057Y0364733D01*
X0431943D01*
X0432386Y03655D01*
X0552535Y0283D02*
X0552093Y0283767D01*
X0551207D01*
X0550764Y0283D01*
X0551207Y0282233D01*
X0552093D01*
X0552535Y0283D01*
X055252Y0290681D02*
X0552077Y0291448D01*
X0551191D01*
X0550748Y0290681D01*
X0551191Y0289914D01*
X0552077D01*
X055252Y0290681D01*
X0552386Y02985D02*
X0551943Y0299267D01*
X0551057D01*
X0550614Y02985D01*
X0551057Y0297733D01*
X0551943D01*
X0552386Y02985D01*
X0694886Y0232D02*
X0694443Y0232767D01*
X0693557D01*
X0693114Y0232D01*
X0693557Y0231233D01*
X0694443D01*
X0694886Y0232D01*
X0682386D02*
X0681943Y0232767D01*
X0681057D01*
X0680614Y0232D01*
X0681057Y0231233D01*
X0681943D01*
X0682386Y0232D01*
Y02535D02*
X0681943Y0254267D01*
X0681057D01*
X0680614Y02535D01*
X0681057Y0252733D01*
X0681943D01*
X0682386Y02535D01*
X0694886D02*
X0694443Y0254267D01*
X0693557D01*
X0693114Y02535D01*
X0693557Y0252733D01*
X0694443D01*
X0694886Y02535D01*
Y02755D02*
X0694443Y0276267D01*
X0693557D01*
X0693114Y02755D01*
X0693557Y0274733D01*
X0694443D01*
X0694886Y02755D01*
X0682886D02*
X0682443Y0276267D01*
X0681557D01*
X0681114Y02755D01*
X0681557Y0274733D01*
X0682443D01*
X0682886Y02755D01*
X0694886Y0298D02*
X0694443Y0298767D01*
X0693557D01*
X0693114Y0298D01*
X0693557Y0297233D01*
X0694443D01*
X0694886Y0298D01*
X0682386D02*
X0681943Y0298767D01*
X0681057D01*
X0680614Y0298D01*
X0681057Y0297233D01*
X0681943D01*
X0682386Y0298D01*
X0694886Y03055D02*
X0694443Y0306267D01*
X0693557D01*
X0693114Y03055D01*
X0693557Y0304733D01*
X0694443D01*
X0694886Y03055D01*
X0682386D02*
X0681943Y0306267D01*
X0681057D01*
X0680614Y03055D01*
X0681057Y0304733D01*
X0681943D01*
X0682386Y03055D01*
X0694736Y0312D02*
X0694293Y0312767D01*
X0693407D01*
X0692965Y0312D01*
X0693407Y0311233D01*
X0694293D01*
X0694736Y0312D01*
X0682386Y0312D02*
X0681943Y0312767D01*
X0681057D01*
X0680614Y0312D01*
X0681057Y0311233D01*
X0681943D01*
X0682386Y0312D01*
X0310386Y0201D02*
X0309943Y0201767D01*
X0309057D01*
X0308614Y0201D01*
X0309057Y0200233D01*
X0309943D01*
X0310386Y0201D01*
X0240386Y03885D02*
X0239943Y0389267D01*
X0239057D01*
X0238614Y03885D01*
X0239057Y0387733D01*
X0239943D01*
X0240386Y03885D01*
X0187878Y026635D02*
X0187556Y0267236D01*
X0186739Y0267707D01*
X0185811Y0267544D01*
X0185205Y0266822D01*
Y0265879D01*
X0185811Y0265157D01*
X0186739Y0264993D01*
X0187556Y0265465D01*
X0187878Y026635D01*
X0201886Y02725D02*
X0201443Y0273267D01*
X0200557D01*
X0200114Y02725D01*
X0200557Y0271733D01*
X0201443D01*
X0201886Y02725D01*
X0216886Y024935D02*
X0216443Y0250117D01*
X0215557D01*
X0215114Y024935D01*
X0215557Y0248583D01*
X0216443D01*
X0216886Y024935D01*
X0209386Y024635D02*
X0208943Y0247117D01*
X0208057D01*
X0207614Y024635D01*
X0208057Y0245583D01*
X0208943D01*
X0209386Y024635D01*
Y025935D02*
X0208943Y0260118D01*
X0208057D01*
X0207614Y025935D01*
X0208057Y0258583D01*
X0208943D01*
X0209386Y025935D01*
X0209386Y02725D02*
X0208943Y0273267D01*
X0208057D01*
X0207614Y02725D01*
X0208057Y0271733D01*
X0208943D01*
X0209386Y02725D01*
X0201886Y024635D02*
X0201443Y0247117D01*
X0200557D01*
X0200114Y024635D01*
X0200557Y0245583D01*
X0201443D01*
X0201886Y024635D01*
X0219386Y02405D02*
X0218943Y0241267D01*
X0218057D01*
X0217614Y02405D01*
X0218057Y0239733D01*
X0218943D01*
X0219386Y02405D01*
X0186386Y029785D02*
X0185943Y0298618D01*
X0185057D01*
X0184614Y029785D01*
X0185057Y0297083D01*
X0185943D01*
X0186386Y029785D01*
X0219386D02*
X0218943Y0298618D01*
X0218057D01*
X0217614Y029785D01*
X0218057Y0297083D01*
X0218943D01*
X0219386Y029785D01*
X0185886Y022785D02*
X0185443Y0228618D01*
X0184557D01*
X0184114Y022785D01*
X0184557Y0227083D01*
X0185443D01*
X0185886Y022785D01*
X0201886Y025935D02*
X0201443Y0260118D01*
X0200557D01*
X0200114Y025935D01*
X0200557Y0258583D01*
X0201443D01*
X0201886Y025935D01*
X0216386Y031435D02*
X0215943Y0315118D01*
X0215057D01*
X0214614Y031435D01*
X0215057Y0313583D01*
X0215943D01*
X0216386Y031435D01*
X0172886Y0268D02*
X0172443Y0268767D01*
X0171557D01*
X0171114Y0268D01*
X0171557Y0267233D01*
X0172443D01*
X0172886Y0268D01*
X0175886Y024435D02*
X0175443Y0245117D01*
X0174557D01*
X0174114Y024435D01*
X0174557Y0243583D01*
X0175443D01*
X0175886Y024435D01*
X0188898Y024485D02*
X0188455Y0245618D01*
X0187569D01*
X0187126Y024485D01*
X0187569Y0244083D01*
X0188455D01*
X0188898Y024485D01*
X0181378Y033435D02*
X0181056Y0335236D01*
X0180239Y0335707D01*
X0179311Y0335544D01*
X0178705Y0334822D01*
Y0333879D01*
X0179311Y0333157D01*
X0180239Y0332993D01*
X0181056Y0333465D01*
X0181378Y033435D01*
X0368886Y0208D02*
X0368443Y0208767D01*
X0367557D01*
X0367114Y0208D01*
X0367557Y0207233D01*
X0368443D01*
X0368886Y0208D01*
Y0201D02*
X0368443Y0201767D01*
X0367557D01*
X0367114Y0201D01*
X0367557Y0200233D01*
X0368443D01*
X0368886Y0201D01*
X0368736Y02225D02*
X0368293Y0223267D01*
X0367407D01*
X0366965Y02225D01*
X0367407Y0221733D01*
X0368293D01*
X0368736Y02225D01*
X0368736Y0215D02*
X0368293Y0215767D01*
X0367407D01*
X0366965Y0215D01*
X0367407Y0214233D01*
X0368293D01*
X0368736Y0215D01*
X0368886Y0388D02*
X0368443Y0388767D01*
X0367557D01*
X0367114Y0388D01*
X0367557Y0387233D01*
X0368443D01*
X0368886Y0388D01*
Y0395D02*
X0368443Y0395767D01*
X0367557D01*
X0367114Y0395D01*
X0367557Y0394233D01*
X0368443D01*
X0368886Y0395D01*
Y04025D02*
X0368443Y0403267D01*
X0367557D01*
X0367114Y04025D01*
X0367557Y0401733D01*
X0368443D01*
X0368886Y04025D01*
Y041D02*
X0368443Y0410767D01*
X0367557D01*
X0367114Y041D01*
X0367557Y0409233D01*
X0368443D01*
X0368886Y041D01*
X0310386Y0215D02*
X0309943Y0215767D01*
X0309057D01*
X0308614Y0215D01*
X0309057Y0214233D01*
X0309943D01*
X0310386Y0215D01*
Y0222D02*
X0309943Y0222767D01*
X0309057D01*
X0308614Y0222D01*
X0309057Y0221233D01*
X0309943D01*
X0310386Y0222D01*
Y0208D02*
X0309943Y0208767D01*
X0309057D01*
X0308614Y0208D01*
X0309057Y0207233D01*
X0309943D01*
X0310386Y0208D01*
X0310035Y041D02*
X0309593Y0410767D01*
X0308707D01*
X0308264Y041D01*
X0308707Y0409233D01*
X0309593D01*
X0310035Y041D01*
X0309886Y0403D02*
X0309443Y0403767D01*
X0308557D01*
X0308114Y0403D01*
X0308557Y0402233D01*
X0309443D01*
X0309886Y0403D01*
X0309736Y0389D02*
X0309293Y0389767D01*
X0308407D01*
X0307965Y0389D01*
X0308407Y0388233D01*
X0309293D01*
X0309736Y0389D01*
X0309886Y0396D02*
X0309443Y0396767D01*
X0308557D01*
X0308114Y0396D01*
X0308557Y0395233D01*
X0309443D01*
X0309886Y0396D01*
X0334886Y025D02*
X0334443Y0250767D01*
X0333557D01*
X0333114Y025D01*
X0333557Y0249233D01*
X0334443D01*
X0334886Y025D01*
Y03645D02*
X0334443Y0365267D01*
X0333557D01*
X0333114Y03645D01*
X0333557Y0363733D01*
X0334443D01*
X0334886Y03645D01*
X0195036Y031985D02*
X0194592Y0320618D01*
X0193707D01*
X0193264Y031985D01*
X0193707Y0319083D01*
X0194592D01*
X0195036Y031985D01*
X0223736Y038835D02*
X0223293Y0389118D01*
X0222408D01*
X0221965Y038835D01*
X0222408Y0387583D01*
X0223293D01*
X0223736Y038835D01*
X0191886Y03775D02*
X0191443Y0378267D01*
X0190557D01*
X0190114Y03775D01*
X0190557Y0376733D01*
X0191443D01*
X0191886Y03775D01*
X0177969Y036485D02*
X0177705Y0365835D01*
X0176984Y0366555D01*
X0176Y0366819D01*
X0175016Y0366555D01*
X0174295Y0365835D01*
X0174031Y036485D01*
X0174295Y0363866D01*
X0175016Y0363146D01*
X0176Y0362882D01*
X0176984Y0363146D01*
X0177705Y0363866D01*
X0177969Y036485D01*
X0191886Y0363D02*
X0191443Y0363767D01*
X0190557D01*
X0190114Y0363D01*
X0190557Y0362233D01*
X0191443D01*
X0191886Y0363D01*
X0168886Y031985D02*
X0168443Y0320618D01*
X0167557D01*
X0167114Y031985D01*
X0167557Y0319083D01*
X0168443D01*
X0168886Y031985D01*
X0165886Y0306701D02*
X0165443Y0307468D01*
X0164557D01*
X0164114Y0306701D01*
X0164557Y0305934D01*
X0165443D01*
X0165886Y0306701D01*
X0223933Y039385D02*
X022349Y0394618D01*
X0222604D01*
X0222161Y039385D01*
X0222604Y0393083D01*
X022349D01*
X0223933Y039385D01*
X0335386Y02425D02*
X0334943Y0243267D01*
X0334057D01*
X0333614Y02425D01*
X0334057Y0241733D01*
X0334943D01*
X0335386Y02425D01*
X0334886Y03715D02*
X0334443Y0372267D01*
X0333557D01*
X0333114Y03715D01*
X0333557Y0370733D01*
X0334443D01*
X0334886Y03715D01*
X0213886Y037035D02*
X0213443Y0371117D01*
X0212557D01*
X0212114Y037035D01*
X0212557Y0369583D01*
X0213443D01*
X0213886Y037035D01*
X0158386Y030285D02*
X0157943Y0303618D01*
X0157057D01*
X0156614Y030285D01*
X0157057Y0302083D01*
X0157943D01*
X0158386Y030285D01*
X0310886Y0276D02*
X0310443Y0276767D01*
X0309557D01*
X0309114Y0276D01*
X0309557Y0275233D01*
X0310443D01*
X0310886Y0276D01*
X0273386D02*
X0272943Y0276767D01*
X0272057D01*
X0271614Y0276D01*
X0272057Y0275233D01*
X0272943D01*
X0273386Y0276D01*
X0310886Y0329D02*
X0310443Y0329767D01*
X0309557D01*
X0309114Y0329D01*
X0309557Y0328233D01*
X0310443D01*
X0310886Y0329D01*
X0273386Y032935D02*
X0272943Y0330118D01*
X0272057D01*
X0271614Y032935D01*
X0272057Y0328583D01*
X0272943D01*
X0273386Y032935D01*
X0310886Y03025D02*
X0310443Y0303267D01*
X0309557D01*
X0309114Y03025D01*
X0309557Y0301733D01*
X0310443D01*
X0310886Y03025D01*
X0273386D02*
X0272943Y0303267D01*
X0272057D01*
X0271614Y03025D01*
X0272057Y0301733D01*
X0272943D01*
X0273386Y03025D01*
X0182036Y031985D02*
X0181593Y0320618D01*
X0180707D01*
X0180264Y031985D01*
X0180707Y0319083D01*
X0181593D01*
X0182036Y031985D01*
X0206374Y039085D02*
X0205931Y0391617D01*
X0205045D01*
X0204602Y039085D01*
X0205045Y0390083D01*
X0205931D01*
X0206374Y039085D01*
X0194536Y034885D02*
X0194093Y0349618D01*
X0193207D01*
X0192764Y034885D01*
X0193207Y0348083D01*
X0194093D01*
X0194536Y034885D01*
X0158386Y031935D02*
X0157943Y0320117D01*
X0157057D01*
X0156614Y031935D01*
X0157057Y0318583D01*
X0157943D01*
X0158386Y031935D01*
Y0336362D02*
X0157943Y0337129D01*
X0157057D01*
X0156614Y0336362D01*
X0157057Y0335595D01*
X0157943D01*
X0158386Y0336362D01*
X0205728Y0191D02*
X0209272D01*
X02075Y0189228D02*
Y0192772D01*
X0221Y0198228D02*
Y0201772D01*
X0219228Y02D02*
X0222772D01*
X0205579Y02D02*
X0209122D01*
X020735Y0198228D02*
Y0201772D01*
X05865Y0255228D02*
Y0258772D01*
X0584728Y0257D02*
X0588272D01*
X0595Y0255228D02*
Y0258772D01*
X0593228Y0257D02*
X0596772D01*
X0430228Y03725D02*
X0433772D01*
X0432Y0370728D02*
Y0374272D01*
X0429728Y03655D02*
X0433272D01*
X04315Y0363728D02*
Y0367272D01*
X0549878Y0283D02*
X0553421D01*
X055165Y0281228D02*
Y0284772D01*
X0549863Y0290681D02*
X0553406D01*
X0551634Y0288909D02*
Y0292453D01*
X0549728Y02985D02*
X0553272D01*
X05515Y0296728D02*
Y0300272D01*
X0692228Y0232D02*
X0695772D01*
X0694Y0230228D02*
Y0233772D01*
X0679728Y0232D02*
X0683272D01*
X06815Y0230228D02*
Y0233772D01*
X0679728Y02535D02*
X0683272D01*
X06815Y0251728D02*
Y0255272D01*
X0692228Y02535D02*
X0695772D01*
X0694Y0251728D02*
Y0255272D01*
X0692228Y02755D02*
X0695772D01*
X0694Y0273728D02*
Y0277272D01*
X0680228Y02755D02*
X0683772D01*
X0682Y0273728D02*
Y0277272D01*
X0692228Y0298D02*
X0695772D01*
X0694Y0296228D02*
Y0299772D01*
X0679728Y0298D02*
X0683272D01*
X06815Y0296228D02*
Y0299772D01*
X0692228Y03055D02*
X0695772D01*
X0694Y0303728D02*
Y0307272D01*
X0679728Y03055D02*
X0683272D01*
X06815Y0303728D02*
Y0307272D01*
X0692079Y0312D02*
X0695622D01*
X069385Y0310228D02*
Y0313772D01*
X0679728Y0312D02*
X0683272D01*
X06815Y0310228D02*
Y0313772D01*
X03095Y0199228D02*
Y0202772D01*
X0307728Y0201D02*
X0311272D01*
X02395Y0386728D02*
Y0390272D01*
X0237728Y03885D02*
X0241272D01*
X0184531Y026635D02*
X0188469D01*
X01865Y0264382D02*
Y0268319D01*
X0199228Y02725D02*
X0202772D01*
X0201Y0270728D02*
Y0274272D01*
X0214228Y024935D02*
X0217772D01*
X0216Y0247579D02*
Y0251122D01*
X0206728Y024635D02*
X0210272D01*
X02085Y0244579D02*
Y0248122D01*
X0206728Y025935D02*
X0210272D01*
X02085Y0257579D02*
Y0261122D01*
X0206728Y02725D02*
X0210272D01*
X02085Y0270728D02*
Y0274272D01*
X0199228Y024635D02*
X0202772D01*
X0201Y0244579D02*
Y0248122D01*
X02185Y0238728D02*
Y0242272D01*
X0216728Y02405D02*
X0220272D01*
X01855Y0296079D02*
Y0299622D01*
X0183728Y029785D02*
X0187272D01*
X02185Y0296079D02*
Y0299622D01*
X0216728Y029785D02*
X0220272D01*
X0185Y0226079D02*
Y0229622D01*
X0183228Y022785D02*
X0186772D01*
X0201Y0257579D02*
Y0261122D01*
X0199228Y025935D02*
X0202772D01*
X02155Y0312579D02*
Y0316122D01*
X0213728Y031435D02*
X0217272D01*
X0172Y0266228D02*
Y0269772D01*
X0170228Y0268D02*
X0173772D01*
X0175Y0242579D02*
Y0246122D01*
X0173228Y024435D02*
X0176772D01*
X0188012Y0243079D02*
Y0246622D01*
X018624Y024485D02*
X0189784D01*
X018Y0332382D02*
Y0336319D01*
X0178032Y033435D02*
X0181968D01*
X0368Y0206228D02*
Y0209772D01*
X0366228Y0208D02*
X0369772D01*
X0368Y0199228D02*
Y0202772D01*
X0366228Y0201D02*
X0369772D01*
X036785Y0220728D02*
Y0224272D01*
X0366079Y02225D02*
X0369622D01*
X036785Y0213228D02*
Y0216772D01*
X0366079Y0215D02*
X0369622D01*
X0368Y0386228D02*
Y0389772D01*
X0366228Y0388D02*
X0369772D01*
X0368Y0393228D02*
Y0396772D01*
X0366228Y0395D02*
X0369772D01*
X0368Y0400728D02*
Y0404272D01*
X0366228Y04025D02*
X0369772D01*
X0368Y0408228D02*
Y0411772D01*
X0366228Y041D02*
X0369772D01*
X03095Y0213228D02*
Y0216772D01*
X0307728Y0215D02*
X0311272D01*
X03095Y0220228D02*
Y0223772D01*
X0307728Y0222D02*
X0311272D01*
X03095Y0206228D02*
Y0209772D01*
X0307728Y0208D02*
X0311272D01*
X030915Y0408228D02*
Y0411772D01*
X0307378Y041D02*
X0310921D01*
X0309Y0401228D02*
Y0404772D01*
X0307228Y0403D02*
X0310772D01*
X030885Y0387228D02*
Y0390772D01*
X0307079Y0389D02*
X0310622D01*
X0309Y0394228D02*
Y0397772D01*
X0307228Y0396D02*
X0310772D01*
X0334Y0248228D02*
Y0251772D01*
X0332228Y025D02*
X0335772D01*
X0334Y0362728D02*
Y0366272D01*
X0332228Y03645D02*
X0335772D01*
X019415Y0318079D02*
Y0321622D01*
X0192378Y031985D02*
X0195921D01*
X022285Y0386579D02*
Y0390122D01*
X0221079Y038835D02*
X0224622D01*
X0189228Y03775D02*
X0192772D01*
X0191Y0375728D02*
Y0379272D01*
X0176Y0360913D02*
Y0368787D01*
X0172063Y036485D02*
X0179937D01*
X0189228Y0363D02*
X0192772D01*
X0191Y0361228D02*
Y0364772D01*
X0168Y0318079D02*
Y0321622D01*
X0166228Y031985D02*
X0169772D01*
X0163228Y0306701D02*
X0166772D01*
X0165Y0304929D02*
Y0308472D01*
X0223047Y0392079D02*
Y0395622D01*
X0221276Y039385D02*
X0224819D01*
X03345Y0240728D02*
Y0244272D01*
X0332728Y02425D02*
X0336272D01*
X0334Y0369728D02*
Y0373272D01*
X0332228Y03715D02*
X0335772D01*
X0213Y0368579D02*
Y0372122D01*
X0211228Y037035D02*
X0214772D01*
X01575Y0301079D02*
Y0304622D01*
X0155728Y030285D02*
X0159272D01*
X031Y0274228D02*
Y0277772D01*
X0308228Y0276D02*
X0311772D01*
X02725Y0274228D02*
Y0277772D01*
X0270728Y0276D02*
X0274272D01*
X031Y0327228D02*
Y0330772D01*
X0308228Y0329D02*
X0311772D01*
X02725Y0327579D02*
Y0331122D01*
X0270728Y032935D02*
X0274272D01*
X031Y0300728D02*
Y0304272D01*
X0308228Y03025D02*
X0311772D01*
X02725Y0300728D02*
Y0304272D01*
X0270728Y03025D02*
X0274272D01*
X0179378Y031985D02*
X0182921D01*
X018115Y0318079D02*
Y0321622D01*
X0205488Y0389079D02*
Y0392622D01*
X0203717Y039085D02*
X020726D01*
X0191878Y034885D02*
X0195421D01*
X019365Y0347079D02*
Y0350622D01*
X01575Y0317579D02*
Y0321122D01*
X0155728Y031935D02*
X0159272D01*
X0155728Y0336362D02*
X0159272D01*
X01575Y0334591D02*
Y0338134D01*
D166*
X0286886Y0276D02*
X0286443Y0276767D01*
X0285557D01*
X0285114Y0276D01*
X0285557Y0275233D01*
X0286443D01*
X0286886Y0276D01*
X0286886Y032935D02*
X0286443Y0330118D01*
X0285557D01*
X0285114Y032935D01*
X0285557Y0328583D01*
X0286443D01*
X0286886Y032935D01*
X0286886Y03025D02*
X0286443Y0303267D01*
X0285557D01*
X0285114Y03025D01*
X0285557Y0301733D01*
X0286443D01*
X0286886Y03025D01*
X0552886Y03115D02*
X0552443Y0312267D01*
X0551557D01*
X0551114Y03115D01*
X0551557Y0310733D01*
X0552443D01*
X0552886Y03115D01*
X0284228Y0276D02*
X0287772D01*
X0286Y0274228D02*
Y0277772D01*
X0284228Y032935D02*
X0287772D01*
X0286Y0327579D02*
Y0331122D01*
X0284228Y03025D02*
X0287772D01*
X0286Y0300728D02*
Y0304272D01*
X0550228Y03115D02*
X0553772D01*
X0552Y0309728D02*
Y0313272D01*
M02*
