G04*
G04 #@! TF.GenerationSoftware,Altium Limited,Altium Designer,22.0.2 (36)*
G04*
G04 Layer_Color=128*
%FSTAX25Y25*%
%MOIN*%
G70*
G04*
G04 #@! TF.SameCoordinates,5FDB733D-D120-4548-BF5C-F3B634D9DF53*
G04*
G04*
G04 #@! TF.FilePolarity,Positive*
G04*
G01*
G75*
%ADD10C,0.01000*%
%ADD167C,0.00200*%
D10*
X0718Y0409771D02*
X0717987Y0410775D01*
X0717946Y0411779D01*
X071788Y0412781D01*
X0717786Y0413781D01*
X0717666Y0414779D01*
X071752Y0415772D01*
X0717347Y0416762D01*
X0717147Y0417746D01*
X0716922Y0418725D01*
X0716671Y0419698D01*
X0716394Y0420663D01*
X0716091Y0421621D01*
X0715763Y042257D01*
X0715409Y042351D01*
X0715031Y0424441D01*
X0714628Y0425361D01*
X0714201Y042627D01*
X071375Y0427168D01*
X0713275Y0428053D01*
X0712777Y0428925D01*
X0712255Y0429783D01*
X0711711Y0430628D01*
X0711145Y0431457D01*
X0710557Y0432271D01*
X0709947Y043307D01*
X0709316Y0433851D01*
X0708665Y0434616D01*
X0707993Y0435363D01*
X0707302Y0436092D01*
X0706592Y0436802D01*
X0705863Y0437493D01*
X0705116Y0438165D01*
X0704351Y0438816D01*
X070357Y0439447D01*
X0702771Y0440057D01*
X0701957Y0440645D01*
X0701128Y0441211D01*
X0700283Y0441755D01*
X0699425Y0442277D01*
X0698553Y0442775D01*
X0697668Y044325D01*
X069677Y0443701D01*
X0695861Y0444128D01*
X0694941Y0444531D01*
X069401Y0444909D01*
X069307Y0445263D01*
X0692121Y0445591D01*
X0691163Y0445894D01*
X0690198Y0446171D01*
X0689225Y0446422D01*
X0688246Y0446647D01*
X0687262Y0446847D01*
X0686272Y044702D01*
X0685279Y0447166D01*
X0684281Y0447286D01*
X0683281Y044738D01*
X0682279Y0447446D01*
X0681275Y0447487D01*
X0680271Y04475D01*
X01365Y0447488D02*
X0135491Y0447468D01*
X0134484Y044742D01*
X0133478Y0447345D01*
X0132475Y0447243D01*
X0131475Y0447114D01*
X0130479Y0446957D01*
X0129487Y0446774D01*
X0128501Y0446564D01*
X0127521Y0446327D01*
X0126547Y0446064D01*
X0125581Y0445775D01*
X0124624Y0445459D01*
X0123675Y0445118D01*
X0122735Y0444751D01*
X0121806Y0444359D01*
X0120888Y0443942D01*
X0119982Y04435D01*
X0119088Y0443034D01*
X0118206Y0442544D01*
X0117339Y044203D01*
X0116486Y0441492D01*
X0115647Y0440932D01*
X0114824Y0440349D01*
X0114017Y0439745D01*
X0113227Y0439118D01*
X0112454Y0438471D01*
X0111699Y0437803D01*
X0110962Y0437114D01*
X0110244Y0436406D01*
X0109546Y0435678D01*
X0108867Y0434933D01*
X0108209Y0434168D01*
X0107572Y0433387D01*
X0106956Y0432588D01*
X0106362Y0431773D01*
X0105791Y0430942D01*
X0105242Y0430096D01*
X0104716Y0429236D01*
X0104214Y0428362D01*
X0103735Y0427474D01*
X0103281Y0426574D01*
X0102851Y0425661D01*
X0102447Y0424738D01*
X0102067Y0423803D01*
X0101713Y0422859D01*
X0101384Y0421906D01*
X0101082Y0420944D01*
X0100805Y0419974D01*
X0100555Y0418997D01*
X0100332Y0418014D01*
X0100135Y0417025D01*
X0099965Y0416031D01*
X0099822Y0415033D01*
X0099706Y0414031D01*
X0099617Y0413027D01*
X0099556Y041202D01*
X0099522Y0411012D01*
X0099515Y0410004D01*
X01Y0206229D02*
X0100013Y0205234D01*
X0100054Y0204241D01*
X0100121Y0203248D01*
X0100215Y0202258D01*
X0100336Y0201271D01*
X0100484Y0200287D01*
X0100658Y0199308D01*
X0100859Y0198333D01*
X0101086Y0197365D01*
X0101339Y0196403D01*
X0101618Y0195448D01*
X0101923Y0194501D01*
X0102253Y0193563D01*
X0102609Y0192634D01*
X0102989Y0191715D01*
X0103395Y0190807D01*
X0103824Y018991D01*
X0104279Y0189025D01*
X0104756Y0188152D01*
X0105257Y0187293D01*
X0105782Y0186448D01*
X0106329Y0185617D01*
X0106898Y0184801D01*
X0107489Y0184002D01*
X0108102Y0183218D01*
X0108736Y0182451D01*
X010939Y0181702D01*
X0110064Y0180971D01*
X0110758Y0180258D01*
X011147Y0179564D01*
X0112202Y017889D01*
X0112951Y0178235D01*
X0113718Y0177602D01*
X0114502Y0176989D01*
X0115302Y0176398D01*
X0116117Y0175829D01*
X0116948Y0175282D01*
X0117793Y0174758D01*
X0118652Y0174256D01*
X0119525Y0173778D01*
X012041Y0173325D01*
X0121307Y0172895D01*
X0122215Y0172489D01*
X0123134Y0172109D01*
X0124063Y0171753D01*
X0125002Y0171423D01*
X0125948Y0171118D01*
X0126903Y0170839D01*
X0127865Y0170586D01*
X0128833Y0170359D01*
X0129808Y0170158D01*
X0130787Y0169984D01*
X0131771Y0169836D01*
X0132758Y0169715D01*
X0133748Y0169621D01*
X0134741Y0169554D01*
X0135734Y0169513D01*
X0136729Y01695D01*
X0680768D02*
X0681776Y0169514D01*
X0682783Y0169555D01*
X0683789Y0169623D01*
X0684793Y0169718D01*
X0685794Y0169841D01*
X0686791Y0169991D01*
X0687784Y0170167D01*
X0688771Y017037D01*
X0689753Y01706D01*
X0690728Y0170857D01*
X0691696Y017114D01*
X0692656Y0171449D01*
X0693607Y0171784D01*
X0694549Y0172144D01*
X069548Y017253D01*
X0696401Y0172941D01*
X069731Y0173377D01*
X0698208Y0173837D01*
X0699092Y0174321D01*
X0699963Y017483D01*
X070082Y0175361D01*
X0701662Y0175916D01*
X0702489Y0176493D01*
X07033Y0177092D01*
X0704094Y0177713D01*
X0704871Y0178355D01*
X0705631Y0179018D01*
X0706372Y0179702D01*
X0707095Y0180405D01*
X0707798Y0181128D01*
X0708482Y0181869D01*
X0709145Y0182629D01*
X0709787Y0183406D01*
X0710408Y01842D01*
X0711007Y0185011D01*
X0711585Y0185838D01*
X0712139Y018668D01*
X0712671Y0187537D01*
X0713179Y0188408D01*
X0713663Y0189293D01*
X0714123Y019019D01*
X0714559Y0191099D01*
X071497Y019202D01*
X0715356Y0192951D01*
X0715716Y0193893D01*
X0716051Y0194844D01*
X071636Y0195804D01*
X0716643Y0196772D01*
X0716899Y0197747D01*
X071713Y0198729D01*
X0717333Y0199716D01*
X071751Y0200709D01*
X0717659Y0201706D01*
X0717782Y0202707D01*
X0717877Y0203711D01*
X0717945Y0204717D01*
X0717986Y0205724D01*
X0718Y0206732D01*
Y0409771D01*
X0099515Y0410004D02*
X01Y0206239D01*
X0137Y01695D02*
X0681Y01695D01*
X01365Y0447488D02*
X0680271Y04475D01*
D167*
X0173638Y040385D02*
X0178362D01*
X0176Y0401488D02*
Y0406213D01*
X0153953Y040385D02*
X0158677D01*
X0156315Y0401488D02*
Y0406213D01*
X0357228Y03575D02*
X0360772D01*
X0359Y0355728D02*
Y0359272D01*
X0367228Y03575D02*
X0370772D01*
X0369Y0355728D02*
Y0359272D01*
X0377228Y03575D02*
X0380772D01*
X0379Y0355728D02*
Y0359272D01*
X0387228Y03575D02*
X0390772D01*
X0389Y0355728D02*
Y0359272D01*
X0397228Y03575D02*
X0400772D01*
X0399Y0355728D02*
Y0359272D01*
X0407228Y03575D02*
X0410772D01*
X0409Y0355728D02*
Y0359272D01*
X0407228Y02575D02*
X0410772D01*
X0409Y0255728D02*
Y0259272D01*
X0397228Y02575D02*
X0400772D01*
X0399Y0255728D02*
Y0259272D01*
X0387228Y02575D02*
X0390772D01*
X0389Y0255728D02*
Y0259272D01*
X0377228Y02575D02*
X0380772D01*
X0379Y0255728D02*
Y0259272D01*
X0367228Y02575D02*
X0370772D01*
X0369Y0255728D02*
Y0259272D01*
X0357228Y02575D02*
X0360772D01*
X0359Y0255728D02*
Y0259272D01*
X0256728Y0257D02*
X0260272D01*
X02585Y0255228D02*
Y0258772D01*
X0266728Y0257D02*
X0270272D01*
X02685Y0255228D02*
Y0258772D01*
X0276728Y0257D02*
X0280272D01*
X02785Y0255228D02*
Y0258772D01*
X0286728Y0257D02*
X0290272D01*
X02885Y0255228D02*
Y0258772D01*
X0296728Y0257D02*
X0300272D01*
X02985Y0255228D02*
Y0258772D01*
X0306728Y0257D02*
X0310272D01*
X03085Y0255228D02*
Y0258772D01*
X0306728Y0357D02*
X0310272D01*
X03085Y0355228D02*
Y0358772D01*
X0296728Y0357D02*
X0300272D01*
X02985Y0355228D02*
Y0358772D01*
X0286728Y0357D02*
X0290272D01*
X02885Y0355228D02*
Y0358772D01*
X0276728Y0357D02*
X0280272D01*
X02785Y0355228D02*
Y0358772D01*
X0266728Y0357D02*
X0270272D01*
X02685Y0355228D02*
Y0358772D01*
X0256728Y0357D02*
X0260272D01*
X02585Y0355228D02*
Y0358772D01*
X0583728Y0292158D02*
X0587272D01*
X05855Y0290386D02*
Y0293929D01*
X0583728Y0311842D02*
X0587272D01*
X05855Y0310071D02*
Y0313614D01*
X056925Y0331D02*
X058175D01*
X05755Y032475D02*
Y033725D01*
X023425Y0331D02*
X024675D01*
X02405Y032475D02*
Y033725D01*
X0219728Y040585D02*
X0223272D01*
X02215Y0404079D02*
Y0407622D01*
X0209728Y040585D02*
X0213272D01*
X02115Y0404079D02*
Y0407622D01*
X0199728Y040585D02*
X0203272D01*
X02015Y0404079D02*
Y0407622D01*
X0130638Y0338248D02*
X0135362D01*
X0133Y0335886D02*
Y034061D01*
X0130638Y031935D02*
X0135362D01*
X0133Y0316988D02*
Y0321713D01*
X0130638Y0300453D02*
X0135362D01*
X0133Y0298091D02*
Y0302815D01*
X0475228Y01955D02*
X0478772D01*
X0477Y0193728D02*
Y0197272D01*
X0465228Y01955D02*
X0468772D01*
X0467Y0193728D02*
Y0197272D01*
X0455228Y01955D02*
X0458772D01*
X0457Y0193728D02*
Y0197272D01*
X0485228Y0208D02*
X0488772D01*
X0487Y0206228D02*
Y0209772D01*
X0475228Y0208D02*
X0478772D01*
X0477Y0206228D02*
Y0209772D01*
X0465228Y0208D02*
X0468772D01*
X0467Y0206228D02*
Y0209772D01*
X0455228Y0208D02*
X0458772D01*
X0457Y0206228D02*
Y0209772D01*
X0485228Y03725D02*
X0488772D01*
X0487Y0370728D02*
Y0374272D01*
X0485228Y03825D02*
X0488772D01*
X0487Y0380728D02*
Y0384272D01*
X0475228Y03725D02*
X0478772D01*
X0477Y0370728D02*
Y0374272D01*
X0475228Y03825D02*
X0478772D01*
X0477Y0380728D02*
Y0384272D01*
X0485228Y03625D02*
X0488772D01*
X0487Y0360728D02*
Y0364272D01*
X0475228Y03625D02*
X0478772D01*
X0477Y0360728D02*
Y0364272D01*
X0485228Y03525D02*
X0488772D01*
X0487Y0350728D02*
Y0354272D01*
X0475228Y03525D02*
X0478772D01*
X0477Y0350728D02*
Y0354272D01*
X0485228Y03425D02*
X0488772D01*
X0487Y0340728D02*
Y0344272D01*
X0475228Y03425D02*
X0478772D01*
X0477Y0340728D02*
Y0344272D01*
X0485228Y03325D02*
X0488772D01*
X0487Y0330728D02*
Y0334272D01*
X0475228Y03325D02*
X0478772D01*
X0477Y0330728D02*
Y0334272D01*
X0485228Y03225D02*
X0488772D01*
X0487Y0320728D02*
Y0324272D01*
X0475228Y03225D02*
X0478772D01*
X0477Y0320728D02*
Y0324272D01*
X0485228Y03125D02*
X0488772D01*
X0487Y0310728D02*
Y0314272D01*
X0475228Y03125D02*
X0478772D01*
X0477Y0310728D02*
Y0314272D01*
X0485228Y03025D02*
X0488772D01*
X0487Y0300728D02*
Y0304272D01*
X0475228Y03025D02*
X0478772D01*
X0477Y0300728D02*
Y0304272D01*
X0485228Y02925D02*
X0488772D01*
X0487Y0290728D02*
Y0294272D01*
X0475228Y02925D02*
X0478772D01*
X0477Y0290728D02*
Y0294272D01*
X0485228Y02825D02*
X0488772D01*
X0487Y0280728D02*
Y0284272D01*
X0475228Y02825D02*
X0478772D01*
X0477Y0280728D02*
Y0284272D01*
X0485228Y02725D02*
X0488772D01*
X0487Y0270728D02*
Y0274272D01*
X0475228Y02725D02*
X0478772D01*
X0477Y0270728D02*
Y0274272D01*
X0485228Y02625D02*
X0488772D01*
X0487Y0260728D02*
Y0264272D01*
X0475228Y02625D02*
X0478772D01*
X0477Y0260728D02*
Y0264272D01*
X0485228Y02525D02*
X0488772D01*
X0487Y0250728D02*
Y0254272D01*
X0475228Y02525D02*
X0478772D01*
X0477Y0250728D02*
Y0254272D01*
X0485228Y02425D02*
X0488772D01*
X0487Y0240728D02*
Y0244272D01*
X0475228Y02425D02*
X0478772D01*
X0477Y0240728D02*
Y0244272D01*
X0495228Y03825D02*
X0498772D01*
X0497Y0380728D02*
Y0384272D01*
X0495228Y03725D02*
X0498772D01*
X0497Y0370728D02*
Y0374272D01*
X0505228Y03825D02*
X0508772D01*
X0507Y0380728D02*
Y0384272D01*
X0505228Y03725D02*
X0508772D01*
X0507Y0370728D02*
Y0374272D01*
X0515228Y03825D02*
X0518772D01*
X0517Y0380728D02*
Y0384272D01*
X0515228Y03725D02*
X0518772D01*
X0517Y0370728D02*
Y0374272D01*
X0525228Y03825D02*
X0528772D01*
X0527Y0380728D02*
Y0384272D01*
X0525228Y03725D02*
X0528772D01*
X0527Y0370728D02*
Y0374272D01*
X0535228Y03825D02*
X0538772D01*
X0537Y0380728D02*
Y0384272D01*
X0535228Y03725D02*
X0538772D01*
X0537Y0370728D02*
Y0374272D01*
X0545228Y03825D02*
X0548772D01*
X0547Y0380728D02*
Y0384272D01*
X0545228Y03725D02*
X0548772D01*
X0547Y0370728D02*
Y0374272D01*
X0555228Y03825D02*
X0558772D01*
X0557Y0380728D02*
Y0384272D01*
X0555228Y03725D02*
X0558772D01*
X0557Y0370728D02*
Y0374272D01*
X0565228Y03825D02*
X0568772D01*
X0567Y0380728D02*
Y0384272D01*
X0565228Y03725D02*
X0568772D01*
X0567Y0370728D02*
Y0374272D01*
X0575228Y03825D02*
X0578772D01*
X0577Y0380728D02*
Y0384272D01*
X0575228Y03725D02*
X0578772D01*
X0577Y0370728D02*
Y0374272D01*
X0585228Y03825D02*
X0588772D01*
X0587Y0380728D02*
Y0384272D01*
X0585228Y03725D02*
X0588772D01*
X0587Y0370728D02*
Y0374272D01*
X0595228Y03825D02*
X0598772D01*
X0597Y0380728D02*
Y0384272D01*
X0595228Y03725D02*
X0598772D01*
X0597Y0370728D02*
Y0374272D01*
X0605228Y03825D02*
X0608772D01*
X0607Y0380728D02*
Y0384272D01*
X0605228Y03725D02*
X0608772D01*
X0607Y0370728D02*
Y0374272D01*
X0615228Y03825D02*
X0618772D01*
X0617Y0380728D02*
Y0384272D01*
X0615228Y03725D02*
X0618772D01*
X0617Y0370728D02*
Y0374272D01*
X0625228Y03825D02*
X0628772D01*
X0627Y0380728D02*
Y0384272D01*
X0625228Y03725D02*
X0628772D01*
X0627Y0370728D02*
Y0374272D01*
X0635228Y03825D02*
X0638772D01*
X0637Y0380728D02*
Y0384272D01*
X0635228Y03725D02*
X0638772D01*
X0637Y0370728D02*
Y0374272D01*
X0645228Y03825D02*
X0648772D01*
X0647Y0380728D02*
Y0384272D01*
X0645228Y03725D02*
X0648772D01*
X0647Y0370728D02*
Y0374272D01*
X0655228Y03825D02*
X0658772D01*
X0657Y0380728D02*
Y0384272D01*
X0655228Y03725D02*
X0658772D01*
X0657Y0370728D02*
Y0374272D01*
X0665228Y03825D02*
X0668772D01*
X0667Y0380728D02*
Y0384272D01*
X0665228Y03725D02*
X0668772D01*
X0667Y0370728D02*
Y0374272D01*
X0665228Y03625D02*
X0668772D01*
X0667Y0360728D02*
Y0364272D01*
X0655228Y03625D02*
X0658772D01*
X0657Y0360728D02*
Y0364272D01*
X0665228Y03525D02*
X0668772D01*
X0667Y0350728D02*
Y0354272D01*
X0655228Y03525D02*
X0658772D01*
X0657Y0350728D02*
Y0354272D01*
X0665228Y03425D02*
X0668772D01*
X0667Y0340728D02*
Y0344272D01*
X0655228Y03425D02*
X0658772D01*
X0657Y0340728D02*
Y0344272D01*
X0665228Y03325D02*
X0668772D01*
X0667Y0330728D02*
Y0334272D01*
X0655228Y03325D02*
X0658772D01*
X0657Y0330728D02*
Y0334272D01*
X0655228Y02725D02*
X0658772D01*
X0657Y0270728D02*
Y0274272D01*
X0665228Y02725D02*
X0668772D01*
X0667Y0270728D02*
Y0274272D01*
X0655228Y02625D02*
X0658772D01*
X0657Y0260728D02*
Y0264272D01*
X0665228Y02625D02*
X0668772D01*
X0667Y0260728D02*
Y0264272D01*
X0655228Y02525D02*
X0658772D01*
X0657Y0250728D02*
Y0254272D01*
X0665228Y02525D02*
X0668772D01*
X0667Y0250728D02*
Y0254272D01*
X0655228Y02425D02*
X0658772D01*
X0657Y0240728D02*
Y0244272D01*
X0665228Y02425D02*
X0668772D01*
X0667Y0240728D02*
Y0244272D01*
X0665228Y02325D02*
X0668772D01*
X0667Y0230728D02*
Y0234272D01*
X0665228Y02225D02*
X0668772D01*
X0667Y0220728D02*
Y0224272D01*
X0655228Y02325D02*
X0658772D01*
X0657Y0230728D02*
Y0234272D01*
X0655228Y02225D02*
X0658772D01*
X0657Y0220728D02*
Y0224272D01*
X0645228Y02325D02*
X0648772D01*
X0647Y0230728D02*
Y0234272D01*
X0645228Y02225D02*
X0648772D01*
X0647Y0220728D02*
Y0224272D01*
X0635228Y02325D02*
X0638772D01*
X0637Y0230728D02*
Y0234272D01*
X0635228Y02225D02*
X0638772D01*
X0637Y0220728D02*
Y0224272D01*
X0625228Y02325D02*
X0628772D01*
X0627Y0230728D02*
Y0234272D01*
X0625228Y02225D02*
X0628772D01*
X0627Y0220728D02*
Y0224272D01*
X0615228Y02325D02*
X0618772D01*
X0617Y0230728D02*
Y0234272D01*
X0615228Y02225D02*
X0618772D01*
X0617Y0220728D02*
Y0224272D01*
X0605228Y02325D02*
X0608772D01*
X0607Y0230728D02*
Y0234272D01*
X0605228Y02225D02*
X0608772D01*
X0607Y0220728D02*
Y0224272D01*
X0595228Y02325D02*
X0598772D01*
X0597Y0230728D02*
Y0234272D01*
X0595228Y02225D02*
X0598772D01*
X0597Y0220728D02*
Y0224272D01*
X0585228Y02325D02*
X0588772D01*
X0587Y0230728D02*
Y0234272D01*
X0585228Y02225D02*
X0588772D01*
X0587Y0220728D02*
Y0224272D01*
X0575228Y02325D02*
X0578772D01*
X0577Y0230728D02*
Y0234272D01*
X0575228Y02225D02*
X0578772D01*
X0577Y0220728D02*
Y0224272D01*
X0565228Y02325D02*
X0568772D01*
X0567Y0230728D02*
Y0234272D01*
X0565228Y02225D02*
X0568772D01*
X0567Y0220728D02*
Y0224272D01*
X0555228Y02325D02*
X0558772D01*
X0557Y0230728D02*
Y0234272D01*
X0555228Y02225D02*
X0558772D01*
X0557Y0220728D02*
Y0224272D01*
X0545228Y02325D02*
X0548772D01*
X0547Y0230728D02*
Y0234272D01*
X0545228Y02225D02*
X0548772D01*
X0547Y0220728D02*
Y0224272D01*
X0535228Y02325D02*
X0538772D01*
X0537Y0230728D02*
Y0234272D01*
X0535228Y02225D02*
X0538772D01*
X0537Y0220728D02*
Y0224272D01*
X0525228Y02325D02*
X0528772D01*
X0527Y0230728D02*
Y0234272D01*
X0525228Y02225D02*
X0528772D01*
X0527Y0220728D02*
Y0224272D01*
X0515228Y02325D02*
X0518772D01*
X0517Y0230728D02*
Y0234272D01*
X0515228Y02225D02*
X0518772D01*
X0517Y0220728D02*
Y0224272D01*
X0505228Y02325D02*
X0508772D01*
X0507Y0230728D02*
Y0234272D01*
X0505228Y02225D02*
X0508772D01*
X0507Y0220728D02*
Y0224272D01*
X0495228Y02325D02*
X0498772D01*
X0497Y0230728D02*
Y0234272D01*
X0495228Y02225D02*
X0498772D01*
X0497Y0220728D02*
Y0224272D01*
X0485228Y02325D02*
X0488772D01*
X0487Y0230728D02*
Y0234272D01*
X0485228Y02225D02*
X0488772D01*
X0487Y0220728D02*
Y0224272D01*
X0475228Y02325D02*
X0478772D01*
X0477Y0230728D02*
Y0234272D01*
X0475228Y02225D02*
X0478772D01*
X0477Y0220728D02*
Y0224272D01*
X0367228Y0272D02*
X0370772D01*
X0369Y0270228D02*
Y0273772D01*
X0357228Y0272D02*
X0360772D01*
X0359Y0270228D02*
Y0273772D01*
X0367228Y0282D02*
X0370772D01*
X0369Y0280228D02*
Y0283772D01*
X0357228Y0282D02*
X0360772D01*
X0359Y0280228D02*
Y0283772D01*
X0367228Y0292D02*
X0370772D01*
X0369Y0290228D02*
Y0293772D01*
X0357228Y0292D02*
X0360772D01*
X0359Y0290228D02*
Y0293772D01*
X0367228Y0302D02*
X0370772D01*
X0369Y0300228D02*
Y0303772D01*
X0357228Y0302D02*
X0360772D01*
X0359Y0300228D02*
Y0303772D01*
X0367228Y0312D02*
X0370772D01*
X0369Y0310228D02*
Y0313772D01*
X0357228Y0312D02*
X0360772D01*
X0359Y0310228D02*
Y0313772D01*
X0367228Y0322D02*
X0370772D01*
X0369Y0320228D02*
Y0323772D01*
X0357228Y0322D02*
X0360772D01*
X0359Y0320228D02*
Y0323772D01*
X0367228Y0332D02*
X0370772D01*
X0369Y0330228D02*
Y0333772D01*
X0357228Y0332D02*
X0360772D01*
X0359Y0330228D02*
Y0333772D01*
X0367228Y0342D02*
X0370772D01*
X0369Y0340228D02*
Y0343772D01*
X0357228Y0342D02*
X0360772D01*
X0359Y0340228D02*
Y0343772D01*
X0681228Y0324D02*
X0684772D01*
X0683Y0322228D02*
Y0325772D01*
X0691228Y0324D02*
X0694772D01*
X0693Y0322228D02*
Y0325772D01*
X0681228Y0354D02*
X0684772D01*
X0683Y0352228D02*
Y0355772D01*
X0691228Y0354D02*
X0694772D01*
X0693Y0352228D02*
Y0355772D01*
X0423531Y02065D02*
X0427075D01*
X0425303Y0204728D02*
Y0208272D01*
X0423531Y02165D02*
X0427075D01*
X0425303Y0214728D02*
Y0218272D01*
X0433532Y02065D02*
X0437075D01*
X0435303Y0204728D02*
Y0208272D01*
X0433532Y02165D02*
X0437075D01*
X0435303Y0214728D02*
Y0218272D01*
X0443532Y02065D02*
X0447075D01*
X0445303Y0204728D02*
Y0208272D01*
X0443532Y02165D02*
X0447075D01*
X0445303Y0214728D02*
Y0218272D01*
X0174622Y037485D02*
X0177378D01*
X0176Y0373472D02*
Y0376228D01*
X0174622Y035485D02*
X0177378D01*
X0176Y0353472D02*
Y0356228D01*
X0174622Y036485D02*
X0177378D01*
X0176Y0363472D02*
Y0366228D01*
X0351228Y02165D02*
X0354772D01*
X0353Y0214728D02*
Y0218272D01*
X0351228Y02065D02*
X0354772D01*
X0353Y0204728D02*
Y0208272D01*
X0341228Y02165D02*
X0344772D01*
X0343Y0214728D02*
Y0218272D01*
X0341228Y02065D02*
X0344772D01*
X0343Y0204728D02*
Y0208272D01*
X0331228Y02165D02*
X0334772D01*
X0333Y0214728D02*
Y0218272D01*
X0331228Y02065D02*
X0334772D01*
X0333Y0204728D02*
Y0208272D01*
X0350228Y0405D02*
X0353772D01*
X0352Y0403228D02*
Y0406772D01*
X0350228Y0395D02*
X0353772D01*
X0352Y0393228D02*
Y0396772D01*
X0340228Y0405D02*
X0343772D01*
X0342Y0403228D02*
Y0406772D01*
X0340228Y0395D02*
X0343772D01*
X0342Y0393228D02*
Y0396772D01*
X0330228Y0405D02*
X0333772D01*
X0332Y0403228D02*
Y0406772D01*
X0330228Y0395D02*
X0333772D01*
X0332Y0393228D02*
Y0396772D01*
X0501228Y0208D02*
X0504772D01*
X0503Y0206228D02*
Y0209772D01*
X0511228Y0208D02*
X0514772D01*
X0513Y0206228D02*
Y0209772D01*
X0521228Y0208D02*
X0524772D01*
X0523Y0206228D02*
Y0209772D01*
X0531228Y0208D02*
X0534772D01*
X0533Y0206228D02*
Y0209772D01*
X0541228Y0208D02*
X0544772D01*
X0543Y0206228D02*
Y0209772D01*
X0551228Y0208D02*
X0554772D01*
X0553Y0206228D02*
Y0209772D01*
X0423728Y0395D02*
X0427272D01*
X04255Y0393228D02*
Y0396772D01*
X0423728Y0405D02*
X0427272D01*
X04255Y0403228D02*
Y0406772D01*
X0433728Y0395D02*
X0437272D01*
X04355Y0393228D02*
Y0396772D01*
X0433728Y0405D02*
X0437272D01*
X04355Y0403228D02*
Y0406772D01*
X0443728Y0395D02*
X0447272D01*
X04455Y0393228D02*
Y0396772D01*
X0443728Y0405D02*
X0447272D01*
X04455Y0403228D02*
Y0406772D01*
X0383228Y02065D02*
X0386772D01*
X0385Y0204728D02*
Y0208272D01*
X0383228Y02165D02*
X0386772D01*
X0385Y0214728D02*
Y0218272D01*
X0393228Y02065D02*
X0396772D01*
X0395Y0204728D02*
Y0208272D01*
X0393228Y02165D02*
X0396772D01*
X0395Y0214728D02*
Y0218272D01*
X0403228Y02065D02*
X0406772D01*
X0405Y0204728D02*
Y0208272D01*
X0403228Y02165D02*
X0406772D01*
X0405Y0214728D02*
Y0218272D01*
X0383228Y0395D02*
X0386772D01*
X0385Y0393228D02*
Y0396772D01*
X0383228Y0405D02*
X0386772D01*
X0385Y0403228D02*
Y0406772D01*
X0393228Y0395D02*
X0396772D01*
X0395Y0393228D02*
Y0396772D01*
X0393228Y0405D02*
X0396772D01*
X0395Y0403228D02*
Y0406772D01*
X0403228Y0395D02*
X0406772D01*
X0405Y0393228D02*
Y0396772D01*
X0403228Y0405D02*
X0406772D01*
X0405Y0403228D02*
Y0406772D01*
X0654228Y0208D02*
X0657772D01*
X0656Y0206228D02*
Y0209772D01*
X0654228Y0198D02*
X0657772D01*
X0656Y0196228D02*
Y0199772D01*
X0644228Y0208D02*
X0647772D01*
X0646Y0206228D02*
Y0209772D01*
X0644228Y0198D02*
X0647772D01*
X0646Y0196228D02*
Y0199772D01*
X0634228Y0208D02*
X0637772D01*
X0636Y0206228D02*
Y0209772D01*
X0634228Y0198D02*
X0637772D01*
X0636Y0196228D02*
Y0199772D01*
X0624228Y0208D02*
X0627772D01*
X0626Y0206228D02*
Y0209772D01*
X0624228Y0198D02*
X0627772D01*
X0626Y0196228D02*
Y0199772D01*
X0614228Y0208D02*
X0617772D01*
X0616Y0206228D02*
Y0209772D01*
X0614228Y0198D02*
X0617772D01*
X0616Y0196228D02*
Y0199772D01*
X0681228Y04015D02*
X0684772D01*
X0683Y0399728D02*
Y0403272D01*
X0691228Y04015D02*
X0694772D01*
X0693Y0399728D02*
Y0403272D01*
X0681228Y03915D02*
X0684772D01*
X0683Y0389728D02*
Y0393272D01*
X0691228Y03915D02*
X0694772D01*
X0693Y0389728D02*
Y0393272D01*
X0681228Y03815D02*
X0684772D01*
X0683Y0379728D02*
Y0383272D01*
X0691228Y03815D02*
X0694772D01*
X0693Y0379728D02*
Y0383272D01*
X0681228Y03715D02*
X0684772D01*
X0683Y0369728D02*
Y0373272D01*
X0691228Y03715D02*
X0694772D01*
X0693Y0369728D02*
Y0373272D01*
X0357228Y03775D02*
X0360772D01*
X0359Y0375728D02*
Y0379272D01*
X0367228Y03775D02*
X0370772D01*
X0369Y0375728D02*
Y0379272D01*
X0377228Y03775D02*
X0380772D01*
X0379Y0375728D02*
Y0379272D01*
X0387228Y03775D02*
X0390772D01*
X0389Y0375728D02*
Y0379272D01*
X0397228Y03775D02*
X0400772D01*
X0399Y0375728D02*
Y0379272D01*
X0407228Y03775D02*
X0410772D01*
X0409Y0375728D02*
Y0379272D01*
X0256728Y037735D02*
X0260272D01*
X02585Y0375579D02*
Y0379122D01*
X0266728Y037735D02*
X0270272D01*
X02685Y0375579D02*
Y0379122D01*
X0276728Y037735D02*
X0280272D01*
X02785Y0375579D02*
Y0379122D01*
X0286728Y037735D02*
X0290272D01*
X02885Y0375579D02*
Y0379122D01*
X0296728Y037735D02*
X0300272D01*
X02985Y0375579D02*
Y0379122D01*
X0306728Y037735D02*
X0310272D01*
X03085Y0375579D02*
Y0379122D01*
X0273228Y02065D02*
X0276772D01*
X0275Y0204728D02*
Y0208272D01*
X0273228Y02165D02*
X0276772D01*
X0275Y0214728D02*
Y0218272D01*
X0283228Y02065D02*
X0286772D01*
X0285Y0204728D02*
Y0208272D01*
X0283228Y02165D02*
X0286772D01*
X0285Y0214728D02*
Y0218272D01*
X0293228Y02065D02*
X0296772D01*
X0295Y0204728D02*
Y0208272D01*
X0293228Y02165D02*
X0296772D01*
X0295Y0214728D02*
Y0218272D01*
X0273228Y0395D02*
X0276772D01*
X0275Y0393228D02*
Y0396772D01*
X0273228Y0405D02*
X0276772D01*
X0275Y0403228D02*
Y0406772D01*
X0283228Y0395D02*
X0286772D01*
X0285Y0393228D02*
Y0396772D01*
X0283228Y0405D02*
X0286772D01*
X0285Y0403228D02*
Y0406772D01*
X0293228Y0395D02*
X0296772D01*
X0295Y0393228D02*
Y0396772D01*
X0293228Y0405D02*
X0296772D01*
X0295Y0403228D02*
Y0406772D01*
X0637728Y04085D02*
X0641272D01*
X06395Y0406728D02*
Y0410272D01*
X0627728Y04085D02*
X0631272D01*
X06295Y0406728D02*
Y0410272D01*
X0617728Y04085D02*
X0621272D01*
X06195Y0406728D02*
Y0410272D01*
X0607728Y04085D02*
X0611272D01*
X06095Y0406728D02*
Y0410272D01*
X0597728Y04085D02*
X0601272D01*
X05995Y0406728D02*
Y0410272D01*
X0587728Y04085D02*
X0591272D01*
X05895Y0406728D02*
Y0410272D01*
X0577728Y04085D02*
X0581272D01*
X05795Y0406728D02*
Y0410272D01*
X0567728Y04085D02*
X0571272D01*
X05695Y0406728D02*
Y0410272D01*
X0550228Y04085D02*
X0553772D01*
X0552Y0406728D02*
Y0410272D01*
X0550228Y03985D02*
X0553772D01*
X0552Y0396728D02*
Y0400272D01*
X0540228Y04085D02*
X0543772D01*
X0542Y0406728D02*
Y0410272D01*
X0540228Y03985D02*
X0543772D01*
X0542Y0396728D02*
Y0400272D01*
X0530228Y04085D02*
X0533772D01*
X0532Y0406728D02*
Y0410272D01*
X0530228Y03985D02*
X0533772D01*
X0532Y0396728D02*
Y0400272D01*
X0520228Y04085D02*
X0523772D01*
X0522Y0406728D02*
Y0410272D01*
X0520228Y03985D02*
X0523772D01*
X0522Y0396728D02*
Y0400272D01*
X0510228Y04085D02*
X0513772D01*
X0512Y0406728D02*
Y0410272D01*
X0510228Y03985D02*
X0513772D01*
X0512Y0396728D02*
Y0400272D01*
X0500228Y04085D02*
X0503772D01*
X0502Y0406728D02*
Y0410272D01*
X0500228Y03985D02*
X0503772D01*
X0502Y0396728D02*
Y0400272D01*
X0490228Y04085D02*
X0493772D01*
X0492Y0406728D02*
Y0410272D01*
X0490228Y03985D02*
X0493772D01*
X0492Y0396728D02*
Y0400272D01*
X0480228Y04085D02*
X0483772D01*
X0482Y0406728D02*
Y0410272D01*
X0480228Y03985D02*
X0483772D01*
X0482Y0396728D02*
Y0400272D01*
X017348Y019985D02*
X0178205D01*
X0175842Y0197488D02*
Y0202213D01*
X0153795Y019985D02*
X015852D01*
X0156158Y0197488D02*
Y0202213D01*
X0126882Y0229484D02*
X0137118D01*
X0132Y0224366D02*
Y0234602D01*
X0126882Y025035D02*
X0137118D01*
X0132Y0245232D02*
Y0255469D01*
X05596Y0361D02*
X05624D01*
X0561Y03596D02*
Y03624D01*
X0531147Y0311834D02*
X0533947D01*
X0532547Y0310434D02*
Y0313233D01*
X05546Y03565D02*
X05574D01*
X0556Y03551D02*
Y03579D01*
X06006Y03595D02*
X06034D01*
X0602Y03581D02*
Y03609D01*
X05916Y03595D02*
X05944D01*
X0593Y03581D02*
Y03609D01*
X06196Y03595D02*
X06224D01*
X0621Y03581D02*
Y03609D01*
X06111Y03595D02*
X06139D01*
X06125Y03581D02*
Y03609D01*
X04951Y0352D02*
X04979D01*
X04965Y03506D02*
Y03534D01*
X05196Y0348D02*
X05224D01*
X0521Y03466D02*
Y03494D01*
X05516Y03415D02*
X05544D01*
X0553Y03401D02*
Y03429D01*
X06451Y02155D02*
X06479D01*
X06465Y02141D02*
Y02169D01*
X06626Y02855D02*
X06654D01*
X0664Y02841D02*
Y02869D01*
X06681Y029D02*
X06709D01*
X06695Y02886D02*
Y02914D01*
X06621Y0322D02*
X06649D01*
X06635Y03206D02*
Y03234D01*
X06681Y031D02*
X06709D01*
X06695Y03086D02*
Y03114D01*
X06751Y03465D02*
X06779D01*
X06765Y03451D02*
Y03479D01*
X06751Y03615D02*
X06779D01*
X06765Y03601D02*
Y03629D01*
X0701762Y0397218D02*
X0704562D01*
X0703162Y0395818D02*
Y0398618D01*
X06881Y0408D02*
X06909D01*
X06895Y04066D02*
Y04094D01*
X05786Y04235D02*
X05814D01*
X058Y04221D02*
Y04249D01*
X02311Y01995D02*
X02339D01*
X02325Y01981D02*
Y02009D01*
X02026Y01745D02*
X02054D01*
X0204Y01731D02*
Y01759D01*
X02491Y0299D02*
X02519D01*
X02505Y02976D02*
Y03004D01*
X03246Y0272D02*
X03274D01*
X0326Y02706D02*
Y02734D01*
X02416Y0246D02*
X02444D01*
X0243Y02446D02*
Y02474D01*
X02386Y02015D02*
X02414D01*
X024Y02001D02*
Y02029D01*
X02521Y02315D02*
X02549D01*
X02535Y02301D02*
Y02329D01*
X02821Y02315D02*
X02849D01*
X02835Y02301D02*
Y02329D01*
X02796Y0268698D02*
X02824D01*
X0281Y0267298D02*
Y0270098D01*
X0701762Y0377535D02*
X0704562D01*
X0703162Y0376135D02*
Y0378935D01*
X0649374Y0274194D02*
X0652174D01*
X0650774Y0272794D02*
Y0275594D01*
X0625414Y0239674D02*
X0628214D01*
X0626814Y0238274D02*
Y0241074D01*
X04906Y0423D02*
X04934D01*
X0492Y04216D02*
Y04244D01*
X05056Y0436D02*
X05084D01*
X0507Y04346D02*
Y04374D01*
X05161Y0432D02*
X05189D01*
X05175Y04306D02*
Y04334D01*
X05251Y04285D02*
X05279D01*
X05265Y04271D02*
Y04299D01*
X05681Y0423D02*
X05709D01*
X05695Y04216D02*
Y04244D01*
X0666405Y0197547D02*
X0669205D01*
X0667805Y0196147D02*
Y0198947D01*
X06996Y02425D02*
X07024D01*
X0701Y02411D02*
Y02439D01*
X0673229Y0204371D02*
X0676029D01*
X0674629Y0202971D02*
Y0205771D01*
X06006Y02465D02*
X06034D01*
X0602Y02451D02*
Y02479D01*
X04576Y02415D02*
X04604D01*
X0459Y02401D02*
Y02429D01*
X04576Y02495D02*
X04604D01*
X0459Y02481D02*
Y02509D01*
X0520624Y0264495D02*
X0523424D01*
X0522024Y0263095D02*
Y0265895D01*
X04576Y02585D02*
X04604D01*
X0459Y02571D02*
Y02599D01*
X04576Y02675D02*
X04604D01*
X0459Y02661D02*
Y02689D01*
X05536Y0272D02*
X05564D01*
X0555Y02706D02*
Y02734D01*
X0687625Y0196957D02*
X0690425D01*
X0689025Y0195557D02*
Y0198357D01*
X06936Y01975D02*
X06964D01*
X0695Y01961D02*
Y01989D01*
X07011Y0385D02*
X07039D01*
X07025Y03836D02*
Y03864D01*
X0648678Y0390922D02*
X0651478D01*
X0650078Y0389522D02*
Y0392322D01*
X034417Y0373035D02*
X034697D01*
X034557Y0371635D02*
Y0374435D01*
X03441Y0367D02*
X03469D01*
X03455Y03656D02*
Y03684D01*
X03441Y0379035D02*
X03469D01*
X03455Y0377635D02*
Y0380435D01*
X0344182Y0385034D02*
X0346982D01*
X0345582Y0383634D02*
Y0386435D01*
X04556Y03375D02*
X04584D01*
X0457Y03361D02*
Y03389D01*
X0455518Y0327D02*
X0458318D01*
X0456918Y03256D02*
Y03284D01*
X04556Y0317D02*
X04584D01*
X0457Y03156D02*
Y03184D01*
X04556Y0307D02*
X04584D01*
X0457Y03056D02*
Y03084D01*
X03751Y0216D02*
X03779D01*
X03765Y02146D02*
Y02174D01*
X0593246Y0240146D02*
X0596046D01*
X0594646Y0238746D02*
Y0241546D01*
X03171Y0208D02*
X03199D01*
X03185Y02066D02*
Y02094D01*
X04971Y01995D02*
X04999D01*
X04985Y01981D02*
Y02009D01*
X05816Y019D02*
X05844D01*
X0583Y01886D02*
Y01914D01*
X05261Y019D02*
X05289D01*
X05275Y01886D02*
Y01914D01*
X06866Y0414D02*
X06894D01*
X0688Y04126D02*
Y04154D01*
X03756Y0386D02*
X03784D01*
X0377Y03846D02*
Y03874D01*
X03756Y03925D02*
X03784D01*
X0377Y03911D02*
Y03939D01*
X05451Y0322D02*
X05479D01*
X05465Y03206D02*
Y03234D01*
X03296Y0264D02*
X03324D01*
X0331Y02626D02*
Y02654D01*
X03171Y0201D02*
X03199D01*
X03185Y01996D02*
Y02024D01*
X02491Y02895D02*
X02519D01*
X02505Y02881D02*
Y02909D01*
X06606Y0406D02*
X06634D01*
X0662Y04046D02*
Y04074D01*
X05981Y02D02*
X06009D01*
X05995Y01986D02*
Y02014D01*
X05916Y01955D02*
X05944D01*
X0593Y01941D02*
Y01969D01*
X05026Y0195D02*
X05054D01*
X0504Y01936D02*
Y01964D01*
X0645374Y02685D02*
X0648174D01*
X0646774Y02671D02*
Y02699D01*
X06561Y0298091D02*
X06589D01*
X06575Y0296691D02*
Y029949D01*
X06716Y02755D02*
X06744D01*
X0673Y02741D02*
Y02769D01*
X0448928Y0347672D02*
X0451728D01*
X0450328Y0346272D02*
Y0349072D01*
X0450443Y0382157D02*
X0453243D01*
X0451843Y0380757D02*
Y0383557D01*
X04671Y03675D02*
X04699D01*
X04685Y03661D02*
Y03689D01*
X04436Y0382D02*
X04464D01*
X0445Y03806D02*
Y03834D01*
X04671Y03575D02*
X04699D01*
X04685Y03561D02*
Y03589D01*
X043885Y034775D02*
X044165D01*
X044025Y034635D02*
Y034915D01*
X041685Y034775D02*
X041965D01*
X041825Y034635D02*
Y034915D01*
X042735Y034775D02*
X043015D01*
X042875Y034635D02*
Y034915D01*
X03986Y0307D02*
X04014D01*
X04Y03056D02*
Y03084D01*
X03986Y03365D02*
X04014D01*
X04Y03351D02*
Y03379D01*
X03986Y0327D02*
X04014D01*
X04Y03256D02*
Y03284D01*
X03986Y03175D02*
X04014D01*
X04Y03161D02*
Y03189D01*
X06181Y0401D02*
X06209D01*
X06195Y03996D02*
Y04024D01*
X06081Y0401D02*
X06109D01*
X06095Y03996D02*
Y04024D01*
X05981Y0401D02*
X06009D01*
X05995Y03996D02*
Y04024D01*
X05881Y0401D02*
X05909D01*
X05895Y03996D02*
Y04024D01*
X03231Y0215D02*
X03259D01*
X03245Y02136D02*
Y02164D01*
X03231Y0222D02*
X03259D01*
X03245Y02206D02*
Y02234D01*
X01746Y0385D02*
X01774D01*
X0176Y03836D02*
Y03864D01*
X02021Y03195D02*
X02049D01*
X02035Y03181D02*
Y03209D01*
M02*
