G04*
G04 #@! TF.GenerationSoftware,Altium Limited,Altium Designer,22.0.2 (36)*
G04*
G04 Layer_Physical_Order=2*
G04 Layer_Color=16711680*
%FSTAX25Y25*%
%MOIN*%
G70*
G04*
G04 #@! TF.SameCoordinates,5FDB733D-D120-4548-BF5C-F3B634D9DF53*
G04*
G04*
G04 #@! TF.FilePolarity,Positive*
G04*
G01*
G75*
%ADD10C,0.01000*%
%ADD96C,0.02000*%
%ADD97C,0.03000*%
%ADD105O,0.07874X0.11811*%
%ADD106C,0.05906*%
%ADD107R,0.05906X0.05906*%
%ADD108C,0.20000*%
%ADD109R,0.13780X0.08661*%
%ADD110R,0.05906X0.05906*%
%ADD111C,0.05906*%
G04:AMPARAMS|DCode=112|XSize=236.22mil|YSize=157.48mil|CornerRadius=39.37mil|HoleSize=0mil|Usage=FLASHONLY|Rotation=0.000|XOffset=0mil|YOffset=0mil|HoleType=Round|Shape=RoundedRectangle|*
%AMROUNDEDRECTD112*
21,1,0.23622,0.07874,0,0,0.0*
21,1,0.15748,0.15748,0,0,0.0*
1,1,0.07874,0.07874,-0.03937*
1,1,0.07874,-0.07874,-0.03937*
1,1,0.07874,-0.07874,0.03937*
1,1,0.07874,0.07874,0.03937*
%
%ADD112ROUNDEDRECTD112*%
%ADD113C,0.05000*%
G36*
X0680344Y0445996D02*
Y0445996D01*
X0680843Y0445995D01*
X0683894Y0445845D01*
X068741Y0445323D01*
X0690859Y044446D01*
X0694206Y0443262D01*
X0697419Y0441742D01*
X0700468Y0439915D01*
X0703323Y0437797D01*
X0705957Y043541D01*
X0708344Y0432776D01*
X0710462Y0429921D01*
X0712289Y0426872D01*
X0713809Y0423659D01*
X0715007Y0420312D01*
X071587Y0416863D01*
X0716392Y0413347D01*
X0716562Y040989D01*
X0716543Y0409797D01*
Y0206758D01*
X0716561Y0206668D01*
X0716394Y0203256D01*
X0715879Y0199788D01*
X0715028Y0196388D01*
X0713846Y0193087D01*
X0712347Y0189917D01*
X0710545Y018691D01*
X0708457Y0184094D01*
X0706102Y0181497D01*
X0703504Y0179142D01*
X0700688Y0177053D01*
X0697681Y0175251D01*
X0694512Y0173752D01*
X0691211Y0172571D01*
X068781Y0171719D01*
X0684342Y0171205D01*
X068134Y0171057D01*
X068084Y0171055D01*
Y0171055D01*
X0206081Y0171055D01*
X0205911Y0171555D01*
X0206496Y0172004D01*
X0207057Y0172735D01*
X020741Y0173586D01*
X0207464Y0174D01*
X0200536D01*
X020059Y0173586D01*
X0200943Y0172735D01*
X0201504Y0172004D01*
X0202088Y0171555D01*
X0201919Y0171055D01*
X0137296Y0171055D01*
X0136853Y0171055D01*
X0136802Y0171055D01*
D01*
X0136309Y0171058D01*
X013335Y0171203D01*
X012993Y017171D01*
X0126578Y017255D01*
X0123323Y0173714D01*
X0120199Y0175192D01*
X0117234Y0176969D01*
X0114458Y0179028D01*
X0111897Y018135D01*
X0109575Y0183911D01*
X0107516Y0186687D01*
X0105739Y0189652D01*
X0104261Y0192776D01*
X0103097Y019603D01*
X0102257Y0199383D01*
X010175Y0202802D01*
X0101605Y0205756D01*
X0101602Y0206255D01*
Y0206268D01*
X0101601Y0206755D01*
X0101117Y0410033D01*
X0101102Y0410107D01*
X0101094Y041028D01*
X0101266Y0413782D01*
X010178Y041725D01*
X0102632Y0420651D01*
X0103814Y0423952D01*
X0105313Y0427122D01*
X0107115Y0430129D01*
X0109204Y0432945D01*
X0111558Y0435543D01*
X0114156Y0437898D01*
X0116973Y0439987D01*
X011998Y0441789D01*
X012315Y0443288D01*
X0126451Y044447D01*
X0129852Y0445322D01*
X013332Y0445836D01*
X0136528Y0445994D01*
X0136572Y0445985D01*
X067985Y0445996D01*
X0680344Y0445996D01*
D02*
G37*
%LPC*%
G36*
X0669694Y0443529D02*
X0452525D01*
X045194Y0443413D01*
X0451443Y0443081D01*
X044839Y0440028D01*
X0448373Y0440012D01*
X0446135Y0438185D01*
X0446135Y0438185D01*
X04101Y0408796D01*
X0410083Y0408776D01*
X0410061Y0408763D01*
X0409442Y0408224D01*
X0409442Y0408224D01*
X0409442Y0408224D01*
X0409431Y0408214D01*
X0409399Y0408172D01*
X0409355Y0408143D01*
X0408702Y040749D01*
X0408038Y0407533D01*
X0407819Y0407819D01*
X0406993Y0408453D01*
X0406032Y0408851D01*
X0405Y0408987D01*
X0403968Y0408851D01*
X0403007Y0408453D01*
X0402181Y0407819D01*
X0401547Y0406993D01*
X0401149Y0406032D01*
X0401013Y0405D01*
X0401149Y0403968D01*
X0401547Y0403007D01*
X0402181Y0402181D01*
X0403007Y0401547D01*
X040335Y0401405D01*
X0403355Y0400959D01*
X0403332Y0400871D01*
X0402868Y0400623D01*
X0402412Y0400417D01*
X0402354Y0400393D01*
X0401939Y0400114D01*
X0401677Y0399974D01*
X040077Y039923D01*
X0400027Y0398323D01*
X0399474Y0397289D01*
X0399243Y0396529D01*
X0398645D01*
X0398453Y0396993D01*
X0397819Y0397819D01*
X0396993Y0398453D01*
X0396505Y0398655D01*
X0396388Y0398874D01*
X0396303Y039928D01*
X0396315Y0399307D01*
X0396413Y0399453D01*
X0396437Y0399576D01*
X0396489Y039969D01*
X0396495Y0399866D01*
X0396529Y0400038D01*
Y0401355D01*
X0396993Y0401547D01*
X0397819Y0402181D01*
X0398453Y0403007D01*
X0398851Y0403968D01*
X0398987Y0405D01*
X0398851Y0406032D01*
X0398453Y0406993D01*
X0397819Y0407819D01*
X0396993Y0408453D01*
X0396032Y0408851D01*
X0395Y0408987D01*
X0393968Y0408851D01*
X0393007Y0408453D01*
X0392181Y0407819D01*
X0391547Y0406993D01*
X0391149Y0406032D01*
X0391013Y0405D01*
X0391149Y0403968D01*
X0391547Y0403007D01*
X0392181Y0402181D01*
X0393007Y0401547D01*
X0393471Y0401355D01*
Y0400757D01*
X0392711Y0400526D01*
X0391677Y0399974D01*
X039077Y039923D01*
X0390026Y0398323D01*
X0389851Y0397995D01*
X0389746Y0397838D01*
X0389734Y0397775D01*
X0389474Y0397289D01*
X0389219Y039645D01*
X0388689Y0396424D01*
X0388453Y0396993D01*
X0387819Y0397819D01*
X0386993Y0398453D01*
X0386032Y0398851D01*
X03855Y0398921D01*
Y0395D01*
Y0391079D01*
X0386032Y0391149D01*
X0386993Y0391547D01*
X0387819Y0392181D01*
X0388453Y0393007D01*
X0388689Y0393576D01*
X0389219Y039355D01*
X0389474Y0392711D01*
X0390026Y0391677D01*
X039077Y039077D01*
X0391042Y0390547D01*
X0390874Y0390077D01*
X0381743D01*
X0380358Y0391461D01*
X038041Y0391586D01*
X038053Y03925D01*
X038041Y0393414D01*
X0380057Y0394265D01*
X0379496Y0394996D01*
X0378765Y0395557D01*
X0378529Y0395655D01*
Y0415914D01*
X0378413Y04165D01*
X0378081Y0416996D01*
X0377496Y0417581D01*
X0376999Y0417913D01*
X0376414Y0418029D01*
X0319086D01*
X03185Y0417913D01*
X0318004Y0417581D01*
X0317419Y0416996D01*
X0317087Y04165D01*
X0316971Y0415914D01*
Y0211155D01*
X0316735Y0211057D01*
X0316004Y0210496D01*
X0315443Y0209765D01*
X031509Y0208914D01*
X031497Y0208D01*
X031509Y0207086D01*
X0315443Y0206235D01*
X0316004Y0205504D01*
X0316735Y0204943D01*
X031715Y0204771D01*
Y0204229D01*
X0316735Y0204057D01*
X0316004Y0203496D01*
X0315443Y0202765D01*
X031509Y0201914D01*
X031497Y0201D01*
X031509Y0200086D01*
X0315443Y0199235D01*
X0316004Y0198504D01*
X0316735Y0197943D01*
X0317586Y019759D01*
X0317973Y0197539D01*
X031794Y0197039D01*
X0252516D01*
X0251039Y0198516D01*
Y0228411D01*
X0251488Y0228632D01*
X0251735Y0228443D01*
X0252586Y022809D01*
X02535Y022797D01*
X0254414Y022809D01*
X0255265Y0228443D01*
X0255996Y0229004D01*
X0256347Y0229461D01*
X0280653D01*
X0281004Y0229004D01*
X0281735Y0228443D01*
X0282586Y022809D01*
X02835Y022797D01*
X0284414Y022809D01*
X0285265Y0228443D01*
X0285996Y0229004D01*
X0286557Y0229735D01*
X028691Y0230586D01*
X028703Y02315D01*
X028691Y0232414D01*
X0286557Y0233265D01*
X0285996Y0233996D01*
X0285539Y0234347D01*
Y0253659D01*
X0286039Y0253906D01*
X0286507Y0253547D01*
X0287468Y0253149D01*
X02885Y0253013D01*
X0289532Y0253149D01*
X0290493Y0253547D01*
X0291319Y0254181D01*
X0291953Y0255007D01*
X0292351Y0255968D01*
X0292487Y0257D01*
X0292351Y0258032D01*
X0291953Y0258993D01*
X0291319Y0259819D01*
X0290493Y0260453D01*
X0289532Y0260851D01*
X02885Y0260987D01*
X0287468Y0260851D01*
X0286507Y0260453D01*
X0285837Y0259939D01*
X0285816Y0259931D01*
X0285332Y0259982D01*
X0285216Y0260035D01*
X0284942Y0260446D01*
X0283039Y0262349D01*
Y0265851D01*
X0283496Y0266202D01*
X0284057Y0266933D01*
X028441Y0267784D01*
X028453Y0268698D01*
X028441Y0269612D01*
X0284057Y0270463D01*
X0283496Y0271194D01*
X0282765Y0271755D01*
X0281914Y0272108D01*
X0281Y0272228D01*
X0280086Y0272108D01*
X0279235Y0271755D01*
X0278504Y0271194D01*
X0277943Y0270463D01*
X027759Y0269612D01*
X027747Y0268698D01*
X027759Y0267784D01*
X0277943Y0266933D01*
X0278504Y0266202D01*
X0278961Y0265851D01*
Y0261504D01*
X0278995Y0261332D01*
X0278653Y0260967D01*
X02785Y0260987D01*
X0277468Y0260851D01*
X0276507Y0260453D01*
X0275681Y0259819D01*
X0275047Y0258993D01*
X0274649Y0258032D01*
X0274579Y02575D01*
X02785D01*
Y0257D01*
X0279D01*
Y0253079D01*
X0279532Y0253149D01*
X0280493Y0253547D01*
X0280961Y0253906D01*
X0281461Y0253659D01*
Y0234347D01*
X0281004Y0233996D01*
X0280653Y0233539D01*
X0256347D01*
X0255996Y0233996D01*
X0255265Y0234557D01*
X0254414Y023491D01*
X02535Y023503D01*
X0252586Y023491D01*
X0251735Y0234557D01*
X0251488Y0234367D01*
X0251039Y0234589D01*
Y0241585D01*
X0251942Y0242488D01*
X0252384Y0243149D01*
X0252539Y024393D01*
Y0286653D01*
X0252996Y0287004D01*
X0253557Y0287735D01*
X025391Y0288586D01*
X025403Y02895D01*
X025391Y0290414D01*
X0253557Y0291265D01*
X0252996Y0291996D01*
X0252265Y0292557D01*
X0251414Y029291D01*
X02505Y029303D01*
X0249586Y029291D01*
X0248735Y0292557D01*
X0248004Y0291996D01*
X0247443Y0291265D01*
X024709Y0290414D01*
X024697Y02895D01*
X024709Y0288586D01*
X0247443Y0287735D01*
X0248004Y0287004D01*
X0248461Y0286653D01*
Y0244775D01*
X0247558Y0243872D01*
X0247116Y024321D01*
X0246961Y024243D01*
Y0197672D01*
X0247116Y0196891D01*
X0247558Y019623D01*
X0249287Y0194501D01*
X0249095Y0194039D01*
X0242039D01*
Y0198653D01*
X0242496Y0199004D01*
X0243057Y0199735D01*
X024341Y0200586D01*
X024353Y02015D01*
X024341Y0202414D01*
X0243057Y0203265D01*
X0242496Y0203996D01*
X0241765Y0204557D01*
X0240914Y020491D01*
X024Y020503D01*
X0239086Y020491D01*
X0238235Y0204557D01*
X0237504Y0203996D01*
X0236943Y0203265D01*
X023659Y0202414D01*
X023647Y02015D01*
X023659Y0200586D01*
X0236943Y0199735D01*
X0237504Y0199004D01*
X0237961Y0198653D01*
Y0193172D01*
X0238116Y0192391D01*
X0238558Y019173D01*
X023973Y0190558D01*
X023973Y0190558D01*
X0240391Y0190116D01*
X0241172Y0189961D01*
X0429179D01*
X0429959Y0190116D01*
X0430621Y0190558D01*
X0431792Y019173D01*
X0431792Y019173D01*
X0432234Y0192391D01*
X043239Y0193172D01*
Y0203123D01*
X043289Y020337D01*
X043331Y0203047D01*
X0433774Y0202855D01*
Y0192368D01*
X043389Y0191783D01*
X0434222Y0191287D01*
X0444043Y0181466D01*
X0444539Y0181134D01*
X0445124Y0181018D01*
X0682547D01*
X0683133Y0181134D01*
X0683629Y0181466D01*
X0695503Y019334D01*
X0695835Y0193836D01*
X0695884Y0194086D01*
X0695914Y019409D01*
X0696765Y0194443D01*
X0697496Y0195004D01*
X0698057Y0195735D01*
X069841Y0196586D01*
X069853Y01975D01*
X069841Y0198414D01*
X0698057Y0199265D01*
X0697496Y0199996D01*
X0696765Y0200557D01*
X0695914Y020091D01*
X0695Y020103D01*
X0694086Y020091D01*
X0693235Y0200557D01*
X0692504Y0199996D01*
X0692119Y0199495D01*
X0691535Y0199454D01*
X0691496Y0199472D01*
X069079Y0200014D01*
X0689938Y0200367D01*
X0689154Y020047D01*
X0688911Y0200935D01*
X0712243Y0224267D01*
X0712575Y0224763D01*
X0712691Y0225348D01*
Y0400532D01*
X0712575Y0401117D01*
X0712243Y0401613D01*
X0675777Y043808D01*
X0670775Y0443081D01*
X0670279Y0443413D01*
X0669694Y0443529D01*
D02*
G37*
G36*
X0202Y0409771D02*
Y040635D01*
X0205421D01*
X0205351Y0406882D01*
X0204953Y0407844D01*
X0204319Y040867D01*
X0203493Y0409303D01*
X0202532Y0409701D01*
X0202Y0409771D01*
D02*
G37*
G36*
X0201Y0409771D02*
X0200468Y0409701D01*
X0199507Y0409303D01*
X0198681Y040867D01*
X0198047Y0407844D01*
X0197649Y0406882D01*
X0197579Y040635D01*
X0201D01*
Y0409771D01*
D02*
G37*
G36*
X02855Y0408921D02*
Y04055D01*
X0288921D01*
X0288851Y0406032D01*
X0288453Y0406993D01*
X0287819Y0407819D01*
X0286993Y0408453D01*
X0286032Y0408851D01*
X02855Y0408921D01*
D02*
G37*
G36*
X02845D02*
X0283968Y0408851D01*
X0283007Y0408453D01*
X0282181Y0407819D01*
X0281547Y0406993D01*
X0281149Y0406032D01*
X0281079Y04055D01*
X02845D01*
Y0408921D01*
D02*
G37*
G36*
X01765Y0410733D02*
Y040435D01*
X018098D01*
Y0405819D01*
X018081Y0407108D01*
X0180313Y0408309D01*
X0179521Y040934D01*
X017849Y0410131D01*
X0177289Y0410629D01*
X01765Y0410733D01*
D02*
G37*
G36*
X01755Y0410733D02*
X0174711Y0410629D01*
X017351Y0410131D01*
X0172479Y040934D01*
X0171687Y0408309D01*
X017119Y0407108D01*
X017102Y0405819D01*
Y040435D01*
X01755D01*
Y0410733D01*
D02*
G37*
G36*
X0201Y040535D02*
X0197579D01*
X0197649Y0404818D01*
X0198047Y0403857D01*
X0198681Y0403031D01*
X0199507Y0402398D01*
X0200468Y0401999D01*
X0201Y0401929D01*
Y040535D01*
D02*
G37*
G36*
X0205421D02*
X0202D01*
Y0401929D01*
X0202532Y0401999D01*
X0203493Y0402398D01*
X0204319Y0403031D01*
X0204953Y0403857D01*
X0205351Y0404818D01*
X0205421Y040535D01*
D02*
G37*
G36*
X02215Y0409837D02*
X0220468Y0409701D01*
X0219507Y0409303D01*
X0218681Y040867D01*
X0218047Y0407844D01*
X0217649Y0406882D01*
X0217513Y040585D01*
X0217649Y0404818D01*
X0218047Y0403857D01*
X0218681Y0403031D01*
X0219507Y0402398D01*
X0220468Y0401999D01*
X02215Y0401863D01*
X0222532Y0401999D01*
X0223493Y0402398D01*
X0224319Y0403031D01*
X0224953Y0403857D01*
X0225351Y0404818D01*
X0225487Y040585D01*
X0225351Y0406882D01*
X0224953Y0407844D01*
X0224319Y040867D01*
X0223493Y0409303D01*
X0222532Y0409701D01*
X02215Y0409837D01*
D02*
G37*
G36*
X02115D02*
X0210468Y0409701D01*
X0209507Y0409303D01*
X0208681Y040867D01*
X0208047Y0407844D01*
X0207649Y0406882D01*
X0207513Y040585D01*
X0207649Y0404818D01*
X0208047Y0403857D01*
X0208681Y0403031D01*
X0209507Y0402398D01*
X0210468Y0401999D01*
X02115Y0401863D01*
X0212532Y0401999D01*
X0213493Y0402398D01*
X0214319Y0403031D01*
X0214953Y0403857D01*
X0215351Y0404818D01*
X0215487Y040585D01*
X0215351Y0406882D01*
X0214953Y0407844D01*
X0214319Y040867D01*
X0213493Y0409303D01*
X0212532Y0409701D01*
X02115Y0409837D01*
D02*
G37*
G36*
X0288921Y04045D02*
X02855D01*
Y0401079D01*
X0286032Y0401149D01*
X0286993Y0401547D01*
X0287819Y0402181D01*
X0288453Y0403007D01*
X0288851Y0403968D01*
X0288921Y04045D01*
D02*
G37*
G36*
X02845D02*
X0281079D01*
X0281149Y0403968D01*
X0281547Y0403007D01*
X0282181Y0402181D01*
X0283007Y0401547D01*
X0283968Y0401149D01*
X02845Y0401079D01*
Y04045D01*
D02*
G37*
G36*
X0385Y0408987D02*
X0383968Y0408851D01*
X0383007Y0408453D01*
X0382181Y0407819D01*
X0381547Y0406993D01*
X0381149Y0406032D01*
X0381013Y0405D01*
X0381149Y0403968D01*
X0381547Y0403007D01*
X0382181Y0402181D01*
X0383007Y0401547D01*
X0383968Y0401149D01*
X0385Y0401013D01*
X0386032Y0401149D01*
X0386993Y0401547D01*
X0387819Y0402181D01*
X0388453Y0403007D01*
X0388851Y0403968D01*
X0388987Y0405D01*
X0388851Y0406032D01*
X0388453Y0406993D01*
X0387819Y0407819D01*
X0386993Y0408453D01*
X0386032Y0408851D01*
X0385Y0408987D01*
D02*
G37*
G36*
X0295D02*
X0293968Y0408851D01*
X0293007Y0408453D01*
X0292181Y0407819D01*
X0291547Y0406993D01*
X0291149Y0406032D01*
X0291013Y0405D01*
X0291149Y0403968D01*
X0291547Y0403007D01*
X0292181Y0402181D01*
X0293007Y0401547D01*
X0293968Y0401149D01*
X0295Y0401013D01*
X0296032Y0401149D01*
X0296993Y0401547D01*
X0297819Y0402181D01*
X0298453Y0403007D01*
X0298851Y0403968D01*
X0298987Y0405D01*
X0298851Y0406032D01*
X0298453Y0406993D01*
X0297819Y0407819D01*
X0296993Y0408453D01*
X0296032Y0408851D01*
X0295Y0408987D01*
D02*
G37*
G36*
X0275D02*
X0273968Y0408851D01*
X0273007Y0408453D01*
X0272181Y0407819D01*
X0271547Y0406993D01*
X0271149Y0406032D01*
X0271013Y0405D01*
X0271149Y0403968D01*
X0271547Y0403007D01*
X0272181Y0402181D01*
X0273007Y0401547D01*
X0273968Y0401149D01*
X0275Y0401013D01*
X0276032Y0401149D01*
X0276993Y0401547D01*
X0277819Y0402181D01*
X0278453Y0403007D01*
X0278851Y0403968D01*
X0278987Y0405D01*
X0278851Y0406032D01*
X0278453Y0406993D01*
X0277819Y0407819D01*
X0276993Y0408453D01*
X0276032Y0408851D01*
X0275Y0408987D01*
D02*
G37*
G36*
X01755Y040335D02*
X017102D01*
Y0401882D01*
X017119Y0400593D01*
X0171687Y0399392D01*
X0172479Y0398361D01*
X017351Y0397569D01*
X0174711Y0397072D01*
X01755Y0396968D01*
Y040335D01*
D02*
G37*
G36*
X018098D02*
X01765D01*
Y0396968D01*
X0177289Y0397072D01*
X017849Y0397569D01*
X0179521Y0398361D01*
X0180313Y0399392D01*
X018081Y0400593D01*
X018098Y0401882D01*
Y040335D01*
D02*
G37*
G36*
X0156315Y0410799D02*
X0155026Y0410629D01*
X0153825Y0410131D01*
X0152794Y040934D01*
X0152003Y0408309D01*
X0151505Y0407108D01*
X0151335Y0405819D01*
Y0401882D01*
X0151505Y0400593D01*
X0152003Y0399392D01*
X0152794Y0398361D01*
X0153825Y0397569D01*
X0155026Y0397072D01*
X0156315Y0396902D01*
X0157604Y0397072D01*
X0158805Y0397569D01*
X0159836Y0398361D01*
X0160627Y0399392D01*
X0161125Y0400593D01*
X0161295Y0401882D01*
Y0405819D01*
X0161125Y0407108D01*
X0160627Y0408309D01*
X0159836Y040934D01*
X0158805Y0410131D01*
X0157604Y0410629D01*
X0156315Y0410799D01*
D02*
G37*
G36*
X02855Y0398921D02*
Y03955D01*
X0288921D01*
X0288851Y0396032D01*
X0288453Y0396993D01*
X0287819Y0397819D01*
X0286993Y0398453D01*
X0286032Y0398851D01*
X02855Y0398921D01*
D02*
G37*
G36*
X02845D02*
X0283968Y0398851D01*
X0283007Y0398453D01*
X0282181Y0397819D01*
X0281547Y0396993D01*
X0281149Y0396032D01*
X0281079Y03955D01*
X02845D01*
Y0398921D01*
D02*
G37*
G36*
X03845D02*
X0383968Y0398851D01*
X0383007Y0398453D01*
X0382181Y0397819D01*
X0381547Y0396993D01*
X0381149Y0396032D01*
X0381079Y03955D01*
X03845D01*
Y0398921D01*
D02*
G37*
G36*
X0288921Y03945D02*
X02855D01*
Y0391079D01*
X0286032Y0391149D01*
X0286993Y0391547D01*
X0287819Y0392181D01*
X0288453Y0393007D01*
X0288851Y0393968D01*
X0288921Y03945D01*
D02*
G37*
G36*
X03845D02*
X0381079D01*
X0381149Y0393968D01*
X0381547Y0393007D01*
X0382181Y0392181D01*
X0383007Y0391547D01*
X0383968Y0391149D01*
X03845Y0391079D01*
Y03945D01*
D02*
G37*
G36*
X02845D02*
X0281079D01*
X0281149Y0393968D01*
X0281547Y0393007D01*
X0282181Y0392181D01*
X0283007Y0391547D01*
X0283968Y0391149D01*
X02845Y0391079D01*
Y03945D01*
D02*
G37*
G36*
X0295Y0398987D02*
X0293968Y0398851D01*
X0293007Y0398453D01*
X0292181Y0397819D01*
X0291547Y0396993D01*
X0291149Y0396032D01*
X0291013Y0395D01*
X0291149Y0393968D01*
X0291547Y0393007D01*
X0292181Y0392181D01*
X0293007Y0391547D01*
X0293968Y0391149D01*
X0295Y0391013D01*
X0296032Y0391149D01*
X0296993Y0391547D01*
X0297819Y0392181D01*
X0298453Y0393007D01*
X0298851Y0393968D01*
X0298987Y0395D01*
X0298851Y0396032D01*
X0298453Y0396993D01*
X0297819Y0397819D01*
X0296993Y0398453D01*
X0296032Y0398851D01*
X0295Y0398987D01*
D02*
G37*
G36*
X0275D02*
X0273968Y0398851D01*
X0273007Y0398453D01*
X0272181Y0397819D01*
X0271547Y0396993D01*
X0271149Y0396032D01*
X0271013Y0395D01*
X0271149Y0393968D01*
X0271547Y0393007D01*
X0272181Y0392181D01*
X0273007Y0391547D01*
X0273968Y0391149D01*
X0275Y0391013D01*
X0276032Y0391149D01*
X0276993Y0391547D01*
X0277819Y0392181D01*
X0278453Y0393007D01*
X0278851Y0393968D01*
X0278987Y0395D01*
X0278851Y0396032D01*
X0278453Y0396993D01*
X0277819Y0397819D01*
X0276993Y0398453D01*
X0276032Y0398851D01*
X0275Y0398987D01*
D02*
G37*
G36*
X0299Y0381271D02*
Y037785D01*
X0302421D01*
X0302351Y0378382D01*
X0301953Y0379344D01*
X0301319Y038017D01*
X0300493Y0380803D01*
X0299532Y0381201D01*
X0299Y0381271D01*
D02*
G37*
G36*
X0298D02*
X0297468Y0381201D01*
X0296507Y0380803D01*
X0295681Y038017D01*
X0295047Y0379344D01*
X0294649Y0378382D01*
X0294579Y037785D01*
X0298D01*
Y0381271D01*
D02*
G37*
G36*
X0269D02*
Y037785D01*
X0272421D01*
X0272351Y0378382D01*
X0271953Y0379344D01*
X0271319Y038017D01*
X0270493Y0380803D01*
X0269532Y0381201D01*
X0269Y0381271D01*
D02*
G37*
G36*
X0268D02*
X0267468Y0381201D01*
X0266507Y0380803D01*
X0265681Y038017D01*
X0265047Y0379344D01*
X0264649Y0378382D01*
X0264579Y037785D01*
X0268D01*
Y0381271D01*
D02*
G37*
G36*
X0302421Y037685D02*
X0299D01*
Y0373429D01*
X0299532Y0373499D01*
X0300493Y0373898D01*
X0301319Y0374531D01*
X0301953Y0375357D01*
X0302351Y0376319D01*
X0302421Y037685D01*
D02*
G37*
G36*
X0298D02*
X0294579D01*
X0294649Y0376319D01*
X0295047Y0375357D01*
X0295681Y0374531D01*
X0296507Y0373898D01*
X0297468Y0373499D01*
X0298Y0373429D01*
Y037685D01*
D02*
G37*
G36*
X0272421D02*
X0269D01*
Y0373429D01*
X0269532Y0373499D01*
X0270493Y0373898D01*
X0271319Y0374531D01*
X0271953Y0375357D01*
X0272351Y0376319D01*
X0272421Y037685D01*
D02*
G37*
G36*
X0268D02*
X0264579D01*
X0264649Y0376319D01*
X0265047Y0375357D01*
X0265681Y0374531D01*
X0266507Y0373898D01*
X0267468Y0373499D01*
X0268Y0373429D01*
Y037685D01*
D02*
G37*
G36*
X03085Y0381337D02*
X0307468Y0381201D01*
X0306507Y0380803D01*
X0305681Y038017D01*
X0305047Y0379344D01*
X0304649Y0378382D01*
X0304513Y037735D01*
X0304649Y0376319D01*
X0305047Y0375357D01*
X0305681Y0374531D01*
X0306507Y0373898D01*
X0307468Y0373499D01*
X03085Y0373363D01*
X0309532Y0373499D01*
X0310493Y0373898D01*
X0311319Y0374531D01*
X0311953Y0375357D01*
X0312351Y0376319D01*
X0312487Y037735D01*
X0312351Y0378382D01*
X0311953Y0379344D01*
X0311319Y038017D01*
X0310493Y0380803D01*
X0309532Y0381201D01*
X03085Y0381337D01*
D02*
G37*
G36*
X02885D02*
X0287468Y0381201D01*
X0286507Y0380803D01*
X0285681Y038017D01*
X0285047Y0379344D01*
X0284649Y0378382D01*
X0284513Y037735D01*
X0284649Y0376319D01*
X0285047Y0375357D01*
X0285681Y0374531D01*
X0286507Y0373898D01*
X0287468Y0373499D01*
X02885Y0373363D01*
X0289532Y0373499D01*
X0290493Y0373898D01*
X0291319Y0374531D01*
X0291953Y0375357D01*
X0292351Y0376319D01*
X0292487Y037735D01*
X0292351Y0378382D01*
X0291953Y0379344D01*
X0291319Y038017D01*
X0290493Y0380803D01*
X0289532Y0381201D01*
X02885Y0381337D01*
D02*
G37*
G36*
X02785D02*
X0277468Y0381201D01*
X0276507Y0380803D01*
X0275681Y038017D01*
X0275047Y0379344D01*
X0274649Y0378382D01*
X0274513Y037735D01*
X0274649Y0376319D01*
X0275047Y0375357D01*
X0275681Y0374531D01*
X0276507Y0373898D01*
X0277468Y0373499D01*
X02785Y0373363D01*
X0279532Y0373499D01*
X0280493Y0373898D01*
X0281319Y0374531D01*
X0281953Y0375357D01*
X0282351Y0376319D01*
X0282487Y037735D01*
X0282351Y0378382D01*
X0281953Y0379344D01*
X0281319Y038017D01*
X0280493Y0380803D01*
X0279532Y0381201D01*
X02785Y0381337D01*
D02*
G37*
G36*
X02585D02*
X0257468Y0381201D01*
X0256507Y0380803D01*
X0255681Y038017D01*
X0255047Y0379344D01*
X0254649Y0378382D01*
X0254513Y037735D01*
X0254649Y0376319D01*
X0255047Y0375357D01*
X0255681Y0374531D01*
X0256507Y0373898D01*
X0257468Y0373499D01*
X02585Y0373363D01*
X0259532Y0373499D01*
X0260493Y0373898D01*
X0261319Y0374531D01*
X0261953Y0375357D01*
X0262351Y0376319D01*
X0262487Y037735D01*
X0262351Y0378382D01*
X0261953Y0379344D01*
X0261319Y038017D01*
X0260493Y0380803D01*
X0259532Y0381201D01*
X02585Y0381337D01*
D02*
G37*
G36*
X0176Y0378837D02*
X0174968Y0378701D01*
X0174007Y0378303D01*
X0173181Y037767D01*
X0172547Y0376844D01*
X0172149Y0375882D01*
X0172013Y037485D01*
X0172149Y0373818D01*
X0172547Y0372857D01*
X0173181Y0372031D01*
X0174007Y0371398D01*
X0174968Y0370999D01*
X0176Y0370864D01*
X0177032Y0370999D01*
X0177993Y0371398D01*
X0178819Y0372031D01*
X0179453Y0372857D01*
X0179851Y0373818D01*
X0179987Y037485D01*
X0179851Y0375882D01*
X0179453Y0376844D01*
X0178819Y037767D01*
X0177993Y0378303D01*
X0177032Y0378701D01*
X0176Y0378837D01*
D02*
G37*
G36*
Y0368837D02*
X0174968Y0368701D01*
X0174007Y0368303D01*
X0173181Y036767D01*
X0172547Y0366844D01*
X0172149Y0365882D01*
X0172013Y036485D01*
X0172149Y0363819D01*
X0172547Y0362857D01*
X0173181Y0362031D01*
X0174007Y0361398D01*
X0174968Y0360999D01*
X0176Y0360863D01*
X0177032Y0360999D01*
X0177993Y0361398D01*
X0178819Y0362031D01*
X0179453Y0362857D01*
X0179851Y0363819D01*
X0179987Y036485D01*
X0179851Y0365882D01*
X0179453Y0366844D01*
X0178819Y036767D01*
X0177993Y0368303D01*
X0177032Y0368701D01*
X0176Y0368837D01*
D02*
G37*
G36*
X0299Y0360921D02*
Y03575D01*
X0302421D01*
X0302351Y0358032D01*
X0301953Y0358993D01*
X0301319Y0359819D01*
X0300493Y0360453D01*
X0299532Y0360851D01*
X0299Y0360921D01*
D02*
G37*
G36*
X0269D02*
Y03575D01*
X0272421D01*
X0272351Y0358032D01*
X0271953Y0358993D01*
X0271319Y0359819D01*
X0270493Y0360453D01*
X0269532Y0360851D01*
X0269Y0360921D01*
D02*
G37*
G36*
X0298D02*
X0297468Y0360851D01*
X0296507Y0360453D01*
X0295681Y0359819D01*
X0295047Y0358993D01*
X0294649Y0358032D01*
X0294579Y03575D01*
X0298D01*
Y0360921D01*
D02*
G37*
G36*
X0268D02*
X0267468Y0360851D01*
X0266507Y0360453D01*
X0265681Y0359819D01*
X0265047Y0358993D01*
X0264649Y0358032D01*
X0264579Y03575D01*
X0268D01*
Y0360921D01*
D02*
G37*
G36*
X0302421Y03565D02*
X0299D01*
Y0353079D01*
X0299532Y0353149D01*
X0300493Y0353547D01*
X0301319Y0354181D01*
X0301953Y0355007D01*
X0302351Y0355968D01*
X0302421Y03565D01*
D02*
G37*
G36*
X0272421D02*
X0269D01*
Y0353079D01*
X0269532Y0353149D01*
X0270493Y0353547D01*
X0271319Y0354181D01*
X0271953Y0355007D01*
X0272351Y0355968D01*
X0272421Y03565D01*
D02*
G37*
G36*
X0298D02*
X0294579D01*
X0294649Y0355968D01*
X0295047Y0355007D01*
X0295681Y0354181D01*
X0296507Y0353547D01*
X0297468Y0353149D01*
X0298Y0353079D01*
Y03565D01*
D02*
G37*
G36*
X0268D02*
X0264579D01*
X0264649Y0355968D01*
X0265047Y0355007D01*
X0265681Y0354181D01*
X0266507Y0353547D01*
X0267468Y0353149D01*
X0268Y0353079D01*
Y03565D01*
D02*
G37*
G36*
X0312453Y0360953D02*
X0304547D01*
Y0353047D01*
X0312453D01*
Y0360953D01*
D02*
G37*
G36*
X02885Y0360987D02*
X0287468Y0360851D01*
X0286507Y0360453D01*
X0285681Y0359819D01*
X0285047Y0358993D01*
X0284649Y0358032D01*
X0284513Y0357D01*
X0284649Y0355968D01*
X0285047Y0355007D01*
X0285681Y0354181D01*
X0286507Y0353547D01*
X0287468Y0353149D01*
X02885Y0353013D01*
X0289532Y0353149D01*
X0290493Y0353547D01*
X0291319Y0354181D01*
X0291953Y0355007D01*
X0292351Y0355968D01*
X0292487Y0357D01*
X0292351Y0358032D01*
X0291953Y0358993D01*
X0291319Y0359819D01*
X0290493Y0360453D01*
X0289532Y0360851D01*
X02885Y0360987D01*
D02*
G37*
G36*
X02785D02*
X0277468Y0360851D01*
X0276507Y0360453D01*
X0275681Y0359819D01*
X0275047Y0358993D01*
X0274649Y0358032D01*
X0274513Y0357D01*
X0274649Y0355968D01*
X0275047Y0355007D01*
X0275681Y0354181D01*
X0276507Y0353547D01*
X0277468Y0353149D01*
X02785Y0353013D01*
X0279532Y0353149D01*
X0280493Y0353547D01*
X0281319Y0354181D01*
X0281953Y0355007D01*
X0282351Y0355968D01*
X0282487Y0357D01*
X0282351Y0358032D01*
X0281953Y0358993D01*
X0281319Y0359819D01*
X0280493Y0360453D01*
X0279532Y0360851D01*
X02785Y0360987D01*
D02*
G37*
G36*
X02585D02*
X0257468Y0360851D01*
X0256507Y0360453D01*
X0255681Y0359819D01*
X0255047Y0358993D01*
X0254649Y0358032D01*
X0254513Y0357D01*
X0254649Y0355968D01*
X0255047Y0355007D01*
X0255681Y0354181D01*
X0256507Y0353547D01*
X0257468Y0353149D01*
X02585Y0353013D01*
X0259532Y0353149D01*
X0260493Y0353547D01*
X0261319Y0354181D01*
X0261953Y0355007D01*
X0262351Y0355968D01*
X0262487Y0357D01*
X0262351Y0358032D01*
X0261953Y0358993D01*
X0261319Y0359819D01*
X0260493Y0360453D01*
X0259532Y0360851D01*
X02585Y0360987D01*
D02*
G37*
G36*
X0176Y0358837D02*
X0174968Y0358701D01*
X0174007Y0358303D01*
X0173181Y0357669D01*
X0172547Y0356844D01*
X0172149Y0355882D01*
X0172013Y035485D01*
X0172149Y0353818D01*
X0172547Y0352857D01*
X0173181Y0352031D01*
X0174007Y0351398D01*
X0174968Y0350999D01*
X0176Y0350864D01*
X0177032Y0350999D01*
X0177993Y0351398D01*
X0178819Y0352031D01*
X0179453Y0352857D01*
X0179851Y0353818D01*
X0179987Y035485D01*
X0179851Y0355882D01*
X0179453Y0356844D01*
X0178819Y0357669D01*
X0177993Y0358303D01*
X0177032Y0358701D01*
X0176Y0358837D01*
D02*
G37*
G36*
X014089Y0343579D02*
X012511D01*
Y0332917D01*
X014089D01*
Y0343579D01*
D02*
G37*
G36*
X02405Y0342034D02*
X0238774Y0341898D01*
X023709Y0341494D01*
X0235491Y0340831D01*
X0234014Y0339927D01*
X0232698Y0338802D01*
X0231573Y0337486D01*
X0230669Y0336009D01*
X0230006Y033441D01*
X0229602Y0332726D01*
X0229466Y0331D01*
X0229602Y0329274D01*
X0230006Y032759D01*
X0230669Y0325991D01*
X0231573Y0324514D01*
X0232698Y0323198D01*
X0234014Y0322073D01*
X0235491Y0321169D01*
X023709Y0320506D01*
X0238774Y0320102D01*
X02405Y0319966D01*
X0242226Y0320102D01*
X024391Y0320506D01*
X0245509Y0321169D01*
X0246986Y0322073D01*
X0248302Y0323198D01*
X0249427Y0324514D01*
X0250331Y0325991D01*
X0250994Y032759D01*
X0251398Y0329274D01*
X0251534Y0331D01*
X0251398Y0332726D01*
X0250994Y033441D01*
X0250331Y0336009D01*
X0249427Y0337486D01*
X0248302Y0338802D01*
X0246986Y0339927D01*
X0245509Y0340831D01*
X024391Y0341494D01*
X0242226Y0341898D01*
X02405Y0342034D01*
D02*
G37*
G36*
X0176Y038853D02*
X0175086Y038841D01*
X0174235Y0388057D01*
X0173504Y0387496D01*
X0172943Y0386765D01*
X017259Y0385914D01*
X017247Y0385D01*
X017259Y0384086D01*
X0172943Y0383235D01*
X0173504Y0382504D01*
X0174235Y0381943D01*
X0175086Y038159D01*
X0176Y038147D01*
X0176914Y038159D01*
X0177765Y0381943D01*
X0178428Y0382451D01*
X0183944D01*
X0200951Y0365444D01*
Y0321927D01*
X0200443Y0321265D01*
X020009Y0320414D01*
X019997Y03195D01*
X020009Y0318586D01*
X0200443Y0317735D01*
X0201004Y0317004D01*
X0201735Y0316443D01*
X0202586Y031609D01*
X02035Y031597D01*
X0204414Y031609D01*
X0205265Y0316443D01*
X0205996Y0317004D01*
X0206557Y0317735D01*
X020691Y0318586D01*
X020703Y03195D01*
X020691Y0320414D01*
X0206557Y0321265D01*
X0206049Y0321927D01*
Y03665D01*
X0205855Y0367476D01*
X0205302Y0368302D01*
X0186802Y0386802D01*
X0185976Y0387355D01*
X0185Y0387549D01*
X0178428D01*
X0177765Y0388057D01*
X0176914Y038841D01*
X0176Y038853D01*
D02*
G37*
G36*
X014089Y0324681D02*
X012511D01*
Y031402D01*
X014089D01*
Y0324681D01*
D02*
G37*
G36*
X0251Y0302464D02*
Y02995D01*
X0253964D01*
X025391Y0299914D01*
X0253557Y0300765D01*
X0252996Y0301496D01*
X0252265Y0302057D01*
X0251414Y030241D01*
X0251Y0302464D01*
D02*
G37*
G36*
X025D02*
X0249586Y030241D01*
X0248735Y0302057D01*
X0248004Y0301496D01*
X0247443Y0300765D01*
X024709Y0299914D01*
X0247036Y02995D01*
X025D01*
Y0302464D01*
D02*
G37*
G36*
X0253964Y02985D02*
X0251D01*
Y0295536D01*
X0251414Y029559D01*
X0252265Y0295943D01*
X0252996Y0296504D01*
X0253557Y0297235D01*
X025391Y0298086D01*
X0253964Y02985D01*
D02*
G37*
G36*
X025D02*
X0247036D01*
X024709Y0298086D01*
X0247443Y0297235D01*
X0248004Y0296504D01*
X0248735Y0295943D01*
X0249586Y029559D01*
X025Y0295536D01*
Y02985D01*
D02*
G37*
G36*
X014089Y0305784D02*
X012511D01*
Y0295122D01*
X014089D01*
Y0305784D01*
D02*
G37*
G36*
X0278Y02565D02*
X0274579D01*
X0274649Y0255968D01*
X0275047Y0255007D01*
X0275681Y0254181D01*
X0276507Y0253547D01*
X0277468Y0253149D01*
X0278Y0253079D01*
Y02565D01*
D02*
G37*
G36*
X0262453Y0260953D02*
X0254547D01*
Y0253047D01*
X0262453D01*
Y0260953D01*
D02*
G37*
G36*
X03085Y0260987D02*
X0307468Y0260851D01*
X0306507Y0260453D01*
X0305681Y0259819D01*
X0305047Y0258993D01*
X0304649Y0258032D01*
X0304513Y0257D01*
X0304649Y0255968D01*
X0305047Y0255007D01*
X0305681Y0254181D01*
X0306507Y0253547D01*
X0307468Y0253149D01*
X03085Y0253013D01*
X0309532Y0253149D01*
X0310493Y0253547D01*
X0311319Y0254181D01*
X0311953Y0255007D01*
X0312351Y0255968D01*
X0312487Y0257D01*
X0312351Y0258032D01*
X0311953Y0258993D01*
X0311319Y0259819D01*
X0310493Y0260453D01*
X0309532Y0260851D01*
X03085Y0260987D01*
D02*
G37*
G36*
X02985D02*
X0297468Y0260851D01*
X0296507Y0260453D01*
X0295681Y0259819D01*
X0295047Y0258993D01*
X0294649Y0258032D01*
X0294513Y0257D01*
X0294649Y0255968D01*
X0295047Y0255007D01*
X0295681Y0254181D01*
X0296507Y0253547D01*
X0297468Y0253149D01*
X02985Y0253013D01*
X0299532Y0253149D01*
X0300493Y0253547D01*
X0301319Y0254181D01*
X0301953Y0255007D01*
X0302351Y0255968D01*
X0302487Y0257D01*
X0302351Y0258032D01*
X0301953Y0258993D01*
X0301319Y0259819D01*
X0300493Y0260453D01*
X0299532Y0260851D01*
X02985Y0260987D01*
D02*
G37*
G36*
X02685D02*
X0267468Y0260851D01*
X0266507Y0260453D01*
X0265681Y0259819D01*
X0265047Y0258993D01*
X0264649Y0258032D01*
X0264513Y0257D01*
X0264649Y0255968D01*
X0265047Y0255007D01*
X0265681Y0254181D01*
X0266507Y0253547D01*
X0267468Y0253149D01*
X02685Y0253013D01*
X0269532Y0253149D01*
X0270493Y0253547D01*
X0271319Y0254181D01*
X0271953Y0255007D01*
X0272351Y0255968D01*
X0272487Y0257D01*
X0272351Y0258032D01*
X0271953Y0258993D01*
X0271319Y0259819D01*
X0270493Y0260453D01*
X0269532Y0260851D01*
X02685Y0260987D01*
D02*
G37*
G36*
X02435Y0249464D02*
Y02465D01*
X0246464D01*
X024641Y0246914D01*
X0246057Y0247765D01*
X0245496Y0248496D01*
X0244765Y0249057D01*
X0243914Y024941D01*
X02435Y0249464D01*
D02*
G37*
G36*
X02425D02*
X0242086Y024941D01*
X0241235Y0249057D01*
X0240504Y0248496D01*
X0239943Y0247765D01*
X023959Y0246914D01*
X0239536Y02465D01*
X02425D01*
Y0249464D01*
D02*
G37*
G36*
X0246464Y02455D02*
X02435D01*
Y0242536D01*
X0243914Y024259D01*
X0244765Y0242943D01*
X0245496Y0243504D01*
X0246057Y0244235D01*
X024641Y0245086D01*
X0246464Y02455D01*
D02*
G37*
G36*
X02425D02*
X0239536D01*
X023959Y0245086D01*
X0239943Y0244235D01*
X0240504Y0243504D01*
X0241235Y0242943D01*
X0242086Y024259D01*
X02425Y0242536D01*
Y02455D01*
D02*
G37*
G36*
X0139874Y0259267D02*
X0124126D01*
X0122837Y0259097D01*
X0121636Y02586D01*
X0120605Y0257808D01*
X0119814Y0256777D01*
X0119316Y0255576D01*
X0119146Y0254287D01*
Y0246413D01*
X0119316Y0245125D01*
X0119814Y0243924D01*
X0120605Y0242892D01*
X0121636Y0242101D01*
X0122837Y0241603D01*
X0124126Y0241434D01*
X0139874D01*
X0141163Y0241603D01*
X0142364Y0242101D01*
X0143395Y0242892D01*
X0144186Y0243924D01*
X0144684Y0245125D01*
X0144854Y0246413D01*
Y0254287D01*
X0144684Y0255576D01*
X0144186Y0256777D01*
X0143395Y0257808D01*
X0142364Y02586D01*
X0141163Y0259097D01*
X0139874Y0259267D01*
D02*
G37*
G36*
Y0238401D02*
X01325D01*
Y0229984D01*
X0144854D01*
Y0233421D01*
X0144684Y023471D01*
X0144186Y0235911D01*
X0143395Y0236942D01*
X0142364Y0237734D01*
X0141163Y0238231D01*
X0139874Y0238401D01*
D02*
G37*
G36*
X01315D02*
X0124126D01*
X0122837Y0238231D01*
X0121636Y0237734D01*
X0120605Y0236942D01*
X0119814Y0235911D01*
X0119316Y023471D01*
X0119146Y0233421D01*
Y0229984D01*
X01315D01*
Y0238401D01*
D02*
G37*
G36*
X0144854Y0228984D02*
X01325D01*
Y0220568D01*
X0139874D01*
X0141163Y0220737D01*
X0142364Y0221235D01*
X0143395Y0222026D01*
X0144186Y0223058D01*
X0144684Y0224258D01*
X0144854Y0225547D01*
Y0228984D01*
D02*
G37*
G36*
X01315D02*
X0119146D01*
Y0225547D01*
X0119316Y0224258D01*
X0119814Y0223058D01*
X0120605Y0222026D01*
X0121636Y0221235D01*
X0122837Y0220737D01*
X0124126Y0220568D01*
X01315D01*
Y0228984D01*
D02*
G37*
G36*
X02855Y0220421D02*
Y0217D01*
X0288921D01*
X0288851Y0217532D01*
X0288453Y0218493D01*
X0287819Y0219319D01*
X0286993Y0219953D01*
X0286032Y0220351D01*
X02855Y0220421D01*
D02*
G37*
G36*
X02845D02*
X0283968Y0220351D01*
X0283007Y0219953D01*
X0282181Y0219319D01*
X0281547Y0218493D01*
X0281149Y0217532D01*
X0281079Y0217D01*
X02845D01*
Y0220421D01*
D02*
G37*
G36*
X0288921Y0216D02*
X02855D01*
Y0212579D01*
X0286032Y0212649D01*
X0286993Y0213047D01*
X0287819Y0213681D01*
X0288453Y0214507D01*
X0288851Y0215468D01*
X0288921Y0216D01*
D02*
G37*
G36*
X02845D02*
X0281079D01*
X0281149Y0215468D01*
X0281547Y0214507D01*
X0282181Y0213681D01*
X0283007Y0213047D01*
X0283968Y0212649D01*
X02845Y0212579D01*
Y0216D01*
D02*
G37*
G36*
X0295Y0220487D02*
X0293968Y0220351D01*
X0293007Y0219953D01*
X0292181Y0219319D01*
X0291547Y0218493D01*
X0291149Y0217532D01*
X0291013Y02165D01*
X0291149Y0215468D01*
X0291547Y0214507D01*
X0292181Y0213681D01*
X0293007Y0213047D01*
X0293968Y0212649D01*
X0295Y0212513D01*
X0296032Y0212649D01*
X0296993Y0213047D01*
X0297819Y0213681D01*
X0298453Y0214507D01*
X0298851Y0215468D01*
X0298987Y02165D01*
X0298851Y0217532D01*
X0298453Y0218493D01*
X0297819Y0219319D01*
X0296993Y0219953D01*
X0296032Y0220351D01*
X0295Y0220487D01*
D02*
G37*
G36*
X0275D02*
X0273968Y0220351D01*
X0273007Y0219953D01*
X0272181Y0219319D01*
X0271547Y0218493D01*
X0271149Y0217532D01*
X0271013Y02165D01*
X0271149Y0215468D01*
X0271547Y0214507D01*
X0272181Y0213681D01*
X0273007Y0213047D01*
X0273968Y0212649D01*
X0275Y0212513D01*
X0276032Y0212649D01*
X0276993Y0213047D01*
X0277819Y0213681D01*
X0278453Y0214507D01*
X0278851Y0215468D01*
X0278987Y02165D01*
X0278851Y0217532D01*
X0278453Y0218493D01*
X0277819Y0219319D01*
X0276993Y0219953D01*
X0276032Y0220351D01*
X0275Y0220487D01*
D02*
G37*
G36*
X02855Y0210421D02*
Y0207D01*
X0288921D01*
X0288851Y0207532D01*
X0288453Y0208493D01*
X0287819Y0209319D01*
X0286993Y0209953D01*
X0286032Y0210351D01*
X02855Y0210421D01*
D02*
G37*
G36*
X02845D02*
X0283968Y0210351D01*
X0283007Y0209953D01*
X0282181Y0209319D01*
X0281547Y0208493D01*
X0281149Y0207532D01*
X0281079Y0207D01*
X02845D01*
Y0210421D01*
D02*
G37*
G36*
X0288921Y0206D02*
X02855D01*
Y0202579D01*
X0286032Y0202649D01*
X0286993Y0203047D01*
X0287819Y0203681D01*
X0288453Y0204507D01*
X0288851Y0205468D01*
X0288921Y0206D01*
D02*
G37*
G36*
X02845D02*
X0281079D01*
X0281149Y0205468D01*
X0281547Y0204507D01*
X0282181Y0203681D01*
X0283007Y0203047D01*
X0283968Y0202649D01*
X02845Y0202579D01*
Y0206D01*
D02*
G37*
G36*
X0295Y0210487D02*
X0293968Y0210351D01*
X0293007Y0209953D01*
X0292181Y0209319D01*
X0291547Y0208493D01*
X0291149Y0207532D01*
X0291013Y02065D01*
X0291149Y0205468D01*
X0291547Y0204507D01*
X0292181Y0203681D01*
X0293007Y0203047D01*
X0293968Y0202649D01*
X0295Y0202513D01*
X0296032Y0202649D01*
X0296993Y0203047D01*
X0297819Y0203681D01*
X0298453Y0204507D01*
X0298851Y0205468D01*
X0298987Y02065D01*
X0298851Y0207532D01*
X0298453Y0208493D01*
X0297819Y0209319D01*
X0296993Y0209953D01*
X0296032Y0210351D01*
X0295Y0210487D01*
D02*
G37*
G36*
X0275D02*
X0273968Y0210351D01*
X0273007Y0209953D01*
X0272181Y0209319D01*
X0271547Y0208493D01*
X0271149Y0207532D01*
X0271013Y02065D01*
X0271149Y0205468D01*
X0271547Y0204507D01*
X0272181Y0203681D01*
X0273007Y0203047D01*
X0273968Y0202649D01*
X0275Y0202513D01*
X0276032Y0202649D01*
X0276993Y0203047D01*
X0277819Y0203681D01*
X0278453Y0204507D01*
X0278851Y0205468D01*
X0278987Y02065D01*
X0278851Y0207532D01*
X0278453Y0208493D01*
X0277819Y0209319D01*
X0276993Y0209953D01*
X0276032Y0210351D01*
X0275Y0210487D01*
D02*
G37*
G36*
X0156658Y0206733D02*
Y020035D01*
X0161137D01*
Y0201819D01*
X0160967Y0203108D01*
X016047Y0204309D01*
X0159679Y020534D01*
X0158647Y0206131D01*
X0157446Y0206629D01*
X0156658Y0206733D01*
D02*
G37*
G36*
X0155657D02*
X0154869Y0206629D01*
X0153668Y0206131D01*
X0152636Y020534D01*
X0151845Y0204309D01*
X0151348Y0203108D01*
X0151178Y0201819D01*
Y020035D01*
X0155657D01*
Y0206733D01*
D02*
G37*
G36*
X0233Y0202964D02*
Y02D01*
X0235964D01*
X023591Y0200414D01*
X0235557Y0201265D01*
X0234996Y0201996D01*
X0234265Y0202557D01*
X0233414Y020291D01*
X0233Y0202964D01*
D02*
G37*
G36*
X0232D02*
X0231586Y020291D01*
X0230735Y0202557D01*
X0230004Y0201996D01*
X0229443Y0201265D01*
X022909Y0200414D01*
X0229036Y02D01*
X0232D01*
Y0202964D01*
D02*
G37*
G36*
X0235964Y0199D02*
X0233D01*
Y0196036D01*
X0233414Y019609D01*
X0234265Y0196443D01*
X0234996Y0197004D01*
X0235557Y0197735D01*
X023591Y0198586D01*
X0235964Y0199D01*
D02*
G37*
G36*
X0232D02*
X0229036D01*
X022909Y0198586D01*
X0229443Y0197735D01*
X0230004Y0197004D01*
X0230735Y0196443D01*
X0231586Y019609D01*
X0232Y0196036D01*
Y0199D01*
D02*
G37*
G36*
X0161137Y019935D02*
X0156658D01*
Y0192968D01*
X0157446Y0193072D01*
X0158647Y0193569D01*
X0159679Y0194361D01*
X016047Y0195392D01*
X0160967Y0196593D01*
X0161137Y0197882D01*
Y019935D01*
D02*
G37*
G36*
X0155657D02*
X0151178D01*
Y0197882D01*
X0151348Y0196593D01*
X0151845Y0195392D01*
X0152636Y0194361D01*
X0153668Y0193569D01*
X0154869Y0193072D01*
X0155657Y0192968D01*
Y019935D01*
D02*
G37*
G36*
X0175842Y0206799D02*
X0174554Y0206629D01*
X0173353Y0206131D01*
X0172321Y020534D01*
X017153Y0204309D01*
X0171033Y0203108D01*
X0170863Y0201819D01*
Y0197882D01*
X0171033Y0196593D01*
X017153Y0195392D01*
X0172321Y0194361D01*
X0173353Y0193569D01*
X0174554Y0193072D01*
X0175842Y0192902D01*
X0177131Y0193072D01*
X0178332Y0193569D01*
X0179364Y0194361D01*
X0180155Y0195392D01*
X0180652Y0196593D01*
X0180822Y0197882D01*
Y0201819D01*
X0180652Y0203108D01*
X0180155Y0204309D01*
X0179364Y020534D01*
X0178332Y0206131D01*
X0177131Y0206629D01*
X0175842Y0206799D01*
D02*
G37*
G36*
X02045Y0177964D02*
Y0175D01*
X0207464D01*
X020741Y0175414D01*
X0207057Y0176265D01*
X0206496Y0176996D01*
X0205765Y0177557D01*
X0204914Y017791D01*
X02045Y0177964D01*
D02*
G37*
G36*
X02035D02*
X0203086Y017791D01*
X0202235Y0177557D01*
X0201504Y0176996D01*
X0200943Y0176265D01*
X020059Y0175414D01*
X0200536Y0175D01*
X02035D01*
Y0177964D01*
D02*
G37*
%LPD*%
G36*
X0661568Y0409926D02*
X0661408Y0409452D01*
X0661086Y040941D01*
X0660235Y0409057D01*
X0659504Y0408496D01*
X0658943Y0407765D01*
X0658845Y0407529D01*
X0649D01*
X0648415Y0407413D01*
X0647919Y0407081D01*
X0627317Y038648D01*
X0627296Y0386448D01*
X0627Y0386487D01*
X0625968Y0386351D01*
X0625007Y0385953D01*
X0624181Y0385319D01*
X0623547Y0384493D01*
X0623515Y0384417D01*
X0622995Y0384468D01*
X0622913Y0384882D01*
X0622581Y0385379D01*
X0621029Y0386931D01*
Y0397845D01*
X0621265Y0397943D01*
X0621996Y0398504D01*
X0622557Y0399235D01*
X062291Y0400086D01*
X062303Y0401D01*
X062291Y0401914D01*
X0622557Y0402765D01*
X0621996Y0403496D01*
X0621265Y0404057D01*
X0620837Y0404234D01*
Y0404776D01*
X0621493Y0405047D01*
X0622319Y0405681D01*
X0622953Y0406507D01*
X0623351Y0407468D01*
X0623487Y04085D01*
X0623351Y0409532D01*
X0622953Y0410493D01*
X0622319Y0411319D01*
X0621493Y0411953D01*
X0620532Y0412351D01*
X06195Y0412487D01*
X0618468Y0412351D01*
X0617507Y0411953D01*
X0616681Y0411319D01*
X0616047Y0410493D01*
X0615649Y0409532D01*
X0615513Y04085D01*
X0615649Y0407468D01*
X0616047Y0406507D01*
X0616681Y0405681D01*
X0617507Y0405047D01*
X0618162Y0404776D01*
Y0404234D01*
X0617735Y0404057D01*
X0617004Y0403496D01*
X0616443Y0402765D01*
X061609Y0401914D01*
X061597Y0401D01*
X061609Y0400086D01*
X0616443Y0399235D01*
X0617004Y0398504D01*
X0617735Y0397943D01*
X0617971Y0397845D01*
Y0386738D01*
X0617595Y0386409D01*
X0617Y0386487D01*
X0615968Y0386351D01*
X0615007Y0385953D01*
X0614181Y0385319D01*
X0613819Y0384848D01*
X0613156Y0384804D01*
X0611029Y0386931D01*
Y0397845D01*
X0611265Y0397943D01*
X0611996Y0398504D01*
X0612557Y0399235D01*
X061291Y0400086D01*
X061303Y0401D01*
X061291Y0401914D01*
X0612557Y0402765D01*
X0611996Y0403496D01*
X0611265Y0404057D01*
X0610838Y0404234D01*
Y0404776D01*
X0611493Y0405047D01*
X0612319Y0405681D01*
X0612953Y0406507D01*
X0613351Y0407468D01*
X0613487Y04085D01*
X0613351Y0409532D01*
X0612953Y0410493D01*
X0612319Y0411319D01*
X0611493Y0411953D01*
X0610532Y0412351D01*
X06095Y0412487D01*
X0608468Y0412351D01*
X0607507Y0411953D01*
X0606681Y0411319D01*
X0606047Y0410493D01*
X0605649Y0409532D01*
X0605513Y04085D01*
X0605649Y0407468D01*
X0606047Y0406507D01*
X0606681Y0405681D01*
X0607507Y0405047D01*
X0608162Y0404776D01*
Y0404234D01*
X0607735Y0404057D01*
X0607004Y0403496D01*
X0606443Y0402765D01*
X060609Y0401914D01*
X060597Y0401D01*
X060609Y0400086D01*
X0606443Y0399235D01*
X0607004Y0398504D01*
X0607735Y0397943D01*
X0607971Y0397845D01*
Y0386738D01*
X0607595Y0386409D01*
X0607Y0386487D01*
X0605968Y0386351D01*
X0605007Y0385953D01*
X0604181Y0385319D01*
X0603757Y0384767D01*
X0603146Y0384782D01*
X0603081Y0384879D01*
X0601029Y0386931D01*
Y0397845D01*
X0601265Y0397943D01*
X0601996Y0398504D01*
X0602557Y0399235D01*
X060291Y0400086D01*
X060303Y0401D01*
X060291Y0401914D01*
X0602557Y0402765D01*
X0601996Y0403496D01*
X0601265Y0404057D01*
X0600838Y0404234D01*
Y0404776D01*
X0601493Y0405047D01*
X0602319Y0405681D01*
X0602953Y0406507D01*
X0603351Y0407468D01*
X0603487Y04085D01*
X0603351Y0409532D01*
X0602953Y0410493D01*
X0602319Y0411319D01*
X0601493Y0411953D01*
X0600532Y0412351D01*
X05995Y0412487D01*
X0598468Y0412351D01*
X0597507Y0411953D01*
X0596681Y0411319D01*
X0596047Y0410493D01*
X0595649Y0409532D01*
X0595513Y04085D01*
X0595649Y0407468D01*
X0596047Y0406507D01*
X0596681Y0405681D01*
X0597507Y0405047D01*
X0598163Y0404776D01*
Y0404234D01*
X0597735Y0404057D01*
X0597004Y0403496D01*
X0596443Y0402765D01*
X059609Y0401914D01*
X059597Y0401D01*
X059609Y0400086D01*
X0596443Y0399235D01*
X0597004Y0398504D01*
X0597735Y0397943D01*
X0597971Y0397845D01*
Y0386738D01*
X0597595Y0386409D01*
X0597Y0386487D01*
X0595968Y0386351D01*
X0595007Y0385953D01*
X0594181Y0385319D01*
X0593819Y0384848D01*
X0593156Y0384804D01*
X0591029Y0386931D01*
Y0397845D01*
X0591265Y0397943D01*
X0591996Y0398504D01*
X0592557Y0399235D01*
X059291Y0400086D01*
X059303Y0401D01*
X059291Y0401914D01*
X0592557Y0402765D01*
X0591996Y0403496D01*
X0591265Y0404057D01*
X0590837Y0404234D01*
Y0404776D01*
X0591493Y0405047D01*
X0592319Y0405681D01*
X0592953Y0406507D01*
X0593351Y0407468D01*
X0593487Y04085D01*
X0593351Y0409532D01*
X0592953Y0410493D01*
X0592319Y0411319D01*
X0591493Y0411953D01*
X0590532Y0412351D01*
X05895Y0412487D01*
X0588468Y0412351D01*
X0587507Y0411953D01*
X0586681Y0411319D01*
X0586047Y0410493D01*
X0585649Y0409532D01*
X0585513Y04085D01*
X0585649Y0407468D01*
X0586047Y0406507D01*
X0586681Y0405681D01*
X0587507Y0405047D01*
X0588163Y0404776D01*
Y0404234D01*
X0587735Y0404057D01*
X0587004Y0403496D01*
X0586443Y0402765D01*
X058609Y0401914D01*
X058597Y0401D01*
X058609Y0400086D01*
X0586443Y0399235D01*
X0587004Y0398504D01*
X0587735Y0397943D01*
X0587971Y0397845D01*
Y0386738D01*
X0587595Y0386409D01*
X0587Y0386487D01*
X0585968Y0386351D01*
X0585007Y0385953D01*
X0584181Y0385319D01*
X0583547Y0384493D01*
X0583149Y0383532D01*
X0583013Y03825D01*
X0583149Y0381468D01*
X0583547Y0380507D01*
X0584181Y0379681D01*
X0585007Y0379047D01*
X0585968Y0378649D01*
X0587Y0378513D01*
X0588032Y0378649D01*
X0588993Y0379047D01*
X0589819Y0379681D01*
X0590453Y0380507D01*
X0590518Y0380664D01*
X0591018Y0380564D01*
Y0374436D01*
X0590518Y0374336D01*
X0590453Y0374493D01*
X0589819Y0375319D01*
X0588993Y0375953D01*
X0588032Y0376351D01*
X0587Y0376487D01*
X0585968Y0376351D01*
X0585007Y0375953D01*
X0584181Y0375319D01*
X0583547Y0374493D01*
X0583149Y0373532D01*
X0583013Y03725D01*
X0583149Y0371468D01*
X0583547Y0370507D01*
X0584181Y0369681D01*
X0585007Y0369047D01*
X0585968Y0368649D01*
X0587Y0368513D01*
X0588032Y0368649D01*
X0588993Y0369047D01*
X0589819Y0369681D01*
X0590453Y0370507D01*
X0590518Y0370664D01*
X0591018Y0370564D01*
Y0362391D01*
X0590504Y0361996D01*
X0589943Y0361265D01*
X058959Y0360414D01*
X0589548Y0360092D01*
X0589074Y0359932D01*
X0579896Y036911D01*
X0579817Y036922D01*
X0579807Y0369519D01*
X0579864Y0369739D01*
X0580453Y0370507D01*
X0580851Y0371468D01*
X0580987Y03725D01*
X0580851Y0373532D01*
X0580453Y0374493D01*
X0579819Y0375319D01*
X0578993Y0375953D01*
X0578032Y0376351D01*
X0577Y0376487D01*
X0575968Y0376351D01*
X0575007Y0375953D01*
X0574181Y0375319D01*
X0573547Y0374493D01*
X0573149Y0373532D01*
X0573013Y03725D01*
X0573149Y0371468D01*
X0573547Y0370507D01*
X0573877Y0370077D01*
X0573631Y0369577D01*
X0570369D01*
X0570123Y0370077D01*
X0570453Y0370507D01*
X0570851Y0371468D01*
X0570987Y03725D01*
X0570851Y0373532D01*
X0570453Y0374493D01*
X0569819Y0375319D01*
X0568993Y0375953D01*
X0568032Y0376351D01*
X0567Y0376487D01*
X0565968Y0376351D01*
X0565007Y0375953D01*
X0564577Y0375623D01*
X0564077Y0375869D01*
Y0377414D01*
X0565504Y0378841D01*
X0565968Y0378649D01*
X0567Y0378513D01*
X0568032Y0378649D01*
X0568993Y0379047D01*
X0569819Y0379681D01*
X0570453Y0380507D01*
X0570851Y0381468D01*
X0570987Y03825D01*
X0570851Y0383532D01*
X0570453Y0384493D01*
X0569819Y0385319D01*
X0568993Y0385953D01*
X0568032Y0386351D01*
X0567Y0386487D01*
X0565968Y0386351D01*
X0565007Y0385953D01*
X0564181Y0385319D01*
X0563547Y0384493D01*
X0563149Y0383532D01*
X0563013Y03825D01*
X0563149Y0381468D01*
X0563341Y0381004D01*
X0561466Y0379129D01*
X0561134Y0378632D01*
X0561018Y0378047D01*
Y0374436D01*
X0560518Y0374336D01*
X0560453Y0374493D01*
X0559819Y0375319D01*
X0558993Y0375953D01*
X0558032Y0376351D01*
X0557Y0376487D01*
X0555968Y0376351D01*
X0555007Y0375953D01*
X0554577Y0375623D01*
X0554077Y0375869D01*
Y0377414D01*
X0555504Y0378841D01*
X0555968Y0378649D01*
X0557Y0378513D01*
X0558032Y0378649D01*
X0558993Y0379047D01*
X0559819Y0379681D01*
X0560453Y0380507D01*
X0560851Y0381468D01*
X0560987Y03825D01*
X0560851Y0383532D01*
X0560453Y0384493D01*
X0559819Y0385319D01*
X0558993Y0385953D01*
X0558032Y0386351D01*
X0557Y0386487D01*
X0555968Y0386351D01*
X0555007Y0385953D01*
X0554181Y0385319D01*
X0553547Y0384493D01*
X0553149Y0383532D01*
X0553013Y03825D01*
X0553149Y0381468D01*
X0553341Y0381004D01*
X0551466Y0379129D01*
X0551134Y0378632D01*
X0551018Y0378047D01*
Y0374436D01*
X0550518Y0374336D01*
X0550453Y0374493D01*
X0549819Y0375319D01*
X0548993Y0375953D01*
X0548032Y0376351D01*
X0547Y0376487D01*
X0545968Y0376351D01*
X0545007Y0375953D01*
X0544586Y037563D01*
X0544086Y0375877D01*
Y0379123D01*
X0544586Y037937D01*
X0545007Y0379047D01*
X0545968Y0378649D01*
X0547Y0378513D01*
X0548032Y0378649D01*
X0548993Y0379047D01*
X0549819Y0379681D01*
X0550453Y0380507D01*
X0550851Y0381468D01*
X0550987Y03825D01*
X0550851Y0383532D01*
X0550453Y0384493D01*
X0549819Y0385319D01*
X0548993Y0385953D01*
X0548032Y0386351D01*
X0547Y0386487D01*
X0545968Y0386351D01*
X0545007Y0385953D01*
X0544586Y038563D01*
X0544086Y0385877D01*
Y0389083D01*
X0568328D01*
X0569109Y0389238D01*
X056977Y038968D01*
X0570942Y0390852D01*
X0570942Y0390852D01*
X0571384Y0391513D01*
X0571539Y0392294D01*
Y0405082D01*
X0572319Y0405681D01*
X0572953Y0406507D01*
X0573351Y0407468D01*
X0573487Y04085D01*
X0573351Y0409532D01*
X0572953Y0410493D01*
X0572319Y0411319D01*
X0571539Y0411918D01*
Y0420153D01*
X0571996Y0420504D01*
X0572557Y0421235D01*
X057291Y0422086D01*
X057303Y0423D01*
X057291Y0423914D01*
X0572557Y0424765D01*
X0572016Y0425471D01*
X0572044Y0425642D01*
X0572156Y0425971D01*
X0576919D01*
X057714Y0425522D01*
X0576943Y0425265D01*
X057659Y0424414D01*
X0576536Y0424D01*
X0583464D01*
X058341Y0424414D01*
X0583057Y0425265D01*
X058286Y0425522D01*
X0583081Y0425971D01*
X0645523D01*
X0661568Y0409926D01*
D02*
G37*
G36*
X0688769Y0417933D02*
X0688536Y041746D01*
X0688Y041753D01*
X0687086Y041741D01*
X0686235Y0417057D01*
X0685504Y0416496D01*
X0684943Y0415765D01*
X068459Y0414914D01*
X068447Y0414D01*
X068459Y0413086D01*
X0684943Y0412235D01*
X0685504Y0411504D01*
X0686235Y0410943D01*
X06866Y0410791D01*
X0686763Y0410183D01*
X0686443Y0409765D01*
X068609Y0408914D01*
X0686036Y04085D01*
X06895D01*
Y04075D01*
X0685709D01*
X0685542Y0407418D01*
X0655879Y0437081D01*
X0655382Y0437413D01*
X0654797Y0437529D01*
X0510155D01*
X0510057Y0437765D01*
X050986Y0438022D01*
X0510081Y0438471D01*
X0668232D01*
X0688769Y0417933D01*
D02*
G37*
G36*
X050414Y0438022D02*
X0503943Y0437765D01*
X050359Y0436914D01*
X050347Y0436D01*
X050359Y0435086D01*
X0503943Y0434235D01*
X0504504Y0433504D01*
X0505235Y0432943D01*
X0505471Y0432845D01*
Y0411292D01*
X0504971Y0411122D01*
X0504819Y0411319D01*
X0503993Y0411953D01*
X0503032Y0412351D01*
X0502Y0412487D01*
X0500968Y0412351D01*
X0500007Y0411953D01*
X0499181Y0411319D01*
X0498547Y0410493D01*
X0498149Y0409532D01*
X0498013Y04085D01*
X0498149Y0407468D01*
X0498547Y0406507D01*
X0499181Y0405681D01*
X0500007Y0405047D01*
X0500968Y0404649D01*
X0502Y0404513D01*
X0503032Y0404649D01*
X0503993Y0405047D01*
X0504819Y0405681D01*
X0504971Y0405878D01*
X0505471Y0405709D01*
Y0401292D01*
X0504971Y0401122D01*
X0504819Y0401319D01*
X0503993Y0401953D01*
X0503032Y0402351D01*
X0502Y0402487D01*
X0500968Y0402351D01*
X0500007Y0401953D01*
X0499181Y0401319D01*
X0498547Y0400493D01*
X0498149Y0399532D01*
X0498013Y03985D01*
X0498149Y0397468D01*
X0498547Y0396507D01*
X0499181Y0395681D01*
X0500007Y0395047D01*
X0500968Y0394649D01*
X0502Y0394513D01*
X0503032Y0394649D01*
X0503993Y0395047D01*
X0504819Y0395681D01*
X0504971Y0395878D01*
X0505471Y0395708D01*
Y0387539D01*
X0505587Y0386953D01*
X0505702Y0386782D01*
X0505522Y0386166D01*
X0505007Y0385953D01*
X0504181Y0385319D01*
X0503547Y0384493D01*
X0503149Y0383532D01*
X0503013Y03825D01*
X0503149Y0381468D01*
X0503547Y0380507D01*
X0504181Y0379681D01*
X0505007Y0379047D01*
X0505522Y0378834D01*
X0505702Y0378218D01*
X0505587Y0378047D01*
X0505471Y0377462D01*
Y0376145D01*
X0505007Y0375953D01*
X0504181Y0375319D01*
X0503547Y0374493D01*
X0503149Y0373532D01*
X0503013Y03725D01*
X0503149Y0371468D01*
X0503547Y0370507D01*
X0504181Y0369681D01*
X0504378Y0369529D01*
X0504209Y0369029D01*
X0499791D01*
X0499622Y0369529D01*
X0499819Y0369681D01*
X0500453Y0370507D01*
X0500851Y0371468D01*
X0500987Y03725D01*
X0500851Y0373532D01*
X0500453Y0374493D01*
X0499819Y0375319D01*
X0498993Y0375953D01*
X0498032Y0376351D01*
X0497Y0376487D01*
X0495968Y0376351D01*
X0495007Y0375953D01*
X0494181Y0375319D01*
X0493547Y0374493D01*
X0493149Y0373532D01*
X0493013Y03725D01*
X0493149Y0371468D01*
X0493547Y0370507D01*
X0494181Y0369681D01*
X0494378Y0369529D01*
X0494208Y0369029D01*
X0489791D01*
X0489622Y0369529D01*
X0489819Y0369681D01*
X0490453Y0370507D01*
X0490851Y0371468D01*
X0490987Y03725D01*
X0490851Y0373532D01*
X0490453Y0374493D01*
X0489819Y0375319D01*
X0488993Y0375953D01*
X0488032Y0376351D01*
X0487Y0376487D01*
X0485968Y0376351D01*
X0485007Y0375953D01*
X0484181Y0375319D01*
X0483547Y0374493D01*
X0483149Y0373532D01*
X0483013Y03725D01*
X0483149Y0371468D01*
X0483547Y0370507D01*
X0484181Y0369681D01*
X0484378Y0369529D01*
X0484208Y0369029D01*
X0479791D01*
X0479622Y0369529D01*
X0479819Y0369681D01*
X0480453Y0370507D01*
X0480851Y0371468D01*
X0480987Y03725D01*
X0480851Y0373532D01*
X0480453Y0374493D01*
X0479819Y0375319D01*
X0478993Y0375953D01*
X0478032Y0376351D01*
X0477Y0376487D01*
X0475968Y0376351D01*
X0475504Y0376159D01*
X0465107Y0386556D01*
X0465298Y0387018D01*
X0480319D01*
X0483341Y0383996D01*
X0483149Y0383532D01*
X0483013Y03825D01*
X0483149Y0381468D01*
X0483547Y0380507D01*
X0484181Y0379681D01*
X0485007Y0379047D01*
X0485968Y0378649D01*
X0487Y0378513D01*
X0488032Y0378649D01*
X0488993Y0379047D01*
X0489819Y0379681D01*
X0490453Y0380507D01*
X0490851Y0381468D01*
X0490987Y03825D01*
X0490851Y0383532D01*
X0490453Y0384493D01*
X0489819Y0385319D01*
X0488993Y0385953D01*
X0488032Y0386351D01*
X0487Y0386487D01*
X0485968Y0386351D01*
X0485504Y0386159D01*
X0482034Y0389629D01*
X0481538Y038996D01*
X0480953Y0390077D01*
X0409126D01*
X0408958Y0390547D01*
X040923Y039077D01*
X0409973Y0391677D01*
X0410526Y0392711D01*
X0410867Y0393833D01*
X0410982Y0395D01*
X0410867Y0396167D01*
X0410526Y0397289D01*
X0409973Y0398323D01*
X0409967Y0398331D01*
X0410016Y0398829D01*
X0410651Y0399349D01*
X0411645Y040056D01*
X0412383Y0401942D01*
X0412838Y0403441D01*
X0412947Y0404555D01*
X0454483Y0438471D01*
X0503919D01*
X050414Y0438022D01*
D02*
G37*
G36*
X0540582Y0427558D02*
X0540581Y0427471D01*
X0540471Y0426914D01*
Y0412145D01*
X0540007Y0411953D01*
X0539181Y0411319D01*
X0538547Y0410493D01*
X0538149Y0409532D01*
X0538013Y04085D01*
X0538149Y0407468D01*
X0538547Y0406507D01*
X0539181Y0405681D01*
X0540007Y0405047D01*
X0540968Y0404649D01*
X0542Y0404513D01*
X0543032Y0404649D01*
X0543993Y0405047D01*
X0544819Y0405681D01*
X0545453Y0406507D01*
X0545851Y0407468D01*
X0545987Y04085D01*
X0545851Y0409532D01*
X0545453Y0410493D01*
X0544819Y0411319D01*
X0543993Y0411953D01*
X0543529Y0412145D01*
Y0425971D01*
X0566844D01*
X0566956Y0425642D01*
X0566984Y0425471D01*
X0566443Y0424765D01*
X056609Y0423914D01*
X056597Y0423D01*
X056609Y0422086D01*
X0566443Y0421235D01*
X0567004Y0420504D01*
X0567461Y0420153D01*
Y0411918D01*
X0566681Y0411319D01*
X0566047Y0410493D01*
X0565649Y0409532D01*
X0565513Y04085D01*
X0565649Y0407468D01*
X0566047Y0406507D01*
X0566681Y0405681D01*
X0567461Y0405082D01*
Y0393161D01*
X0543219D01*
X0542439Y0393006D01*
X0541777Y0392564D01*
X0541777Y0392564D01*
X0540605Y0391392D01*
X0540163Y0390731D01*
X0540008Y0389951D01*
Y0385804D01*
X0539508Y0385558D01*
X0538993Y0385953D01*
X0538032Y0386351D01*
X0537Y0386487D01*
X0535968Y0386351D01*
X0535007Y0385953D01*
X0534181Y0385319D01*
X0533547Y0384493D01*
X0533149Y0383532D01*
X0533013Y03825D01*
X0533149Y0381468D01*
X0533547Y0380507D01*
X0534181Y0379681D01*
X0535007Y0379047D01*
X0535968Y0378649D01*
X0537Y0378513D01*
X0538032Y0378649D01*
X0538993Y0379047D01*
X0539508Y0379442D01*
X0540008Y0379196D01*
Y0375804D01*
X0539508Y0375558D01*
X0538993Y0375953D01*
X0538032Y0376351D01*
X0537Y0376487D01*
X0535968Y0376351D01*
X0535007Y0375953D01*
X0534181Y0375319D01*
X0533547Y0374493D01*
X0533149Y0373532D01*
X0533013Y03725D01*
X0533149Y0371468D01*
X0533547Y0370507D01*
X0534181Y0369681D01*
X0535007Y0369047D01*
X0535968Y0368649D01*
X0537Y0368513D01*
X0538032Y0368649D01*
X0538993Y0369047D01*
X0539508Y0369442D01*
X0540008Y0369196D01*
Y0324953D01*
X0540163Y0324172D01*
X0540605Y0323511D01*
X0542419Y0321697D01*
X0543067Y0321264D01*
X054309Y0321086D01*
X0543443Y0320235D01*
X0544004Y0319504D01*
X0544622Y0319029D01*
X0544493Y0318529D01*
X048905D01*
X048895Y0319029D01*
X0488993Y0319047D01*
X0489819Y0319681D01*
X0490453Y0320507D01*
X0490851Y0321468D01*
X0490987Y03225D01*
X0490851Y0323532D01*
X0490453Y0324493D01*
X0489819Y0325319D01*
X0488993Y0325953D01*
X0488032Y0326351D01*
X0487Y0326487D01*
X0485968Y0326351D01*
X0485007Y0325953D01*
X0484181Y0325319D01*
X0483547Y0324493D01*
X0483149Y0323532D01*
X0483013Y03225D01*
X0483149Y0321468D01*
X0483547Y0320507D01*
X0484181Y0319681D01*
X0485007Y0319047D01*
X048505Y0319029D01*
X048495Y0318529D01*
X047905D01*
X047895Y0319029D01*
X0478993Y0319047D01*
X0479819Y0319681D01*
X0480453Y0320507D01*
X0480851Y0321468D01*
X0480987Y03225D01*
X0480851Y0323532D01*
X0480453Y0324493D01*
X0479819Y0325319D01*
X0478993Y0325953D01*
X0478032Y0326351D01*
X0477Y0326487D01*
X0475968Y0326351D01*
X0475007Y0325953D01*
X0474181Y0325319D01*
X0473547Y0324493D01*
X0473149Y0323532D01*
X0473078Y0322995D01*
X047255Y0322815D01*
X0469034Y0326332D01*
Y0326995D01*
X0468918Y0327581D01*
X0468586Y0328077D01*
X0460312Y0336351D01*
X046041Y0336586D01*
X046053Y03375D01*
X046041Y0338414D01*
X0460057Y0339265D01*
X0459496Y0339996D01*
X0458765Y0340557D01*
X0457914Y034091D01*
X0457Y034103D01*
X0456086Y034091D01*
X0455235Y0340557D01*
X0454978Y034036D01*
X0454529Y0340581D01*
Y0344053D01*
X0460081Y0349605D01*
X0460413Y0350101D01*
X0460529Y0350686D01*
Y03595D01*
X0460413Y0360085D01*
X0460081Y0360581D01*
X0446529Y0374133D01*
Y0378845D01*
X0446765Y0378943D01*
X0447496Y0379504D01*
X0448057Y0380235D01*
X0448183Y038054D01*
X0448725D01*
X0448786Y0380392D01*
X0449347Y0379661D01*
X0450078Y03791D01*
X0450814Y0378795D01*
Y0378D01*
X045093Y0377415D01*
X0451262Y0376919D01*
X0466762Y0361419D01*
X0467047Y0361228D01*
X0467Y0360667D01*
X0466735Y0360557D01*
X0466004Y0359996D01*
X0465443Y0359265D01*
X046509Y0358414D01*
X046497Y03575D01*
X046509Y0356586D01*
X0465443Y0355735D01*
X0466004Y0355004D01*
X0466735Y0354443D01*
X0467586Y035409D01*
X04685Y035397D01*
X0469414Y035409D01*
X0470265Y0354443D01*
X0470996Y0355004D01*
X0471557Y0355735D01*
X0471655Y0355971D01*
X0474208D01*
X0474378Y0355471D01*
X0474181Y0355319D01*
X0473547Y0354493D01*
X0473149Y0353532D01*
X0473013Y03525D01*
X0473149Y0351468D01*
X0473547Y0350507D01*
X0474181Y0349681D01*
X0475007Y0349047D01*
X0475968Y0348649D01*
X0477Y0348513D01*
X0478032Y0348649D01*
X0478993Y0349047D01*
X0479819Y0349681D01*
X0480453Y0350507D01*
X0480851Y0351468D01*
X0480987Y03525D01*
X0480851Y0353532D01*
X0480453Y0354493D01*
X0479819Y0355319D01*
X0479622Y0355471D01*
X0479791Y0355971D01*
X0484208D01*
X0484378Y0355471D01*
X0484181Y0355319D01*
X0483547Y0354493D01*
X0483149Y0353532D01*
X0483013Y03525D01*
X0483149Y0351468D01*
X0483547Y0350507D01*
X0484181Y0349681D01*
X0485007Y0349047D01*
X0485968Y0348649D01*
X0487Y0348513D01*
X0488032Y0348649D01*
X0488993Y0349047D01*
X0489819Y0349681D01*
X0490453Y0350507D01*
X0490851Y0351468D01*
X0490987Y03525D01*
X0490851Y0353532D01*
X0490453Y0354493D01*
X0489819Y0355319D01*
X0489622Y0355471D01*
X0489791Y0355971D01*
X0496015D01*
X0496047Y0355471D01*
X0495586Y035541D01*
X0494735Y0355057D01*
X0494004Y0354496D01*
X0493443Y0353765D01*
X049309Y0352914D01*
X0493036Y03525D01*
X0499964D01*
X049991Y0352914D01*
X0499557Y0353765D01*
X0498996Y0354496D01*
X0498265Y0355057D01*
X0497414Y035541D01*
X0496953Y0355471D01*
X0496985Y0355971D01*
X0512D01*
X0512585Y0356087D01*
X0513081Y0356419D01*
X0525504Y0368841D01*
X0525968Y0368649D01*
X0527Y0368513D01*
X0528032Y0368649D01*
X0528993Y0369047D01*
X0529819Y0369681D01*
X0530453Y0370507D01*
X0530851Y0371468D01*
X0530987Y03725D01*
X0530851Y0373532D01*
X0530453Y0374493D01*
X0529819Y0375319D01*
X0528993Y0375953D01*
X0528032Y0376351D01*
X0527Y0376487D01*
X0525968Y0376351D01*
X0525007Y0375953D01*
X0524181Y0375319D01*
X0523547Y0374493D01*
X0523149Y0373532D01*
X0523013Y03725D01*
X0523149Y0371468D01*
X0523341Y0371004D01*
X0511367Y0359029D01*
X0489791D01*
X0489622Y0359529D01*
X0489819Y0359681D01*
X0490453Y0360507D01*
X0490851Y0361468D01*
X0490987Y03625D01*
X0490851Y0363532D01*
X0490453Y0364493D01*
X0489819Y0365319D01*
X0489622Y0365471D01*
X0489791Y0365971D01*
X0512D01*
X0512585Y0366087D01*
X0513081Y0366419D01*
X0515504Y0368841D01*
X0515968Y0368649D01*
X0517Y0368513D01*
X0518032Y0368649D01*
X0518993Y0369047D01*
X0519819Y0369681D01*
X0520453Y0370507D01*
X0520851Y0371468D01*
X0520987Y03725D01*
X0520851Y0373532D01*
X0520453Y0374493D01*
X0519819Y0375319D01*
X0518993Y0375953D01*
X0518032Y0376351D01*
X0517Y0376487D01*
X0515968Y0376351D01*
X0515007Y0375953D01*
X0514181Y0375319D01*
X0513547Y0374493D01*
X0513149Y0373532D01*
X0513013Y03725D01*
X0513149Y0371468D01*
X0513341Y0371004D01*
X0511367Y0369029D01*
X0509792D01*
X0509622Y0369529D01*
X0509819Y0369681D01*
X0510453Y0370507D01*
X0510851Y0371468D01*
X0510987Y03725D01*
X0510851Y0373532D01*
X0510453Y0374493D01*
X0509819Y0375319D01*
X0508993Y0375953D01*
X0508974Y0376046D01*
X0509348Y0376618D01*
X050943Y0376634D01*
X0509926Y0376966D01*
X0512534Y0379574D01*
X0512866Y038007D01*
X0512882Y0380152D01*
X0513454Y0380526D01*
X0513547Y0380507D01*
X0514181Y0379681D01*
X0515007Y0379047D01*
X0515968Y0378649D01*
X0517Y0378513D01*
X0518032Y0378649D01*
X0518993Y0379047D01*
X0519819Y0379681D01*
X0520453Y0380507D01*
X0520851Y0381468D01*
X0520987Y03825D01*
X0520851Y0383532D01*
X0520453Y0384493D01*
X0519819Y0385319D01*
X0518993Y0385953D01*
X0518779Y0386041D01*
Y0395452D01*
X0519279Y0395605D01*
X0520007Y0395047D01*
X0520968Y0394649D01*
X0522Y0394513D01*
X0523032Y0394649D01*
X0523993Y0395047D01*
X0524721Y0395605D01*
X0525221Y0395452D01*
Y0386041D01*
X0525007Y0385953D01*
X0524181Y0385319D01*
X0523547Y0384493D01*
X0523149Y0383532D01*
X0523013Y03825D01*
X0523149Y0381468D01*
X0523547Y0380507D01*
X0524181Y0379681D01*
X0525007Y0379047D01*
X0525968Y0378649D01*
X0527Y0378513D01*
X0528032Y0378649D01*
X0528993Y0379047D01*
X0529819Y0379681D01*
X0530453Y0380507D01*
X0530851Y0381468D01*
X0530987Y03825D01*
X0530851Y0383532D01*
X0530453Y0384493D01*
X0529819Y0385319D01*
X0528993Y0385953D01*
X0528279Y0386248D01*
Y0396034D01*
X0528779Y0396204D01*
X0529181Y0395681D01*
X0530007Y0395047D01*
X0530968Y0394649D01*
X0532Y0394513D01*
X0533032Y0394649D01*
X0533993Y0395047D01*
X0534819Y0395681D01*
X0535453Y0396507D01*
X0535851Y0397468D01*
X0535987Y03985D01*
X0535851Y0399532D01*
X0535453Y0400493D01*
X0534819Y0401319D01*
X0533993Y0401953D01*
X0533032Y0402351D01*
X0532Y0402487D01*
X0530968Y0402351D01*
X0530007Y0401953D01*
X0529181Y0401319D01*
X0528779Y0400796D01*
X0528279Y0400966D01*
Y0406034D01*
X0528779Y0406204D01*
X0529181Y0405681D01*
X0530007Y0405047D01*
X0530968Y0404649D01*
X0532Y0404513D01*
X0533032Y0404649D01*
X0533993Y0405047D01*
X0534819Y0405681D01*
X0535453Y0406507D01*
X0535851Y0407468D01*
X0535987Y04085D01*
X0535851Y0409532D01*
X0535453Y0410493D01*
X0534819Y0411319D01*
X0533993Y0411953D01*
X0533032Y0412351D01*
X0532Y0412487D01*
X0530968Y0412351D01*
X0530007Y0411953D01*
X0529181Y0411319D01*
X0528779Y0410796D01*
X0528279Y0410966D01*
Y0425454D01*
X0528996Y0426004D01*
X0529557Y0426735D01*
X052991Y0427586D01*
X052996Y0427971D01*
X0540326D01*
X0540582Y0427558D01*
D02*
G37*
G36*
X0699972Y0398662D02*
X0699752Y0398132D01*
X0699698Y0397718D01*
X0703162D01*
Y0397218D01*
X0703662D01*
Y0393754D01*
X0704076Y0393808D01*
X0704927Y0394161D01*
X0705184Y0394358D01*
X0705633Y0394137D01*
Y0387488D01*
X0705133Y0387319D01*
X0704996Y0387496D01*
X0704265Y0388057D01*
X0703414Y038841D01*
X07025Y038853D01*
X0701586Y038841D01*
X0700735Y0388057D01*
X0700004Y0387496D01*
X0699609Y0386982D01*
X0697895D01*
X0697843Y0387034D01*
X0697346Y0387366D01*
X0696761Y0387482D01*
X0694936D01*
X0694836Y0387982D01*
X0694993Y0388047D01*
X0695819Y0388681D01*
X0696453Y0389507D01*
X0696851Y0390468D01*
X0696987Y03915D01*
X0696851Y0392532D01*
X0696453Y0393493D01*
X0695819Y0394319D01*
X0694993Y0394953D01*
X0694032Y0395351D01*
X0693Y0395487D01*
X0691968Y0395351D01*
X0691007Y0394953D01*
X0690181Y0394319D01*
X0689547Y0393493D01*
X0689149Y0392532D01*
X0689013Y03915D01*
X0689074Y0391035D01*
X0688569Y0390529D01*
X0687238D01*
X0686909Y0390905D01*
X0686987Y03915D01*
X0686851Y0392532D01*
X0686659Y0392996D01*
X0688534Y0394871D01*
X0688866Y0395368D01*
X0688982Y0395953D01*
Y0399564D01*
X0689482Y0399664D01*
X0689547Y0399507D01*
X0690181Y0398681D01*
X0691007Y0398047D01*
X0691968Y0397649D01*
X0693Y0397513D01*
X0694032Y0397649D01*
X0694993Y0398047D01*
X0695819Y0398681D01*
X0696453Y0399507D01*
X0696851Y0400468D01*
X0696922Y0401005D01*
X069745Y0401185D01*
X0699972Y0398662D01*
D02*
G37*
G36*
X0677018Y0400319D02*
Y0389656D01*
X0677134Y038907D01*
X0677466Y0388574D01*
X0680074Y0385966D01*
X068057Y0385634D01*
X0680652Y0385618D01*
X0681026Y0385046D01*
X0681007Y0384953D01*
X0680181Y0384319D01*
X0679547Y0383493D01*
X0679149Y0382532D01*
X0679079Y0382D01*
X0683D01*
Y0381D01*
X0679079D01*
X0679149Y0380468D01*
X0679547Y0379507D01*
X067967Y0379347D01*
X0679449Y0378814D01*
X0679181Y0378779D01*
X0669926Y0388034D01*
X066943Y0388366D01*
X0668844Y0388482D01*
X0655156D01*
X0654999Y0388451D01*
X065316D01*
X0652938Y0388899D01*
X0653136Y0389157D01*
X0653488Y0390008D01*
X0653609Y0390922D01*
X0653488Y0391835D01*
X0653345Y0392182D01*
X0657688Y0396525D01*
X0659711D01*
X0660296Y0396641D01*
X0660793Y0396973D01*
X0667081Y0403262D01*
X0667413Y0403758D01*
X0667529Y0404343D01*
Y0407657D01*
X0667413Y0408242D01*
X0667081Y0408738D01*
X0648311Y0427509D01*
X0648502Y0427971D01*
X0649367D01*
X0677018Y0400319D01*
D02*
G37*
G36*
X0551018Y0370564D02*
Y0359953D01*
X0551134Y0359367D01*
X0551466Y0358871D01*
X0552688Y0357649D01*
X055259Y0357414D01*
X055247Y03565D01*
X055259Y0355586D01*
X0552943Y0354735D01*
X0553504Y0354004D01*
X0554235Y0353443D01*
X0555086Y035309D01*
X0556Y035297D01*
X0556914Y035309D01*
X0557765Y0353443D01*
X0558496Y0354004D01*
X0559057Y0354735D01*
X055941Y0355586D01*
X055953Y03565D01*
X0559422Y0357324D01*
X0559615Y0357549D01*
X0559835Y0357694D01*
X0560086Y035759D01*
X05605Y0357536D01*
Y03605D01*
X0557536D01*
X0557578Y0360176D01*
X0557385Y0359951D01*
X0557165Y0359806D01*
X0556914Y035991D01*
X0556Y036003D01*
X0555086Y035991D01*
X0554851Y0359812D01*
X0554077Y0360586D01*
Y0369131D01*
X0554577Y0369377D01*
X0555007Y0369047D01*
X0555968Y0368649D01*
X0557Y0368513D01*
X0558032Y0368649D01*
X0558496Y0368841D01*
X056272Y0364617D01*
X0562437Y0364193D01*
X0561914Y036441D01*
X05615Y0364464D01*
Y03615D01*
X0564464D01*
X056441Y0361914D01*
X0564193Y0362437D01*
X0564617Y036272D01*
X0645244Y0282093D01*
Y0271655D01*
X0645009Y0271557D01*
X0644277Y0270996D01*
X0643716Y0270265D01*
X0643364Y0269414D01*
X0643316Y0269054D01*
X0642788Y0268874D01*
X0595786Y0315876D01*
X0595786Y0315876D01*
X0595786Y0315876D01*
X0595718Y0315945D01*
X0595594Y0316028D01*
X059549Y0316133D01*
X0592311Y0318269D01*
X059217Y0318328D01*
X0592043Y0318413D01*
X0591898Y0318442D01*
X0591761Y0318499D01*
X0591608Y03185D01*
X0591458Y0318529D01*
X0591153Y0318529D01*
X0548507D01*
X0548378Y0319029D01*
X0548996Y0319504D01*
X0549557Y0320235D01*
X054991Y0321086D01*
X055003Y0322D01*
X054991Y0322914D01*
X0549557Y0323765D01*
X0548996Y0324496D01*
X0548265Y0325057D01*
X0547414Y032541D01*
X05465Y032553D01*
X0545586Y032541D01*
X05448Y0325084D01*
X0544086Y0325797D01*
Y0369123D01*
X0544586Y036937D01*
X0545007Y0369047D01*
X0545968Y0368649D01*
X0547Y0368513D01*
X0548032Y0368649D01*
X0548993Y0369047D01*
X0549819Y0369681D01*
X0550453Y0370507D01*
X0550518Y0370664D01*
X0551018Y0370564D01*
D02*
G37*
G36*
X0700666Y0375038D02*
X0701397Y0374477D01*
X0702248Y0374125D01*
X0703162Y0374005D01*
X0704076Y0374125D01*
X0704927Y0374477D01*
X0705184Y0374675D01*
X0705633Y0374453D01*
Y0227639D01*
X0703501Y0225507D01*
X0703039Y0225698D01*
Y0239653D01*
X0703496Y0240004D01*
X0704057Y0240735D01*
X070441Y0241586D01*
X070453Y02425D01*
X070441Y0243414D01*
X0704057Y0244265D01*
X0703496Y0244996D01*
X0702765Y0245557D01*
X0701914Y024591D01*
X0701Y024603D01*
X0700086Y024591D01*
X0699235Y0245557D01*
X0698504Y0244996D01*
X0697943Y0244265D01*
X069759Y0243414D01*
X069747Y02425D01*
X069759Y0241586D01*
X0697943Y0240735D01*
X0698504Y0240004D01*
X0698961Y0239653D01*
Y0225223D01*
X0678553Y0204815D01*
X0678079Y0204976D01*
X0678039Y0205285D01*
X0677686Y0206136D01*
X0677125Y0206868D01*
X0676394Y0207429D01*
X0676158Y0207526D01*
Y0251168D01*
X0676042Y0251754D01*
X067571Y025225D01*
X0669926Y0258034D01*
X066943Y0258366D01*
X0669348Y0258382D01*
X0668974Y0258954D01*
X0668993Y0259047D01*
X0669819Y0259681D01*
X0670453Y0260507D01*
X0670851Y0261468D01*
X0670987Y02625D01*
X0670851Y0263532D01*
X0670453Y0264493D01*
X0669819Y0265319D01*
X0668993Y0265953D01*
X0668032Y0266351D01*
X0667Y0266487D01*
X0665968Y0266351D01*
X0665007Y0265953D01*
X0664181Y0265319D01*
X0663547Y0264493D01*
X0663149Y0263532D01*
X0663013Y02625D01*
X0663149Y0261468D01*
X0663547Y0260507D01*
X0664181Y0259681D01*
X0665007Y0259047D01*
X0665164Y0258982D01*
X0665064Y0258482D01*
X0663181D01*
X0660659Y0261004D01*
X0660851Y0261468D01*
X0660987Y02625D01*
X0660851Y0263532D01*
X0660453Y0264493D01*
X0659819Y0265319D01*
X0658993Y0265953D01*
X0658032Y0266351D01*
X0657Y0266487D01*
X0655968Y0266351D01*
X0655007Y0265953D01*
X0654181Y0265319D01*
X0653547Y0264493D01*
X0653149Y0263532D01*
X0653013Y02625D01*
X0653149Y0261468D01*
X0653547Y0260507D01*
X0654181Y0259681D01*
X0655007Y0259047D01*
X0655968Y0258649D01*
X0657Y0258513D01*
X0658032Y0258649D01*
X0658496Y0258841D01*
X0661466Y0255871D01*
X0661962Y025554D01*
X0662547Y0255423D01*
X0663631D01*
X0663877Y0254923D01*
X0663547Y0254493D01*
X0663149Y0253532D01*
X0663078Y0252995D01*
X066255Y0252815D01*
X0662534Y0252832D01*
X0662038Y0253163D01*
X0661453Y0253279D01*
X0660884D01*
X0660851Y0253532D01*
X0660453Y0254493D01*
X0659819Y0255319D01*
X0658993Y0255953D01*
X0658032Y0256351D01*
X0657Y0256487D01*
X0655968Y0256351D01*
X0655509Y0256161D01*
X0655282Y0256215D01*
X0654939Y0256466D01*
X0654916Y0256583D01*
X0654584Y0257079D01*
X0654291Y0257372D01*
X0647148Y0264515D01*
X0647327Y0265043D01*
X0647687Y026509D01*
X0648539Y0265443D01*
X064927Y0266004D01*
X0649831Y0266735D01*
X0650183Y0267586D01*
X0650304Y02685D01*
X0650183Y0269414D01*
X0649831Y0270265D01*
X0649815Y0270286D01*
X0650085Y0270755D01*
X0650774Y0270664D01*
X0651687Y0270784D01*
X0652539Y0271137D01*
X0652695Y0271257D01*
X0653304Y0271094D01*
X0653547Y0270507D01*
X0654181Y0269681D01*
X0655007Y0269047D01*
X0655968Y0268649D01*
X0657Y0268513D01*
X0658032Y0268649D01*
X0658993Y0269047D01*
X0659819Y0269681D01*
X0660453Y0270507D01*
X0660851Y0271468D01*
X0660987Y02725D01*
X0660851Y0273532D01*
X0660453Y0274493D01*
X0659819Y0275319D01*
X0658993Y0275953D01*
X0658032Y0276351D01*
X0657Y0276487D01*
X0655968Y0276351D01*
X0655007Y0275953D01*
X0654527Y0275585D01*
X0653918Y0275748D01*
X0653831Y0275959D01*
X065327Y027669D01*
X0652539Y0277251D01*
X0652029Y0277462D01*
Y0296343D01*
X0651913Y0296928D01*
X0651581Y0297425D01*
X0593779Y0355227D01*
X0593936Y0355777D01*
X0594036Y0355801D01*
X0603419Y0346419D01*
X0603915Y0346087D01*
X06045Y0345971D01*
X0654209D01*
X0654378Y0345471D01*
X0654181Y0345319D01*
X0653547Y0344493D01*
X0653149Y0343532D01*
X0653013Y03425D01*
X0653149Y0341468D01*
X0653547Y0340507D01*
X0654181Y0339681D01*
X0655007Y0339047D01*
X0655968Y0338649D01*
X0657Y0338513D01*
X0658032Y0338649D01*
X0658993Y0339047D01*
X0659819Y0339681D01*
X0660453Y0340507D01*
X0660851Y0341468D01*
X0660987Y03425D01*
X0660851Y0343532D01*
X0660453Y0344493D01*
X0659819Y0345319D01*
X0659622Y0345471D01*
X0659792Y0345971D01*
X0662D01*
X0662585Y0346087D01*
X0663081Y0346419D01*
X0665504Y0348841D01*
X0665968Y0348649D01*
X0667Y0348513D01*
X0668032Y0348649D01*
X0668993Y0349047D01*
X0669819Y0349681D01*
X0670453Y0350507D01*
X0670851Y0351468D01*
X0670987Y03525D01*
X0670912Y0353067D01*
X0670964Y0353207D01*
X0671342Y0353559D01*
X0671513Y0353567D01*
X0671592Y0353583D01*
X067184Y0353632D01*
X0672098Y0353684D01*
X0672098Y0353684D01*
X0672098Y0353684D01*
X0672316Y0353829D01*
X0672527Y035397D01*
X0672594Y0354015D01*
X0672901Y0354294D01*
X0672901Y0354294D01*
X0672901Y0354294D01*
X0672901Y0354294D01*
X067318Y0354601D01*
X0673225Y0354668D01*
X0673511Y0355097D01*
X0673511Y0355097D01*
X0673555Y0355318D01*
X0673628Y0355682D01*
Y0358731D01*
X0674128Y0358909D01*
X0674735Y0358443D01*
X0675586Y035809D01*
X0676Y0358036D01*
Y03615D01*
Y0364964D01*
X0675586Y036491D01*
X0674735Y0364557D01*
X0674128Y0364091D01*
X0673628Y0364269D01*
Y0367402D01*
X0673511Y0367987D01*
X067318Y0368483D01*
X0670659Y0371004D01*
X0670851Y0371468D01*
X0670922Y0372005D01*
X067145Y0372185D01*
X0677669Y0365966D01*
X0678165Y0365634D01*
X067875Y0365518D01*
X0684844D01*
X068543Y0365634D01*
X0685926Y0365966D01*
X0689159Y0369199D01*
X0689771Y0369215D01*
X0690181Y0368681D01*
X0691007Y0368047D01*
X0691968Y0367649D01*
X0693Y0367513D01*
X0694032Y0367649D01*
X0694993Y0368047D01*
X0695819Y0368681D01*
X0696453Y0369507D01*
X0696851Y0370468D01*
X0696987Y03715D01*
X0696851Y0372532D01*
X0696453Y0373493D01*
X0695819Y0374319D01*
X0695136Y0374843D01*
X0695306Y0375343D01*
X0700432D01*
X0700666Y0375038D01*
D02*
G37*
G36*
X0370471Y0388586D02*
X0370587Y0388D01*
X0370919Y0387504D01*
X0372739Y0385684D01*
X0373235Y0385352D01*
X0373564Y0385287D01*
X037359Y0385086D01*
X0373943Y0384235D01*
X0374504Y0383504D01*
X0375235Y0382943D01*
X0376086Y038259D01*
X0377Y038247D01*
X0377914Y038259D01*
X0378765Y0382943D01*
X0379496Y0383504D01*
X0380057Y0384235D01*
X0380382Y0385018D01*
X0442406D01*
X0442566Y0384544D01*
X0442504Y0384496D01*
X0441943Y0383765D01*
X044159Y0382914D01*
X044147Y0382D01*
X044159Y0381086D01*
X0441943Y0380235D01*
X0442504Y0379504D01*
X0443235Y0378943D01*
X0443471Y0378845D01*
Y03735D01*
X0443587Y0372915D01*
X0443919Y0372419D01*
X0457471Y0358867D01*
Y035132D01*
X0454254Y0348103D01*
X0453781Y0348264D01*
X0453738Y0348585D01*
X0453386Y0349437D01*
X0452825Y0350168D01*
X0452094Y0350729D01*
X0451242Y0351081D01*
X0450328Y0351202D01*
X0449415Y0351081D01*
X0448563Y0350729D01*
X0447832Y0350168D01*
X0447271Y0349437D01*
X0446918Y0348585D01*
X0446798Y0347672D01*
X0446881Y0347044D01*
X0429419Y0329581D01*
X0429087Y0329085D01*
X0428971Y03285D01*
Y0295133D01*
X0403419Y0269581D01*
X0403087Y0269085D01*
X0402971Y02685D01*
Y025955D01*
X0402471Y025945D01*
X0402453Y0259493D01*
X0401819Y0260319D01*
X0400993Y0260953D01*
X0400032Y0261351D01*
X0399Y0261487D01*
X0397968Y0261351D01*
X0397007Y0260953D01*
X0396577Y0260623D01*
X0396077Y0260869D01*
Y0267414D01*
X0424581Y0295919D01*
X0424913Y0296415D01*
X0425029Y0297D01*
Y0330366D01*
X0439101Y0344438D01*
X0439336Y034434D01*
X044025Y034422D01*
X0441164Y034434D01*
X0442015Y0344693D01*
X0442746Y0345254D01*
X0443307Y0345985D01*
X044366Y0346836D01*
X044378Y034775D01*
X044366Y0348664D01*
X0443307Y0349515D01*
X0442746Y0350246D01*
X0442015Y0350807D01*
X0441164Y035116D01*
X044025Y035128D01*
X0439336Y035116D01*
X0438485Y0350807D01*
X0437754Y0350246D01*
X0437193Y0349515D01*
X043684Y0348664D01*
X043672Y034775D01*
X043684Y0346836D01*
X0436938Y0346601D01*
X0422419Y0332081D01*
X0422087Y0331585D01*
X0421971Y0331D01*
Y0297634D01*
X0393466Y0269129D01*
X0393134Y0268633D01*
X0393018Y0268047D01*
Y0259436D01*
X0392518Y0259336D01*
X0392453Y0259493D01*
X0391819Y0260319D01*
X0390993Y0260953D01*
X0390032Y0261351D01*
X0389Y0261487D01*
X0387968Y0261351D01*
X0387007Y0260953D01*
X0386577Y0260623D01*
X0386077Y0260869D01*
Y0266414D01*
X0417581Y0297919D01*
X0417913Y0298415D01*
X0418029Y0299D01*
Y0334866D01*
X0427601Y0344438D01*
X0427836Y034434D01*
X042875Y034422D01*
X0429664Y034434D01*
X0430515Y0344693D01*
X0431246Y0345254D01*
X0431807Y0345985D01*
X043216Y0346836D01*
X043228Y034775D01*
X043216Y0348664D01*
X0431807Y0349515D01*
X0431246Y0350246D01*
X0430515Y0350807D01*
X0429664Y035116D01*
X042875Y035128D01*
X0427836Y035116D01*
X0426985Y0350807D01*
X0426254Y0350246D01*
X0425693Y0349515D01*
X042534Y0348664D01*
X042522Y034775D01*
X042534Y0346836D01*
X0425438Y0346601D01*
X0415419Y0336581D01*
X0415087Y0336085D01*
X0414971Y03355D01*
Y0299634D01*
X0383466Y0268129D01*
X0383134Y0267633D01*
X0383018Y0267047D01*
Y0259436D01*
X0382518Y0259336D01*
X0382453Y0259493D01*
X0381819Y0260319D01*
X0380993Y0260953D01*
X0380032Y0261351D01*
X03795Y0261421D01*
Y02575D01*
X03785D01*
Y0261421D01*
X0377968Y0261351D01*
X0377007Y0260953D01*
X0376333Y0260436D01*
X0375833Y026064D01*
Y026617D01*
X0410081Y0300419D01*
X0410413Y0300915D01*
X0410529Y03015D01*
Y0337866D01*
X0417101Y0344438D01*
X0417336Y034434D01*
X041825Y034422D01*
X0419164Y034434D01*
X0420015Y0344693D01*
X0420746Y0345254D01*
X0421307Y0345985D01*
X042166Y0346836D01*
X042178Y034775D01*
X042166Y0348664D01*
X0421307Y0349515D01*
X0420746Y0350246D01*
X0420015Y0350807D01*
X0419164Y035116D01*
X041825Y035128D01*
X0417336Y035116D01*
X0416485Y0350807D01*
X0415754Y0350246D01*
X0415193Y0349515D01*
X041484Y0348664D01*
X041472Y034775D01*
X041484Y0346836D01*
X0414938Y0346601D01*
X0407919Y0339581D01*
X0407587Y0339085D01*
X0407471Y03385D01*
Y0302133D01*
X0373222Y0267885D01*
X0372891Y0267389D01*
X0372774Y0266804D01*
Y0259896D01*
X0372274Y0259726D01*
X0371819Y0260319D01*
X0371039Y0260918D01*
Y0263414D01*
X0370884Y0264195D01*
X0370442Y0264856D01*
X0369856Y0265442D01*
X0369195Y0265884D01*
X0368414Y0266039D01*
X0333847D01*
X0333496Y0266496D01*
X0332765Y0267057D01*
X0331914Y026741D01*
X0331Y026753D01*
X0330086Y026741D01*
X0329235Y0267057D01*
X0328504Y0266496D01*
X0327943Y0265765D01*
X032759Y0264914D01*
X032747Y0264D01*
X032759Y0263086D01*
X0327943Y0262235D01*
X0328504Y0261504D01*
X0329235Y0260943D01*
X0330086Y026059D01*
X0331Y026047D01*
X0331914Y026059D01*
X0332765Y0260943D01*
X0333496Y0261504D01*
X0333847Y0261961D01*
X0366961D01*
Y0260918D01*
X0366181Y0260319D01*
X0365547Y0259493D01*
X0365149Y0258532D01*
X0365013Y02575D01*
X0365149Y0256468D01*
X0365547Y0255507D01*
X0366181Y0254681D01*
X0367007Y0254047D01*
X0367968Y0253649D01*
X0369Y0253513D01*
X0370032Y0253649D01*
X0370993Y0254047D01*
X0371819Y0254681D01*
X0372274Y0255274D01*
X0372774Y0255104D01*
Y0224482D01*
X0327086D01*
X0327017Y0224469D01*
X0326996Y0224496D01*
X0326265Y0225057D01*
X0325414Y022541D01*
X03245Y022553D01*
X0323586Y022541D01*
X0322735Y0225057D01*
X0322478Y022486D01*
X0322029Y0225081D01*
Y0271515D01*
X0322529Y0271547D01*
X032259Y0271086D01*
X0322943Y0270235D01*
X0323504Y0269504D01*
X0324235Y0268943D01*
X0325086Y026859D01*
X03255Y0268536D01*
Y0272D01*
Y0275464D01*
X0325086Y027541D01*
X0324235Y0275057D01*
X0323504Y0274496D01*
X0322943Y0273765D01*
X032259Y0272914D01*
X0322529Y0272453D01*
X0322029Y0272485D01*
Y0412971D01*
X0370471D01*
Y0388586D01*
D02*
G37*
G36*
X0449415Y0344262D02*
X0450328Y0344141D01*
X0450971Y0344226D01*
X0451471Y034386D01*
Y0335343D01*
X0451587Y0334758D01*
X0451919Y0334262D01*
X0455521Y033066D01*
X0455423Y0330169D01*
X0455153Y0330057D01*
X0454421Y0329496D01*
X045386Y0328765D01*
X0453508Y0327914D01*
X0453387Y0327D01*
X0453508Y0326086D01*
X045386Y0325235D01*
X0454421Y0324504D01*
X0455153Y0323943D01*
X0456004Y032359D01*
X0456918Y032347D01*
X0457831Y032359D01*
X0458683Y0323943D01*
X0458803Y0324035D01*
X0465627Y031721D01*
Y0315344D01*
X0465743Y0314758D01*
X0466075Y0314262D01*
X0474298Y0306039D01*
X0474325Y030543D01*
X0474181Y0305319D01*
X0473547Y0304493D01*
X0473149Y0303532D01*
X0473013Y03025D01*
X047304Y0302292D01*
X0472592Y0302071D01*
X0468186Y0306477D01*
Y0307344D01*
X0468069Y0307929D01*
X0467738Y0308425D01*
X0460312Y0315851D01*
X046041Y0316086D01*
X046053Y0317D01*
X046041Y0317914D01*
X0460057Y0318765D01*
X0459496Y0319496D01*
X0458765Y0320057D01*
X0457914Y032041D01*
X0457Y032053D01*
X0456086Y032041D01*
X0455235Y0320057D01*
X0454504Y0319496D01*
X0453943Y0318765D01*
X045359Y0317914D01*
X045347Y0317D01*
X045359Y0316086D01*
X0453943Y0315235D01*
X0454504Y0314504D01*
X0455235Y0313943D01*
X0456086Y031359D01*
X0457Y031347D01*
X0457914Y031359D01*
X0458149Y0313688D01*
X0465127Y030671D01*
Y0305844D01*
X0465243Y0305258D01*
X0465575Y0304762D01*
X0474298Y0296039D01*
X0474325Y029543D01*
X0474181Y0295319D01*
X0473547Y0294493D01*
X0473149Y0293532D01*
X0473055Y0292815D01*
X0472527Y0292636D01*
X0460001Y0305162D01*
X0460057Y0305235D01*
X046041Y0306086D01*
X046053Y0307D01*
X046041Y0307914D01*
X0460057Y0308765D01*
X0459496Y0309496D01*
X0458765Y0310057D01*
X0457914Y031041D01*
X0457Y031053D01*
X0456086Y031041D01*
X0455235Y0310057D01*
X0454504Y0309496D01*
X0453943Y0308765D01*
X045359Y0307914D01*
X045347Y0307D01*
X045359Y0306086D01*
X0453943Y0305235D01*
X0454504Y0304504D01*
X0455235Y0303943D01*
X0456086Y030359D01*
X0457Y030347D01*
X0457325Y0303513D01*
X0473871Y0286966D01*
X0474368Y0286634D01*
X0474953Y0286518D01*
X0475064D01*
X0475164Y0286018D01*
X0475007Y0285953D01*
X0474181Y0285319D01*
X0473547Y0284493D01*
X0473149Y0283532D01*
X0473013Y02825D01*
X0473149Y0281468D01*
X0473547Y0280507D01*
X0473942Y0279992D01*
X0473696Y0279492D01*
X0426475D01*
X0425694Y0279337D01*
X0425033Y0278895D01*
X0425033Y0278895D01*
X0423861Y0277723D01*
X0423419Y0277062D01*
X0423264Y0276281D01*
Y0219918D01*
X0422484Y0219319D01*
X0421885Y0218539D01*
X0415586D01*
X0414805Y0218384D01*
X0414144Y0217942D01*
X0413558Y0217356D01*
X0413116Y0216695D01*
X0412961Y0215914D01*
Y0197039D01*
X0382539D01*
Y0202841D01*
X0382988Y0203062D01*
X0383007Y0203047D01*
X0383968Y0202649D01*
X03845Y0202579D01*
Y02065D01*
Y0210421D01*
X0383968Y0210351D01*
X0383007Y0209953D01*
X0382988Y0209938D01*
X0382539Y0210159D01*
Y0211155D01*
X0384025Y0212642D01*
X0385Y0212513D01*
X0386032Y0212649D01*
X0386993Y0213047D01*
X0387087Y0213119D01*
X0387638Y0212912D01*
X038765Y0212852D01*
X0387981Y0212356D01*
X0391676Y0208661D01*
X0391547Y0208493D01*
X0391149Y0207532D01*
X0391013Y02065D01*
X0391149Y0205468D01*
X0391547Y0204507D01*
X0392181Y0203681D01*
X0393007Y0203047D01*
X0393968Y0202649D01*
X0395Y0202513D01*
X0396032Y0202649D01*
X0396993Y0203047D01*
X0397819Y0203681D01*
X0398453Y0204507D01*
X0398851Y0205468D01*
X0398987Y02065D01*
X0398851Y0207532D01*
X0398453Y0208493D01*
X0397819Y0209319D01*
X0396993Y0209953D01*
X0396032Y0210351D01*
X0395Y0210487D01*
X0394272Y0210391D01*
X0390756Y0213907D01*
X0390866Y021407D01*
X0390882Y0214152D01*
X0391454Y0214526D01*
X0391547Y0214507D01*
X0392181Y0213681D01*
X0393007Y0213047D01*
X0393968Y0212649D01*
X0395Y0212513D01*
X0396032Y0212649D01*
X0396993Y0213047D01*
X0397819Y0213681D01*
X0398453Y0214507D01*
X0398851Y0215468D01*
X0398987Y02165D01*
X0398851Y0217532D01*
X0398453Y0218493D01*
X0397985Y0219103D01*
X0398029Y0219327D01*
Y0247867D01*
X0405244Y0255081D01*
X0405907Y0255037D01*
X0406181Y0254681D01*
X0407007Y0254047D01*
X0407968Y0253649D01*
X0409Y0253513D01*
X0410032Y0253649D01*
X0410993Y0254047D01*
X0411819Y0254681D01*
X0412453Y0255507D01*
X0412851Y0256468D01*
X0412987Y02575D01*
X0412851Y0258532D01*
X0412453Y0259493D01*
X0411819Y0260319D01*
X0410993Y0260953D01*
X0410032Y0261351D01*
X0409Y0261487D01*
X0407968Y0261351D01*
X0407007Y0260953D01*
X0406529Y0260587D01*
X0406029Y0260833D01*
Y0267866D01*
X0431581Y0293419D01*
X0431913Y0293915D01*
X0432029Y02945D01*
Y0327867D01*
X0448715Y0344552D01*
X0449415Y0344262D01*
D02*
G37*
G36*
X0636672Y0236948D02*
X0636493Y023642D01*
X0635968Y0236351D01*
X0635007Y0235953D01*
X0634181Y0235319D01*
X0633547Y0234493D01*
X0633149Y0233532D01*
X0633013Y02325D01*
X0633149Y0231468D01*
X0633547Y0230507D01*
X0634181Y0229681D01*
X0635007Y0229047D01*
X0635968Y0228649D01*
X0637Y0228513D01*
X0638032Y0228649D01*
X0638993Y0229047D01*
X0639674Y0229569D01*
X0639763Y0229587D01*
X0640152Y0229536D01*
X0640292Y0229476D01*
X0640605Y0229007D01*
X0643554Y0226058D01*
X0643965Y0225783D01*
X0644018Y0225668D01*
X0644068Y0225184D01*
X0644061Y0225163D01*
X0643547Y0224493D01*
X0643149Y0223532D01*
X0643013Y02225D01*
X0643149Y0221468D01*
X0643547Y0220507D01*
X0644181Y0219681D01*
X0644868Y0219154D01*
X0644859Y0218609D01*
X0644735Y0218557D01*
X0644004Y0217996D01*
X0643588Y0217454D01*
X0637628D01*
X0637042Y0217338D01*
X0636546Y0217006D01*
X0629844Y0210304D01*
X0629181Y0210348D01*
X0628819Y0210819D01*
X0627993Y0211453D01*
X0627032Y0211851D01*
X0626Y0211987D01*
X0624968Y0211851D01*
X0624007Y0211453D01*
X0623181Y0210819D01*
X0622547Y0209993D01*
X0622149Y0209032D01*
X0622013Y0208D01*
X0622149Y0206968D01*
X0622547Y0206007D01*
X0623181Y0205181D01*
X0624007Y0204547D01*
X0624968Y0204149D01*
X0626Y0204013D01*
X0627032Y0204149D01*
X0627993Y0204547D01*
X0628518Y020495D01*
X0629018Y0204703D01*
Y0203181D01*
X0627496Y0201659D01*
X0627032Y0201851D01*
X06265Y0201921D01*
Y01985D01*
X0629921D01*
X0629851Y0199032D01*
X0629659Y0199496D01*
X0631629Y0201466D01*
X063196Y0201962D01*
X0632077Y0202547D01*
Y0205655D01*
X0632521Y020597D01*
X0632577Y0205968D01*
X0633181Y0205181D01*
X0634007Y0204547D01*
X0634968Y0204149D01*
X0636Y0204013D01*
X0637032Y0204149D01*
X0637993Y0204547D01*
X0638819Y0205181D01*
X0639453Y0206007D01*
X0639851Y0206968D01*
X0639987Y0208D01*
X0639851Y0209032D01*
X0639453Y0209993D01*
X0638819Y0210819D01*
X0637993Y0211453D01*
X0637032Y0211851D01*
X0636495Y0211922D01*
X0636315Y021245D01*
X0638261Y0214395D01*
X0643169D01*
X0643443Y0213735D01*
X0644004Y0213004D01*
X0644735Y0212443D01*
X0644951Y0212353D01*
X0644963Y0212008D01*
X0644912Y0211828D01*
X0644007Y0211453D01*
X0643181Y0210819D01*
X0642547Y0209993D01*
X0642149Y0209032D01*
X0642013Y0208D01*
X0642149Y0206968D01*
X0642547Y0206007D01*
X0643181Y0205181D01*
X0644007Y0204547D01*
X0644968Y0204149D01*
X0646Y0204013D01*
X0647032Y0204149D01*
X0647993Y0204547D01*
X0648508Y0204942D01*
X0649008Y0204696D01*
Y0201304D01*
X0648508Y0201058D01*
X0647993Y0201453D01*
X0647032Y0201851D01*
X0646Y0201987D01*
X0644968Y0201851D01*
X0644007Y0201453D01*
X0643181Y0200819D01*
X0642547Y0199993D01*
X0642149Y0199032D01*
X0642013Y0198D01*
X0642149Y0196968D01*
X0642547Y0196007D01*
X0643181Y0195181D01*
X0644007Y0194547D01*
X0644968Y0194149D01*
X0646Y0194013D01*
X0647032Y0194149D01*
X0647993Y0194547D01*
X0648531Y019496D01*
X0649082Y0194752D01*
X0649163Y0194344D01*
X0649605Y0193682D01*
X0650749Y0192539D01*
X0650558Y0192077D01*
X0643546D01*
X0639501Y0196122D01*
X0639851Y0196968D01*
X0639987Y0198D01*
X0639851Y0199032D01*
X0639453Y0199993D01*
X0638819Y0200819D01*
X0637993Y0201453D01*
X0637032Y0201851D01*
X0636Y0201987D01*
X0634968Y0201851D01*
X0634007Y0201453D01*
X0633181Y0200819D01*
X0632547Y0199993D01*
X0632149Y0199032D01*
X0632013Y0198D01*
X0632149Y0196968D01*
X0632547Y0196007D01*
X0633181Y0195181D01*
X0634007Y0194547D01*
X0634968Y0194149D01*
X0636Y0194013D01*
X0637032Y0194149D01*
X0637114Y0194183D01*
X0640759Y0190539D01*
X0640567Y0190077D01*
X0612086D01*
X0609577Y0192586D01*
Y0214281D01*
X060946Y0214867D01*
X0609129Y0215363D01*
X0606404Y0218087D01*
X0606638Y0218561D01*
X0607Y0218513D01*
X0608032Y0218649D01*
X0608993Y0219047D01*
X0609819Y0219681D01*
X0610453Y0220507D01*
X0610851Y0221468D01*
X0610987Y02225D01*
X0610851Y0223532D01*
X0610453Y0224493D01*
X0609819Y0225319D01*
X0608993Y0225953D01*
X0608032Y0226351D01*
X0607Y0226487D01*
X0605968Y0226351D01*
X0605007Y0225953D01*
X0604181Y0225319D01*
X0603547Y0224493D01*
X0603454Y0224474D01*
X0602882Y0224848D01*
X0602866Y022493D01*
X0602534Y0225426D01*
X0599926Y0228034D01*
X059943Y0228366D01*
X0599348Y0228382D01*
X0598974Y0228954D01*
X0598993Y0229047D01*
X0599819Y0229681D01*
X0600453Y0230507D01*
X0600851Y0231468D01*
X0600987Y02325D01*
X0600851Y0233532D01*
X0600453Y0234493D01*
X0599819Y0235319D01*
X0598993Y0235953D01*
X0598032Y0236351D01*
X0597Y0236487D01*
X0595968Y0236351D01*
X0595007Y0235953D01*
X0594181Y0235319D01*
X0593547Y0234493D01*
X0593149Y0233532D01*
X0593013Y02325D01*
X0593149Y0231468D01*
X0593547Y0230507D01*
X0594181Y0229681D01*
X0595007Y0229047D01*
X0595164Y0228982D01*
X0595064Y0228482D01*
X0593181D01*
X0590659Y0231004D01*
X0590851Y0231468D01*
X0590987Y02325D01*
X0590851Y0233532D01*
X0590453Y0234493D01*
X0589819Y0235319D01*
X0588993Y0235953D01*
X0588032Y0236351D01*
X0587495Y0236422D01*
X0587315Y023695D01*
X0589336Y0238971D01*
X0591345D01*
X0591589Y0238381D01*
X059215Y023765D01*
X0592881Y0237089D01*
X0593733Y0236736D01*
X0594646Y0236616D01*
X059556Y0236736D01*
X0596412Y0237089D01*
X0597143Y023765D01*
X0597704Y0238381D01*
X0598056Y0239233D01*
X0598097Y0239542D01*
X059857Y0239703D01*
X0600215Y0238058D01*
X0600877Y0237616D01*
X0601657Y0237461D01*
X0619876D01*
X0619914Y0237423D01*
Y0235877D01*
X0619414Y023563D01*
X0618993Y0235953D01*
X0618032Y0236351D01*
X0617Y0236487D01*
X0615968Y0236351D01*
X0615007Y0235953D01*
X0614181Y0235319D01*
X0613547Y0234493D01*
X0613149Y0233532D01*
X0613013Y02325D01*
X0613149Y0231468D01*
X0613547Y0230507D01*
X0614181Y0229681D01*
X0615007Y0229047D01*
X0615968Y0228649D01*
X0617Y0228513D01*
X0618032Y0228649D01*
X0618993Y0229047D01*
X0619414Y022937D01*
X0619914Y0229123D01*
Y0225877D01*
X0619414Y022563D01*
X0618993Y0225953D01*
X0618032Y0226351D01*
X0617Y0226487D01*
X0615968Y0226351D01*
X0615007Y0225953D01*
X0614181Y0225319D01*
X0613547Y0224493D01*
X0613149Y0223532D01*
X0613013Y02225D01*
X0613149Y0221468D01*
X0613547Y0220507D01*
X0614181Y0219681D01*
X0615007Y0219047D01*
X0615968Y0218649D01*
X0617Y0218513D01*
X0618032Y0218649D01*
X0618993Y0219047D01*
X0619414Y021937D01*
X0619914Y0219123D01*
Y0214797D01*
X0616975Y0211859D01*
X0616Y0211987D01*
X0614968Y0211851D01*
X0614007Y0211453D01*
X0613181Y0210819D01*
X0612547Y0209993D01*
X0612149Y0209032D01*
X0612013Y0208D01*
X0612149Y0206968D01*
X0612547Y0206007D01*
X0613181Y0205181D01*
X0614007Y0204547D01*
X0614968Y0204149D01*
X0616Y0204013D01*
X0617032Y0204149D01*
X0617993Y0204547D01*
X0618819Y0205181D01*
X0619453Y0206007D01*
X0619851Y0206968D01*
X0619987Y0208D01*
X0619859Y0208975D01*
X0623395Y0212511D01*
X0623837Y0213172D01*
X0623992Y0213953D01*
Y0219196D01*
X0624492Y0219442D01*
X0625007Y0219047D01*
X0625968Y0218649D01*
X0627Y0218513D01*
X0628032Y0218649D01*
X0628993Y0219047D01*
X0629819Y0219681D01*
X0630453Y0220507D01*
X0630851Y0221468D01*
X0630987Y02225D01*
X0630851Y0223532D01*
X0630453Y0224493D01*
X0629819Y0225319D01*
X0628993Y0225953D01*
X0628032Y0226351D01*
X0627Y0226487D01*
X0625968Y0226351D01*
X0625007Y0225953D01*
X0624492Y0225558D01*
X0623992Y0225804D01*
Y0229196D01*
X0624492Y0229442D01*
X0625007Y0229047D01*
X0625968Y0228649D01*
X0627Y0228513D01*
X0628032Y0228649D01*
X0628993Y0229047D01*
X0629819Y0229681D01*
X0630453Y0230507D01*
X0630851Y0231468D01*
X0630987Y02325D01*
X0630851Y0233532D01*
X0630453Y0234493D01*
X0629819Y0235319D01*
X0628993Y0235953D01*
X0628638Y02361D01*
X0628597Y0236458D01*
X062862Y0236649D01*
X062931Y0237178D01*
X0629871Y0237909D01*
X0630224Y0238761D01*
X0630344Y0239674D01*
X0630224Y0240588D01*
X0629871Y0241439D01*
X062931Y0242171D01*
X0628579Y0242731D01*
X0627728Y0243084D01*
X0626814Y0243204D01*
X06259Y0243084D01*
X0625049Y0242731D01*
X0624318Y0242171D01*
X0623833Y0241539D01*
X0602501D01*
X0601511Y024253D01*
X0601744Y0243004D01*
X0602Y024297D01*
X0602914Y024309D01*
X0603765Y0243443D01*
X0604496Y0244004D01*
X0604847Y0244461D01*
X062916D01*
X0636672Y0236948D01*
D02*
G37*
G36*
X0594203Y0244071D02*
X0594042Y0243597D01*
X0593733Y0243556D01*
X0592881Y0243204D01*
X059215Y0242643D01*
X059168Y0242029D01*
X0588703D01*
X0588118Y0241913D01*
X0587621Y0241581D01*
X0581466Y0235426D01*
X0581134Y023493D01*
X0581118Y0234848D01*
X0580546Y0234474D01*
X0580453Y0234493D01*
X0579819Y0235319D01*
X0578993Y0235953D01*
X0578032Y0236351D01*
X0577Y0236487D01*
X0575968Y0236351D01*
X0575007Y0235953D01*
X0574181Y0235319D01*
X0573547Y0234493D01*
X0573149Y0233532D01*
X0573013Y02325D01*
X0573149Y0231468D01*
X0573341Y0231004D01*
X0570371Y0228034D01*
X057004Y0227538D01*
X0569923Y0226953D01*
Y0225869D01*
X0569423Y0225623D01*
X0568993Y0225953D01*
X0568032Y0226351D01*
X0567Y0226487D01*
X0565968Y0226351D01*
X0565007Y0225953D01*
X0564181Y0225319D01*
X0563547Y0224493D01*
X0563149Y0223532D01*
X0563013Y02225D01*
X0563149Y0221468D01*
X0563547Y0220507D01*
X0564181Y0219681D01*
X0565007Y0219047D01*
X0565968Y0218649D01*
X0567Y0218513D01*
X0568032Y0218649D01*
X0568993Y0219047D01*
X0569423Y0219377D01*
X0569923Y0219131D01*
Y0216326D01*
X05335D01*
X0532915Y021621D01*
X0532418Y0215879D01*
X0526819Y0210279D01*
X0526233D01*
X0525819Y0210819D01*
X0524993Y0211453D01*
X0524032Y0211851D01*
X0523Y0211987D01*
X0521968Y0211851D01*
X0521007Y0211453D01*
X0520181Y0210819D01*
X0519547Y0209993D01*
X0519149Y0209032D01*
X0519013Y0208D01*
X0519149Y0206968D01*
X0519547Y0206007D01*
X0519913Y0205529D01*
X0519667Y0205029D01*
X0516333D01*
X0516087Y0205529D01*
X0516453Y0206007D01*
X0516851Y0206968D01*
X0516921Y02075D01*
X0509079D01*
X0509149Y0206968D01*
X0509547Y0206007D01*
X0509913Y0205529D01*
X0509667Y0205029D01*
X0506333D01*
X0506087Y0205529D01*
X0506453Y0206007D01*
X0506851Y0206968D01*
X0506987Y0208D01*
X0506851Y0209032D01*
X0506453Y0209993D01*
X0505819Y0210819D01*
X0504993Y0211453D01*
X0504032Y0211851D01*
X0503Y0211987D01*
X0501968Y0211851D01*
X0501007Y0211453D01*
X0500181Y0210819D01*
X0499547Y0209993D01*
X0499149Y0209032D01*
X0499013Y0208D01*
X0499149Y0206968D01*
X0499547Y0206007D01*
X0499913Y0205529D01*
X0499667Y0205029D01*
X0490333D01*
X0490087Y0205529D01*
X0490453Y0206007D01*
X0490851Y0206968D01*
X0490987Y0208D01*
X0490851Y0209032D01*
X0490453Y0209993D01*
X0489819Y0210819D01*
X0489039Y0211418D01*
Y0213765D01*
X0493442Y0218168D01*
X0493884Y0218829D01*
X0493961Y0219219D01*
X0494513Y0219426D01*
X0495007Y0219047D01*
X0495968Y0218649D01*
X0497Y0218513D01*
X0498032Y0218649D01*
X0498993Y0219047D01*
X0499819Y0219681D01*
X0500453Y0220507D01*
X0500851Y0221468D01*
X0500987Y02225D01*
X0500851Y0223532D01*
X0500453Y0224493D01*
X0499819Y0225319D01*
X0498993Y0225953D01*
X0498032Y0226351D01*
X0497Y0226487D01*
X0495968Y0226351D01*
X0495007Y0225953D01*
X0494539Y0225594D01*
X0494039Y0225841D01*
Y02275D01*
X0493884Y022828D01*
X0493442Y0228942D01*
X0490859Y0231525D01*
X0490987Y02325D01*
X0490851Y0233532D01*
X0490453Y0234493D01*
X0490087Y0234971D01*
X0490333Y0235471D01*
X0493667D01*
X0493913Y0234971D01*
X0493547Y0234493D01*
X0493149Y0233532D01*
X0493013Y02325D01*
X0493149Y0231468D01*
X0493547Y0230507D01*
X0494181Y0229681D01*
X0495007Y0229047D01*
X0495968Y0228649D01*
X0497Y0228513D01*
X0498032Y0228649D01*
X0498993Y0229047D01*
X0499819Y0229681D01*
X0500061Y0229996D01*
X0500576Y0229916D01*
X0500606Y0229886D01*
X0500919Y0229419D01*
X0504386Y0225951D01*
X0504354Y0225452D01*
X0504181Y0225319D01*
X0503547Y0224493D01*
X0503149Y0223532D01*
X0503013Y02225D01*
X0503149Y0221468D01*
X0503547Y0220507D01*
X0504181Y0219681D01*
X0505007Y0219047D01*
X0505968Y0218649D01*
X0507Y0218513D01*
X0508032Y0218649D01*
X0508993Y0219047D01*
X0509819Y0219681D01*
X0510453Y0220507D01*
X0510851Y0221468D01*
X0510987Y02225D01*
X0510851Y0223532D01*
X0510453Y0224493D01*
X0509819Y0225319D01*
X0508993Y0225953D01*
X0508032Y0226351D01*
X0507835Y0226377D01*
X0507764Y0226734D01*
X0507433Y022723D01*
X0506571Y0228092D01*
X0506792Y022854D01*
X0507Y0228513D01*
X0508032Y0228649D01*
X0508993Y0229047D01*
X0509819Y0229681D01*
X0510453Y0230507D01*
X0510851Y0231468D01*
X0510987Y02325D01*
X0510851Y0233532D01*
X0510453Y0234493D01*
X0509819Y0235319D01*
X0508993Y0235953D01*
X0508032Y0236351D01*
X0507Y0236487D01*
X0505968Y0236351D01*
X0505504Y0236159D01*
X0493629Y0248034D01*
X0493132Y0248366D01*
X0492547Y0248482D01*
X0488936D01*
X0488836Y0248982D01*
X0488993Y0249047D01*
X0489819Y0249681D01*
X0490453Y0250507D01*
X0490851Y0251468D01*
X0490987Y02525D01*
X0490851Y0253532D01*
X0490453Y0254493D01*
X0489819Y0255319D01*
X0488993Y0255953D01*
X0488836Y0256018D01*
X0488936Y0256518D01*
X0520819D01*
X0543341Y0233996D01*
X0543149Y0233532D01*
X0543013Y02325D01*
X0543149Y0231468D01*
X0543547Y0230507D01*
X0544181Y0229681D01*
X0545007Y0229047D01*
X0545968Y0228649D01*
X0547Y0228513D01*
X0548032Y0228649D01*
X0548993Y0229047D01*
X0549819Y0229681D01*
X0549971Y0229878D01*
X0550471Y0229709D01*
Y02275D01*
X0550587Y0226915D01*
X0550919Y0226419D01*
X0553341Y0223996D01*
X0553149Y0223532D01*
X0553013Y02225D01*
X0553149Y0221468D01*
X0553547Y0220507D01*
X0554181Y0219681D01*
X0555007Y0219047D01*
X0555968Y0218649D01*
X0557Y0218513D01*
X0558032Y0218649D01*
X0558993Y0219047D01*
X0559819Y0219681D01*
X0560453Y0220507D01*
X0560851Y0221468D01*
X0560987Y02225D01*
X0560851Y0223532D01*
X0560453Y0224493D01*
X0559819Y0225319D01*
X0558993Y0225953D01*
X0558032Y0226351D01*
X0557Y0226487D01*
X0555968Y0226351D01*
X0555504Y0226159D01*
X0553529Y0228134D01*
Y0229709D01*
X0554029Y0229878D01*
X0554181Y0229681D01*
X0555007Y0229047D01*
X0555968Y0228649D01*
X0557Y0228513D01*
X0558032Y0228649D01*
X0558993Y0229047D01*
X0559819Y0229681D01*
X0560453Y0230507D01*
X0560851Y0231468D01*
X0560987Y02325D01*
X0560851Y0233532D01*
X0560453Y0234493D01*
X0559819Y0235319D01*
X0558993Y0235953D01*
X0558032Y0236351D01*
X0557Y0236487D01*
X0555968Y0236351D01*
X0555007Y0235953D01*
X0554181Y0235319D01*
X0554029Y0235122D01*
X0553529Y0235292D01*
Y02395D01*
X0553413Y0240085D01*
X0553081Y0240581D01*
X0532086Y0261577D01*
X053159Y0261908D01*
X053135Y0261956D01*
X0531399Y0262456D01*
X0575817D01*
X0594203Y0244071D01*
D02*
G37*
G36*
X0483913Y0234971D02*
X0483547Y0234493D01*
X0483149Y0233532D01*
X0483013Y02325D01*
X0483149Y0231468D01*
X0483547Y0230507D01*
X0484181Y0229681D01*
X0485007Y0229047D01*
X0485968Y0228649D01*
X0487Y0228513D01*
X0487975Y0228642D01*
X0489961Y0226655D01*
Y0225841D01*
X0489461Y0225594D01*
X0488993Y0225953D01*
X0488032Y0226351D01*
X04875Y0226421D01*
Y02225D01*
Y0218277D01*
X0487594Y0218087D01*
X0485558Y0216052D01*
X0485116Y021539D01*
X0484961Y021461D01*
Y0211418D01*
X0484181Y0210819D01*
X0483547Y0209993D01*
X0483149Y0209032D01*
X0483013Y0208D01*
X0483149Y0206968D01*
X0483547Y0206007D01*
X0483913Y0205529D01*
X0483667Y0205029D01*
X0480333D01*
X0480087Y0205529D01*
X0480453Y0206007D01*
X0480851Y0206968D01*
X0480921Y02075D01*
X0477D01*
X0473079D01*
X0473149Y0206968D01*
X0473547Y0206007D01*
X0473913Y0205529D01*
X0473667Y0205029D01*
X0470333D01*
X0470087Y0205529D01*
X0470453Y0206007D01*
X0470851Y0206968D01*
X0470987Y0208D01*
X0470851Y0209032D01*
X0470453Y0209993D01*
X0469819Y0210819D01*
X0468993Y0211453D01*
X0468032Y0211851D01*
X0467Y0211987D01*
X0465968Y0211851D01*
X0465007Y0211453D01*
X0464181Y0210819D01*
X0463547Y0209993D01*
X0463149Y0209032D01*
X0463013Y0208D01*
X0463149Y0206968D01*
X0463547Y0206007D01*
X0463913Y0205529D01*
X0463667Y0205029D01*
X0460333D01*
X0460087Y0205529D01*
X0460453Y0206007D01*
X0460851Y0206968D01*
X0460987Y0208D01*
X0460851Y0209032D01*
X0460453Y0209993D01*
X0459819Y0210819D01*
X0458993Y0211453D01*
X0458032Y0211851D01*
X0457Y0211987D01*
X0455968Y0211851D01*
X0455007Y0211453D01*
X0454181Y0210819D01*
X0453547Y0209993D01*
X0453149Y0209032D01*
X0453013Y0208D01*
X0453149Y0206968D01*
X0453547Y0206007D01*
X0454181Y0205181D01*
X0455007Y0204547D01*
X0455553Y0204321D01*
X0455568Y0204308D01*
X0455726Y0203708D01*
X0455587Y02035D01*
X0455471Y0202914D01*
Y0199145D01*
X0455007Y0198953D01*
X0454181Y0198319D01*
X0453547Y0197493D01*
X0453149Y0196532D01*
X0453013Y01955D01*
X0453149Y0194468D01*
X0453547Y0193507D01*
X0454181Y0192681D01*
X0455007Y0192047D01*
X0455968Y0191649D01*
X0457Y0191513D01*
X0458032Y0191649D01*
X0458993Y0192047D01*
X0459819Y0192681D01*
X0460453Y0193507D01*
X0460851Y0194468D01*
X0460987Y01955D01*
X0460851Y0196532D01*
X0460453Y0197493D01*
X0459819Y0198319D01*
X0458993Y0198953D01*
X0458529Y0199145D01*
Y0201971D01*
X0495419D01*
X049564Y0201522D01*
X0495443Y0201265D01*
X049509Y0200414D01*
X049497Y01995D01*
X049509Y0198586D01*
X0495443Y0197735D01*
X0496004Y0197004D01*
X0496735Y0196443D01*
X0497586Y019609D01*
X04985Y019597D01*
X0499414Y019609D01*
X0500265Y0196443D01*
X0500269Y0196446D01*
X050068Y0196131D01*
X050059Y0195914D01*
X050047Y0195D01*
X050059Y0194086D01*
X0500943Y0193235D01*
X0501504Y0192504D01*
X0502235Y0191943D01*
X0503086Y019159D01*
X0504Y019147D01*
X0504914Y019159D01*
X0505765Y0191943D01*
X0506496Y0192504D01*
X0507057Y0193235D01*
X0507155Y0193471D01*
X0525493D01*
X0525622Y0192971D01*
X0525004Y0192496D01*
X0524443Y0191765D01*
X052409Y0190914D01*
X052397Y019D01*
X052409Y0189086D01*
X0524443Y0188235D01*
X0525004Y0187504D01*
X0525735Y0186943D01*
X0526586Y018659D01*
X0526689Y0186577D01*
X0526656Y0186077D01*
X0446586D01*
X0441529Y0191133D01*
Y0204104D01*
X0442029Y0204273D01*
X0442484Y0203681D01*
X044331Y0203047D01*
X0444271Y0202649D01*
X0445303Y0202513D01*
X0446335Y0202649D01*
X0447297Y0203047D01*
X0448122Y0203681D01*
X0448756Y0204507D01*
X0449154Y0205468D01*
X044929Y02065D01*
X0449154Y0207532D01*
X0448756Y0208493D01*
X0448122Y0209319D01*
X0447297Y0209953D01*
X0446335Y0210351D01*
X0445303Y0210487D01*
X0444271Y0210351D01*
X044331Y0209953D01*
X0442484Y0209319D01*
X0442029Y0208727D01*
X0441529Y0208896D01*
Y0211803D01*
X0441413Y0212388D01*
X0441081Y0212885D01*
X0438962Y0215004D01*
X0439154Y0215468D01*
X043929Y02165D01*
X0439154Y0217532D01*
X0438756Y0218493D01*
X0438122Y0219319D01*
X0437297Y0219953D01*
X0436335Y0220351D01*
X0435303Y0220487D01*
X0434271Y0220351D01*
X043331Y0219953D01*
X043289Y021963D01*
X043239Y0219877D01*
Y0230461D01*
X0473582D01*
X0474181Y0229681D01*
X0475007Y0229047D01*
X0475968Y0228649D01*
X0477Y0228513D01*
X0478032Y0228649D01*
X0478993Y0229047D01*
X0479819Y0229681D01*
X0480453Y0230507D01*
X0480851Y0231468D01*
X0480987Y02325D01*
X0480851Y0233532D01*
X0480453Y0234493D01*
X0480087Y0234971D01*
X0480333Y0235471D01*
X0483667D01*
X0483913Y0234971D01*
D02*
G37*
G36*
X037456Y0218923D02*
X0374004Y0218496D01*
X0373443Y0217765D01*
X037309Y0216914D01*
X037297Y0216D01*
X037309Y0215086D01*
X0373443Y0214235D01*
X0374004Y0213504D01*
X0374735Y0212943D01*
X0375586Y021259D01*
X03765Y021247D01*
X0377414Y021259D01*
X0378132Y0212888D01*
X037847Y0212675D01*
X0378569Y0212546D01*
X0378461Y0212D01*
Y0197039D01*
X031906D01*
X0319027Y0197539D01*
X0319414Y019759D01*
X0320265Y0197943D01*
X0320996Y0198504D01*
X0321557Y0199235D01*
X032191Y0200086D01*
X032203Y0201D01*
X032191Y0201914D01*
X0321812Y0202149D01*
X0323581Y0203919D01*
X0323913Y0204415D01*
X0324029Y0205D01*
Y0211027D01*
X0324464Y0211461D01*
X0324514Y0211472D01*
X0325414Y021159D01*
X0326265Y0211943D01*
X0326996Y0212504D01*
X0327557Y0213235D01*
X032791Y0214086D01*
X032803Y0215D01*
X032791Y0215914D01*
X0327812Y0216149D01*
X0328561Y0216898D01*
X0328775Y021684D01*
X0329027Y0216605D01*
X0329013Y02165D01*
X0329149Y0215468D01*
X0329547Y0214507D01*
X0330181Y0213681D01*
X0331007Y0213047D01*
X0331968Y0212649D01*
X0333Y0212513D01*
X0334032Y0212649D01*
X0334993Y0213047D01*
X0335819Y0213681D01*
X0336453Y0214507D01*
X0336851Y0215468D01*
X0336987Y02165D01*
X0336851Y0217532D01*
X0336453Y0218493D01*
X0336123Y0218923D01*
X0336369Y0219423D01*
X0339631D01*
X0339877Y0218923D01*
X0339547Y0218493D01*
X0339149Y0217532D01*
X0339079Y0217D01*
X0346921D01*
X0346851Y0217532D01*
X0346453Y0218493D01*
X0346123Y0218923D01*
X0346369Y0219423D01*
X0349631D01*
X0349877Y0218923D01*
X0349547Y0218493D01*
X0349149Y0217532D01*
X0349013Y02165D01*
X0349149Y0215468D01*
X0349547Y0214507D01*
X0350181Y0213681D01*
X0351007Y0213047D01*
X0351968Y0212649D01*
X0353Y0212513D01*
X0354032Y0212649D01*
X0354993Y0213047D01*
X0355819Y0213681D01*
X0356453Y0214507D01*
X0356851Y0215468D01*
X0356987Y02165D01*
X0356851Y0217532D01*
X0356453Y0218493D01*
X0356123Y0218923D01*
X0356369Y0219423D01*
X0374391D01*
X037456Y0218923D01*
D02*
G37*
G36*
X0422484Y0213681D02*
X042331Y0213047D01*
X0424271Y0212649D01*
X0425303Y0212513D01*
X0426335Y0212649D01*
X0427297Y0213047D01*
X0427811Y0213442D01*
X0428311Y0213196D01*
Y0209804D01*
X0427811Y0209558D01*
X0427297Y0209953D01*
X0426335Y0210351D01*
X0425803Y0210421D01*
Y02065D01*
Y0202579D01*
X0426335Y0202649D01*
X0427297Y0203047D01*
X0427811Y0203442D01*
X0428311Y0203196D01*
Y0194039D01*
X0416973D01*
X0416706Y0194539D01*
X0416884Y0194805D01*
X0417039Y0195586D01*
Y0214461D01*
X0421885D01*
X0422484Y0213681D01*
D02*
G37*
%LPC*%
G36*
X0583464Y0423D02*
X05805D01*
Y0420036D01*
X0580914Y042009D01*
X0581765Y0420443D01*
X0582496Y0421004D01*
X0583057Y0421735D01*
X058341Y0422586D01*
X0583464Y0423D01*
D02*
G37*
G36*
X05795D02*
X0576536D01*
X057659Y0422586D01*
X0576943Y0421735D01*
X0577504Y0421004D01*
X0578235Y0420443D01*
X0579086Y042009D01*
X05795Y0420036D01*
Y0423D01*
D02*
G37*
G36*
X058Y0412421D02*
Y0409D01*
X0583421D01*
X0583351Y0409532D01*
X0582953Y0410493D01*
X0582319Y0411319D01*
X0581493Y0411953D01*
X0580532Y0412351D01*
X058Y0412421D01*
D02*
G37*
G36*
X0579D02*
X0578468Y0412351D01*
X0577507Y0411953D01*
X0576681Y0411319D01*
X0576047Y0410493D01*
X0575649Y0409532D01*
X0575579Y0409D01*
X0579D01*
Y0412421D01*
D02*
G37*
G36*
X0583421Y0408D02*
X058D01*
Y0404579D01*
X0580532Y0404649D01*
X0581493Y0405047D01*
X0582319Y0405681D01*
X0582953Y0406507D01*
X0583351Y0407468D01*
X0583421Y0408D01*
D02*
G37*
G36*
X0579D02*
X0575579D01*
X0575649Y0407468D01*
X0576047Y0406507D01*
X0576681Y0405681D01*
X0577507Y0405047D01*
X0578468Y0404649D01*
X0579Y0404579D01*
Y0408D01*
D02*
G37*
G36*
X06395Y0412487D02*
X0638468Y0412351D01*
X0637507Y0411953D01*
X0636681Y0411319D01*
X0636047Y0410493D01*
X0635649Y0409532D01*
X0635513Y04085D01*
X0635649Y0407468D01*
X0636047Y0406507D01*
X0636681Y0405681D01*
X0637507Y0405047D01*
X0638468Y0404649D01*
X06395Y0404513D01*
X0640532Y0404649D01*
X0641493Y0405047D01*
X0642319Y0405681D01*
X0642953Y0406507D01*
X0643351Y0407468D01*
X0643487Y04085D01*
X0643351Y0409532D01*
X0642953Y0410493D01*
X0642319Y0411319D01*
X0641493Y0411953D01*
X0640532Y0412351D01*
X06395Y0412487D01*
D02*
G37*
G36*
X06295D02*
X0628468Y0412351D01*
X0627507Y0411953D01*
X0626681Y0411319D01*
X0626047Y0410493D01*
X0625649Y0409532D01*
X0625513Y04085D01*
X0625649Y0407468D01*
X0626047Y0406507D01*
X0626681Y0405681D01*
X0627507Y0405047D01*
X0628468Y0404649D01*
X06295Y0404513D01*
X0630532Y0404649D01*
X0631493Y0405047D01*
X0632319Y0405681D01*
X0632953Y0406507D01*
X0633351Y0407468D01*
X0633487Y04085D01*
X0633351Y0409532D01*
X0632953Y0410493D01*
X0632319Y0411319D01*
X0631493Y0411953D01*
X0630532Y0412351D01*
X06295Y0412487D01*
D02*
G37*
G36*
X0577Y0386487D02*
X0575968Y0386351D01*
X0575007Y0385953D01*
X0574181Y0385319D01*
X0573547Y0384493D01*
X0573149Y0383532D01*
X0573013Y03825D01*
X0573149Y0381468D01*
X0573547Y0380507D01*
X0574181Y0379681D01*
X0575007Y0379047D01*
X0575968Y0378649D01*
X0577Y0378513D01*
X0578032Y0378649D01*
X0578993Y0379047D01*
X0579819Y0379681D01*
X0580453Y0380507D01*
X0580851Y0381468D01*
X0580987Y03825D01*
X0580851Y0383532D01*
X0580453Y0384493D01*
X0579819Y0385319D01*
X0578993Y0385953D01*
X0578032Y0386351D01*
X0577Y0386487D01*
D02*
G37*
G36*
X04825Y0412421D02*
Y0409D01*
X0485921D01*
X0485851Y0409532D01*
X0485453Y0410493D01*
X0484819Y0411319D01*
X0483993Y0411953D01*
X0483032Y0412351D01*
X04825Y0412421D01*
D02*
G37*
G36*
X04815D02*
X0480968Y0412351D01*
X0480007Y0411953D01*
X0479181Y0411319D01*
X0478547Y0410493D01*
X0478149Y0409532D01*
X0478079Y0409D01*
X04815D01*
Y0412421D01*
D02*
G37*
G36*
X0485921Y0408D02*
X04825D01*
Y0404579D01*
X0483032Y0404649D01*
X0483993Y0405047D01*
X0484819Y0405681D01*
X0485453Y0406507D01*
X0485851Y0407468D01*
X0485921Y0408D01*
D02*
G37*
G36*
X0492Y042653D02*
X0491086Y042641D01*
X0490235Y0426057D01*
X0489504Y0425496D01*
X0488943Y0424765D01*
X048859Y0423914D01*
X048847Y0423D01*
X048859Y0422086D01*
X0488943Y0421235D01*
X0489504Y0420504D01*
X0489961Y0420153D01*
Y0411918D01*
X0489181Y0411319D01*
X0488547Y0410493D01*
X0488149Y0409532D01*
X0488013Y04085D01*
X0488149Y0407468D01*
X0488547Y0406507D01*
X0489181Y0405681D01*
X0490007Y0405047D01*
X0490968Y0404649D01*
X0492Y0404513D01*
X0493032Y0404649D01*
X0493993Y0405047D01*
X0494819Y0405681D01*
X0495453Y0406507D01*
X0495851Y0407468D01*
X0495987Y04085D01*
X0495851Y0409532D01*
X0495453Y0410493D01*
X0494819Y0411319D01*
X0494039Y0411918D01*
Y0420153D01*
X0494496Y0420504D01*
X0495057Y0421235D01*
X049541Y0422086D01*
X049553Y0423D01*
X049541Y0423914D01*
X0495057Y0424765D01*
X0494496Y0425496D01*
X0493765Y0426057D01*
X0492914Y042641D01*
X0492Y042653D01*
D02*
G37*
G36*
X04455Y0408987D02*
X0444468Y0408851D01*
X0443507Y0408453D01*
X0442681Y0407819D01*
X0442047Y0406993D01*
X0441649Y0406032D01*
X0441513Y0405D01*
X0441649Y0403968D01*
X0442047Y0403007D01*
X0442377Y0402577D01*
X0442131Y0402077D01*
X0438869D01*
X0438623Y0402577D01*
X0438953Y0403007D01*
X0439351Y0403968D01*
X0439487Y0405D01*
X0439351Y0406032D01*
X0438953Y0406993D01*
X0438319Y0407819D01*
X0437493Y0408453D01*
X0436532Y0408851D01*
X04355Y0408987D01*
X0434468Y0408851D01*
X0433507Y0408453D01*
X0432681Y0407819D01*
X0432047Y0406993D01*
X0431649Y0406032D01*
X0431513Y0405D01*
X0431649Y0403968D01*
X0432047Y0403007D01*
X0432377Y0402577D01*
X0432131Y0402077D01*
X0430047D01*
X0429462Y040196D01*
X0428966Y0401629D01*
X0426228Y0398891D01*
X0426Y0398921D01*
Y03955D01*
X0429421D01*
X0429351Y0396032D01*
X0428953Y0396993D01*
X0428824Y0397161D01*
X0430681Y0399018D01*
X0433564D01*
X0433664Y0398518D01*
X0433507Y0398453D01*
X0432681Y0397819D01*
X0432047Y0396993D01*
X0431649Y0396032D01*
X0431513Y0395D01*
X0431649Y0393968D01*
X0432047Y0393007D01*
X0432681Y0392181D01*
X0433507Y0391547D01*
X0434468Y0391149D01*
X04355Y0391013D01*
X0436532Y0391149D01*
X0437493Y0391547D01*
X0438319Y0392181D01*
X0438953Y0393007D01*
X0439351Y0393968D01*
X0439487Y0395D01*
X0439351Y0396032D01*
X0438953Y0396993D01*
X0438319Y0397819D01*
X0437493Y0398453D01*
X0437336Y0398518D01*
X0437436Y0399018D01*
X0443564D01*
X0443664Y0398518D01*
X0443507Y0398453D01*
X0442681Y0397819D01*
X0442047Y0396993D01*
X0441649Y0396032D01*
X0441513Y0395D01*
X0441649Y0393968D01*
X0442047Y0393007D01*
X0442681Y0392181D01*
X0443507Y0391547D01*
X0444468Y0391149D01*
X04455Y0391013D01*
X0446532Y0391149D01*
X0447493Y0391547D01*
X0448319Y0392181D01*
X0448953Y0393007D01*
X0449351Y0393968D01*
X0449487Y0395D01*
X0449351Y0396032D01*
X0448953Y0396993D01*
X0448319Y0397819D01*
X0447493Y0398453D01*
X0447336Y0398518D01*
X0447436Y0399018D01*
X0474047D01*
X0474633Y0399134D01*
X0475129Y0399466D01*
X0480504Y0404841D01*
X0480968Y0404649D01*
X04815Y0404579D01*
Y0408D01*
X0478079D01*
X0478149Y0407468D01*
X0478341Y0407004D01*
X0473414Y0402077D01*
X0448869D01*
X0448623Y0402577D01*
X0448953Y0403007D01*
X0449351Y0403968D01*
X0449487Y0405D01*
X0449351Y0406032D01*
X0448953Y0406993D01*
X0448319Y0407819D01*
X0447493Y0408453D01*
X0446532Y0408851D01*
X04455Y0408987D01*
D02*
G37*
G36*
X04255D02*
X0424468Y0408851D01*
X0423507Y0408453D01*
X0422681Y0407819D01*
X0422047Y0406993D01*
X0421649Y0406032D01*
X0421513Y0405D01*
X0421649Y0403968D01*
X0422047Y0403007D01*
X0422681Y0402181D01*
X0423507Y0401547D01*
X0424468Y0401149D01*
X04255Y0401013D01*
X0426532Y0401149D01*
X0427493Y0401547D01*
X0428319Y0402181D01*
X0428953Y0403007D01*
X0429351Y0403968D01*
X0429487Y0405D01*
X0429351Y0406032D01*
X0428953Y0406993D01*
X0428319Y0407819D01*
X0427493Y0408453D01*
X0426532Y0408851D01*
X04255Y0408987D01*
D02*
G37*
G36*
X0425Y0398921D02*
X0424468Y0398851D01*
X0423507Y0398453D01*
X0422681Y0397819D01*
X0422047Y0396993D01*
X0421649Y0396032D01*
X0421579Y03955D01*
X0425D01*
Y0398921D01*
D02*
G37*
G36*
X0492Y0402487D02*
X0490968Y0402351D01*
X0490007Y0401953D01*
X0489181Y0401319D01*
X0488547Y0400493D01*
X0488149Y0399532D01*
X0488013Y03985D01*
X0488149Y0397468D01*
X0488547Y0396507D01*
X0489181Y0395681D01*
X0490007Y0395047D01*
X0490968Y0394649D01*
X0492Y0394513D01*
X0493032Y0394649D01*
X0493993Y0395047D01*
X0494819Y0395681D01*
X0495453Y0396507D01*
X0495851Y0397468D01*
X0495987Y03985D01*
X0495851Y0399532D01*
X0495453Y0400493D01*
X0494819Y0401319D01*
X0493993Y0401953D01*
X0493032Y0402351D01*
X0492Y0402487D01*
D02*
G37*
G36*
X0482D02*
X0480968Y0402351D01*
X0480007Y0401953D01*
X0479181Y0401319D01*
X0478547Y0400493D01*
X0478149Y0399532D01*
X0478013Y03985D01*
X0478149Y0397468D01*
X0478547Y0396507D01*
X0479181Y0395681D01*
X0480007Y0395047D01*
X0480968Y0394649D01*
X0482Y0394513D01*
X0483032Y0394649D01*
X0483993Y0395047D01*
X0484819Y0395681D01*
X0485453Y0396507D01*
X0485851Y0397468D01*
X0485987Y03985D01*
X0485851Y0399532D01*
X0485453Y0400493D01*
X0484819Y0401319D01*
X0483993Y0401953D01*
X0483032Y0402351D01*
X0482Y0402487D01*
D02*
G37*
G36*
X0429421Y03945D02*
X0426D01*
Y0391079D01*
X0426532Y0391149D01*
X0427493Y0391547D01*
X0428319Y0392181D01*
X0428953Y0393007D01*
X0429351Y0393968D01*
X0429421Y03945D01*
D02*
G37*
G36*
X0425D02*
X0421579D01*
X0421649Y0393968D01*
X0422047Y0393007D01*
X0422681Y0392181D01*
X0423507Y0391547D01*
X0424468Y0391149D01*
X0425Y0391079D01*
Y03945D01*
D02*
G37*
G36*
X0497Y0386487D02*
X0495968Y0386351D01*
X0495007Y0385953D01*
X0494181Y0385319D01*
X0493547Y0384493D01*
X0493149Y0383532D01*
X0493013Y03825D01*
X0493149Y0381468D01*
X0493547Y0380507D01*
X0494181Y0379681D01*
X0495007Y0379047D01*
X0495968Y0378649D01*
X0497Y0378513D01*
X0498032Y0378649D01*
X0498993Y0379047D01*
X0499819Y0379681D01*
X0500453Y0380507D01*
X0500851Y0381468D01*
X0500987Y03825D01*
X0500851Y0383532D01*
X0500453Y0384493D01*
X0499819Y0385319D01*
X0498993Y0385953D01*
X0498032Y0386351D01*
X0497Y0386487D01*
D02*
G37*
G36*
X0477D02*
X0475968Y0386351D01*
X0475007Y0385953D01*
X0474181Y0385319D01*
X0473547Y0384493D01*
X0473149Y0383532D01*
X0473013Y03825D01*
X0473149Y0381468D01*
X0473547Y0380507D01*
X0474181Y0379681D01*
X0475007Y0379047D01*
X0475968Y0378649D01*
X0477Y0378513D01*
X0478032Y0378649D01*
X0478993Y0379047D01*
X0479819Y0379681D01*
X0480453Y0380507D01*
X0480851Y0381468D01*
X0480987Y03825D01*
X0480851Y0383532D01*
X0480453Y0384493D01*
X0479819Y0385319D01*
X0478993Y0385953D01*
X0478032Y0386351D01*
X0477Y0386487D01*
D02*
G37*
G36*
X0552Y0412487D02*
X0550968Y0412351D01*
X0550007Y0411953D01*
X0549181Y0411319D01*
X0548547Y0410493D01*
X0548149Y0409532D01*
X0548013Y04085D01*
X0548149Y0407468D01*
X0548547Y0406507D01*
X0549181Y0405681D01*
X0550007Y0405047D01*
X0550968Y0404649D01*
X0552Y0404513D01*
X0553032Y0404649D01*
X0553993Y0405047D01*
X0554819Y0405681D01*
X0555453Y0406507D01*
X0555851Y0407468D01*
X0555987Y04085D01*
X0555851Y0409532D01*
X0555453Y0410493D01*
X0554819Y0411319D01*
X0553993Y0411953D01*
X0553032Y0412351D01*
X0552Y0412487D01*
D02*
G37*
G36*
Y0402487D02*
X0550968Y0402351D01*
X0550007Y0401953D01*
X0549181Y0401319D01*
X0548547Y0400493D01*
X0548149Y0399532D01*
X0548013Y03985D01*
X0548149Y0397468D01*
X0548547Y0396507D01*
X0549181Y0395681D01*
X0550007Y0395047D01*
X0550968Y0394649D01*
X0552Y0394513D01*
X0553032Y0394649D01*
X0553993Y0395047D01*
X0554819Y0395681D01*
X0555453Y0396507D01*
X0555851Y0397468D01*
X0555987Y03985D01*
X0555851Y0399532D01*
X0555453Y0400493D01*
X0554819Y0401319D01*
X0553993Y0401953D01*
X0553032Y0402351D01*
X0552Y0402487D01*
D02*
G37*
G36*
X0542D02*
X0540968Y0402351D01*
X0540007Y0401953D01*
X0539181Y0401319D01*
X0538547Y0400493D01*
X0538149Y0399532D01*
X0538013Y03985D01*
X0538149Y0397468D01*
X0538547Y0396507D01*
X0539181Y0395681D01*
X0540007Y0395047D01*
X0540968Y0394649D01*
X0542Y0394513D01*
X0543032Y0394649D01*
X0543993Y0395047D01*
X0544819Y0395681D01*
X0545453Y0396507D01*
X0545851Y0397468D01*
X0545987Y03985D01*
X0545851Y0399532D01*
X0545453Y0400493D01*
X0544819Y0401319D01*
X0543993Y0401953D01*
X0543032Y0402351D01*
X0542Y0402487D01*
D02*
G37*
G36*
X0499964Y03515D02*
X0497D01*
Y0348536D01*
X0497414Y034859D01*
X0498265Y0348943D01*
X0498996Y0349504D01*
X0499557Y0350235D01*
X049991Y0351086D01*
X0499964Y03515D01*
D02*
G37*
G36*
X0496D02*
X0493036D01*
X049309Y0351086D01*
X0493443Y0350235D01*
X0494004Y0349504D01*
X0494735Y0348943D01*
X0495586Y034859D01*
X0496Y0348536D01*
Y03515D01*
D02*
G37*
G36*
X05215Y0351464D02*
Y03485D01*
X0524464D01*
X052441Y0348914D01*
X0524057Y0349765D01*
X0523496Y0350496D01*
X0522765Y0351057D01*
X0521914Y035141D01*
X05215Y0351464D01*
D02*
G37*
G36*
X05205D02*
X0520086Y035141D01*
X0519235Y0351057D01*
X0518504Y0350496D01*
X0517943Y0349765D01*
X051759Y0348914D01*
X0517536Y03485D01*
X05205D01*
Y0351464D01*
D02*
G37*
G36*
X0524464Y03475D02*
X05215D01*
Y0344536D01*
X0521914Y034459D01*
X0522765Y0344943D01*
X0523496Y0345504D01*
X0524057Y0346235D01*
X052441Y0347086D01*
X0524464Y03475D01*
D02*
G37*
G36*
X05205D02*
X0517536D01*
X051759Y0347086D01*
X0517943Y0346235D01*
X0518504Y0345504D01*
X0519235Y0344943D01*
X0520086Y034459D01*
X05205Y0344536D01*
Y03475D01*
D02*
G37*
G36*
X0487Y0346487D02*
X0485968Y0346351D01*
X0485007Y0345953D01*
X0484181Y0345319D01*
X0483547Y0344493D01*
X0483149Y0343532D01*
X0483013Y03425D01*
X0483149Y0341468D01*
X0483547Y0340507D01*
X0484181Y0339681D01*
X0485007Y0339047D01*
X0485968Y0338649D01*
X0487Y0338513D01*
X0488032Y0338649D01*
X0488993Y0339047D01*
X0489819Y0339681D01*
X0490453Y0340507D01*
X0490851Y0341468D01*
X0490987Y03425D01*
X0490851Y0343532D01*
X0490453Y0344493D01*
X0489819Y0345319D01*
X0488993Y0345953D01*
X0488032Y0346351D01*
X0487Y0346487D01*
D02*
G37*
G36*
X0477D02*
X0475968Y0346351D01*
X0475007Y0345953D01*
X0474181Y0345319D01*
X0473547Y0344493D01*
X0473149Y0343532D01*
X0473013Y03425D01*
X0473149Y0341468D01*
X0473547Y0340507D01*
X0474181Y0339681D01*
X0475007Y0339047D01*
X0475968Y0338649D01*
X0477Y0338513D01*
X0478032Y0338649D01*
X0478993Y0339047D01*
X0479819Y0339681D01*
X0480453Y0340507D01*
X0480851Y0341468D01*
X0480987Y03425D01*
X0480851Y0343532D01*
X0480453Y0344493D01*
X0479819Y0345319D01*
X0478993Y0345953D01*
X0478032Y0346351D01*
X0477Y0346487D01*
D02*
G37*
G36*
X0487Y0336487D02*
X0485968Y0336351D01*
X0485007Y0335953D01*
X0484181Y0335319D01*
X0483547Y0334493D01*
X0483149Y0333532D01*
X0483013Y03325D01*
X0483149Y0331468D01*
X0483547Y0330507D01*
X0484181Y0329681D01*
X0485007Y0329047D01*
X0485968Y0328649D01*
X0487Y0328513D01*
X0488032Y0328649D01*
X0488993Y0329047D01*
X0489819Y0329681D01*
X0490453Y0330507D01*
X0490851Y0331468D01*
X0490987Y03325D01*
X0490851Y0333532D01*
X0490453Y0334493D01*
X0489819Y0335319D01*
X0488993Y0335953D01*
X0488032Y0336351D01*
X0487Y0336487D01*
D02*
G37*
G36*
X0477D02*
X0475968Y0336351D01*
X0475007Y0335953D01*
X0474181Y0335319D01*
X0473547Y0334493D01*
X0473149Y0333532D01*
X0473013Y03325D01*
X0473149Y0331468D01*
X0473547Y0330507D01*
X0474181Y0329681D01*
X0475007Y0329047D01*
X0475968Y0328649D01*
X0477Y0328513D01*
X0478032Y0328649D01*
X0478993Y0329047D01*
X0479819Y0329681D01*
X0480453Y0330507D01*
X0480851Y0331468D01*
X0480987Y03325D01*
X0480851Y0333532D01*
X0480453Y0334493D01*
X0479819Y0335319D01*
X0478993Y0335953D01*
X0478032Y0336351D01*
X0477Y0336487D01*
D02*
G37*
G36*
X0702662Y0396718D02*
X0699698D01*
X0699752Y0396304D01*
X0700105Y0395453D01*
X0700666Y0394722D01*
X0701397Y0394161D01*
X0702248Y0393808D01*
X0702662Y0393754D01*
Y0396718D01*
D02*
G37*
G36*
X05605Y0364464D02*
X0560086Y036441D01*
X0559235Y0364057D01*
X0558504Y0363496D01*
X0557943Y0362765D01*
X055759Y0361914D01*
X0557536Y03615D01*
X05605D01*
Y0364464D01*
D02*
G37*
G36*
X0564464Y03605D02*
X05615D01*
Y0357536D01*
X0561914Y035759D01*
X0562765Y0357943D01*
X0563496Y0358504D01*
X0564057Y0359235D01*
X056441Y0360086D01*
X0564464Y03605D01*
D02*
G37*
G36*
X05535Y0344964D02*
Y0342D01*
X0556464D01*
X055641Y0342414D01*
X0556057Y0343265D01*
X0555496Y0343996D01*
X0554765Y0344557D01*
X0553914Y034491D01*
X05535Y0344964D01*
D02*
G37*
G36*
X05525D02*
X0552086Y034491D01*
X0551235Y0344557D01*
X0550504Y0343996D01*
X0549943Y0343265D01*
X054959Y0342414D01*
X0549536Y0342D01*
X05525D01*
Y0344964D01*
D02*
G37*
G36*
X0556464Y0341D02*
X05535D01*
Y0338036D01*
X0553914Y033809D01*
X0554765Y0338443D01*
X0555496Y0339004D01*
X0556057Y0339735D01*
X055641Y0340586D01*
X0556464Y0341D01*
D02*
G37*
G36*
X05525D02*
X0549536D01*
X054959Y0340586D01*
X0549943Y0339735D01*
X0550504Y0339004D01*
X0551235Y0338443D01*
X0552086Y033809D01*
X05525Y0338036D01*
Y0341D01*
D02*
G37*
G36*
X05755Y0342034D02*
X0573774Y0341898D01*
X057209Y0341494D01*
X0570491Y0340831D01*
X0569014Y0339927D01*
X0567698Y0338802D01*
X0566573Y0337486D01*
X0565669Y0336009D01*
X0565006Y033441D01*
X0564602Y0332726D01*
X0564466Y0331D01*
X0564602Y0329274D01*
X0565006Y032759D01*
X0565669Y0325991D01*
X0566573Y0324514D01*
X0567698Y0323198D01*
X0569014Y0322073D01*
X0570491Y0321169D01*
X057209Y0320506D01*
X0573774Y0320102D01*
X05755Y0319966D01*
X0577226Y0320102D01*
X057891Y0320506D01*
X0580509Y0321169D01*
X0581986Y0322073D01*
X0583302Y0323198D01*
X0584427Y0324514D01*
X0585331Y0325991D01*
X0585994Y032759D01*
X0586398Y0329274D01*
X0586534Y0331D01*
X0586398Y0332726D01*
X0585994Y033441D01*
X0585331Y0336009D01*
X0584427Y0337486D01*
X0583302Y0338802D01*
X0581986Y0339927D01*
X0580509Y0340831D01*
X057891Y0341494D01*
X0577226Y0341898D01*
X05755Y0342034D01*
D02*
G37*
G36*
X0677Y0364964D02*
Y0362D01*
X0679964D01*
X067991Y0362414D01*
X0679557Y0363265D01*
X0678996Y0363996D01*
X0678265Y0364557D01*
X0677414Y036491D01*
X0677Y0364964D01*
D02*
G37*
G36*
X0679964Y0361D02*
X0677D01*
Y0358036D01*
X0677414Y035809D01*
X0678265Y0358443D01*
X0678996Y0359004D01*
X0679557Y0359735D01*
X067991Y0360586D01*
X0679964Y0361D01*
D02*
G37*
G36*
X06935Y0357921D02*
Y03545D01*
X0696921D01*
X0696851Y0355032D01*
X0696453Y0355993D01*
X0695819Y0356819D01*
X0694993Y0357453D01*
X0694032Y0357851D01*
X06935Y0357921D01*
D02*
G37*
G36*
X06835D02*
Y03545D01*
X0686921D01*
X0686851Y0355032D01*
X0686453Y0355993D01*
X0685819Y0356819D01*
X0684993Y0357453D01*
X0684032Y0357851D01*
X06835Y0357921D01*
D02*
G37*
G36*
X06925D02*
X0691968Y0357851D01*
X0691007Y0357453D01*
X0690181Y0356819D01*
X0689547Y0355993D01*
X0689149Y0355032D01*
X0689079Y03545D01*
X06925D01*
Y0357921D01*
D02*
G37*
G36*
X06825D02*
X0681968Y0357851D01*
X0681007Y0357453D01*
X0680181Y0356819D01*
X0679547Y0355993D01*
X0679149Y0355032D01*
X0679079Y03545D01*
X06825D01*
Y0357921D01*
D02*
G37*
G36*
X0696921Y03535D02*
X06935D01*
Y0350079D01*
X0694032Y0350149D01*
X0694993Y0350547D01*
X0695819Y0351181D01*
X0696453Y0352007D01*
X0696851Y0352968D01*
X0696921Y03535D01*
D02*
G37*
G36*
X0686921D02*
X06835D01*
Y0350079D01*
X0684032Y0350149D01*
X0684993Y0350547D01*
X0685819Y0351181D01*
X0686453Y0352007D01*
X0686851Y0352968D01*
X0686921Y03535D01*
D02*
G37*
G36*
X06925D02*
X0689079D01*
X0689149Y0352968D01*
X0689547Y0352007D01*
X0690181Y0351181D01*
X0691007Y0350547D01*
X0691968Y0350149D01*
X06925Y0350079D01*
Y03535D01*
D02*
G37*
G36*
X06825D02*
X0679079D01*
X0679149Y0352968D01*
X0679547Y0352007D01*
X0680181Y0351181D01*
X0681007Y0350547D01*
X0681968Y0350149D01*
X06825Y0350079D01*
Y03535D01*
D02*
G37*
G36*
X0677Y0349964D02*
Y0347D01*
X0679964D01*
X067991Y0347414D01*
X0679557Y0348265D01*
X0678996Y0348996D01*
X0678265Y0349557D01*
X0677414Y034991D01*
X0677Y0349964D01*
D02*
G37*
G36*
X0676D02*
X0675586Y034991D01*
X0674735Y0349557D01*
X0674004Y0348996D01*
X0673443Y0348265D01*
X067309Y0347414D01*
X0673036Y0347D01*
X0676D01*
Y0349964D01*
D02*
G37*
G36*
X0679964Y0346D02*
X0677D01*
Y0343036D01*
X0677414Y034309D01*
X0678265Y0343443D01*
X0678996Y0344004D01*
X0679557Y0344735D01*
X067991Y0345586D01*
X0679964Y0346D01*
D02*
G37*
G36*
X0676D02*
X0673036D01*
X067309Y0345586D01*
X0673443Y0344735D01*
X0674004Y0344004D01*
X0674735Y0343443D01*
X0675586Y034309D01*
X0676Y0343036D01*
Y0346D01*
D02*
G37*
G36*
X0667Y0346487D02*
X0665968Y0346351D01*
X0665007Y0345953D01*
X0664181Y0345319D01*
X0663547Y0344493D01*
X0663149Y0343532D01*
X0663013Y03425D01*
X0663149Y0341468D01*
X0663547Y0340507D01*
X0664181Y0339681D01*
X0665007Y0339047D01*
X0665968Y0338649D01*
X0667Y0338513D01*
X0668032Y0338649D01*
X0668993Y0339047D01*
X0669819Y0339681D01*
X0670453Y0340507D01*
X0670851Y0341468D01*
X0670987Y03425D01*
X0670851Y0343532D01*
X0670453Y0344493D01*
X0669819Y0345319D01*
X0668993Y0345953D01*
X0668032Y0346351D01*
X0667Y0346487D01*
D02*
G37*
G36*
X0686953Y0327953D02*
X0679047D01*
Y0320047D01*
X0686953D01*
Y0327953D01*
D02*
G37*
G36*
X0693Y0327987D02*
X0691968Y0327851D01*
X0691007Y0327453D01*
X0690181Y0326819D01*
X0689547Y0325993D01*
X0689149Y0325032D01*
X0689013Y0324D01*
X0689149Y0322968D01*
X0689547Y0322007D01*
X0690181Y0321181D01*
X0691007Y0320547D01*
X0691968Y0320149D01*
X0693Y0320013D01*
X0694032Y0320149D01*
X0694993Y0320547D01*
X0695819Y0321181D01*
X0696453Y0322007D01*
X0696851Y0322968D01*
X0696987Y0324D01*
X0696851Y0325032D01*
X0696453Y0325993D01*
X0695819Y0326819D01*
X0694993Y0327453D01*
X0694032Y0327851D01*
X0693Y0327987D01*
D02*
G37*
G36*
X0667Y0336487D02*
X0665968Y0336351D01*
X0665007Y0335953D01*
X0664181Y0335319D01*
X0663547Y0334493D01*
X0663149Y0333532D01*
X0663013Y03325D01*
X0663149Y0331468D01*
X0663547Y0330507D01*
X0664181Y0329681D01*
X0665007Y0329047D01*
X0665968Y0328649D01*
X0667Y0328513D01*
X0668032Y0328649D01*
X0668993Y0329047D01*
X0669819Y0329681D01*
X0670453Y0330507D01*
X0670645Y0330971D01*
X0671781D01*
X0672471Y0330281D01*
Y0312656D01*
X0672142Y0312544D01*
X0671971Y0312516D01*
X0671265Y0313057D01*
X0670414Y031341D01*
X067Y0313464D01*
Y031D01*
Y0306536D01*
X0670414Y030659D01*
X0671265Y0306943D01*
X0671971Y0307484D01*
X0672142Y0307456D01*
X0672471Y0307344D01*
Y0292656D01*
X0672142Y0292544D01*
X0671971Y0292516D01*
X0671265Y0293057D01*
X0670414Y029341D01*
X067Y0293464D01*
Y029D01*
Y0286536D01*
X0670414Y028659D01*
X0670971Y0286821D01*
X0671471Y0286495D01*
Y0278655D01*
X0671235Y0278557D01*
X0670504Y0277996D01*
X0669943Y0277265D01*
X066959Y0276414D01*
X0669546Y0276075D01*
X0669084Y0275884D01*
X0668993Y0275953D01*
X0668032Y0276351D01*
X0667Y0276487D01*
X0665968Y0276351D01*
X0665007Y0275953D01*
X0664181Y0275319D01*
X0663547Y0274493D01*
X0663149Y0273532D01*
X0663013Y02725D01*
X0663149Y0271468D01*
X0663547Y0270507D01*
X0664181Y0269681D01*
X0665007Y0269047D01*
X0665968Y0268649D01*
X0667Y0268513D01*
X0668032Y0268649D01*
X0668993Y0269047D01*
X0669819Y0269681D01*
X0670453Y0270507D01*
X0670851Y0271468D01*
X0670927Y0272048D01*
X0670977Y0272112D01*
X0671471Y0272345D01*
X0672086Y027209D01*
X0673Y027197D01*
X0673914Y027209D01*
X0674765Y0272443D01*
X0675496Y0273004D01*
X0676057Y0273735D01*
X067641Y0274586D01*
X067653Y02755D01*
X067641Y0276414D01*
X0676057Y0277265D01*
X0675496Y0277996D01*
X0674765Y0278557D01*
X0674529Y0278655D01*
Y028671D01*
X0675081Y0287262D01*
X0675413Y0287758D01*
X0675529Y0288343D01*
Y0330914D01*
X0675413Y03315D01*
X0675081Y0331996D01*
X0673496Y0333581D01*
X0672999Y0333913D01*
X0672414Y0334029D01*
X0670645D01*
X0670453Y0334493D01*
X0669819Y0335319D01*
X0668993Y0335953D01*
X0668032Y0336351D01*
X0667Y0336487D01*
D02*
G37*
G36*
X06635Y032553D02*
X0662586Y032541D01*
X0661735Y0325057D01*
X0661004Y0324496D01*
X0660443Y0323765D01*
X066009Y0322914D01*
X065997Y0322D01*
X066009Y0321086D01*
X0660443Y0320235D01*
X0661004Y0319504D01*
X0661711Y0318961D01*
Y0288155D01*
X0661504Y0287996D01*
X0660943Y0287265D01*
X066059Y0286414D01*
X066047Y02855D01*
X066059Y0284586D01*
X0660943Y0283735D01*
X0661504Y0283004D01*
X0662235Y0282443D01*
X0663086Y028209D01*
X0664Y028197D01*
X0664914Y028209D01*
X0665765Y0282443D01*
X0666496Y0283004D01*
X0667057Y0283735D01*
X066741Y0284586D01*
X066753Y02855D01*
X066741Y0286414D01*
X066732Y0286631D01*
X0667731Y0286946D01*
X0667735Y0286943D01*
X0668586Y028659D01*
X0669Y0286536D01*
Y029D01*
Y0293464D01*
X0668586Y029341D01*
X0667735Y0293057D01*
X0667004Y0292496D01*
X0666443Y0291765D01*
X0666289Y0291394D01*
X0665789Y0291494D01*
Y0308506D01*
X0666289Y0308606D01*
X0666443Y0308235D01*
X0667004Y0307504D01*
X0667735Y0306943D01*
X0668586Y030659D01*
X0669Y0306536D01*
Y031D01*
Y0313464D01*
X0668586Y031341D01*
X0667735Y0313057D01*
X0667004Y0312496D01*
X0666443Y0311765D01*
X0666289Y0311394D01*
X0665789Y0311494D01*
Y0319345D01*
X0665996Y0319504D01*
X0666557Y0320235D01*
X066691Y0321086D01*
X066703Y0322D01*
X066691Y0322914D01*
X0666557Y0323765D01*
X0665996Y0324496D01*
X0665265Y0325057D01*
X0664414Y032541D01*
X06635Y032553D01*
D02*
G37*
G36*
X0657Y0336487D02*
X0655968Y0336351D01*
X0655007Y0335953D01*
X0654181Y0335319D01*
X0653547Y0334493D01*
X0653149Y0333532D01*
X0653013Y03325D01*
X0653149Y0331468D01*
X0653547Y0330507D01*
X0654181Y0329681D01*
X0655007Y0329047D01*
X0655721Y0328751D01*
Y0301137D01*
X0655004Y0300587D01*
X0654443Y0299856D01*
X065409Y0299004D01*
X065397Y0298091D01*
X065409Y0297177D01*
X0654443Y0296325D01*
X0655004Y0295594D01*
X0655735Y0295033D01*
X0656586Y0294681D01*
X06575Y029456D01*
X0658414Y0294681D01*
X0659265Y0295033D01*
X0659996Y0295594D01*
X0660557Y0296325D01*
X066091Y0297177D01*
X066103Y0298091D01*
X066091Y0299004D01*
X0660557Y0299856D01*
X0659996Y0300587D01*
X0659265Y0301148D01*
X0658779Y0301349D01*
Y0328959D01*
X0658993Y0329047D01*
X0659819Y0329681D01*
X0660453Y0330507D01*
X0660851Y0331468D01*
X0660987Y03325D01*
X0660851Y0333532D01*
X0660453Y0334493D01*
X0659819Y0335319D01*
X0658993Y0335953D01*
X0658032Y0336351D01*
X0657Y0336487D01*
D02*
G37*
G36*
X03425Y0408921D02*
Y04055D01*
X0345921D01*
X0345851Y0406032D01*
X0345453Y0406993D01*
X0344819Y0407819D01*
X0343993Y0408453D01*
X0343032Y0408851D01*
X03425Y0408921D01*
D02*
G37*
G36*
X03415D02*
X0340968Y0408851D01*
X0340007Y0408453D01*
X0339181Y0407819D01*
X0338547Y0406993D01*
X0338149Y0406032D01*
X0338079Y04055D01*
X03415D01*
Y0408921D01*
D02*
G37*
G36*
X0345921Y04045D02*
X03425D01*
Y0401079D01*
X0343032Y0401149D01*
X0343993Y0401547D01*
X0344819Y0402181D01*
X0345453Y0403007D01*
X0345851Y0403968D01*
X0345921Y04045D01*
D02*
G37*
G36*
X03415D02*
X0338079D01*
X0338149Y0403968D01*
X0338547Y0403007D01*
X0339181Y0402181D01*
X0340007Y0401547D01*
X0340968Y0401149D01*
X03415Y0401079D01*
Y04045D01*
D02*
G37*
G36*
X0352Y0408987D02*
X0350968Y0408851D01*
X0350007Y0408453D01*
X0349181Y0407819D01*
X0348547Y0406993D01*
X0348149Y0406032D01*
X0348013Y0405D01*
X0348149Y0403968D01*
X0348547Y0403007D01*
X0349181Y0402181D01*
X0350007Y0401547D01*
X0350968Y0401149D01*
X0352Y0401013D01*
X0353032Y0401149D01*
X0353993Y0401547D01*
X0354819Y0402181D01*
X0355453Y0403007D01*
X0355851Y0403968D01*
X0355987Y0405D01*
X0355851Y0406032D01*
X0355453Y0406993D01*
X0354819Y0407819D01*
X0353993Y0408453D01*
X0353032Y0408851D01*
X0352Y0408987D01*
D02*
G37*
G36*
X0332D02*
X0330968Y0408851D01*
X0330007Y0408453D01*
X0329181Y0407819D01*
X0328547Y0406993D01*
X0328149Y0406032D01*
X0328013Y0405D01*
X0328149Y0403968D01*
X0328547Y0403007D01*
X0329181Y0402181D01*
X0330007Y0401547D01*
X0330968Y0401149D01*
X0332Y0401013D01*
X0333032Y0401149D01*
X0333993Y0401547D01*
X0334819Y0402181D01*
X0335453Y0403007D01*
X0335851Y0403968D01*
X0335987Y0405D01*
X0335851Y0406032D01*
X0335453Y0406993D01*
X0334819Y0407819D01*
X0333993Y0408453D01*
X0333032Y0408851D01*
X0332Y0408987D01*
D02*
G37*
G36*
X03425Y0398921D02*
Y03955D01*
X0345921D01*
X0345851Y0396032D01*
X0345453Y0396993D01*
X0344819Y0397819D01*
X0343993Y0398453D01*
X0343032Y0398851D01*
X03425Y0398921D01*
D02*
G37*
G36*
X03415D02*
X0340968Y0398851D01*
X0340007Y0398453D01*
X0339181Y0397819D01*
X0338547Y0396993D01*
X0338149Y0396032D01*
X0338079Y03955D01*
X03415D01*
Y0398921D01*
D02*
G37*
G36*
X0345921Y03945D02*
X03425D01*
Y0391079D01*
X0343032Y0391149D01*
X0343993Y0391547D01*
X0344819Y0392181D01*
X0345453Y0393007D01*
X0345851Y0393968D01*
X0345921Y03945D01*
D02*
G37*
G36*
X03415D02*
X0338079D01*
X0338149Y0393968D01*
X0338547Y0393007D01*
X0339181Y0392181D01*
X0340007Y0391547D01*
X0340968Y0391149D01*
X03415Y0391079D01*
Y03945D01*
D02*
G37*
G36*
X0352Y0398987D02*
X0350968Y0398851D01*
X0350007Y0398453D01*
X0349181Y0397819D01*
X0348547Y0396993D01*
X0348149Y0396032D01*
X0348013Y0395D01*
X0348149Y0393968D01*
X0348547Y0393007D01*
X0349181Y0392181D01*
X0350007Y0391547D01*
X0350968Y0391149D01*
X0352Y0391013D01*
X0353032Y0391149D01*
X0353993Y0391547D01*
X0354819Y0392181D01*
X0355453Y0393007D01*
X0355851Y0393968D01*
X0355987Y0395D01*
X0355851Y0396032D01*
X0355453Y0396993D01*
X0354819Y0397819D01*
X0353993Y0398453D01*
X0353032Y0398851D01*
X0352Y0398987D01*
D02*
G37*
G36*
X0332D02*
X0330968Y0398851D01*
X0330007Y0398453D01*
X0329181Y0397819D01*
X0328547Y0396993D01*
X0328149Y0396032D01*
X0328013Y0395D01*
X0328149Y0393968D01*
X0328547Y0393007D01*
X0329181Y0392181D01*
X0330007Y0391547D01*
X0330968Y0391149D01*
X0332Y0391013D01*
X0333032Y0391149D01*
X0333993Y0391547D01*
X0334819Y0392181D01*
X0335453Y0393007D01*
X0335851Y0393968D01*
X0335987Y0395D01*
X0335851Y0396032D01*
X0335453Y0396993D01*
X0334819Y0397819D01*
X0333993Y0398453D01*
X0333032Y0398851D01*
X0332Y0398987D01*
D02*
G37*
G36*
X03995Y0381421D02*
Y0378D01*
X0402921D01*
X0402851Y0378532D01*
X0402453Y0379493D01*
X0401819Y0380319D01*
X0400993Y0380953D01*
X0400032Y0381351D01*
X03995Y0381421D01*
D02*
G37*
G36*
X03985D02*
X0397968Y0381351D01*
X0397007Y0380953D01*
X0396181Y0380319D01*
X0395547Y0379493D01*
X0395149Y0378532D01*
X0395079Y0378D01*
X03985D01*
Y0381421D01*
D02*
G37*
G36*
X03695D02*
Y0378D01*
X0372921D01*
X0372851Y0378532D01*
X0372453Y0379493D01*
X0371819Y0380319D01*
X0370993Y0380953D01*
X0370032Y0381351D01*
X03695Y0381421D01*
D02*
G37*
G36*
X03685D02*
X0367968Y0381351D01*
X0367007Y0380953D01*
X0366181Y0380319D01*
X0365547Y0379493D01*
X0365149Y0378532D01*
X0365079Y0378D01*
X03685D01*
Y0381421D01*
D02*
G37*
G36*
X0402921Y0377D02*
X03995D01*
Y0373579D01*
X0400032Y0373649D01*
X0400993Y0374047D01*
X0401819Y0374681D01*
X0402453Y0375507D01*
X0402851Y0376468D01*
X0402921Y0377D01*
D02*
G37*
G36*
X03985D02*
X0395079D01*
X0395149Y0376468D01*
X0395547Y0375507D01*
X0396181Y0374681D01*
X0397007Y0374047D01*
X0397968Y0373649D01*
X03985Y0373579D01*
Y0377D01*
D02*
G37*
G36*
X0372921D02*
X03695D01*
Y0373579D01*
X0370032Y0373649D01*
X0370993Y0374047D01*
X0371819Y0374681D01*
X0372453Y0375507D01*
X0372851Y0376468D01*
X0372921Y0377D01*
D02*
G37*
G36*
X03685D02*
X0365079D01*
X0365149Y0376468D01*
X0365547Y0375507D01*
X0366181Y0374681D01*
X0367007Y0374047D01*
X0367968Y0373649D01*
X03685Y0373579D01*
Y0377D01*
D02*
G37*
G36*
X0409Y0381487D02*
X0407968Y0381351D01*
X0407007Y0380953D01*
X0406181Y0380319D01*
X0405547Y0379493D01*
X0405149Y0378532D01*
X0405013Y03775D01*
X0405149Y0376468D01*
X0405547Y0375507D01*
X0406181Y0374681D01*
X0407007Y0374047D01*
X0407968Y0373649D01*
X0409Y0373513D01*
X0410032Y0373649D01*
X0410993Y0374047D01*
X0411819Y0374681D01*
X0412453Y0375507D01*
X0412851Y0376468D01*
X0412987Y03775D01*
X0412851Y0378532D01*
X0412453Y0379493D01*
X0411819Y0380319D01*
X0410993Y0380953D01*
X0410032Y0381351D01*
X0409Y0381487D01*
D02*
G37*
G36*
X0389D02*
X0387968Y0381351D01*
X0387007Y0380953D01*
X0386181Y0380319D01*
X0385547Y0379493D01*
X0385149Y0378532D01*
X0385013Y03775D01*
X0385149Y0376468D01*
X0385547Y0375507D01*
X0386181Y0374681D01*
X0387007Y0374047D01*
X0387968Y0373649D01*
X0389Y0373513D01*
X0390032Y0373649D01*
X0390993Y0374047D01*
X0391819Y0374681D01*
X0392453Y0375507D01*
X0392851Y0376468D01*
X0392987Y03775D01*
X0392851Y0378532D01*
X0392453Y0379493D01*
X0391819Y0380319D01*
X0390993Y0380953D01*
X0390032Y0381351D01*
X0389Y0381487D01*
D02*
G37*
G36*
X0379D02*
X0377968Y0381351D01*
X0377007Y0380953D01*
X0376181Y0380319D01*
X0375547Y0379493D01*
X0375149Y0378532D01*
X0375013Y03775D01*
X0375149Y0376468D01*
X0375547Y0375507D01*
X0376181Y0374681D01*
X0377007Y0374047D01*
X0377968Y0373649D01*
X0379Y0373513D01*
X0380032Y0373649D01*
X0380993Y0374047D01*
X0381819Y0374681D01*
X0382453Y0375507D01*
X0382851Y0376468D01*
X0382987Y03775D01*
X0382851Y0378532D01*
X0382453Y0379493D01*
X0381819Y0380319D01*
X0380993Y0380953D01*
X0380032Y0381351D01*
X0379Y0381487D01*
D02*
G37*
G36*
X0345582Y0388565D02*
X0344668Y0388444D01*
X0343817Y0388092D01*
X0343086Y0387531D01*
X0342525Y03868D01*
X0342172Y0385948D01*
X0342052Y0385034D01*
X0342172Y0384121D01*
X0342525Y0383269D01*
X0343086Y0382538D01*
X0343375Y0382316D01*
Y0381816D01*
X0343003Y0381531D01*
X0342442Y03808D01*
X034209Y0379949D01*
X0341969Y0379035D01*
X034209Y0378121D01*
X0342442Y037727D01*
X0343003Y0376539D01*
X0343369Y0376258D01*
Y0375758D01*
X0343074Y0375532D01*
X0342513Y03748D01*
X034216Y0373949D01*
X034204Y0373035D01*
X034216Y0372122D01*
X0342513Y037127D01*
X0343074Y0370539D01*
X0343393Y0370295D01*
Y0369795D01*
X0343004Y0369496D01*
X0342443Y0368765D01*
X034209Y0367914D01*
X034197Y0367D01*
X034209Y0366086D01*
X0342443Y0365235D01*
X0343004Y0364504D01*
X0343735Y0363943D01*
X0344586Y036359D01*
X03455Y036347D01*
X0346414Y036359D01*
X0346594Y0363665D01*
X0346971Y0363356D01*
Y0326617D01*
X0347087Y0326032D01*
X0347419Y0325536D01*
X0351353Y0321601D01*
X0351415Y032129D01*
X0351746Y0320794D01*
X0356621Y0315919D01*
X0356718Y0315854D01*
X0356733Y0315243D01*
X0356181Y0314819D01*
X0355547Y0313993D01*
X0355149Y0313032D01*
X0355013Y0312D01*
X0355149Y0310968D01*
X0355547Y0310007D01*
X0356181Y0309181D01*
X0357007Y0308547D01*
X0357968Y0308149D01*
X0359Y0308013D01*
X0360032Y0308149D01*
X0360993Y0308547D01*
X0361819Y0309181D01*
X0362453Y0310007D01*
X0362851Y0310968D01*
X0362987Y0312D01*
X0362851Y0313032D01*
X0362453Y0313993D01*
X0361819Y0314819D01*
X0361622Y0314971D01*
X0361791Y0315471D01*
X0366209D01*
X0366378Y0314971D01*
X0366181Y0314819D01*
X0365547Y0313993D01*
X0365149Y0313032D01*
X0365013Y0312D01*
X0365149Y0310968D01*
X0365547Y0310007D01*
X0366181Y0309181D01*
X0367007Y0308547D01*
X0367968Y0308149D01*
X0369Y0308013D01*
X0370032Y0308149D01*
X0370993Y0308547D01*
X0371819Y0309181D01*
X0372453Y0310007D01*
X0372851Y0310968D01*
X0372987Y0312D01*
X0372851Y0313032D01*
X0372453Y0313993D01*
X0371819Y0314819D01*
X0371622Y0314971D01*
X0371792Y0315471D01*
X0389367D01*
X0396688Y0308149D01*
X039659Y0307914D01*
X039647Y0307D01*
X039659Y0306086D01*
X0396943Y0305235D01*
X0397504Y0304504D01*
X0398235Y0303943D01*
X0399086Y030359D01*
X04Y030347D01*
X0400914Y030359D01*
X0401765Y0303943D01*
X0402496Y0304504D01*
X0403057Y0305235D01*
X040341Y0306086D01*
X040353Y0307D01*
X040341Y0307914D01*
X0403057Y0308765D01*
X0402496Y0309496D01*
X0401765Y0310057D01*
X0400914Y031041D01*
X04Y031053D01*
X0399086Y031041D01*
X0398851Y0310312D01*
X0391081Y0318081D01*
X0390585Y0318413D01*
X039Y0318529D01*
X0371792D01*
X0371622Y0319029D01*
X0371819Y0319181D01*
X0372453Y0320007D01*
X0372851Y0320968D01*
X0372987Y0322D01*
X0372851Y0323032D01*
X0372453Y0323993D01*
X0372123Y0324423D01*
X0372369Y0324923D01*
X0390414D01*
X0396688Y0318649D01*
X039659Y0318414D01*
X039647Y03175D01*
X039659Y0316586D01*
X0396943Y0315735D01*
X0397504Y0315004D01*
X0398235Y0314443D01*
X0399086Y031409D01*
X04Y031397D01*
X0400914Y031409D01*
X0401765Y0314443D01*
X0402496Y0315004D01*
X0403057Y0315735D01*
X040341Y0316586D01*
X040353Y03175D01*
X040341Y0318414D01*
X0403057Y0319265D01*
X0402496Y0319996D01*
X0401765Y0320557D01*
X0400914Y032091D01*
X04Y032103D01*
X0399086Y032091D01*
X0398851Y0320812D01*
X0392129Y0327534D01*
X0391633Y0327866D01*
X0391047Y0327982D01*
X0370936D01*
X0370836Y0328482D01*
X0370993Y0328547D01*
X0371819Y0329181D01*
X0372453Y0330007D01*
X0372851Y0330968D01*
X0372987Y0332D01*
X0372851Y0333032D01*
X0372453Y0333993D01*
X0372123Y0334423D01*
X0372369Y0334923D01*
X0389914D01*
X0396688Y0328149D01*
X039659Y0327914D01*
X039647Y0327D01*
X039659Y0326086D01*
X0396943Y0325235D01*
X0397504Y0324504D01*
X0398235Y0323943D01*
X0399086Y032359D01*
X04Y032347D01*
X0400914Y032359D01*
X0401765Y0323943D01*
X0402496Y0324504D01*
X0403057Y0325235D01*
X040341Y0326086D01*
X040353Y0327D01*
X040341Y0327914D01*
X0403057Y0328765D01*
X0402496Y0329496D01*
X0401765Y0330057D01*
X0400914Y033041D01*
X04Y033053D01*
X0399086Y033041D01*
X0398851Y0330312D01*
X0391629Y0337534D01*
X0391132Y0337866D01*
X0390547Y0337982D01*
X0370936D01*
X0370836Y0338482D01*
X0370993Y0338547D01*
X0371819Y0339181D01*
X0372453Y0340007D01*
X0372851Y0340968D01*
X0372987Y0342D01*
X0372851Y0343032D01*
X0372453Y0343993D01*
X0372123Y0344423D01*
X0372369Y0344923D01*
X0389414D01*
X0396688Y0337649D01*
X039659Y0337414D01*
X039647Y03365D01*
X039659Y0335586D01*
X0396943Y0334735D01*
X0397504Y0334004D01*
X0398235Y0333443D01*
X0399086Y033309D01*
X04Y033297D01*
X0400914Y033309D01*
X0401765Y0333443D01*
X0402496Y0334004D01*
X0403057Y0334735D01*
X040341Y0335586D01*
X040353Y03365D01*
X040341Y0337414D01*
X0403057Y0338265D01*
X0402496Y0338996D01*
X0401765Y0339557D01*
X0400914Y033991D01*
X04Y034003D01*
X0399086Y033991D01*
X0398851Y0339812D01*
X0391129Y0347534D01*
X0390633Y0347866D01*
X0390047Y0347982D01*
X0359181D01*
X0356077Y0351086D01*
Y0354131D01*
X0356577Y0354377D01*
X0357007Y0354047D01*
X0357968Y0353649D01*
X0359Y0353513D01*
X0360032Y0353649D01*
X0360993Y0354047D01*
X0361819Y0354681D01*
X0362453Y0355507D01*
X0362851Y0356468D01*
X0362987Y03575D01*
X0362851Y0358532D01*
X0362453Y0359493D01*
X0361819Y0360319D01*
X0360993Y0360953D01*
X0360032Y0361351D01*
X0359Y0361487D01*
X0357968Y0361351D01*
X0357007Y0360953D01*
X0356577Y0360623D01*
X0356077Y0360869D01*
Y0374131D01*
X0356577Y0374377D01*
X0357007Y0374047D01*
X0357968Y0373649D01*
X0359Y0373513D01*
X0360032Y0373649D01*
X0360993Y0374047D01*
X0361819Y0374681D01*
X0362453Y0375507D01*
X0362851Y0376468D01*
X0362987Y03775D01*
X0362851Y0378532D01*
X0362453Y0379493D01*
X0361819Y0380319D01*
X0360993Y0380953D01*
X0360032Y0381351D01*
X0359Y0381487D01*
X0357968Y0381351D01*
X0357007Y0380953D01*
X0356181Y0380319D01*
X0355547Y0379493D01*
X0355149Y0378532D01*
X0355118Y0378296D01*
X0354644Y0378135D01*
X0348894Y0383885D01*
X0348992Y0384121D01*
X0349112Y0385034D01*
X0348992Y0385948D01*
X0348639Y03868D01*
X0348078Y0387531D01*
X0347347Y0388092D01*
X0346496Y0388444D01*
X0345582Y0388565D01*
D02*
G37*
G36*
X03695Y0361421D02*
Y0358D01*
X0372921D01*
X0372851Y0358532D01*
X0372453Y0359493D01*
X0371819Y0360319D01*
X0370993Y0360953D01*
X0370032Y0361351D01*
X03695Y0361421D01*
D02*
G37*
G36*
X03995D02*
Y0358D01*
X0402921D01*
X0402851Y0358532D01*
X0402453Y0359493D01*
X0401819Y0360319D01*
X0400993Y0360953D01*
X0400032Y0361351D01*
X03995Y0361421D01*
D02*
G37*
G36*
X03685D02*
X0367968Y0361351D01*
X0367007Y0360953D01*
X0366181Y0360319D01*
X0365547Y0359493D01*
X0365149Y0358532D01*
X0365079Y0358D01*
X03685D01*
Y0361421D01*
D02*
G37*
G36*
X03985D02*
X0397968Y0361351D01*
X0397007Y0360953D01*
X0396181Y0360319D01*
X0395547Y0359493D01*
X0395149Y0358532D01*
X0395079Y0358D01*
X03985D01*
Y0361421D01*
D02*
G37*
G36*
X0402921Y0357D02*
X03995D01*
Y0353579D01*
X0400032Y0353649D01*
X0400993Y0354047D01*
X0401819Y0354681D01*
X0402453Y0355507D01*
X0402851Y0356468D01*
X0402921Y0357D01*
D02*
G37*
G36*
X0372921D02*
X03695D01*
Y0353579D01*
X0370032Y0353649D01*
X0370993Y0354047D01*
X0371819Y0354681D01*
X0372453Y0355507D01*
X0372851Y0356468D01*
X0372921Y0357D01*
D02*
G37*
G36*
X03985D02*
X0395079D01*
X0395149Y0356468D01*
X0395547Y0355507D01*
X0396181Y0354681D01*
X0397007Y0354047D01*
X0397968Y0353649D01*
X03985Y0353579D01*
Y0357D01*
D02*
G37*
G36*
X03685D02*
X0365079D01*
X0365149Y0356468D01*
X0365547Y0355507D01*
X0366181Y0354681D01*
X0367007Y0354047D01*
X0367968Y0353649D01*
X03685Y0353579D01*
Y0357D01*
D02*
G37*
G36*
X0412953Y0361453D02*
X0405047D01*
Y0353547D01*
X0412953D01*
Y0361453D01*
D02*
G37*
G36*
X0389Y0361487D02*
X0387968Y0361351D01*
X0387007Y0360953D01*
X0386181Y0360319D01*
X0385547Y0359493D01*
X0385149Y0358532D01*
X0385013Y03575D01*
X0385149Y0356468D01*
X0385547Y0355507D01*
X0386181Y0354681D01*
X0387007Y0354047D01*
X0387968Y0353649D01*
X0389Y0353513D01*
X0390032Y0353649D01*
X0390993Y0354047D01*
X0391819Y0354681D01*
X0392453Y0355507D01*
X0392851Y0356468D01*
X0392987Y03575D01*
X0392851Y0358532D01*
X0392453Y0359493D01*
X0391819Y0360319D01*
X0390993Y0360953D01*
X0390032Y0361351D01*
X0389Y0361487D01*
D02*
G37*
G36*
X0379D02*
X0377968Y0361351D01*
X0377007Y0360953D01*
X0376181Y0360319D01*
X0375547Y0359493D01*
X0375149Y0358532D01*
X0375013Y03575D01*
X0375149Y0356468D01*
X0375547Y0355507D01*
X0376181Y0354681D01*
X0377007Y0354047D01*
X0377968Y0353649D01*
X0379Y0353513D01*
X0380032Y0353649D01*
X0380993Y0354047D01*
X0381819Y0354681D01*
X0382453Y0355507D01*
X0382851Y0356468D01*
X0382987Y03575D01*
X0382851Y0358532D01*
X0382453Y0359493D01*
X0381819Y0360319D01*
X0380993Y0360953D01*
X0380032Y0361351D01*
X0379Y0361487D01*
D02*
G37*
G36*
X0369Y0305987D02*
X0367968Y0305851D01*
X0367007Y0305453D01*
X0366181Y0304819D01*
X0365547Y0303993D01*
X0365149Y0303032D01*
X0365013Y0302D01*
X0365149Y0300968D01*
X0365547Y0300007D01*
X0366181Y0299181D01*
X0367007Y0298547D01*
X0367968Y0298149D01*
X0369Y0298013D01*
X0370032Y0298149D01*
X0370993Y0298547D01*
X0371819Y0299181D01*
X0372453Y0300007D01*
X0372851Y0300968D01*
X0372987Y0302D01*
X0372851Y0303032D01*
X0372453Y0303993D01*
X0371819Y0304819D01*
X0370993Y0305453D01*
X0370032Y0305851D01*
X0369Y0305987D01*
D02*
G37*
G36*
X0359D02*
X0357968Y0305851D01*
X0357007Y0305453D01*
X0356181Y0304819D01*
X0355547Y0303993D01*
X0355149Y0303032D01*
X0355013Y0302D01*
X0355149Y0300968D01*
X0355547Y0300007D01*
X0356181Y0299181D01*
X0357007Y0298547D01*
X0357968Y0298149D01*
X0359Y0298013D01*
X0360032Y0298149D01*
X0360993Y0298547D01*
X0361819Y0299181D01*
X0362453Y0300007D01*
X0362851Y0300968D01*
X0362987Y0302D01*
X0362851Y0303032D01*
X0362453Y0303993D01*
X0361819Y0304819D01*
X0360993Y0305453D01*
X0360032Y0305851D01*
X0359Y0305987D01*
D02*
G37*
G36*
X0369Y0295987D02*
X0367968Y0295851D01*
X0367007Y0295453D01*
X0366181Y0294819D01*
X0365547Y0293993D01*
X0365149Y0293032D01*
X0365013Y0292D01*
X0365149Y0290968D01*
X0365547Y0290007D01*
X0366181Y0289181D01*
X0367007Y0288547D01*
X0367968Y0288149D01*
X0369Y0288013D01*
X0370032Y0288149D01*
X0370993Y0288547D01*
X0371819Y0289181D01*
X0372453Y0290007D01*
X0372851Y0290968D01*
X0372987Y0292D01*
X0372851Y0293032D01*
X0372453Y0293993D01*
X0371819Y0294819D01*
X0370993Y0295453D01*
X0370032Y0295851D01*
X0369Y0295987D01*
D02*
G37*
G36*
X0359D02*
X0357968Y0295851D01*
X0357007Y0295453D01*
X0356181Y0294819D01*
X0355547Y0293993D01*
X0355149Y0293032D01*
X0355013Y0292D01*
X0355149Y0290968D01*
X0355547Y0290007D01*
X0356181Y0289181D01*
X0357007Y0288547D01*
X0357968Y0288149D01*
X0359Y0288013D01*
X0360032Y0288149D01*
X0360993Y0288547D01*
X0361819Y0289181D01*
X0362453Y0290007D01*
X0362851Y0290968D01*
X0362987Y0292D01*
X0362851Y0293032D01*
X0362453Y0293993D01*
X0361819Y0294819D01*
X0360993Y0295453D01*
X0360032Y0295851D01*
X0359Y0295987D01*
D02*
G37*
G36*
X03595Y0285921D02*
Y02825D01*
X0362921D01*
X0362851Y0283032D01*
X0362453Y0283993D01*
X0361819Y0284819D01*
X0360993Y0285453D01*
X0360032Y0285851D01*
X03595Y0285921D01*
D02*
G37*
G36*
X03585D02*
X0357968Y0285851D01*
X0357007Y0285453D01*
X0356181Y0284819D01*
X0355547Y0283993D01*
X0355149Y0283032D01*
X0355079Y02825D01*
X03585D01*
Y0285921D01*
D02*
G37*
G36*
X0362921Y02815D02*
X03595D01*
Y0278079D01*
X0360032Y0278149D01*
X0360993Y0278547D01*
X0361819Y0279181D01*
X0362453Y0280007D01*
X0362851Y0280968D01*
X0362921Y02815D01*
D02*
G37*
G36*
X03585D02*
X0355079D01*
X0355149Y0280968D01*
X0355547Y0280007D01*
X0356181Y0279181D01*
X0357007Y0278547D01*
X0357968Y0278149D01*
X03585Y0278079D01*
Y02815D01*
D02*
G37*
G36*
X0369Y0285987D02*
X0367968Y0285851D01*
X0367007Y0285453D01*
X0366181Y0284819D01*
X0365547Y0283993D01*
X0365149Y0283032D01*
X0365013Y0282D01*
X0365149Y0280968D01*
X0365547Y0280007D01*
X0366181Y0279181D01*
X0367007Y0278547D01*
X0367968Y0278149D01*
X0369Y0278013D01*
X0370032Y0278149D01*
X0370993Y0278547D01*
X0371819Y0279181D01*
X0372453Y0280007D01*
X0372851Y0280968D01*
X0372987Y0282D01*
X0372851Y0283032D01*
X0372453Y0283993D01*
X0371819Y0284819D01*
X0370993Y0285453D01*
X0370032Y0285851D01*
X0369Y0285987D01*
D02*
G37*
G36*
X03265Y0275464D02*
Y02725D01*
X0329464D01*
X032941Y0272914D01*
X0329057Y0273765D01*
X0328496Y0274496D01*
X0327765Y0275057D01*
X0326914Y027541D01*
X03265Y0275464D01*
D02*
G37*
G36*
X0329464Y02715D02*
X03265D01*
Y0268536D01*
X0326914Y026859D01*
X0327765Y0268943D01*
X0328496Y0269504D01*
X0329057Y0270235D01*
X032941Y0271086D01*
X0329464Y02715D01*
D02*
G37*
G36*
X0369Y0275987D02*
X0367968Y0275851D01*
X0367007Y0275453D01*
X0366181Y0274819D01*
X0365547Y0273993D01*
X0365149Y0273032D01*
X0365013Y0272D01*
X0365149Y0270968D01*
X0365547Y0270007D01*
X0366181Y0269181D01*
X0367007Y0268547D01*
X0367968Y0268149D01*
X0369Y0268013D01*
X0370032Y0268149D01*
X0370993Y0268547D01*
X0371819Y0269181D01*
X0372453Y0270007D01*
X0372851Y0270968D01*
X0372987Y0272D01*
X0372851Y0273032D01*
X0372453Y0273993D01*
X0371819Y0274819D01*
X0370993Y0275453D01*
X0370032Y0275851D01*
X0369Y0275987D01*
D02*
G37*
G36*
X0359D02*
X0357968Y0275851D01*
X0357007Y0275453D01*
X0356181Y0274819D01*
X0355547Y0273993D01*
X0355149Y0273032D01*
X0355013Y0272D01*
X0355149Y0270968D01*
X0355547Y0270007D01*
X0356181Y0269181D01*
X0357007Y0268547D01*
X0357968Y0268149D01*
X0359Y0268013D01*
X0360032Y0268149D01*
X0360993Y0268547D01*
X0361819Y0269181D01*
X0362453Y0270007D01*
X0362851Y0270968D01*
X0362987Y0272D01*
X0362851Y0273032D01*
X0362453Y0273993D01*
X0361819Y0274819D01*
X0360993Y0275453D01*
X0360032Y0275851D01*
X0359Y0275987D01*
D02*
G37*
G36*
X0362953Y0261453D02*
X0355047D01*
Y0253547D01*
X0362953D01*
Y0261453D01*
D02*
G37*
G36*
X0405Y0220487D02*
X0403968Y0220351D01*
X0403007Y0219953D01*
X0402181Y0219319D01*
X0401547Y0218493D01*
X0401149Y0217532D01*
X0401013Y02165D01*
X0401149Y0215468D01*
X0401547Y0214507D01*
X0402181Y0213681D01*
X0403007Y0213047D01*
X0403968Y0212649D01*
X0405Y0212513D01*
X0406032Y0212649D01*
X0406993Y0213047D01*
X0407819Y0213681D01*
X0408453Y0214507D01*
X0408851Y0215468D01*
X0408987Y02165D01*
X0408851Y0217532D01*
X0408453Y0218493D01*
X0407819Y0219319D01*
X0406993Y0219953D01*
X0406032Y0220351D01*
X0405Y0220487D01*
D02*
G37*
G36*
X03855Y0210421D02*
Y0207D01*
X0388921D01*
X0388851Y0207532D01*
X0388453Y0208493D01*
X0387819Y0209319D01*
X0386993Y0209953D01*
X0386032Y0210351D01*
X03855Y0210421D01*
D02*
G37*
G36*
X0388921Y0206D02*
X03855D01*
Y0202579D01*
X0386032Y0202649D01*
X0386993Y0203047D01*
X0387819Y0203681D01*
X0388453Y0204507D01*
X0388851Y0205468D01*
X0388921Y0206D01*
D02*
G37*
G36*
X0405Y0210487D02*
X0403968Y0210351D01*
X0403007Y0209953D01*
X0402181Y0209319D01*
X0401547Y0208493D01*
X0401149Y0207532D01*
X0401013Y02065D01*
X0401149Y0205468D01*
X0401547Y0204507D01*
X0402181Y0203681D01*
X0403007Y0203047D01*
X0403968Y0202649D01*
X0405Y0202513D01*
X0406032Y0202649D01*
X0406993Y0203047D01*
X0407819Y0203681D01*
X0408453Y0204507D01*
X0408851Y0205468D01*
X0408987Y02065D01*
X0408851Y0207532D01*
X0408453Y0208493D01*
X0407819Y0209319D01*
X0406993Y0209953D01*
X0406032Y0210351D01*
X0405Y0210487D01*
D02*
G37*
G36*
X0607Y0236487D02*
X0605968Y0236351D01*
X0605007Y0235953D01*
X0604181Y0235319D01*
X0603547Y0234493D01*
X0603149Y0233532D01*
X0603013Y02325D01*
X0603149Y0231468D01*
X0603547Y0230507D01*
X0604181Y0229681D01*
X0605007Y0229047D01*
X0605968Y0228649D01*
X0607Y0228513D01*
X0608032Y0228649D01*
X0608993Y0229047D01*
X0609819Y0229681D01*
X0610453Y0230507D01*
X0610851Y0231468D01*
X0610987Y02325D01*
X0610851Y0233532D01*
X0610453Y0234493D01*
X0609819Y0235319D01*
X0608993Y0235953D01*
X0608032Y0236351D01*
X0607Y0236487D01*
D02*
G37*
G36*
X0637Y0226487D02*
X0635968Y0226351D01*
X0635007Y0225953D01*
X0634181Y0225319D01*
X0633547Y0224493D01*
X0633149Y0223532D01*
X0633013Y02225D01*
X0633149Y0221468D01*
X0633547Y0220507D01*
X0634181Y0219681D01*
X0635007Y0219047D01*
X0635968Y0218649D01*
X0637Y0218513D01*
X0638032Y0218649D01*
X0638993Y0219047D01*
X0639819Y0219681D01*
X0640453Y0220507D01*
X0640851Y0221468D01*
X0640987Y02225D01*
X0640851Y0223532D01*
X0640453Y0224493D01*
X0639819Y0225319D01*
X0638993Y0225953D01*
X0638032Y0226351D01*
X0637Y0226487D01*
D02*
G37*
G36*
X06255Y0201921D02*
X0624968Y0201851D01*
X0624007Y0201453D01*
X0623181Y0200819D01*
X0622547Y0199993D01*
X0622149Y0199032D01*
X0622079Y01985D01*
X06255D01*
Y0201921D01*
D02*
G37*
G36*
X0629921Y01975D02*
X06265D01*
Y0194079D01*
X0627032Y0194149D01*
X0627993Y0194547D01*
X0628819Y0195181D01*
X0629453Y0196007D01*
X0629851Y0196968D01*
X0629921Y01975D01*
D02*
G37*
G36*
X06255D02*
X0622079D01*
X0622149Y0196968D01*
X0622547Y0196007D01*
X0623181Y0195181D01*
X0624007Y0194547D01*
X0624968Y0194149D01*
X06255Y0194079D01*
Y01975D01*
D02*
G37*
G36*
X0616Y0201987D02*
X0614968Y0201851D01*
X0614007Y0201453D01*
X0613181Y0200819D01*
X0612547Y0199993D01*
X0612149Y0199032D01*
X0612013Y0198D01*
X0612149Y0196968D01*
X0612547Y0196007D01*
X0613181Y0195181D01*
X0614007Y0194547D01*
X0614968Y0194149D01*
X0616Y0194013D01*
X0617032Y0194149D01*
X0617993Y0194547D01*
X0618819Y0195181D01*
X0619453Y0196007D01*
X0619851Y0196968D01*
X0619987Y0198D01*
X0619851Y0199032D01*
X0619453Y0199993D01*
X0618819Y0200819D01*
X0617993Y0201453D01*
X0617032Y0201851D01*
X0616Y0201987D01*
D02*
G37*
G36*
X0567Y0236487D02*
X0565968Y0236351D01*
X0565007Y0235953D01*
X0564181Y0235319D01*
X0563547Y0234493D01*
X0563149Y0233532D01*
X0563013Y02325D01*
X0563149Y0231468D01*
X0563547Y0230507D01*
X0564181Y0229681D01*
X0565007Y0229047D01*
X0565968Y0228649D01*
X0567Y0228513D01*
X0568032Y0228649D01*
X0568993Y0229047D01*
X0569819Y0229681D01*
X0570453Y0230507D01*
X0570851Y0231468D01*
X0570987Y02325D01*
X0570851Y0233532D01*
X0570453Y0234493D01*
X0569819Y0235319D01*
X0568993Y0235953D01*
X0568032Y0236351D01*
X0567Y0236487D01*
D02*
G37*
G36*
X0537D02*
X0535968Y0236351D01*
X0535007Y0235953D01*
X0534181Y0235319D01*
X0533547Y0234493D01*
X0533149Y0233532D01*
X0533013Y02325D01*
X0533149Y0231468D01*
X0533547Y0230507D01*
X0534181Y0229681D01*
X0535007Y0229047D01*
X0535968Y0228649D01*
X0537Y0228513D01*
X0538032Y0228649D01*
X0538993Y0229047D01*
X0539819Y0229681D01*
X0540453Y0230507D01*
X0540851Y0231468D01*
X0540987Y02325D01*
X0540851Y0233532D01*
X0540453Y0234493D01*
X0539819Y0235319D01*
X0538993Y0235953D01*
X0538032Y0236351D01*
X0537Y0236487D01*
D02*
G37*
G36*
X0527D02*
X0525968Y0236351D01*
X0525007Y0235953D01*
X0524181Y0235319D01*
X0523547Y0234493D01*
X0523149Y0233532D01*
X0523013Y02325D01*
X0523149Y0231468D01*
X0523547Y0230507D01*
X0524181Y0229681D01*
X0525007Y0229047D01*
X0525968Y0228649D01*
X0527Y0228513D01*
X0528032Y0228649D01*
X0528993Y0229047D01*
X0529819Y0229681D01*
X0530453Y0230507D01*
X0530851Y0231468D01*
X0530987Y02325D01*
X0530851Y0233532D01*
X0530453Y0234493D01*
X0529819Y0235319D01*
X0528993Y0235953D01*
X0528032Y0236351D01*
X0527Y0236487D01*
D02*
G37*
G36*
X0517D02*
X0515968Y0236351D01*
X0515007Y0235953D01*
X0514181Y0235319D01*
X0513547Y0234493D01*
X0513149Y0233532D01*
X0513013Y02325D01*
X0513149Y0231468D01*
X0513547Y0230507D01*
X0514181Y0229681D01*
X0515007Y0229047D01*
X0515968Y0228649D01*
X0517Y0228513D01*
X0518032Y0228649D01*
X0518993Y0229047D01*
X0519819Y0229681D01*
X0520453Y0230507D01*
X0520851Y0231468D01*
X0520987Y02325D01*
X0520851Y0233532D01*
X0520453Y0234493D01*
X0519819Y0235319D01*
X0518993Y0235953D01*
X0518032Y0236351D01*
X0517Y0236487D01*
D02*
G37*
G36*
X0547Y0226487D02*
X0545968Y0226351D01*
X0545007Y0225953D01*
X0544181Y0225319D01*
X0543547Y0224493D01*
X0543149Y0223532D01*
X0543013Y02225D01*
X0543149Y0221468D01*
X0543547Y0220507D01*
X0544181Y0219681D01*
X0545007Y0219047D01*
X0545968Y0218649D01*
X0547Y0218513D01*
X0548032Y0218649D01*
X0548993Y0219047D01*
X0549819Y0219681D01*
X0550453Y0220507D01*
X0550851Y0221468D01*
X0550987Y02225D01*
X0550851Y0223532D01*
X0550453Y0224493D01*
X0549819Y0225319D01*
X0548993Y0225953D01*
X0548032Y0226351D01*
X0547Y0226487D01*
D02*
G37*
G36*
X0537D02*
X0535968Y0226351D01*
X0535007Y0225953D01*
X0534181Y0225319D01*
X0533547Y0224493D01*
X0533149Y0223532D01*
X0533013Y02225D01*
X0533149Y0221468D01*
X0533547Y0220507D01*
X0534181Y0219681D01*
X0535007Y0219047D01*
X0535968Y0218649D01*
X0537Y0218513D01*
X0538032Y0218649D01*
X0538993Y0219047D01*
X0539819Y0219681D01*
X0540453Y0220507D01*
X0540851Y0221468D01*
X0540987Y02225D01*
X0540851Y0223532D01*
X0540453Y0224493D01*
X0539819Y0225319D01*
X0538993Y0225953D01*
X0538032Y0226351D01*
X0537Y0226487D01*
D02*
G37*
G36*
X0527D02*
X0525968Y0226351D01*
X0525007Y0225953D01*
X0524181Y0225319D01*
X0523547Y0224493D01*
X0523149Y0223532D01*
X0523013Y02225D01*
X0523149Y0221468D01*
X0523547Y0220507D01*
X0524181Y0219681D01*
X0525007Y0219047D01*
X0525968Y0218649D01*
X0527Y0218513D01*
X0528032Y0218649D01*
X0528993Y0219047D01*
X0529819Y0219681D01*
X0530453Y0220507D01*
X0530851Y0221468D01*
X0530987Y02225D01*
X0530851Y0223532D01*
X0530453Y0224493D01*
X0529819Y0225319D01*
X0528993Y0225953D01*
X0528032Y0226351D01*
X0527Y0226487D01*
D02*
G37*
G36*
X0517D02*
X0515968Y0226351D01*
X0515007Y0225953D01*
X0514181Y0225319D01*
X0513547Y0224493D01*
X0513149Y0223532D01*
X0513013Y02225D01*
X0513149Y0221468D01*
X0513547Y0220507D01*
X0514181Y0219681D01*
X0515007Y0219047D01*
X0515968Y0218649D01*
X0517Y0218513D01*
X0518032Y0218649D01*
X0518993Y0219047D01*
X0519819Y0219681D01*
X0520453Y0220507D01*
X0520851Y0221468D01*
X0520987Y02225D01*
X0520851Y0223532D01*
X0520453Y0224493D01*
X0519819Y0225319D01*
X0518993Y0225953D01*
X0518032Y0226351D01*
X0517Y0226487D01*
D02*
G37*
G36*
X05135Y0211921D02*
Y02085D01*
X0516921D01*
X0516851Y0209032D01*
X0516453Y0209993D01*
X0515819Y0210819D01*
X0514993Y0211453D01*
X0514032Y0211851D01*
X05135Y0211921D01*
D02*
G37*
G36*
X05125D02*
X0511968Y0211851D01*
X0511007Y0211453D01*
X0510181Y0210819D01*
X0509547Y0209993D01*
X0509149Y0209032D01*
X0509079Y02085D01*
X05125D01*
Y0211921D01*
D02*
G37*
G36*
X04775Y0226421D02*
Y0223D01*
X0480921D01*
X0480851Y0223532D01*
X0480453Y0224493D01*
X0479819Y0225319D01*
X0478993Y0225953D01*
X0478032Y0226351D01*
X04775Y0226421D01*
D02*
G37*
G36*
X04865D02*
X0485968Y0226351D01*
X0485007Y0225953D01*
X0484181Y0225319D01*
X0483547Y0224493D01*
X0483149Y0223532D01*
X0483079Y0223D01*
X04865D01*
Y0226421D01*
D02*
G37*
G36*
X04765D02*
X0475968Y0226351D01*
X0475007Y0225953D01*
X0474181Y0225319D01*
X0473547Y0224493D01*
X0473149Y0223532D01*
X0473079Y0223D01*
X04765D01*
Y0226421D01*
D02*
G37*
G36*
X04865Y0222D02*
X0483079D01*
X0483149Y0221468D01*
X0483547Y0220507D01*
X0484181Y0219681D01*
X0485007Y0219047D01*
X0485968Y0218649D01*
X04865Y0218579D01*
Y0222D01*
D02*
G37*
G36*
X0445303Y0220487D02*
X0444271Y0220351D01*
X044331Y0219953D01*
X0442484Y0219319D01*
X044185Y0218493D01*
X0441452Y0217532D01*
X0441316Y02165D01*
X0441452Y0215468D01*
X044185Y0214507D01*
X0442484Y0213681D01*
X044331Y0213047D01*
X0444271Y0212649D01*
X0445303Y0212513D01*
X0446335Y0212649D01*
X0447297Y0213047D01*
X0448122Y0213681D01*
X0448756Y0214507D01*
X0449154Y0215468D01*
X044929Y02165D01*
X0449154Y0217532D01*
X0448756Y0218493D01*
X0448122Y0219319D01*
X0447297Y0219953D01*
X0446335Y0220351D01*
X0445303Y0220487D01*
D02*
G37*
G36*
X0480921Y0222D02*
X0477D01*
X0473079D01*
X0473149Y0221468D01*
X0473547Y0220507D01*
X0474181Y0219681D01*
X0475007Y0219047D01*
X0475471Y0218855D01*
Y0211645D01*
X0475007Y0211453D01*
X0474181Y0210819D01*
X0473547Y0209993D01*
X0473149Y0209032D01*
X0473079Y02085D01*
X0477D01*
X0480921D01*
X0480851Y0209032D01*
X0480453Y0209993D01*
X0479819Y0210819D01*
X0478993Y0211453D01*
X0478529Y0211645D01*
Y0218855D01*
X0478993Y0219047D01*
X0479819Y0219681D01*
X0480453Y0220507D01*
X0480851Y0221468D01*
X0480921Y0222D01*
D02*
G37*
G36*
X04775Y0199421D02*
Y0196D01*
X0480921D01*
X0480851Y0196532D01*
X0480453Y0197493D01*
X0479819Y0198319D01*
X0478993Y0198953D01*
X0478032Y0199351D01*
X04775Y0199421D01*
D02*
G37*
G36*
X04765D02*
X0475968Y0199351D01*
X0475007Y0198953D01*
X0474181Y0198319D01*
X0473547Y0197493D01*
X0473149Y0196532D01*
X0473079Y0196D01*
X04765D01*
Y0199421D01*
D02*
G37*
G36*
X0480921Y0195D02*
X04775D01*
Y0191579D01*
X0478032Y0191649D01*
X0478993Y0192047D01*
X0479819Y0192681D01*
X0480453Y0193507D01*
X0480851Y0194468D01*
X0480921Y0195D01*
D02*
G37*
G36*
X04765D02*
X0473079D01*
X0473149Y0194468D01*
X0473547Y0193507D01*
X0474181Y0192681D01*
X0475007Y0192047D01*
X0475968Y0191649D01*
X04765Y0191579D01*
Y0195D01*
D02*
G37*
G36*
X0467Y0199487D02*
X0465968Y0199351D01*
X0465007Y0198953D01*
X0464181Y0198319D01*
X0463547Y0197493D01*
X0463149Y0196532D01*
X0463013Y01955D01*
X0463149Y0194468D01*
X0463547Y0193507D01*
X0464181Y0192681D01*
X0465007Y0192047D01*
X0465968Y0191649D01*
X0467Y0191513D01*
X0468032Y0191649D01*
X0468993Y0192047D01*
X0469819Y0192681D01*
X0470453Y0193507D01*
X0470851Y0194468D01*
X0470987Y01955D01*
X0470851Y0196532D01*
X0470453Y0197493D01*
X0469819Y0198319D01*
X0468993Y0198953D01*
X0468032Y0199351D01*
X0467Y0199487D01*
D02*
G37*
G36*
X0346921Y0216D02*
X03435D01*
Y0212579D01*
X0344032Y0212649D01*
X0344993Y0213047D01*
X0345819Y0213681D01*
X0346453Y0214507D01*
X0346851Y0215468D01*
X0346921Y0216D01*
D02*
G37*
G36*
X03425D02*
X0339079D01*
X0339149Y0215468D01*
X0339547Y0214507D01*
X0340181Y0213681D01*
X0341007Y0213047D01*
X0341968Y0212649D01*
X03425Y0212579D01*
Y0216D01*
D02*
G37*
G36*
X03435Y0210421D02*
Y0207D01*
X0346921D01*
X0346851Y0207532D01*
X0346453Y0208493D01*
X0345819Y0209319D01*
X0344993Y0209953D01*
X0344032Y0210351D01*
X03435Y0210421D01*
D02*
G37*
G36*
X03425D02*
X0341968Y0210351D01*
X0341007Y0209953D01*
X0340181Y0209319D01*
X0339547Y0208493D01*
X0339149Y0207532D01*
X0339079Y0207D01*
X03425D01*
Y0210421D01*
D02*
G37*
G36*
X0346921Y0206D02*
X03435D01*
Y0202579D01*
X0344032Y0202649D01*
X0344993Y0203047D01*
X0345819Y0203681D01*
X0346453Y0204507D01*
X0346851Y0205468D01*
X0346921Y0206D01*
D02*
G37*
G36*
X03425D02*
X0339079D01*
X0339149Y0205468D01*
X0339547Y0204507D01*
X0340181Y0203681D01*
X0341007Y0203047D01*
X0341968Y0202649D01*
X03425Y0202579D01*
Y0206D01*
D02*
G37*
G36*
X0353Y0210487D02*
X0351968Y0210351D01*
X0351007Y0209953D01*
X0350181Y0209319D01*
X0349547Y0208493D01*
X0349149Y0207532D01*
X0349013Y02065D01*
X0349149Y0205468D01*
X0349547Y0204507D01*
X0350181Y0203681D01*
X0351007Y0203047D01*
X0351968Y0202649D01*
X0353Y0202513D01*
X0354032Y0202649D01*
X0354993Y0203047D01*
X0355819Y0203681D01*
X0356453Y0204507D01*
X0356851Y0205468D01*
X0356987Y02065D01*
X0356851Y0207532D01*
X0356453Y0208493D01*
X0355819Y0209319D01*
X0354993Y0209953D01*
X0354032Y0210351D01*
X0353Y0210487D01*
D02*
G37*
G36*
X0333D02*
X0331968Y0210351D01*
X0331007Y0209953D01*
X0330181Y0209319D01*
X0329547Y0208493D01*
X0329149Y0207532D01*
X0329013Y02065D01*
X0329149Y0205468D01*
X0329547Y0204507D01*
X0330181Y0203681D01*
X0331007Y0203047D01*
X0331968Y0202649D01*
X0333Y0202513D01*
X0334032Y0202649D01*
X0334993Y0203047D01*
X0335819Y0203681D01*
X0336453Y0204507D01*
X0336851Y0205468D01*
X0336987Y02065D01*
X0336851Y0207532D01*
X0336453Y0208493D01*
X0335819Y0209319D01*
X0334993Y0209953D01*
X0334032Y0210351D01*
X0333Y0210487D01*
D02*
G37*
G36*
X0424803Y0210421D02*
X0424271Y0210351D01*
X042331Y0209953D01*
X0422484Y0209319D01*
X042185Y0208493D01*
X0421452Y0207532D01*
X0421382Y0207D01*
X0424803D01*
Y0210421D01*
D02*
G37*
G36*
Y0206D02*
X0421382D01*
X0421452Y0205468D01*
X042185Y0204507D01*
X0422484Y0203681D01*
X042331Y0203047D01*
X0424271Y0202649D01*
X0424803Y0202579D01*
Y0206D01*
D02*
G37*
%LPD*%
D10*
X0670367Y0355414D02*
X0669635Y035609D01*
X066877Y0356586D01*
X0667817Y0356877D01*
X0666823Y0356949D01*
X0665838Y0356798D01*
X0664911Y0356432D01*
X0664088Y0355869D01*
X0663412Y0355137D01*
X0662915Y0354273D01*
X0404324Y0390599D02*
X0405303Y0390558D01*
X0406268Y0390732D01*
X0407171Y0391112D01*
X0407969Y0391682D01*
X0408624Y0392412D01*
X0409102Y0393268D01*
X0409382Y0394207D01*
X0409449Y0395185D01*
X0409301Y0396154D01*
X0408944Y0397068D01*
X0408396Y0397881D01*
X0404324Y0390599D02*
X0404084Y0390605D01*
X0408153Y0398536D02*
X0408396Y0397881D01*
X0400347Y0395293D02*
X0400347Y0395293D01*
X0403087Y0399021D02*
X0402144Y0398416D01*
X0401382Y0397596D01*
X0400849Y0396611D01*
X0400578Y0395524D01*
X0403087Y0399021D02*
X0403186Y0399076D01*
X0404465Y0399653D02*
X0403186Y0399076D01*
X0407114Y0401081D02*
X0407921Y040164D01*
X0408587Y0402362D01*
X0409078Y0403212D01*
X0409371Y040415D01*
X0409451Y0405129D01*
X0409451Y0405155D02*
Y0405155D01*
X0408592Y039964D02*
X0408152Y03988D01*
X0408153Y0398536D02*
X0408152Y03988D01*
X0408592Y039964D02*
X0409435Y0400313D01*
X0410154Y0401118D01*
X0410729Y0402031D01*
X0411144Y0403027D01*
X0411387Y0404078D01*
X0411451Y0405155D01*
X0403439Y0390547D02*
X0403534Y0390552D01*
X0391159Y0397253D02*
X0390742Y0396303D01*
X0390556Y0395283D01*
X0390611Y0394247D01*
X0390905Y0393252D01*
X039142Y0392352D01*
X039213Y0391596D01*
X0392996Y0391024D01*
X039397Y0390668D01*
X0395Y0390547D01*
X0394189Y0399378D02*
X0393276Y0399106D01*
X0392443Y0398645D01*
X0391726Y0398018D01*
X0391159Y0397253D01*
X0394189Y0399378D02*
X0394814Y0399779D01*
X0653503Y0255256D02*
X0652979Y0254412D01*
X0652655Y0253473D01*
X0652547Y0252486D01*
X0652661Y0251499D01*
X0652991Y0250563D01*
X065352Y0249722D01*
X0654222Y024902D01*
X0655063Y0248491D01*
X0655999Y0248161D01*
X0656986Y0248047D01*
X0657973Y0248155D01*
X0658912Y0248479D01*
X0659756Y0249003D01*
X0653503Y0255583D02*
Y0255583D01*
X0660083Y0229003D02*
X0660083D01*
X0652659Y0233491D02*
X0652547Y0232503D01*
X0652658Y0231514D01*
X0652985Y0230575D01*
X0653513Y0229731D01*
X0654214Y0229026D01*
X0655055Y0228495D01*
X0655993Y0228163D01*
X0656981Y0228047D01*
X065797Y0228154D01*
X0658911Y0228478D01*
X0659756Y0229003D01*
X0652659Y0233598D02*
Y0233598D01*
X0660083Y0239003D02*
X0660083D01*
X0653503Y0245583D02*
Y0245583D01*
X0653503Y0245256D02*
X0652979Y0244412D01*
X0652655Y0243473D01*
X0652547Y0242486D01*
X0652661Y0241499D01*
X0652991Y0240563D01*
X065352Y0239722D01*
X0654222Y023902D01*
X0655063Y0238491D01*
X0656Y0238161D01*
X0656986Y0238047D01*
X0657973Y0238155D01*
X0658912Y0238479D01*
X0659756Y0239003D01*
X0660083Y0249003D02*
X0660083D01*
X0661083Y0354276D02*
X0660576Y0355153D01*
X0659884Y0355893D01*
X0659042Y0356457D01*
X0658095Y0356816D01*
X0657091Y0356952D01*
X0656082Y0356857D01*
X0655121Y0356537D01*
X0654257Y0356008D01*
X0653536Y0355297D01*
X0652993Y0354442D01*
X0652658Y0353486D01*
X0670391Y035539D02*
X0670391Y035539D01*
X0661083Y0354276D02*
X0661998Y0353675D01*
X0662915Y0354273D01*
X0671098Y0355097D02*
X0671098D01*
X0671805Y035539D02*
X0671805Y035539D01*
X0652465Y0353293D02*
X0652465Y0353293D01*
X03765Y0216D02*
Y0220953D01*
Y0220953D02*
Y0248703D01*
X0331156Y0220953D02*
X03765D01*
X03765Y0220953D01*
X0325265Y0222765D02*
X0326898D01*
X0327086Y0222953D01*
X0373718D01*
X03245Y0222D02*
X0325265Y0222765D01*
X0374304Y0223538D02*
Y0266804D01*
X0373718Y0222953D02*
X0374304Y0223538D01*
X0328703Y02185D02*
X0331156Y0220953D01*
X03245Y0215D02*
X0328Y02185D01*
X0328703D01*
X041185Y0405634D02*
X0453938Y044D01*
X0668865D01*
X0487333Y0312167D02*
X0532214D01*
X0552547Y0359953D02*
Y0378047D01*
X0532214Y0312167D02*
X0532547Y0311834D01*
X0552547Y0359953D02*
X0556Y03565D01*
X0565156Y0368047D02*
X0578796D01*
X0592547Y0359953D02*
X0593Y03595D01*
X0652172Y0353D02*
X0652465Y0353293D01*
X0593Y0359D02*
X06045Y03475D01*
X0621Y03595D02*
X06215Y036D01*
X0661083Y0354276D02*
X0661083Y0354276D01*
X0602Y03595D02*
X06025D01*
X0609Y0353D02*
X0652172D01*
X06215Y036D02*
Y0366953D01*
X0592547Y0359953D02*
Y038325D01*
X0593Y0359D02*
Y03595D01*
X0578796Y0368047D02*
X06505Y0296343D01*
X06045Y03475D02*
X0662D01*
X06505Y0274468D02*
Y0296343D01*
X06025Y03595D02*
X0609Y0353D01*
X0637628Y0215925D02*
X0646075D01*
X0630547Y0208844D02*
X0637628Y0215925D01*
X0646075D02*
X06465Y02155D01*
X0630547Y0202547D02*
Y0208844D01*
X0626Y0198D02*
X0630547Y0202547D01*
X0672414Y03325D02*
X0674Y0330914D01*
Y0288343D02*
Y0330914D01*
X0673Y0287343D02*
X0674Y0288343D01*
X0673Y02755D02*
Y0287343D01*
X0703Y039738D02*
X0703162Y0397218D01*
X0703Y039738D02*
Y0397797D01*
X06935Y0407297D02*
X0703Y0397797D01*
X06925Y0413537D02*
X0707162Y0398875D01*
X0674695Y0436998D02*
X0711162Y0400532D01*
X0668865Y044D02*
X0707261Y0401604D01*
X0669694Y0442D02*
X0674695Y0436998D01*
X0711162Y0225348D02*
Y0400532D01*
X0707162Y0227005D02*
Y0398875D01*
X0452525Y0442D02*
X0669694D01*
X0709162Y0226177D02*
Y0399704D01*
X0707261Y0401604D02*
X0709162Y0399704D01*
X0688463Y0413537D02*
X06925D01*
X0690203Y0407297D02*
X06935D01*
X06895Y0408D02*
X0690203Y0407297D01*
X0527265Y0429265D02*
X0528851D01*
X0529086Y04295D02*
X065D01*
X05265Y04285D02*
X0527265Y0429265D01*
X0528851D02*
X0529086Y04295D01*
X0542Y0426914D02*
X0542586Y04275D01*
X0542Y04085D02*
Y0426914D01*
X0542586Y04275D02*
X0646157D01*
X0666Y0407657D01*
X065Y04295D02*
X0678547Y0400953D01*
X0627117Y03555D02*
X0634117Y03625D01*
X06125Y03595D02*
X06165Y03555D01*
X0627117D01*
X06125Y03595D02*
Y0383297D01*
X0602Y03595D02*
Y0383797D01*
X05895Y0386297D02*
X0592547Y038325D01*
X0435303Y0192368D02*
Y02065D01*
Y02165D02*
X044Y0211803D01*
Y01905D02*
X0445953Y0184547D01*
X044Y01905D02*
Y0211803D01*
X0435303Y0192368D02*
X0445124Y0182547D01*
X0682547D01*
X0445953Y0184547D02*
X0676615D01*
X0672361Y0186547D02*
X0711162Y0225348D01*
X07025Y0376873D02*
X0703162Y0377535D01*
X0692076Y0376873D02*
X07025D01*
X0670704Y0190547D02*
X0707162Y0227005D01*
X0671532Y0188547D02*
X0709162Y0226177D01*
X06505Y0274468D02*
X0650774Y0274194D01*
X0557Y03725D02*
X0646774Y0282726D01*
Y02685D02*
Y0282726D01*
X0606Y0249D02*
X0637672D01*
X0637Y02625D02*
X065321Y024629D01*
X06265Y02625D02*
X0637D01*
X0582047Y0306953D02*
X06265Y02625D01*
X0566953Y0288047D02*
X0606Y0249D01*
X0573547Y0296953D02*
X06185Y0252D01*
X06375D01*
X0475547Y0306953D02*
X0582047D01*
X0637672Y0249D02*
X0652659Y0234013D01*
X06375Y0252D02*
X0657Y02325D01*
X0652Y04325D02*
X0683Y04015D01*
X0518Y04325D02*
X0652D01*
X0507Y0436D02*
X0654797D01*
X0687453Y0403344D01*
X0507Y0387539D02*
Y0436D01*
X0449444Y0438919D02*
X0452525Y0442D01*
X051725Y038275D02*
Y043175D01*
X0518Y04325D01*
X0447102Y0437D02*
X044937Y0438852D01*
X0517Y03825D02*
X051725Y038275D01*
X044937Y0438852D02*
X0449444Y0438919D01*
X05265Y04285D02*
X052675Y042825D01*
Y038275D02*
Y042825D01*
Y038275D02*
X0527Y03825D01*
X0667805Y0217007D02*
X0671453Y0220656D01*
X0667805Y0197547D02*
Y0217007D01*
X0674629Y0204371D02*
Y0251168D01*
X0668844Y0256953D02*
X0674629Y0251168D01*
X0671453Y0220656D02*
Y0244344D01*
X0667844Y0247953D02*
X0671453Y0244344D01*
X0636Y019746D02*
Y0198D01*
X0610624Y0186547D02*
X0672361D01*
X0636Y019746D02*
X0642913Y0190547D01*
X0611453Y0188547D02*
X0671532D01*
X0642913Y0190547D02*
X0670704D01*
X0682547Y0182547D02*
X0694422Y0194422D01*
X0606047Y0191124D02*
X0610624Y0186547D01*
X0608047Y0191953D02*
X0611453Y0188547D01*
X0676615Y0184547D02*
X0689025Y0196957D01*
X0474953Y0288047D02*
X0566953D01*
X0475547Y0296953D02*
X0573547D01*
X0459Y02405D02*
Y02415D01*
Y02405D02*
X04625Y0237D01*
X0498547Y0236953D02*
X0498844D01*
X04625Y0237D02*
X04985D01*
X0498547Y0236953D01*
X0459562Y02495D02*
X046211Y0246953D01*
X0459Y02495D02*
X0459562D01*
X0507Y02325D02*
Y02325D01*
X0492547Y0246953D02*
X0507Y02325D01*
X046211Y0246953D02*
X0492547D01*
X0459Y02585D02*
X0459453Y0258047D01*
X0518591Y0260495D02*
X0531005D01*
X0552Y02395D01*
X0459453Y0258047D02*
X0521453D01*
X0547Y02325D01*
X0518Y0261086D02*
X0518591Y0260495D01*
X0518Y0261086D02*
Y0266414D01*
X0516914Y02675D02*
X0518Y0266414D01*
X0459Y02675D02*
X0516914D01*
X0694422Y0196922D02*
X0695Y01975D01*
X0694422Y0194422D02*
Y0196922D01*
X0697261Y0385453D02*
X0702047D01*
X07025Y0385D01*
X064839Y0386953D02*
X0648422Y0386922D01*
X0650078Y0390922D02*
Y0391078D01*
X0637Y03825D02*
X0641453Y0386953D01*
X0650078Y0391078D02*
X0657054Y0398054D01*
X0668844Y0386953D02*
X067875Y0377047D01*
X0655124Y0386922D02*
X0655156Y0386953D01*
X0641453D02*
X064839D01*
X0648422Y0386922D02*
X0655124D01*
X0655156Y0386953D02*
X0668844D01*
X0657054Y0398054D02*
X0659711D01*
X0350547Y0334156D02*
Y0368058D01*
X034557Y0373035D02*
X0350547Y0368058D01*
X03455Y0367D02*
X03485Y0364D01*
X0354547Y0350453D02*
Y0376069D01*
X03455Y0379035D02*
X0352547Y0371987D01*
X0345582Y0385034D02*
X0354547Y0376069D01*
X0457Y03375D02*
X0467505Y0326995D01*
Y0325698D02*
Y0326995D01*
X0453Y0335343D02*
X0457343Y0331D01*
X0459657D02*
X0465376Y0325281D01*
X0453Y0335343D02*
Y0344686D01*
X0457343Y0331D02*
X0459657D01*
X0453Y0344686D02*
X0459Y0350686D01*
X0456918Y0327D02*
X0458D01*
X0467156Y0317844D01*
X0465376Y0324124D02*
Y0325281D01*
X0467156Y0315344D02*
X0475547Y0306953D01*
X0467156Y0315344D02*
Y0317844D01*
X0465376Y0324124D02*
X0477Y03125D01*
X0467505Y0325698D02*
X0476203Y0317D01*
X0591153D01*
X0466656Y0305844D02*
X0475547Y0296953D01*
X0457Y0317D02*
X0466656Y0307344D01*
Y0305844D02*
Y0307344D01*
X0457Y0306D02*
X0474953Y0288047D01*
X0457Y0306D02*
Y0307D01*
X03765Y0248703D02*
X0384547Y025675D01*
X0374304Y0266804D02*
X0409Y03015D01*
X0588703Y02405D02*
X0594293D01*
X0594646Y0240146D01*
X03205Y0213343D02*
X03225Y0211343D01*
X03185Y0201D02*
X03225Y0205D01*
Y0211343D01*
X03185Y0208D02*
Y0415914D01*
X0409Y03385D02*
X041825Y034775D01*
X0409Y03015D02*
Y03385D01*
X04165Y0299D02*
Y03355D01*
X0384547Y0267047D02*
X04165Y0299D01*
Y03355D02*
X042875Y034775D01*
X0449672Y0347672D02*
X0450328D01*
X04305Y02945D02*
Y03285D01*
X0449672Y0347672D01*
X04235Y0297D02*
Y0331D01*
X044025Y034775D01*
X04045Y02685D02*
X04305Y02945D01*
X0394547Y0268047D02*
X04235Y0297D01*
X03965Y02485D02*
X04045Y02565D01*
X03965Y0219327D02*
Y02485D01*
X04045Y02565D02*
Y02685D01*
X0395Y02165D02*
Y0217827D01*
X03965Y0219327D01*
X0394547Y0256547D02*
Y0268047D01*
X03865Y02485D02*
X0394547Y0256547D01*
X03865Y0221297D02*
Y02485D01*
X0389063Y0213437D02*
X0395Y02075D01*
X03865Y0221297D02*
X0389453Y0218344D01*
Y0214656D02*
Y0218344D01*
X0389063Y0213437D02*
Y0214266D01*
X0389453Y0214656D01*
X0592547Y0226953D02*
X0598844D01*
X0601453Y0220876D02*
Y0224344D01*
X0598844Y0226953D02*
X0601453Y0224344D01*
Y0220876D02*
X0608047Y0214281D01*
X0587Y02325D02*
X0592547Y0226953D01*
X0608047Y0191953D02*
Y0214281D01*
X0585703Y02275D02*
X0588297D01*
X0591453Y0224344D01*
Y0204086D02*
Y0224344D01*
X0582547Y0230656D02*
X0585703Y02275D01*
X0457586Y02035D02*
X0590867D01*
X0591453Y0204086D01*
X0457Y01955D02*
Y0202914D01*
X04985Y01995D02*
X0599D01*
X0457Y0202914D02*
X0457586Y02035D01*
X052825Y019075D02*
X058225D01*
X0583Y019D01*
X05275D02*
X052825Y019075D01*
X0599Y01995D02*
X05995Y02D01*
X0504Y0195D02*
X05925D01*
X0593Y01955D01*
X0606047Y0191124D02*
Y0213453D01*
X0411779Y0405576D02*
X0411784Y040558D01*
X041185Y0405634D01*
X0404324Y0390599D02*
X0404324Y0390599D01*
X0411451Y0405247D02*
X0411779Y0405576D01*
X0688Y0414D02*
X0688463Y0413537D01*
X0411066Y0407611D02*
X0447102Y0437D01*
X04255Y0396D02*
X0430047Y0400547D01*
X04255Y0395D02*
Y0396D01*
X0430047Y0400547D02*
X0474047D01*
X0400054Y0395D02*
X0400347Y0395293D01*
X0395Y0395D02*
X0400054D01*
X0404465Y0399653D02*
X0404556Y0399702D01*
X0400347Y0395293D02*
X0400578Y0395524D01*
X0404556Y0399702D02*
X0407114Y0401081D01*
X0408153Y0398536D02*
X0408153Y0398536D01*
X0410448Y0407071D02*
X0411066Y0407611D01*
X0409451Y0405155D02*
X0409451Y0405129D01*
X0411451Y0405155D02*
Y0405247D01*
X0404084Y0390605D02*
Y0390605D01*
X0409451Y0405155D02*
X0409451Y0406076D01*
X0410437Y0407062D02*
X0410448Y0407071D01*
X0409451Y0406076D02*
X0410437Y0407062D01*
X0408592Y039964D02*
Y039964D01*
X0403534Y0390552D02*
X0404084Y0390605D01*
X0395Y0390547D02*
X0403439D01*
X0377Y0386D02*
X0377547Y0386547D01*
X038111Y0388547D02*
X0480953D01*
X0377547Y0386547D02*
X0462953D01*
X0477Y03725D01*
X0480953Y0388547D02*
X0487Y03825D01*
X0377157Y03925D02*
X038111Y0388547D01*
X0395Y0400038D02*
Y0405D01*
X0394814Y0399779D02*
X0395Y0400038D01*
X037382Y0386765D02*
X0376235D01*
X0372Y0388586D02*
X037382Y0386765D01*
X0376235D02*
X0377Y0386D01*
Y03925D02*
Y0415914D01*
Y03925D02*
X0377157D01*
X0376414Y04165D02*
X0377Y0415914D01*
X0372Y0388586D02*
Y0413914D01*
X0591458Y0317D02*
X0594636Y0314864D01*
X0591153Y0317D02*
X0591458Y0317D01*
X0474047Y0400547D02*
X0482Y04085D01*
X03185Y0415914D02*
X0319086Y04165D01*
X03205Y0413914D02*
X0321086Y04145D01*
X03205Y0213343D02*
Y0413914D01*
X0321086Y04145D02*
X0371414D01*
X0319086Y04165D02*
X0376414D01*
X0395Y02065D02*
Y02075D01*
X0477Y0208D02*
Y02225D01*
X0506351Y0223149D02*
Y0226149D01*
X0502Y02305D02*
X0506351Y0226149D01*
Y0223149D02*
X0507Y02225D01*
X0502Y02305D02*
Y0233797D01*
X0498844Y0236953D02*
X0502Y0233797D01*
X0552Y02275D02*
Y02395D01*
X0582547Y0234344D02*
X0588703Y02405D01*
X0582547Y0230656D02*
Y0234344D01*
X0487Y03125D02*
X0487333Y0312167D01*
X0552547Y0378047D02*
X0557Y03825D01*
X0659711Y0398054D02*
X0666Y0404343D01*
X06215Y0366953D02*
X06215Y0366953D01*
X0668844Y0376953D02*
X067875Y0367047D01*
X0631453Y0376953D02*
X0668844D01*
X0628399Y0385226D02*
Y0385399D01*
X0649Y0406D02*
X0662D01*
X06215Y0366953D02*
X0662547D01*
X0667Y03625D01*
X0666Y0404343D02*
Y0407657D01*
X0627Y0383827D02*
X0628399Y0385226D01*
Y0385399D02*
X0649Y0406D01*
X0627Y03825D02*
Y0383827D01*
Y03725D02*
X0631453Y0376953D01*
X0678547Y0389656D02*
Y0400953D01*
X0689203Y0389D02*
X0691703Y03915D01*
X0693D01*
X0686797Y0389D02*
X0689203D01*
X0681156Y0387047D02*
X0684844D01*
X0678547Y0389656D02*
X0681156Y0387047D01*
X0684844D02*
X0686797Y0389D01*
X0687453Y0395953D02*
Y0403344D01*
X0691156Y0385953D02*
X0696761D01*
X0697261Y0385453D01*
X0508844Y0386953D02*
X0511453Y0384344D01*
X0507Y0387539D02*
X0507586Y0386953D01*
X0511453Y0380656D02*
Y0384344D01*
X0507586Y0386953D02*
X0508844D01*
Y0378047D02*
X0511453Y0380656D01*
X0507586Y0378047D02*
X0508844D01*
X0507Y03725D02*
Y0377462D01*
X0507586Y0378047D01*
X0688Y0382797D02*
X0691156Y0385953D01*
X0688077Y0372874D02*
X0692076Y0376873D01*
X0688077Y037028D02*
Y0372874D01*
X0684844Y0377047D02*
X0688Y0380203D01*
X0684844Y0367047D02*
X0688077Y037028D01*
X067875Y0367047D02*
X0684844D01*
X0688Y0380203D02*
Y0382797D01*
X067875Y0377047D02*
X0684844D01*
X0683Y03915D02*
X0687453Y0395953D01*
X04685Y03675D02*
X0512D01*
X0517Y03725D01*
X0597Y02225D02*
X0606047Y0213453D01*
X066525Y0247953D02*
X0667844D01*
X0661453Y025175D02*
X066525Y0247953D01*
X065775Y025175D02*
X0661453D01*
X0657Y02525D02*
X065775Y025175D01*
X0662547Y0256953D02*
X0668844D01*
X0657Y02625D02*
X0662547Y0256953D01*
X0586414Y0212797D02*
X0587Y0213383D01*
X05415Y0212797D02*
X0586414D01*
X0587Y0213383D02*
Y02225D01*
X0371414Y04145D02*
X0372Y0413914D01*
X05335Y0214797D02*
X0570867D01*
X0571453Y0215383D01*
Y0226953D01*
X0577Y02325D01*
X0537453Y020875D02*
X05415Y0212797D01*
X0527453Y020875D02*
X05335Y0214797D01*
X053375Y020875D02*
X0537453D01*
X0533Y0208D02*
X053375Y020875D01*
X052375D02*
X0527453D01*
X0523Y0208D02*
X052375Y020875D01*
X0562547Y0370656D02*
Y0378047D01*
Y0370656D02*
X0565156Y0368047D01*
X0594705Y0314795D02*
X065321Y025629D01*
X0594636Y0314864D02*
X0594705Y0314795D01*
X0653503Y0255583D02*
Y0255997D01*
Y0255256D02*
Y0255583D01*
X065321Y025629D02*
X0653503Y0255997D01*
X0562547Y0378047D02*
X0567Y03825D01*
X0667Y03325D02*
X0672414D01*
X065725Y0298341D02*
X06575Y0298091D01*
X0657Y03325D02*
X065725Y033225D01*
Y0298341D02*
Y033225D01*
X0445Y03735D02*
X0459Y03595D01*
Y0350686D02*
Y03595D01*
X0451843Y0382157D02*
X0452343Y0381657D01*
X0445Y03735D02*
Y0382D01*
X0452343Y0378D02*
X0467843Y03625D01*
X0477D01*
X0452343Y0378D02*
Y0381657D01*
X0662456Y0227044D02*
X0667Y02225D01*
X0660497Y0229003D02*
X0662456Y0227044D01*
X0660083Y0229003D02*
X0660497D01*
X0652659Y0233598D02*
Y0234013D01*
X0659756Y0229003D02*
X0660083D01*
X0652659Y0233491D02*
Y0233598D01*
X0659756Y0239003D02*
X0660083D01*
X0653503Y0245256D02*
Y0245583D01*
X0660497Y0239003D02*
X066079Y023871D01*
X065321Y024629D02*
X0653503Y0245997D01*
Y0245583D02*
Y0245997D01*
X0660083Y0239003D02*
X0660497D01*
X0659756Y0249003D02*
X0660083D01*
X0660083D02*
X0660497D01*
X066079Y024871D01*
X0667Y02425D01*
X066079Y023871D02*
X0667Y02325D01*
X0512Y03575D02*
X0527Y03725D01*
X04685Y03575D02*
X0512D01*
X0384547Y025675D02*
Y0267047D01*
X0357703Y0317D02*
X039D01*
X04Y0307D01*
X0390047Y0346453D02*
X04Y03365D01*
X0358547Y0346453D02*
X0390047D01*
X0352547Y0342156D02*
X035825Y0336453D01*
X0390547D01*
X04Y0327D01*
X035825Y0326453D02*
X0391047D01*
X04Y03175D01*
X0350547Y0334156D02*
X035825Y0326453D01*
X0352828Y0321875D02*
X0357703Y0317D01*
X03485Y0326617D02*
X0352828Y0322289D01*
Y0321875D02*
Y0322289D01*
X03485Y0326617D02*
Y0364D01*
X0354547Y0350453D02*
X0358547Y0346453D01*
X0352547Y0342156D02*
Y0371987D01*
X0670684Y0355097D02*
X0671098Y0355097D01*
X0671098D02*
X0671513Y0355097D01*
X0671805Y035539D01*
X0670367Y0355414D02*
X0670391Y035539D01*
X0670391Y035539D02*
X0670684Y0355097D01*
X0667Y03725D02*
X0672098Y0367402D01*
Y0355682D02*
Y0367402D01*
X0671805Y035539D02*
X0672098Y0355682D01*
X06215Y0366953D02*
Y0384297D01*
X0634117Y03625D02*
X0657D01*
X0652465Y0353293D02*
X0652658Y0353486D01*
X0662Y03475D02*
X0667Y03525D01*
X06095Y0386297D02*
X06125Y0383297D01*
X06095Y0386297D02*
Y0401D01*
X06195Y0386297D02*
X06215Y0384297D01*
X06195Y0386297D02*
Y0401D01*
X05995Y0386297D02*
X0602Y0383797D01*
X05995Y0386297D02*
Y0401D01*
X05895Y0386297D02*
Y0401D01*
X0552Y02275D02*
X0557Y02225D01*
X0718Y0409771D02*
X0717987Y0410775D01*
X0717946Y0411779D01*
X071788Y0412781D01*
X0717786Y0413781D01*
X0717666Y0414779D01*
X071752Y0415772D01*
X0717347Y0416762D01*
X0717147Y0417746D01*
X0716922Y0418725D01*
X0716671Y0419698D01*
X0716394Y0420663D01*
X0716091Y0421621D01*
X0715763Y042257D01*
X0715409Y042351D01*
X0715031Y0424441D01*
X0714628Y0425361D01*
X0714201Y042627D01*
X071375Y0427168D01*
X0713275Y0428053D01*
X0712777Y0428925D01*
X0712255Y0429783D01*
X0711711Y0430628D01*
X0711145Y0431457D01*
X0710557Y0432271D01*
X0709947Y043307D01*
X0709316Y0433851D01*
X0708665Y0434616D01*
X0707993Y0435363D01*
X0707302Y0436092D01*
X0706592Y0436802D01*
X0705863Y0437493D01*
X0705116Y0438165D01*
X0704351Y0438816D01*
X070357Y0439447D01*
X0702771Y0440057D01*
X0701957Y0440645D01*
X0701128Y0441211D01*
X0700283Y0441755D01*
X0699425Y0442277D01*
X0698553Y0442775D01*
X0697668Y044325D01*
X069677Y0443701D01*
X0695861Y0444128D01*
X0694941Y0444531D01*
X069401Y0444909D01*
X069307Y0445263D01*
X0692121Y0445591D01*
X0691163Y0445894D01*
X0690198Y0446171D01*
X0689225Y0446422D01*
X0688246Y0446647D01*
X0687262Y0446847D01*
X0686272Y044702D01*
X0685279Y0447166D01*
X0684281Y0447286D01*
X0683281Y044738D01*
X0682279Y0447446D01*
X0681275Y0447487D01*
X0680271Y04475D01*
X01365Y0447488D02*
X0135491Y0447468D01*
X0134484Y044742D01*
X0133478Y0447345D01*
X0132475Y0447243D01*
X0131475Y0447114D01*
X0130479Y0446957D01*
X0129487Y0446774D01*
X0128501Y0446564D01*
X0127521Y0446327D01*
X0126547Y0446064D01*
X0125581Y0445775D01*
X0124624Y0445459D01*
X0123675Y0445118D01*
X0122735Y0444751D01*
X0121806Y0444359D01*
X0120888Y0443942D01*
X0119982Y04435D01*
X0119088Y0443034D01*
X0118206Y0442544D01*
X0117339Y044203D01*
X0116486Y0441492D01*
X0115647Y0440932D01*
X0114824Y0440349D01*
X0114017Y0439745D01*
X0113227Y0439118D01*
X0112454Y0438471D01*
X0111699Y0437803D01*
X0110962Y0437114D01*
X0110244Y0436406D01*
X0109546Y0435678D01*
X0108867Y0434933D01*
X0108209Y0434168D01*
X0107572Y0433387D01*
X0106956Y0432588D01*
X0106362Y0431773D01*
X0105791Y0430942D01*
X0105242Y0430096D01*
X0104716Y0429236D01*
X0104214Y0428362D01*
X0103735Y0427474D01*
X0103281Y0426574D01*
X0102851Y0425661D01*
X0102447Y0424738D01*
X0102067Y0423803D01*
X0101713Y0422859D01*
X0101384Y0421906D01*
X0101082Y0420944D01*
X0100805Y0419974D01*
X0100555Y0418997D01*
X0100332Y0418014D01*
X0100135Y0417025D01*
X0099965Y0416031D01*
X0099822Y0415033D01*
X0099706Y0414031D01*
X0099617Y0413027D01*
X0099556Y041202D01*
X0099522Y0411012D01*
X0099515Y0410004D01*
X01Y0206229D02*
X0100013Y0205234D01*
X0100054Y0204241D01*
X0100121Y0203248D01*
X0100215Y0202258D01*
X0100336Y0201271D01*
X0100484Y0200287D01*
X0100658Y0199308D01*
X0100859Y0198333D01*
X0101086Y0197365D01*
X0101339Y0196403D01*
X0101618Y0195448D01*
X0101923Y0194501D01*
X0102253Y0193563D01*
X0102609Y0192634D01*
X0102989Y0191715D01*
X0103395Y0190807D01*
X0103824Y018991D01*
X0104279Y0189025D01*
X0104756Y0188152D01*
X0105257Y0187293D01*
X0105782Y0186448D01*
X0106329Y0185617D01*
X0106898Y0184801D01*
X0107489Y0184002D01*
X0108102Y0183218D01*
X0108736Y0182451D01*
X010939Y0181702D01*
X0110064Y0180971D01*
X0110758Y0180258D01*
X011147Y0179564D01*
X0112202Y017889D01*
X0112951Y0178235D01*
X0113718Y0177602D01*
X0114502Y0176989D01*
X0115302Y0176398D01*
X0116117Y0175829D01*
X0116948Y0175282D01*
X0117793Y0174758D01*
X0118652Y0174256D01*
X0119525Y0173778D01*
X012041Y0173325D01*
X0121307Y0172895D01*
X0122215Y0172489D01*
X0123134Y0172109D01*
X0124063Y0171753D01*
X0125002Y0171423D01*
X0125948Y0171118D01*
X0126903Y0170839D01*
X0127865Y0170586D01*
X0128833Y0170359D01*
X0129808Y0170158D01*
X0130787Y0169984D01*
X0131771Y0169836D01*
X0132758Y0169715D01*
X0133748Y0169621D01*
X0134741Y0169554D01*
X0135734Y0169513D01*
X0136729Y01695D01*
X0680768D02*
X0681776Y0169514D01*
X0682783Y0169555D01*
X0683789Y0169623D01*
X0684793Y0169718D01*
X0685794Y0169841D01*
X0686791Y0169991D01*
X0687784Y0170167D01*
X0688771Y017037D01*
X0689753Y01706D01*
X0690728Y0170857D01*
X0691696Y017114D01*
X0692656Y0171449D01*
X0693607Y0171784D01*
X0694549Y0172144D01*
X069548Y017253D01*
X0696401Y0172941D01*
X069731Y0173377D01*
X0698208Y0173837D01*
X0699092Y0174321D01*
X0699963Y017483D01*
X070082Y0175361D01*
X0701662Y0175916D01*
X0702489Y0176493D01*
X07033Y0177092D01*
X0704094Y0177713D01*
X0704871Y0178355D01*
X0705631Y0179018D01*
X0706372Y0179702D01*
X0707095Y0180405D01*
X0707798Y0181128D01*
X0708482Y0181869D01*
X0709145Y0182629D01*
X0709787Y0183406D01*
X0710408Y01842D01*
X0711007Y0185011D01*
X0711585Y0185838D01*
X0712139Y018668D01*
X0712671Y0187537D01*
X0713179Y0188408D01*
X0713663Y0189293D01*
X0714123Y019019D01*
X0714559Y0191099D01*
X071497Y019202D01*
X0715356Y0192951D01*
X0715716Y0193893D01*
X0716051Y0194844D01*
X071636Y0195804D01*
X0716643Y0196772D01*
X0716899Y0197747D01*
X071713Y0198729D01*
X0717333Y0199716D01*
X071751Y0200709D01*
X0717659Y0201706D01*
X0717782Y0202707D01*
X0717877Y0203711D01*
X0717945Y0204717D01*
X0717986Y0205724D01*
X0718Y0206732D01*
Y0409771D01*
X0099515Y0410004D02*
X01Y0206239D01*
X0137Y01695D02*
X0681Y01695D01*
X01365Y0447488D02*
X0680271Y04475D01*
D96*
X0651953Y0210957D02*
Y0224552D01*
X0651047Y0195124D02*
X0653124Y0193047D01*
X0651047Y0195124D02*
Y0210051D01*
X0653124Y0193047D02*
X0669669D01*
X0651047Y0210051D02*
X0651953Y0210957D01*
X0649004Y02275D02*
X0651953Y0224552D01*
X0630004Y02465D02*
X0642047Y0234457D01*
Y0230449D02*
X0644996Y02275D01*
X0649004D01*
X0642047Y0230449D02*
Y0234457D01*
X0669669Y0193047D02*
X0701Y0224379D01*
X066375Y028575D02*
X0664Y02855D01*
X066375Y028575D02*
Y032175D01*
X06635Y0322D02*
X066375Y032175D01*
X043035Y0231328D02*
X0431522Y02325D01*
X0477D01*
X043035Y0193172D02*
Y0231328D01*
X0429179Y0192D02*
X043035Y0193172D01*
X0241172Y0192D02*
X0429179D01*
X024Y0193172D02*
X0241172Y0192D01*
X024Y0193172D02*
Y02015D01*
X03805Y0195D02*
Y0212D01*
X0415Y0195586D02*
Y0215914D01*
X0251672Y0195D02*
X03805D01*
X0249Y0197672D02*
X0251672Y0195D01*
X03805D02*
X0414414D01*
X0415Y0195586D01*
X0249Y0197672D02*
Y024243D01*
X02535Y02315D02*
X02835D01*
X02505Y024393D02*
Y02895D01*
X0249Y024243D02*
X02505Y024393D01*
X02835Y02315D02*
Y0259004D01*
X0281Y0261504D02*
X02835Y0259004D01*
X0281Y0261504D02*
Y0268698D01*
X0425303Y02165D02*
Y0276281D01*
X0426475Y0277453D01*
X0541547D01*
X0547Y0272D01*
X0415586Y02165D02*
X0425303D01*
X062664Y02395D02*
X0626814Y0239674D01*
X0620721Y02395D02*
X062664D01*
X0576662Y0264495D02*
X0601657Y02395D01*
X0522024Y0264495D02*
X0576662D01*
X0492Y04085D02*
Y0423D01*
X05695Y04085D02*
Y0423D01*
X0701Y0224379D02*
Y02425D01*
X0602Y02465D02*
X0630004D01*
X0547Y0272D02*
X0555D01*
X0543219Y0391122D02*
X0568328D01*
X05695Y0392294D02*
Y04085D01*
X0568328Y0391122D02*
X05695Y0392294D01*
X0492Y0219609D02*
Y02275D01*
X0487Y02325D02*
X0492Y02275D01*
X0487Y021461D02*
X0492Y0219609D01*
X03805Y0212D02*
X0385Y02165D01*
X0616Y0208D02*
X0621953Y0213953D01*
Y0238268D01*
X0620721Y02395D02*
X0621953Y0238268D01*
X0601657Y02395D02*
X0620721D01*
X0542047Y0324953D02*
X0543861Y0323139D01*
X0542047Y0324953D02*
Y0389951D01*
X0543219Y0391122D01*
X0331Y0264D02*
X0368414D01*
X0369Y02575D02*
Y0263414D01*
X0368414Y0264D02*
X0369Y0263414D01*
X0415Y0215914D02*
X0415586Y02165D01*
X0487Y0208D02*
Y021461D01*
D97*
X0176Y0385D02*
X0185D01*
X02035Y03195D02*
Y03665D01*
X0185Y0385D02*
X02035Y03665D01*
D105*
X0176Y040385D02*
D03*
X0156315D02*
D03*
X0175842Y019985D02*
D03*
X0156158D02*
D03*
D106*
X0359Y03575D02*
D03*
X0369D02*
D03*
X0379D02*
D03*
X0389D02*
D03*
X0399D02*
D03*
X0409Y02575D02*
D03*
X0399D02*
D03*
X0389D02*
D03*
X0379D02*
D03*
X0369D02*
D03*
X02685Y0257D02*
D03*
X02785D02*
D03*
X02885D02*
D03*
X02985D02*
D03*
X03085D02*
D03*
X02985Y0357D02*
D03*
X02885D02*
D03*
X02785D02*
D03*
X02685D02*
D03*
X02585D02*
D03*
X05855Y0292158D02*
D03*
Y0311842D02*
D03*
X02215Y040585D02*
D03*
X02115D02*
D03*
X02015D02*
D03*
X0477Y01955D02*
D03*
X0467D02*
D03*
X0457D02*
D03*
X0487Y0208D02*
D03*
X0477D02*
D03*
X0467D02*
D03*
X0457D02*
D03*
X0487Y03725D02*
D03*
Y03825D02*
D03*
X0477Y03725D02*
D03*
Y03825D02*
D03*
X0487Y03625D02*
D03*
X0477D02*
D03*
X0487Y03525D02*
D03*
X0477D02*
D03*
X0487Y03425D02*
D03*
X0477D02*
D03*
X0487Y03325D02*
D03*
X0477D02*
D03*
X0487Y03225D02*
D03*
X0477D02*
D03*
X0487Y03125D02*
D03*
X0477D02*
D03*
X0487Y03025D02*
D03*
X0477D02*
D03*
X0487Y02925D02*
D03*
X0477D02*
D03*
X0487Y02825D02*
D03*
X0477D02*
D03*
X0487Y02725D02*
D03*
X0477D02*
D03*
X0487Y02625D02*
D03*
X0477D02*
D03*
X0487Y02525D02*
D03*
X0477D02*
D03*
X0487Y02425D02*
D03*
X0477D02*
D03*
X0497Y03825D02*
D03*
Y03725D02*
D03*
X0507Y03825D02*
D03*
Y03725D02*
D03*
X0517Y03825D02*
D03*
Y03725D02*
D03*
X0527Y03825D02*
D03*
Y03725D02*
D03*
X0537Y03825D02*
D03*
Y03725D02*
D03*
X0547Y03825D02*
D03*
Y03725D02*
D03*
X0557Y03825D02*
D03*
Y03725D02*
D03*
X0567Y03825D02*
D03*
Y03725D02*
D03*
X0577Y03825D02*
D03*
Y03725D02*
D03*
X0587Y03825D02*
D03*
Y03725D02*
D03*
X0597Y03825D02*
D03*
Y03725D02*
D03*
X0607Y03825D02*
D03*
Y03725D02*
D03*
X0617Y03825D02*
D03*
Y03725D02*
D03*
X0627Y03825D02*
D03*
Y03725D02*
D03*
X0637Y03825D02*
D03*
Y03725D02*
D03*
X0647Y03825D02*
D03*
Y03725D02*
D03*
X0657Y03825D02*
D03*
Y03725D02*
D03*
X0667Y03825D02*
D03*
Y03725D02*
D03*
Y03625D02*
D03*
X0657D02*
D03*
X0667Y03525D02*
D03*
X0657D02*
D03*
X0667Y03425D02*
D03*
X0657D02*
D03*
X0667Y03325D02*
D03*
X0657D02*
D03*
Y02725D02*
D03*
X0667D02*
D03*
X0657Y02625D02*
D03*
X0667D02*
D03*
X0657Y02525D02*
D03*
X0667D02*
D03*
X0657Y02425D02*
D03*
X0667D02*
D03*
Y02325D02*
D03*
Y02225D02*
D03*
X0657Y02325D02*
D03*
Y02225D02*
D03*
X0647Y02325D02*
D03*
Y02225D02*
D03*
X0637Y02325D02*
D03*
Y02225D02*
D03*
X0627Y02325D02*
D03*
Y02225D02*
D03*
X0617Y02325D02*
D03*
Y02225D02*
D03*
X0607Y02325D02*
D03*
Y02225D02*
D03*
X0597Y02325D02*
D03*
Y02225D02*
D03*
X0587Y02325D02*
D03*
Y02225D02*
D03*
X0577Y02325D02*
D03*
Y02225D02*
D03*
X0567Y02325D02*
D03*
Y02225D02*
D03*
X0557Y02325D02*
D03*
Y02225D02*
D03*
X0547Y02325D02*
D03*
Y02225D02*
D03*
X0537Y02325D02*
D03*
Y02225D02*
D03*
X0527Y02325D02*
D03*
Y02225D02*
D03*
X0517Y02325D02*
D03*
Y02225D02*
D03*
X0507Y02325D02*
D03*
Y02225D02*
D03*
X0497Y02325D02*
D03*
Y02225D02*
D03*
X0487Y02325D02*
D03*
Y02225D02*
D03*
X0477Y02325D02*
D03*
Y02225D02*
D03*
X0369Y0272D02*
D03*
X0359D02*
D03*
X0369Y0282D02*
D03*
X0359D02*
D03*
X0369Y0292D02*
D03*
X0359D02*
D03*
X0369Y0302D02*
D03*
X0359D02*
D03*
X0369Y0312D02*
D03*
X0359D02*
D03*
X0369Y0322D02*
D03*
X0359D02*
D03*
X0369Y0332D02*
D03*
X0359D02*
D03*
X0369Y0342D02*
D03*
X0359D02*
D03*
X0425303Y02065D02*
D03*
Y02165D02*
D03*
X0435303Y02065D02*
D03*
Y02165D02*
D03*
X0445303Y02065D02*
D03*
Y02165D02*
D03*
X0176Y037485D02*
D03*
Y035485D02*
D03*
Y036485D02*
D03*
X0353Y02165D02*
D03*
Y02065D02*
D03*
X0343Y02165D02*
D03*
Y02065D02*
D03*
X0333Y02165D02*
D03*
Y02065D02*
D03*
X0352Y0405D02*
D03*
Y0395D02*
D03*
X0342Y0405D02*
D03*
Y0395D02*
D03*
X0332Y0405D02*
D03*
Y0395D02*
D03*
X0503Y0208D02*
D03*
X0513D02*
D03*
X0523D02*
D03*
X0533D02*
D03*
X0543D02*
D03*
X0553D02*
D03*
X04255Y0395D02*
D03*
Y0405D02*
D03*
X04355Y0395D02*
D03*
Y0405D02*
D03*
X04455Y0395D02*
D03*
Y0405D02*
D03*
X0385Y02065D02*
D03*
Y02165D02*
D03*
X0395Y02065D02*
D03*
Y02165D02*
D03*
X0405Y02065D02*
D03*
Y02165D02*
D03*
X0385Y0395D02*
D03*
Y0405D02*
D03*
X0395Y0395D02*
D03*
Y0405D02*
D03*
X0405Y0395D02*
D03*
Y0405D02*
D03*
X0656Y0208D02*
D03*
Y0198D02*
D03*
X0646Y0208D02*
D03*
Y0198D02*
D03*
X0636Y0208D02*
D03*
Y0198D02*
D03*
X0626Y0208D02*
D03*
Y0198D02*
D03*
X0616Y0208D02*
D03*
Y0198D02*
D03*
X0683Y04015D02*
D03*
X0693D02*
D03*
X0683Y03915D02*
D03*
X0693D02*
D03*
X0683Y03815D02*
D03*
X0693D02*
D03*
X0683Y03715D02*
D03*
X0693D02*
D03*
X0359Y03775D02*
D03*
X0369D02*
D03*
X0379D02*
D03*
X0389D02*
D03*
X0399D02*
D03*
X0409D02*
D03*
X02585Y037735D02*
D03*
X02685D02*
D03*
X02785D02*
D03*
X02885D02*
D03*
X02985D02*
D03*
X03085D02*
D03*
X0275Y02065D02*
D03*
Y02165D02*
D03*
X0285Y02065D02*
D03*
Y02165D02*
D03*
X0295Y02065D02*
D03*
Y02165D02*
D03*
X0275Y0395D02*
D03*
Y0405D02*
D03*
X0285Y0395D02*
D03*
Y0405D02*
D03*
X0295Y0395D02*
D03*
Y0405D02*
D03*
X06395Y04085D02*
D03*
X06295D02*
D03*
X06195D02*
D03*
X06095D02*
D03*
X05995D02*
D03*
X05895D02*
D03*
X05795D02*
D03*
X05695D02*
D03*
X0552D02*
D03*
Y03985D02*
D03*
X0542Y04085D02*
D03*
Y03985D02*
D03*
X0532Y04085D02*
D03*
Y03985D02*
D03*
X0522Y04085D02*
D03*
Y03985D02*
D03*
X0512Y04085D02*
D03*
Y03985D02*
D03*
X0502Y04085D02*
D03*
Y03985D02*
D03*
X0492Y04085D02*
D03*
Y03985D02*
D03*
X0482Y04085D02*
D03*
Y03985D02*
D03*
D107*
X0409Y03575D02*
D03*
X0359Y02575D02*
D03*
X02585Y0257D02*
D03*
X03085Y0357D02*
D03*
D108*
X05755Y0331D02*
D03*
X02405D02*
D03*
D109*
X0133Y0338248D02*
D03*
Y031935D02*
D03*
Y0300453D02*
D03*
D110*
X0683Y0324D02*
D03*
D111*
X0693D02*
D03*
X0683Y0354D02*
D03*
X0693D02*
D03*
D112*
X0132Y0229484D02*
D03*
Y025035D02*
D03*
D113*
X0561Y0361D02*
D03*
X0532547Y0311834D02*
D03*
X0556Y03565D02*
D03*
X0602Y03595D02*
D03*
X0593D02*
D03*
X0621D02*
D03*
X06125D02*
D03*
X04965Y0352D02*
D03*
X0521Y0348D02*
D03*
X0553Y03415D02*
D03*
X06465Y02155D02*
D03*
X0664Y02855D02*
D03*
X06695Y029D02*
D03*
X06635Y0322D02*
D03*
X06695Y031D02*
D03*
X06765Y03465D02*
D03*
Y03615D02*
D03*
X0703162Y0397218D02*
D03*
X06895Y0408D02*
D03*
X058Y04235D02*
D03*
X02325Y01995D02*
D03*
X0204Y01745D02*
D03*
X02505Y0299D02*
D03*
X0326Y0272D02*
D03*
X0243Y0246D02*
D03*
X024Y02015D02*
D03*
X02535Y02315D02*
D03*
X02835D02*
D03*
X0281Y0268698D02*
D03*
X0703162Y0377535D02*
D03*
X0650774Y0274194D02*
D03*
X0626814Y0239674D02*
D03*
X0492Y0423D02*
D03*
X0507Y0436D02*
D03*
X05175Y0432D02*
D03*
X05265Y04285D02*
D03*
X05695Y0423D02*
D03*
X0667805Y0197547D02*
D03*
X0701Y02425D02*
D03*
X0674629Y0204371D02*
D03*
X0602Y02465D02*
D03*
X0459Y02415D02*
D03*
Y02495D02*
D03*
X0522024Y0264495D02*
D03*
X0459Y02585D02*
D03*
Y02675D02*
D03*
X0555Y0272D02*
D03*
X0689025Y0196957D02*
D03*
X0695Y01975D02*
D03*
X07025Y0385D02*
D03*
X0650078Y0390922D02*
D03*
X034557Y0373035D02*
D03*
X03455Y0367D02*
D03*
X03455Y0379035D02*
D03*
X0345582Y0385034D02*
D03*
X0457Y03375D02*
D03*
X0456918Y0327D02*
D03*
X0457Y0317D02*
D03*
Y0307D02*
D03*
X03765Y0216D02*
D03*
X0594646Y0240146D02*
D03*
X03185Y0208D02*
D03*
X04985Y01995D02*
D03*
X0583Y019D02*
D03*
X05275D02*
D03*
X0688Y0414D02*
D03*
X0377Y0386D02*
D03*
Y03925D02*
D03*
X05465Y0322D02*
D03*
X0331Y0264D02*
D03*
X03185Y0201D02*
D03*
X02505Y02895D02*
D03*
X0662Y0406D02*
D03*
X05995Y02D02*
D03*
X0593Y01955D02*
D03*
X0504Y0195D02*
D03*
X0646774Y02685D02*
D03*
X06575Y0298091D02*
D03*
X0673Y02755D02*
D03*
X0450328Y0347672D02*
D03*
X0451843Y0382157D02*
D03*
X04685Y03675D02*
D03*
X0445Y0382D02*
D03*
X04685Y03575D02*
D03*
X044025Y034775D02*
D03*
X041825D02*
D03*
X042875D02*
D03*
X04Y0307D02*
D03*
Y03365D02*
D03*
Y0327D02*
D03*
Y03175D02*
D03*
X06195Y0401D02*
D03*
X06095D02*
D03*
X05995D02*
D03*
X05895D02*
D03*
X03245Y0215D02*
D03*
Y0222D02*
D03*
X0176Y0385D02*
D03*
X02035Y03195D02*
D03*
M02*
